<?xml version="1.0" encoding="utf-8" standalone="no"?>
<!DOCTYPE svg PUBLIC "-//W3C//DTD SVG 1.1//EN"
  "http://www.w3.org/Graphics/SVG/1.1/DTD/svg11.dtd">
<svg xmlns:xlink="http://www.w3.org/1999/xlink" width="612pt" height="237.6pt" viewBox="0 0 612 237.6" xmlns="http://www.w3.org/2000/svg" version="1.1">
 <metadata>
  <rdf:RDF xmlns:dc="http://purl.org/dc/elements/1.1/" xmlns:cc="http://creativecommons.org/ns#" xmlns:rdf="http://www.w3.org/1999/02/22-rdf-syntax-ns#">
   <cc:Work>
    <dc:type rdf:resource="http://purl.org/dc/dcmitype/StillImage"/>
    <dc:date>2026-06-27T22:59:14.858493</dc:date>
    <dc:format>image/svg+xml</dc:format>
    <dc:creator>
     <cc:Agent>
      <dc:title>Matplotlib v3.10.9, https://matplotlib.org/</dc:title>
     </cc:Agent>
    </dc:creator>
   </cc:Work>
  </rdf:RDF>
 </metadata>
 <defs>
  <style type="text/css">*{stroke-linejoin: round; stroke-linecap: butt}</style>
 </defs>
 <g id="figure_1">
  <g id="patch_1">
   <path d="M 0 237.6 
L 612 237.6 
L 612 0 
L 0 0 
z
" style="fill: #ffffff"/>
  </g>
  <g id="axes_1">
   <g id="patch_2">
    <path d="M 35.2872 155.07 
L 206.2008 155.07 
Q 213.372 155.07 213.372 148.374 
L 213.372 89.226 
Q 213.372 82.53 206.2008 82.53 
L 35.2872 82.53 
Q 28.116 82.53 28.116 89.226 
L 28.116 148.374 
Q 28.116 155.07 35.2872 155.07 
z
" clip-path="url(#p0d011d3b6e)" style="fill: #eef2f6; stroke: #1f3a5f; stroke-width: 1.6; stroke-linejoin: miter"/>
   </g>
   <g id="patch_3">
    <path d="M 405.7992 155.07 
L 576.7128 155.07 
Q 583.884 155.07 583.884 148.374 
L 583.884 89.226 
Q 583.884 82.53 576.7128 82.53 
L 405.7992 82.53 
Q 398.628 82.53 398.628 89.226 
L 398.628 148.374 
Q 398.628 155.07 405.7992 155.07 
z
" clip-path="url(#p0d011d3b6e)" style="fill: #eef2f6; stroke: #41607f; stroke-width: 1.6; stroke-linejoin: miter"/>
   </g>
   <g id="patch_4">
    <path d="M 218.35972 99.27 
Q 306.000332 99.27 391.628483 99.27 
" clip-path="url(#p0d011d3b6e)" style="fill: none; stroke: #2e7d5b; stroke-width: 1.8; stroke-linecap: round"/>
    <path d="M 386.028483 96.47 
L 391.628483 99.27 
L 386.028483 102.07 
z
" clip-path="url(#p0d011d3b6e)" style="fill: #2e7d5b; stroke: #2e7d5b; stroke-width: 1.8; stroke-linecap: round"/>
   </g>
   <g id="patch_5">
    <path d="M 393.64028 138.33 
Q 305.999668 138.33 220.371517 138.33 
" clip-path="url(#p0d011d3b6e)" style="fill: none; stroke: #c8553d; stroke-width: 1.8; stroke-linecap: round"/>
    <path d="M 225.971517 141.13 
L 220.371517 138.33 
L 225.971517 135.53 
z
" clip-path="url(#p0d011d3b6e)" style="fill: #c8553d; stroke: #c8553d; stroke-width: 1.8; stroke-linecap: round"/>
   </g>
   <g id="text_1">
    <!-- Protection Buyer -->
    <g style="fill: #1f3a5f" transform="translate(70.725445 110.43) scale(0.105 -0.105)">
     <defs>
      <path id="DejaVuSans-Bold-50" d="M 588 4666 
L 2584 4666 
Q 3475 4666 3951 4270 
Q 4428 3875 4428 3144 
Q 4428 2409 3951 2014 
Q 3475 1619 2584 1619 
L 1791 1619 
L 1791 0 
L 588 0 
L 588 4666 
z
M 1791 3794 
L 1791 2491 
L 2456 2491 
Q 2806 2491 2997 2661 
Q 3188 2831 3188 3144 
Q 3188 3456 2997 3625 
Q 2806 3794 2456 3794 
L 1791 3794 
z
" transform="scale(0.015625)"/>
      <path id="DejaVuSans-Bold-72" d="M 3138 2547 
Q 2991 2616 2845 2648 
Q 2700 2681 2553 2681 
Q 2122 2681 1889 2404 
Q 1656 2128 1656 1613 
L 1656 0 
L 538 0 
L 538 3500 
L 1656 3500 
L 1656 2925 
Q 1872 3269 2151 3426 
Q 2431 3584 2822 3584 
Q 2878 3584 2943 3579 
Q 3009 3575 3134 3559 
L 3138 2547 
z
" transform="scale(0.015625)"/>
      <path id="DejaVuSans-Bold-6f" d="M 2203 2784 
Q 1831 2784 1636 2517 
Q 1441 2250 1441 1747 
Q 1441 1244 1636 976 
Q 1831 709 2203 709 
Q 2569 709 2762 976 
Q 2956 1244 2956 1747 
Q 2956 2250 2762 2517 
Q 2569 2784 2203 2784 
z
M 2203 3584 
Q 3106 3584 3614 3096 
Q 4122 2609 4122 1747 
Q 4122 884 3614 396 
Q 3106 -91 2203 -91 
Q 1297 -91 786 396 
Q 275 884 275 1747 
Q 275 2609 786 3096 
Q 1297 3584 2203 3584 
z
" transform="scale(0.015625)"/>
      <path id="DejaVuSans-Bold-74" d="M 1759 4494 
L 1759 3500 
L 2913 3500 
L 2913 2700 
L 1759 2700 
L 1759 1216 
Q 1759 972 1856 886 
Q 1953 800 2241 800 
L 2816 800 
L 2816 0 
L 1856 0 
Q 1194 0 917 276 
Q 641 553 641 1216 
L 641 2700 
L 84 2700 
L 84 3500 
L 641 3500 
L 641 4494 
L 1759 4494 
z
" transform="scale(0.015625)"/>
      <path id="DejaVuSans-Bold-65" d="M 4031 1759 
L 4031 1441 
L 1416 1441 
Q 1456 1047 1700 850 
Q 1944 653 2381 653 
Q 2734 653 3104 758 
Q 3475 863 3866 1075 
L 3866 213 
Q 3469 63 3072 -14 
Q 2675 -91 2278 -91 
Q 1328 -91 801 392 
Q 275 875 275 1747 
Q 275 2603 792 3093 
Q 1309 3584 2216 3584 
Q 3041 3584 3536 3087 
Q 4031 2591 4031 1759 
z
M 2881 2131 
Q 2881 2450 2695 2645 
Q 2509 2841 2209 2841 
Q 1884 2841 1681 2658 
Q 1478 2475 1428 2131 
L 2881 2131 
z
" transform="scale(0.015625)"/>
      <path id="DejaVuSans-Bold-63" d="M 3366 3391 
L 3366 2478 
Q 3138 2634 2908 2709 
Q 2678 2784 2431 2784 
Q 1963 2784 1702 2511 
Q 1441 2238 1441 1747 
Q 1441 1256 1702 982 
Q 1963 709 2431 709 
Q 2694 709 2930 787 
Q 3166 866 3366 1019 
L 3366 103 
Q 3103 6 2833 -42 
Q 2563 -91 2291 -91 
Q 1344 -91 809 395 
Q 275 881 275 1747 
Q 275 2613 809 3098 
Q 1344 3584 2291 3584 
Q 2566 3584 2833 3536 
Q 3100 3488 3366 3391 
z
" transform="scale(0.015625)"/>
      <path id="DejaVuSans-Bold-69" d="M 538 3500 
L 1656 3500 
L 1656 0 
L 538 0 
L 538 3500 
z
M 538 4863 
L 1656 4863 
L 1656 3950 
L 538 3950 
L 538 4863 
z
" transform="scale(0.015625)"/>
      <path id="DejaVuSans-Bold-6e" d="M 4056 2131 
L 4056 0 
L 2931 0 
L 2931 347 
L 2931 1631 
Q 2931 2084 2911 2256 
Q 2891 2428 2841 2509 
Q 2775 2619 2662 2680 
Q 2550 2741 2406 2741 
Q 2056 2741 1856 2470 
Q 1656 2200 1656 1722 
L 1656 0 
L 538 0 
L 538 3500 
L 1656 3500 
L 1656 2988 
Q 1909 3294 2193 3439 
Q 2478 3584 2822 3584 
Q 3428 3584 3742 3212 
Q 4056 2841 4056 2131 
z
" transform="scale(0.015625)"/>
      <path id="DejaVuSans-Bold-20" transform="scale(0.015625)"/>
      <path id="DejaVuSans-Bold-42" d="M 2456 2859 
Q 2741 2859 2887 2984 
Q 3034 3109 3034 3353 
Q 3034 3594 2887 3720 
Q 2741 3847 2456 3847 
L 1791 3847 
L 1791 2859 
L 2456 2859 
z
M 2497 819 
Q 2859 819 3042 972 
Q 3225 1125 3225 1434 
Q 3225 1738 3044 1889 
Q 2863 2041 2497 2041 
L 1791 2041 
L 1791 819 
L 2497 819 
z
M 3616 2497 
Q 4003 2384 4215 2081 
Q 4428 1778 4428 1338 
Q 4428 663 3972 331 
Q 3516 0 2584 0 
L 588 0 
L 588 4666 
L 2394 4666 
Q 3366 4666 3802 4372 
Q 4238 4078 4238 3431 
Q 4238 3091 4078 2852 
Q 3919 2613 3616 2497 
z
" transform="scale(0.015625)"/>
      <path id="DejaVuSans-Bold-75" d="M 500 1363 
L 500 3500 
L 1625 3500 
L 1625 3150 
Q 1625 2866 1622 2436 
Q 1619 2006 1619 1863 
Q 1619 1441 1641 1255 
Q 1663 1069 1716 984 
Q 1784 875 1895 815 
Q 2006 756 2150 756 
Q 2500 756 2700 1025 
Q 2900 1294 2900 1772 
L 2900 3500 
L 4019 3500 
L 4019 0 
L 2900 0 
L 2900 506 
Q 2647 200 2364 54 
Q 2081 -91 1741 -91 
Q 1134 -91 817 281 
Q 500 653 500 1363 
z
" transform="scale(0.015625)"/>
      <path id="DejaVuSans-Bold-79" d="M 78 3500 
L 1197 3500 
L 2138 1125 
L 2938 3500 
L 4056 3500 
L 2584 -331 
Q 2363 -916 2067 -1148 
Q 1772 -1381 1288 -1381 
L 641 -1381 
L 641 -647 
L 991 -647 
Q 1275 -647 1404 -556 
Q 1534 -466 1606 -231 
L 1638 -134 
L 78 3500 
z
" transform="scale(0.015625)"/>
     </defs>
     <use xlink:href="#DejaVuSans-Bold-50"/>
     <use xlink:href="#DejaVuSans-Bold-72" transform="translate(73.291016 0)"/>
     <use xlink:href="#DejaVuSans-Bold-6f" transform="translate(122.607422 0)"/>
     <use xlink:href="#DejaVuSans-Bold-74" transform="translate(191.308594 0)"/>
     <use xlink:href="#DejaVuSans-Bold-65" transform="translate(239.111328 0)"/>
     <use xlink:href="#DejaVuSans-Bold-63" transform="translate(306.933594 0)"/>
     <use xlink:href="#DejaVuSans-Bold-74" transform="translate(366.210938 0)"/>
     <use xlink:href="#DejaVuSans-Bold-69" transform="translate(414.013672 0)"/>
     <use xlink:href="#DejaVuSans-Bold-6f" transform="translate(448.291016 0)"/>
     <use xlink:href="#DejaVuSans-Bold-6e" transform="translate(516.992188 0)"/>
     <use xlink:href="#DejaVuSans-Bold-20" transform="translate(588.183594 0)"/>
     <use xlink:href="#DejaVuSans-Bold-42" transform="translate(622.998047 0)"/>
     <use xlink:href="#DejaVuSans-Bold-75" transform="translate(699.21875 0)"/>
     <use xlink:href="#DejaVuSans-Bold-79" transform="translate(770.410156 0)"/>
     <use xlink:href="#DejaVuSans-Bold-65" transform="translate(835.595703 0)"/>
     <use xlink:href="#DejaVuSans-Bold-72" transform="translate(903.417969 0)"/>
    </g>
   </g>
   <g id="text_2">
    <!-- worried about default -->
    <g style="fill: #41607f" transform="translate(74.836031 134.424) scale(0.085 -0.085)">
     <defs>
      <path id="DejaVuSans-77" d="M 269 3500 
L 844 3500 
L 1563 769 
L 2278 3500 
L 2956 3500 
L 3675 769 
L 4391 3500 
L 4966 3500 
L 4050 0 
L 3372 0 
L 2619 2869 
L 1863 0 
L 1184 0 
L 269 3500 
z
" transform="scale(0.015625)"/>
      <path id="DejaVuSans-6f" d="M 1959 3097 
Q 1497 3097 1228 2736 
Q 959 2375 959 1747 
Q 959 1119 1226 758 
Q 1494 397 1959 397 
Q 2419 397 2687 759 
Q 2956 1122 2956 1747 
Q 2956 2369 2687 2733 
Q 2419 3097 1959 3097 
z
M 1959 3584 
Q 2709 3584 3137 3096 
Q 3566 2609 3566 1747 
Q 3566 888 3137 398 
Q 2709 -91 1959 -91 
Q 1206 -91 779 398 
Q 353 888 353 1747 
Q 353 2609 779 3096 
Q 1206 3584 1959 3584 
z
" transform="scale(0.015625)"/>
      <path id="DejaVuSans-72" d="M 2631 2963 
Q 2534 3019 2420 3045 
Q 2306 3072 2169 3072 
Q 1681 3072 1420 2755 
Q 1159 2438 1159 1844 
L 1159 0 
L 581 0 
L 581 3500 
L 1159 3500 
L 1159 2956 
Q 1341 3275 1631 3429 
Q 1922 3584 2338 3584 
Q 2397 3584 2469 3576 
Q 2541 3569 2628 3553 
L 2631 2963 
z
" transform="scale(0.015625)"/>
      <path id="DejaVuSans-69" d="M 603 3500 
L 1178 3500 
L 1178 0 
L 603 0 
L 603 3500 
z
M 603 4863 
L 1178 4863 
L 1178 4134 
L 603 4134 
L 603 4863 
z
" transform="scale(0.015625)"/>
      <path id="DejaVuSans-65" d="M 3597 1894 
L 3597 1613 
L 953 1613 
Q 991 1019 1311 708 
Q 1631 397 2203 397 
Q 2534 397 2845 478 
Q 3156 559 3463 722 
L 3463 178 
Q 3153 47 2828 -22 
Q 2503 -91 2169 -91 
Q 1331 -91 842 396 
Q 353 884 353 1716 
Q 353 2575 817 3079 
Q 1281 3584 2069 3584 
Q 2775 3584 3186 3129 
Q 3597 2675 3597 1894 
z
M 3022 2063 
Q 3016 2534 2758 2815 
Q 2500 3097 2075 3097 
Q 1594 3097 1305 2825 
Q 1016 2553 972 2059 
L 3022 2063 
z
" transform="scale(0.015625)"/>
      <path id="DejaVuSans-64" d="M 2906 2969 
L 2906 4863 
L 3481 4863 
L 3481 0 
L 2906 0 
L 2906 525 
Q 2725 213 2448 61 
Q 2172 -91 1784 -91 
Q 1150 -91 751 415 
Q 353 922 353 1747 
Q 353 2572 751 3078 
Q 1150 3584 1784 3584 
Q 2172 3584 2448 3432 
Q 2725 3281 2906 2969 
z
M 947 1747 
Q 947 1113 1208 752 
Q 1469 391 1925 391 
Q 2381 391 2643 752 
Q 2906 1113 2906 1747 
Q 2906 2381 2643 2742 
Q 2381 3103 1925 3103 
Q 1469 3103 1208 2742 
Q 947 2381 947 1747 
z
" transform="scale(0.015625)"/>
      <path id="DejaVuSans-20" transform="scale(0.015625)"/>
      <path id="DejaVuSans-61" d="M 2194 1759 
Q 1497 1759 1228 1600 
Q 959 1441 959 1056 
Q 959 750 1161 570 
Q 1363 391 1709 391 
Q 2188 391 2477 730 
Q 2766 1069 2766 1631 
L 2766 1759 
L 2194 1759 
z
M 3341 1997 
L 3341 0 
L 2766 0 
L 2766 531 
Q 2569 213 2275 61 
Q 1981 -91 1556 -91 
Q 1019 -91 701 211 
Q 384 513 384 1019 
Q 384 1609 779 1909 
Q 1175 2209 1959 2209 
L 2766 2209 
L 2766 2266 
Q 2766 2663 2505 2880 
Q 2244 3097 1772 3097 
Q 1472 3097 1187 3025 
Q 903 2953 641 2809 
L 641 3341 
Q 956 3463 1253 3523 
Q 1550 3584 1831 3584 
Q 2591 3584 2966 3190 
Q 3341 2797 3341 1997 
z
" transform="scale(0.015625)"/>
      <path id="DejaVuSans-62" d="M 3116 1747 
Q 3116 2381 2855 2742 
Q 2594 3103 2138 3103 
Q 1681 3103 1420 2742 
Q 1159 2381 1159 1747 
Q 1159 1113 1420 752 
Q 1681 391 2138 391 
Q 2594 391 2855 752 
Q 3116 1113 3116 1747 
z
M 1159 2969 
Q 1341 3281 1617 3432 
Q 1894 3584 2278 3584 
Q 2916 3584 3314 3078 
Q 3713 2572 3713 1747 
Q 3713 922 3314 415 
Q 2916 -91 2278 -91 
Q 1894 -91 1617 61 
Q 1341 213 1159 525 
L 1159 0 
L 581 0 
L 581 4863 
L 1159 4863 
L 1159 2969 
z
" transform="scale(0.015625)"/>
      <path id="DejaVuSans-75" d="M 544 1381 
L 544 3500 
L 1119 3500 
L 1119 1403 
Q 1119 906 1312 657 
Q 1506 409 1894 409 
Q 2359 409 2629 706 
Q 2900 1003 2900 1516 
L 2900 3500 
L 3475 3500 
L 3475 0 
L 2900 0 
L 2900 538 
Q 2691 219 2414 64 
Q 2138 -91 1772 -91 
Q 1169 -91 856 284 
Q 544 659 544 1381 
z
M 1991 3584 
L 1991 3584 
z
" transform="scale(0.015625)"/>
      <path id="DejaVuSans-74" d="M 1172 4494 
L 1172 3500 
L 2356 3500 
L 2356 3053 
L 1172 3053 
L 1172 1153 
Q 1172 725 1289 603 
Q 1406 481 1766 481 
L 2356 481 
L 2356 0 
L 1766 0 
Q 1100 0 847 248 
Q 594 497 594 1153 
L 594 3053 
L 172 3053 
L 172 3500 
L 594 3500 
L 594 4494 
L 1172 4494 
z
" transform="scale(0.015625)"/>
      <path id="DejaVuSans-66" d="M 2375 4863 
L 2375 4384 
L 1825 4384 
Q 1516 4384 1395 4259 
Q 1275 4134 1275 3809 
L 1275 3500 
L 2222 3500 
L 2222 3053 
L 1275 3053 
L 1275 0 
L 697 0 
L 697 3053 
L 147 3053 
L 147 3500 
L 697 3500 
L 697 3744 
Q 697 4328 969 4595 
Q 1241 4863 1831 4863 
L 2375 4863 
z
" transform="scale(0.015625)"/>
      <path id="DejaVuSans-6c" d="M 603 4863 
L 1178 4863 
L 1178 0 
L 603 0 
L 603 4863 
z
" transform="scale(0.015625)"/>
     </defs>
     <use xlink:href="#DejaVuSans-77"/>
     <use xlink:href="#DejaVuSans-6f" transform="translate(81.787109 0)"/>
     <use xlink:href="#DejaVuSans-72" transform="translate(142.96875 0)"/>
     <use xlink:href="#DejaVuSans-72" transform="translate(182.332031 0)"/>
     <use xlink:href="#DejaVuSans-69" transform="translate(223.445312 0)"/>
     <use xlink:href="#DejaVuSans-65" transform="translate(251.228516 0)"/>
     <use xlink:href="#DejaVuSans-64" transform="translate(312.751953 0)"/>
     <use xlink:href="#DejaVuSans-20" transform="translate(376.228516 0)"/>
     <use xlink:href="#DejaVuSans-61" transform="translate(408.015625 0)"/>
     <use xlink:href="#DejaVuSans-62" transform="translate(469.294922 0)"/>
     <use xlink:href="#DejaVuSans-6f" transform="translate(532.771484 0)"/>
     <use xlink:href="#DejaVuSans-75" transform="translate(593.953125 0)"/>
     <use xlink:href="#DejaVuSans-74" transform="translate(657.332031 0)"/>
     <use xlink:href="#DejaVuSans-20" transform="translate(696.541016 0)"/>
     <use xlink:href="#DejaVuSans-64" transform="translate(728.328125 0)"/>
     <use xlink:href="#DejaVuSans-65" transform="translate(791.804688 0)"/>
     <use xlink:href="#DejaVuSans-66" transform="translate(853.328125 0)"/>
     <use xlink:href="#DejaVuSans-61" transform="translate(888.533203 0)"/>
     <use xlink:href="#DejaVuSans-75" transform="translate(949.8125 0)"/>
     <use xlink:href="#DejaVuSans-6c" transform="translate(1013.191406 0)"/>
     <use xlink:href="#DejaVuSans-74" transform="translate(1040.974609 0)"/>
    </g>
   </g>
   <g id="text_3">
    <!-- Protection Seller -->
    <g style="fill: #41607f" transform="translate(441.457289 110.43) scale(0.105 -0.105)">
     <defs>
      <path id="DejaVuSans-Bold-53" d="M 3834 4519 
L 3834 3531 
Q 3450 3703 3084 3790 
Q 2719 3878 2394 3878 
Q 1963 3878 1756 3759 
Q 1550 3641 1550 3391 
Q 1550 3203 1689 3098 
Q 1828 2994 2194 2919 
L 2706 2816 
Q 3484 2659 3812 2340 
Q 4141 2022 4141 1434 
Q 4141 663 3683 286 
Q 3225 -91 2284 -91 
Q 1841 -91 1394 -6 
Q 947 78 500 244 
L 500 1259 
Q 947 1022 1364 901 
Q 1781 781 2169 781 
Q 2563 781 2772 912 
Q 2981 1044 2981 1288 
Q 2981 1506 2839 1625 
Q 2697 1744 2272 1838 
L 1806 1941 
Q 1106 2091 782 2419 
Q 459 2747 459 3303 
Q 459 4000 909 4375 
Q 1359 4750 2203 4750 
Q 2588 4750 2994 4692 
Q 3400 4634 3834 4519 
z
" transform="scale(0.015625)"/>
      <path id="DejaVuSans-Bold-6c" d="M 538 4863 
L 1656 4863 
L 1656 0 
L 538 0 
L 538 4863 
z
" transform="scale(0.015625)"/>
     </defs>
     <use xlink:href="#DejaVuSans-Bold-50"/>
     <use xlink:href="#DejaVuSans-Bold-72" transform="translate(73.291016 0)"/>
     <use xlink:href="#DejaVuSans-Bold-6f" transform="translate(122.607422 0)"/>
     <use xlink:href="#DejaVuSans-Bold-74" transform="translate(191.308594 0)"/>
     <use xlink:href="#DejaVuSans-Bold-65" transform="translate(239.111328 0)"/>
     <use xlink:href="#DejaVuSans-Bold-63" transform="translate(306.933594 0)"/>
     <use xlink:href="#DejaVuSans-Bold-74" transform="translate(366.210938 0)"/>
     <use xlink:href="#DejaVuSans-Bold-69" transform="translate(414.013672 0)"/>
     <use xlink:href="#DejaVuSans-Bold-6f" transform="translate(448.291016 0)"/>
     <use xlink:href="#DejaVuSans-Bold-6e" transform="translate(516.992188 0)"/>
     <use xlink:href="#DejaVuSans-Bold-20" transform="translate(588.183594 0)"/>
     <use xlink:href="#DejaVuSans-Bold-53" transform="translate(622.998047 0)"/>
     <use xlink:href="#DejaVuSans-Bold-65" transform="translate(695.019531 0)"/>
     <use xlink:href="#DejaVuSans-Bold-6c" transform="translate(762.841797 0)"/>
     <use xlink:href="#DejaVuSans-Bold-6c" transform="translate(797.119141 0)"/>
     <use xlink:href="#DejaVuSans-Bold-65" transform="translate(831.396484 0)"/>
     <use xlink:href="#DejaVuSans-Bold-72" transform="translate(899.21875 0)"/>
    </g>
   </g>
   <g id="text_4">
    <!-- takes the risk -->
    <g style="fill: #41607f" transform="translate(462.570492 134.424) scale(0.085 -0.085)">
     <defs>
      <path id="DejaVuSans-6b" d="M 581 4863 
L 1159 4863 
L 1159 1991 
L 2875 3500 
L 3609 3500 
L 1753 1863 
L 3688 0 
L 2938 0 
L 1159 1709 
L 1159 0 
L 581 0 
L 581 4863 
z
" transform="scale(0.015625)"/>
      <path id="DejaVuSans-73" d="M 2834 3397 
L 2834 2853 
Q 2591 2978 2328 3040 
Q 2066 3103 1784 3103 
Q 1356 3103 1142 2972 
Q 928 2841 928 2578 
Q 928 2378 1081 2264 
Q 1234 2150 1697 2047 
L 1894 2003 
Q 2506 1872 2764 1633 
Q 3022 1394 3022 966 
Q 3022 478 2636 193 
Q 2250 -91 1575 -91 
Q 1294 -91 989 -36 
Q 684 19 347 128 
L 347 722 
Q 666 556 975 473 
Q 1284 391 1588 391 
Q 1994 391 2212 530 
Q 2431 669 2431 922 
Q 2431 1156 2273 1281 
Q 2116 1406 1581 1522 
L 1381 1569 
Q 847 1681 609 1914 
Q 372 2147 372 2553 
Q 372 3047 722 3315 
Q 1072 3584 1716 3584 
Q 2034 3584 2315 3537 
Q 2597 3491 2834 3397 
z
" transform="scale(0.015625)"/>
      <path id="DejaVuSans-68" d="M 3513 2113 
L 3513 0 
L 2938 0 
L 2938 2094 
Q 2938 2591 2744 2837 
Q 2550 3084 2163 3084 
Q 1697 3084 1428 2787 
Q 1159 2491 1159 1978 
L 1159 0 
L 581 0 
L 581 4863 
L 1159 4863 
L 1159 2956 
Q 1366 3272 1645 3428 
Q 1925 3584 2291 3584 
Q 2894 3584 3203 3211 
Q 3513 2838 3513 2113 
z
" transform="scale(0.015625)"/>
     </defs>
     <use xlink:href="#DejaVuSans-74"/>
     <use xlink:href="#DejaVuSans-61" transform="translate(39.208984 0)"/>
     <use xlink:href="#DejaVuSans-6b" transform="translate(100.488281 0)"/>
     <use xlink:href="#DejaVuSans-65" transform="translate(154.773438 0)"/>
     <use xlink:href="#DejaVuSans-73" transform="translate(216.296875 0)"/>
     <use xlink:href="#DejaVuSans-20" transform="translate(268.396484 0)"/>
     <use xlink:href="#DejaVuSans-74" transform="translate(300.183594 0)"/>
     <use xlink:href="#DejaVuSans-68" transform="translate(339.392578 0)"/>
     <use xlink:href="#DejaVuSans-65" transform="translate(402.771484 0)"/>
     <use xlink:href="#DejaVuSans-20" transform="translate(464.294922 0)"/>
     <use xlink:href="#DejaVuSans-72" transform="translate(496.082031 0)"/>
     <use xlink:href="#DejaVuSans-69" transform="translate(537.195312 0)"/>
     <use xlink:href="#DejaVuSans-73" transform="translate(564.978516 0)"/>
     <use xlink:href="#DejaVuSans-6b" transform="translate(617.078125 0)"/>
    </g>
   </g>
   <g id="text_5">
    <!-- CDS Spread (regular fee) -->
    <g style="fill: #2e7d5b" transform="translate(242.360859 88.11) scale(0.09 -0.09)">
     <defs>
      <path id="DejaVuSans-Bold-43" d="M 4288 256 
Q 3956 84 3597 -3 
Q 3238 -91 2847 -91 
Q 1681 -91 1000 561 
Q 319 1213 319 2328 
Q 319 3447 1000 4098 
Q 1681 4750 2847 4750 
Q 3238 4750 3597 4662 
Q 3956 4575 4288 4403 
L 4288 3438 
Q 3953 3666 3628 3772 
Q 3303 3878 2944 3878 
Q 2300 3878 1931 3465 
Q 1563 3053 1563 2328 
Q 1563 1606 1931 1193 
Q 2300 781 2944 781 
Q 3303 781 3628 887 
Q 3953 994 4288 1222 
L 4288 256 
z
" transform="scale(0.015625)"/>
      <path id="DejaVuSans-Bold-44" d="M 1791 3756 
L 1791 909 
L 2222 909 
Q 2959 909 3348 1275 
Q 3738 1641 3738 2338 
Q 3738 3031 3350 3393 
Q 2963 3756 2222 3756 
L 1791 3756 
z
M 588 4666 
L 1856 4666 
Q 2919 4666 3439 4514 
Q 3959 4363 4331 4000 
Q 4659 3684 4818 3271 
Q 4978 2859 4978 2338 
Q 4978 1809 4818 1395 
Q 4659 981 4331 666 
Q 3956 303 3431 151 
Q 2906 0 1856 0 
L 588 0 
L 588 4666 
z
" transform="scale(0.015625)"/>
      <path id="DejaVuSans-Bold-70" d="M 1656 506 
L 1656 -1331 
L 538 -1331 
L 538 3500 
L 1656 3500 
L 1656 2988 
Q 1888 3294 2169 3439 
Q 2450 3584 2816 3584 
Q 3463 3584 3878 3070 
Q 4294 2556 4294 1747 
Q 4294 938 3878 423 
Q 3463 -91 2816 -91 
Q 2450 -91 2169 54 
Q 1888 200 1656 506 
z
M 2400 2772 
Q 2041 2772 1848 2508 
Q 1656 2244 1656 1747 
Q 1656 1250 1848 986 
Q 2041 722 2400 722 
Q 2759 722 2948 984 
Q 3138 1247 3138 1747 
Q 3138 2247 2948 2509 
Q 2759 2772 2400 2772 
z
" transform="scale(0.015625)"/>
      <path id="DejaVuSans-Bold-61" d="M 2106 1575 
Q 1756 1575 1579 1456 
Q 1403 1338 1403 1106 
Q 1403 894 1545 773 
Q 1688 653 1941 653 
Q 2256 653 2472 879 
Q 2688 1106 2688 1447 
L 2688 1575 
L 2106 1575 
z
M 3816 1997 
L 3816 0 
L 2688 0 
L 2688 519 
Q 2463 200 2181 54 
Q 1900 -91 1497 -91 
Q 953 -91 614 226 
Q 275 544 275 1050 
Q 275 1666 698 1953 
Q 1122 2241 2028 2241 
L 2688 2241 
L 2688 2328 
Q 2688 2594 2478 2717 
Q 2269 2841 1825 2841 
Q 1466 2841 1156 2769 
Q 847 2697 581 2553 
L 581 3406 
Q 941 3494 1303 3539 
Q 1666 3584 2028 3584 
Q 2975 3584 3395 3211 
Q 3816 2838 3816 1997 
z
" transform="scale(0.015625)"/>
      <path id="DejaVuSans-Bold-64" d="M 2919 2988 
L 2919 4863 
L 4044 4863 
L 4044 0 
L 2919 0 
L 2919 506 
Q 2688 197 2409 53 
Q 2131 -91 1766 -91 
Q 1119 -91 703 423 
Q 288 938 288 1747 
Q 288 2556 703 3070 
Q 1119 3584 1766 3584 
Q 2128 3584 2408 3439 
Q 2688 3294 2919 2988 
z
M 2181 722 
Q 2541 722 2730 984 
Q 2919 1247 2919 1747 
Q 2919 2247 2730 2509 
Q 2541 2772 2181 2772 
Q 1825 2772 1636 2509 
Q 1447 2247 1447 1747 
Q 1447 1247 1636 984 
Q 1825 722 2181 722 
z
" transform="scale(0.015625)"/>
      <path id="DejaVuSans-Bold-28" d="M 2413 -844 
L 1484 -844 
Q 1006 -72 778 623 
Q 550 1319 550 2003 
Q 550 2688 779 3389 
Q 1009 4091 1484 4856 
L 2413 4856 
Q 2013 4116 1813 3408 
Q 1613 2700 1613 2009 
Q 1613 1319 1811 609 
Q 2009 -100 2413 -844 
z
" transform="scale(0.015625)"/>
      <path id="DejaVuSans-Bold-67" d="M 2919 594 
Q 2688 288 2409 144 
Q 2131 0 1766 0 
Q 1125 0 706 504 
Q 288 1009 288 1791 
Q 288 2575 706 3076 
Q 1125 3578 1766 3578 
Q 2131 3578 2409 3434 
Q 2688 3291 2919 2981 
L 2919 3500 
L 4044 3500 
L 4044 353 
Q 4044 -491 3511 -936 
Q 2978 -1381 1966 -1381 
Q 1638 -1381 1331 -1331 
Q 1025 -1281 716 -1178 
L 716 -306 
Q 1009 -475 1290 -558 
Q 1572 -641 1856 -641 
Q 2406 -641 2662 -400 
Q 2919 -159 2919 353 
L 2919 594 
z
M 2181 2772 
Q 1834 2772 1640 2515 
Q 1447 2259 1447 1791 
Q 1447 1309 1634 1061 
Q 1822 813 2181 813 
Q 2531 813 2725 1069 
Q 2919 1325 2919 1791 
Q 2919 2259 2725 2515 
Q 2531 2772 2181 2772 
z
" transform="scale(0.015625)"/>
      <path id="DejaVuSans-Bold-66" d="M 2841 4863 
L 2841 4128 
L 2222 4128 
Q 1984 4128 1890 4042 
Q 1797 3956 1797 3744 
L 1797 3500 
L 2753 3500 
L 2753 2700 
L 1797 2700 
L 1797 0 
L 678 0 
L 678 2700 
L 122 2700 
L 122 3500 
L 678 3500 
L 678 3744 
Q 678 4316 997 4589 
Q 1316 4863 1984 4863 
L 2841 4863 
z
" transform="scale(0.015625)"/>
      <path id="DejaVuSans-Bold-29" d="M 513 -844 
Q 913 -100 1113 609 
Q 1313 1319 1313 2009 
Q 1313 2700 1113 3408 
Q 913 4116 513 4856 
L 1441 4856 
Q 1916 4091 2145 3389 
Q 2375 2688 2375 2003 
Q 2375 1319 2147 623 
Q 1919 -72 1441 -844 
L 513 -844 
z
" transform="scale(0.015625)"/>
     </defs>
     <use xlink:href="#DejaVuSans-Bold-43"/>
     <use xlink:href="#DejaVuSans-Bold-44" transform="translate(73.388672 0)"/>
     <use xlink:href="#DejaVuSans-Bold-53" transform="translate(156.396484 0)"/>
     <use xlink:href="#DejaVuSans-Bold-20" transform="translate(228.417969 0)"/>
     <use xlink:href="#DejaVuSans-Bold-53" transform="translate(263.232422 0)"/>
     <use xlink:href="#DejaVuSans-Bold-70" transform="translate(335.253906 0)"/>
     <use xlink:href="#DejaVuSans-Bold-72" transform="translate(406.835938 0)"/>
     <use xlink:href="#DejaVuSans-Bold-65" transform="translate(456.152344 0)"/>
     <use xlink:href="#DejaVuSans-Bold-61" transform="translate(523.974609 0)"/>
     <use xlink:href="#DejaVuSans-Bold-64" transform="translate(591.455078 0)"/>
     <use xlink:href="#DejaVuSans-Bold-20" transform="translate(663.037109 0)"/>
     <use xlink:href="#DejaVuSans-Bold-28" transform="translate(697.851562 0)"/>
     <use xlink:href="#DejaVuSans-Bold-72" transform="translate(743.554688 0)"/>
     <use xlink:href="#DejaVuSans-Bold-65" transform="translate(792.871094 0)"/>
     <use xlink:href="#DejaVuSans-Bold-67" transform="translate(860.693359 0)"/>
     <use xlink:href="#DejaVuSans-Bold-75" transform="translate(932.275391 0)"/>
     <use xlink:href="#DejaVuSans-Bold-6c" transform="translate(1003.466797 0)"/>
     <use xlink:href="#DejaVuSans-Bold-61" transform="translate(1037.744141 0)"/>
     <use xlink:href="#DejaVuSans-Bold-72" transform="translate(1105.224609 0)"/>
     <use xlink:href="#DejaVuSans-Bold-20" transform="translate(1154.541016 0)"/>
     <use xlink:href="#DejaVuSans-Bold-66" transform="translate(1189.355469 0)"/>
     <use xlink:href="#DejaVuSans-Bold-65" transform="translate(1232.861328 0)"/>
     <use xlink:href="#DejaVuSans-Bold-65" transform="translate(1300.683594 0)"/>
     <use xlink:href="#DejaVuSans-Bold-29" transform="translate(1368.505859 0)"/>
    </g>
   </g>
   <g id="text_6">
    <!-- Payment if default occurs -->
    <g style="fill: #c8553d" transform="translate(241.002422 156.744) scale(0.09 -0.09)">
     <defs>
      <path id="DejaVuSans-Bold-6d" d="M 3781 2919 
Q 3994 3244 4286 3414 
Q 4578 3584 4928 3584 
Q 5531 3584 5847 3212 
Q 6163 2841 6163 2131 
L 6163 0 
L 5038 0 
L 5038 1825 
Q 5041 1866 5042 1909 
Q 5044 1953 5044 2034 
Q 5044 2406 4934 2573 
Q 4825 2741 4581 2741 
Q 4263 2741 4089 2478 
Q 3916 2216 3909 1719 
L 3909 0 
L 2784 0 
L 2784 1825 
Q 2784 2406 2684 2573 
Q 2584 2741 2328 2741 
Q 2006 2741 1831 2477 
Q 1656 2213 1656 1722 
L 1656 0 
L 531 0 
L 531 3500 
L 1656 3500 
L 1656 2988 
Q 1863 3284 2130 3434 
Q 2397 3584 2719 3584 
Q 3081 3584 3359 3409 
Q 3638 3234 3781 2919 
z
" transform="scale(0.015625)"/>
      <path id="DejaVuSans-Bold-73" d="M 3272 3391 
L 3272 2541 
Q 2913 2691 2578 2766 
Q 2244 2841 1947 2841 
Q 1628 2841 1473 2761 
Q 1319 2681 1319 2516 
Q 1319 2381 1436 2309 
Q 1553 2238 1856 2203 
L 2053 2175 
Q 2913 2066 3209 1816 
Q 3506 1566 3506 1031 
Q 3506 472 3093 190 
Q 2681 -91 1863 -91 
Q 1516 -91 1145 -36 
Q 775 19 384 128 
L 384 978 
Q 719 816 1070 734 
Q 1422 653 1784 653 
Q 2113 653 2278 743 
Q 2444 834 2444 1013 
Q 2444 1163 2330 1236 
Q 2216 1309 1875 1350 
L 1678 1375 
Q 931 1469 631 1722 
Q 331 1975 331 2491 
Q 331 3047 712 3315 
Q 1094 3584 1881 3584 
Q 2191 3584 2531 3537 
Q 2872 3491 3272 3391 
z
" transform="scale(0.015625)"/>
     </defs>
     <use xlink:href="#DejaVuSans-Bold-50"/>
     <use xlink:href="#DejaVuSans-Bold-61" transform="translate(70.666016 0)"/>
     <use xlink:href="#DejaVuSans-Bold-79" transform="translate(135.021484 0)"/>
     <use xlink:href="#DejaVuSans-Bold-6d" transform="translate(200.207031 0)"/>
     <use xlink:href="#DejaVuSans-Bold-65" transform="translate(304.40625 0)"/>
     <use xlink:href="#DejaVuSans-Bold-6e" transform="translate(372.228516 0)"/>
     <use xlink:href="#DejaVuSans-Bold-74" transform="translate(443.419922 0)"/>
     <use xlink:href="#DejaVuSans-Bold-20" transform="translate(491.222656 0)"/>
     <use xlink:href="#DejaVuSans-Bold-69" transform="translate(526.037109 0)"/>
     <use xlink:href="#DejaVuSans-Bold-66" transform="translate(560.314453 0)"/>
     <use xlink:href="#DejaVuSans-Bold-20" transform="translate(603.820312 0)"/>
     <use xlink:href="#DejaVuSans-Bold-64" transform="translate(638.634766 0)"/>
     <use xlink:href="#DejaVuSans-Bold-65" transform="translate(710.216797 0)"/>
     <use xlink:href="#DejaVuSans-Bold-66" transform="translate(778.039062 0)"/>
     <use xlink:href="#DejaVuSans-Bold-61" transform="translate(821.544922 0)"/>
     <use xlink:href="#DejaVuSans-Bold-75" transform="translate(889.025391 0)"/>
     <use xlink:href="#DejaVuSans-Bold-6c" transform="translate(960.216797 0)"/>
     <use xlink:href="#DejaVuSans-Bold-74" transform="translate(994.494141 0)"/>
     <use xlink:href="#DejaVuSans-Bold-20" transform="translate(1042.296875 0)"/>
     <use xlink:href="#DejaVuSans-Bold-6f" transform="translate(1077.111328 0)"/>
     <use xlink:href="#DejaVuSans-Bold-63" transform="translate(1145.8125 0)"/>
     <use xlink:href="#DejaVuSans-Bold-63" transform="translate(1205.089844 0)"/>
     <use xlink:href="#DejaVuSans-Bold-75" transform="translate(1264.367188 0)"/>
     <use xlink:href="#DejaVuSans-Bold-72" transform="translate(1335.558594 0)"/>
     <use xlink:href="#DejaVuSans-Bold-73" transform="translate(1384.875 0)"/>
    </g>
   </g>
   <g id="text_7">
    <!-- Credit Default Swap — Cash Flows -->
    <g style="fill: #1f3a5f" transform="translate(190.104375 43.47) scale(0.12 -0.12)">
     <defs>
      <path id="DejaVuSans-Bold-77" d="M 225 3500 
L 1313 3500 
L 1900 1088 
L 2491 3500 
L 3425 3500 
L 4013 1113 
L 4603 3500 
L 5691 3500 
L 4769 0 
L 3547 0 
L 2956 2406 
L 2369 0 
L 1147 0 
L 225 3500 
z
" transform="scale(0.015625)"/>
      <path id="DejaVuSans-Bold-2014" d="M 344 2156 
L 6056 2156 
L 6056 1350 
L 344 1350 
L 344 2156 
z
" transform="scale(0.015625)"/>
      <path id="DejaVuSans-Bold-68" d="M 4056 2131 
L 4056 0 
L 2931 0 
L 2931 347 
L 2931 1625 
Q 2931 2084 2911 2256 
Q 2891 2428 2841 2509 
Q 2775 2619 2662 2680 
Q 2550 2741 2406 2741 
Q 2056 2741 1856 2470 
Q 1656 2200 1656 1722 
L 1656 0 
L 538 0 
L 538 4863 
L 1656 4863 
L 1656 2988 
Q 1909 3294 2193 3439 
Q 2478 3584 2822 3584 
Q 3428 3584 3742 3212 
Q 4056 2841 4056 2131 
z
" transform="scale(0.015625)"/>
      <path id="DejaVuSans-Bold-46" d="M 588 4666 
L 3834 4666 
L 3834 3756 
L 1791 3756 
L 1791 2888 
L 3713 2888 
L 3713 1978 
L 1791 1978 
L 1791 0 
L 588 0 
L 588 4666 
z
" transform="scale(0.015625)"/>
     </defs>
     <use xlink:href="#DejaVuSans-Bold-43"/>
     <use xlink:href="#DejaVuSans-Bold-72" transform="translate(73.388672 0)"/>
     <use xlink:href="#DejaVuSans-Bold-65" transform="translate(122.705078 0)"/>
     <use xlink:href="#DejaVuSans-Bold-64" transform="translate(190.527344 0)"/>
     <use xlink:href="#DejaVuSans-Bold-69" transform="translate(262.109375 0)"/>
     <use xlink:href="#DejaVuSans-Bold-74" transform="translate(296.386719 0)"/>
     <use xlink:href="#DejaVuSans-Bold-20" transform="translate(344.189453 0)"/>
     <use xlink:href="#DejaVuSans-Bold-44" transform="translate(379.003906 0)"/>
     <use xlink:href="#DejaVuSans-Bold-65" transform="translate(462.011719 0)"/>
     <use xlink:href="#DejaVuSans-Bold-66" transform="translate(529.833984 0)"/>
     <use xlink:href="#DejaVuSans-Bold-61" transform="translate(573.339844 0)"/>
     <use xlink:href="#DejaVuSans-Bold-75" transform="translate(640.820312 0)"/>
     <use xlink:href="#DejaVuSans-Bold-6c" transform="translate(712.011719 0)"/>
     <use xlink:href="#DejaVuSans-Bold-74" transform="translate(746.289062 0)"/>
     <use xlink:href="#DejaVuSans-Bold-20" transform="translate(794.091797 0)"/>
     <use xlink:href="#DejaVuSans-Bold-53" transform="translate(828.90625 0)"/>
     <use xlink:href="#DejaVuSans-Bold-77" transform="translate(900.927734 0)"/>
     <use xlink:href="#DejaVuSans-Bold-61" transform="translate(993.310547 0)"/>
     <use xlink:href="#DejaVuSans-Bold-70" transform="translate(1060.791016 0)"/>
     <use xlink:href="#DejaVuSans-Bold-20" transform="translate(1132.373047 0)"/>
     <use xlink:href="#DejaVuSans-Bold-2014" transform="translate(1167.1875 0)"/>
     <use xlink:href="#DejaVuSans-Bold-20" transform="translate(1267.1875 0)"/>
     <use xlink:href="#DejaVuSans-Bold-43" transform="translate(1302.001953 0)"/>
     <use xlink:href="#DejaVuSans-Bold-61" transform="translate(1375.390625 0)"/>
     <use xlink:href="#DejaVuSans-Bold-73" transform="translate(1442.871094 0)"/>
     <use xlink:href="#DejaVuSans-Bold-68" transform="translate(1502.392578 0)"/>
     <use xlink:href="#DejaVuSans-Bold-20" transform="translate(1573.583984 0)"/>
     <use xlink:href="#DejaVuSans-Bold-46" transform="translate(1608.398438 0)"/>
     <use xlink:href="#DejaVuSans-Bold-6c" transform="translate(1676.708984 0)"/>
     <use xlink:href="#DejaVuSans-Bold-6f" transform="translate(1710.986328 0)"/>
     <use xlink:href="#DejaVuSans-Bold-77" transform="translate(1779.6875 0)"/>
     <use xlink:href="#DejaVuSans-Bold-73" transform="translate(1872.070312 0)"/>
    </g>
   </g>
  </g>
 </g>
 <defs>
  <clipPath id="p0d011d3b6e">
   <rect x="7.2" y="7.2" width="597.6" height="223.2"/>
  </clipPath>
 </defs>
</svg>
