<?xml version="1.0" encoding="utf-8" standalone="no"?>
<!DOCTYPE svg PUBLIC "-//W3C//DTD SVG 1.1//EN"
  "http://www.w3.org/Graphics/SVG/1.1/DTD/svg11.dtd">
<svg xmlns:xlink="http://www.w3.org/1999/xlink" width="784.8pt" height="194.4pt" viewBox="0 0 784.8 194.4" xmlns="http://www.w3.org/2000/svg" version="1.1">
 <metadata>
  <rdf:RDF xmlns:dc="http://purl.org/dc/elements/1.1/" xmlns:cc="http://creativecommons.org/ns#" xmlns:rdf="http://www.w3.org/1999/02/22-rdf-syntax-ns#">
   <cc:Work>
    <dc:type rdf:resource="http://purl.org/dc/dcmitype/StillImage"/>
    <dc:date>2026-06-27T22:59:15.427443</dc:date>
    <dc:format>image/svg+xml</dc:format>
    <dc:creator>
     <cc:Agent>
      <dc:title>Matplotlib v3.10.9, https://matplotlib.org/</dc:title>
     </cc:Agent>
    </dc:creator>
   </cc:Work>
  </rdf:RDF>
 </metadata>
 <defs>
  <style type="text/css">*{stroke-linejoin: round; stroke-linecap: butt}</style>
 </defs>
 <g id="figure_1">
  <g id="patch_1">
   <path d="M 0 194.4 
L 784.8 194.4 
L 784.8 0 
L 0 0 
z
" style="fill: #ffffff"/>
  </g>
  <g id="axes_1">
   <g id="patch_2">
    <path d="M 29.611636 117 
L 138.868364 117 
Q 145.872 117 145.872 111 
L 145.872 59.4 
Q 145.872 53.4 138.868364 53.4 
L 29.611636 53.4 
Q 22.608 53.4 22.608 59.4 
L 22.608 111 
Q 22.608 117 29.611636 117 
z
" clip-path="url(#p4328e1fec5)" style="fill: #eef2f6; stroke: #1f3a5f; stroke-width: 1.5; stroke-linejoin: miter"/>
   </g>
   <g id="patch_3">
    <path d="M 183.691636 117 
L 292.948364 117 
Q 299.952 117 299.952 111 
L 299.952 59.4 
Q 299.952 53.4 292.948364 53.4 
L 183.691636 53.4 
Q 176.688 53.4 176.688 59.4 
L 176.688 111 
Q 176.688 117 183.691636 117 
z
" clip-path="url(#p4328e1fec5)" style="fill: #eef2f6; stroke: #41607f; stroke-width: 1.5; stroke-linejoin: miter"/>
   </g>
   <g id="patch_4">
    <path d="M 337.771636 117 
L 447.028364 117 
Q 454.032 117 454.032 111 
L 454.032 59.4 
Q 454.032 53.4 447.028364 53.4 
L 337.771636 53.4 
Q 330.768 53.4 330.768 59.4 
L 330.768 111 
Q 330.768 117 337.771636 117 
z
" clip-path="url(#p4328e1fec5)" style="fill: #eef2f6; stroke: #1f3a5f; stroke-width: 1.5; stroke-linejoin: miter"/>
   </g>
   <g id="patch_5">
    <path d="M 491.851636 117 
L 601.108364 117 
Q 608.112 117 608.112 111 
L 608.112 59.4 
Q 608.112 53.4 601.108364 53.4 
L 491.851636 53.4 
Q 484.848 53.4 484.848 59.4 
L 484.848 111 
Q 484.848 117 491.851636 117 
z
" clip-path="url(#p4328e1fec5)" style="fill: #eef2f6; stroke: #41607f; stroke-width: 1.5; stroke-linejoin: miter"/>
   </g>
   <g id="patch_6">
    <path d="M 645.931636 117 
L 755.188364 117 
Q 762.192 117 762.192 111 
L 762.192 59.4 
Q 762.192 53.4 755.188364 53.4 
L 645.931636 53.4 
Q 638.928 53.4 638.928 59.4 
L 638.928 111 
Q 638.928 117 645.931636 117 
z
" clip-path="url(#p4328e1fec5)" style="fill: #eef2f6; stroke: #2e7d5b; stroke-width: 1.5; stroke-linejoin: miter"/>
   </g>
   <g id="patch_7">
    <path d="M 145.767185 85.2 
Q 161.276436 85.2 175.108636 85.2 
" clip-path="url(#p4328e1fec5)" style="fill: none; stroke: #c8553d; stroke-width: 1.5; stroke-linecap: round"/>
    <path d="M 170.708636 83 
L 175.108636 85.2 
L 170.708636 87.4 
z
" clip-path="url(#p4328e1fec5)" style="fill: #c8553d; stroke: #c8553d; stroke-width: 1.5; stroke-linecap: round"/>
   </g>
   <g id="patch_8">
    <path d="M 299.847185 85.2 
Q 315.356436 85.2 329.188636 85.2 
" clip-path="url(#p4328e1fec5)" style="fill: none; stroke: #c8553d; stroke-width: 1.5; stroke-linecap: round"/>
    <path d="M 324.788636 83 
L 329.188636 85.2 
L 324.788636 87.4 
z
" clip-path="url(#p4328e1fec5)" style="fill: #c8553d; stroke: #c8553d; stroke-width: 1.5; stroke-linecap: round"/>
   </g>
   <g id="patch_9">
    <path d="M 453.927185 85.2 
Q 469.436436 85.2 483.268636 85.2 
" clip-path="url(#p4328e1fec5)" style="fill: none; stroke: #c8553d; stroke-width: 1.5; stroke-linecap: round"/>
    <path d="M 478.868636 83 
L 483.268636 85.2 
L 478.868636 87.4 
z
" clip-path="url(#p4328e1fec5)" style="fill: #c8553d; stroke: #c8553d; stroke-width: 1.5; stroke-linecap: round"/>
   </g>
   <g id="patch_10">
    <path d="M 608.007185 85.2 
Q 623.516436 85.2 637.348636 85.2 
" clip-path="url(#p4328e1fec5)" style="fill: none; stroke: #c8553d; stroke-width: 1.5; stroke-linecap: round"/>
    <path d="M 632.948636 83 
L 637.348636 85.2 
L 632.948636 87.4 
z
" clip-path="url(#p4328e1fec5)" style="fill: #c8553d; stroke: #c8553d; stroke-width: 1.5; stroke-linecap: round"/>
   </g>
   <g id="text_1">
    <!-- Trade Date -->
    <g style="fill: #1f3a5f" transform="translate(58.744086 76.2) scale(0.083 -0.083)">
     <defs>
      <path id="DejaVuSans-Bold-54" d="M 31 4666 
L 4331 4666 
L 4331 3756 
L 2784 3756 
L 2784 0 
L 1581 0 
L 1581 3756 
L 31 3756 
L 31 4666 
z
" transform="scale(0.015625)"/>
      <path id="DejaVuSans-Bold-72" d="M 3138 2547 
Q 2991 2616 2845 2648 
Q 2700 2681 2553 2681 
Q 2122 2681 1889 2404 
Q 1656 2128 1656 1613 
L 1656 0 
L 538 0 
L 538 3500 
L 1656 3500 
L 1656 2925 
Q 1872 3269 2151 3426 
Q 2431 3584 2822 3584 
Q 2878 3584 2943 3579 
Q 3009 3575 3134 3559 
L 3138 2547 
z
" transform="scale(0.015625)"/>
      <path id="DejaVuSans-Bold-61" d="M 2106 1575 
Q 1756 1575 1579 1456 
Q 1403 1338 1403 1106 
Q 1403 894 1545 773 
Q 1688 653 1941 653 
Q 2256 653 2472 879 
Q 2688 1106 2688 1447 
L 2688 1575 
L 2106 1575 
z
M 3816 1997 
L 3816 0 
L 2688 0 
L 2688 519 
Q 2463 200 2181 54 
Q 1900 -91 1497 -91 
Q 953 -91 614 226 
Q 275 544 275 1050 
Q 275 1666 698 1953 
Q 1122 2241 2028 2241 
L 2688 2241 
L 2688 2328 
Q 2688 2594 2478 2717 
Q 2269 2841 1825 2841 
Q 1466 2841 1156 2769 
Q 847 2697 581 2553 
L 581 3406 
Q 941 3494 1303 3539 
Q 1666 3584 2028 3584 
Q 2975 3584 3395 3211 
Q 3816 2838 3816 1997 
z
" transform="scale(0.015625)"/>
      <path id="DejaVuSans-Bold-64" d="M 2919 2988 
L 2919 4863 
L 4044 4863 
L 4044 0 
L 2919 0 
L 2919 506 
Q 2688 197 2409 53 
Q 2131 -91 1766 -91 
Q 1119 -91 703 423 
Q 288 938 288 1747 
Q 288 2556 703 3070 
Q 1119 3584 1766 3584 
Q 2128 3584 2408 3439 
Q 2688 3294 2919 2988 
z
M 2181 722 
Q 2541 722 2730 984 
Q 2919 1247 2919 1747 
Q 2919 2247 2730 2509 
Q 2541 2772 2181 2772 
Q 1825 2772 1636 2509 
Q 1447 2247 1447 1747 
Q 1447 1247 1636 984 
Q 1825 722 2181 722 
z
" transform="scale(0.015625)"/>
      <path id="DejaVuSans-Bold-65" d="M 4031 1759 
L 4031 1441 
L 1416 1441 
Q 1456 1047 1700 850 
Q 1944 653 2381 653 
Q 2734 653 3104 758 
Q 3475 863 3866 1075 
L 3866 213 
Q 3469 63 3072 -14 
Q 2675 -91 2278 -91 
Q 1328 -91 801 392 
Q 275 875 275 1747 
Q 275 2603 792 3093 
Q 1309 3584 2216 3584 
Q 3041 3584 3536 3087 
Q 4031 2591 4031 1759 
z
M 2881 2131 
Q 2881 2450 2695 2645 
Q 2509 2841 2209 2841 
Q 1884 2841 1681 2658 
Q 1478 2475 1428 2131 
L 2881 2131 
z
" transform="scale(0.015625)"/>
      <path id="DejaVuSans-Bold-20" transform="scale(0.015625)"/>
      <path id="DejaVuSans-Bold-44" d="M 1791 3756 
L 1791 909 
L 2222 909 
Q 2959 909 3348 1275 
Q 3738 1641 3738 2338 
Q 3738 3031 3350 3393 
Q 2963 3756 2222 3756 
L 1791 3756 
z
M 588 4666 
L 1856 4666 
Q 2919 4666 3439 4514 
Q 3959 4363 4331 4000 
Q 4659 3684 4818 3271 
Q 4978 2859 4978 2338 
Q 4978 1809 4818 1395 
Q 4659 981 4331 666 
Q 3956 303 3431 151 
Q 2906 0 1856 0 
L 588 0 
L 588 4666 
z
" transform="scale(0.015625)"/>
      <path id="DejaVuSans-Bold-74" d="M 1759 4494 
L 1759 3500 
L 2913 3500 
L 2913 2700 
L 1759 2700 
L 1759 1216 
Q 1759 972 1856 886 
Q 1953 800 2241 800 
L 2816 800 
L 2816 0 
L 1856 0 
Q 1194 0 917 276 
Q 641 553 641 1216 
L 641 2700 
L 84 2700 
L 84 3500 
L 641 3500 
L 641 4494 
L 1759 4494 
z
" transform="scale(0.015625)"/>
     </defs>
     <use xlink:href="#DejaVuSans-Bold-54"/>
     <use xlink:href="#DejaVuSans-Bold-72" transform="translate(57.212891 0)"/>
     <use xlink:href="#DejaVuSans-Bold-61" transform="translate(106.529297 0)"/>
     <use xlink:href="#DejaVuSans-Bold-64" transform="translate(174.009766 0)"/>
     <use xlink:href="#DejaVuSans-Bold-65" transform="translate(245.591797 0)"/>
     <use xlink:href="#DejaVuSans-Bold-20" transform="translate(313.414062 0)"/>
     <use xlink:href="#DejaVuSans-Bold-44" transform="translate(348.228516 0)"/>
     <use xlink:href="#DejaVuSans-Bold-61" transform="translate(431.236328 0)"/>
     <use xlink:href="#DejaVuSans-Bold-74" transform="translate(498.716797 0)"/>
     <use xlink:href="#DejaVuSans-Bold-65" transform="translate(546.519531 0)"/>
    </g>
   </g>
   <g id="text_2">
    <!-- (T) -->
    <g style="fill: #41607f" transform="translate(79.232063 100.2) scale(0.072 -0.072)">
     <defs>
      <path id="DejaVuSans-28" d="M 1984 4856 
Q 1566 4138 1362 3434 
Q 1159 2731 1159 2009 
Q 1159 1288 1364 580 
Q 1569 -128 1984 -844 
L 1484 -844 
Q 1016 -109 783 600 
Q 550 1309 550 2009 
Q 550 2706 781 3412 
Q 1013 4119 1484 4856 
L 1984 4856 
z
" transform="scale(0.015625)"/>
      <path id="DejaVuSans-54" d="M -19 4666 
L 3928 4666 
L 3928 4134 
L 2272 4134 
L 2272 0 
L 1638 0 
L 1638 4134 
L -19 4134 
L -19 4666 
z
" transform="scale(0.015625)"/>
      <path id="DejaVuSans-29" d="M 513 4856 
L 1013 4856 
Q 1481 4119 1714 3412 
Q 1947 2706 1947 2009 
Q 1947 1309 1714 600 
Q 1481 -109 1013 -844 
L 513 -844 
Q 928 -128 1133 580 
Q 1338 1288 1338 2009 
Q 1338 2731 1133 3434 
Q 928 4138 513 4856 
z
" transform="scale(0.015625)"/>
     </defs>
     <use xlink:href="#DejaVuSans-28"/>
     <use xlink:href="#DejaVuSans-54" transform="translate(39.013672 0)"/>
     <use xlink:href="#DejaVuSans-29" transform="translate(100.097656 0)"/>
    </g>
   </g>
   <g id="text_3">
    <!-- + Settlement Lag -->
    <g style="fill: #41607f" transform="translate(197.452227 76.2) scale(0.083 -0.083)">
     <defs>
      <path id="DejaVuSans-Bold-2b" d="M 3053 4013 
L 3053 2375 
L 4684 2375 
L 4684 1638 
L 3053 1638 
L 3053 0 
L 2309 0 
L 2309 1638 
L 678 1638 
L 678 2375 
L 2309 2375 
L 2309 4013 
L 3053 4013 
z
" transform="scale(0.015625)"/>
      <path id="DejaVuSans-Bold-53" d="M 3834 4519 
L 3834 3531 
Q 3450 3703 3084 3790 
Q 2719 3878 2394 3878 
Q 1963 3878 1756 3759 
Q 1550 3641 1550 3391 
Q 1550 3203 1689 3098 
Q 1828 2994 2194 2919 
L 2706 2816 
Q 3484 2659 3812 2340 
Q 4141 2022 4141 1434 
Q 4141 663 3683 286 
Q 3225 -91 2284 -91 
Q 1841 -91 1394 -6 
Q 947 78 500 244 
L 500 1259 
Q 947 1022 1364 901 
Q 1781 781 2169 781 
Q 2563 781 2772 912 
Q 2981 1044 2981 1288 
Q 2981 1506 2839 1625 
Q 2697 1744 2272 1838 
L 1806 1941 
Q 1106 2091 782 2419 
Q 459 2747 459 3303 
Q 459 4000 909 4375 
Q 1359 4750 2203 4750 
Q 2588 4750 2994 4692 
Q 3400 4634 3834 4519 
z
" transform="scale(0.015625)"/>
      <path id="DejaVuSans-Bold-6c" d="M 538 4863 
L 1656 4863 
L 1656 0 
L 538 0 
L 538 4863 
z
" transform="scale(0.015625)"/>
      <path id="DejaVuSans-Bold-6d" d="M 3781 2919 
Q 3994 3244 4286 3414 
Q 4578 3584 4928 3584 
Q 5531 3584 5847 3212 
Q 6163 2841 6163 2131 
L 6163 0 
L 5038 0 
L 5038 1825 
Q 5041 1866 5042 1909 
Q 5044 1953 5044 2034 
Q 5044 2406 4934 2573 
Q 4825 2741 4581 2741 
Q 4263 2741 4089 2478 
Q 3916 2216 3909 1719 
L 3909 0 
L 2784 0 
L 2784 1825 
Q 2784 2406 2684 2573 
Q 2584 2741 2328 2741 
Q 2006 2741 1831 2477 
Q 1656 2213 1656 1722 
L 1656 0 
L 531 0 
L 531 3500 
L 1656 3500 
L 1656 2988 
Q 1863 3284 2130 3434 
Q 2397 3584 2719 3584 
Q 3081 3584 3359 3409 
Q 3638 3234 3781 2919 
z
" transform="scale(0.015625)"/>
      <path id="DejaVuSans-Bold-6e" d="M 4056 2131 
L 4056 0 
L 2931 0 
L 2931 347 
L 2931 1631 
Q 2931 2084 2911 2256 
Q 2891 2428 2841 2509 
Q 2775 2619 2662 2680 
Q 2550 2741 2406 2741 
Q 2056 2741 1856 2470 
Q 1656 2200 1656 1722 
L 1656 0 
L 538 0 
L 538 3500 
L 1656 3500 
L 1656 2988 
Q 1909 3294 2193 3439 
Q 2478 3584 2822 3584 
Q 3428 3584 3742 3212 
Q 4056 2841 4056 2131 
z
" transform="scale(0.015625)"/>
      <path id="DejaVuSans-Bold-4c" d="M 588 4666 
L 1791 4666 
L 1791 909 
L 3903 909 
L 3903 0 
L 588 0 
L 588 4666 
z
" transform="scale(0.015625)"/>
      <path id="DejaVuSans-Bold-67" d="M 2919 594 
Q 2688 288 2409 144 
Q 2131 0 1766 0 
Q 1125 0 706 504 
Q 288 1009 288 1791 
Q 288 2575 706 3076 
Q 1125 3578 1766 3578 
Q 2131 3578 2409 3434 
Q 2688 3291 2919 2981 
L 2919 3500 
L 4044 3500 
L 4044 353 
Q 4044 -491 3511 -936 
Q 2978 -1381 1966 -1381 
Q 1638 -1381 1331 -1331 
Q 1025 -1281 716 -1178 
L 716 -306 
Q 1009 -475 1290 -558 
Q 1572 -641 1856 -641 
Q 2406 -641 2662 -400 
Q 2919 -159 2919 353 
L 2919 594 
z
M 2181 2772 
Q 1834 2772 1640 2515 
Q 1447 2259 1447 1791 
Q 1447 1309 1634 1061 
Q 1822 813 2181 813 
Q 2531 813 2725 1069 
Q 2919 1325 2919 1791 
Q 2919 2259 2725 2515 
Q 2531 2772 2181 2772 
z
" transform="scale(0.015625)"/>
     </defs>
     <use xlink:href="#DejaVuSans-Bold-2b"/>
     <use xlink:href="#DejaVuSans-Bold-20" transform="translate(83.789062 0)"/>
     <use xlink:href="#DejaVuSans-Bold-53" transform="translate(118.603516 0)"/>
     <use xlink:href="#DejaVuSans-Bold-65" transform="translate(190.625 0)"/>
     <use xlink:href="#DejaVuSans-Bold-74" transform="translate(258.447266 0)"/>
     <use xlink:href="#DejaVuSans-Bold-74" transform="translate(306.25 0)"/>
     <use xlink:href="#DejaVuSans-Bold-6c" transform="translate(354.052734 0)"/>
     <use xlink:href="#DejaVuSans-Bold-65" transform="translate(388.330078 0)"/>
     <use xlink:href="#DejaVuSans-Bold-6d" transform="translate(456.152344 0)"/>
     <use xlink:href="#DejaVuSans-Bold-65" transform="translate(560.351562 0)"/>
     <use xlink:href="#DejaVuSans-Bold-6e" transform="translate(628.173828 0)"/>
     <use xlink:href="#DejaVuSans-Bold-74" transform="translate(699.365234 0)"/>
     <use xlink:href="#DejaVuSans-Bold-20" transform="translate(747.167969 0)"/>
     <use xlink:href="#DejaVuSans-Bold-4c" transform="translate(781.982422 0)"/>
     <use xlink:href="#DejaVuSans-Bold-61" transform="translate(845.703125 0)"/>
     <use xlink:href="#DejaVuSans-Bold-67" transform="translate(913.183594 0)"/>
    </g>
   </g>
   <g id="text_4">
    <!-- (typically T+2) -->
    <g style="fill: #41607f" transform="translate(211.716562 100.2) scale(0.072 -0.072)">
     <defs>
      <path id="DejaVuSans-74" d="M 1172 4494 
L 1172 3500 
L 2356 3500 
L 2356 3053 
L 1172 3053 
L 1172 1153 
Q 1172 725 1289 603 
Q 1406 481 1766 481 
L 2356 481 
L 2356 0 
L 1766 0 
Q 1100 0 847 248 
Q 594 497 594 1153 
L 594 3053 
L 172 3053 
L 172 3500 
L 594 3500 
L 594 4494 
L 1172 4494 
z
" transform="scale(0.015625)"/>
      <path id="DejaVuSans-79" d="M 2059 -325 
Q 1816 -950 1584 -1140 
Q 1353 -1331 966 -1331 
L 506 -1331 
L 506 -850 
L 844 -850 
Q 1081 -850 1212 -737 
Q 1344 -625 1503 -206 
L 1606 56 
L 191 3500 
L 800 3500 
L 1894 763 
L 2988 3500 
L 3597 3500 
L 2059 -325 
z
" transform="scale(0.015625)"/>
      <path id="DejaVuSans-70" d="M 1159 525 
L 1159 -1331 
L 581 -1331 
L 581 3500 
L 1159 3500 
L 1159 2969 
Q 1341 3281 1617 3432 
Q 1894 3584 2278 3584 
Q 2916 3584 3314 3078 
Q 3713 2572 3713 1747 
Q 3713 922 3314 415 
Q 2916 -91 2278 -91 
Q 1894 -91 1617 61 
Q 1341 213 1159 525 
z
M 3116 1747 
Q 3116 2381 2855 2742 
Q 2594 3103 2138 3103 
Q 1681 3103 1420 2742 
Q 1159 2381 1159 1747 
Q 1159 1113 1420 752 
Q 1681 391 2138 391 
Q 2594 391 2855 752 
Q 3116 1113 3116 1747 
z
" transform="scale(0.015625)"/>
      <path id="DejaVuSans-69" d="M 603 3500 
L 1178 3500 
L 1178 0 
L 603 0 
L 603 3500 
z
M 603 4863 
L 1178 4863 
L 1178 4134 
L 603 4134 
L 603 4863 
z
" transform="scale(0.015625)"/>
      <path id="DejaVuSans-63" d="M 3122 3366 
L 3122 2828 
Q 2878 2963 2633 3030 
Q 2388 3097 2138 3097 
Q 1578 3097 1268 2742 
Q 959 2388 959 1747 
Q 959 1106 1268 751 
Q 1578 397 2138 397 
Q 2388 397 2633 464 
Q 2878 531 3122 666 
L 3122 134 
Q 2881 22 2623 -34 
Q 2366 -91 2075 -91 
Q 1284 -91 818 406 
Q 353 903 353 1747 
Q 353 2603 823 3093 
Q 1294 3584 2113 3584 
Q 2378 3584 2631 3529 
Q 2884 3475 3122 3366 
z
" transform="scale(0.015625)"/>
      <path id="DejaVuSans-61" d="M 2194 1759 
Q 1497 1759 1228 1600 
Q 959 1441 959 1056 
Q 959 750 1161 570 
Q 1363 391 1709 391 
Q 2188 391 2477 730 
Q 2766 1069 2766 1631 
L 2766 1759 
L 2194 1759 
z
M 3341 1997 
L 3341 0 
L 2766 0 
L 2766 531 
Q 2569 213 2275 61 
Q 1981 -91 1556 -91 
Q 1019 -91 701 211 
Q 384 513 384 1019 
Q 384 1609 779 1909 
Q 1175 2209 1959 2209 
L 2766 2209 
L 2766 2266 
Q 2766 2663 2505 2880 
Q 2244 3097 1772 3097 
Q 1472 3097 1187 3025 
Q 903 2953 641 2809 
L 641 3341 
Q 956 3463 1253 3523 
Q 1550 3584 1831 3584 
Q 2591 3584 2966 3190 
Q 3341 2797 3341 1997 
z
" transform="scale(0.015625)"/>
      <path id="DejaVuSans-6c" d="M 603 4863 
L 1178 4863 
L 1178 0 
L 603 0 
L 603 4863 
z
" transform="scale(0.015625)"/>
      <path id="DejaVuSans-20" transform="scale(0.015625)"/>
      <path id="DejaVuSans-2b" d="M 2944 4013 
L 2944 2272 
L 4684 2272 
L 4684 1741 
L 2944 1741 
L 2944 0 
L 2419 0 
L 2419 1741 
L 678 1741 
L 678 2272 
L 2419 2272 
L 2419 4013 
L 2944 4013 
z
" transform="scale(0.015625)"/>
      <path id="DejaVuSans-32" d="M 1228 531 
L 3431 531 
L 3431 0 
L 469 0 
L 469 531 
Q 828 903 1448 1529 
Q 2069 2156 2228 2338 
Q 2531 2678 2651 2914 
Q 2772 3150 2772 3378 
Q 2772 3750 2511 3984 
Q 2250 4219 1831 4219 
Q 1534 4219 1204 4116 
Q 875 4013 500 3803 
L 500 4441 
Q 881 4594 1212 4672 
Q 1544 4750 1819 4750 
Q 2544 4750 2975 4387 
Q 3406 4025 3406 3419 
Q 3406 3131 3298 2873 
Q 3191 2616 2906 2266 
Q 2828 2175 2409 1742 
Q 1991 1309 1228 531 
z
" transform="scale(0.015625)"/>
     </defs>
     <use xlink:href="#DejaVuSans-28"/>
     <use xlink:href="#DejaVuSans-74" transform="translate(39.013672 0)"/>
     <use xlink:href="#DejaVuSans-79" transform="translate(78.222656 0)"/>
     <use xlink:href="#DejaVuSans-70" transform="translate(137.402344 0)"/>
     <use xlink:href="#DejaVuSans-69" transform="translate(200.878906 0)"/>
     <use xlink:href="#DejaVuSans-63" transform="translate(228.662109 0)"/>
     <use xlink:href="#DejaVuSans-61" transform="translate(283.642578 0)"/>
     <use xlink:href="#DejaVuSans-6c" transform="translate(344.921875 0)"/>
     <use xlink:href="#DejaVuSans-6c" transform="translate(372.705078 0)"/>
     <use xlink:href="#DejaVuSans-79" transform="translate(400.488281 0)"/>
     <use xlink:href="#DejaVuSans-20" transform="translate(459.667969 0)"/>
     <use xlink:href="#DejaVuSans-54" transform="translate(491.455078 0)"/>
     <use xlink:href="#DejaVuSans-2b" transform="translate(552.539062 0)"/>
     <use xlink:href="#DejaVuSans-32" transform="translate(636.328125 0)"/>
     <use xlink:href="#DejaVuSans-29" transform="translate(699.951172 0)"/>
    </g>
   </g>
   <g id="text_5">
    <!-- Settlement Date -->
    <g style="fill: #1f3a5f" transform="translate(353.82575 76.2) scale(0.083 -0.083)">
     <use xlink:href="#DejaVuSans-Bold-53"/>
     <use xlink:href="#DejaVuSans-Bold-65" transform="translate(72.021484 0)"/>
     <use xlink:href="#DejaVuSans-Bold-74" transform="translate(139.84375 0)"/>
     <use xlink:href="#DejaVuSans-Bold-74" transform="translate(187.646484 0)"/>
     <use xlink:href="#DejaVuSans-Bold-6c" transform="translate(235.449219 0)"/>
     <use xlink:href="#DejaVuSans-Bold-65" transform="translate(269.726562 0)"/>
     <use xlink:href="#DejaVuSans-Bold-6d" transform="translate(337.548828 0)"/>
     <use xlink:href="#DejaVuSans-Bold-65" transform="translate(441.748047 0)"/>
     <use xlink:href="#DejaVuSans-Bold-6e" transform="translate(509.570312 0)"/>
     <use xlink:href="#DejaVuSans-Bold-74" transform="translate(580.761719 0)"/>
     <use xlink:href="#DejaVuSans-Bold-20" transform="translate(628.564453 0)"/>
     <use xlink:href="#DejaVuSans-Bold-44" transform="translate(663.378906 0)"/>
     <use xlink:href="#DejaVuSans-Bold-61" transform="translate(746.386719 0)"/>
     <use xlink:href="#DejaVuSans-Bold-74" transform="translate(813.867188 0)"/>
     <use xlink:href="#DejaVuSans-Bold-65" transform="translate(861.669922 0)"/>
    </g>
   </g>
   <g id="text_6">
    <!-- (T+2) -->
    <g style="fill: #41607f" transform="translate(382.084875 100.2) scale(0.072 -0.072)">
     <use xlink:href="#DejaVuSans-28"/>
     <use xlink:href="#DejaVuSans-54" transform="translate(39.013672 0)"/>
     <use xlink:href="#DejaVuSans-2b" transform="translate(100.097656 0)"/>
     <use xlink:href="#DejaVuSans-32" transform="translate(183.886719 0)"/>
     <use xlink:href="#DejaVuSans-29" transform="translate(247.509766 0)"/>
    </g>
   </g>
   <g id="text_7">
    <!-- DvP Instruction -->
    <g style="fill: #41607f" transform="translate(510.218727 76.2) scale(0.083 -0.083)">
     <defs>
      <path id="DejaVuSans-Bold-76" d="M 97 3500 
L 1216 3500 
L 2088 1081 
L 2956 3500 
L 4078 3500 
L 2700 0 
L 1472 0 
L 97 3500 
z
" transform="scale(0.015625)"/>
      <path id="DejaVuSans-Bold-50" d="M 588 4666 
L 2584 4666 
Q 3475 4666 3951 4270 
Q 4428 3875 4428 3144 
Q 4428 2409 3951 2014 
Q 3475 1619 2584 1619 
L 1791 1619 
L 1791 0 
L 588 0 
L 588 4666 
z
M 1791 3794 
L 1791 2491 
L 2456 2491 
Q 2806 2491 2997 2661 
Q 3188 2831 3188 3144 
Q 3188 3456 2997 3625 
Q 2806 3794 2456 3794 
L 1791 3794 
z
" transform="scale(0.015625)"/>
      <path id="DejaVuSans-Bold-49" d="M 588 4666 
L 1791 4666 
L 1791 0 
L 588 0 
L 588 4666 
z
" transform="scale(0.015625)"/>
      <path id="DejaVuSans-Bold-73" d="M 3272 3391 
L 3272 2541 
Q 2913 2691 2578 2766 
Q 2244 2841 1947 2841 
Q 1628 2841 1473 2761 
Q 1319 2681 1319 2516 
Q 1319 2381 1436 2309 
Q 1553 2238 1856 2203 
L 2053 2175 
Q 2913 2066 3209 1816 
Q 3506 1566 3506 1031 
Q 3506 472 3093 190 
Q 2681 -91 1863 -91 
Q 1516 -91 1145 -36 
Q 775 19 384 128 
L 384 978 
Q 719 816 1070 734 
Q 1422 653 1784 653 
Q 2113 653 2278 743 
Q 2444 834 2444 1013 
Q 2444 1163 2330 1236 
Q 2216 1309 1875 1350 
L 1678 1375 
Q 931 1469 631 1722 
Q 331 1975 331 2491 
Q 331 3047 712 3315 
Q 1094 3584 1881 3584 
Q 2191 3584 2531 3537 
Q 2872 3491 3272 3391 
z
" transform="scale(0.015625)"/>
      <path id="DejaVuSans-Bold-75" d="M 500 1363 
L 500 3500 
L 1625 3500 
L 1625 3150 
Q 1625 2866 1622 2436 
Q 1619 2006 1619 1863 
Q 1619 1441 1641 1255 
Q 1663 1069 1716 984 
Q 1784 875 1895 815 
Q 2006 756 2150 756 
Q 2500 756 2700 1025 
Q 2900 1294 2900 1772 
L 2900 3500 
L 4019 3500 
L 4019 0 
L 2900 0 
L 2900 506 
Q 2647 200 2364 54 
Q 2081 -91 1741 -91 
Q 1134 -91 817 281 
Q 500 653 500 1363 
z
" transform="scale(0.015625)"/>
      <path id="DejaVuSans-Bold-63" d="M 3366 3391 
L 3366 2478 
Q 3138 2634 2908 2709 
Q 2678 2784 2431 2784 
Q 1963 2784 1702 2511 
Q 1441 2238 1441 1747 
Q 1441 1256 1702 982 
Q 1963 709 2431 709 
Q 2694 709 2930 787 
Q 3166 866 3366 1019 
L 3366 103 
Q 3103 6 2833 -42 
Q 2563 -91 2291 -91 
Q 1344 -91 809 395 
Q 275 881 275 1747 
Q 275 2613 809 3098 
Q 1344 3584 2291 3584 
Q 2566 3584 2833 3536 
Q 3100 3488 3366 3391 
z
" transform="scale(0.015625)"/>
      <path id="DejaVuSans-Bold-69" d="M 538 3500 
L 1656 3500 
L 1656 0 
L 538 0 
L 538 3500 
z
M 538 4863 
L 1656 4863 
L 1656 3950 
L 538 3950 
L 538 4863 
z
" transform="scale(0.015625)"/>
      <path id="DejaVuSans-Bold-6f" d="M 2203 2784 
Q 1831 2784 1636 2517 
Q 1441 2250 1441 1747 
Q 1441 1244 1636 976 
Q 1831 709 2203 709 
Q 2569 709 2762 976 
Q 2956 1244 2956 1747 
Q 2956 2250 2762 2517 
Q 2569 2784 2203 2784 
z
M 2203 3584 
Q 3106 3584 3614 3096 
Q 4122 2609 4122 1747 
Q 4122 884 3614 396 
Q 3106 -91 2203 -91 
Q 1297 -91 786 396 
Q 275 884 275 1747 
Q 275 2609 786 3096 
Q 1297 3584 2203 3584 
z
" transform="scale(0.015625)"/>
     </defs>
     <use xlink:href="#DejaVuSans-Bold-44"/>
     <use xlink:href="#DejaVuSans-Bold-76" transform="translate(83.007812 0)"/>
     <use xlink:href="#DejaVuSans-Bold-50" transform="translate(148.193359 0)"/>
     <use xlink:href="#DejaVuSans-Bold-20" transform="translate(221.484375 0)"/>
     <use xlink:href="#DejaVuSans-Bold-49" transform="translate(256.298828 0)"/>
     <use xlink:href="#DejaVuSans-Bold-6e" transform="translate(293.505859 0)"/>
     <use xlink:href="#DejaVuSans-Bold-73" transform="translate(364.697266 0)"/>
     <use xlink:href="#DejaVuSans-Bold-74" transform="translate(424.21875 0)"/>
     <use xlink:href="#DejaVuSans-Bold-72" transform="translate(472.021484 0)"/>
     <use xlink:href="#DejaVuSans-Bold-75" transform="translate(521.337891 0)"/>
     <use xlink:href="#DejaVuSans-Bold-63" transform="translate(592.529297 0)"/>
     <use xlink:href="#DejaVuSans-Bold-74" transform="translate(651.806641 0)"/>
     <use xlink:href="#DejaVuSans-Bold-69" transform="translate(699.609375 0)"/>
     <use xlink:href="#DejaVuSans-Bold-6f" transform="translate(733.886719 0)"/>
     <use xlink:href="#DejaVuSans-Bold-6e" transform="translate(802.587891 0)"/>
    </g>
   </g>
   <g id="text_8">
    <!-- (sent to CSD) -->
    <g style="fill: #41607f" transform="translate(522.414 100.2) scale(0.072 -0.072)">
     <defs>
      <path id="DejaVuSans-73" d="M 2834 3397 
L 2834 2853 
Q 2591 2978 2328 3040 
Q 2066 3103 1784 3103 
Q 1356 3103 1142 2972 
Q 928 2841 928 2578 
Q 928 2378 1081 2264 
Q 1234 2150 1697 2047 
L 1894 2003 
Q 2506 1872 2764 1633 
Q 3022 1394 3022 966 
Q 3022 478 2636 193 
Q 2250 -91 1575 -91 
Q 1294 -91 989 -36 
Q 684 19 347 128 
L 347 722 
Q 666 556 975 473 
Q 1284 391 1588 391 
Q 1994 391 2212 530 
Q 2431 669 2431 922 
Q 2431 1156 2273 1281 
Q 2116 1406 1581 1522 
L 1381 1569 
Q 847 1681 609 1914 
Q 372 2147 372 2553 
Q 372 3047 722 3315 
Q 1072 3584 1716 3584 
Q 2034 3584 2315 3537 
Q 2597 3491 2834 3397 
z
" transform="scale(0.015625)"/>
      <path id="DejaVuSans-65" d="M 3597 1894 
L 3597 1613 
L 953 1613 
Q 991 1019 1311 708 
Q 1631 397 2203 397 
Q 2534 397 2845 478 
Q 3156 559 3463 722 
L 3463 178 
Q 3153 47 2828 -22 
Q 2503 -91 2169 -91 
Q 1331 -91 842 396 
Q 353 884 353 1716 
Q 353 2575 817 3079 
Q 1281 3584 2069 3584 
Q 2775 3584 3186 3129 
Q 3597 2675 3597 1894 
z
M 3022 2063 
Q 3016 2534 2758 2815 
Q 2500 3097 2075 3097 
Q 1594 3097 1305 2825 
Q 1016 2553 972 2059 
L 3022 2063 
z
" transform="scale(0.015625)"/>
      <path id="DejaVuSans-6e" d="M 3513 2113 
L 3513 0 
L 2938 0 
L 2938 2094 
Q 2938 2591 2744 2837 
Q 2550 3084 2163 3084 
Q 1697 3084 1428 2787 
Q 1159 2491 1159 1978 
L 1159 0 
L 581 0 
L 581 3500 
L 1159 3500 
L 1159 2956 
Q 1366 3272 1645 3428 
Q 1925 3584 2291 3584 
Q 2894 3584 3203 3211 
Q 3513 2838 3513 2113 
z
" transform="scale(0.015625)"/>
      <path id="DejaVuSans-6f" d="M 1959 3097 
Q 1497 3097 1228 2736 
Q 959 2375 959 1747 
Q 959 1119 1226 758 
Q 1494 397 1959 397 
Q 2419 397 2687 759 
Q 2956 1122 2956 1747 
Q 2956 2369 2687 2733 
Q 2419 3097 1959 3097 
z
M 1959 3584 
Q 2709 3584 3137 3096 
Q 3566 2609 3566 1747 
Q 3566 888 3137 398 
Q 2709 -91 1959 -91 
Q 1206 -91 779 398 
Q 353 888 353 1747 
Q 353 2609 779 3096 
Q 1206 3584 1959 3584 
z
" transform="scale(0.015625)"/>
      <path id="DejaVuSans-43" d="M 4122 4306 
L 4122 3641 
Q 3803 3938 3442 4084 
Q 3081 4231 2675 4231 
Q 1875 4231 1450 3742 
Q 1025 3253 1025 2328 
Q 1025 1406 1450 917 
Q 1875 428 2675 428 
Q 3081 428 3442 575 
Q 3803 722 4122 1019 
L 4122 359 
Q 3791 134 3420 21 
Q 3050 -91 2638 -91 
Q 1578 -91 968 557 
Q 359 1206 359 2328 
Q 359 3453 968 4101 
Q 1578 4750 2638 4750 
Q 3056 4750 3426 4639 
Q 3797 4528 4122 4306 
z
" transform="scale(0.015625)"/>
      <path id="DejaVuSans-53" d="M 3425 4513 
L 3425 3897 
Q 3066 4069 2747 4153 
Q 2428 4238 2131 4238 
Q 1616 4238 1336 4038 
Q 1056 3838 1056 3469 
Q 1056 3159 1242 3001 
Q 1428 2844 1947 2747 
L 2328 2669 
Q 3034 2534 3370 2195 
Q 3706 1856 3706 1288 
Q 3706 609 3251 259 
Q 2797 -91 1919 -91 
Q 1588 -91 1214 -16 
Q 841 59 441 206 
L 441 856 
Q 825 641 1194 531 
Q 1563 422 1919 422 
Q 2459 422 2753 634 
Q 3047 847 3047 1241 
Q 3047 1584 2836 1778 
Q 2625 1972 2144 2069 
L 1759 2144 
Q 1053 2284 737 2584 
Q 422 2884 422 3419 
Q 422 4038 858 4394 
Q 1294 4750 2059 4750 
Q 2388 4750 2728 4690 
Q 3069 4631 3425 4513 
z
" transform="scale(0.015625)"/>
      <path id="DejaVuSans-44" d="M 1259 4147 
L 1259 519 
L 2022 519 
Q 2988 519 3436 956 
Q 3884 1394 3884 2338 
Q 3884 3275 3436 3711 
Q 2988 4147 2022 4147 
L 1259 4147 
z
M 628 4666 
L 1925 4666 
Q 3281 4666 3915 4102 
Q 4550 3538 4550 2338 
Q 4550 1131 3912 565 
Q 3275 0 1925 0 
L 628 0 
L 628 4666 
z
" transform="scale(0.015625)"/>
     </defs>
     <use xlink:href="#DejaVuSans-28"/>
     <use xlink:href="#DejaVuSans-73" transform="translate(39.013672 0)"/>
     <use xlink:href="#DejaVuSans-65" transform="translate(91.113281 0)"/>
     <use xlink:href="#DejaVuSans-6e" transform="translate(152.636719 0)"/>
     <use xlink:href="#DejaVuSans-74" transform="translate(216.015625 0)"/>
     <use xlink:href="#DejaVuSans-20" transform="translate(255.224609 0)"/>
     <use xlink:href="#DejaVuSans-74" transform="translate(287.011719 0)"/>
     <use xlink:href="#DejaVuSans-6f" transform="translate(326.220703 0)"/>
     <use xlink:href="#DejaVuSans-20" transform="translate(387.402344 0)"/>
     <use xlink:href="#DejaVuSans-43" transform="translate(419.189453 0)"/>
     <use xlink:href="#DejaVuSans-53" transform="translate(489.013672 0)"/>
     <use xlink:href="#DejaVuSans-44" transform="translate(552.490234 0)"/>
     <use xlink:href="#DejaVuSans-29" transform="translate(629.492188 0)"/>
    </g>
   </g>
   <g id="text_9">
    <!-- Cash / Securities -->
    <g style="fill: #2e7d5b" transform="translate(661.505906 76.2) scale(0.083 -0.083)">
     <defs>
      <path id="DejaVuSans-Bold-43" d="M 4288 256 
Q 3956 84 3597 -3 
Q 3238 -91 2847 -91 
Q 1681 -91 1000 561 
Q 319 1213 319 2328 
Q 319 3447 1000 4098 
Q 1681 4750 2847 4750 
Q 3238 4750 3597 4662 
Q 3956 4575 4288 4403 
L 4288 3438 
Q 3953 3666 3628 3772 
Q 3303 3878 2944 3878 
Q 2300 3878 1931 3465 
Q 1563 3053 1563 2328 
Q 1563 1606 1931 1193 
Q 2300 781 2944 781 
Q 3303 781 3628 887 
Q 3953 994 4288 1222 
L 4288 256 
z
" transform="scale(0.015625)"/>
      <path id="DejaVuSans-Bold-68" d="M 4056 2131 
L 4056 0 
L 2931 0 
L 2931 347 
L 2931 1625 
Q 2931 2084 2911 2256 
Q 2891 2428 2841 2509 
Q 2775 2619 2662 2680 
Q 2550 2741 2406 2741 
Q 2056 2741 1856 2470 
Q 1656 2200 1656 1722 
L 1656 0 
L 538 0 
L 538 4863 
L 1656 4863 
L 1656 2988 
Q 1909 3294 2193 3439 
Q 2478 3584 2822 3584 
Q 3428 3584 3742 3212 
Q 4056 2841 4056 2131 
z
" transform="scale(0.015625)"/>
      <path id="DejaVuSans-Bold-2f" d="M 1644 4666 
L 2338 4666 
L 691 -594 
L 0 -594 
L 1644 4666 
z
" transform="scale(0.015625)"/>
     </defs>
     <use xlink:href="#DejaVuSans-Bold-43"/>
     <use xlink:href="#DejaVuSans-Bold-61" transform="translate(73.388672 0)"/>
     <use xlink:href="#DejaVuSans-Bold-73" transform="translate(140.869141 0)"/>
     <use xlink:href="#DejaVuSans-Bold-68" transform="translate(200.390625 0)"/>
     <use xlink:href="#DejaVuSans-Bold-20" transform="translate(271.582031 0)"/>
     <use xlink:href="#DejaVuSans-Bold-2f" transform="translate(306.396484 0)"/>
     <use xlink:href="#DejaVuSans-Bold-20" transform="translate(342.919922 0)"/>
     <use xlink:href="#DejaVuSans-Bold-53" transform="translate(377.734375 0)"/>
     <use xlink:href="#DejaVuSans-Bold-65" transform="translate(449.755859 0)"/>
     <use xlink:href="#DejaVuSans-Bold-63" transform="translate(517.578125 0)"/>
     <use xlink:href="#DejaVuSans-Bold-75" transform="translate(576.855469 0)"/>
     <use xlink:href="#DejaVuSans-Bold-72" transform="translate(648.046875 0)"/>
     <use xlink:href="#DejaVuSans-Bold-69" transform="translate(697.363281 0)"/>
     <use xlink:href="#DejaVuSans-Bold-74" transform="translate(731.640625 0)"/>
     <use xlink:href="#DejaVuSans-Bold-69" transform="translate(779.443359 0)"/>
     <use xlink:href="#DejaVuSans-Bold-65" transform="translate(813.720703 0)"/>
     <use xlink:href="#DejaVuSans-Bold-73" transform="translate(881.542969 0)"/>
    </g>
   </g>
   <g id="text_10">
    <!-- Exchange (via CSD) -->
    <g style="fill: #41607f" transform="translate(664.96275 100.2) scale(0.072 -0.072)">
     <defs>
      <path id="DejaVuSans-45" d="M 628 4666 
L 3578 4666 
L 3578 4134 
L 1259 4134 
L 1259 2753 
L 3481 2753 
L 3481 2222 
L 1259 2222 
L 1259 531 
L 3634 531 
L 3634 0 
L 628 0 
L 628 4666 
z
" transform="scale(0.015625)"/>
      <path id="DejaVuSans-78" d="M 3513 3500 
L 2247 1797 
L 3578 0 
L 2900 0 
L 1881 1375 
L 863 0 
L 184 0 
L 1544 1831 
L 300 3500 
L 978 3500 
L 1906 2253 
L 2834 3500 
L 3513 3500 
z
" transform="scale(0.015625)"/>
      <path id="DejaVuSans-68" d="M 3513 2113 
L 3513 0 
L 2938 0 
L 2938 2094 
Q 2938 2591 2744 2837 
Q 2550 3084 2163 3084 
Q 1697 3084 1428 2787 
Q 1159 2491 1159 1978 
L 1159 0 
L 581 0 
L 581 4863 
L 1159 4863 
L 1159 2956 
Q 1366 3272 1645 3428 
Q 1925 3584 2291 3584 
Q 2894 3584 3203 3211 
Q 3513 2838 3513 2113 
z
" transform="scale(0.015625)"/>
      <path id="DejaVuSans-67" d="M 2906 1791 
Q 2906 2416 2648 2759 
Q 2391 3103 1925 3103 
Q 1463 3103 1205 2759 
Q 947 2416 947 1791 
Q 947 1169 1205 825 
Q 1463 481 1925 481 
Q 2391 481 2648 825 
Q 2906 1169 2906 1791 
z
M 3481 434 
Q 3481 -459 3084 -895 
Q 2688 -1331 1869 -1331 
Q 1566 -1331 1297 -1286 
Q 1028 -1241 775 -1147 
L 775 -588 
Q 1028 -725 1275 -790 
Q 1522 -856 1778 -856 
Q 2344 -856 2625 -561 
Q 2906 -266 2906 331 
L 2906 616 
Q 2728 306 2450 153 
Q 2172 0 1784 0 
Q 1141 0 747 490 
Q 353 981 353 1791 
Q 353 2603 747 3093 
Q 1141 3584 1784 3584 
Q 2172 3584 2450 3431 
Q 2728 3278 2906 2969 
L 2906 3500 
L 3481 3500 
L 3481 434 
z
" transform="scale(0.015625)"/>
      <path id="DejaVuSans-76" d="M 191 3500 
L 800 3500 
L 1894 563 
L 2988 3500 
L 3597 3500 
L 2284 0 
L 1503 0 
L 191 3500 
z
" transform="scale(0.015625)"/>
     </defs>
     <use xlink:href="#DejaVuSans-45"/>
     <use xlink:href="#DejaVuSans-78" transform="translate(63.183594 0)"/>
     <use xlink:href="#DejaVuSans-63" transform="translate(120.613281 0)"/>
     <use xlink:href="#DejaVuSans-68" transform="translate(175.59375 0)"/>
     <use xlink:href="#DejaVuSans-61" transform="translate(238.972656 0)"/>
     <use xlink:href="#DejaVuSans-6e" transform="translate(300.251953 0)"/>
     <use xlink:href="#DejaVuSans-67" transform="translate(363.630859 0)"/>
     <use xlink:href="#DejaVuSans-65" transform="translate(427.107422 0)"/>
     <use xlink:href="#DejaVuSans-20" transform="translate(488.630859 0)"/>
     <use xlink:href="#DejaVuSans-28" transform="translate(520.417969 0)"/>
     <use xlink:href="#DejaVuSans-76" transform="translate(559.431641 0)"/>
     <use xlink:href="#DejaVuSans-69" transform="translate(618.611328 0)"/>
     <use xlink:href="#DejaVuSans-61" transform="translate(646.394531 0)"/>
     <use xlink:href="#DejaVuSans-20" transform="translate(707.673828 0)"/>
     <use xlink:href="#DejaVuSans-43" transform="translate(739.460938 0)"/>
     <use xlink:href="#DejaVuSans-53" transform="translate(809.285156 0)"/>
     <use xlink:href="#DejaVuSans-44" transform="translate(872.761719 0)"/>
     <use xlink:href="#DejaVuSans-29" transform="translate(949.763672 0)"/>
    </g>
   </g>
   <g id="text_11">
    <!-- Settlement Workflow (DvP) -->
    <g style="fill: #1f3a5f" transform="translate(299.930625 31.2) scale(0.12 -0.12)">
     <defs>
      <path id="DejaVuSans-Bold-57" d="M 191 4666 
L 1344 4666 
L 2150 1275 
L 2950 4666 
L 4109 4666 
L 4909 1275 
L 5716 4666 
L 6859 4666 
L 5759 0 
L 4372 0 
L 3525 3547 
L 2688 0 
L 1300 0 
L 191 4666 
z
" transform="scale(0.015625)"/>
      <path id="DejaVuSans-Bold-6b" d="M 538 4863 
L 1656 4863 
L 1656 2216 
L 2944 3500 
L 4244 3500 
L 2534 1894 
L 4378 0 
L 3022 0 
L 1656 1459 
L 1656 0 
L 538 0 
L 538 4863 
z
" transform="scale(0.015625)"/>
      <path id="DejaVuSans-Bold-66" d="M 2841 4863 
L 2841 4128 
L 2222 4128 
Q 1984 4128 1890 4042 
Q 1797 3956 1797 3744 
L 1797 3500 
L 2753 3500 
L 2753 2700 
L 1797 2700 
L 1797 0 
L 678 0 
L 678 2700 
L 122 2700 
L 122 3500 
L 678 3500 
L 678 3744 
Q 678 4316 997 4589 
Q 1316 4863 1984 4863 
L 2841 4863 
z
" transform="scale(0.015625)"/>
      <path id="DejaVuSans-Bold-77" d="M 225 3500 
L 1313 3500 
L 1900 1088 
L 2491 3500 
L 3425 3500 
L 4013 1113 
L 4603 3500 
L 5691 3500 
L 4769 0 
L 3547 0 
L 2956 2406 
L 2369 0 
L 1147 0 
L 225 3500 
z
" transform="scale(0.015625)"/>
      <path id="DejaVuSans-Bold-28" d="M 2413 -844 
L 1484 -844 
Q 1006 -72 778 623 
Q 550 1319 550 2003 
Q 550 2688 779 3389 
Q 1009 4091 1484 4856 
L 2413 4856 
Q 2013 4116 1813 3408 
Q 1613 2700 1613 2009 
Q 1613 1319 1811 609 
Q 2009 -100 2413 -844 
z
" transform="scale(0.015625)"/>
      <path id="DejaVuSans-Bold-29" d="M 513 -844 
Q 913 -100 1113 609 
Q 1313 1319 1313 2009 
Q 1313 2700 1113 3408 
Q 913 4116 513 4856 
L 1441 4856 
Q 1916 4091 2145 3389 
Q 2375 2688 2375 2003 
Q 2375 1319 2147 623 
Q 1919 -72 1441 -844 
L 513 -844 
z
" transform="scale(0.015625)"/>
     </defs>
     <use xlink:href="#DejaVuSans-Bold-53"/>
     <use xlink:href="#DejaVuSans-Bold-65" transform="translate(72.021484 0)"/>
     <use xlink:href="#DejaVuSans-Bold-74" transform="translate(139.84375 0)"/>
     <use xlink:href="#DejaVuSans-Bold-74" transform="translate(187.646484 0)"/>
     <use xlink:href="#DejaVuSans-Bold-6c" transform="translate(235.449219 0)"/>
     <use xlink:href="#DejaVuSans-Bold-65" transform="translate(269.726562 0)"/>
     <use xlink:href="#DejaVuSans-Bold-6d" transform="translate(337.548828 0)"/>
     <use xlink:href="#DejaVuSans-Bold-65" transform="translate(441.748047 0)"/>
     <use xlink:href="#DejaVuSans-Bold-6e" transform="translate(509.570312 0)"/>
     <use xlink:href="#DejaVuSans-Bold-74" transform="translate(580.761719 0)"/>
     <use xlink:href="#DejaVuSans-Bold-20" transform="translate(628.564453 0)"/>
     <use xlink:href="#DejaVuSans-Bold-57" transform="translate(663.378906 0)"/>
     <use xlink:href="#DejaVuSans-Bold-6f" transform="translate(770.056641 0)"/>
     <use xlink:href="#DejaVuSans-Bold-72" transform="translate(838.757812 0)"/>
     <use xlink:href="#DejaVuSans-Bold-6b" transform="translate(888.074219 0)"/>
     <use xlink:href="#DejaVuSans-Bold-66" transform="translate(954.578125 0)"/>
     <use xlink:href="#DejaVuSans-Bold-6c" transform="translate(998.083984 0)"/>
     <use xlink:href="#DejaVuSans-Bold-6f" transform="translate(1032.361328 0)"/>
     <use xlink:href="#DejaVuSans-Bold-77" transform="translate(1101.0625 0)"/>
     <use xlink:href="#DejaVuSans-Bold-20" transform="translate(1193.445312 0)"/>
     <use xlink:href="#DejaVuSans-Bold-28" transform="translate(1228.259766 0)"/>
     <use xlink:href="#DejaVuSans-Bold-44" transform="translate(1273.962891 0)"/>
     <use xlink:href="#DejaVuSans-Bold-76" transform="translate(1356.970703 0)"/>
     <use xlink:href="#DejaVuSans-Bold-50" transform="translate(1422.15625 0)"/>
     <use xlink:href="#DejaVuSans-Bold-29" transform="translate(1495.447266 0)"/>
    </g>
   </g>
  </g>
 </g>
 <defs>
  <clipPath id="p4328e1fec5">
   <rect x="7.2" y="7.2" width="770.4" height="180"/>
  </clipPath>
 </defs>
</svg>
