<?xml version="1.0" encoding="utf-8" standalone="no"?>
<!DOCTYPE svg PUBLIC "-//W3C//DTD SVG 1.1//EN"
  "http://www.w3.org/Graphics/SVG/1.1/DTD/svg11.dtd">
<svg xmlns:xlink="http://www.w3.org/1999/xlink" width="784.8pt" height="306.72pt" viewBox="0 0 784.8 306.72" xmlns="http://www.w3.org/2000/svg" version="1.1">
 <metadata>
  <rdf:RDF xmlns:dc="http://purl.org/dc/elements/1.1/" xmlns:cc="http://creativecommons.org/ns#" xmlns:rdf="http://www.w3.org/1999/02/22-rdf-syntax-ns#">
   <cc:Work>
    <dc:type rdf:resource="http://purl.org/dc/dcmitype/StillImage"/>
    <dc:date>2026-06-27T22:59:15.292773</dc:date>
    <dc:format>image/svg+xml</dc:format>
    <dc:creator>
     <cc:Agent>
      <dc:title>Matplotlib v3.10.9, https://matplotlib.org/</dc:title>
     </cc:Agent>
    </dc:creator>
   </cc:Work>
  </rdf:RDF>
 </metadata>
 <defs>
  <style type="text/css">*{stroke-linejoin: round; stroke-linecap: butt}</style>
 </defs>
 <g id="figure_1">
  <g id="patch_1">
   <path d="M 0 306.72 
L 784.8 306.72 
L 784.8 0 
L 0 0 
z
" style="fill: #ffffff"/>
  </g>
  <g id="axes_1">
   <g id="patch_2">
    <path d="M 36.732 45.5264 
L 311.508 45.5264 
Q 316.644 45.5264 316.644 42.928 
L 316.644 33.184 
Q 316.644 30.5856 311.508 30.5856 
L 36.732 30.5856 
Q 31.596 30.5856 31.596 33.184 
L 31.596 42.928 
Q 31.596 45.5264 36.732 45.5264 
z
" clip-path="url(#p5617b85b7d)" style="fill: #1f3a5f; stroke: #1f3a5f; stroke-linejoin: miter"/>
   </g>
   <g id="patch_3">
    <path d="M 36.732 142.9664 
L 311.508 142.9664 
Q 316.644 142.9664 316.644 140.368 
L 316.644 130.624 
Q 316.644 128.0256 311.508 128.0256 
L 36.732 128.0256 
Q 31.596 128.0256 31.596 130.624 
L 31.596 140.368 
Q 31.596 142.9664 36.732 142.9664 
z
" clip-path="url(#p5617b85b7d)" style="fill: #1f3a5f; stroke: #1f3a5f; stroke-linejoin: miter"/>
   </g>
   <g id="patch_4">
    <path d="M 36.732 240.4064 
L 311.508 240.4064 
Q 316.644 240.4064 316.644 237.808 
L 316.644 228.064 
Q 316.644 225.4656 311.508 225.4656 
L 36.732 225.4656 
Q 31.596 225.4656 31.596 228.064 
L 31.596 237.808 
Q 31.596 240.4064 36.732 240.4064 
z
" clip-path="url(#p5617b85b7d)" style="fill: #1f3a5f; stroke: #1f3a5f; stroke-linejoin: miter"/>
   </g>
   <g id="line2d_1">
    <path d="M 64.98 70.536 
L 81.03 70.536 
" clip-path="url(#p5617b85b7d)" style="fill: none; stroke: #41607f; stroke-linecap: square"/>
   </g>
   <g id="line2d_2">
    <path d="M 64.98 103.016 
L 81.03 103.016 
" clip-path="url(#p5617b85b7d)" style="fill: none; stroke: #41607f; stroke-linecap: square"/>
   </g>
   <g id="line2d_3">
    <path d="M 64.98 167.976 
L 81.03 167.976 
" clip-path="url(#p5617b85b7d)" style="fill: none; stroke: #41607f; stroke-linecap: square"/>
   </g>
   <g id="line2d_4">
    <path d="M 64.98 200.456 
L 81.03 200.456 
" clip-path="url(#p5617b85b7d)" style="fill: none; stroke: #41607f; stroke-linecap: square"/>
   </g>
   <g id="line2d_5">
    <path d="M 64.98 265.416 
L 81.03 265.416 
" clip-path="url(#p5617b85b7d)" style="fill: none; stroke: #41607f; stroke-linecap: square"/>
   </g>
   <g id="text_1">
    <!-- Credit-Linked Notes -->
    <g style="fill: #1f3a5f" transform="translate(20.04 23.44) scale(0.13 -0.13)">
     <defs>
      <path id="DejaVuSans-Bold-43" d="M 4288 256 
Q 3956 84 3597 -3 
Q 3238 -91 2847 -91 
Q 1681 -91 1000 561 
Q 319 1213 319 2328 
Q 319 3447 1000 4098 
Q 1681 4750 2847 4750 
Q 3238 4750 3597 4662 
Q 3956 4575 4288 4403 
L 4288 3438 
Q 3953 3666 3628 3772 
Q 3303 3878 2944 3878 
Q 2300 3878 1931 3465 
Q 1563 3053 1563 2328 
Q 1563 1606 1931 1193 
Q 2300 781 2944 781 
Q 3303 781 3628 887 
Q 3953 994 4288 1222 
L 4288 256 
z
" transform="scale(0.015625)"/>
      <path id="DejaVuSans-Bold-72" d="M 3138 2547 
Q 2991 2616 2845 2648 
Q 2700 2681 2553 2681 
Q 2122 2681 1889 2404 
Q 1656 2128 1656 1613 
L 1656 0 
L 538 0 
L 538 3500 
L 1656 3500 
L 1656 2925 
Q 1872 3269 2151 3426 
Q 2431 3584 2822 3584 
Q 2878 3584 2943 3579 
Q 3009 3575 3134 3559 
L 3138 2547 
z
" transform="scale(0.015625)"/>
      <path id="DejaVuSans-Bold-65" d="M 4031 1759 
L 4031 1441 
L 1416 1441 
Q 1456 1047 1700 850 
Q 1944 653 2381 653 
Q 2734 653 3104 758 
Q 3475 863 3866 1075 
L 3866 213 
Q 3469 63 3072 -14 
Q 2675 -91 2278 -91 
Q 1328 -91 801 392 
Q 275 875 275 1747 
Q 275 2603 792 3093 
Q 1309 3584 2216 3584 
Q 3041 3584 3536 3087 
Q 4031 2591 4031 1759 
z
M 2881 2131 
Q 2881 2450 2695 2645 
Q 2509 2841 2209 2841 
Q 1884 2841 1681 2658 
Q 1478 2475 1428 2131 
L 2881 2131 
z
" transform="scale(0.015625)"/>
      <path id="DejaVuSans-Bold-64" d="M 2919 2988 
L 2919 4863 
L 4044 4863 
L 4044 0 
L 2919 0 
L 2919 506 
Q 2688 197 2409 53 
Q 2131 -91 1766 -91 
Q 1119 -91 703 423 
Q 288 938 288 1747 
Q 288 2556 703 3070 
Q 1119 3584 1766 3584 
Q 2128 3584 2408 3439 
Q 2688 3294 2919 2988 
z
M 2181 722 
Q 2541 722 2730 984 
Q 2919 1247 2919 1747 
Q 2919 2247 2730 2509 
Q 2541 2772 2181 2772 
Q 1825 2772 1636 2509 
Q 1447 2247 1447 1747 
Q 1447 1247 1636 984 
Q 1825 722 2181 722 
z
" transform="scale(0.015625)"/>
      <path id="DejaVuSans-Bold-69" d="M 538 3500 
L 1656 3500 
L 1656 0 
L 538 0 
L 538 3500 
z
M 538 4863 
L 1656 4863 
L 1656 3950 
L 538 3950 
L 538 4863 
z
" transform="scale(0.015625)"/>
      <path id="DejaVuSans-Bold-74" d="M 1759 4494 
L 1759 3500 
L 2913 3500 
L 2913 2700 
L 1759 2700 
L 1759 1216 
Q 1759 972 1856 886 
Q 1953 800 2241 800 
L 2816 800 
L 2816 0 
L 1856 0 
Q 1194 0 917 276 
Q 641 553 641 1216 
L 641 2700 
L 84 2700 
L 84 3500 
L 641 3500 
L 641 4494 
L 1759 4494 
z
" transform="scale(0.015625)"/>
      <path id="DejaVuSans-Bold-2d" d="M 347 2297 
L 2309 2297 
L 2309 1388 
L 347 1388 
L 347 2297 
z
" transform="scale(0.015625)"/>
      <path id="DejaVuSans-Bold-4c" d="M 588 4666 
L 1791 4666 
L 1791 909 
L 3903 909 
L 3903 0 
L 588 0 
L 588 4666 
z
" transform="scale(0.015625)"/>
      <path id="DejaVuSans-Bold-6e" d="M 4056 2131 
L 4056 0 
L 2931 0 
L 2931 347 
L 2931 1631 
Q 2931 2084 2911 2256 
Q 2891 2428 2841 2509 
Q 2775 2619 2662 2680 
Q 2550 2741 2406 2741 
Q 2056 2741 1856 2470 
Q 1656 2200 1656 1722 
L 1656 0 
L 538 0 
L 538 3500 
L 1656 3500 
L 1656 2988 
Q 1909 3294 2193 3439 
Q 2478 3584 2822 3584 
Q 3428 3584 3742 3212 
Q 4056 2841 4056 2131 
z
" transform="scale(0.015625)"/>
      <path id="DejaVuSans-Bold-6b" d="M 538 4863 
L 1656 4863 
L 1656 2216 
L 2944 3500 
L 4244 3500 
L 2534 1894 
L 4378 0 
L 3022 0 
L 1656 1459 
L 1656 0 
L 538 0 
L 538 4863 
z
" transform="scale(0.015625)"/>
      <path id="DejaVuSans-Bold-20" transform="scale(0.015625)"/>
      <path id="DejaVuSans-Bold-4e" d="M 588 4666 
L 1931 4666 
L 3628 1466 
L 3628 4666 
L 4769 4666 
L 4769 0 
L 3425 0 
L 1728 3200 
L 1728 0 
L 588 0 
L 588 4666 
z
" transform="scale(0.015625)"/>
      <path id="DejaVuSans-Bold-6f" d="M 2203 2784 
Q 1831 2784 1636 2517 
Q 1441 2250 1441 1747 
Q 1441 1244 1636 976 
Q 1831 709 2203 709 
Q 2569 709 2762 976 
Q 2956 1244 2956 1747 
Q 2956 2250 2762 2517 
Q 2569 2784 2203 2784 
z
M 2203 3584 
Q 3106 3584 3614 3096 
Q 4122 2609 4122 1747 
Q 4122 884 3614 396 
Q 3106 -91 2203 -91 
Q 1297 -91 786 396 
Q 275 884 275 1747 
Q 275 2609 786 3096 
Q 1297 3584 2203 3584 
z
" transform="scale(0.015625)"/>
      <path id="DejaVuSans-Bold-73" d="M 3272 3391 
L 3272 2541 
Q 2913 2691 2578 2766 
Q 2244 2841 1947 2841 
Q 1628 2841 1473 2761 
Q 1319 2681 1319 2516 
Q 1319 2381 1436 2309 
Q 1553 2238 1856 2203 
L 2053 2175 
Q 2913 2066 3209 1816 
Q 3506 1566 3506 1031 
Q 3506 472 3093 190 
Q 2681 -91 1863 -91 
Q 1516 -91 1145 -36 
Q 775 19 384 128 
L 384 978 
Q 719 816 1070 734 
Q 1422 653 1784 653 
Q 2113 653 2278 743 
Q 2444 834 2444 1013 
Q 2444 1163 2330 1236 
Q 2216 1309 1875 1350 
L 1678 1375 
Q 931 1469 631 1722 
Q 331 1975 331 2491 
Q 331 3047 712 3315 
Q 1094 3584 1881 3584 
Q 2191 3584 2531 3537 
Q 2872 3491 3272 3391 
z
" transform="scale(0.015625)"/>
     </defs>
     <use xlink:href="#DejaVuSans-Bold-43"/>
     <use xlink:href="#DejaVuSans-Bold-72" transform="translate(73.388672 0)"/>
     <use xlink:href="#DejaVuSans-Bold-65" transform="translate(122.705078 0)"/>
     <use xlink:href="#DejaVuSans-Bold-64" transform="translate(190.527344 0)"/>
     <use xlink:href="#DejaVuSans-Bold-69" transform="translate(262.109375 0)"/>
     <use xlink:href="#DejaVuSans-Bold-74" transform="translate(296.386719 0)"/>
     <use xlink:href="#DejaVuSans-Bold-2d" transform="translate(344.189453 0)"/>
     <use xlink:href="#DejaVuSans-Bold-4c" transform="translate(385.693359 0)"/>
     <use xlink:href="#DejaVuSans-Bold-69" transform="translate(449.414062 0)"/>
     <use xlink:href="#DejaVuSans-Bold-6e" transform="translate(483.691406 0)"/>
     <use xlink:href="#DejaVuSans-Bold-6b" transform="translate(554.882812 0)"/>
     <use xlink:href="#DejaVuSans-Bold-65" transform="translate(618.761719 0)"/>
     <use xlink:href="#DejaVuSans-Bold-64" transform="translate(686.583984 0)"/>
     <use xlink:href="#DejaVuSans-Bold-20" transform="translate(758.166016 0)"/>
     <use xlink:href="#DejaVuSans-Bold-4e" transform="translate(792.980469 0)"/>
     <use xlink:href="#DejaVuSans-Bold-6f" transform="translate(876.671875 0)"/>
     <use xlink:href="#DejaVuSans-Bold-74" transform="translate(945.373047 0)"/>
     <use xlink:href="#DejaVuSans-Bold-65" transform="translate(993.175781 0)"/>
     <use xlink:href="#DejaVuSans-Bold-73" transform="translate(1060.998047 0)"/>
    </g>
   </g>
   <g id="text_2">
    <!-- Single-Name -->
    <g style="fill: #ffffff" transform="translate(48.93 40.776312) scale(0.1 -0.1)">
     <defs>
      <path id="DejaVuSans-Bold-53" d="M 3834 4519 
L 3834 3531 
Q 3450 3703 3084 3790 
Q 2719 3878 2394 3878 
Q 1963 3878 1756 3759 
Q 1550 3641 1550 3391 
Q 1550 3203 1689 3098 
Q 1828 2994 2194 2919 
L 2706 2816 
Q 3484 2659 3812 2340 
Q 4141 2022 4141 1434 
Q 4141 663 3683 286 
Q 3225 -91 2284 -91 
Q 1841 -91 1394 -6 
Q 947 78 500 244 
L 500 1259 
Q 947 1022 1364 901 
Q 1781 781 2169 781 
Q 2563 781 2772 912 
Q 2981 1044 2981 1288 
Q 2981 1506 2839 1625 
Q 2697 1744 2272 1838 
L 1806 1941 
Q 1106 2091 782 2419 
Q 459 2747 459 3303 
Q 459 4000 909 4375 
Q 1359 4750 2203 4750 
Q 2588 4750 2994 4692 
Q 3400 4634 3834 4519 
z
" transform="scale(0.015625)"/>
      <path id="DejaVuSans-Bold-67" d="M 2919 594 
Q 2688 288 2409 144 
Q 2131 0 1766 0 
Q 1125 0 706 504 
Q 288 1009 288 1791 
Q 288 2575 706 3076 
Q 1125 3578 1766 3578 
Q 2131 3578 2409 3434 
Q 2688 3291 2919 2981 
L 2919 3500 
L 4044 3500 
L 4044 353 
Q 4044 -491 3511 -936 
Q 2978 -1381 1966 -1381 
Q 1638 -1381 1331 -1331 
Q 1025 -1281 716 -1178 
L 716 -306 
Q 1009 -475 1290 -558 
Q 1572 -641 1856 -641 
Q 2406 -641 2662 -400 
Q 2919 -159 2919 353 
L 2919 594 
z
M 2181 2772 
Q 1834 2772 1640 2515 
Q 1447 2259 1447 1791 
Q 1447 1309 1634 1061 
Q 1822 813 2181 813 
Q 2531 813 2725 1069 
Q 2919 1325 2919 1791 
Q 2919 2259 2725 2515 
Q 2531 2772 2181 2772 
z
" transform="scale(0.015625)"/>
      <path id="DejaVuSans-Bold-6c" d="M 538 4863 
L 1656 4863 
L 1656 0 
L 538 0 
L 538 4863 
z
" transform="scale(0.015625)"/>
      <path id="DejaVuSans-Bold-61" d="M 2106 1575 
Q 1756 1575 1579 1456 
Q 1403 1338 1403 1106 
Q 1403 894 1545 773 
Q 1688 653 1941 653 
Q 2256 653 2472 879 
Q 2688 1106 2688 1447 
L 2688 1575 
L 2106 1575 
z
M 3816 1997 
L 3816 0 
L 2688 0 
L 2688 519 
Q 2463 200 2181 54 
Q 1900 -91 1497 -91 
Q 953 -91 614 226 
Q 275 544 275 1050 
Q 275 1666 698 1953 
Q 1122 2241 2028 2241 
L 2688 2241 
L 2688 2328 
Q 2688 2594 2478 2717 
Q 2269 2841 1825 2841 
Q 1466 2841 1156 2769 
Q 847 2697 581 2553 
L 581 3406 
Q 941 3494 1303 3539 
Q 1666 3584 2028 3584 
Q 2975 3584 3395 3211 
Q 3816 2838 3816 1997 
z
" transform="scale(0.015625)"/>
      <path id="DejaVuSans-Bold-6d" d="M 3781 2919 
Q 3994 3244 4286 3414 
Q 4578 3584 4928 3584 
Q 5531 3584 5847 3212 
Q 6163 2841 6163 2131 
L 6163 0 
L 5038 0 
L 5038 1825 
Q 5041 1866 5042 1909 
Q 5044 1953 5044 2034 
Q 5044 2406 4934 2573 
Q 4825 2741 4581 2741 
Q 4263 2741 4089 2478 
Q 3916 2216 3909 1719 
L 3909 0 
L 2784 0 
L 2784 1825 
Q 2784 2406 2684 2573 
Q 2584 2741 2328 2741 
Q 2006 2741 1831 2477 
Q 1656 2213 1656 1722 
L 1656 0 
L 531 0 
L 531 3500 
L 1656 3500 
L 1656 2988 
Q 1863 3284 2130 3434 
Q 2397 3584 2719 3584 
Q 3081 3584 3359 3409 
Q 3638 3234 3781 2919 
z
" transform="scale(0.015625)"/>
     </defs>
     <use xlink:href="#DejaVuSans-Bold-53"/>
     <use xlink:href="#DejaVuSans-Bold-69" transform="translate(72.021484 0)"/>
     <use xlink:href="#DejaVuSans-Bold-6e" transform="translate(106.298828 0)"/>
     <use xlink:href="#DejaVuSans-Bold-67" transform="translate(177.490234 0)"/>
     <use xlink:href="#DejaVuSans-Bold-6c" transform="translate(249.072266 0)"/>
     <use xlink:href="#DejaVuSans-Bold-65" transform="translate(283.349609 0)"/>
     <use xlink:href="#DejaVuSans-Bold-2d" transform="translate(351.171875 0)"/>
     <use xlink:href="#DejaVuSans-Bold-4e" transform="translate(392.675781 0)"/>
     <use xlink:href="#DejaVuSans-Bold-61" transform="translate(476.367188 0)"/>
     <use xlink:href="#DejaVuSans-Bold-6d" transform="translate(543.847656 0)"/>
     <use xlink:href="#DejaVuSans-Bold-65" transform="translate(648.046875 0)"/>
    </g>
   </g>
   <g id="text_3">
    <!-- Vanilla CLN -->
    <g style="fill: #1f3a5f" transform="translate(97.08 73.102219) scale(0.093 -0.093)">
     <defs>
      <path id="DejaVuSans-Bold-56" d="M 31 4666 
L 1241 4666 
L 2478 1222 
L 3713 4666 
L 4922 4666 
L 3194 0 
L 1759 0 
L 31 4666 
z
" transform="scale(0.015625)"/>
     </defs>
     <use xlink:href="#DejaVuSans-Bold-56"/>
     <use xlink:href="#DejaVuSans-Bold-61" transform="translate(71.892578 0)"/>
     <use xlink:href="#DejaVuSans-Bold-6e" transform="translate(139.373047 0)"/>
     <use xlink:href="#DejaVuSans-Bold-69" transform="translate(210.564453 0)"/>
     <use xlink:href="#DejaVuSans-Bold-6c" transform="translate(244.841797 0)"/>
     <use xlink:href="#DejaVuSans-Bold-6c" transform="translate(279.119141 0)"/>
     <use xlink:href="#DejaVuSans-Bold-61" transform="translate(313.396484 0)"/>
     <use xlink:href="#DejaVuSans-Bold-20" transform="translate(380.876953 0)"/>
     <use xlink:href="#DejaVuSans-Bold-43" transform="translate(415.691406 0)"/>
     <use xlink:href="#DejaVuSans-Bold-4c" transform="translate(489.080078 0)"/>
     <use xlink:href="#DejaVuSans-Bold-4e" transform="translate(552.800781 0)"/>
    </g>
   </g>
   <g id="text_4">
    <!-- Investor sells credit protection on one company; earns CDS -->
    <g style="fill: #41607f" transform="translate(347.46 68.321166) scale(0.078 -0.078)">
     <defs>
      <path id="DejaVuSans-49" d="M 628 4666 
L 1259 4666 
L 1259 0 
L 628 0 
L 628 4666 
z
" transform="scale(0.015625)"/>
      <path id="DejaVuSans-6e" d="M 3513 2113 
L 3513 0 
L 2938 0 
L 2938 2094 
Q 2938 2591 2744 2837 
Q 2550 3084 2163 3084 
Q 1697 3084 1428 2787 
Q 1159 2491 1159 1978 
L 1159 0 
L 581 0 
L 581 3500 
L 1159 3500 
L 1159 2956 
Q 1366 3272 1645 3428 
Q 1925 3584 2291 3584 
Q 2894 3584 3203 3211 
Q 3513 2838 3513 2113 
z
" transform="scale(0.015625)"/>
      <path id="DejaVuSans-76" d="M 191 3500 
L 800 3500 
L 1894 563 
L 2988 3500 
L 3597 3500 
L 2284 0 
L 1503 0 
L 191 3500 
z
" transform="scale(0.015625)"/>
      <path id="DejaVuSans-65" d="M 3597 1894 
L 3597 1613 
L 953 1613 
Q 991 1019 1311 708 
Q 1631 397 2203 397 
Q 2534 397 2845 478 
Q 3156 559 3463 722 
L 3463 178 
Q 3153 47 2828 -22 
Q 2503 -91 2169 -91 
Q 1331 -91 842 396 
Q 353 884 353 1716 
Q 353 2575 817 3079 
Q 1281 3584 2069 3584 
Q 2775 3584 3186 3129 
Q 3597 2675 3597 1894 
z
M 3022 2063 
Q 3016 2534 2758 2815 
Q 2500 3097 2075 3097 
Q 1594 3097 1305 2825 
Q 1016 2553 972 2059 
L 3022 2063 
z
" transform="scale(0.015625)"/>
      <path id="DejaVuSans-73" d="M 2834 3397 
L 2834 2853 
Q 2591 2978 2328 3040 
Q 2066 3103 1784 3103 
Q 1356 3103 1142 2972 
Q 928 2841 928 2578 
Q 928 2378 1081 2264 
Q 1234 2150 1697 2047 
L 1894 2003 
Q 2506 1872 2764 1633 
Q 3022 1394 3022 966 
Q 3022 478 2636 193 
Q 2250 -91 1575 -91 
Q 1294 -91 989 -36 
Q 684 19 347 128 
L 347 722 
Q 666 556 975 473 
Q 1284 391 1588 391 
Q 1994 391 2212 530 
Q 2431 669 2431 922 
Q 2431 1156 2273 1281 
Q 2116 1406 1581 1522 
L 1381 1569 
Q 847 1681 609 1914 
Q 372 2147 372 2553 
Q 372 3047 722 3315 
Q 1072 3584 1716 3584 
Q 2034 3584 2315 3537 
Q 2597 3491 2834 3397 
z
" transform="scale(0.015625)"/>
      <path id="DejaVuSans-74" d="M 1172 4494 
L 1172 3500 
L 2356 3500 
L 2356 3053 
L 1172 3053 
L 1172 1153 
Q 1172 725 1289 603 
Q 1406 481 1766 481 
L 2356 481 
L 2356 0 
L 1766 0 
Q 1100 0 847 248 
Q 594 497 594 1153 
L 594 3053 
L 172 3053 
L 172 3500 
L 594 3500 
L 594 4494 
L 1172 4494 
z
" transform="scale(0.015625)"/>
      <path id="DejaVuSans-6f" d="M 1959 3097 
Q 1497 3097 1228 2736 
Q 959 2375 959 1747 
Q 959 1119 1226 758 
Q 1494 397 1959 397 
Q 2419 397 2687 759 
Q 2956 1122 2956 1747 
Q 2956 2369 2687 2733 
Q 2419 3097 1959 3097 
z
M 1959 3584 
Q 2709 3584 3137 3096 
Q 3566 2609 3566 1747 
Q 3566 888 3137 398 
Q 2709 -91 1959 -91 
Q 1206 -91 779 398 
Q 353 888 353 1747 
Q 353 2609 779 3096 
Q 1206 3584 1959 3584 
z
" transform="scale(0.015625)"/>
      <path id="DejaVuSans-72" d="M 2631 2963 
Q 2534 3019 2420 3045 
Q 2306 3072 2169 3072 
Q 1681 3072 1420 2755 
Q 1159 2438 1159 1844 
L 1159 0 
L 581 0 
L 581 3500 
L 1159 3500 
L 1159 2956 
Q 1341 3275 1631 3429 
Q 1922 3584 2338 3584 
Q 2397 3584 2469 3576 
Q 2541 3569 2628 3553 
L 2631 2963 
z
" transform="scale(0.015625)"/>
      <path id="DejaVuSans-20" transform="scale(0.015625)"/>
      <path id="DejaVuSans-6c" d="M 603 4863 
L 1178 4863 
L 1178 0 
L 603 0 
L 603 4863 
z
" transform="scale(0.015625)"/>
      <path id="DejaVuSans-63" d="M 3122 3366 
L 3122 2828 
Q 2878 2963 2633 3030 
Q 2388 3097 2138 3097 
Q 1578 3097 1268 2742 
Q 959 2388 959 1747 
Q 959 1106 1268 751 
Q 1578 397 2138 397 
Q 2388 397 2633 464 
Q 2878 531 3122 666 
L 3122 134 
Q 2881 22 2623 -34 
Q 2366 -91 2075 -91 
Q 1284 -91 818 406 
Q 353 903 353 1747 
Q 353 2603 823 3093 
Q 1294 3584 2113 3584 
Q 2378 3584 2631 3529 
Q 2884 3475 3122 3366 
z
" transform="scale(0.015625)"/>
      <path id="DejaVuSans-64" d="M 2906 2969 
L 2906 4863 
L 3481 4863 
L 3481 0 
L 2906 0 
L 2906 525 
Q 2725 213 2448 61 
Q 2172 -91 1784 -91 
Q 1150 -91 751 415 
Q 353 922 353 1747 
Q 353 2572 751 3078 
Q 1150 3584 1784 3584 
Q 2172 3584 2448 3432 
Q 2725 3281 2906 2969 
z
M 947 1747 
Q 947 1113 1208 752 
Q 1469 391 1925 391 
Q 2381 391 2643 752 
Q 2906 1113 2906 1747 
Q 2906 2381 2643 2742 
Q 2381 3103 1925 3103 
Q 1469 3103 1208 2742 
Q 947 2381 947 1747 
z
" transform="scale(0.015625)"/>
      <path id="DejaVuSans-69" d="M 603 3500 
L 1178 3500 
L 1178 0 
L 603 0 
L 603 3500 
z
M 603 4863 
L 1178 4863 
L 1178 4134 
L 603 4134 
L 603 4863 
z
" transform="scale(0.015625)"/>
      <path id="DejaVuSans-70" d="M 1159 525 
L 1159 -1331 
L 581 -1331 
L 581 3500 
L 1159 3500 
L 1159 2969 
Q 1341 3281 1617 3432 
Q 1894 3584 2278 3584 
Q 2916 3584 3314 3078 
Q 3713 2572 3713 1747 
Q 3713 922 3314 415 
Q 2916 -91 2278 -91 
Q 1894 -91 1617 61 
Q 1341 213 1159 525 
z
M 3116 1747 
Q 3116 2381 2855 2742 
Q 2594 3103 2138 3103 
Q 1681 3103 1420 2742 
Q 1159 2381 1159 1747 
Q 1159 1113 1420 752 
Q 1681 391 2138 391 
Q 2594 391 2855 752 
Q 3116 1113 3116 1747 
z
" transform="scale(0.015625)"/>
      <path id="DejaVuSans-6d" d="M 3328 2828 
Q 3544 3216 3844 3400 
Q 4144 3584 4550 3584 
Q 5097 3584 5394 3201 
Q 5691 2819 5691 2113 
L 5691 0 
L 5113 0 
L 5113 2094 
Q 5113 2597 4934 2840 
Q 4756 3084 4391 3084 
Q 3944 3084 3684 2787 
Q 3425 2491 3425 1978 
L 3425 0 
L 2847 0 
L 2847 2094 
Q 2847 2600 2669 2842 
Q 2491 3084 2119 3084 
Q 1678 3084 1418 2786 
Q 1159 2488 1159 1978 
L 1159 0 
L 581 0 
L 581 3500 
L 1159 3500 
L 1159 2956 
Q 1356 3278 1631 3431 
Q 1906 3584 2284 3584 
Q 2666 3584 2933 3390 
Q 3200 3197 3328 2828 
z
" transform="scale(0.015625)"/>
      <path id="DejaVuSans-61" d="M 2194 1759 
Q 1497 1759 1228 1600 
Q 959 1441 959 1056 
Q 959 750 1161 570 
Q 1363 391 1709 391 
Q 2188 391 2477 730 
Q 2766 1069 2766 1631 
L 2766 1759 
L 2194 1759 
z
M 3341 1997 
L 3341 0 
L 2766 0 
L 2766 531 
Q 2569 213 2275 61 
Q 1981 -91 1556 -91 
Q 1019 -91 701 211 
Q 384 513 384 1019 
Q 384 1609 779 1909 
Q 1175 2209 1959 2209 
L 2766 2209 
L 2766 2266 
Q 2766 2663 2505 2880 
Q 2244 3097 1772 3097 
Q 1472 3097 1187 3025 
Q 903 2953 641 2809 
L 641 3341 
Q 956 3463 1253 3523 
Q 1550 3584 1831 3584 
Q 2591 3584 2966 3190 
Q 3341 2797 3341 1997 
z
" transform="scale(0.015625)"/>
      <path id="DejaVuSans-79" d="M 2059 -325 
Q 1816 -950 1584 -1140 
Q 1353 -1331 966 -1331 
L 506 -1331 
L 506 -850 
L 844 -850 
Q 1081 -850 1212 -737 
Q 1344 -625 1503 -206 
L 1606 56 
L 191 3500 
L 800 3500 
L 1894 763 
L 2988 3500 
L 3597 3500 
L 2059 -325 
z
" transform="scale(0.015625)"/>
      <path id="DejaVuSans-3b" d="M 750 3309 
L 1409 3309 
L 1409 2516 
L 750 2516 
L 750 3309 
z
M 750 794 
L 1409 794 
L 1409 256 
L 897 -744 
L 494 -744 
L 750 256 
L 750 794 
z
" transform="scale(0.015625)"/>
      <path id="DejaVuSans-43" d="M 4122 4306 
L 4122 3641 
Q 3803 3938 3442 4084 
Q 3081 4231 2675 4231 
Q 1875 4231 1450 3742 
Q 1025 3253 1025 2328 
Q 1025 1406 1450 917 
Q 1875 428 2675 428 
Q 3081 428 3442 575 
Q 3803 722 4122 1019 
L 4122 359 
Q 3791 134 3420 21 
Q 3050 -91 2638 -91 
Q 1578 -91 968 557 
Q 359 1206 359 2328 
Q 359 3453 968 4101 
Q 1578 4750 2638 4750 
Q 3056 4750 3426 4639 
Q 3797 4528 4122 4306 
z
" transform="scale(0.015625)"/>
      <path id="DejaVuSans-44" d="M 1259 4147 
L 1259 519 
L 2022 519 
Q 2988 519 3436 956 
Q 3884 1394 3884 2338 
Q 3884 3275 3436 3711 
Q 2988 4147 2022 4147 
L 1259 4147 
z
M 628 4666 
L 1925 4666 
Q 3281 4666 3915 4102 
Q 4550 3538 4550 2338 
Q 4550 1131 3912 565 
Q 3275 0 1925 0 
L 628 0 
L 628 4666 
z
" transform="scale(0.015625)"/>
      <path id="DejaVuSans-53" d="M 3425 4513 
L 3425 3897 
Q 3066 4069 2747 4153 
Q 2428 4238 2131 4238 
Q 1616 4238 1336 4038 
Q 1056 3838 1056 3469 
Q 1056 3159 1242 3001 
Q 1428 2844 1947 2747 
L 2328 2669 
Q 3034 2534 3370 2195 
Q 3706 1856 3706 1288 
Q 3706 609 3251 259 
Q 2797 -91 1919 -91 
Q 1588 -91 1214 -16 
Q 841 59 441 206 
L 441 856 
Q 825 641 1194 531 
Q 1563 422 1919 422 
Q 2459 422 2753 634 
Q 3047 847 3047 1241 
Q 3047 1584 2836 1778 
Q 2625 1972 2144 2069 
L 1759 2144 
Q 1053 2284 737 2584 
Q 422 2884 422 3419 
Q 422 4038 858 4394 
Q 1294 4750 2059 4750 
Q 2388 4750 2728 4690 
Q 3069 4631 3425 4513 
z
" transform="scale(0.015625)"/>
     </defs>
     <use xlink:href="#DejaVuSans-49"/>
     <use xlink:href="#DejaVuSans-6e" transform="translate(29.492188 0)"/>
     <use xlink:href="#DejaVuSans-76" transform="translate(92.871094 0)"/>
     <use xlink:href="#DejaVuSans-65" transform="translate(152.050781 0)"/>
     <use xlink:href="#DejaVuSans-73" transform="translate(213.574219 0)"/>
     <use xlink:href="#DejaVuSans-74" transform="translate(265.673828 0)"/>
     <use xlink:href="#DejaVuSans-6f" transform="translate(304.882812 0)"/>
     <use xlink:href="#DejaVuSans-72" transform="translate(366.064453 0)"/>
     <use xlink:href="#DejaVuSans-20" transform="translate(407.177734 0)"/>
     <use xlink:href="#DejaVuSans-73" transform="translate(438.964844 0)"/>
     <use xlink:href="#DejaVuSans-65" transform="translate(491.064453 0)"/>
     <use xlink:href="#DejaVuSans-6c" transform="translate(552.587891 0)"/>
     <use xlink:href="#DejaVuSans-6c" transform="translate(580.371094 0)"/>
     <use xlink:href="#DejaVuSans-73" transform="translate(608.154297 0)"/>
     <use xlink:href="#DejaVuSans-20" transform="translate(660.253906 0)"/>
     <use xlink:href="#DejaVuSans-63" transform="translate(692.041016 0)"/>
     <use xlink:href="#DejaVuSans-72" transform="translate(747.021484 0)"/>
     <use xlink:href="#DejaVuSans-65" transform="translate(785.884766 0)"/>
     <use xlink:href="#DejaVuSans-64" transform="translate(847.408203 0)"/>
     <use xlink:href="#DejaVuSans-69" transform="translate(910.884766 0)"/>
     <use xlink:href="#DejaVuSans-74" transform="translate(938.667969 0)"/>
     <use xlink:href="#DejaVuSans-20" transform="translate(977.876953 0)"/>
     <use xlink:href="#DejaVuSans-70" transform="translate(1009.664062 0)"/>
     <use xlink:href="#DejaVuSans-72" transform="translate(1073.140625 0)"/>
     <use xlink:href="#DejaVuSans-6f" transform="translate(1112.003906 0)"/>
     <use xlink:href="#DejaVuSans-74" transform="translate(1173.185547 0)"/>
     <use xlink:href="#DejaVuSans-65" transform="translate(1212.394531 0)"/>
     <use xlink:href="#DejaVuSans-63" transform="translate(1273.917969 0)"/>
     <use xlink:href="#DejaVuSans-74" transform="translate(1328.898438 0)"/>
     <use xlink:href="#DejaVuSans-69" transform="translate(1368.107422 0)"/>
     <use xlink:href="#DejaVuSans-6f" transform="translate(1395.890625 0)"/>
     <use xlink:href="#DejaVuSans-6e" transform="translate(1457.072266 0)"/>
     <use xlink:href="#DejaVuSans-20" transform="translate(1520.451172 0)"/>
     <use xlink:href="#DejaVuSans-6f" transform="translate(1552.238281 0)"/>
     <use xlink:href="#DejaVuSans-6e" transform="translate(1613.419922 0)"/>
     <use xlink:href="#DejaVuSans-20" transform="translate(1676.798828 0)"/>
     <use xlink:href="#DejaVuSans-6f" transform="translate(1708.585938 0)"/>
     <use xlink:href="#DejaVuSans-6e" transform="translate(1769.767578 0)"/>
     <use xlink:href="#DejaVuSans-65" transform="translate(1833.146484 0)"/>
     <use xlink:href="#DejaVuSans-20" transform="translate(1894.669922 0)"/>
     <use xlink:href="#DejaVuSans-63" transform="translate(1926.457031 0)"/>
     <use xlink:href="#DejaVuSans-6f" transform="translate(1981.4375 0)"/>
     <use xlink:href="#DejaVuSans-6d" transform="translate(2042.619141 0)"/>
     <use xlink:href="#DejaVuSans-70" transform="translate(2140.03125 0)"/>
     <use xlink:href="#DejaVuSans-61" transform="translate(2203.507812 0)"/>
     <use xlink:href="#DejaVuSans-6e" transform="translate(2264.787109 0)"/>
     <use xlink:href="#DejaVuSans-79" transform="translate(2328.166016 0)"/>
     <use xlink:href="#DejaVuSans-3b" transform="translate(2387.345703 0)"/>
     <use xlink:href="#DejaVuSans-20" transform="translate(2421.037109 0)"/>
     <use xlink:href="#DejaVuSans-65" transform="translate(2452.824219 0)"/>
     <use xlink:href="#DejaVuSans-61" transform="translate(2514.347656 0)"/>
     <use xlink:href="#DejaVuSans-72" transform="translate(2575.626953 0)"/>
     <use xlink:href="#DejaVuSans-6e" transform="translate(2614.990234 0)"/>
     <use xlink:href="#DejaVuSans-73" transform="translate(2678.369141 0)"/>
     <use xlink:href="#DejaVuSans-20" transform="translate(2730.46875 0)"/>
     <use xlink:href="#DejaVuSans-43" transform="translate(2762.255859 0)"/>
     <use xlink:href="#DejaVuSans-44" transform="translate(2832.080078 0)"/>
     <use xlink:href="#DejaVuSans-53" transform="translate(2909.082031 0)"/>
    </g>
    <!-- spread as coupon -->
    <g style="fill: #41607f" transform="translate(347.46 77.055459) scale(0.078 -0.078)">
     <defs>
      <path id="DejaVuSans-75" d="M 544 1381 
L 544 3500 
L 1119 3500 
L 1119 1403 
Q 1119 906 1312 657 
Q 1506 409 1894 409 
Q 2359 409 2629 706 
Q 2900 1003 2900 1516 
L 2900 3500 
L 3475 3500 
L 3475 0 
L 2900 0 
L 2900 538 
Q 2691 219 2414 64 
Q 2138 -91 1772 -91 
Q 1169 -91 856 284 
Q 544 659 544 1381 
z
M 1991 3584 
L 1991 3584 
z
" transform="scale(0.015625)"/>
     </defs>
     <use xlink:href="#DejaVuSans-73"/>
     <use xlink:href="#DejaVuSans-70" transform="translate(52.099609 0)"/>
     <use xlink:href="#DejaVuSans-72" transform="translate(115.576172 0)"/>
     <use xlink:href="#DejaVuSans-65" transform="translate(154.439453 0)"/>
     <use xlink:href="#DejaVuSans-61" transform="translate(215.962891 0)"/>
     <use xlink:href="#DejaVuSans-64" transform="translate(277.242188 0)"/>
     <use xlink:href="#DejaVuSans-20" transform="translate(340.71875 0)"/>
     <use xlink:href="#DejaVuSans-61" transform="translate(372.505859 0)"/>
     <use xlink:href="#DejaVuSans-73" transform="translate(433.785156 0)"/>
     <use xlink:href="#DejaVuSans-20" transform="translate(485.884766 0)"/>
     <use xlink:href="#DejaVuSans-63" transform="translate(517.671875 0)"/>
     <use xlink:href="#DejaVuSans-6f" transform="translate(572.652344 0)"/>
     <use xlink:href="#DejaVuSans-75" transform="translate(633.833984 0)"/>
     <use xlink:href="#DejaVuSans-70" transform="translate(697.212891 0)"/>
     <use xlink:href="#DejaVuSans-6f" transform="translate(760.689453 0)"/>
     <use xlink:href="#DejaVuSans-6e" transform="translate(821.871094 0)"/>
    </g>
   </g>
   <g id="text_5">
    <!-- Skew CLN -->
    <g style="fill: #1f3a5f" transform="translate(97.08 105.582219) scale(0.093 -0.093)">
     <defs>
      <path id="DejaVuSans-Bold-77" d="M 225 3500 
L 1313 3500 
L 1900 1088 
L 2491 3500 
L 3425 3500 
L 4013 1113 
L 4603 3500 
L 5691 3500 
L 4769 0 
L 3547 0 
L 2956 2406 
L 2369 0 
L 1147 0 
L 225 3500 
z
" transform="scale(0.015625)"/>
     </defs>
     <use xlink:href="#DejaVuSans-Bold-53"/>
     <use xlink:href="#DejaVuSans-Bold-6b" transform="translate(72.021484 0)"/>
     <use xlink:href="#DejaVuSans-Bold-65" transform="translate(135.900391 0)"/>
     <use xlink:href="#DejaVuSans-Bold-77" transform="translate(203.722656 0)"/>
     <use xlink:href="#DejaVuSans-Bold-20" transform="translate(296.105469 0)"/>
     <use xlink:href="#DejaVuSans-Bold-43" transform="translate(330.919922 0)"/>
     <use xlink:href="#DejaVuSans-Bold-4c" transform="translate(404.308594 0)"/>
     <use xlink:href="#DejaVuSans-Bold-4e" transform="translate(468.029297 0)"/>
    </g>
   </g>
   <g id="text_6">
    <!-- Like a Vanilla CLN but with modified recovery terms that -->
    <g style="fill: #41607f" transform="translate(347.46 100.801166) scale(0.078 -0.078)">
     <defs>
      <path id="DejaVuSans-4c" d="M 628 4666 
L 1259 4666 
L 1259 531 
L 3531 531 
L 3531 0 
L 628 0 
L 628 4666 
z
" transform="scale(0.015625)"/>
      <path id="DejaVuSans-6b" d="M 581 4863 
L 1159 4863 
L 1159 1991 
L 2875 3500 
L 3609 3500 
L 1753 1863 
L 3688 0 
L 2938 0 
L 1159 1709 
L 1159 0 
L 581 0 
L 581 4863 
z
" transform="scale(0.015625)"/>
      <path id="DejaVuSans-56" d="M 1831 0 
L 50 4666 
L 709 4666 
L 2188 738 
L 3669 4666 
L 4325 4666 
L 2547 0 
L 1831 0 
z
" transform="scale(0.015625)"/>
      <path id="DejaVuSans-4e" d="M 628 4666 
L 1478 4666 
L 3547 763 
L 3547 4666 
L 4159 4666 
L 4159 0 
L 3309 0 
L 1241 3903 
L 1241 0 
L 628 0 
L 628 4666 
z
" transform="scale(0.015625)"/>
      <path id="DejaVuSans-62" d="M 3116 1747 
Q 3116 2381 2855 2742 
Q 2594 3103 2138 3103 
Q 1681 3103 1420 2742 
Q 1159 2381 1159 1747 
Q 1159 1113 1420 752 
Q 1681 391 2138 391 
Q 2594 391 2855 752 
Q 3116 1113 3116 1747 
z
M 1159 2969 
Q 1341 3281 1617 3432 
Q 1894 3584 2278 3584 
Q 2916 3584 3314 3078 
Q 3713 2572 3713 1747 
Q 3713 922 3314 415 
Q 2916 -91 2278 -91 
Q 1894 -91 1617 61 
Q 1341 213 1159 525 
L 1159 0 
L 581 0 
L 581 4863 
L 1159 4863 
L 1159 2969 
z
" transform="scale(0.015625)"/>
      <path id="DejaVuSans-77" d="M 269 3500 
L 844 3500 
L 1563 769 
L 2278 3500 
L 2956 3500 
L 3675 769 
L 4391 3500 
L 4966 3500 
L 4050 0 
L 3372 0 
L 2619 2869 
L 1863 0 
L 1184 0 
L 269 3500 
z
" transform="scale(0.015625)"/>
      <path id="DejaVuSans-68" d="M 3513 2113 
L 3513 0 
L 2938 0 
L 2938 2094 
Q 2938 2591 2744 2837 
Q 2550 3084 2163 3084 
Q 1697 3084 1428 2787 
Q 1159 2491 1159 1978 
L 1159 0 
L 581 0 
L 581 4863 
L 1159 4863 
L 1159 2956 
Q 1366 3272 1645 3428 
Q 1925 3584 2291 3584 
Q 2894 3584 3203 3211 
Q 3513 2838 3513 2113 
z
" transform="scale(0.015625)"/>
      <path id="DejaVuSans-66" d="M 2375 4863 
L 2375 4384 
L 1825 4384 
Q 1516 4384 1395 4259 
Q 1275 4134 1275 3809 
L 1275 3500 
L 2222 3500 
L 2222 3053 
L 1275 3053 
L 1275 0 
L 697 0 
L 697 3053 
L 147 3053 
L 147 3500 
L 697 3500 
L 697 3744 
Q 697 4328 969 4595 
Q 1241 4863 1831 4863 
L 2375 4863 
z
" transform="scale(0.015625)"/>
     </defs>
     <use xlink:href="#DejaVuSans-4c"/>
     <use xlink:href="#DejaVuSans-69" transform="translate(55.712891 0)"/>
     <use xlink:href="#DejaVuSans-6b" transform="translate(83.496094 0)"/>
     <use xlink:href="#DejaVuSans-65" transform="translate(137.78125 0)"/>
     <use xlink:href="#DejaVuSans-20" transform="translate(199.304688 0)"/>
     <use xlink:href="#DejaVuSans-61" transform="translate(231.091797 0)"/>
     <use xlink:href="#DejaVuSans-20" transform="translate(292.371094 0)"/>
     <use xlink:href="#DejaVuSans-56" transform="translate(324.158203 0)"/>
     <use xlink:href="#DejaVuSans-61" transform="translate(384.816406 0)"/>
     <use xlink:href="#DejaVuSans-6e" transform="translate(446.095703 0)"/>
     <use xlink:href="#DejaVuSans-69" transform="translate(509.474609 0)"/>
     <use xlink:href="#DejaVuSans-6c" transform="translate(537.257812 0)"/>
     <use xlink:href="#DejaVuSans-6c" transform="translate(565.041016 0)"/>
     <use xlink:href="#DejaVuSans-61" transform="translate(592.824219 0)"/>
     <use xlink:href="#DejaVuSans-20" transform="translate(654.103516 0)"/>
     <use xlink:href="#DejaVuSans-43" transform="translate(685.890625 0)"/>
     <use xlink:href="#DejaVuSans-4c" transform="translate(755.714844 0)"/>
     <use xlink:href="#DejaVuSans-4e" transform="translate(811.427734 0)"/>
     <use xlink:href="#DejaVuSans-20" transform="translate(886.232422 0)"/>
     <use xlink:href="#DejaVuSans-62" transform="translate(918.019531 0)"/>
     <use xlink:href="#DejaVuSans-75" transform="translate(981.496094 0)"/>
     <use xlink:href="#DejaVuSans-74" transform="translate(1044.875 0)"/>
     <use xlink:href="#DejaVuSans-20" transform="translate(1084.083984 0)"/>
     <use xlink:href="#DejaVuSans-77" transform="translate(1115.871094 0)"/>
     <use xlink:href="#DejaVuSans-69" transform="translate(1197.658203 0)"/>
     <use xlink:href="#DejaVuSans-74" transform="translate(1225.441406 0)"/>
     <use xlink:href="#DejaVuSans-68" transform="translate(1264.650391 0)"/>
     <use xlink:href="#DejaVuSans-20" transform="translate(1328.029297 0)"/>
     <use xlink:href="#DejaVuSans-6d" transform="translate(1359.816406 0)"/>
     <use xlink:href="#DejaVuSans-6f" transform="translate(1457.228516 0)"/>
     <use xlink:href="#DejaVuSans-64" transform="translate(1518.410156 0)"/>
     <use xlink:href="#DejaVuSans-69" transform="translate(1581.886719 0)"/>
     <use xlink:href="#DejaVuSans-66" transform="translate(1609.669922 0)"/>
     <use xlink:href="#DejaVuSans-69" transform="translate(1644.875 0)"/>
     <use xlink:href="#DejaVuSans-65" transform="translate(1672.658203 0)"/>
     <use xlink:href="#DejaVuSans-64" transform="translate(1734.181641 0)"/>
     <use xlink:href="#DejaVuSans-20" transform="translate(1797.658203 0)"/>
     <use xlink:href="#DejaVuSans-72" transform="translate(1829.445312 0)"/>
     <use xlink:href="#DejaVuSans-65" transform="translate(1868.308594 0)"/>
     <use xlink:href="#DejaVuSans-63" transform="translate(1929.832031 0)"/>
     <use xlink:href="#DejaVuSans-6f" transform="translate(1984.8125 0)"/>
     <use xlink:href="#DejaVuSans-76" transform="translate(2045.994141 0)"/>
     <use xlink:href="#DejaVuSans-65" transform="translate(2105.173828 0)"/>
     <use xlink:href="#DejaVuSans-72" transform="translate(2166.697266 0)"/>
     <use xlink:href="#DejaVuSans-79" transform="translate(2207.810547 0)"/>
     <use xlink:href="#DejaVuSans-20" transform="translate(2266.990234 0)"/>
     <use xlink:href="#DejaVuSans-74" transform="translate(2298.777344 0)"/>
     <use xlink:href="#DejaVuSans-65" transform="translate(2337.986328 0)"/>
     <use xlink:href="#DejaVuSans-72" transform="translate(2399.509766 0)"/>
     <use xlink:href="#DejaVuSans-6d" transform="translate(2438.873047 0)"/>
     <use xlink:href="#DejaVuSans-73" transform="translate(2536.285156 0)"/>
     <use xlink:href="#DejaVuSans-20" transform="translate(2588.384766 0)"/>
     <use xlink:href="#DejaVuSans-74" transform="translate(2620.171875 0)"/>
     <use xlink:href="#DejaVuSans-68" transform="translate(2659.380859 0)"/>
     <use xlink:href="#DejaVuSans-61" transform="translate(2722.759766 0)"/>
     <use xlink:href="#DejaVuSans-74" transform="translate(2784.039062 0)"/>
    </g>
    <!-- shift payout under default -->
    <g style="fill: #41607f" transform="translate(347.46 109.535459) scale(0.078 -0.078)">
     <use xlink:href="#DejaVuSans-73"/>
     <use xlink:href="#DejaVuSans-68" transform="translate(52.099609 0)"/>
     <use xlink:href="#DejaVuSans-69" transform="translate(115.478516 0)"/>
     <use xlink:href="#DejaVuSans-66" transform="translate(143.261719 0)"/>
     <use xlink:href="#DejaVuSans-74" transform="translate(176.716797 0)"/>
     <use xlink:href="#DejaVuSans-20" transform="translate(215.925781 0)"/>
     <use xlink:href="#DejaVuSans-70" transform="translate(247.712891 0)"/>
     <use xlink:href="#DejaVuSans-61" transform="translate(311.189453 0)"/>
     <use xlink:href="#DejaVuSans-79" transform="translate(372.46875 0)"/>
     <use xlink:href="#DejaVuSans-6f" transform="translate(431.648438 0)"/>
     <use xlink:href="#DejaVuSans-75" transform="translate(492.830078 0)"/>
     <use xlink:href="#DejaVuSans-74" transform="translate(556.208984 0)"/>
     <use xlink:href="#DejaVuSans-20" transform="translate(595.417969 0)"/>
     <use xlink:href="#DejaVuSans-75" transform="translate(627.205078 0)"/>
     <use xlink:href="#DejaVuSans-6e" transform="translate(690.583984 0)"/>
     <use xlink:href="#DejaVuSans-64" transform="translate(753.962891 0)"/>
     <use xlink:href="#DejaVuSans-65" transform="translate(817.439453 0)"/>
     <use xlink:href="#DejaVuSans-72" transform="translate(878.962891 0)"/>
     <use xlink:href="#DejaVuSans-20" transform="translate(920.076172 0)"/>
     <use xlink:href="#DejaVuSans-64" transform="translate(951.863281 0)"/>
     <use xlink:href="#DejaVuSans-65" transform="translate(1015.339844 0)"/>
     <use xlink:href="#DejaVuSans-66" transform="translate(1076.863281 0)"/>
     <use xlink:href="#DejaVuSans-61" transform="translate(1112.068359 0)"/>
     <use xlink:href="#DejaVuSans-75" transform="translate(1173.347656 0)"/>
     <use xlink:href="#DejaVuSans-6c" transform="translate(1236.726562 0)"/>
     <use xlink:href="#DejaVuSans-74" transform="translate(1264.509766 0)"/>
    </g>
   </g>
   <g id="text_7">
    <!-- Basket -->
    <g style="fill: #ffffff" transform="translate(48.93 138.255375) scale(0.1 -0.1)">
     <defs>
      <path id="DejaVuSans-Bold-42" d="M 2456 2859 
Q 2741 2859 2887 2984 
Q 3034 3109 3034 3353 
Q 3034 3594 2887 3720 
Q 2741 3847 2456 3847 
L 1791 3847 
L 1791 2859 
L 2456 2859 
z
M 2497 819 
Q 2859 819 3042 972 
Q 3225 1125 3225 1434 
Q 3225 1738 3044 1889 
Q 2863 2041 2497 2041 
L 1791 2041 
L 1791 819 
L 2497 819 
z
M 3616 2497 
Q 4003 2384 4215 2081 
Q 4428 1778 4428 1338 
Q 4428 663 3972 331 
Q 3516 0 2584 0 
L 588 0 
L 588 4666 
L 2394 4666 
Q 3366 4666 3802 4372 
Q 4238 4078 4238 3431 
Q 4238 3091 4078 2852 
Q 3919 2613 3616 2497 
z
" transform="scale(0.015625)"/>
     </defs>
     <use xlink:href="#DejaVuSans-Bold-42"/>
     <use xlink:href="#DejaVuSans-Bold-61" transform="translate(76.220703 0)"/>
     <use xlink:href="#DejaVuSans-Bold-73" transform="translate(143.701172 0)"/>
     <use xlink:href="#DejaVuSans-Bold-6b" transform="translate(203.222656 0)"/>
     <use xlink:href="#DejaVuSans-Bold-65" transform="translate(267.101562 0)"/>
     <use xlink:href="#DejaVuSans-Bold-74" transform="translate(334.923828 0)"/>
    </g>
   </g>
   <g id="text_8">
    <!-- First-to-Default (FTD) -->
    <g style="fill: #1f3a5f" transform="translate(97.08 170.542219) scale(0.093 -0.093)">
     <defs>
      <path id="DejaVuSans-Bold-46" d="M 588 4666 
L 3834 4666 
L 3834 3756 
L 1791 3756 
L 1791 2888 
L 3713 2888 
L 3713 1978 
L 1791 1978 
L 1791 0 
L 588 0 
L 588 4666 
z
" transform="scale(0.015625)"/>
      <path id="DejaVuSans-Bold-44" d="M 1791 3756 
L 1791 909 
L 2222 909 
Q 2959 909 3348 1275 
Q 3738 1641 3738 2338 
Q 3738 3031 3350 3393 
Q 2963 3756 2222 3756 
L 1791 3756 
z
M 588 4666 
L 1856 4666 
Q 2919 4666 3439 4514 
Q 3959 4363 4331 4000 
Q 4659 3684 4818 3271 
Q 4978 2859 4978 2338 
Q 4978 1809 4818 1395 
Q 4659 981 4331 666 
Q 3956 303 3431 151 
Q 2906 0 1856 0 
L 588 0 
L 588 4666 
z
" transform="scale(0.015625)"/>
      <path id="DejaVuSans-Bold-66" d="M 2841 4863 
L 2841 4128 
L 2222 4128 
Q 1984 4128 1890 4042 
Q 1797 3956 1797 3744 
L 1797 3500 
L 2753 3500 
L 2753 2700 
L 1797 2700 
L 1797 0 
L 678 0 
L 678 2700 
L 122 2700 
L 122 3500 
L 678 3500 
L 678 3744 
Q 678 4316 997 4589 
Q 1316 4863 1984 4863 
L 2841 4863 
z
" transform="scale(0.015625)"/>
      <path id="DejaVuSans-Bold-75" d="M 500 1363 
L 500 3500 
L 1625 3500 
L 1625 3150 
Q 1625 2866 1622 2436 
Q 1619 2006 1619 1863 
Q 1619 1441 1641 1255 
Q 1663 1069 1716 984 
Q 1784 875 1895 815 
Q 2006 756 2150 756 
Q 2500 756 2700 1025 
Q 2900 1294 2900 1772 
L 2900 3500 
L 4019 3500 
L 4019 0 
L 2900 0 
L 2900 506 
Q 2647 200 2364 54 
Q 2081 -91 1741 -91 
Q 1134 -91 817 281 
Q 500 653 500 1363 
z
" transform="scale(0.015625)"/>
      <path id="DejaVuSans-Bold-28" d="M 2413 -844 
L 1484 -844 
Q 1006 -72 778 623 
Q 550 1319 550 2003 
Q 550 2688 779 3389 
Q 1009 4091 1484 4856 
L 2413 4856 
Q 2013 4116 1813 3408 
Q 1613 2700 1613 2009 
Q 1613 1319 1811 609 
Q 2009 -100 2413 -844 
z
" transform="scale(0.015625)"/>
      <path id="DejaVuSans-Bold-54" d="M 31 4666 
L 4331 4666 
L 4331 3756 
L 2784 3756 
L 2784 0 
L 1581 0 
L 1581 3756 
L 31 3756 
L 31 4666 
z
" transform="scale(0.015625)"/>
      <path id="DejaVuSans-Bold-29" d="M 513 -844 
Q 913 -100 1113 609 
Q 1313 1319 1313 2009 
Q 1313 2700 1113 3408 
Q 913 4116 513 4856 
L 1441 4856 
Q 1916 4091 2145 3389 
Q 2375 2688 2375 2003 
Q 2375 1319 2147 623 
Q 1919 -72 1441 -844 
L 513 -844 
z
" transform="scale(0.015625)"/>
     </defs>
     <use xlink:href="#DejaVuSans-Bold-46"/>
     <use xlink:href="#DejaVuSans-Bold-69" transform="translate(68.310547 0)"/>
     <use xlink:href="#DejaVuSans-Bold-72" transform="translate(102.587891 0)"/>
     <use xlink:href="#DejaVuSans-Bold-73" transform="translate(151.904297 0)"/>
     <use xlink:href="#DejaVuSans-Bold-74" transform="translate(211.425781 0)"/>
     <use xlink:href="#DejaVuSans-Bold-2d" transform="translate(259.228516 0)"/>
     <use xlink:href="#DejaVuSans-Bold-74" transform="translate(300.732422 0)"/>
     <use xlink:href="#DejaVuSans-Bold-6f" transform="translate(348.535156 0)"/>
     <use xlink:href="#DejaVuSans-Bold-2d" transform="translate(417.236328 0)"/>
     <use xlink:href="#DejaVuSans-Bold-44" transform="translate(458.740234 0)"/>
     <use xlink:href="#DejaVuSans-Bold-65" transform="translate(541.748047 0)"/>
     <use xlink:href="#DejaVuSans-Bold-66" transform="translate(609.570312 0)"/>
     <use xlink:href="#DejaVuSans-Bold-61" transform="translate(653.076172 0)"/>
     <use xlink:href="#DejaVuSans-Bold-75" transform="translate(720.556641 0)"/>
     <use xlink:href="#DejaVuSans-Bold-6c" transform="translate(791.748047 0)"/>
     <use xlink:href="#DejaVuSans-Bold-74" transform="translate(826.025391 0)"/>
     <use xlink:href="#DejaVuSans-Bold-20" transform="translate(873.828125 0)"/>
     <use xlink:href="#DejaVuSans-Bold-28" transform="translate(908.642578 0)"/>
     <use xlink:href="#DejaVuSans-Bold-46" transform="translate(954.345703 0)"/>
     <use xlink:href="#DejaVuSans-Bold-54" transform="translate(1022.65625 0)"/>
     <use xlink:href="#DejaVuSans-Bold-44" transform="translate(1090.869141 0)"/>
     <use xlink:href="#DejaVuSans-Bold-29" transform="translate(1173.876953 0)"/>
    </g>
   </g>
   <g id="text_9">
    <!-- Investor sells protection on a basket of 5–10 companies; -->
    <g style="fill: #41607f" transform="translate(347.46 165.761166) scale(0.078 -0.078)">
     <defs>
      <path id="DejaVuSans-35" d="M 691 4666 
L 3169 4666 
L 3169 4134 
L 1269 4134 
L 1269 2991 
Q 1406 3038 1543 3061 
Q 1681 3084 1819 3084 
Q 2600 3084 3056 2656 
Q 3513 2228 3513 1497 
Q 3513 744 3044 326 
Q 2575 -91 1722 -91 
Q 1428 -91 1123 -41 
Q 819 9 494 109 
L 494 744 
Q 775 591 1075 516 
Q 1375 441 1709 441 
Q 2250 441 2565 725 
Q 2881 1009 2881 1497 
Q 2881 1984 2565 2268 
Q 2250 2553 1709 2553 
Q 1456 2553 1204 2497 
Q 953 2441 691 2322 
L 691 4666 
z
" transform="scale(0.015625)"/>
      <path id="DejaVuSans-2013" d="M 313 1978 
L 2888 1978 
L 2888 1528 
L 313 1528 
L 313 1978 
z
" transform="scale(0.015625)"/>
      <path id="DejaVuSans-31" d="M 794 531 
L 1825 531 
L 1825 4091 
L 703 3866 
L 703 4441 
L 1819 4666 
L 2450 4666 
L 2450 531 
L 3481 531 
L 3481 0 
L 794 0 
L 794 531 
z
" transform="scale(0.015625)"/>
      <path id="DejaVuSans-30" d="M 2034 4250 
Q 1547 4250 1301 3770 
Q 1056 3291 1056 2328 
Q 1056 1369 1301 889 
Q 1547 409 2034 409 
Q 2525 409 2770 889 
Q 3016 1369 3016 2328 
Q 3016 3291 2770 3770 
Q 2525 4250 2034 4250 
z
M 2034 4750 
Q 2819 4750 3233 4129 
Q 3647 3509 3647 2328 
Q 3647 1150 3233 529 
Q 2819 -91 2034 -91 
Q 1250 -91 836 529 
Q 422 1150 422 2328 
Q 422 3509 836 4129 
Q 1250 4750 2034 4750 
z
" transform="scale(0.015625)"/>
     </defs>
     <use xlink:href="#DejaVuSans-49"/>
     <use xlink:href="#DejaVuSans-6e" transform="translate(29.492188 0)"/>
     <use xlink:href="#DejaVuSans-76" transform="translate(92.871094 0)"/>
     <use xlink:href="#DejaVuSans-65" transform="translate(152.050781 0)"/>
     <use xlink:href="#DejaVuSans-73" transform="translate(213.574219 0)"/>
     <use xlink:href="#DejaVuSans-74" transform="translate(265.673828 0)"/>
     <use xlink:href="#DejaVuSans-6f" transform="translate(304.882812 0)"/>
     <use xlink:href="#DejaVuSans-72" transform="translate(366.064453 0)"/>
     <use xlink:href="#DejaVuSans-20" transform="translate(407.177734 0)"/>
     <use xlink:href="#DejaVuSans-73" transform="translate(438.964844 0)"/>
     <use xlink:href="#DejaVuSans-65" transform="translate(491.064453 0)"/>
     <use xlink:href="#DejaVuSans-6c" transform="translate(552.587891 0)"/>
     <use xlink:href="#DejaVuSans-6c" transform="translate(580.371094 0)"/>
     <use xlink:href="#DejaVuSans-73" transform="translate(608.154297 0)"/>
     <use xlink:href="#DejaVuSans-20" transform="translate(660.253906 0)"/>
     <use xlink:href="#DejaVuSans-70" transform="translate(692.041016 0)"/>
     <use xlink:href="#DejaVuSans-72" transform="translate(755.517578 0)"/>
     <use xlink:href="#DejaVuSans-6f" transform="translate(794.380859 0)"/>
     <use xlink:href="#DejaVuSans-74" transform="translate(855.5625 0)"/>
     <use xlink:href="#DejaVuSans-65" transform="translate(894.771484 0)"/>
     <use xlink:href="#DejaVuSans-63" transform="translate(956.294922 0)"/>
     <use xlink:href="#DejaVuSans-74" transform="translate(1011.275391 0)"/>
     <use xlink:href="#DejaVuSans-69" transform="translate(1050.484375 0)"/>
     <use xlink:href="#DejaVuSans-6f" transform="translate(1078.267578 0)"/>
     <use xlink:href="#DejaVuSans-6e" transform="translate(1139.449219 0)"/>
     <use xlink:href="#DejaVuSans-20" transform="translate(1202.828125 0)"/>
     <use xlink:href="#DejaVuSans-6f" transform="translate(1234.615234 0)"/>
     <use xlink:href="#DejaVuSans-6e" transform="translate(1295.796875 0)"/>
     <use xlink:href="#DejaVuSans-20" transform="translate(1359.175781 0)"/>
     <use xlink:href="#DejaVuSans-61" transform="translate(1390.962891 0)"/>
     <use xlink:href="#DejaVuSans-20" transform="translate(1452.242188 0)"/>
     <use xlink:href="#DejaVuSans-62" transform="translate(1484.029297 0)"/>
     <use xlink:href="#DejaVuSans-61" transform="translate(1547.505859 0)"/>
     <use xlink:href="#DejaVuSans-73" transform="translate(1608.785156 0)"/>
     <use xlink:href="#DejaVuSans-6b" transform="translate(1660.884766 0)"/>
     <use xlink:href="#DejaVuSans-65" transform="translate(1715.169922 0)"/>
     <use xlink:href="#DejaVuSans-74" transform="translate(1776.693359 0)"/>
     <use xlink:href="#DejaVuSans-20" transform="translate(1815.902344 0)"/>
     <use xlink:href="#DejaVuSans-6f" transform="translate(1847.689453 0)"/>
     <use xlink:href="#DejaVuSans-66" transform="translate(1908.871094 0)"/>
     <use xlink:href="#DejaVuSans-20" transform="translate(1944.076172 0)"/>
     <use xlink:href="#DejaVuSans-35" transform="translate(1975.863281 0)"/>
     <use xlink:href="#DejaVuSans-2013" transform="translate(2039.486328 0)"/>
     <use xlink:href="#DejaVuSans-31" transform="translate(2089.486328 0)"/>
     <use xlink:href="#DejaVuSans-30" transform="translate(2153.109375 0)"/>
     <use xlink:href="#DejaVuSans-20" transform="translate(2216.732422 0)"/>
     <use xlink:href="#DejaVuSans-63" transform="translate(2248.519531 0)"/>
     <use xlink:href="#DejaVuSans-6f" transform="translate(2303.5 0)"/>
     <use xlink:href="#DejaVuSans-6d" transform="translate(2364.681641 0)"/>
     <use xlink:href="#DejaVuSans-70" transform="translate(2462.09375 0)"/>
     <use xlink:href="#DejaVuSans-61" transform="translate(2525.570312 0)"/>
     <use xlink:href="#DejaVuSans-6e" transform="translate(2586.849609 0)"/>
     <use xlink:href="#DejaVuSans-69" transform="translate(2650.228516 0)"/>
     <use xlink:href="#DejaVuSans-65" transform="translate(2678.011719 0)"/>
     <use xlink:href="#DejaVuSans-73" transform="translate(2739.535156 0)"/>
     <use xlink:href="#DejaVuSans-3b" transform="translate(2791.634766 0)"/>
    </g>
    <!-- first default triggers loss -->
    <g style="fill: #41607f" transform="translate(347.46 174.495459) scale(0.078 -0.078)">
     <defs>
      <path id="DejaVuSans-67" d="M 2906 1791 
Q 2906 2416 2648 2759 
Q 2391 3103 1925 3103 
Q 1463 3103 1205 2759 
Q 947 2416 947 1791 
Q 947 1169 1205 825 
Q 1463 481 1925 481 
Q 2391 481 2648 825 
Q 2906 1169 2906 1791 
z
M 3481 434 
Q 3481 -459 3084 -895 
Q 2688 -1331 1869 -1331 
Q 1566 -1331 1297 -1286 
Q 1028 -1241 775 -1147 
L 775 -588 
Q 1028 -725 1275 -790 
Q 1522 -856 1778 -856 
Q 2344 -856 2625 -561 
Q 2906 -266 2906 331 
L 2906 616 
Q 2728 306 2450 153 
Q 2172 0 1784 0 
Q 1141 0 747 490 
Q 353 981 353 1791 
Q 353 2603 747 3093 
Q 1141 3584 1784 3584 
Q 2172 3584 2450 3431 
Q 2728 3278 2906 2969 
L 2906 3500 
L 3481 3500 
L 3481 434 
z
" transform="scale(0.015625)"/>
     </defs>
     <use xlink:href="#DejaVuSans-66"/>
     <use xlink:href="#DejaVuSans-69" transform="translate(35.205078 0)"/>
     <use xlink:href="#DejaVuSans-72" transform="translate(62.988281 0)"/>
     <use xlink:href="#DejaVuSans-73" transform="translate(104.101562 0)"/>
     <use xlink:href="#DejaVuSans-74" transform="translate(156.201172 0)"/>
     <use xlink:href="#DejaVuSans-20" transform="translate(195.410156 0)"/>
     <use xlink:href="#DejaVuSans-64" transform="translate(227.197266 0)"/>
     <use xlink:href="#DejaVuSans-65" transform="translate(290.673828 0)"/>
     <use xlink:href="#DejaVuSans-66" transform="translate(352.197266 0)"/>
     <use xlink:href="#DejaVuSans-61" transform="translate(387.402344 0)"/>
     <use xlink:href="#DejaVuSans-75" transform="translate(448.681641 0)"/>
     <use xlink:href="#DejaVuSans-6c" transform="translate(512.060547 0)"/>
     <use xlink:href="#DejaVuSans-74" transform="translate(539.84375 0)"/>
     <use xlink:href="#DejaVuSans-20" transform="translate(579.052734 0)"/>
     <use xlink:href="#DejaVuSans-74" transform="translate(610.839844 0)"/>
     <use xlink:href="#DejaVuSans-72" transform="translate(650.048828 0)"/>
     <use xlink:href="#DejaVuSans-69" transform="translate(691.162109 0)"/>
     <use xlink:href="#DejaVuSans-67" transform="translate(718.945312 0)"/>
     <use xlink:href="#DejaVuSans-67" transform="translate(782.421875 0)"/>
     <use xlink:href="#DejaVuSans-65" transform="translate(845.898438 0)"/>
     <use xlink:href="#DejaVuSans-72" transform="translate(907.421875 0)"/>
     <use xlink:href="#DejaVuSans-73" transform="translate(948.535156 0)"/>
     <use xlink:href="#DejaVuSans-20" transform="translate(1000.634766 0)"/>
     <use xlink:href="#DejaVuSans-6c" transform="translate(1032.421875 0)"/>
     <use xlink:href="#DejaVuSans-6f" transform="translate(1060.205078 0)"/>
     <use xlink:href="#DejaVuSans-73" transform="translate(1121.386719 0)"/>
     <use xlink:href="#DejaVuSans-73" transform="translate(1173.486328 0)"/>
    </g>
   </g>
   <g id="text_10">
    <!-- Nth-to-Default (NTD) -->
    <g style="fill: #1f3a5f" transform="translate(97.08 203.022219) scale(0.093 -0.093)">
     <defs>
      <path id="DejaVuSans-Bold-68" d="M 4056 2131 
L 4056 0 
L 2931 0 
L 2931 347 
L 2931 1625 
Q 2931 2084 2911 2256 
Q 2891 2428 2841 2509 
Q 2775 2619 2662 2680 
Q 2550 2741 2406 2741 
Q 2056 2741 1856 2470 
Q 1656 2200 1656 1722 
L 1656 0 
L 538 0 
L 538 4863 
L 1656 4863 
L 1656 2988 
Q 1909 3294 2193 3439 
Q 2478 3584 2822 3584 
Q 3428 3584 3742 3212 
Q 4056 2841 4056 2131 
z
" transform="scale(0.015625)"/>
     </defs>
     <use xlink:href="#DejaVuSans-Bold-4e"/>
     <use xlink:href="#DejaVuSans-Bold-74" transform="translate(83.691406 0)"/>
     <use xlink:href="#DejaVuSans-Bold-68" transform="translate(131.494141 0)"/>
     <use xlink:href="#DejaVuSans-Bold-2d" transform="translate(202.685547 0)"/>
     <use xlink:href="#DejaVuSans-Bold-74" transform="translate(244.189453 0)"/>
     <use xlink:href="#DejaVuSans-Bold-6f" transform="translate(291.992188 0)"/>
     <use xlink:href="#DejaVuSans-Bold-2d" transform="translate(360.693359 0)"/>
     <use xlink:href="#DejaVuSans-Bold-44" transform="translate(402.197266 0)"/>
     <use xlink:href="#DejaVuSans-Bold-65" transform="translate(485.205078 0)"/>
     <use xlink:href="#DejaVuSans-Bold-66" transform="translate(553.027344 0)"/>
     <use xlink:href="#DejaVuSans-Bold-61" transform="translate(596.533203 0)"/>
     <use xlink:href="#DejaVuSans-Bold-75" transform="translate(664.013672 0)"/>
     <use xlink:href="#DejaVuSans-Bold-6c" transform="translate(735.205078 0)"/>
     <use xlink:href="#DejaVuSans-Bold-74" transform="translate(769.482422 0)"/>
     <use xlink:href="#DejaVuSans-Bold-20" transform="translate(817.285156 0)"/>
     <use xlink:href="#DejaVuSans-Bold-28" transform="translate(852.099609 0)"/>
     <use xlink:href="#DejaVuSans-Bold-4e" transform="translate(897.802734 0)"/>
     <use xlink:href="#DejaVuSans-Bold-54" transform="translate(981.494141 0)"/>
     <use xlink:href="#DejaVuSans-Bold-44" transform="translate(1049.707031 0)"/>
     <use xlink:href="#DejaVuSans-Bold-29" transform="translate(1132.714844 0)"/>
    </g>
   </g>
   <g id="text_11">
    <!-- Like FTD but the Nth default triggers loss — second-to- -->
    <g style="fill: #41607f" transform="translate(347.46 198.241166) scale(0.078 -0.078)">
     <defs>
      <path id="DejaVuSans-46" d="M 628 4666 
L 3309 4666 
L 3309 4134 
L 1259 4134 
L 1259 2759 
L 3109 2759 
L 3109 2228 
L 1259 2228 
L 1259 0 
L 628 0 
L 628 4666 
z
" transform="scale(0.015625)"/>
      <path id="DejaVuSans-54" d="M -19 4666 
L 3928 4666 
L 3928 4134 
L 2272 4134 
L 2272 0 
L 1638 0 
L 1638 4134 
L -19 4134 
L -19 4666 
z
" transform="scale(0.015625)"/>
      <path id="DejaVuSans-2014" d="M 313 1978 
L 6088 1978 
L 6088 1528 
L 313 1528 
L 313 1978 
z
" transform="scale(0.015625)"/>
      <path id="DejaVuSans-2d" d="M 313 2009 
L 1997 2009 
L 1997 1497 
L 313 1497 
L 313 2009 
z
" transform="scale(0.015625)"/>
     </defs>
     <use xlink:href="#DejaVuSans-4c"/>
     <use xlink:href="#DejaVuSans-69" transform="translate(55.712891 0)"/>
     <use xlink:href="#DejaVuSans-6b" transform="translate(83.496094 0)"/>
     <use xlink:href="#DejaVuSans-65" transform="translate(137.78125 0)"/>
     <use xlink:href="#DejaVuSans-20" transform="translate(199.304688 0)"/>
     <use xlink:href="#DejaVuSans-46" transform="translate(231.091797 0)"/>
     <use xlink:href="#DejaVuSans-54" transform="translate(286.861328 0)"/>
     <use xlink:href="#DejaVuSans-44" transform="translate(347.945312 0)"/>
     <use xlink:href="#DejaVuSans-20" transform="translate(424.947266 0)"/>
     <use xlink:href="#DejaVuSans-62" transform="translate(456.734375 0)"/>
     <use xlink:href="#DejaVuSans-75" transform="translate(520.210938 0)"/>
     <use xlink:href="#DejaVuSans-74" transform="translate(583.589844 0)"/>
     <use xlink:href="#DejaVuSans-20" transform="translate(622.798828 0)"/>
     <use xlink:href="#DejaVuSans-74" transform="translate(654.585938 0)"/>
     <use xlink:href="#DejaVuSans-68" transform="translate(693.794922 0)"/>
     <use xlink:href="#DejaVuSans-65" transform="translate(757.173828 0)"/>
     <use xlink:href="#DejaVuSans-20" transform="translate(818.697266 0)"/>
     <use xlink:href="#DejaVuSans-4e" transform="translate(850.484375 0)"/>
     <use xlink:href="#DejaVuSans-74" transform="translate(925.289062 0)"/>
     <use xlink:href="#DejaVuSans-68" transform="translate(964.498047 0)"/>
     <use xlink:href="#DejaVuSans-20" transform="translate(1027.876953 0)"/>
     <use xlink:href="#DejaVuSans-64" transform="translate(1059.664062 0)"/>
     <use xlink:href="#DejaVuSans-65" transform="translate(1123.140625 0)"/>
     <use xlink:href="#DejaVuSans-66" transform="translate(1184.664062 0)"/>
     <use xlink:href="#DejaVuSans-61" transform="translate(1219.869141 0)"/>
     <use xlink:href="#DejaVuSans-75" transform="translate(1281.148438 0)"/>
     <use xlink:href="#DejaVuSans-6c" transform="translate(1344.527344 0)"/>
     <use xlink:href="#DejaVuSans-74" transform="translate(1372.310547 0)"/>
     <use xlink:href="#DejaVuSans-20" transform="translate(1411.519531 0)"/>
     <use xlink:href="#DejaVuSans-74" transform="translate(1443.306641 0)"/>
     <use xlink:href="#DejaVuSans-72" transform="translate(1482.515625 0)"/>
     <use xlink:href="#DejaVuSans-69" transform="translate(1523.628906 0)"/>
     <use xlink:href="#DejaVuSans-67" transform="translate(1551.412109 0)"/>
     <use xlink:href="#DejaVuSans-67" transform="translate(1614.888672 0)"/>
     <use xlink:href="#DejaVuSans-65" transform="translate(1678.365234 0)"/>
     <use xlink:href="#DejaVuSans-72" transform="translate(1739.888672 0)"/>
     <use xlink:href="#DejaVuSans-73" transform="translate(1781.001953 0)"/>
     <use xlink:href="#DejaVuSans-20" transform="translate(1833.101562 0)"/>
     <use xlink:href="#DejaVuSans-6c" transform="translate(1864.888672 0)"/>
     <use xlink:href="#DejaVuSans-6f" transform="translate(1892.671875 0)"/>
     <use xlink:href="#DejaVuSans-73" transform="translate(1953.853516 0)"/>
     <use xlink:href="#DejaVuSans-73" transform="translate(2005.953125 0)"/>
     <use xlink:href="#DejaVuSans-20" transform="translate(2058.052734 0)"/>
     <use xlink:href="#DejaVuSans-2014" transform="translate(2089.839844 0)"/>
     <use xlink:href="#DejaVuSans-20" transform="translate(2189.839844 0)"/>
     <use xlink:href="#DejaVuSans-73" transform="translate(2221.626953 0)"/>
     <use xlink:href="#DejaVuSans-65" transform="translate(2273.726562 0)"/>
     <use xlink:href="#DejaVuSans-63" transform="translate(2335.25 0)"/>
     <use xlink:href="#DejaVuSans-6f" transform="translate(2390.230469 0)"/>
     <use xlink:href="#DejaVuSans-6e" transform="translate(2451.412109 0)"/>
     <use xlink:href="#DejaVuSans-64" transform="translate(2514.791016 0)"/>
     <use xlink:href="#DejaVuSans-2d" transform="translate(2578.267578 0)"/>
     <use xlink:href="#DejaVuSans-74" transform="translate(2614.351562 0)"/>
     <use xlink:href="#DejaVuSans-6f" transform="translate(2653.560547 0)"/>
     <use xlink:href="#DejaVuSans-2d" transform="translate(2716.617188 0)"/>
    </g>
    <!-- default is less risky than first -->
    <g style="fill: #41607f" transform="translate(347.46 206.975459) scale(0.078 -0.078)">
     <use xlink:href="#DejaVuSans-64"/>
     <use xlink:href="#DejaVuSans-65" transform="translate(63.476562 0)"/>
     <use xlink:href="#DejaVuSans-66" transform="translate(125 0)"/>
     <use xlink:href="#DejaVuSans-61" transform="translate(160.205078 0)"/>
     <use xlink:href="#DejaVuSans-75" transform="translate(221.484375 0)"/>
     <use xlink:href="#DejaVuSans-6c" transform="translate(284.863281 0)"/>
     <use xlink:href="#DejaVuSans-74" transform="translate(312.646484 0)"/>
     <use xlink:href="#DejaVuSans-20" transform="translate(351.855469 0)"/>
     <use xlink:href="#DejaVuSans-69" transform="translate(383.642578 0)"/>
     <use xlink:href="#DejaVuSans-73" transform="translate(411.425781 0)"/>
     <use xlink:href="#DejaVuSans-20" transform="translate(463.525391 0)"/>
     <use xlink:href="#DejaVuSans-6c" transform="translate(495.3125 0)"/>
     <use xlink:href="#DejaVuSans-65" transform="translate(523.095703 0)"/>
     <use xlink:href="#DejaVuSans-73" transform="translate(584.619141 0)"/>
     <use xlink:href="#DejaVuSans-73" transform="translate(636.71875 0)"/>
     <use xlink:href="#DejaVuSans-20" transform="translate(688.818359 0)"/>
     <use xlink:href="#DejaVuSans-72" transform="translate(720.605469 0)"/>
     <use xlink:href="#DejaVuSans-69" transform="translate(761.71875 0)"/>
     <use xlink:href="#DejaVuSans-73" transform="translate(789.501953 0)"/>
     <use xlink:href="#DejaVuSans-6b" transform="translate(841.601562 0)"/>
     <use xlink:href="#DejaVuSans-79" transform="translate(895.886719 0)"/>
     <use xlink:href="#DejaVuSans-20" transform="translate(955.066406 0)"/>
     <use xlink:href="#DejaVuSans-74" transform="translate(986.853516 0)"/>
     <use xlink:href="#DejaVuSans-68" transform="translate(1026.0625 0)"/>
     <use xlink:href="#DejaVuSans-61" transform="translate(1089.441406 0)"/>
     <use xlink:href="#DejaVuSans-6e" transform="translate(1150.720703 0)"/>
     <use xlink:href="#DejaVuSans-20" transform="translate(1214.099609 0)"/>
     <use xlink:href="#DejaVuSans-66" transform="translate(1245.886719 0)"/>
     <use xlink:href="#DejaVuSans-69" transform="translate(1281.091797 0)"/>
     <use xlink:href="#DejaVuSans-72" transform="translate(1308.875 0)"/>
     <use xlink:href="#DejaVuSans-73" transform="translate(1349.988281 0)"/>
     <use xlink:href="#DejaVuSans-74" transform="translate(1402.087891 0)"/>
    </g>
   </g>
   <g id="text_12">
    <!-- Portfolio -->
    <g style="fill: #ffffff" transform="translate(48.93 235.695375) scale(0.1 -0.1)">
     <defs>
      <path id="DejaVuSans-Bold-50" d="M 588 4666 
L 2584 4666 
Q 3475 4666 3951 4270 
Q 4428 3875 4428 3144 
Q 4428 2409 3951 2014 
Q 3475 1619 2584 1619 
L 1791 1619 
L 1791 0 
L 588 0 
L 588 4666 
z
M 1791 3794 
L 1791 2491 
L 2456 2491 
Q 2806 2491 2997 2661 
Q 3188 2831 3188 3144 
Q 3188 3456 2997 3625 
Q 2806 3794 2456 3794 
L 1791 3794 
z
" transform="scale(0.015625)"/>
     </defs>
     <use xlink:href="#DejaVuSans-Bold-50"/>
     <use xlink:href="#DejaVuSans-Bold-6f" transform="translate(73.291016 0)"/>
     <use xlink:href="#DejaVuSans-Bold-72" transform="translate(141.992188 0)"/>
     <use xlink:href="#DejaVuSans-Bold-74" transform="translate(191.308594 0)"/>
     <use xlink:href="#DejaVuSans-Bold-66" transform="translate(239.111328 0)"/>
     <use xlink:href="#DejaVuSans-Bold-6f" transform="translate(282.617188 0)"/>
     <use xlink:href="#DejaVuSans-Bold-6c" transform="translate(351.318359 0)"/>
     <use xlink:href="#DejaVuSans-Bold-69" transform="translate(385.595703 0)"/>
     <use xlink:href="#DejaVuSans-Bold-6f" transform="translate(419.873047 0)"/>
    </g>
   </g>
   <g id="text_13">
    <!-- Synthetic CDO Tranche -->
    <g style="fill: #1f3a5f" transform="translate(97.08 267.945891) scale(0.093 -0.093)">
     <defs>
      <path id="DejaVuSans-Bold-79" d="M 78 3500 
L 1197 3500 
L 2138 1125 
L 2938 3500 
L 4056 3500 
L 2584 -331 
Q 2363 -916 2067 -1148 
Q 1772 -1381 1288 -1381 
L 641 -1381 
L 641 -647 
L 991 -647 
Q 1275 -647 1404 -556 
Q 1534 -466 1606 -231 
L 1638 -134 
L 78 3500 
z
" transform="scale(0.015625)"/>
      <path id="DejaVuSans-Bold-63" d="M 3366 3391 
L 3366 2478 
Q 3138 2634 2908 2709 
Q 2678 2784 2431 2784 
Q 1963 2784 1702 2511 
Q 1441 2238 1441 1747 
Q 1441 1256 1702 982 
Q 1963 709 2431 709 
Q 2694 709 2930 787 
Q 3166 866 3366 1019 
L 3366 103 
Q 3103 6 2833 -42 
Q 2563 -91 2291 -91 
Q 1344 -91 809 395 
Q 275 881 275 1747 
Q 275 2613 809 3098 
Q 1344 3584 2291 3584 
Q 2566 3584 2833 3536 
Q 3100 3488 3366 3391 
z
" transform="scale(0.015625)"/>
      <path id="DejaVuSans-Bold-4f" d="M 2719 3878 
Q 2169 3878 1866 3472 
Q 1563 3066 1563 2328 
Q 1563 1594 1866 1187 
Q 2169 781 2719 781 
Q 3272 781 3575 1187 
Q 3878 1594 3878 2328 
Q 3878 3066 3575 3472 
Q 3272 3878 2719 3878 
z
M 2719 4750 
Q 3844 4750 4481 4106 
Q 5119 3463 5119 2328 
Q 5119 1197 4481 553 
Q 3844 -91 2719 -91 
Q 1597 -91 958 553 
Q 319 1197 319 2328 
Q 319 3463 958 4106 
Q 1597 4750 2719 4750 
z
" transform="scale(0.015625)"/>
     </defs>
     <use xlink:href="#DejaVuSans-Bold-53"/>
     <use xlink:href="#DejaVuSans-Bold-79" transform="translate(72.021484 0)"/>
     <use xlink:href="#DejaVuSans-Bold-6e" transform="translate(137.207031 0)"/>
     <use xlink:href="#DejaVuSans-Bold-74" transform="translate(208.398438 0)"/>
     <use xlink:href="#DejaVuSans-Bold-68" transform="translate(256.201172 0)"/>
     <use xlink:href="#DejaVuSans-Bold-65" transform="translate(327.392578 0)"/>
     <use xlink:href="#DejaVuSans-Bold-74" transform="translate(395.214844 0)"/>
     <use xlink:href="#DejaVuSans-Bold-69" transform="translate(443.017578 0)"/>
     <use xlink:href="#DejaVuSans-Bold-63" transform="translate(477.294922 0)"/>
     <use xlink:href="#DejaVuSans-Bold-20" transform="translate(536.572266 0)"/>
     <use xlink:href="#DejaVuSans-Bold-43" transform="translate(571.386719 0)"/>
     <use xlink:href="#DejaVuSans-Bold-44" transform="translate(644.775391 0)"/>
     <use xlink:href="#DejaVuSans-Bold-4f" transform="translate(727.783203 0)"/>
     <use xlink:href="#DejaVuSans-Bold-20" transform="translate(812.792969 0)"/>
     <use xlink:href="#DejaVuSans-Bold-54" transform="translate(847.607422 0)"/>
     <use xlink:href="#DejaVuSans-Bold-72" transform="translate(904.820312 0)"/>
     <use xlink:href="#DejaVuSans-Bold-61" transform="translate(954.136719 0)"/>
     <use xlink:href="#DejaVuSans-Bold-6e" transform="translate(1021.617188 0)"/>
     <use xlink:href="#DejaVuSans-Bold-63" transform="translate(1092.808594 0)"/>
     <use xlink:href="#DejaVuSans-Bold-68" transform="translate(1152.085938 0)"/>
     <use xlink:href="#DejaVuSans-Bold-65" transform="translate(1223.277344 0)"/>
    </g>
   </g>
   <g id="text_14">
    <!-- Investor takes a slice of credit risk on a 100+ name -->
    <g style="fill: #41607f" transform="translate(347.46 263.201166) scale(0.078 -0.078)">
     <defs>
      <path id="DejaVuSans-2b" d="M 2944 4013 
L 2944 2272 
L 4684 2272 
L 4684 1741 
L 2944 1741 
L 2944 0 
L 2419 0 
L 2419 1741 
L 678 1741 
L 678 2272 
L 2419 2272 
L 2419 4013 
L 2944 4013 
z
" transform="scale(0.015625)"/>
     </defs>
     <use xlink:href="#DejaVuSans-49"/>
     <use xlink:href="#DejaVuSans-6e" transform="translate(29.492188 0)"/>
     <use xlink:href="#DejaVuSans-76" transform="translate(92.871094 0)"/>
     <use xlink:href="#DejaVuSans-65" transform="translate(152.050781 0)"/>
     <use xlink:href="#DejaVuSans-73" transform="translate(213.574219 0)"/>
     <use xlink:href="#DejaVuSans-74" transform="translate(265.673828 0)"/>
     <use xlink:href="#DejaVuSans-6f" transform="translate(304.882812 0)"/>
     <use xlink:href="#DejaVuSans-72" transform="translate(366.064453 0)"/>
     <use xlink:href="#DejaVuSans-20" transform="translate(407.177734 0)"/>
     <use xlink:href="#DejaVuSans-74" transform="translate(438.964844 0)"/>
     <use xlink:href="#DejaVuSans-61" transform="translate(478.173828 0)"/>
     <use xlink:href="#DejaVuSans-6b" transform="translate(539.453125 0)"/>
     <use xlink:href="#DejaVuSans-65" transform="translate(593.738281 0)"/>
     <use xlink:href="#DejaVuSans-73" transform="translate(655.261719 0)"/>
     <use xlink:href="#DejaVuSans-20" transform="translate(707.361328 0)"/>
     <use xlink:href="#DejaVuSans-61" transform="translate(739.148438 0)"/>
     <use xlink:href="#DejaVuSans-20" transform="translate(800.427734 0)"/>
     <use xlink:href="#DejaVuSans-73" transform="translate(832.214844 0)"/>
     <use xlink:href="#DejaVuSans-6c" transform="translate(884.314453 0)"/>
     <use xlink:href="#DejaVuSans-69" transform="translate(912.097656 0)"/>
     <use xlink:href="#DejaVuSans-63" transform="translate(939.880859 0)"/>
     <use xlink:href="#DejaVuSans-65" transform="translate(994.861328 0)"/>
     <use xlink:href="#DejaVuSans-20" transform="translate(1056.384766 0)"/>
     <use xlink:href="#DejaVuSans-6f" transform="translate(1088.171875 0)"/>
     <use xlink:href="#DejaVuSans-66" transform="translate(1149.353516 0)"/>
     <use xlink:href="#DejaVuSans-20" transform="translate(1184.558594 0)"/>
     <use xlink:href="#DejaVuSans-63" transform="translate(1216.345703 0)"/>
     <use xlink:href="#DejaVuSans-72" transform="translate(1271.326172 0)"/>
     <use xlink:href="#DejaVuSans-65" transform="translate(1310.189453 0)"/>
     <use xlink:href="#DejaVuSans-64" transform="translate(1371.712891 0)"/>
     <use xlink:href="#DejaVuSans-69" transform="translate(1435.189453 0)"/>
     <use xlink:href="#DejaVuSans-74" transform="translate(1462.972656 0)"/>
     <use xlink:href="#DejaVuSans-20" transform="translate(1502.181641 0)"/>
     <use xlink:href="#DejaVuSans-72" transform="translate(1533.96875 0)"/>
     <use xlink:href="#DejaVuSans-69" transform="translate(1575.082031 0)"/>
     <use xlink:href="#DejaVuSans-73" transform="translate(1602.865234 0)"/>
     <use xlink:href="#DejaVuSans-6b" transform="translate(1654.964844 0)"/>
     <use xlink:href="#DejaVuSans-20" transform="translate(1712.875 0)"/>
     <use xlink:href="#DejaVuSans-6f" transform="translate(1744.662109 0)"/>
     <use xlink:href="#DejaVuSans-6e" transform="translate(1805.84375 0)"/>
     <use xlink:href="#DejaVuSans-20" transform="translate(1869.222656 0)"/>
     <use xlink:href="#DejaVuSans-61" transform="translate(1901.009766 0)"/>
     <use xlink:href="#DejaVuSans-20" transform="translate(1962.289062 0)"/>
     <use xlink:href="#DejaVuSans-31" transform="translate(1994.076172 0)"/>
     <use xlink:href="#DejaVuSans-30" transform="translate(2057.699219 0)"/>
     <use xlink:href="#DejaVuSans-30" transform="translate(2121.322266 0)"/>
     <use xlink:href="#DejaVuSans-2b" transform="translate(2184.945312 0)"/>
     <use xlink:href="#DejaVuSans-20" transform="translate(2268.734375 0)"/>
     <use xlink:href="#DejaVuSans-6e" transform="translate(2300.521484 0)"/>
     <use xlink:href="#DejaVuSans-61" transform="translate(2363.900391 0)"/>
     <use xlink:href="#DejaVuSans-6d" transform="translate(2425.179688 0)"/>
     <use xlink:href="#DejaVuSans-65" transform="translate(2522.591797 0)"/>
    </g>
    <!-- portfolio; complex correlation exposure -->
    <g style="fill: #41607f" transform="translate(347.46 271.935459) scale(0.078 -0.078)">
     <defs>
      <path id="DejaVuSans-78" d="M 3513 3500 
L 2247 1797 
L 3578 0 
L 2900 0 
L 1881 1375 
L 863 0 
L 184 0 
L 1544 1831 
L 300 3500 
L 978 3500 
L 1906 2253 
L 2834 3500 
L 3513 3500 
z
" transform="scale(0.015625)"/>
     </defs>
     <use xlink:href="#DejaVuSans-70"/>
     <use xlink:href="#DejaVuSans-6f" transform="translate(63.476562 0)"/>
     <use xlink:href="#DejaVuSans-72" transform="translate(124.658203 0)"/>
     <use xlink:href="#DejaVuSans-74" transform="translate(165.771484 0)"/>
     <use xlink:href="#DejaVuSans-66" transform="translate(204.980469 0)"/>
     <use xlink:href="#DejaVuSans-6f" transform="translate(240.185547 0)"/>
     <use xlink:href="#DejaVuSans-6c" transform="translate(301.367188 0)"/>
     <use xlink:href="#DejaVuSans-69" transform="translate(329.150391 0)"/>
     <use xlink:href="#DejaVuSans-6f" transform="translate(356.933594 0)"/>
     <use xlink:href="#DejaVuSans-3b" transform="translate(418.115234 0)"/>
     <use xlink:href="#DejaVuSans-20" transform="translate(451.806641 0)"/>
     <use xlink:href="#DejaVuSans-63" transform="translate(483.59375 0)"/>
     <use xlink:href="#DejaVuSans-6f" transform="translate(538.574219 0)"/>
     <use xlink:href="#DejaVuSans-6d" transform="translate(599.755859 0)"/>
     <use xlink:href="#DejaVuSans-70" transform="translate(697.167969 0)"/>
     <use xlink:href="#DejaVuSans-6c" transform="translate(760.644531 0)"/>
     <use xlink:href="#DejaVuSans-65" transform="translate(788.427734 0)"/>
     <use xlink:href="#DejaVuSans-78" transform="translate(848.201172 0)"/>
     <use xlink:href="#DejaVuSans-20" transform="translate(907.380859 0)"/>
     <use xlink:href="#DejaVuSans-63" transform="translate(939.167969 0)"/>
     <use xlink:href="#DejaVuSans-6f" transform="translate(994.148438 0)"/>
     <use xlink:href="#DejaVuSans-72" transform="translate(1055.330078 0)"/>
     <use xlink:href="#DejaVuSans-72" transform="translate(1094.693359 0)"/>
     <use xlink:href="#DejaVuSans-65" transform="translate(1133.556641 0)"/>
     <use xlink:href="#DejaVuSans-6c" transform="translate(1195.080078 0)"/>
     <use xlink:href="#DejaVuSans-61" transform="translate(1222.863281 0)"/>
     <use xlink:href="#DejaVuSans-74" transform="translate(1284.142578 0)"/>
     <use xlink:href="#DejaVuSans-69" transform="translate(1323.351562 0)"/>
     <use xlink:href="#DejaVuSans-6f" transform="translate(1351.134766 0)"/>
     <use xlink:href="#DejaVuSans-6e" transform="translate(1412.316406 0)"/>
     <use xlink:href="#DejaVuSans-20" transform="translate(1475.695312 0)"/>
     <use xlink:href="#DejaVuSans-65" transform="translate(1507.482422 0)"/>
     <use xlink:href="#DejaVuSans-78" transform="translate(1567.255859 0)"/>
     <use xlink:href="#DejaVuSans-70" transform="translate(1626.435547 0)"/>
     <use xlink:href="#DejaVuSans-6f" transform="translate(1689.912109 0)"/>
     <use xlink:href="#DejaVuSans-73" transform="translate(1751.09375 0)"/>
     <use xlink:href="#DejaVuSans-75" transform="translate(1803.193359 0)"/>
     <use xlink:href="#DejaVuSans-72" transform="translate(1866.572266 0)"/>
     <use xlink:href="#DejaVuSans-65" transform="translate(1905.435547 0)"/>
    </g>
   </g>
   <g id="PathCollection_1">
    <defs>
     <path id="m8d0f78a9c7" d="M 0 1.870829 
C 0.49615 1.870829 0.972045 1.673706 1.322876 1.322876 
C 1.673706 0.972045 1.870829 0.49615 1.870829 0 
C 1.870829 -0.49615 1.673706 -0.972045 1.322876 -1.322876 
C 0.972045 -1.673706 0.49615 -1.870829 0 -1.870829 
C -0.49615 -1.870829 -0.972045 -1.673706 -1.322876 -1.322876 
C -1.673706 -0.972045 -1.870829 -0.49615 -1.870829 0 
C -1.870829 0.49615 -1.673706 0.972045 -1.322876 1.322876 
C -0.972045 1.673706 -0.49615 1.870829 0 1.870829 
z
" style="stroke: #c8553d"/>
    </defs>
    <g clip-path="url(#p5617b85b7d)">
     <use xlink:href="#m8d0f78a9c7" x="87.45" y="70.536" style="fill: #c8553d; stroke: #c8553d"/>
    </g>
   </g>
   <g id="PathCollection_2">
    <g clip-path="url(#p5617b85b7d)">
     <use xlink:href="#m8d0f78a9c7" x="87.45" y="103.016" style="fill: #c8553d; stroke: #c8553d"/>
    </g>
   </g>
   <g id="PathCollection_3">
    <g clip-path="url(#p5617b85b7d)">
     <use xlink:href="#m8d0f78a9c7" x="87.45" y="167.976" style="fill: #c8553d; stroke: #c8553d"/>
    </g>
   </g>
   <g id="PathCollection_4">
    <g clip-path="url(#p5617b85b7d)">
     <use xlink:href="#m8d0f78a9c7" x="87.45" y="200.456" style="fill: #c8553d; stroke: #c8553d"/>
    </g>
   </g>
   <g id="PathCollection_5">
    <g clip-path="url(#p5617b85b7d)">
     <use xlink:href="#m8d0f78a9c7" x="87.45" y="265.416" style="fill: #c8553d; stroke: #c8553d"/>
    </g>
   </g>
  </g>
 </g>
 <defs>
  <clipPath id="p5617b85b7d">
   <rect x="7.2" y="7.2" width="770.4" height="292.32"/>
  </clipPath>
 </defs>
</svg>
