<?xml version="1.0" encoding="utf-8" standalone="no"?>
<!DOCTYPE svg PUBLIC "-//W3C//DTD SVG 1.1//EN"
  "http://www.w3.org/Graphics/SVG/1.1/DTD/svg11.dtd">
<svg xmlns:xlink="http://www.w3.org/1999/xlink" width="684pt" height="380.112921pt" viewBox="0 0 684 380.112921" xmlns="http://www.w3.org/2000/svg" version="1.1">
 <metadata>
  <rdf:RDF xmlns:dc="http://purl.org/dc/elements/1.1/" xmlns:cc="http://creativecommons.org/ns#" xmlns:rdf="http://www.w3.org/1999/02/22-rdf-syntax-ns#">
   <cc:Work>
    <dc:type rdf:resource="http://purl.org/dc/dcmitype/StillImage"/>
    <dc:date>2026-06-27T22:59:14.900641</dc:date>
    <dc:format>image/svg+xml</dc:format>
    <dc:creator>
     <cc:Agent>
      <dc:title>Matplotlib v3.10.9, https://matplotlib.org/</dc:title>
     </cc:Agent>
    </dc:creator>
   </cc:Work>
  </rdf:RDF>
 </metadata>
 <defs>
  <style type="text/css">*{stroke-linejoin: round; stroke-linecap: butt}</style>
 </defs>
 <g id="figure_1">
  <g id="patch_1">
   <path d="M 0 380.112921 
L 684 380.112921 
L 684 0 
L 0 0 
z
" style="fill: #ffffff"/>
  </g>
  <g id="axes_1">
   <g id="patch_2">
    <path d="M 27.288 88.981065 
L 165.672 88.981065 
Q 171.252 88.981065 171.252 83.780848 
L 171.252 38.018937 
Q 171.252 32.81872 165.672 32.81872 
L 27.288 32.81872 
Q 21.708 32.81872 21.708 38.018937 
L 21.708 83.780848 
Q 21.708 88.981065 27.288 88.981065 
z
" clip-path="url(#p521b8515f4)" style="fill: #eef2f6; stroke: #1f3a5f; stroke-width: 1.6; stroke-linejoin: miter"/>
   </g>
   <g id="patch_3">
    <path d="M 272.808 88.981065 
L 411.192 88.981065 
Q 416.772 88.981065 416.772 83.780848 
L 416.772 38.018937 
Q 416.772 32.81872 411.192 32.81872 
L 272.808 32.81872 
Q 267.228 32.81872 267.228 38.018937 
L 267.228 83.780848 
Q 267.228 88.981065 272.808 88.981065 
z
" clip-path="url(#p521b8515f4)" style="fill: #eef2f6; stroke: #41607f; stroke-width: 1.6; stroke-linejoin: miter"/>
   </g>
   <g id="patch_4">
    <path d="M 507.168 88.981065 
L 656.712 88.981065 
Q 662.292 88.981065 662.292 83.780848 
L 662.292 38.018937 
Q 662.292 32.81872 656.712 32.81872 
L 507.168 32.81872 
Q 501.588 32.81872 501.588 38.018937 
L 501.588 83.780848 
Q 501.588 88.981065 507.168 88.981065 
z
" clip-path="url(#p521b8515f4)" style="fill: #eef2f6; stroke: #1f3a5f; stroke-width: 1.6; stroke-linejoin: miter"/>
   </g>
   <g id="patch_5">
    <path d="M 272.808 224.186711 
L 411.192 224.186711 
Q 416.772 224.186711 416.772 218.986494 
L 416.772 173.224583 
Q 416.772 168.024366 411.192 168.024366 
L 272.808 168.024366 
Q 267.228 168.024366 267.228 173.224583 
L 267.228 218.986494 
Q 267.228 224.186711 272.808 224.186711 
z
" clip-path="url(#p521b8515f4)" style="fill: #eef2f6; stroke: #d9a441; stroke-width: 1.6; stroke-linejoin: miter"/>
   </g>
   <g id="patch_6">
    <path d="M 272.808 343.791705 
L 411.192 343.791705 
Q 416.772 343.791705 416.772 338.591488 
L 416.772 292.829577 
Q 416.772 287.62936 411.192 287.62936 
L 272.808 287.62936 
Q 267.228 287.62936 267.228 292.829577 
L 267.228 338.591488 
Q 267.228 343.791705 272.808 343.791705 
z
" clip-path="url(#p521b8515f4)" style="fill: #eef2f6; stroke: #2e7d5b; stroke-width: 1.6; stroke-linejoin: miter"/>
   </g>
   <g id="patch_7">
    <path d="M 171.021566 60.899893 
Q 219.241919 60.899893 265.673417 60.899893 
" clip-path="url(#p521b8515f4)" style="fill: none; stroke: #2e7d5b; stroke-width: 1.6; stroke-linecap: round"/>
    <path d="M 260.473417 58.299893 
L 265.673417 60.899893 
L 260.473417 63.499893 
z
" clip-path="url(#p521b8515f4)" style="fill: #2e7d5b; stroke: #2e7d5b; stroke-width: 1.6; stroke-linecap: round"/>
   </g>
   <g id="patch_8">
    <path d="M 416.542588 60.899893 
Q 459.181151 60.899893 500.030861 60.899893 
" clip-path="url(#p521b8515f4)" style="fill: none; stroke: #2e7d5b; stroke-width: 1.6; stroke-linecap: round"/>
    <path d="M 494.830861 58.299893 
L 500.030861 60.899893 
L 494.830861 63.499893 
z
" clip-path="url(#p521b8515f4)" style="fill: #2e7d5b; stroke: #2e7d5b; stroke-width: 1.6; stroke-linecap: round"/>
   </g>
   <g id="patch_9">
    <path d="M 267.458434 81.700761 
Q 219.238081 81.700761 172.806583 81.700761 
" clip-path="url(#p521b8515f4)" style="fill: none; stroke: #c8553d; stroke-width: 1.6; stroke-linecap: round"/>
    <path d="M 178.006583 84.300761 
L 172.806583 81.700761 
L 178.006583 79.100761 
z
" clip-path="url(#p521b8515f4)" style="fill: #c8553d; stroke: #c8553d; stroke-width: 1.6; stroke-linecap: round"/>
   </g>
   <g id="patch_10">
    <path d="M 580.148058 87.785085 
Q 487.08014 133.702863 395.616448 178.82915 
" clip-path="url(#p521b8515f4)" style="fill: none; stroke: #d9a441; stroke-width: 1.6; stroke-linecap: round"/>
    <path d="M 401.430142 178.860025 
L 395.616448 178.82915 
L 399.129364 174.196719 
z
" clip-path="url(#p521b8515f4)" style="fill: #d9a441; stroke: #d9a441; stroke-width: 1.6; stroke-linecap: round"/>
   </g>
   <g id="patch_11">
    <path d="M 580.611242 88.394247 
Q 487.081096 193.504198 394.740104 297.277768 
" clip-path="url(#p521b8515f4)" style="fill: none; stroke: #2e7d5b; stroke-width: 1.6; stroke-linecap: round"/>
    <path d="M 400.139196 295.121427 
L 394.740104 297.277768 
L 396.254486 291.66469 
z
" clip-path="url(#p521b8515f4)" style="fill: #2e7d5b; stroke: #2e7d5b; stroke-width: 1.6; stroke-linecap: round"/>
   </g>
   <g id="text_1">
    <!-- INVESTOR -->
    <g style="fill: #1f3a5f" transform="translate(68.037812 51.539502) scale(0.1 -0.1)">
     <defs>
      <path id="DejaVuSans-Bold-49" d="M 588 4666 
L 1791 4666 
L 1791 0 
L 588 0 
L 588 4666 
z
" transform="scale(0.015625)"/>
      <path id="DejaVuSans-Bold-4e" d="M 588 4666 
L 1931 4666 
L 3628 1466 
L 3628 4666 
L 4769 4666 
L 4769 0 
L 3425 0 
L 1728 3200 
L 1728 0 
L 588 0 
L 588 4666 
z
" transform="scale(0.015625)"/>
      <path id="DejaVuSans-Bold-56" d="M 31 4666 
L 1241 4666 
L 2478 1222 
L 3713 4666 
L 4922 4666 
L 3194 0 
L 1759 0 
L 31 4666 
z
" transform="scale(0.015625)"/>
      <path id="DejaVuSans-Bold-45" d="M 588 4666 
L 3834 4666 
L 3834 3756 
L 1791 3756 
L 1791 2888 
L 3713 2888 
L 3713 1978 
L 1791 1978 
L 1791 909 
L 3903 909 
L 3903 0 
L 588 0 
L 588 4666 
z
" transform="scale(0.015625)"/>
      <path id="DejaVuSans-Bold-53" d="M 3834 4519 
L 3834 3531 
Q 3450 3703 3084 3790 
Q 2719 3878 2394 3878 
Q 1963 3878 1756 3759 
Q 1550 3641 1550 3391 
Q 1550 3203 1689 3098 
Q 1828 2994 2194 2919 
L 2706 2816 
Q 3484 2659 3812 2340 
Q 4141 2022 4141 1434 
Q 4141 663 3683 286 
Q 3225 -91 2284 -91 
Q 1841 -91 1394 -6 
Q 947 78 500 244 
L 500 1259 
Q 947 1022 1364 901 
Q 1781 781 2169 781 
Q 2563 781 2772 912 
Q 2981 1044 2981 1288 
Q 2981 1506 2839 1625 
Q 2697 1744 2272 1838 
L 1806 1941 
Q 1106 2091 782 2419 
Q 459 2747 459 3303 
Q 459 4000 909 4375 
Q 1359 4750 2203 4750 
Q 2588 4750 2994 4692 
Q 3400 4634 3834 4519 
z
" transform="scale(0.015625)"/>
      <path id="DejaVuSans-Bold-54" d="M 31 4666 
L 4331 4666 
L 4331 3756 
L 2784 3756 
L 2784 0 
L 1581 0 
L 1581 3756 
L 31 3756 
L 31 4666 
z
" transform="scale(0.015625)"/>
      <path id="DejaVuSans-Bold-4f" d="M 2719 3878 
Q 2169 3878 1866 3472 
Q 1563 3066 1563 2328 
Q 1563 1594 1866 1187 
Q 2169 781 2719 781 
Q 3272 781 3575 1187 
Q 3878 1594 3878 2328 
Q 3878 3066 3575 3472 
Q 3272 3878 2719 3878 
z
M 2719 4750 
Q 3844 4750 4481 4106 
Q 5119 3463 5119 2328 
Q 5119 1197 4481 553 
Q 3844 -91 2719 -91 
Q 1597 -91 958 553 
Q 319 1197 319 2328 
Q 319 3463 958 4106 
Q 1597 4750 2719 4750 
z
" transform="scale(0.015625)"/>
      <path id="DejaVuSans-Bold-52" d="M 2297 2597 
Q 2675 2597 2839 2737 
Q 3003 2878 3003 3200 
Q 3003 3519 2839 3656 
Q 2675 3794 2297 3794 
L 1791 3794 
L 1791 2597 
L 2297 2597 
z
M 1791 1766 
L 1791 0 
L 588 0 
L 588 4666 
L 2425 4666 
Q 3347 4666 3776 4356 
Q 4206 4047 4206 3378 
Q 4206 2916 3982 2619 
Q 3759 2322 3309 2181 
Q 3556 2125 3751 1926 
Q 3947 1728 4147 1325 
L 4800 0 
L 3519 0 
L 2950 1159 
Q 2778 1509 2601 1637 
Q 2425 1766 2131 1766 
L 1791 1766 
z
" transform="scale(0.015625)"/>
     </defs>
     <use xlink:href="#DejaVuSans-Bold-49"/>
     <use xlink:href="#DejaVuSans-Bold-4e" transform="translate(37.207031 0)"/>
     <use xlink:href="#DejaVuSans-Bold-56" transform="translate(120.898438 0)"/>
     <use xlink:href="#DejaVuSans-Bold-45" transform="translate(198.291016 0)"/>
     <use xlink:href="#DejaVuSans-Bold-53" transform="translate(266.601562 0)"/>
     <use xlink:href="#DejaVuSans-Bold-54" transform="translate(338.623047 0)"/>
     <use xlink:href="#DejaVuSans-Bold-4f" transform="translate(406.835938 0)"/>
     <use xlink:href="#DejaVuSans-Bold-52" transform="translate(491.845703 0)"/>
    </g>
   </g>
   <g id="text_2">
    <!-- buys the note -->
    <g style="fill: #41607f" transform="translate(69.526734 77.540587) scale(0.078 -0.078)">
     <defs>
      <path id="DejaVuSans-62" d="M 3116 1747 
Q 3116 2381 2855 2742 
Q 2594 3103 2138 3103 
Q 1681 3103 1420 2742 
Q 1159 2381 1159 1747 
Q 1159 1113 1420 752 
Q 1681 391 2138 391 
Q 2594 391 2855 752 
Q 3116 1113 3116 1747 
z
M 1159 2969 
Q 1341 3281 1617 3432 
Q 1894 3584 2278 3584 
Q 2916 3584 3314 3078 
Q 3713 2572 3713 1747 
Q 3713 922 3314 415 
Q 2916 -91 2278 -91 
Q 1894 -91 1617 61 
Q 1341 213 1159 525 
L 1159 0 
L 581 0 
L 581 4863 
L 1159 4863 
L 1159 2969 
z
" transform="scale(0.015625)"/>
      <path id="DejaVuSans-75" d="M 544 1381 
L 544 3500 
L 1119 3500 
L 1119 1403 
Q 1119 906 1312 657 
Q 1506 409 1894 409 
Q 2359 409 2629 706 
Q 2900 1003 2900 1516 
L 2900 3500 
L 3475 3500 
L 3475 0 
L 2900 0 
L 2900 538 
Q 2691 219 2414 64 
Q 2138 -91 1772 -91 
Q 1169 -91 856 284 
Q 544 659 544 1381 
z
M 1991 3584 
L 1991 3584 
z
" transform="scale(0.015625)"/>
      <path id="DejaVuSans-79" d="M 2059 -325 
Q 1816 -950 1584 -1140 
Q 1353 -1331 966 -1331 
L 506 -1331 
L 506 -850 
L 844 -850 
Q 1081 -850 1212 -737 
Q 1344 -625 1503 -206 
L 1606 56 
L 191 3500 
L 800 3500 
L 1894 763 
L 2988 3500 
L 3597 3500 
L 2059 -325 
z
" transform="scale(0.015625)"/>
      <path id="DejaVuSans-73" d="M 2834 3397 
L 2834 2853 
Q 2591 2978 2328 3040 
Q 2066 3103 1784 3103 
Q 1356 3103 1142 2972 
Q 928 2841 928 2578 
Q 928 2378 1081 2264 
Q 1234 2150 1697 2047 
L 1894 2003 
Q 2506 1872 2764 1633 
Q 3022 1394 3022 966 
Q 3022 478 2636 193 
Q 2250 -91 1575 -91 
Q 1294 -91 989 -36 
Q 684 19 347 128 
L 347 722 
Q 666 556 975 473 
Q 1284 391 1588 391 
Q 1994 391 2212 530 
Q 2431 669 2431 922 
Q 2431 1156 2273 1281 
Q 2116 1406 1581 1522 
L 1381 1569 
Q 847 1681 609 1914 
Q 372 2147 372 2553 
Q 372 3047 722 3315 
Q 1072 3584 1716 3584 
Q 2034 3584 2315 3537 
Q 2597 3491 2834 3397 
z
" transform="scale(0.015625)"/>
      <path id="DejaVuSans-20" transform="scale(0.015625)"/>
      <path id="DejaVuSans-74" d="M 1172 4494 
L 1172 3500 
L 2356 3500 
L 2356 3053 
L 1172 3053 
L 1172 1153 
Q 1172 725 1289 603 
Q 1406 481 1766 481 
L 2356 481 
L 2356 0 
L 1766 0 
Q 1100 0 847 248 
Q 594 497 594 1153 
L 594 3053 
L 172 3053 
L 172 3500 
L 594 3500 
L 594 4494 
L 1172 4494 
z
" transform="scale(0.015625)"/>
      <path id="DejaVuSans-68" d="M 3513 2113 
L 3513 0 
L 2938 0 
L 2938 2094 
Q 2938 2591 2744 2837 
Q 2550 3084 2163 3084 
Q 1697 3084 1428 2787 
Q 1159 2491 1159 1978 
L 1159 0 
L 581 0 
L 581 4863 
L 1159 4863 
L 1159 2956 
Q 1366 3272 1645 3428 
Q 1925 3584 2291 3584 
Q 2894 3584 3203 3211 
Q 3513 2838 3513 2113 
z
" transform="scale(0.015625)"/>
      <path id="DejaVuSans-65" d="M 3597 1894 
L 3597 1613 
L 953 1613 
Q 991 1019 1311 708 
Q 1631 397 2203 397 
Q 2534 397 2845 478 
Q 3156 559 3463 722 
L 3463 178 
Q 3153 47 2828 -22 
Q 2503 -91 2169 -91 
Q 1331 -91 842 396 
Q 353 884 353 1716 
Q 353 2575 817 3079 
Q 1281 3584 2069 3584 
Q 2775 3584 3186 3129 
Q 3597 2675 3597 1894 
z
M 3022 2063 
Q 3016 2534 2758 2815 
Q 2500 3097 2075 3097 
Q 1594 3097 1305 2825 
Q 1016 2553 972 2059 
L 3022 2063 
z
" transform="scale(0.015625)"/>
      <path id="DejaVuSans-6e" d="M 3513 2113 
L 3513 0 
L 2938 0 
L 2938 2094 
Q 2938 2591 2744 2837 
Q 2550 3084 2163 3084 
Q 1697 3084 1428 2787 
Q 1159 2491 1159 1978 
L 1159 0 
L 581 0 
L 581 3500 
L 1159 3500 
L 1159 2956 
Q 1366 3272 1645 3428 
Q 1925 3584 2291 3584 
Q 2894 3584 3203 3211 
Q 3513 2838 3513 2113 
z
" transform="scale(0.015625)"/>
      <path id="DejaVuSans-6f" d="M 1959 3097 
Q 1497 3097 1228 2736 
Q 959 2375 959 1747 
Q 959 1119 1226 758 
Q 1494 397 1959 397 
Q 2419 397 2687 759 
Q 2956 1122 2956 1747 
Q 2956 2369 2687 2733 
Q 2419 3097 1959 3097 
z
M 1959 3584 
Q 2709 3584 3137 3096 
Q 3566 2609 3566 1747 
Q 3566 888 3137 398 
Q 2709 -91 1959 -91 
Q 1206 -91 779 398 
Q 353 888 353 1747 
Q 353 2609 779 3096 
Q 1206 3584 1959 3584 
z
" transform="scale(0.015625)"/>
     </defs>
     <use xlink:href="#DejaVuSans-62"/>
     <use xlink:href="#DejaVuSans-75" transform="translate(63.476562 0)"/>
     <use xlink:href="#DejaVuSans-79" transform="translate(126.855469 0)"/>
     <use xlink:href="#DejaVuSans-73" transform="translate(186.035156 0)"/>
     <use xlink:href="#DejaVuSans-20" transform="translate(238.134766 0)"/>
     <use xlink:href="#DejaVuSans-74" transform="translate(269.921875 0)"/>
     <use xlink:href="#DejaVuSans-68" transform="translate(309.130859 0)"/>
     <use xlink:href="#DejaVuSans-65" transform="translate(372.509766 0)"/>
     <use xlink:href="#DejaVuSans-20" transform="translate(434.033203 0)"/>
     <use xlink:href="#DejaVuSans-6e" transform="translate(465.820312 0)"/>
     <use xlink:href="#DejaVuSans-6f" transform="translate(529.199219 0)"/>
     <use xlink:href="#DejaVuSans-74" transform="translate(590.380859 0)"/>
     <use xlink:href="#DejaVuSans-65" transform="translate(629.589844 0)"/>
    </g>
   </g>
   <g id="text_3">
    <!-- ISSUER -->
    <g style="fill: #41607f" transform="translate(321.8375 51.539502) scale(0.1 -0.1)">
     <defs>
      <path id="DejaVuSans-Bold-55" d="M 588 4666 
L 1791 4666 
L 1791 1869 
Q 1791 1291 1980 1042 
Q 2169 794 2597 794 
Q 3028 794 3217 1042 
Q 3406 1291 3406 1869 
L 3406 4666 
L 4609 4666 
L 4609 1869 
Q 4609 878 4112 393 
Q 3616 -91 2597 -91 
Q 1581 -91 1084 393 
Q 588 878 588 1869 
L 588 4666 
z
" transform="scale(0.015625)"/>
     </defs>
     <use xlink:href="#DejaVuSans-Bold-49"/>
     <use xlink:href="#DejaVuSans-Bold-53" transform="translate(37.207031 0)"/>
     <use xlink:href="#DejaVuSans-Bold-53" transform="translate(104.728516 0)"/>
     <use xlink:href="#DejaVuSans-Bold-55" transform="translate(176.75 0)"/>
     <use xlink:href="#DejaVuSans-Bold-45" transform="translate(257.951172 0)"/>
     <use xlink:href="#DejaVuSans-Bold-52" transform="translate(326.261719 0)"/>
    </g>
   </g>
   <g id="text_4">
    <!-- the note wrapper -->
    <g style="fill: #41607f" transform="translate(308.19675 77.540587) scale(0.078 -0.078)">
     <defs>
      <path id="DejaVuSans-77" d="M 269 3500 
L 844 3500 
L 1563 769 
L 2278 3500 
L 2956 3500 
L 3675 769 
L 4391 3500 
L 4966 3500 
L 4050 0 
L 3372 0 
L 2619 2869 
L 1863 0 
L 1184 0 
L 269 3500 
z
" transform="scale(0.015625)"/>
      <path id="DejaVuSans-72" d="M 2631 2963 
Q 2534 3019 2420 3045 
Q 2306 3072 2169 3072 
Q 1681 3072 1420 2755 
Q 1159 2438 1159 1844 
L 1159 0 
L 581 0 
L 581 3500 
L 1159 3500 
L 1159 2956 
Q 1341 3275 1631 3429 
Q 1922 3584 2338 3584 
Q 2397 3584 2469 3576 
Q 2541 3569 2628 3553 
L 2631 2963 
z
" transform="scale(0.015625)"/>
      <path id="DejaVuSans-61" d="M 2194 1759 
Q 1497 1759 1228 1600 
Q 959 1441 959 1056 
Q 959 750 1161 570 
Q 1363 391 1709 391 
Q 2188 391 2477 730 
Q 2766 1069 2766 1631 
L 2766 1759 
L 2194 1759 
z
M 3341 1997 
L 3341 0 
L 2766 0 
L 2766 531 
Q 2569 213 2275 61 
Q 1981 -91 1556 -91 
Q 1019 -91 701 211 
Q 384 513 384 1019 
Q 384 1609 779 1909 
Q 1175 2209 1959 2209 
L 2766 2209 
L 2766 2266 
Q 2766 2663 2505 2880 
Q 2244 3097 1772 3097 
Q 1472 3097 1187 3025 
Q 903 2953 641 2809 
L 641 3341 
Q 956 3463 1253 3523 
Q 1550 3584 1831 3584 
Q 2591 3584 2966 3190 
Q 3341 2797 3341 1997 
z
" transform="scale(0.015625)"/>
      <path id="DejaVuSans-70" d="M 1159 525 
L 1159 -1331 
L 581 -1331 
L 581 3500 
L 1159 3500 
L 1159 2969 
Q 1341 3281 1617 3432 
Q 1894 3584 2278 3584 
Q 2916 3584 3314 3078 
Q 3713 2572 3713 1747 
Q 3713 922 3314 415 
Q 2916 -91 2278 -91 
Q 1894 -91 1617 61 
Q 1341 213 1159 525 
z
M 3116 1747 
Q 3116 2381 2855 2742 
Q 2594 3103 2138 3103 
Q 1681 3103 1420 2742 
Q 1159 2381 1159 1747 
Q 1159 1113 1420 752 
Q 1681 391 2138 391 
Q 2594 391 2855 752 
Q 3116 1113 3116 1747 
z
" transform="scale(0.015625)"/>
     </defs>
     <use xlink:href="#DejaVuSans-74"/>
     <use xlink:href="#DejaVuSans-68" transform="translate(39.208984 0)"/>
     <use xlink:href="#DejaVuSans-65" transform="translate(102.587891 0)"/>
     <use xlink:href="#DejaVuSans-20" transform="translate(164.111328 0)"/>
     <use xlink:href="#DejaVuSans-6e" transform="translate(195.898438 0)"/>
     <use xlink:href="#DejaVuSans-6f" transform="translate(259.277344 0)"/>
     <use xlink:href="#DejaVuSans-74" transform="translate(320.458984 0)"/>
     <use xlink:href="#DejaVuSans-65" transform="translate(359.667969 0)"/>
     <use xlink:href="#DejaVuSans-20" transform="translate(421.191406 0)"/>
     <use xlink:href="#DejaVuSans-77" transform="translate(452.978516 0)"/>
     <use xlink:href="#DejaVuSans-72" transform="translate(534.765625 0)"/>
     <use xlink:href="#DejaVuSans-61" transform="translate(575.878906 0)"/>
     <use xlink:href="#DejaVuSans-70" transform="translate(637.158203 0)"/>
     <use xlink:href="#DejaVuSans-70" transform="translate(700.634766 0)"/>
     <use xlink:href="#DejaVuSans-65" transform="translate(764.111328 0)"/>
     <use xlink:href="#DejaVuSans-72" transform="translate(825.634766 0)"/>
    </g>
   </g>
   <g id="text_5">
    <!-- BANK BALANCE -->
    <g style="fill: #1f3a5f" transform="translate(538.454844 51.539502) scale(0.1 -0.1)">
     <defs>
      <path id="DejaVuSans-Bold-42" d="M 2456 2859 
Q 2741 2859 2887 2984 
Q 3034 3109 3034 3353 
Q 3034 3594 2887 3720 
Q 2741 3847 2456 3847 
L 1791 3847 
L 1791 2859 
L 2456 2859 
z
M 2497 819 
Q 2859 819 3042 972 
Q 3225 1125 3225 1434 
Q 3225 1738 3044 1889 
Q 2863 2041 2497 2041 
L 1791 2041 
L 1791 819 
L 2497 819 
z
M 3616 2497 
Q 4003 2384 4215 2081 
Q 4428 1778 4428 1338 
Q 4428 663 3972 331 
Q 3516 0 2584 0 
L 588 0 
L 588 4666 
L 2394 4666 
Q 3366 4666 3802 4372 
Q 4238 4078 4238 3431 
Q 4238 3091 4078 2852 
Q 3919 2613 3616 2497 
z
" transform="scale(0.015625)"/>
      <path id="DejaVuSans-Bold-41" d="M 3419 850 
L 1538 850 
L 1241 0 
L 31 0 
L 1759 4666 
L 3194 4666 
L 4922 0 
L 3713 0 
L 3419 850 
z
M 1838 1716 
L 3116 1716 
L 2478 3572 
L 1838 1716 
z
" transform="scale(0.015625)"/>
      <path id="DejaVuSans-Bold-4b" d="M 588 4666 
L 1791 4666 
L 1791 2963 
L 3525 4666 
L 4922 4666 
L 2675 2456 
L 5153 0 
L 3647 0 
L 1791 1838 
L 1791 0 
L 588 0 
L 588 4666 
z
" transform="scale(0.015625)"/>
      <path id="DejaVuSans-Bold-20" transform="scale(0.015625)"/>
      <path id="DejaVuSans-Bold-4c" d="M 588 4666 
L 1791 4666 
L 1791 909 
L 3903 909 
L 3903 0 
L 588 0 
L 588 4666 
z
" transform="scale(0.015625)"/>
      <path id="DejaVuSans-Bold-43" d="M 4288 256 
Q 3956 84 3597 -3 
Q 3238 -91 2847 -91 
Q 1681 -91 1000 561 
Q 319 1213 319 2328 
Q 319 3447 1000 4098 
Q 1681 4750 2847 4750 
Q 3238 4750 3597 4662 
Q 3956 4575 4288 4403 
L 4288 3438 
Q 3953 3666 3628 3772 
Q 3303 3878 2944 3878 
Q 2300 3878 1931 3465 
Q 1563 3053 1563 2328 
Q 1563 1606 1931 1193 
Q 2300 781 2944 781 
Q 3303 781 3628 887 
Q 3953 994 4288 1222 
L 4288 256 
z
" transform="scale(0.015625)"/>
     </defs>
     <use xlink:href="#DejaVuSans-Bold-42"/>
     <use xlink:href="#DejaVuSans-Bold-41" transform="translate(76.220703 0)"/>
     <use xlink:href="#DejaVuSans-Bold-4e" transform="translate(153.613281 0)"/>
     <use xlink:href="#DejaVuSans-Bold-4b" transform="translate(237.304688 0)"/>
     <use xlink:href="#DejaVuSans-Bold-20" transform="translate(314.794922 0)"/>
     <use xlink:href="#DejaVuSans-Bold-42" transform="translate(349.609375 0)"/>
     <use xlink:href="#DejaVuSans-Bold-41" transform="translate(425.830078 0)"/>
     <use xlink:href="#DejaVuSans-Bold-4c" transform="translate(503.222656 0)"/>
     <use xlink:href="#DejaVuSans-Bold-41" transform="translate(566.943359 0)"/>
     <use xlink:href="#DejaVuSans-Bold-4e" transform="translate(644.335938 0)"/>
     <use xlink:href="#DejaVuSans-Bold-43" transform="translate(728.027344 0)"/>
     <use xlink:href="#DejaVuSans-Bold-45" transform="translate(801.416016 0)"/>
    </g>
   </g>
   <g id="text_6">
    <!-- SHEET -->
    <g style="fill: #41607f" transform="translate(569.220516 77.540587) scale(0.078 -0.078)">
     <defs>
      <path id="DejaVuSans-53" d="M 3425 4513 
L 3425 3897 
Q 3066 4069 2747 4153 
Q 2428 4238 2131 4238 
Q 1616 4238 1336 4038 
Q 1056 3838 1056 3469 
Q 1056 3159 1242 3001 
Q 1428 2844 1947 2747 
L 2328 2669 
Q 3034 2534 3370 2195 
Q 3706 1856 3706 1288 
Q 3706 609 3251 259 
Q 2797 -91 1919 -91 
Q 1588 -91 1214 -16 
Q 841 59 441 206 
L 441 856 
Q 825 641 1194 531 
Q 1563 422 1919 422 
Q 2459 422 2753 634 
Q 3047 847 3047 1241 
Q 3047 1584 2836 1778 
Q 2625 1972 2144 2069 
L 1759 2144 
Q 1053 2284 737 2584 
Q 422 2884 422 3419 
Q 422 4038 858 4394 
Q 1294 4750 2059 4750 
Q 2388 4750 2728 4690 
Q 3069 4631 3425 4513 
z
" transform="scale(0.015625)"/>
      <path id="DejaVuSans-48" d="M 628 4666 
L 1259 4666 
L 1259 2753 
L 3553 2753 
L 3553 4666 
L 4184 4666 
L 4184 0 
L 3553 0 
L 3553 2222 
L 1259 2222 
L 1259 0 
L 628 0 
L 628 4666 
z
" transform="scale(0.015625)"/>
      <path id="DejaVuSans-45" d="M 628 4666 
L 3578 4666 
L 3578 4134 
L 1259 4134 
L 1259 2753 
L 3481 2753 
L 3481 2222 
L 1259 2222 
L 1259 531 
L 3634 531 
L 3634 0 
L 628 0 
L 628 4666 
z
" transform="scale(0.015625)"/>
      <path id="DejaVuSans-54" d="M -19 4666 
L 3928 4666 
L 3928 4134 
L 2272 4134 
L 2272 0 
L 1638 0 
L 1638 4134 
L -19 4134 
L -19 4666 
z
" transform="scale(0.015625)"/>
     </defs>
     <use xlink:href="#DejaVuSans-53"/>
     <use xlink:href="#DejaVuSans-48" transform="translate(63.476562 0)"/>
     <use xlink:href="#DejaVuSans-45" transform="translate(138.671875 0)"/>
     <use xlink:href="#DejaVuSans-45" transform="translate(201.855469 0)"/>
     <use xlink:href="#DejaVuSans-54" transform="translate(265.039062 0)"/>
    </g>
   </g>
   <g id="text_7">
    <!-- TREASURY -->
    <g style="fill: #d9a441" transform="translate(312.597656 186.745147) scale(0.1 -0.1)">
     <defs>
      <path id="DejaVuSans-Bold-59" d="M -63 4666 
L 1253 4666 
L 2316 3003 
L 3378 4666 
L 4697 4666 
L 2919 1966 
L 2919 0 
L 1716 0 
L 1716 1966 
L -63 4666 
z
" transform="scale(0.015625)"/>
     </defs>
     <use xlink:href="#DejaVuSans-Bold-54"/>
     <use xlink:href="#DejaVuSans-Bold-52" transform="translate(68.212891 0)"/>
     <use xlink:href="#DejaVuSans-Bold-45" transform="translate(145.214844 0)"/>
     <use xlink:href="#DejaVuSans-Bold-41" transform="translate(213.525391 0)"/>
     <use xlink:href="#DejaVuSans-Bold-53" transform="translate(290.917969 0)"/>
     <use xlink:href="#DejaVuSans-Bold-55" transform="translate(362.939453 0)"/>
     <use xlink:href="#DejaVuSans-Bold-52" transform="translate(444.140625 0)"/>
     <use xlink:href="#DejaVuSans-Bold-59" transform="translate(515.642578 0)"/>
    </g>
   </g>
   <g id="text_8">
    <!-- internal funding -->
    <g style="fill: #41607f" transform="translate(310.973672 212.746233) scale(0.078 -0.078)">
     <defs>
      <path id="DejaVuSans-69" d="M 603 3500 
L 1178 3500 
L 1178 0 
L 603 0 
L 603 3500 
z
M 603 4863 
L 1178 4863 
L 1178 4134 
L 603 4134 
L 603 4863 
z
" transform="scale(0.015625)"/>
      <path id="DejaVuSans-6c" d="M 603 4863 
L 1178 4863 
L 1178 0 
L 603 0 
L 603 4863 
z
" transform="scale(0.015625)"/>
      <path id="DejaVuSans-66" d="M 2375 4863 
L 2375 4384 
L 1825 4384 
Q 1516 4384 1395 4259 
Q 1275 4134 1275 3809 
L 1275 3500 
L 2222 3500 
L 2222 3053 
L 1275 3053 
L 1275 0 
L 697 0 
L 697 3053 
L 147 3053 
L 147 3500 
L 697 3500 
L 697 3744 
Q 697 4328 969 4595 
Q 1241 4863 1831 4863 
L 2375 4863 
z
" transform="scale(0.015625)"/>
      <path id="DejaVuSans-64" d="M 2906 2969 
L 2906 4863 
L 3481 4863 
L 3481 0 
L 2906 0 
L 2906 525 
Q 2725 213 2448 61 
Q 2172 -91 1784 -91 
Q 1150 -91 751 415 
Q 353 922 353 1747 
Q 353 2572 751 3078 
Q 1150 3584 1784 3584 
Q 2172 3584 2448 3432 
Q 2725 3281 2906 2969 
z
M 947 1747 
Q 947 1113 1208 752 
Q 1469 391 1925 391 
Q 2381 391 2643 752 
Q 2906 1113 2906 1747 
Q 2906 2381 2643 2742 
Q 2381 3103 1925 3103 
Q 1469 3103 1208 2742 
Q 947 2381 947 1747 
z
" transform="scale(0.015625)"/>
      <path id="DejaVuSans-67" d="M 2906 1791 
Q 2906 2416 2648 2759 
Q 2391 3103 1925 3103 
Q 1463 3103 1205 2759 
Q 947 2416 947 1791 
Q 947 1169 1205 825 
Q 1463 481 1925 481 
Q 2391 481 2648 825 
Q 2906 1169 2906 1791 
z
M 3481 434 
Q 3481 -459 3084 -895 
Q 2688 -1331 1869 -1331 
Q 1566 -1331 1297 -1286 
Q 1028 -1241 775 -1147 
L 775 -588 
Q 1028 -725 1275 -790 
Q 1522 -856 1778 -856 
Q 2344 -856 2625 -561 
Q 2906 -266 2906 331 
L 2906 616 
Q 2728 306 2450 153 
Q 2172 0 1784 0 
Q 1141 0 747 490 
Q 353 981 353 1791 
Q 353 2603 747 3093 
Q 1141 3584 1784 3584 
Q 2172 3584 2450 3431 
Q 2728 3278 2906 2969 
L 2906 3500 
L 3481 3500 
L 3481 434 
z
" transform="scale(0.015625)"/>
     </defs>
     <use xlink:href="#DejaVuSans-69"/>
     <use xlink:href="#DejaVuSans-6e" transform="translate(27.783203 0)"/>
     <use xlink:href="#DejaVuSans-74" transform="translate(91.162109 0)"/>
     <use xlink:href="#DejaVuSans-65" transform="translate(130.371094 0)"/>
     <use xlink:href="#DejaVuSans-72" transform="translate(191.894531 0)"/>
     <use xlink:href="#DejaVuSans-6e" transform="translate(231.257812 0)"/>
     <use xlink:href="#DejaVuSans-61" transform="translate(294.636719 0)"/>
     <use xlink:href="#DejaVuSans-6c" transform="translate(355.916016 0)"/>
     <use xlink:href="#DejaVuSans-20" transform="translate(383.699219 0)"/>
     <use xlink:href="#DejaVuSans-66" transform="translate(415.486328 0)"/>
     <use xlink:href="#DejaVuSans-75" transform="translate(450.691406 0)"/>
     <use xlink:href="#DejaVuSans-6e" transform="translate(514.070312 0)"/>
     <use xlink:href="#DejaVuSans-64" transform="translate(577.449219 0)"/>
     <use xlink:href="#DejaVuSans-69" transform="translate(640.925781 0)"/>
     <use xlink:href="#DejaVuSans-6e" transform="translate(668.708984 0)"/>
     <use xlink:href="#DejaVuSans-67" transform="translate(732.087891 0)"/>
    </g>
   </g>
   <g id="text_9">
    <!-- MARKET -->
    <g style="fill: #2e7d5b" transform="translate(318.603906 306.350142) scale(0.1 -0.1)">
     <defs>
      <path id="DejaVuSans-Bold-4d" d="M 588 4666 
L 2119 4666 
L 3181 2169 
L 4250 4666 
L 5778 4666 
L 5778 0 
L 4641 0 
L 4641 3413 
L 3566 897 
L 2803 897 
L 1728 3413 
L 1728 0 
L 588 0 
L 588 4666 
z
" transform="scale(0.015625)"/>
     </defs>
     <use xlink:href="#DejaVuSans-Bold-4d"/>
     <use xlink:href="#DejaVuSans-Bold-41" transform="translate(99.511719 0)"/>
     <use xlink:href="#DejaVuSans-Bold-52" transform="translate(176.904297 0)"/>
     <use xlink:href="#DejaVuSans-Bold-4b" transform="translate(253.90625 0)"/>
     <use xlink:href="#DejaVuSans-Bold-45" transform="translate(331.396484 0)"/>
     <use xlink:href="#DejaVuSans-Bold-54" transform="translate(399.707031 0)"/>
    </g>
   </g>
   <g id="text_10">
    <!-- hedge counterparties -->
    <g style="fill: #41607f" transform="translate(300.018937 332.351227) scale(0.078 -0.078)">
     <defs>
      <path id="DejaVuSans-63" d="M 3122 3366 
L 3122 2828 
Q 2878 2963 2633 3030 
Q 2388 3097 2138 3097 
Q 1578 3097 1268 2742 
Q 959 2388 959 1747 
Q 959 1106 1268 751 
Q 1578 397 2138 397 
Q 2388 397 2633 464 
Q 2878 531 3122 666 
L 3122 134 
Q 2881 22 2623 -34 
Q 2366 -91 2075 -91 
Q 1284 -91 818 406 
Q 353 903 353 1747 
Q 353 2603 823 3093 
Q 1294 3584 2113 3584 
Q 2378 3584 2631 3529 
Q 2884 3475 3122 3366 
z
" transform="scale(0.015625)"/>
     </defs>
     <use xlink:href="#DejaVuSans-68"/>
     <use xlink:href="#DejaVuSans-65" transform="translate(63.378906 0)"/>
     <use xlink:href="#DejaVuSans-64" transform="translate(124.902344 0)"/>
     <use xlink:href="#DejaVuSans-67" transform="translate(188.378906 0)"/>
     <use xlink:href="#DejaVuSans-65" transform="translate(251.855469 0)"/>
     <use xlink:href="#DejaVuSans-20" transform="translate(313.378906 0)"/>
     <use xlink:href="#DejaVuSans-63" transform="translate(345.166016 0)"/>
     <use xlink:href="#DejaVuSans-6f" transform="translate(400.146484 0)"/>
     <use xlink:href="#DejaVuSans-75" transform="translate(461.328125 0)"/>
     <use xlink:href="#DejaVuSans-6e" transform="translate(524.707031 0)"/>
     <use xlink:href="#DejaVuSans-74" transform="translate(588.085938 0)"/>
     <use xlink:href="#DejaVuSans-65" transform="translate(627.294922 0)"/>
     <use xlink:href="#DejaVuSans-72" transform="translate(688.818359 0)"/>
     <use xlink:href="#DejaVuSans-70" transform="translate(729.931641 0)"/>
     <use xlink:href="#DejaVuSans-61" transform="translate(793.408203 0)"/>
     <use xlink:href="#DejaVuSans-72" transform="translate(854.6875 0)"/>
     <use xlink:href="#DejaVuSans-74" transform="translate(895.800781 0)"/>
     <use xlink:href="#DejaVuSans-69" transform="translate(935.009766 0)"/>
     <use xlink:href="#DejaVuSans-65" transform="translate(962.792969 0)"/>
     <use xlink:href="#DejaVuSans-73" transform="translate(1024.316406 0)"/>
    </g>
   </g>
   <g id="text_11">
    <!-- Principal -->
    <g style="fill: #2e7d5b" transform="translate(199.935609 51.539502) scale(0.078 -0.078)">
     <defs>
      <path id="DejaVuSans-Bold-50" d="M 588 4666 
L 2584 4666 
Q 3475 4666 3951 4270 
Q 4428 3875 4428 3144 
Q 4428 2409 3951 2014 
Q 3475 1619 2584 1619 
L 1791 1619 
L 1791 0 
L 588 0 
L 588 4666 
z
M 1791 3794 
L 1791 2491 
L 2456 2491 
Q 2806 2491 2997 2661 
Q 3188 2831 3188 3144 
Q 3188 3456 2997 3625 
Q 2806 3794 2456 3794 
L 1791 3794 
z
" transform="scale(0.015625)"/>
      <path id="DejaVuSans-Bold-72" d="M 3138 2547 
Q 2991 2616 2845 2648 
Q 2700 2681 2553 2681 
Q 2122 2681 1889 2404 
Q 1656 2128 1656 1613 
L 1656 0 
L 538 0 
L 538 3500 
L 1656 3500 
L 1656 2925 
Q 1872 3269 2151 3426 
Q 2431 3584 2822 3584 
Q 2878 3584 2943 3579 
Q 3009 3575 3134 3559 
L 3138 2547 
z
" transform="scale(0.015625)"/>
      <path id="DejaVuSans-Bold-69" d="M 538 3500 
L 1656 3500 
L 1656 0 
L 538 0 
L 538 3500 
z
M 538 4863 
L 1656 4863 
L 1656 3950 
L 538 3950 
L 538 4863 
z
" transform="scale(0.015625)"/>
      <path id="DejaVuSans-Bold-6e" d="M 4056 2131 
L 4056 0 
L 2931 0 
L 2931 347 
L 2931 1631 
Q 2931 2084 2911 2256 
Q 2891 2428 2841 2509 
Q 2775 2619 2662 2680 
Q 2550 2741 2406 2741 
Q 2056 2741 1856 2470 
Q 1656 2200 1656 1722 
L 1656 0 
L 538 0 
L 538 3500 
L 1656 3500 
L 1656 2988 
Q 1909 3294 2193 3439 
Q 2478 3584 2822 3584 
Q 3428 3584 3742 3212 
Q 4056 2841 4056 2131 
z
" transform="scale(0.015625)"/>
      <path id="DejaVuSans-Bold-63" d="M 3366 3391 
L 3366 2478 
Q 3138 2634 2908 2709 
Q 2678 2784 2431 2784 
Q 1963 2784 1702 2511 
Q 1441 2238 1441 1747 
Q 1441 1256 1702 982 
Q 1963 709 2431 709 
Q 2694 709 2930 787 
Q 3166 866 3366 1019 
L 3366 103 
Q 3103 6 2833 -42 
Q 2563 -91 2291 -91 
Q 1344 -91 809 395 
Q 275 881 275 1747 
Q 275 2613 809 3098 
Q 1344 3584 2291 3584 
Q 2566 3584 2833 3536 
Q 3100 3488 3366 3391 
z
" transform="scale(0.015625)"/>
      <path id="DejaVuSans-Bold-70" d="M 1656 506 
L 1656 -1331 
L 538 -1331 
L 538 3500 
L 1656 3500 
L 1656 2988 
Q 1888 3294 2169 3439 
Q 2450 3584 2816 3584 
Q 3463 3584 3878 3070 
Q 4294 2556 4294 1747 
Q 4294 938 3878 423 
Q 3463 -91 2816 -91 
Q 2450 -91 2169 54 
Q 1888 200 1656 506 
z
M 2400 2772 
Q 2041 2772 1848 2508 
Q 1656 2244 1656 1747 
Q 1656 1250 1848 986 
Q 2041 722 2400 722 
Q 2759 722 2948 984 
Q 3138 1247 3138 1747 
Q 3138 2247 2948 2509 
Q 2759 2772 2400 2772 
z
" transform="scale(0.015625)"/>
      <path id="DejaVuSans-Bold-61" d="M 2106 1575 
Q 1756 1575 1579 1456 
Q 1403 1338 1403 1106 
Q 1403 894 1545 773 
Q 1688 653 1941 653 
Q 2256 653 2472 879 
Q 2688 1106 2688 1447 
L 2688 1575 
L 2106 1575 
z
M 3816 1997 
L 3816 0 
L 2688 0 
L 2688 519 
Q 2463 200 2181 54 
Q 1900 -91 1497 -91 
Q 953 -91 614 226 
Q 275 544 275 1050 
Q 275 1666 698 1953 
Q 1122 2241 2028 2241 
L 2688 2241 
L 2688 2328 
Q 2688 2594 2478 2717 
Q 2269 2841 1825 2841 
Q 1466 2841 1156 2769 
Q 847 2697 581 2553 
L 581 3406 
Q 941 3494 1303 3539 
Q 1666 3584 2028 3584 
Q 2975 3584 3395 3211 
Q 3816 2838 3816 1997 
z
" transform="scale(0.015625)"/>
      <path id="DejaVuSans-Bold-6c" d="M 538 4863 
L 1656 4863 
L 1656 0 
L 538 0 
L 538 4863 
z
" transform="scale(0.015625)"/>
     </defs>
     <use xlink:href="#DejaVuSans-Bold-50"/>
     <use xlink:href="#DejaVuSans-Bold-72" transform="translate(73.291016 0)"/>
     <use xlink:href="#DejaVuSans-Bold-69" transform="translate(122.607422 0)"/>
     <use xlink:href="#DejaVuSans-Bold-6e" transform="translate(156.884766 0)"/>
     <use xlink:href="#DejaVuSans-Bold-63" transform="translate(228.076172 0)"/>
     <use xlink:href="#DejaVuSans-Bold-69" transform="translate(287.353516 0)"/>
     <use xlink:href="#DejaVuSans-Bold-70" transform="translate(321.630859 0)"/>
     <use xlink:href="#DejaVuSans-Bold-61" transform="translate(393.212891 0)"/>
     <use xlink:href="#DejaVuSans-Bold-6c" transform="translate(460.693359 0)"/>
    </g>
   </g>
   <g id="text_12">
    <!-- Funding -->
    <g style="fill: #2e7d5b" transform="translate(441.461812 51.539502) scale(0.078 -0.078)">
     <defs>
      <path id="DejaVuSans-Bold-46" d="M 588 4666 
L 3834 4666 
L 3834 3756 
L 1791 3756 
L 1791 2888 
L 3713 2888 
L 3713 1978 
L 1791 1978 
L 1791 0 
L 588 0 
L 588 4666 
z
" transform="scale(0.015625)"/>
      <path id="DejaVuSans-Bold-75" d="M 500 1363 
L 500 3500 
L 1625 3500 
L 1625 3150 
Q 1625 2866 1622 2436 
Q 1619 2006 1619 1863 
Q 1619 1441 1641 1255 
Q 1663 1069 1716 984 
Q 1784 875 1895 815 
Q 2006 756 2150 756 
Q 2500 756 2700 1025 
Q 2900 1294 2900 1772 
L 2900 3500 
L 4019 3500 
L 4019 0 
L 2900 0 
L 2900 506 
Q 2647 200 2364 54 
Q 2081 -91 1741 -91 
Q 1134 -91 817 281 
Q 500 653 500 1363 
z
" transform="scale(0.015625)"/>
      <path id="DejaVuSans-Bold-64" d="M 2919 2988 
L 2919 4863 
L 4044 4863 
L 4044 0 
L 2919 0 
L 2919 506 
Q 2688 197 2409 53 
Q 2131 -91 1766 -91 
Q 1119 -91 703 423 
Q 288 938 288 1747 
Q 288 2556 703 3070 
Q 1119 3584 1766 3584 
Q 2128 3584 2408 3439 
Q 2688 3294 2919 2988 
z
M 2181 722 
Q 2541 722 2730 984 
Q 2919 1247 2919 1747 
Q 2919 2247 2730 2509 
Q 2541 2772 2181 2772 
Q 1825 2772 1636 2509 
Q 1447 2247 1447 1747 
Q 1447 1247 1636 984 
Q 1825 722 2181 722 
z
" transform="scale(0.015625)"/>
      <path id="DejaVuSans-Bold-67" d="M 2919 594 
Q 2688 288 2409 144 
Q 2131 0 1766 0 
Q 1125 0 706 504 
Q 288 1009 288 1791 
Q 288 2575 706 3076 
Q 1125 3578 1766 3578 
Q 2131 3578 2409 3434 
Q 2688 3291 2919 2981 
L 2919 3500 
L 4044 3500 
L 4044 353 
Q 4044 -491 3511 -936 
Q 2978 -1381 1966 -1381 
Q 1638 -1381 1331 -1331 
Q 1025 -1281 716 -1178 
L 716 -306 
Q 1009 -475 1290 -558 
Q 1572 -641 1856 -641 
Q 2406 -641 2662 -400 
Q 2919 -159 2919 353 
L 2919 594 
z
M 2181 2772 
Q 1834 2772 1640 2515 
Q 1447 2259 1447 1791 
Q 1447 1309 1634 1061 
Q 1822 813 2181 813 
Q 2531 813 2725 1069 
Q 2919 1325 2919 1791 
Q 2919 2259 2725 2515 
Q 2531 2772 2181 2772 
z
" transform="scale(0.015625)"/>
     </defs>
     <use xlink:href="#DejaVuSans-Bold-46"/>
     <use xlink:href="#DejaVuSans-Bold-75" transform="translate(63.310547 0)"/>
     <use xlink:href="#DejaVuSans-Bold-6e" transform="translate(134.501953 0)"/>
     <use xlink:href="#DejaVuSans-Bold-64" transform="translate(205.693359 0)"/>
     <use xlink:href="#DejaVuSans-Bold-69" transform="translate(277.275391 0)"/>
     <use xlink:href="#DejaVuSans-Bold-6e" transform="translate(311.552734 0)"/>
     <use xlink:href="#DejaVuSans-Bold-67" transform="translate(382.744141 0)"/>
    </g>
   </g>
   <g id="text_13">
    <!-- Coupons / Redemption -->
    <g style="fill: #c8553d" transform="translate(169.616156 97.301413) scale(0.078 -0.078)">
     <defs>
      <path id="DejaVuSans-Bold-6f" d="M 2203 2784 
Q 1831 2784 1636 2517 
Q 1441 2250 1441 1747 
Q 1441 1244 1636 976 
Q 1831 709 2203 709 
Q 2569 709 2762 976 
Q 2956 1244 2956 1747 
Q 2956 2250 2762 2517 
Q 2569 2784 2203 2784 
z
M 2203 3584 
Q 3106 3584 3614 3096 
Q 4122 2609 4122 1747 
Q 4122 884 3614 396 
Q 3106 -91 2203 -91 
Q 1297 -91 786 396 
Q 275 884 275 1747 
Q 275 2609 786 3096 
Q 1297 3584 2203 3584 
z
" transform="scale(0.015625)"/>
      <path id="DejaVuSans-Bold-73" d="M 3272 3391 
L 3272 2541 
Q 2913 2691 2578 2766 
Q 2244 2841 1947 2841 
Q 1628 2841 1473 2761 
Q 1319 2681 1319 2516 
Q 1319 2381 1436 2309 
Q 1553 2238 1856 2203 
L 2053 2175 
Q 2913 2066 3209 1816 
Q 3506 1566 3506 1031 
Q 3506 472 3093 190 
Q 2681 -91 1863 -91 
Q 1516 -91 1145 -36 
Q 775 19 384 128 
L 384 978 
Q 719 816 1070 734 
Q 1422 653 1784 653 
Q 2113 653 2278 743 
Q 2444 834 2444 1013 
Q 2444 1163 2330 1236 
Q 2216 1309 1875 1350 
L 1678 1375 
Q 931 1469 631 1722 
Q 331 1975 331 2491 
Q 331 3047 712 3315 
Q 1094 3584 1881 3584 
Q 2191 3584 2531 3537 
Q 2872 3491 3272 3391 
z
" transform="scale(0.015625)"/>
      <path id="DejaVuSans-Bold-2f" d="M 1644 4666 
L 2338 4666 
L 691 -594 
L 0 -594 
L 1644 4666 
z
" transform="scale(0.015625)"/>
      <path id="DejaVuSans-Bold-65" d="M 4031 1759 
L 4031 1441 
L 1416 1441 
Q 1456 1047 1700 850 
Q 1944 653 2381 653 
Q 2734 653 3104 758 
Q 3475 863 3866 1075 
L 3866 213 
Q 3469 63 3072 -14 
Q 2675 -91 2278 -91 
Q 1328 -91 801 392 
Q 275 875 275 1747 
Q 275 2603 792 3093 
Q 1309 3584 2216 3584 
Q 3041 3584 3536 3087 
Q 4031 2591 4031 1759 
z
M 2881 2131 
Q 2881 2450 2695 2645 
Q 2509 2841 2209 2841 
Q 1884 2841 1681 2658 
Q 1478 2475 1428 2131 
L 2881 2131 
z
" transform="scale(0.015625)"/>
      <path id="DejaVuSans-Bold-6d" d="M 3781 2919 
Q 3994 3244 4286 3414 
Q 4578 3584 4928 3584 
Q 5531 3584 5847 3212 
Q 6163 2841 6163 2131 
L 6163 0 
L 5038 0 
L 5038 1825 
Q 5041 1866 5042 1909 
Q 5044 1953 5044 2034 
Q 5044 2406 4934 2573 
Q 4825 2741 4581 2741 
Q 4263 2741 4089 2478 
Q 3916 2216 3909 1719 
L 3909 0 
L 2784 0 
L 2784 1825 
Q 2784 2406 2684 2573 
Q 2584 2741 2328 2741 
Q 2006 2741 1831 2477 
Q 1656 2213 1656 1722 
L 1656 0 
L 531 0 
L 531 3500 
L 1656 3500 
L 1656 2988 
Q 1863 3284 2130 3434 
Q 2397 3584 2719 3584 
Q 3081 3584 3359 3409 
Q 3638 3234 3781 2919 
z
" transform="scale(0.015625)"/>
      <path id="DejaVuSans-Bold-74" d="M 1759 4494 
L 1759 3500 
L 2913 3500 
L 2913 2700 
L 1759 2700 
L 1759 1216 
Q 1759 972 1856 886 
Q 1953 800 2241 800 
L 2816 800 
L 2816 0 
L 1856 0 
Q 1194 0 917 276 
Q 641 553 641 1216 
L 641 2700 
L 84 2700 
L 84 3500 
L 641 3500 
L 641 4494 
L 1759 4494 
z
" transform="scale(0.015625)"/>
     </defs>
     <use xlink:href="#DejaVuSans-Bold-43"/>
     <use xlink:href="#DejaVuSans-Bold-6f" transform="translate(73.388672 0)"/>
     <use xlink:href="#DejaVuSans-Bold-75" transform="translate(142.089844 0)"/>
     <use xlink:href="#DejaVuSans-Bold-70" transform="translate(213.28125 0)"/>
     <use xlink:href="#DejaVuSans-Bold-6f" transform="translate(284.863281 0)"/>
     <use xlink:href="#DejaVuSans-Bold-6e" transform="translate(353.564453 0)"/>
     <use xlink:href="#DejaVuSans-Bold-73" transform="translate(424.755859 0)"/>
     <use xlink:href="#DejaVuSans-Bold-20" transform="translate(484.277344 0)"/>
     <use xlink:href="#DejaVuSans-Bold-2f" transform="translate(519.091797 0)"/>
     <use xlink:href="#DejaVuSans-Bold-20" transform="translate(555.615234 0)"/>
     <use xlink:href="#DejaVuSans-Bold-52" transform="translate(590.429688 0)"/>
     <use xlink:href="#DejaVuSans-Bold-65" transform="translate(667.431641 0)"/>
     <use xlink:href="#DejaVuSans-Bold-64" transform="translate(735.253906 0)"/>
     <use xlink:href="#DejaVuSans-Bold-65" transform="translate(806.835938 0)"/>
     <use xlink:href="#DejaVuSans-Bold-6d" transform="translate(874.658203 0)"/>
     <use xlink:href="#DejaVuSans-Bold-70" transform="translate(978.857422 0)"/>
     <use xlink:href="#DejaVuSans-Bold-74" transform="translate(1050.439453 0)"/>
     <use xlink:href="#DejaVuSans-Bold-69" transform="translate(1098.242188 0)"/>
     <use xlink:href="#DejaVuSans-Bold-6f" transform="translate(1132.519531 0)"/>
     <use xlink:href="#DejaVuSans-Bold-6e" transform="translate(1201.220703 0)"/>
    </g>
   </g>
   <g id="text_14">
    <!-- FTP cost -->
    <g style="fill: #d9a441" transform="translate(468.362437 133.702933) scale(0.078 -0.078)">
     <use xlink:href="#DejaVuSans-Bold-46"/>
     <use xlink:href="#DejaVuSans-Bold-54" transform="translate(68.310547 0)"/>
     <use xlink:href="#DejaVuSans-Bold-50" transform="translate(136.523438 0)"/>
     <use xlink:href="#DejaVuSans-Bold-20" transform="translate(209.814453 0)"/>
     <use xlink:href="#DejaVuSans-Bold-63" transform="translate(244.628906 0)"/>
     <use xlink:href="#DejaVuSans-Bold-6f" transform="translate(303.90625 0)"/>
     <use xlink:href="#DejaVuSans-Bold-73" transform="translate(372.607422 0)"/>
     <use xlink:href="#DejaVuSans-Bold-74" transform="translate(432.128906 0)"/>
    </g>
   </g>
   <g id="text_15">
    <!-- Hedge costs -->
    <g style="fill: #2e7d5b" transform="translate(460.087125 193.50543) scale(0.078 -0.078)">
     <defs>
      <path id="DejaVuSans-Bold-48" d="M 588 4666 
L 1791 4666 
L 1791 2888 
L 3566 2888 
L 3566 4666 
L 4769 4666 
L 4769 0 
L 3566 0 
L 3566 1978 
L 1791 1978 
L 1791 0 
L 588 0 
L 588 4666 
z
" transform="scale(0.015625)"/>
     </defs>
     <use xlink:href="#DejaVuSans-Bold-48"/>
     <use xlink:href="#DejaVuSans-Bold-65" transform="translate(83.691406 0)"/>
     <use xlink:href="#DejaVuSans-Bold-64" transform="translate(151.513672 0)"/>
     <use xlink:href="#DejaVuSans-Bold-67" transform="translate(223.095703 0)"/>
     <use xlink:href="#DejaVuSans-Bold-65" transform="translate(294.677734 0)"/>
     <use xlink:href="#DejaVuSans-Bold-20" transform="translate(362.5 0)"/>
     <use xlink:href="#DejaVuSans-Bold-63" transform="translate(397.314453 0)"/>
     <use xlink:href="#DejaVuSans-Bold-6f" transform="translate(456.591797 0)"/>
     <use xlink:href="#DejaVuSans-Bold-73" transform="translate(525.292969 0)"/>
     <use xlink:href="#DejaVuSans-Bold-74" transform="translate(584.814453 0)"/>
     <use xlink:href="#DejaVuSans-Bold-73" transform="translate(632.617188 0)"/>
    </g>
   </g>
   <g id="text_16">
    <!-- Hedge legs: delta, vega, options, swaps -->
    <g style="fill: #41607f" transform="translate(262.165 359.912378) scale(0.08 -0.08)">
     <defs>
      <path id="DejaVuSans-Oblique-48" d="M 1081 4666 
L 1716 4666 
L 1344 2753 
L 3634 2753 
L 4006 4666 
L 4641 4666 
L 3731 0 
L 3097 0 
L 3531 2222 
L 1241 2222 
L 806 0 
L 172 0 
L 1081 4666 
z
" transform="scale(0.015625)"/>
      <path id="DejaVuSans-Oblique-65" d="M 3078 2063 
Q 3088 2113 3092 2166 
Q 3097 2219 3097 2272 
Q 3097 2653 2873 2875 
Q 2650 3097 2266 3097 
Q 1838 3097 1509 2826 
Q 1181 2556 1013 2059 
L 3078 2063 
z
M 3578 1613 
L 903 1613 
Q 884 1494 878 1425 
Q 872 1356 872 1306 
Q 872 872 1139 634 
Q 1406 397 1894 397 
Q 2269 397 2603 481 
Q 2938 566 3225 728 
L 3116 159 
Q 2806 34 2476 -28 
Q 2147 -91 1806 -91 
Q 1078 -91 686 257 
Q 294 606 294 1247 
Q 294 1794 489 2264 
Q 684 2734 1063 3103 
Q 1306 3334 1642 3459 
Q 1978 3584 2356 3584 
Q 2950 3584 3301 3228 
Q 3653 2872 3653 2272 
Q 3653 2128 3634 1964 
Q 3616 1800 3578 1613 
z
" transform="scale(0.015625)"/>
      <path id="DejaVuSans-Oblique-64" d="M 2675 525 
Q 2444 222 2128 65 
Q 1813 -91 1428 -91 
Q 903 -91 598 267 
Q 294 625 294 1247 
Q 294 1766 478 2236 
Q 663 2706 1013 3078 
Q 1244 3325 1534 3454 
Q 1825 3584 2144 3584 
Q 2481 3584 2739 3421 
Q 2997 3259 3138 2956 
L 3513 4863 
L 4091 4863 
L 3144 0 
L 2566 0 
L 2675 525 
z
M 891 1350 
Q 891 897 1095 644 
Q 1300 391 1663 391 
Q 1931 391 2161 520 
Q 2391 650 2566 903 
Q 2750 1166 2856 1509 
Q 2963 1853 2963 2188 
Q 2963 2622 2758 2865 
Q 2553 3109 2194 3109 
Q 1922 3109 1687 2981 
Q 1453 2853 1288 2613 
Q 1106 2353 998 2009 
Q 891 1666 891 1350 
z
" transform="scale(0.015625)"/>
      <path id="DejaVuSans-Oblique-67" d="M 3816 3500 
L 3219 434 
Q 3047 -456 2561 -893 
Q 2075 -1331 1253 -1331 
Q 950 -1331 690 -1286 
Q 431 -1241 206 -1147 
L 313 -588 
Q 525 -725 762 -790 
Q 1000 -856 1269 -856 
Q 1816 -856 2167 -557 
Q 2519 -259 2631 300 
L 2681 563 
Q 2441 288 2122 144 
Q 1803 0 1434 0 
Q 903 0 598 351 
Q 294 703 294 1319 
Q 294 1803 478 2267 
Q 663 2731 997 3091 
Q 1219 3328 1514 3456 
Q 1809 3584 2131 3584 
Q 2484 3584 2746 3420 
Q 3009 3256 3138 2956 
L 3238 3500 
L 3816 3500 
z
M 2950 2216 
Q 2950 2641 2750 2872 
Q 2550 3103 2181 3103 
Q 1953 3103 1747 3012 
Q 1541 2922 1394 2759 
Q 1156 2491 1023 2127 
Q 891 1763 891 1375 
Q 891 944 1092 712 
Q 1294 481 1672 481 
Q 2219 481 2584 976 
Q 2950 1472 2950 2216 
z
" transform="scale(0.015625)"/>
      <path id="DejaVuSans-Oblique-20" transform="scale(0.015625)"/>
      <path id="DejaVuSans-Oblique-6c" d="M 1172 4863 
L 1747 4863 
L 800 0 
L 225 0 
L 1172 4863 
z
" transform="scale(0.015625)"/>
      <path id="DejaVuSans-Oblique-73" d="M 3200 3397 
L 3091 2853 
Q 2863 2978 2609 3040 
Q 2356 3103 2088 3103 
Q 1634 3103 1373 2948 
Q 1113 2794 1113 2528 
Q 1113 2219 1719 2053 
Q 1766 2041 1788 2034 
L 1972 1978 
Q 2547 1819 2739 1644 
Q 2931 1469 2931 1166 
Q 2931 609 2489 259 
Q 2047 -91 1331 -91 
Q 1053 -91 747 -37 
Q 441 16 72 128 
L 184 722 
Q 500 559 806 475 
Q 1113 391 1394 391 
Q 1816 391 2080 572 
Q 2344 753 2344 1031 
Q 2344 1331 1650 1516 
L 1591 1531 
L 1394 1581 
Q 956 1697 753 1886 
Q 550 2075 550 2369 
Q 550 2928 970 3256 
Q 1391 3584 2113 3584 
Q 2397 3584 2667 3537 
Q 2938 3491 3200 3397 
z
" transform="scale(0.015625)"/>
      <path id="DejaVuSans-Oblique-3a" d="M 978 3309 
L 1638 3309 
L 1484 2516 
L 825 2516 
L 978 3309 
z
M 488 794 
L 1147 794 
L 991 0 
L 331 0 
L 488 794 
z
" transform="scale(0.015625)"/>
      <path id="DejaVuSans-Oblique-74" d="M 2706 3500 
L 2619 3053 
L 1472 3053 
L 1100 1153 
Q 1081 1047 1072 975 
Q 1063 903 1063 863 
Q 1063 663 1183 572 
Q 1303 481 1569 481 
L 2150 481 
L 2053 0 
L 1503 0 
Q 991 0 739 200 
Q 488 400 488 806 
Q 488 878 497 964 
Q 506 1050 525 1153 
L 897 3053 
L 409 3053 
L 500 3500 
L 978 3500 
L 1172 4494 
L 1747 4494 
L 1556 3500 
L 2706 3500 
z
" transform="scale(0.015625)"/>
      <path id="DejaVuSans-Oblique-61" d="M 3438 1997 
L 3047 0 
L 2472 0 
L 2578 531 
Q 2325 219 2001 64 
Q 1678 -91 1281 -91 
Q 834 -91 548 182 
Q 263 456 263 884 
Q 263 1497 752 1853 
Q 1241 2209 2100 2209 
L 2900 2209 
L 2931 2363 
Q 2938 2388 2941 2417 
Q 2944 2447 2944 2509 
Q 2944 2788 2717 2942 
Q 2491 3097 2081 3097 
Q 1800 3097 1504 3025 
Q 1209 2953 897 2809 
L 997 3341 
Q 1322 3463 1633 3523 
Q 1944 3584 2234 3584 
Q 2853 3584 3176 3315 
Q 3500 3047 3500 2534 
Q 3500 2431 3484 2292 
Q 3469 2153 3438 1997 
z
M 2816 1759 
L 2241 1759 
Q 1534 1759 1195 1570 
Q 856 1381 856 984 
Q 856 709 1029 553 
Q 1203 397 1509 397 
Q 1978 397 2328 733 
Q 2678 1069 2791 1631 
L 2816 1759 
z
" transform="scale(0.015625)"/>
      <path id="DejaVuSans-Oblique-2c" d="M 575 794 
L 1234 794 
L 1131 256 
L 422 -744 
L 19 -744 
L 469 256 
L 575 794 
z
" transform="scale(0.015625)"/>
      <path id="DejaVuSans-Oblique-76" d="M 459 3500 
L 1069 3500 
L 1581 525 
L 3256 3500 
L 3866 3500 
L 1875 0 
L 1100 0 
L 459 3500 
z
" transform="scale(0.015625)"/>
      <path id="DejaVuSans-Oblique-6f" d="M 1625 -91 
Q 1009 -91 651 289 
Q 294 669 294 1325 
Q 294 1706 417 2101 
Q 541 2497 738 2766 
Q 1047 3184 1428 3384 
Q 1809 3584 2291 3584 
Q 2888 3584 3255 3212 
Q 3622 2841 3622 2241 
Q 3622 1825 3500 1412 
Q 3378 1000 3181 728 
Q 2875 309 2494 109 
Q 2113 -91 1625 -91 
z
M 891 1344 
Q 891 869 1089 633 
Q 1288 397 1691 397 
Q 2269 397 2648 901 
Q 3028 1406 3028 2181 
Q 3028 2634 2825 2865 
Q 2622 3097 2228 3097 
Q 1903 3097 1650 2945 
Q 1397 2794 1197 2484 
Q 1050 2253 970 1956 
Q 891 1659 891 1344 
z
" transform="scale(0.015625)"/>
      <path id="DejaVuSans-Oblique-70" d="M 3175 2156 
Q 3175 2616 2975 2859 
Q 2775 3103 2400 3103 
Q 2144 3103 1911 2972 
Q 1678 2841 1497 2591 
Q 1319 2344 1212 1994 
Q 1106 1644 1106 1300 
Q 1106 863 1306 627 
Q 1506 391 1875 391 
Q 2147 391 2380 519 
Q 2613 647 2778 891 
Q 2956 1147 3065 1494 
Q 3175 1841 3175 2156 
z
M 1394 2969 
Q 1625 3272 1939 3428 
Q 2253 3584 2638 3584 
Q 3175 3584 3472 3232 
Q 3769 2881 3769 2247 
Q 3769 1728 3584 1258 
Q 3400 788 3053 416 
Q 2822 169 2531 39 
Q 2241 -91 1919 -91 
Q 1547 -91 1294 64 
Q 1041 219 916 525 
L 556 -1331 
L -19 -1331 
L 922 3500 
L 1497 3500 
L 1394 2969 
z
" transform="scale(0.015625)"/>
      <path id="DejaVuSans-Oblique-69" d="M 1172 4863 
L 1747 4863 
L 1606 4134 
L 1031 4134 
L 1172 4863 
z
M 909 3500 
L 1484 3500 
L 800 0 
L 225 0 
L 909 3500 
z
" transform="scale(0.015625)"/>
      <path id="DejaVuSans-Oblique-6e" d="M 3566 2113 
L 3156 0 
L 2578 0 
L 2988 2091 
Q 3016 2238 3031 2350 
Q 3047 2463 3047 2528 
Q 3047 2791 2881 2937 
Q 2716 3084 2419 3084 
Q 1956 3084 1622 2776 
Q 1288 2469 1184 1941 
L 800 0 
L 225 0 
L 903 3500 
L 1478 3500 
L 1363 2950 
Q 1603 3253 1940 3418 
Q 2278 3584 2650 3584 
Q 3113 3584 3367 3334 
Q 3622 3084 3622 2631 
Q 3622 2519 3608 2391 
Q 3594 2263 3566 2113 
z
" transform="scale(0.015625)"/>
      <path id="DejaVuSans-Oblique-77" d="M 544 3500 
L 1113 3500 
L 1259 684 
L 2566 3500 
L 3231 3500 
L 3425 684 
L 4666 3500 
L 5241 3500 
L 3641 0 
L 2969 0 
L 2797 2900 
L 1459 0 
L 781 0 
L 544 3500 
z
" transform="scale(0.015625)"/>
     </defs>
     <use xlink:href="#DejaVuSans-Oblique-48"/>
     <use xlink:href="#DejaVuSans-Oblique-65" transform="translate(75.195312 0)"/>
     <use xlink:href="#DejaVuSans-Oblique-64" transform="translate(136.71875 0)"/>
     <use xlink:href="#DejaVuSans-Oblique-67" transform="translate(200.195312 0)"/>
     <use xlink:href="#DejaVuSans-Oblique-65" transform="translate(263.671875 0)"/>
     <use xlink:href="#DejaVuSans-Oblique-20" transform="translate(325.195312 0)"/>
     <use xlink:href="#DejaVuSans-Oblique-6c" transform="translate(356.982422 0)"/>
     <use xlink:href="#DejaVuSans-Oblique-65" transform="translate(384.765625 0)"/>
     <use xlink:href="#DejaVuSans-Oblique-67" transform="translate(446.289062 0)"/>
     <use xlink:href="#DejaVuSans-Oblique-73" transform="translate(509.765625 0)"/>
     <use xlink:href="#DejaVuSans-Oblique-3a" transform="translate(561.865234 0)"/>
     <use xlink:href="#DejaVuSans-Oblique-20" transform="translate(595.556641 0)"/>
     <use xlink:href="#DejaVuSans-Oblique-64" transform="translate(627.34375 0)"/>
     <use xlink:href="#DejaVuSans-Oblique-65" transform="translate(690.820312 0)"/>
     <use xlink:href="#DejaVuSans-Oblique-6c" transform="translate(752.34375 0)"/>
     <use xlink:href="#DejaVuSans-Oblique-74" transform="translate(780.126953 0)"/>
     <use xlink:href="#DejaVuSans-Oblique-61" transform="translate(819.335938 0)"/>
     <use xlink:href="#DejaVuSans-Oblique-2c" transform="translate(880.615234 0)"/>
     <use xlink:href="#DejaVuSans-Oblique-20" transform="translate(912.402344 0)"/>
     <use xlink:href="#DejaVuSans-Oblique-76" transform="translate(944.189453 0)"/>
     <use xlink:href="#DejaVuSans-Oblique-65" transform="translate(1003.369141 0)"/>
     <use xlink:href="#DejaVuSans-Oblique-67" transform="translate(1064.892578 0)"/>
     <use xlink:href="#DejaVuSans-Oblique-61" transform="translate(1128.369141 0)"/>
     <use xlink:href="#DejaVuSans-Oblique-2c" transform="translate(1189.648438 0)"/>
     <use xlink:href="#DejaVuSans-Oblique-20" transform="translate(1221.435547 0)"/>
     <use xlink:href="#DejaVuSans-Oblique-6f" transform="translate(1253.222656 0)"/>
     <use xlink:href="#DejaVuSans-Oblique-70" transform="translate(1314.404297 0)"/>
     <use xlink:href="#DejaVuSans-Oblique-74" transform="translate(1377.880859 0)"/>
     <use xlink:href="#DejaVuSans-Oblique-69" transform="translate(1417.089844 0)"/>
     <use xlink:href="#DejaVuSans-Oblique-6f" transform="translate(1444.873047 0)"/>
     <use xlink:href="#DejaVuSans-Oblique-6e" transform="translate(1506.054688 0)"/>
     <use xlink:href="#DejaVuSans-Oblique-73" transform="translate(1569.433594 0)"/>
     <use xlink:href="#DejaVuSans-Oblique-2c" transform="translate(1621.533203 0)"/>
     <use xlink:href="#DejaVuSans-Oblique-20" transform="translate(1653.320312 0)"/>
     <use xlink:href="#DejaVuSans-Oblique-73" transform="translate(1685.107422 0)"/>
     <use xlink:href="#DejaVuSans-Oblique-77" transform="translate(1737.207031 0)"/>
     <use xlink:href="#DejaVuSans-Oblique-61" transform="translate(1818.994141 0)"/>
     <use xlink:href="#DejaVuSans-Oblique-70" transform="translate(1880.273438 0)"/>
     <use xlink:href="#DejaVuSans-Oblique-73" transform="translate(1943.75 0)"/>
    </g>
   </g>
   <g id="text_17">
    <!-- How a Structured Note Flows Through the Bank -->
    <g style="fill: #1f3a5f" transform="translate(173.62207 16.698047) scale(0.125 -0.125)">
     <defs>
      <path id="DejaVuSans-Bold-77" d="M 225 3500 
L 1313 3500 
L 1900 1088 
L 2491 3500 
L 3425 3500 
L 4013 1113 
L 4603 3500 
L 5691 3500 
L 4769 0 
L 3547 0 
L 2956 2406 
L 2369 0 
L 1147 0 
L 225 3500 
z
" transform="scale(0.015625)"/>
      <path id="DejaVuSans-Bold-68" d="M 4056 2131 
L 4056 0 
L 2931 0 
L 2931 347 
L 2931 1625 
Q 2931 2084 2911 2256 
Q 2891 2428 2841 2509 
Q 2775 2619 2662 2680 
Q 2550 2741 2406 2741 
Q 2056 2741 1856 2470 
Q 1656 2200 1656 1722 
L 1656 0 
L 538 0 
L 538 4863 
L 1656 4863 
L 1656 2988 
Q 1909 3294 2193 3439 
Q 2478 3584 2822 3584 
Q 3428 3584 3742 3212 
Q 4056 2841 4056 2131 
z
" transform="scale(0.015625)"/>
      <path id="DejaVuSans-Bold-6b" d="M 538 4863 
L 1656 4863 
L 1656 2216 
L 2944 3500 
L 4244 3500 
L 2534 1894 
L 4378 0 
L 3022 0 
L 1656 1459 
L 1656 0 
L 538 0 
L 538 4863 
z
" transform="scale(0.015625)"/>
     </defs>
     <use xlink:href="#DejaVuSans-Bold-48"/>
     <use xlink:href="#DejaVuSans-Bold-6f" transform="translate(83.691406 0)"/>
     <use xlink:href="#DejaVuSans-Bold-77" transform="translate(152.392578 0)"/>
     <use xlink:href="#DejaVuSans-Bold-20" transform="translate(244.775391 0)"/>
     <use xlink:href="#DejaVuSans-Bold-61" transform="translate(279.589844 0)"/>
     <use xlink:href="#DejaVuSans-Bold-20" transform="translate(347.070312 0)"/>
     <use xlink:href="#DejaVuSans-Bold-53" transform="translate(381.884766 0)"/>
     <use xlink:href="#DejaVuSans-Bold-74" transform="translate(453.90625 0)"/>
     <use xlink:href="#DejaVuSans-Bold-72" transform="translate(501.708984 0)"/>
     <use xlink:href="#DejaVuSans-Bold-75" transform="translate(551.025391 0)"/>
     <use xlink:href="#DejaVuSans-Bold-63" transform="translate(622.216797 0)"/>
     <use xlink:href="#DejaVuSans-Bold-74" transform="translate(681.494141 0)"/>
     <use xlink:href="#DejaVuSans-Bold-75" transform="translate(729.296875 0)"/>
     <use xlink:href="#DejaVuSans-Bold-72" transform="translate(800.488281 0)"/>
     <use xlink:href="#DejaVuSans-Bold-65" transform="translate(849.804688 0)"/>
     <use xlink:href="#DejaVuSans-Bold-64" transform="translate(917.626953 0)"/>
     <use xlink:href="#DejaVuSans-Bold-20" transform="translate(989.208984 0)"/>
     <use xlink:href="#DejaVuSans-Bold-4e" transform="translate(1024.023438 0)"/>
     <use xlink:href="#DejaVuSans-Bold-6f" transform="translate(1107.714844 0)"/>
     <use xlink:href="#DejaVuSans-Bold-74" transform="translate(1176.416016 0)"/>
     <use xlink:href="#DejaVuSans-Bold-65" transform="translate(1224.21875 0)"/>
     <use xlink:href="#DejaVuSans-Bold-20" transform="translate(1292.041016 0)"/>
     <use xlink:href="#DejaVuSans-Bold-46" transform="translate(1326.855469 0)"/>
     <use xlink:href="#DejaVuSans-Bold-6c" transform="translate(1395.166016 0)"/>
     <use xlink:href="#DejaVuSans-Bold-6f" transform="translate(1429.443359 0)"/>
     <use xlink:href="#DejaVuSans-Bold-77" transform="translate(1498.144531 0)"/>
     <use xlink:href="#DejaVuSans-Bold-73" transform="translate(1590.527344 0)"/>
     <use xlink:href="#DejaVuSans-Bold-20" transform="translate(1650.048828 0)"/>
     <use xlink:href="#DejaVuSans-Bold-54" transform="translate(1684.863281 0)"/>
     <use xlink:href="#DejaVuSans-Bold-68" transform="translate(1753.076172 0)"/>
     <use xlink:href="#DejaVuSans-Bold-72" transform="translate(1824.267578 0)"/>
     <use xlink:href="#DejaVuSans-Bold-6f" transform="translate(1873.583984 0)"/>
     <use xlink:href="#DejaVuSans-Bold-75" transform="translate(1942.285156 0)"/>
     <use xlink:href="#DejaVuSans-Bold-67" transform="translate(2013.476562 0)"/>
     <use xlink:href="#DejaVuSans-Bold-68" transform="translate(2085.058594 0)"/>
     <use xlink:href="#DejaVuSans-Bold-20" transform="translate(2156.25 0)"/>
     <use xlink:href="#DejaVuSans-Bold-74" transform="translate(2191.064453 0)"/>
     <use xlink:href="#DejaVuSans-Bold-68" transform="translate(2238.867188 0)"/>
     <use xlink:href="#DejaVuSans-Bold-65" transform="translate(2310.058594 0)"/>
     <use xlink:href="#DejaVuSans-Bold-20" transform="translate(2377.880859 0)"/>
     <use xlink:href="#DejaVuSans-Bold-42" transform="translate(2412.695312 0)"/>
     <use xlink:href="#DejaVuSans-Bold-61" transform="translate(2488.916016 0)"/>
     <use xlink:href="#DejaVuSans-Bold-6e" transform="translate(2556.396484 0)"/>
     <use xlink:href="#DejaVuSans-Bold-6b" transform="translate(2627.587891 0)"/>
    </g>
   </g>
  </g>
 </g>
 <defs>
  <clipPath id="p521b8515f4">
   <rect x="7.2" y="8.897721" width="669.6" height="364.0152"/>
  </clipPath>
 </defs>
</svg>
