<?xml version="1.0" encoding="utf-8" standalone="no"?>
<!DOCTYPE svg PUBLIC "-//W3C//DTD SVG 1.1//EN"
  "http://www.w3.org/Graphics/SVG/1.1/DTD/svg11.dtd">
<svg xmlns:xlink="http://www.w3.org/1999/xlink" width="518.4pt" height="316.8pt" viewBox="0 0 518.4 316.8" xmlns="http://www.w3.org/2000/svg" version="1.1">
 <metadata>
  <rdf:RDF xmlns:dc="http://purl.org/dc/elements/1.1/" xmlns:cc="http://creativecommons.org/ns#" xmlns:rdf="http://www.w3.org/1999/02/22-rdf-syntax-ns#">
   <cc:Work>
    <dc:type rdf:resource="http://purl.org/dc/dcmitype/StillImage"/>
    <dc:date>2026-06-27T14:20:32.610662</dc:date>
    <dc:format>image/svg+xml</dc:format>
    <dc:creator>
     <cc:Agent>
      <dc:title>Matplotlib v3.10.9, https://matplotlib.org/</dc:title>
     </cc:Agent>
    </dc:creator>
   </cc:Work>
  </rdf:RDF>
 </metadata>
 <defs>
  <style type="text/css">*{stroke-linejoin: round; stroke-linecap: butt}</style>
 </defs>
 <g id="figure_1">
  <g id="patch_1">
   <path d="M 0 316.8 
L 518.4 316.8 
L 518.4 0 
L 0 0 
z
" style="fill: #ffffff"/>
  </g>
  <g id="axes_1">
   <g id="patch_2">
    <path d="M 58.07 272.32 
L 496.125 272.32 
L 496.125 27.96 
L 58.07 27.96 
z
" style="fill: #ffffff"/>
   </g>
   <g id="matplotlib.axis_1">
    <g id="xtick_1">
     <g id="line2d_1">
      <path d="M 58.07 272.32 
L 58.07 27.96 
" clip-path="url(#p4b48b79dab)" style="fill: none; stroke: #eef2f6; stroke-linecap: square"/>
     </g>
     <g id="line2d_2">
      <defs>
       <path id="m259097eb6a" d="M 0 0 
L 0 3.5 
" style="stroke: #41607f; stroke-width: 0.8"/>
      </defs>
      <g>
       <use xlink:href="#m259097eb6a" x="58.07" y="272.32" style="fill: #41607f; stroke: #41607f; stroke-width: 0.8"/>
      </g>
     </g>
     <g id="text_1">
      <text style="font-size: 11px; font-family: 'DejaVu Sans'; text-anchor: middle; fill: #41607f" x="58.07" y="287.678281" transform="rotate(-0 58.07 287.678281)">40</text>
     </g>
    </g>
    <g id="xtick_2">
     <g id="line2d_3">
      <path d="M 145.681 272.32 
L 145.681 27.96 
" clip-path="url(#p4b48b79dab)" style="fill: none; stroke: #eef2f6; stroke-linecap: square"/>
     </g>
     <g id="line2d_4">
      <g>
       <use xlink:href="#m259097eb6a" x="145.681" y="272.32" style="fill: #41607f; stroke: #41607f; stroke-width: 0.8"/>
      </g>
     </g>
     <g id="text_2">
      <text style="font-size: 11px; font-family: 'DejaVu Sans'; text-anchor: middle; fill: #41607f" x="145.681" y="287.678281" transform="rotate(-0 145.681 287.678281)">60</text>
     </g>
    </g>
    <g id="xtick_3">
     <g id="line2d_5">
      <path d="M 233.292 272.32 
L 233.292 27.96 
" clip-path="url(#p4b48b79dab)" style="fill: none; stroke: #eef2f6; stroke-linecap: square"/>
     </g>
     <g id="line2d_6">
      <g>
       <use xlink:href="#m259097eb6a" x="233.292" y="272.32" style="fill: #41607f; stroke: #41607f; stroke-width: 0.8"/>
      </g>
     </g>
     <g id="text_3">
      <text style="font-size: 11px; font-family: 'DejaVu Sans'; text-anchor: middle; fill: #41607f" x="233.292" y="287.678281" transform="rotate(-0 233.292 287.678281)">80</text>
     </g>
    </g>
    <g id="xtick_4">
     <g id="line2d_7">
      <path d="M 320.903 272.32 
L 320.903 27.96 
" clip-path="url(#p4b48b79dab)" style="fill: none; stroke: #eef2f6; stroke-linecap: square"/>
     </g>
     <g id="line2d_8">
      <g>
       <use xlink:href="#m259097eb6a" x="320.903" y="272.32" style="fill: #41607f; stroke: #41607f; stroke-width: 0.8"/>
      </g>
     </g>
     <g id="text_4">
      <text style="font-size: 11px; font-family: 'DejaVu Sans'; text-anchor: middle; fill: #41607f" x="320.903" y="287.678281" transform="rotate(-0 320.903 287.678281)">100</text>
     </g>
    </g>
    <g id="xtick_5">
     <g id="line2d_9">
      <path d="M 408.514 272.32 
L 408.514 27.96 
" clip-path="url(#p4b48b79dab)" style="fill: none; stroke: #eef2f6; stroke-linecap: square"/>
     </g>
     <g id="line2d_10">
      <g>
       <use xlink:href="#m259097eb6a" x="408.514" y="272.32" style="fill: #41607f; stroke: #41607f; stroke-width: 0.8"/>
      </g>
     </g>
     <g id="text_5">
      <text style="font-size: 11px; font-family: 'DejaVu Sans'; text-anchor: middle; fill: #41607f" x="408.514" y="287.678281" transform="rotate(-0 408.514 287.678281)">120</text>
     </g>
    </g>
    <g id="xtick_6">
     <g id="line2d_11">
      <path d="M 496.125 272.32 
L 496.125 27.96 
" clip-path="url(#p4b48b79dab)" style="fill: none; stroke: #eef2f6; stroke-linecap: square"/>
     </g>
     <g id="line2d_12">
      <g>
       <use xlink:href="#m259097eb6a" x="496.125" y="272.32" style="fill: #41607f; stroke: #41607f; stroke-width: 0.8"/>
      </g>
     </g>
     <g id="text_6">
      <text style="font-size: 11px; font-family: 'DejaVu Sans'; text-anchor: middle; fill: #41607f" x="496.125" y="287.678281" transform="rotate(-0 496.125 287.678281)">140</text>
     </g>
    </g>
    <g id="text_7">
     <text style="font-size: 11px; font-family: 'DejaVu Sans'; text-anchor: middle; fill: #1f3a5f" x="277.0975" y="302.324219" transform="rotate(-0 277.0975 302.324219)">Underlying spot (% of initial)</text>
    </g>
   </g>
   <g id="matplotlib.axis_2">
    <g id="ytick_1">
     <g id="line2d_13">
      <path d="M 58.07 272.32 
L 496.125 272.32 
" clip-path="url(#p4b48b79dab)" style="fill: none; stroke: #eef2f6; stroke-linecap: square"/>
     </g>
     <g id="line2d_14">
      <defs>
       <path id="me879294d42" d="M 0 0 
L -3.5 0 
" style="stroke: #41607f; stroke-width: 0.8"/>
      </defs>
      <g>
       <use xlink:href="#me879294d42" x="58.07" y="272.32" style="fill: #41607f; stroke: #41607f; stroke-width: 0.8"/>
      </g>
     </g>
     <g id="text_8">
      <text style="font-size: 11px; font-family: 'DejaVu Sans'; text-anchor: end; fill: #41607f" x="51.07" y="276.499141" transform="rotate(-0 51.07 276.499141)">0.00</text>
     </g>
    </g>
    <g id="ytick_2">
     <g id="line2d_15">
      <path d="M 58.07 231.593333 
L 496.125 231.593333 
" clip-path="url(#p4b48b79dab)" style="fill: none; stroke: #eef2f6; stroke-linecap: square"/>
     </g>
     <g id="line2d_16">
      <g>
       <use xlink:href="#me879294d42" x="58.07" y="231.593333" style="fill: #41607f; stroke: #41607f; stroke-width: 0.8"/>
      </g>
     </g>
     <g id="text_9">
      <text style="font-size: 11px; font-family: 'DejaVu Sans'; text-anchor: end; fill: #41607f" x="51.07" y="235.772474" transform="rotate(-0 51.07 235.772474)">0.05</text>
     </g>
    </g>
    <g id="ytick_3">
     <g id="line2d_17">
      <path d="M 58.07 190.866667 
L 496.125 190.866667 
" clip-path="url(#p4b48b79dab)" style="fill: none; stroke: #eef2f6; stroke-linecap: square"/>
     </g>
     <g id="line2d_18">
      <g>
       <use xlink:href="#me879294d42" x="58.07" y="190.866667" style="fill: #41607f; stroke: #41607f; stroke-width: 0.8"/>
      </g>
     </g>
     <g id="text_10">
      <text style="font-size: 11px; font-family: 'DejaVu Sans'; text-anchor: end; fill: #41607f" x="51.07" y="195.045807" transform="rotate(-0 51.07 195.045807)">0.10</text>
     </g>
    </g>
    <g id="ytick_4">
     <g id="line2d_19">
      <path d="M 58.07 150.14 
L 496.125 150.14 
" clip-path="url(#p4b48b79dab)" style="fill: none; stroke: #eef2f6; stroke-linecap: square"/>
     </g>
     <g id="line2d_20">
      <g>
       <use xlink:href="#me879294d42" x="58.07" y="150.14" style="fill: #41607f; stroke: #41607f; stroke-width: 0.8"/>
      </g>
     </g>
     <g id="text_11">
      <text style="font-size: 11px; font-family: 'DejaVu Sans'; text-anchor: end; fill: #41607f" x="51.07" y="154.319141" transform="rotate(-0 51.07 154.319141)">0.15</text>
     </g>
    </g>
    <g id="ytick_5">
     <g id="line2d_21">
      <path d="M 58.07 109.413333 
L 496.125 109.413333 
" clip-path="url(#p4b48b79dab)" style="fill: none; stroke: #eef2f6; stroke-linecap: square"/>
     </g>
     <g id="line2d_22">
      <g>
       <use xlink:href="#me879294d42" x="58.07" y="109.413333" style="fill: #41607f; stroke: #41607f; stroke-width: 0.8"/>
      </g>
     </g>
     <g id="text_12">
      <text style="font-size: 11px; font-family: 'DejaVu Sans'; text-anchor: end; fill: #41607f" x="51.07" y="113.592474" transform="rotate(-0 51.07 113.592474)">0.20</text>
     </g>
    </g>
    <g id="ytick_6">
     <g id="line2d_23">
      <path d="M 58.07 68.686667 
L 496.125 68.686667 
" clip-path="url(#p4b48b79dab)" style="fill: none; stroke: #eef2f6; stroke-linecap: square"/>
     </g>
     <g id="line2d_24">
      <g>
       <use xlink:href="#me879294d42" x="58.07" y="68.686667" style="fill: #41607f; stroke: #41607f; stroke-width: 0.8"/>
      </g>
     </g>
     <g id="text_13">
      <text style="font-size: 11px; font-family: 'DejaVu Sans'; text-anchor: end; fill: #41607f" x="51.07" y="72.865807" transform="rotate(-0 51.07 72.865807)">0.25</text>
     </g>
    </g>
    <g id="ytick_7">
     <g id="line2d_25">
      <path d="M 58.07 27.96 
L 496.125 27.96 
" clip-path="url(#p4b48b79dab)" style="fill: none; stroke: #eef2f6; stroke-linecap: square"/>
     </g>
     <g id="line2d_26">
      <g>
       <use xlink:href="#me879294d42" x="58.07" y="27.96" style="fill: #41607f; stroke: #41607f; stroke-width: 0.8"/>
      </g>
     </g>
     <g id="text_14">
      <text style="font-size: 11px; font-family: 'DejaVu Sans'; text-anchor: end; fill: #41607f" x="51.07" y="32.139141" transform="rotate(-0 51.07 32.139141)">0.30</text>
     </g>
    </g>
    <g id="text_15">
     <text style="font-size: 11px; font-family: 'DejaVu Sans'; text-anchor: middle; fill: #1f3a5f" x="20.290156" y="150.14" transform="rotate(-90 20.290156 150.14)">Desk gamma (long option)</text>
    </g>
   </g>
   <g id="FillBetweenPolyCollection_1">
    <defs>
     <path id="m6a5a1d6333" d="M 58.07 -44.48 
L 58.07 -44.875179 
L 59.167882 -44.887623 
L 60.265764 -44.900405 
L 61.363647 -44.913531 
L 62.461529 -44.927009 
L 63.559411 -44.940846 
L 64.657293 -44.95505 
L 65.755175 -44.969628 
L 66.853058 -44.984588 
L 67.95094 -44.999937 
L 69.048822 -45.015684 
L 70.146704 -45.031836 
L 71.244586 -45.048402 
L 72.342469 -45.065388 
L 73.440351 -45.082804 
L 74.538233 -45.100658 
L 75.636115 -45.118958 
L 76.733997 -45.137711 
L 77.83188 -45.156928 
L 78.929762 -45.176615 
L 80.027644 -45.196782 
L 81.125526 -45.217437 
L 82.223409 -45.238589 
L 83.321291 -45.260246 
L 84.419173 -45.282417 
L 85.517055 -45.305112 
L 86.614937 -45.328338 
L 87.71282 -45.352104 
L 88.810702 -45.376421 
L 89.908584 -45.401296 
L 91.006466 -45.426738 
L 92.104348 -45.452757 
L 93.202231 -45.479361 
L 94.300113 -45.50656 
L 95.397995 -45.534363 
L 96.495877 -45.562779 
L 97.593759 -45.591817 
L 98.691642 -45.621487 
L 99.789524 -45.651798 
L 100.887406 -45.68276 
L 101.985288 -45.714381 
L 103.08317 -45.746674 
L 104.181053 -45.779646 
L 105.278935 -45.81331 
L 106.376817 -45.847676 
L 107.474699 -45.882756 
L 108.572581 -45.918563 
L 109.670464 -45.955109 
L 110.768346 -45.992411 
L 111.866228 -46.030484 
L 112.96411 -46.069348 
L 114.061992 -46.109024 
L 115.159875 -46.149537 
L 116.257757 -46.190918 
L 117.355639 -46.233201 
L 118.453521 -46.276428 
L 119.551404 -46.320651 
L 120.649286 -46.365929 
L 121.747168 -46.412339 
L 122.84505 -46.459969 
L 123.942932 -46.50893 
L 125.040815 -46.559354 
L 126.138697 -46.611403 
L 127.236579 -46.665272 
L 128.334461 -46.721198 
L 129.432343 -46.779467 
L 130.530226 -46.840422 
L 131.628108 -46.904474 
L 132.72599 -46.972117 
L 133.823872 -47.043937 
L 134.921754 -47.120632 
L 136.019637 -47.203025 
L 137.117519 -47.292089 
L 138.215401 -47.388965 
L 139.313283 -47.494988 
L 140.411165 -47.611713 
L 141.509048 -47.740943 
L 142.60693 -47.884762 
L 143.704812 -48.045565 
L 144.802694 -48.226096 
L 145.900576 -48.429485 
L 146.998459 -48.659281 
L 148.096341 -48.919495 
L 149.194223 -49.214636 
L 150.292105 -49.54975 
L 151.389987 -49.930451 
L 152.48787 -50.362962 
L 153.585752 -50.854134 
L 154.683634 -51.411476 
L 155.781516 -52.043171 
L 156.879398 -52.758081 
L 157.977281 -53.565745 
L 159.075163 -54.476371 
L 160.173045 -55.500801 
L 161.270927 -56.650476 
L 162.36881 -57.937372 
L 163.466692 -59.373928 
L 164.564574 -60.972944 
L 165.662456 -62.74747 
L 166.760338 -64.710667 
L 167.858221 -66.875648 
L 168.956103 -69.255297 
L 170.053985 -71.86207 
L 171.151867 -74.70778 
L 172.249749 -77.803352 
L 173.347632 -81.158579 
L 174.445514 -84.781859 
L 175.543396 -88.679919 
L 176.641278 -92.857545 
L 177.73916 -97.31731 
L 178.837043 -102.059307 
L 179.934925 -107.080896 
L 181.032807 -112.376472 
L 182.130689 -117.937256 
L 183.228571 -123.751119 
L 184.326454 -129.802448 
L 185.424336 -136.072047 
L 186.522218 -142.537098 
L 187.6201 -149.171173 
L 188.717982 -155.944301 
L 189.815865 -162.823105 
L 190.913747 -169.770994 
L 192.011629 -176.748423 
L 193.109511 -183.713223 
L 194.207393 -190.620976 
L 195.305276 -197.425466 
L 196.403158 -204.079167 
L 197.50104 -210.533786 
L 198.598922 -216.740837 
L 199.696805 -222.652246 
L 200.794687 -228.220974 
L 201.892569 -233.401645 
L 202.990451 -238.151171 
L 204.088333 -242.429353 
L 205.186216 -246.199468 
L 206.284098 -249.428797 
L 207.38198 -252.089116 
L 208.479862 -254.15712 
L 209.577744 -255.614773 
L 210.675627 -256.44959 
L 211.773509 -256.654822 
L 212.871391 -256.229566 
L 213.969273 -255.178773 
L 215.067155 -253.513175 
L 216.165038 -251.24912 
L 217.26292 -248.408316 
L 218.360802 -245.017506 
L 219.458684 -241.108056 
L 220.556566 -236.715498 
L 221.654449 -231.878995 
L 222.752331 -226.640784 
L 223.850213 -221.045572 
L 224.948095 -215.139915 
L 226.045977 -208.971596 
L 227.14386 -202.588993 
L 228.241742 -196.040471 
L 229.339624 -189.373798 
L 230.437506 -182.635589 
L 231.535388 -175.870803 
L 232.633271 -169.122281 
L 233.731153 -162.430344 
L 234.829035 -155.832455 
L 235.926917 -149.362931 
L 237.024799 -143.052738 
L 238.122682 -136.929329 
L 239.220564 -131.016566 
L 240.318446 -125.334683 
L 241.416328 -119.900318 
L 242.514211 -114.726586 
L 243.612093 -109.823212 
L 244.709975 -105.19669 
L 245.807857 -100.850482 
L 246.905739 -96.785246 
L 248.003622 -92.999086 
L 249.101504 -89.487809 
L 250.199386 -86.2452 
L 251.297268 -83.263292 
L 252.39515 -80.532645 
L 253.493033 -78.042604 
L 254.590915 -75.78156 
L 255.688797 -73.737187 
L 256.786679 -71.896668 
L 257.884561 -70.246902 
L 258.982444 -68.774689 
L 260.080326 -67.466893 
L 261.178208 -66.31059 
L 262.27609 -65.293186 
L 263.373972 -64.402523 
L 264.471855 -63.626958 
L 265.569737 -62.955432 
L 266.667619 -62.37751 
L 267.765501 -61.883418 
L 268.863383 -61.464058 
L 269.961266 -61.111015 
L 271.059148 -60.816547 
L 272.15703 -60.57358 
L 273.254912 -60.375675 
L 274.352794 -60.217012 
L 275.450677 -60.092351 
L 276.548559 -59.996998 
L 277.646441 -59.926772 
L 278.744323 -59.877964 
L 279.842206 -59.847298 
L 280.940088 -59.831895 
L 282.03797 -59.829236 
L 283.135852 -59.837125 
L 284.233734 -59.853658 
L 285.331617 -59.877186 
L 286.429499 -59.906294 
L 287.527381 -59.939766 
L 288.625263 -59.976564 
L 289.723145 -60.015803 
L 290.821028 -60.056734 
L 291.91891 -60.098724 
L 293.016792 -60.141239 
L 294.114674 -60.18383 
L 295.212556 -60.226122 
L 296.310439 -60.267801 
L 297.408321 -60.308605 
L 298.506203 -60.348318 
L 299.604085 -60.386758 
L 300.701967 -60.423776 
L 301.79985 -60.459249 
L 302.897732 -60.493075 
L 303.995614 -60.525167 
L 305.093496 -60.555458 
L 306.191378 -60.583889 
L 307.289261 -60.610412 
L 308.387143 -60.634988 
L 309.485025 -60.657585 
L 310.582907 -60.678174 
L 311.680789 -60.696735 
L 312.778672 -60.713249 
L 313.876554 -60.7277 
L 314.974436 -60.740076 
L 316.072318 -60.750367 
L 317.170201 -60.758565 
L 318.268083 -60.764663 
L 319.365965 -60.768657 
L 320.463847 -60.770543 
L 321.561729 -60.77032 
L 322.659612 -60.767985 
L 323.757494 -60.76354 
L 324.855376 -60.756985 
L 325.953258 -60.748323 
L 327.05114 -60.737556 
L 328.149023 -60.724689 
L 329.246905 -60.709726 
L 330.344787 -60.692673 
L 331.442669 -60.673536 
L 332.540551 -60.652324 
L 333.638434 -60.629043 
L 334.736316 -60.603703 
L 335.834198 -60.576314 
L 336.93208 -60.546886 
L 338.029962 -60.515431 
L 339.127845 -60.48196 
L 340.225727 -60.446487 
L 341.323609 -60.409026 
L 342.421491 -60.369589 
L 343.519373 -60.328194 
L 344.617256 -60.284855 
L 345.715138 -60.23959 
L 346.81302 -60.192414 
L 347.910902 -60.143347 
L 349.008784 -60.092407 
L 350.106667 -60.039613 
L 351.204549 -59.984986 
L 352.302431 -59.928544 
L 353.400313 -59.870311 
L 354.498195 -59.810308 
L 355.596078 -59.748557 
L 356.69396 -59.685081 
L 357.791842 -59.619905 
L 358.889724 -59.553051 
L 359.987607 -59.484545 
L 361.085489 -59.414412 
L 362.183371 -59.342678 
L 363.281253 -59.269369 
L 364.379135 -59.194512 
L 365.477018 -59.118133 
L 366.5749 -59.040262 
L 367.672782 -58.960925 
L 368.770664 -58.880152 
L 369.868546 -58.797971 
L 370.966429 -58.714411 
L 372.064311 -58.629503 
L 373.162193 -58.543275 
L 374.260075 -58.45576 
L 375.357957 -58.366986 
L 376.45584 -58.276986 
L 377.553722 -58.18579 
L 378.651604 -58.093431 
L 379.749486 -57.999938 
L 380.847368 -57.905346 
L 381.945251 -57.809685 
L 383.043133 -57.712988 
L 384.141015 -57.615288 
L 385.238897 -57.516618 
L 386.336779 -57.417009 
L 387.434662 -57.316495 
L 388.532544 -57.21511 
L 389.630426 -57.112886 
L 390.728308 -57.009856 
L 391.82619 -56.906053 
L 392.924073 -56.801511 
L 394.021955 -56.696264 
L 395.119837 -56.590343 
L 396.217719 -56.483783 
L 397.315602 -56.376616 
L 398.413484 -56.268877 
L 399.511366 -56.160596 
L 400.609248 -56.051809 
L 401.70713 -55.942547 
L 402.805013 -55.832843 
L 403.902895 -55.72273 
L 405.000777 -55.61224 
L 406.098659 -55.501406 
L 407.196541 -55.390259 
L 408.294424 -55.278831 
L 409.392306 -55.167154 
L 410.490188 -55.05526 
L 411.58807 -54.943179 
L 412.685952 -54.830943 
L 413.783835 -54.718581 
L 414.881717 -54.606126 
L 415.979599 -54.493605 
L 417.077481 -54.38105 
L 418.175363 -54.26849 
L 419.273246 -54.155953 
L 420.371128 -54.043469 
L 421.46901 -53.931066 
L 422.566892 -53.818772 
L 423.664774 -53.706615 
L 424.762657 -53.594622 
L 425.860539 -53.482819 
L 426.958421 -53.371235 
L 428.056303 -53.259893 
L 429.154185 -53.148821 
L 430.252068 -53.038043 
L 431.34995 -52.927585 
L 432.447832 -52.81747 
L 433.545714 -52.707722 
L 434.643596 -52.598366 
L 435.741479 -52.489423 
L 436.839361 -52.380917 
L 437.937243 -52.272869 
L 439.035125 -52.165302 
L 440.133008 -52.058235 
L 441.23089 -51.951691 
L 442.328772 -51.845689 
L 443.426654 -51.740248 
L 444.524536 -51.635388 
L 445.622419 -51.531127 
L 446.720301 -51.427483 
L 447.818183 -51.324475 
L 448.916065 -51.222119 
L 450.013947 -51.120432 
L 451.11183 -51.01943 
L 452.209712 -50.919128 
L 453.307594 -50.819542 
L 454.405476 -50.720686 
L 455.503358 -50.622574 
L 456.601241 -50.52522 
L 457.699123 -50.428638 
L 458.797005 -50.332838 
L 459.894887 -50.237834 
L 460.992769 -50.143637 
L 462.090652 -50.050258 
L 463.188534 -49.957708 
L 464.286416 -49.865997 
L 465.384298 -49.775134 
L 466.48218 -49.685128 
L 467.580063 -49.595988 
L 468.677945 -49.507722 
L 469.775827 -49.420337 
L 470.873709 -49.333842 
L 471.971591 -49.248242 
L 473.069474 -49.163543 
L 474.167356 -49.079753 
L 475.265238 -48.996875 
L 476.36312 -48.914914 
L 477.461003 -48.833876 
L 478.558885 -48.753764 
L 479.656767 -48.674582 
L 480.754649 -48.596332 
L 481.852531 -48.519018 
L 482.950414 -48.442642 
L 484.048296 -48.367205 
L 485.146178 -48.29271 
L 486.24406 -48.219157 
L 487.341942 -48.146547 
L 488.439825 -48.07488 
L 489.537707 -48.004157 
L 490.635589 -47.934377 
L 491.733471 -47.86554 
L 492.831353 -47.797643 
L 493.929236 -47.730686 
L 495.027118 -47.664667 
L 496.125 -47.599584 
L 496.125 -44.48 
L 496.125 -44.48 
L 495.027118 -44.48 
L 493.929236 -44.48 
L 492.831353 -44.48 
L 491.733471 -44.48 
L 490.635589 -44.48 
L 489.537707 -44.48 
L 488.439825 -44.48 
L 487.341942 -44.48 
L 486.24406 -44.48 
L 485.146178 -44.48 
L 484.048296 -44.48 
L 482.950414 -44.48 
L 481.852531 -44.48 
L 480.754649 -44.48 
L 479.656767 -44.48 
L 478.558885 -44.48 
L 477.461003 -44.48 
L 476.36312 -44.48 
L 475.265238 -44.48 
L 474.167356 -44.48 
L 473.069474 -44.48 
L 471.971591 -44.48 
L 470.873709 -44.48 
L 469.775827 -44.48 
L 468.677945 -44.48 
L 467.580063 -44.48 
L 466.48218 -44.48 
L 465.384298 -44.48 
L 464.286416 -44.48 
L 463.188534 -44.48 
L 462.090652 -44.48 
L 460.992769 -44.48 
L 459.894887 -44.48 
L 458.797005 -44.48 
L 457.699123 -44.48 
L 456.601241 -44.48 
L 455.503358 -44.48 
L 454.405476 -44.48 
L 453.307594 -44.48 
L 452.209712 -44.48 
L 451.11183 -44.48 
L 450.013947 -44.48 
L 448.916065 -44.48 
L 447.818183 -44.48 
L 446.720301 -44.48 
L 445.622419 -44.48 
L 444.524536 -44.48 
L 443.426654 -44.48 
L 442.328772 -44.48 
L 441.23089 -44.48 
L 440.133008 -44.48 
L 439.035125 -44.48 
L 437.937243 -44.48 
L 436.839361 -44.48 
L 435.741479 -44.48 
L 434.643596 -44.48 
L 433.545714 -44.48 
L 432.447832 -44.48 
L 431.34995 -44.48 
L 430.252068 -44.48 
L 429.154185 -44.48 
L 428.056303 -44.48 
L 426.958421 -44.48 
L 425.860539 -44.48 
L 424.762657 -44.48 
L 423.664774 -44.48 
L 422.566892 -44.48 
L 421.46901 -44.48 
L 420.371128 -44.48 
L 419.273246 -44.48 
L 418.175363 -44.48 
L 417.077481 -44.48 
L 415.979599 -44.48 
L 414.881717 -44.48 
L 413.783835 -44.48 
L 412.685952 -44.48 
L 411.58807 -44.48 
L 410.490188 -44.48 
L 409.392306 -44.48 
L 408.294424 -44.48 
L 407.196541 -44.48 
L 406.098659 -44.48 
L 405.000777 -44.48 
L 403.902895 -44.48 
L 402.805013 -44.48 
L 401.70713 -44.48 
L 400.609248 -44.48 
L 399.511366 -44.48 
L 398.413484 -44.48 
L 397.315602 -44.48 
L 396.217719 -44.48 
L 395.119837 -44.48 
L 394.021955 -44.48 
L 392.924073 -44.48 
L 391.82619 -44.48 
L 390.728308 -44.48 
L 389.630426 -44.48 
L 388.532544 -44.48 
L 387.434662 -44.48 
L 386.336779 -44.48 
L 385.238897 -44.48 
L 384.141015 -44.48 
L 383.043133 -44.48 
L 381.945251 -44.48 
L 380.847368 -44.48 
L 379.749486 -44.48 
L 378.651604 -44.48 
L 377.553722 -44.48 
L 376.45584 -44.48 
L 375.357957 -44.48 
L 374.260075 -44.48 
L 373.162193 -44.48 
L 372.064311 -44.48 
L 370.966429 -44.48 
L 369.868546 -44.48 
L 368.770664 -44.48 
L 367.672782 -44.48 
L 366.5749 -44.48 
L 365.477018 -44.48 
L 364.379135 -44.48 
L 363.281253 -44.48 
L 362.183371 -44.48 
L 361.085489 -44.48 
L 359.987607 -44.48 
L 358.889724 -44.48 
L 357.791842 -44.48 
L 356.69396 -44.48 
L 355.596078 -44.48 
L 354.498195 -44.48 
L 353.400313 -44.48 
L 352.302431 -44.48 
L 351.204549 -44.48 
L 350.106667 -44.48 
L 349.008784 -44.48 
L 347.910902 -44.48 
L 346.81302 -44.48 
L 345.715138 -44.48 
L 344.617256 -44.48 
L 343.519373 -44.48 
L 342.421491 -44.48 
L 341.323609 -44.48 
L 340.225727 -44.48 
L 339.127845 -44.48 
L 338.029962 -44.48 
L 336.93208 -44.48 
L 335.834198 -44.48 
L 334.736316 -44.48 
L 333.638434 -44.48 
L 332.540551 -44.48 
L 331.442669 -44.48 
L 330.344787 -44.48 
L 329.246905 -44.48 
L 328.149023 -44.48 
L 327.05114 -44.48 
L 325.953258 -44.48 
L 324.855376 -44.48 
L 323.757494 -44.48 
L 322.659612 -44.48 
L 321.561729 -44.48 
L 320.463847 -44.48 
L 319.365965 -44.48 
L 318.268083 -44.48 
L 317.170201 -44.48 
L 316.072318 -44.48 
L 314.974436 -44.48 
L 313.876554 -44.48 
L 312.778672 -44.48 
L 311.680789 -44.48 
L 310.582907 -44.48 
L 309.485025 -44.48 
L 308.387143 -44.48 
L 307.289261 -44.48 
L 306.191378 -44.48 
L 305.093496 -44.48 
L 303.995614 -44.48 
L 302.897732 -44.48 
L 301.79985 -44.48 
L 300.701967 -44.48 
L 299.604085 -44.48 
L 298.506203 -44.48 
L 297.408321 -44.48 
L 296.310439 -44.48 
L 295.212556 -44.48 
L 294.114674 -44.48 
L 293.016792 -44.48 
L 291.91891 -44.48 
L 290.821028 -44.48 
L 289.723145 -44.48 
L 288.625263 -44.48 
L 287.527381 -44.48 
L 286.429499 -44.48 
L 285.331617 -44.48 
L 284.233734 -44.48 
L 283.135852 -44.48 
L 282.03797 -44.48 
L 280.940088 -44.48 
L 279.842206 -44.48 
L 278.744323 -44.48 
L 277.646441 -44.48 
L 276.548559 -44.48 
L 275.450677 -44.48 
L 274.352794 -44.48 
L 273.254912 -44.48 
L 272.15703 -44.48 
L 271.059148 -44.48 
L 269.961266 -44.48 
L 268.863383 -44.48 
L 267.765501 -44.48 
L 266.667619 -44.48 
L 265.569737 -44.48 
L 264.471855 -44.48 
L 263.373972 -44.48 
L 262.27609 -44.48 
L 261.178208 -44.48 
L 260.080326 -44.48 
L 258.982444 -44.48 
L 257.884561 -44.48 
L 256.786679 -44.48 
L 255.688797 -44.48 
L 254.590915 -44.48 
L 253.493033 -44.48 
L 252.39515 -44.48 
L 251.297268 -44.48 
L 250.199386 -44.48 
L 249.101504 -44.48 
L 248.003622 -44.48 
L 246.905739 -44.48 
L 245.807857 -44.48 
L 244.709975 -44.48 
L 243.612093 -44.48 
L 242.514211 -44.48 
L 241.416328 -44.48 
L 240.318446 -44.48 
L 239.220564 -44.48 
L 238.122682 -44.48 
L 237.024799 -44.48 
L 235.926917 -44.48 
L 234.829035 -44.48 
L 233.731153 -44.48 
L 232.633271 -44.48 
L 231.535388 -44.48 
L 230.437506 -44.48 
L 229.339624 -44.48 
L 228.241742 -44.48 
L 227.14386 -44.48 
L 226.045977 -44.48 
L 224.948095 -44.48 
L 223.850213 -44.48 
L 222.752331 -44.48 
L 221.654449 -44.48 
L 220.556566 -44.48 
L 219.458684 -44.48 
L 218.360802 -44.48 
L 217.26292 -44.48 
L 216.165038 -44.48 
L 215.067155 -44.48 
L 213.969273 -44.48 
L 212.871391 -44.48 
L 211.773509 -44.48 
L 210.675627 -44.48 
L 209.577744 -44.48 
L 208.479862 -44.48 
L 207.38198 -44.48 
L 206.284098 -44.48 
L 205.186216 -44.48 
L 204.088333 -44.48 
L 202.990451 -44.48 
L 201.892569 -44.48 
L 200.794687 -44.48 
L 199.696805 -44.48 
L 198.598922 -44.48 
L 197.50104 -44.48 
L 196.403158 -44.48 
L 195.305276 -44.48 
L 194.207393 -44.48 
L 193.109511 -44.48 
L 192.011629 -44.48 
L 190.913747 -44.48 
L 189.815865 -44.48 
L 188.717982 -44.48 
L 187.6201 -44.48 
L 186.522218 -44.48 
L 185.424336 -44.48 
L 184.326454 -44.48 
L 183.228571 -44.48 
L 182.130689 -44.48 
L 181.032807 -44.48 
L 179.934925 -44.48 
L 178.837043 -44.48 
L 177.73916 -44.48 
L 176.641278 -44.48 
L 175.543396 -44.48 
L 174.445514 -44.48 
L 173.347632 -44.48 
L 172.249749 -44.48 
L 171.151867 -44.48 
L 170.053985 -44.48 
L 168.956103 -44.48 
L 167.858221 -44.48 
L 166.760338 -44.48 
L 165.662456 -44.48 
L 164.564574 -44.48 
L 163.466692 -44.48 
L 162.36881 -44.48 
L 161.270927 -44.48 
L 160.173045 -44.48 
L 159.075163 -44.48 
L 157.977281 -44.48 
L 156.879398 -44.48 
L 155.781516 -44.48 
L 154.683634 -44.48 
L 153.585752 -44.48 
L 152.48787 -44.48 
L 151.389987 -44.48 
L 150.292105 -44.48 
L 149.194223 -44.48 
L 148.096341 -44.48 
L 146.998459 -44.48 
L 145.900576 -44.48 
L 144.802694 -44.48 
L 143.704812 -44.48 
L 142.60693 -44.48 
L 141.509048 -44.48 
L 140.411165 -44.48 
L 139.313283 -44.48 
L 138.215401 -44.48 
L 137.117519 -44.48 
L 136.019637 -44.48 
L 134.921754 -44.48 
L 133.823872 -44.48 
L 132.72599 -44.48 
L 131.628108 -44.48 
L 130.530226 -44.48 
L 129.432343 -44.48 
L 128.334461 -44.48 
L 127.236579 -44.48 
L 126.138697 -44.48 
L 125.040815 -44.48 
L 123.942932 -44.48 
L 122.84505 -44.48 
L 121.747168 -44.48 
L 120.649286 -44.48 
L 119.551404 -44.48 
L 118.453521 -44.48 
L 117.355639 -44.48 
L 116.257757 -44.48 
L 115.159875 -44.48 
L 114.061992 -44.48 
L 112.96411 -44.48 
L 111.866228 -44.48 
L 110.768346 -44.48 
L 109.670464 -44.48 
L 108.572581 -44.48 
L 107.474699 -44.48 
L 106.376817 -44.48 
L 105.278935 -44.48 
L 104.181053 -44.48 
L 103.08317 -44.48 
L 101.985288 -44.48 
L 100.887406 -44.48 
L 99.789524 -44.48 
L 98.691642 -44.48 
L 97.593759 -44.48 
L 96.495877 -44.48 
L 95.397995 -44.48 
L 94.300113 -44.48 
L 93.202231 -44.48 
L 92.104348 -44.48 
L 91.006466 -44.48 
L 89.908584 -44.48 
L 88.810702 -44.48 
L 87.71282 -44.48 
L 86.614937 -44.48 
L 85.517055 -44.48 
L 84.419173 -44.48 
L 83.321291 -44.48 
L 82.223409 -44.48 
L 81.125526 -44.48 
L 80.027644 -44.48 
L 78.929762 -44.48 
L 77.83188 -44.48 
L 76.733997 -44.48 
L 75.636115 -44.48 
L 74.538233 -44.48 
L 73.440351 -44.48 
L 72.342469 -44.48 
L 71.244586 -44.48 
L 70.146704 -44.48 
L 69.048822 -44.48 
L 67.95094 -44.48 
L 66.853058 -44.48 
L 65.755175 -44.48 
L 64.657293 -44.48 
L 63.559411 -44.48 
L 62.461529 -44.48 
L 61.363647 -44.48 
L 60.265764 -44.48 
L 59.167882 -44.48 
L 58.07 -44.48 
z
" style="stroke: #41607f; stroke-opacity: 0.18"/>
    </defs>
    <g clip-path="url(#p4b48b79dab)">
     <use xlink:href="#m6a5a1d6333" x="0" y="316.8" style="fill: #41607f; fill-opacity: 0.18; stroke: #41607f; stroke-opacity: 0.18"/>
    </g>
   </g>
   <g id="line2d_27">
    <path d="M 58.07 271.924821 
L 84.419173 271.517583 
L 105.278935 270.98669 
L 122.84505 270.340031 
L 133.823872 269.756063 
L 140.411165 269.188287 
L 144.802694 268.573904 
L 148.096341 267.880505 
L 150.292105 267.25025 
L 152.48787 266.437038 
L 154.683634 265.388524 
L 156.879398 264.041919 
L 159.075163 262.323629 
L 161.270927 260.149524 
L 163.466692 257.426072 
L 165.662456 254.05253 
L 167.858221 249.924352 
L 170.053985 244.93793 
L 172.249749 238.996648 
L 174.445514 232.018141 
L 176.641278 223.942455 
L 178.837043 214.740693 
L 181.032807 204.423528 
L 183.228571 193.048881 
L 185.424336 180.727953 
L 188.717982 160.855699 
L 197.50104 106.266214 
L 199.696805 94.147754 
L 201.892569 83.398355 
L 204.088333 74.370647 
L 205.186216 70.600532 
L 206.284098 67.371203 
L 207.38198 64.710884 
L 208.479862 62.64288 
L 209.577744 61.185227 
L 210.675627 60.35041 
L 211.773509 60.145178 
L 212.871391 60.570434 
L 213.969273 61.621227 
L 215.067155 63.286825 
L 216.165038 65.55088 
L 217.26292 68.391684 
L 218.360802 71.782494 
L 219.458684 75.691944 
L 221.654449 84.921005 
L 223.850213 95.754428 
L 226.045977 107.828404 
L 229.339624 127.426202 
L 235.926917 167.437069 
L 239.220564 185.783434 
L 241.416328 196.899682 
L 243.612093 206.976788 
L 245.807857 215.949518 
L 248.003622 223.800914 
L 250.199386 230.5548 
L 252.39515 236.267355 
L 254.590915 241.01844 
L 256.786679 244.903332 
L 258.982444 248.025311 
L 261.178208 250.48941 
L 263.373972 252.397477 
L 265.569737 253.844568 
L 267.765501 254.916582 
L 269.961266 255.688985 
L 272.15703 256.22642 
L 275.450677 256.707649 
L 278.744323 256.922036 
L 283.135852 256.962875 
L 290.821028 256.743266 
L 308.387143 256.165012 
L 319.365965 256.031343 
L 330.344787 256.107327 
L 341.323609 256.390974 
L 353.400313 256.929689 
L 366.5749 257.759738 
L 380.847368 258.894654 
L 398.413484 260.531123 
L 465.384298 267.024866 
L 482.950414 268.357358 
L 496.125 269.200416 
L 496.125 269.200416 
" clip-path="url(#p4b48b79dab)" style="fill: none; stroke: #1f3a5f; stroke-width: 2.6; stroke-linecap: square"/>
   </g>
   <g id="line2d_28">
    <path d="M 211.38925 272.32 
L 211.38925 27.96 
" clip-path="url(#p4b48b79dab)" style="fill: none; stroke-dasharray: 5.6,4.2; stroke-dashoffset: 0; stroke: #c8553d; stroke-width: 1.4"/>
   </g>
   <g id="line2d_29">
    <path d="M 320.903 272.32 
L 320.903 27.96 
" clip-path="url(#p4b48b79dab)" style="fill: none; stroke-dasharray: 0.8,1.32; stroke-dashoffset: 0; stroke: #8a99a8; stroke-width: 0.8"/>
   </g>
   <g id="patch_3">
    <path d="M 58.07 272.32 
L 58.07 27.96 
" style="fill: none; stroke: #41607f; stroke-width: 0.8; stroke-linejoin: miter; stroke-linecap: square"/>
   </g>
   <g id="patch_4">
    <path d="M 496.125 272.32 
L 496.125 27.96 
" style="fill: none; stroke: #41607f; stroke-width: 0.8; stroke-linejoin: miter; stroke-linecap: square"/>
   </g>
   <g id="patch_5">
    <path d="M 58.07 272.32 
L 496.125 272.32 
" style="fill: none; stroke: #41607f; stroke-width: 0.8; stroke-linejoin: miter; stroke-linecap: square"/>
   </g>
   <g id="patch_6">
    <path d="M 58.07 27.96 
L 496.125 27.96 
" style="fill: none; stroke: #41607f; stroke-width: 0.8; stroke-linejoin: miter; stroke-linecap: square"/>
   </g>
   <g id="text_16">
    <text style="font-size: 8px; font-family: 'DejaVu Sans'; text-anchor: start; fill: #8a99a8" x="325.28355" y="256.029333" transform="rotate(-0 325.28355 256.029333)">Initial</text>
   </g>
   <g id="patch_7">
    <path d="M 268.716692 96.65075 
Q 245.430992 94.959169 223.260389 93.348594 
" style="fill: none; stroke: #c8553d; stroke-linecap: round"/>
    <path d="M 226.72051 95.404697 
L 223.260389 93.348594 
L 226.981344 91.814158 
" style="fill: none; stroke: #c8553d; stroke-linecap: round"/>
   </g>
   <g id="text_17">
    <text style="font-size: 9px; font-family: 'DejaVu Sans'; fill: #c8553d" transform="translate(272.71695 99.335302)">Barrier 75% — gamma spikes,</text>
    <text style="font-size: 9px; font-family: 'DejaVu Sans'; fill: #c8553d" transform="translate(272.71695 109.413333)">hedging expensive</text>
   </g>
   <g id="text_18">
    <g id="patch_8">
     <path d="M 216.081284 66.209747 
L 489.554175 66.209747 
Q 492.954175 66.209747 492.954175 62.809747 
L 492.954175 45.0652 
Q 492.954175 41.6652 489.554175 41.6652 
L 216.081284 41.6652 
Q 212.681284 41.6652 212.681284 45.0652 
L 212.681284 62.809747 
Q 212.681284 66.209747 216.081284 66.209747 
z
" style="fill: #ffffff; stroke: #41607f; stroke-width: 0.8; stroke-linejoin: miter"/>
    </g>
    <text style="font-size: 8.5px; font-family: 'DejaVu Sans'; fill: #41607f" transform="translate(216.081284 51.523872)">Desk is LONG the embedded put (mirror of investor's short put);</text>
    <text style="font-size: 8.5px; font-family: 'DejaVu Sans'; fill: #41607f" transform="translate(320.000425 61.042013)">delta-hedges by trading the underlying.</text>
   </g>
   <g id="text_19">
    <text style="font-weight: 700; font-size: 13px; font-family: 'DejaVu Sans'; text-anchor: start; fill: #1f3a5f" x="58.07" y="21.96" transform="rotate(-0 58.07 21.96)">Airbag Desk Position &amp; Hedge — Bank Lens (Desk Economics)</text>
   </g>
  </g>
 </g>
 <defs>
  <clipPath id="p4b48b79dab">
   <rect x="58.07" y="27.96" width="438.055" height="244.36"/>
  </clipPath>
 </defs>
</svg>
