<?xml version="1.0" encoding="utf-8" standalone="no"?>
<!DOCTYPE svg PUBLIC "-//W3C//DTD SVG 1.1//EN"
  "http://www.w3.org/Graphics/SVG/1.1/DTD/svg11.dtd">
<svg xmlns:xlink="http://www.w3.org/1999/xlink" width="518.4pt" height="316.8pt" viewBox="0 0 518.4 316.8" xmlns="http://www.w3.org/2000/svg" version="1.1">
 <metadata>
  <rdf:RDF xmlns:dc="http://purl.org/dc/elements/1.1/" xmlns:cc="http://creativecommons.org/ns#" xmlns:rdf="http://www.w3.org/1999/02/22-rdf-syntax-ns#">
   <cc:Work>
    <dc:type rdf:resource="http://purl.org/dc/dcmitype/StillImage"/>
    <dc:date>2026-06-27T14:53:42.930142</dc:date>
    <dc:format>image/svg+xml</dc:format>
    <dc:creator>
     <cc:Agent>
      <dc:title>Matplotlib v3.10.9, https://matplotlib.org/</dc:title>
     </cc:Agent>
    </dc:creator>
   </cc:Work>
  </rdf:RDF>
 </metadata>
 <defs>
  <style type="text/css">*{stroke-linejoin: round; stroke-linecap: butt}</style>
 </defs>
 <g id="figure_1">
  <g id="patch_1">
   <path d="M 0 316.8 
L 518.4 316.8 
L 518.4 0 
L 0 0 
z
" style="fill: #ffffff"/>
  </g>
  <g id="axes_1">
   <g id="patch_2">
    <path d="M 58.07 272.32 
L 348.1596 272.32 
L 348.1596 27.96 
L 58.07 27.96 
z
" style="fill: #ffffff"/>
   </g>
   <g id="matplotlib.axis_1">
    <g id="xtick_1">
     <g id="line2d_1">
      <path d="M 58.07 272.32 
L 58.07 27.96 
" clip-path="url(#pe044def5f5)" style="fill: none; stroke: #eef2f6; stroke-linecap: square"/>
     </g>
     <g id="line2d_2">
      <defs>
       <path id="m8c789b578c" d="M 0 0 
L 0 3.5 
" style="stroke: #41607f; stroke-width: 0.8"/>
      </defs>
      <g>
       <use xlink:href="#m8c789b578c" x="58.07" y="272.32" style="fill: #41607f; stroke: #41607f; stroke-width: 0.8"/>
      </g>
     </g>
     <g id="text_1">
      <text style="font-size: 11px; font-family: 'DejaVu Sans'; text-anchor: middle; fill: #41607f" x="58.07" y="287.678281" transform="rotate(-0 58.07 287.678281)">40</text>
     </g>
    </g>
    <g id="xtick_2">
     <g id="line2d_3">
      <path d="M 116.08792 272.32 
L 116.08792 27.96 
" clip-path="url(#pe044def5f5)" style="fill: none; stroke: #eef2f6; stroke-linecap: square"/>
     </g>
     <g id="line2d_4">
      <g>
       <use xlink:href="#m8c789b578c" x="116.08792" y="272.32" style="fill: #41607f; stroke: #41607f; stroke-width: 0.8"/>
      </g>
     </g>
     <g id="text_2">
      <text style="font-size: 11px; font-family: 'DejaVu Sans'; text-anchor: middle; fill: #41607f" x="116.08792" y="287.678281" transform="rotate(-0 116.08792 287.678281)">60</text>
     </g>
    </g>
    <g id="xtick_3">
     <g id="line2d_5">
      <path d="M 174.10584 272.32 
L 174.10584 27.96 
" clip-path="url(#pe044def5f5)" style="fill: none; stroke: #eef2f6; stroke-linecap: square"/>
     </g>
     <g id="line2d_6">
      <g>
       <use xlink:href="#m8c789b578c" x="174.10584" y="272.32" style="fill: #41607f; stroke: #41607f; stroke-width: 0.8"/>
      </g>
     </g>
     <g id="text_3">
      <text style="font-size: 11px; font-family: 'DejaVu Sans'; text-anchor: middle; fill: #41607f" x="174.10584" y="287.678281" transform="rotate(-0 174.10584 287.678281)">80</text>
     </g>
    </g>
    <g id="xtick_4">
     <g id="line2d_7">
      <path d="M 232.12376 272.32 
L 232.12376 27.96 
" clip-path="url(#pe044def5f5)" style="fill: none; stroke: #eef2f6; stroke-linecap: square"/>
     </g>
     <g id="line2d_8">
      <g>
       <use xlink:href="#m8c789b578c" x="232.12376" y="272.32" style="fill: #41607f; stroke: #41607f; stroke-width: 0.8"/>
      </g>
     </g>
     <g id="text_4">
      <text style="font-size: 11px; font-family: 'DejaVu Sans'; text-anchor: middle; fill: #41607f" x="232.12376" y="287.678281" transform="rotate(-0 232.12376 287.678281)">100</text>
     </g>
    </g>
    <g id="xtick_5">
     <g id="line2d_9">
      <path d="M 290.14168 272.32 
L 290.14168 27.96 
" clip-path="url(#pe044def5f5)" style="fill: none; stroke: #eef2f6; stroke-linecap: square"/>
     </g>
     <g id="line2d_10">
      <g>
       <use xlink:href="#m8c789b578c" x="290.14168" y="272.32" style="fill: #41607f; stroke: #41607f; stroke-width: 0.8"/>
      </g>
     </g>
     <g id="text_5">
      <text style="font-size: 11px; font-family: 'DejaVu Sans'; text-anchor: middle; fill: #41607f" x="290.14168" y="287.678281" transform="rotate(-0 290.14168 287.678281)">120</text>
     </g>
    </g>
    <g id="xtick_6">
     <g id="line2d_11">
      <path d="M 348.1596 272.32 
L 348.1596 27.96 
" clip-path="url(#pe044def5f5)" style="fill: none; stroke: #eef2f6; stroke-linecap: square"/>
     </g>
     <g id="line2d_12">
      <g>
       <use xlink:href="#m8c789b578c" x="348.1596" y="272.32" style="fill: #41607f; stroke: #41607f; stroke-width: 0.8"/>
      </g>
     </g>
     <g id="text_6">
      <text style="font-size: 11px; font-family: 'DejaVu Sans'; text-anchor: middle; fill: #41607f" x="348.1596" y="287.678281" transform="rotate(-0 348.1596 287.678281)">140</text>
     </g>
    </g>
    <g id="text_7">
     <text style="font-size: 11px; font-family: 'DejaVu Sans'; text-anchor: middle; fill: #1f3a5f" x="203.1148" y="302.324219" transform="rotate(-0 203.1148 302.324219)">Underlying spot (% of initial)</text>
    </g>
   </g>
   <g id="matplotlib.axis_2">
    <g id="ytick_1">
     <g id="line2d_13">
      <path d="M 58.07 272.32 
L 348.1596 272.32 
" clip-path="url(#pe044def5f5)" style="fill: none; stroke: #eef2f6; stroke-linecap: square"/>
     </g>
     <g id="line2d_14">
      <defs>
       <path id="mf3fe58e72e" d="M 0 0 
L -3.5 0 
" style="stroke: #41607f; stroke-width: 0.8"/>
      </defs>
      <g>
       <use xlink:href="#mf3fe58e72e" x="58.07" y="272.32" style="fill: #41607f; stroke: #41607f; stroke-width: 0.8"/>
      </g>
     </g>
     <g id="text_8">
      <text style="font-size: 11px; font-family: 'DejaVu Sans'; text-anchor: end; fill: #41607f" x="51.07" y="276.499141" transform="rotate(-0 51.07 276.499141)">0.00</text>
     </g>
    </g>
    <g id="ytick_2">
     <g id="line2d_15">
      <path d="M 58.07 231.593333 
L 348.1596 231.593333 
" clip-path="url(#pe044def5f5)" style="fill: none; stroke: #eef2f6; stroke-linecap: square"/>
     </g>
     <g id="line2d_16">
      <g>
       <use xlink:href="#mf3fe58e72e" x="58.07" y="231.593333" style="fill: #41607f; stroke: #41607f; stroke-width: 0.8"/>
      </g>
     </g>
     <g id="text_9">
      <text style="font-size: 11px; font-family: 'DejaVu Sans'; text-anchor: end; fill: #41607f" x="51.07" y="235.772474" transform="rotate(-0 51.07 235.772474)">0.05</text>
     </g>
    </g>
    <g id="ytick_3">
     <g id="line2d_17">
      <path d="M 58.07 190.866667 
L 348.1596 190.866667 
" clip-path="url(#pe044def5f5)" style="fill: none; stroke: #eef2f6; stroke-linecap: square"/>
     </g>
     <g id="line2d_18">
      <g>
       <use xlink:href="#mf3fe58e72e" x="58.07" y="190.866667" style="fill: #41607f; stroke: #41607f; stroke-width: 0.8"/>
      </g>
     </g>
     <g id="text_10">
      <text style="font-size: 11px; font-family: 'DejaVu Sans'; text-anchor: end; fill: #41607f" x="51.07" y="195.045807" transform="rotate(-0 51.07 195.045807)">0.10</text>
     </g>
    </g>
    <g id="ytick_4">
     <g id="line2d_19">
      <path d="M 58.07 150.14 
L 348.1596 150.14 
" clip-path="url(#pe044def5f5)" style="fill: none; stroke: #eef2f6; stroke-linecap: square"/>
     </g>
     <g id="line2d_20">
      <g>
       <use xlink:href="#mf3fe58e72e" x="58.07" y="150.14" style="fill: #41607f; stroke: #41607f; stroke-width: 0.8"/>
      </g>
     </g>
     <g id="text_11">
      <text style="font-size: 11px; font-family: 'DejaVu Sans'; text-anchor: end; fill: #41607f" x="51.07" y="154.319141" transform="rotate(-0 51.07 154.319141)">0.15</text>
     </g>
    </g>
    <g id="ytick_5">
     <g id="line2d_21">
      <path d="M 58.07 109.413333 
L 348.1596 109.413333 
" clip-path="url(#pe044def5f5)" style="fill: none; stroke: #eef2f6; stroke-linecap: square"/>
     </g>
     <g id="line2d_22">
      <g>
       <use xlink:href="#mf3fe58e72e" x="58.07" y="109.413333" style="fill: #41607f; stroke: #41607f; stroke-width: 0.8"/>
      </g>
     </g>
     <g id="text_12">
      <text style="font-size: 11px; font-family: 'DejaVu Sans'; text-anchor: end; fill: #41607f" x="51.07" y="113.592474" transform="rotate(-0 51.07 113.592474)">0.20</text>
     </g>
    </g>
    <g id="ytick_6">
     <g id="line2d_23">
      <path d="M 58.07 68.686667 
L 348.1596 68.686667 
" clip-path="url(#pe044def5f5)" style="fill: none; stroke: #eef2f6; stroke-linecap: square"/>
     </g>
     <g id="line2d_24">
      <g>
       <use xlink:href="#mf3fe58e72e" x="58.07" y="68.686667" style="fill: #41607f; stroke: #41607f; stroke-width: 0.8"/>
      </g>
     </g>
     <g id="text_13">
      <text style="font-size: 11px; font-family: 'DejaVu Sans'; text-anchor: end; fill: #41607f" x="51.07" y="72.865807" transform="rotate(-0 51.07 72.865807)">0.25</text>
     </g>
    </g>
    <g id="ytick_7">
     <g id="line2d_25">
      <path d="M 58.07 27.96 
L 348.1596 27.96 
" clip-path="url(#pe044def5f5)" style="fill: none; stroke: #eef2f6; stroke-linecap: square"/>
     </g>
     <g id="line2d_26">
      <g>
       <use xlink:href="#mf3fe58e72e" x="58.07" y="27.96" style="fill: #41607f; stroke: #41607f; stroke-width: 0.8"/>
      </g>
     </g>
     <g id="text_14">
      <text style="font-size: 11px; font-family: 'DejaVu Sans'; text-anchor: end; fill: #41607f" x="51.07" y="32.139141" transform="rotate(-0 51.07 32.139141)">0.30</text>
     </g>
    </g>
    <g id="text_15">
     <text style="font-size: 11px; font-family: 'DejaVu Sans'; text-anchor: middle; fill: #1f3a5f" x="20.290156" y="150.14" transform="rotate(-90 20.290156 150.14)">Desk gamma (long option)</text>
    </g>
   </g>
   <g id="FillBetweenPolyCollection_1">
    <defs>
     <path id="m2ac5ae88f6" d="M 58.07 -44.48 
L 58.07 -44.875179 
L 58.797042 -44.887623 
L 59.524083 -44.900405 
L 60.251125 -44.913531 
L 60.978166 -44.927009 
L 61.705208 -44.940846 
L 62.43225 -44.95505 
L 63.159291 -44.969628 
L 63.886333 -44.984588 
L 64.613374 -44.999937 
L 65.340416 -45.015684 
L 66.067458 -45.031836 
L 66.794499 -45.048402 
L 67.521541 -45.065388 
L 68.248582 -45.082804 
L 68.975624 -45.100658 
L 69.702666 -45.118958 
L 70.429707 -45.137711 
L 71.156749 -45.156928 
L 71.88379 -45.176615 
L 72.610832 -45.196782 
L 73.337874 -45.217437 
L 74.064915 -45.238589 
L 74.791957 -45.260246 
L 75.518998 -45.282417 
L 76.24604 -45.305111 
L 76.973082 -45.328337 
L 77.700123 -45.352104 
L 78.427165 -45.37642 
L 79.154207 -45.401294 
L 79.881248 -45.426736 
L 80.60829 -45.452754 
L 81.335331 -45.479358 
L 82.062373 -45.506556 
L 82.789415 -45.534357 
L 83.516456 -45.56277 
L 84.243498 -45.591805 
L 84.970539 -45.621471 
L 85.697581 -45.651776 
L 86.424623 -45.682729 
L 87.151664 -45.71434 
L 87.878706 -45.746617 
L 88.605747 -45.779569 
L 89.332789 -45.813206 
L 90.059831 -45.847536 
L 90.786872 -45.882568 
L 91.513914 -45.918311 
L 92.240955 -45.954773 
L 92.967997 -45.991963 
L 93.695039 -46.02989 
L 94.42208 -46.068562 
L 95.149122 -46.107988 
L 95.876163 -46.148175 
L 96.603205 -46.189133 
L 97.330247 -46.230869 
L 98.057288 -46.273392 
L 98.78433 -46.316709 
L 99.511371 -46.360828 
L 100.238413 -46.405757 
L 100.965455 -46.451504 
L 101.692496 -46.498075 
L 102.419538 -46.545478 
L 103.146579 -46.593721 
L 103.873621 -46.642809 
L 104.600663 -46.69275 
L 105.327704 -46.743551 
L 106.054746 -46.795217 
L 106.781787 -46.847756 
L 107.508829 -46.901172 
L 108.235871 -46.955472 
L 108.962912 -47.010662 
L 109.689954 -47.066746 
L 110.416995 -47.12373 
L 111.144037 -47.181619 
L 111.871079 -47.240417 
L 112.59812 -47.300129 
L 113.325162 -47.360758 
L 114.052204 -47.422309 
L 114.779245 -47.484786 
L 115.506287 -47.54819 
L 116.233328 -47.612526 
L 116.96037 -47.677796 
L 117.687412 -47.744002 
L 118.414453 -47.811147 
L 119.141495 -47.879232 
L 119.868536 -47.948258 
L 120.595578 -48.018227 
L 121.32262 -48.089138 
L 122.049661 -48.160993 
L 122.776703 -48.233792 
L 123.503744 -48.307533 
L 124.230786 -48.382217 
L 124.957828 -48.457842 
L 125.684869 -48.534406 
L 126.411911 -48.611907 
L 127.138952 -48.690344 
L 127.865994 -48.769712 
L 128.593036 -48.85001 
L 129.320077 -48.931233 
L 130.047119 -49.013377 
L 130.77416 -49.096438 
L 131.501202 -49.180411 
L 132.228244 -49.26529 
L 132.955285 -49.351069 
L 133.682327 -49.437743 
L 134.409368 -49.525305 
L 135.13641 -49.613746 
L 135.863452 -49.70306 
L 136.590493 -49.793238 
L 137.317535 -49.884272 
L 138.044576 -49.976152 
L 138.771618 -50.068868 
L 139.49866 -50.162412 
L 140.225701 -50.256771 
L 140.952743 -50.351935 
L 141.679784 -50.447892 
L 142.406826 -50.54463 
L 143.133868 -50.642136 
L 143.860909 -50.740398 
L 144.587951 -50.839401 
L 145.314992 -50.939131 
L 146.042034 -51.039574 
L 146.769076 -51.140715 
L 147.496117 -51.242537 
L 148.223159 -51.345025 
L 148.950201 -51.448162 
L 149.677242 -51.55193 
L 150.404284 -51.656312 
L 151.131325 -51.76129 
L 151.858367 -51.866845 
L 152.585409 -51.972957 
L 153.31245 -52.079608 
L 154.039492 -52.186776 
L 154.766533 -52.294441 
L 155.493575 -52.402582 
L 156.220617 -52.511177 
L 156.947658 -52.620204 
L 157.6747 -52.729641 
L 158.401741 -52.839464 
L 159.128783 -52.94965 
L 159.855825 -53.060174 
L 160.582866 -53.171013 
L 161.309908 -53.282141 
L 162.036949 -53.393533 
L 162.763991 -53.505163 
L 163.491033 -53.617006 
L 164.218074 -53.729034 
L 164.945116 -53.841221 
L 165.672157 -53.953539 
L 166.399199 -54.06596 
L 167.126241 -54.178457 
L 167.853282 -54.291001 
L 168.580324 -54.403563 
L 169.307365 -54.516113 
L 170.034407 -54.628623 
L 170.761449 -54.741062 
L 171.48849 -54.853401 
L 172.215532 -54.965609 
L 172.942573 -55.077655 
L 173.669615 -55.189508 
L 174.396657 -55.301138 
L 175.123698 -55.412512 
L 175.85074 -55.523599 
L 176.577781 -55.634367 
L 177.304823 -55.744784 
L 178.031865 -55.854818 
L 178.758906 -55.964436 
L 179.485948 -56.073606 
L 180.212989 -56.182294 
L 180.940031 -56.290469 
L 181.667073 -56.398097 
L 182.394114 -56.505145 
L 183.121156 -56.611579 
L 183.848197 -56.717368 
L 184.575239 -56.822477 
L 185.302281 -56.926874 
L 186.029322 -57.030524 
L 186.756364 -57.133396 
L 187.483406 -57.235455 
L 188.210447 -57.336669 
L 188.937489 -57.437004 
L 189.66453 -57.536428 
L 190.391572 -57.634907 
L 191.118614 -57.732409 
L 191.845655 -57.828901 
L 192.572697 -57.924351 
L 193.299738 -58.018726 
L 194.02678 -58.111994 
L 194.753822 -58.204124 
L 195.480863 -58.295083 
L 196.207905 -58.38484 
L 196.934946 -58.473364 
L 197.661988 -58.560625 
L 198.38903 -58.646591 
L 199.116071 -58.731232 
L 199.843113 -58.814518 
L 200.570154 -58.89642 
L 201.297196 -58.976908 
L 202.024238 -59.055954 
L 202.751279 -59.133529 
L 203.478321 -59.209606 
L 204.205362 -59.284155 
L 204.932404 -59.357152 
L 205.659446 -59.428568 
L 206.386487 -59.498377 
L 207.113529 -59.566555 
L 207.84057 -59.633075 
L 208.567612 -59.697913 
L 209.294654 -59.761046 
L 210.021695 -59.822449 
L 210.748737 -59.8821 
L 211.475778 -59.939977 
L 212.20282 -59.996057 
L 212.929862 -60.050319 
L 213.656903 -60.102744 
L 214.383945 -60.153311 
L 215.110986 -60.202001 
L 215.838028 -60.248796 
L 216.56507 -60.293678 
L 217.292111 -60.336629 
L 218.019153 -60.377634 
L 218.746194 -60.416676 
L 219.473236 -60.453741 
L 220.200278 -60.488815 
L 220.927319 -60.521883 
L 221.654361 -60.552934 
L 222.381403 -60.581955 
L 223.108444 -60.608935 
L 223.835486 -60.633863 
L 224.562527 -60.656731 
L 225.289569 -60.677528 
L 226.016611 -60.696248 
L 226.743652 -60.712882 
L 227.470694 -60.727425 
L 228.197735 -60.739871 
L 228.924777 -60.750214 
L 229.651819 -60.758451 
L 230.37886 -60.764579 
L 231.105902 -60.768595 
L 231.832943 -60.770498 
L 232.559985 -60.770286 
L 233.287027 -60.767961 
L 234.014068 -60.763522 
L 234.74111 -60.756973 
L 235.468151 -60.748314 
L 236.195193 -60.73755 
L 236.922235 -60.724685 
L 237.649276 -60.709723 
L 238.376318 -60.692672 
L 239.103359 -60.673536 
L 239.830401 -60.652324 
L 240.557443 -60.629045 
L 241.284484 -60.603706 
L 242.011526 -60.576319 
L 242.738567 -60.546893 
L 243.465609 -60.515441 
L 244.192651 -60.481974 
L 244.919692 -60.446506 
L 245.646734 -60.409052 
L 246.373775 -60.369626 
L 247.100817 -60.328244 
L 247.827859 -60.284922 
L 248.5549 -60.23968 
L 249.281942 -60.192537 
L 250.008983 -60.143512 
L 250.736025 -60.092628 
L 251.463067 -60.039909 
L 252.190108 -59.985379 
L 252.91715 -59.929068 
L 253.644191 -59.871005 
L 254.371233 -59.811223 
L 255.098275 -59.749762 
L 255.825316 -59.686662 
L 256.552358 -59.621973 
L 257.279399 -59.555748 
L 258.006441 -59.488051 
L 258.733483 -59.418956 
L 259.460524 -59.348549 
L 260.187566 -59.276931 
L 260.914608 -59.204221 
L 261.641649 -59.130563 
L 262.368691 -59.056123 
L 263.095732 -58.981103 
L 263.822774 -58.905741 
L 264.549816 -58.830323 
L 265.276857 -58.755186 
L 266.003899 -58.680735 
L 266.73094 -58.607448 
L 267.457982 -58.535892 
L 268.185024 -58.466736 
L 268.912065 -58.400773 
L 269.639107 -58.33893 
L 270.366148 -58.282297 
L 271.09319 -58.232145 
L 271.820232 -58.189954 
L 272.547273 -58.15744 
L 273.274315 -58.136584 
L 274.001356 -58.129666 
L 274.728398 -58.139299 
L 275.45544 -58.168464 
L 276.182481 -58.220546 
L 276.909523 -58.299374 
L 277.636564 -58.409261 
L 278.363606 -58.555035 
L 279.090648 -58.742084 
L 279.817689 -58.976385 
L 280.544731 -59.264535 
L 281.271772 -59.613777 
L 281.998814 -60.032024 
L 282.725856 -60.527862 
L 283.452897 -61.110564 
L 284.179939 -61.790071 
L 284.90698 -62.576979 
L 285.634022 -63.4825 
L 286.361064 -64.518414 
L 287.088105 -65.696995 
L 287.815147 -67.030931 
L 288.542188 -68.533211 
L 289.26923 -70.217 
L 289.996272 -72.095489 
L 290.723313 -74.181725 
L 291.450355 -76.48842 
L 292.177396 -79.027742 
L 292.904438 -81.811081 
L 293.63148 -84.848811 
L 294.358521 -88.150027 
L 295.085563 -91.722278 
L 295.812605 -95.571297 
L 296.539646 -99.700723 
L 297.266688 -104.111837 
L 297.993729 -108.803295 
L 298.720771 -113.770893 
L 299.447813 -119.007343 
L 300.174854 -124.502081 
L 300.901896 -130.241115 
L 301.628937 -136.206909 
L 302.355979 -142.378315 
L 303.083021 -148.730563 
L 303.810062 -155.235305 
L 304.537104 -161.860713 
L 305.264145 -168.571655 
L 305.991187 -175.329917 
L 306.718229 -182.094507 
L 307.44527 -188.822007 
L 308.172312 -195.466991 
L 308.899353 -201.982498 
L 309.626395 -208.320551 
L 310.353437 -214.432715 
L 311.080478 -220.270697 
L 311.80752 -225.786952 
L 312.534561 -230.935319 
L 313.261603 -235.671643 
L 313.988645 -239.954391 
L 314.715686 -243.745246 
L 315.442728 -247.009664 
L 316.169769 -249.717381 
L 316.896811 -251.84287 
L 317.623853 -253.365724 
L 318.350894 -254.270972 
L 319.077936 -254.549303 
L 319.804977 -254.197217 
L 320.532019 -253.217073 
L 321.259061 -251.617057 
L 321.986102 -249.411055 
L 322.713144 -246.618438 
L 323.440185 -243.263768 
L 324.167227 -239.376424 
L 324.894269 -234.990163 
L 325.62131 -230.142622 
L 326.348352 -224.874764 
L 327.075393 -219.2303 
L 327.802435 -213.255068 
L 328.529477 -206.996417 
L 329.256518 -200.50257 
L 329.98356 -193.82201 
L 330.710602 -187.002883 
L 331.437643 -180.092425 
L 332.164685 -173.136438 
L 332.891726 -166.178805 
L 333.618768 -159.261067 
L 334.34581 -152.422045 
L 335.072851 -145.697539 
L 335.799893 -139.120083 
L 336.526934 -132.718761 
L 337.253976 -126.519094 
L 337.981018 -120.542984 
L 338.708059 -114.808714 
L 339.435101 -109.331009 
L 340.162142 -104.121135 
L 340.889184 -99.187051 
L 341.616226 -94.533592 
L 342.343267 -90.162682 
L 343.070309 -86.073576 
L 343.79735 -82.263114 
L 344.524392 -78.72599 
L 345.251434 -75.455025 
L 345.978475 -72.44144 
L 346.705517 -69.675126 
L 347.432558 -67.144904 
L 348.1596 -64.838773 
L 348.1596 -44.48 
L 348.1596 -44.48 
L 347.432558 -44.48 
L 346.705517 -44.48 
L 345.978475 -44.48 
L 345.251434 -44.48 
L 344.524392 -44.48 
L 343.79735 -44.48 
L 343.070309 -44.48 
L 342.343267 -44.48 
L 341.616226 -44.48 
L 340.889184 -44.48 
L 340.162142 -44.48 
L 339.435101 -44.48 
L 338.708059 -44.48 
L 337.981018 -44.48 
L 337.253976 -44.48 
L 336.526934 -44.48 
L 335.799893 -44.48 
L 335.072851 -44.48 
L 334.34581 -44.48 
L 333.618768 -44.48 
L 332.891726 -44.48 
L 332.164685 -44.48 
L 331.437643 -44.48 
L 330.710602 -44.48 
L 329.98356 -44.48 
L 329.256518 -44.48 
L 328.529477 -44.48 
L 327.802435 -44.48 
L 327.075393 -44.48 
L 326.348352 -44.48 
L 325.62131 -44.48 
L 324.894269 -44.48 
L 324.167227 -44.48 
L 323.440185 -44.48 
L 322.713144 -44.48 
L 321.986102 -44.48 
L 321.259061 -44.48 
L 320.532019 -44.48 
L 319.804977 -44.48 
L 319.077936 -44.48 
L 318.350894 -44.48 
L 317.623853 -44.48 
L 316.896811 -44.48 
L 316.169769 -44.48 
L 315.442728 -44.48 
L 314.715686 -44.48 
L 313.988645 -44.48 
L 313.261603 -44.48 
L 312.534561 -44.48 
L 311.80752 -44.48 
L 311.080478 -44.48 
L 310.353437 -44.48 
L 309.626395 -44.48 
L 308.899353 -44.48 
L 308.172312 -44.48 
L 307.44527 -44.48 
L 306.718229 -44.48 
L 305.991187 -44.48 
L 305.264145 -44.48 
L 304.537104 -44.48 
L 303.810062 -44.48 
L 303.083021 -44.48 
L 302.355979 -44.48 
L 301.628937 -44.48 
L 300.901896 -44.48 
L 300.174854 -44.48 
L 299.447813 -44.48 
L 298.720771 -44.48 
L 297.993729 -44.48 
L 297.266688 -44.48 
L 296.539646 -44.48 
L 295.812605 -44.48 
L 295.085563 -44.48 
L 294.358521 -44.48 
L 293.63148 -44.48 
L 292.904438 -44.48 
L 292.177396 -44.48 
L 291.450355 -44.48 
L 290.723313 -44.48 
L 289.996272 -44.48 
L 289.26923 -44.48 
L 288.542188 -44.48 
L 287.815147 -44.48 
L 287.088105 -44.48 
L 286.361064 -44.48 
L 285.634022 -44.48 
L 284.90698 -44.48 
L 284.179939 -44.48 
L 283.452897 -44.48 
L 282.725856 -44.48 
L 281.998814 -44.48 
L 281.271772 -44.48 
L 280.544731 -44.48 
L 279.817689 -44.48 
L 279.090648 -44.48 
L 278.363606 -44.48 
L 277.636564 -44.48 
L 276.909523 -44.48 
L 276.182481 -44.48 
L 275.45544 -44.48 
L 274.728398 -44.48 
L 274.001356 -44.48 
L 273.274315 -44.48 
L 272.547273 -44.48 
L 271.820232 -44.48 
L 271.09319 -44.48 
L 270.366148 -44.48 
L 269.639107 -44.48 
L 268.912065 -44.48 
L 268.185024 -44.48 
L 267.457982 -44.48 
L 266.73094 -44.48 
L 266.003899 -44.48 
L 265.276857 -44.48 
L 264.549816 -44.48 
L 263.822774 -44.48 
L 263.095732 -44.48 
L 262.368691 -44.48 
L 261.641649 -44.48 
L 260.914608 -44.48 
L 260.187566 -44.48 
L 259.460524 -44.48 
L 258.733483 -44.48 
L 258.006441 -44.48 
L 257.279399 -44.48 
L 256.552358 -44.48 
L 255.825316 -44.48 
L 255.098275 -44.48 
L 254.371233 -44.48 
L 253.644191 -44.48 
L 252.91715 -44.48 
L 252.190108 -44.48 
L 251.463067 -44.48 
L 250.736025 -44.48 
L 250.008983 -44.48 
L 249.281942 -44.48 
L 248.5549 -44.48 
L 247.827859 -44.48 
L 247.100817 -44.48 
L 246.373775 -44.48 
L 245.646734 -44.48 
L 244.919692 -44.48 
L 244.192651 -44.48 
L 243.465609 -44.48 
L 242.738567 -44.48 
L 242.011526 -44.48 
L 241.284484 -44.48 
L 240.557443 -44.48 
L 239.830401 -44.48 
L 239.103359 -44.48 
L 238.376318 -44.48 
L 237.649276 -44.48 
L 236.922235 -44.48 
L 236.195193 -44.48 
L 235.468151 -44.48 
L 234.74111 -44.48 
L 234.014068 -44.48 
L 233.287027 -44.48 
L 232.559985 -44.48 
L 231.832943 -44.48 
L 231.105902 -44.48 
L 230.37886 -44.48 
L 229.651819 -44.48 
L 228.924777 -44.48 
L 228.197735 -44.48 
L 227.470694 -44.48 
L 226.743652 -44.48 
L 226.016611 -44.48 
L 225.289569 -44.48 
L 224.562527 -44.48 
L 223.835486 -44.48 
L 223.108444 -44.48 
L 222.381403 -44.48 
L 221.654361 -44.48 
L 220.927319 -44.48 
L 220.200278 -44.48 
L 219.473236 -44.48 
L 218.746194 -44.48 
L 218.019153 -44.48 
L 217.292111 -44.48 
L 216.56507 -44.48 
L 215.838028 -44.48 
L 215.110986 -44.48 
L 214.383945 -44.48 
L 213.656903 -44.48 
L 212.929862 -44.48 
L 212.20282 -44.48 
L 211.475778 -44.48 
L 210.748737 -44.48 
L 210.021695 -44.48 
L 209.294654 -44.48 
L 208.567612 -44.48 
L 207.84057 -44.48 
L 207.113529 -44.48 
L 206.386487 -44.48 
L 205.659446 -44.48 
L 204.932404 -44.48 
L 204.205362 -44.48 
L 203.478321 -44.48 
L 202.751279 -44.48 
L 202.024238 -44.48 
L 201.297196 -44.48 
L 200.570154 -44.48 
L 199.843113 -44.48 
L 199.116071 -44.48 
L 198.38903 -44.48 
L 197.661988 -44.48 
L 196.934946 -44.48 
L 196.207905 -44.48 
L 195.480863 -44.48 
L 194.753822 -44.48 
L 194.02678 -44.48 
L 193.299738 -44.48 
L 192.572697 -44.48 
L 191.845655 -44.48 
L 191.118614 -44.48 
L 190.391572 -44.48 
L 189.66453 -44.48 
L 188.937489 -44.48 
L 188.210447 -44.48 
L 187.483406 -44.48 
L 186.756364 -44.48 
L 186.029322 -44.48 
L 185.302281 -44.48 
L 184.575239 -44.48 
L 183.848197 -44.48 
L 183.121156 -44.48 
L 182.394114 -44.48 
L 181.667073 -44.48 
L 180.940031 -44.48 
L 180.212989 -44.48 
L 179.485948 -44.48 
L 178.758906 -44.48 
L 178.031865 -44.48 
L 177.304823 -44.48 
L 176.577781 -44.48 
L 175.85074 -44.48 
L 175.123698 -44.48 
L 174.396657 -44.48 
L 173.669615 -44.48 
L 172.942573 -44.48 
L 172.215532 -44.48 
L 171.48849 -44.48 
L 170.761449 -44.48 
L 170.034407 -44.48 
L 169.307365 -44.48 
L 168.580324 -44.48 
L 167.853282 -44.48 
L 167.126241 -44.48 
L 166.399199 -44.48 
L 165.672157 -44.48 
L 164.945116 -44.48 
L 164.218074 -44.48 
L 163.491033 -44.48 
L 162.763991 -44.48 
L 162.036949 -44.48 
L 161.309908 -44.48 
L 160.582866 -44.48 
L 159.855825 -44.48 
L 159.128783 -44.48 
L 158.401741 -44.48 
L 157.6747 -44.48 
L 156.947658 -44.48 
L 156.220617 -44.48 
L 155.493575 -44.48 
L 154.766533 -44.48 
L 154.039492 -44.48 
L 153.31245 -44.48 
L 152.585409 -44.48 
L 151.858367 -44.48 
L 151.131325 -44.48 
L 150.404284 -44.48 
L 149.677242 -44.48 
L 148.950201 -44.48 
L 148.223159 -44.48 
L 147.496117 -44.48 
L 146.769076 -44.48 
L 146.042034 -44.48 
L 145.314992 -44.48 
L 144.587951 -44.48 
L 143.860909 -44.48 
L 143.133868 -44.48 
L 142.406826 -44.48 
L 141.679784 -44.48 
L 140.952743 -44.48 
L 140.225701 -44.48 
L 139.49866 -44.48 
L 138.771618 -44.48 
L 138.044576 -44.48 
L 137.317535 -44.48 
L 136.590493 -44.48 
L 135.863452 -44.48 
L 135.13641 -44.48 
L 134.409368 -44.48 
L 133.682327 -44.48 
L 132.955285 -44.48 
L 132.228244 -44.48 
L 131.501202 -44.48 
L 130.77416 -44.48 
L 130.047119 -44.48 
L 129.320077 -44.48 
L 128.593036 -44.48 
L 127.865994 -44.48 
L 127.138952 -44.48 
L 126.411911 -44.48 
L 125.684869 -44.48 
L 124.957828 -44.48 
L 124.230786 -44.48 
L 123.503744 -44.48 
L 122.776703 -44.48 
L 122.049661 -44.48 
L 121.32262 -44.48 
L 120.595578 -44.48 
L 119.868536 -44.48 
L 119.141495 -44.48 
L 118.414453 -44.48 
L 117.687412 -44.48 
L 116.96037 -44.48 
L 116.233328 -44.48 
L 115.506287 -44.48 
L 114.779245 -44.48 
L 114.052204 -44.48 
L 113.325162 -44.48 
L 112.59812 -44.48 
L 111.871079 -44.48 
L 111.144037 -44.48 
L 110.416995 -44.48 
L 109.689954 -44.48 
L 108.962912 -44.48 
L 108.235871 -44.48 
L 107.508829 -44.48 
L 106.781787 -44.48 
L 106.054746 -44.48 
L 105.327704 -44.48 
L 104.600663 -44.48 
L 103.873621 -44.48 
L 103.146579 -44.48 
L 102.419538 -44.48 
L 101.692496 -44.48 
L 100.965455 -44.48 
L 100.238413 -44.48 
L 99.511371 -44.48 
L 98.78433 -44.48 
L 98.057288 -44.48 
L 97.330247 -44.48 
L 96.603205 -44.48 
L 95.876163 -44.48 
L 95.149122 -44.48 
L 94.42208 -44.48 
L 93.695039 -44.48 
L 92.967997 -44.48 
L 92.240955 -44.48 
L 91.513914 -44.48 
L 90.786872 -44.48 
L 90.059831 -44.48 
L 89.332789 -44.48 
L 88.605747 -44.48 
L 87.878706 -44.48 
L 87.151664 -44.48 
L 86.424623 -44.48 
L 85.697581 -44.48 
L 84.970539 -44.48 
L 84.243498 -44.48 
L 83.516456 -44.48 
L 82.789415 -44.48 
L 82.062373 -44.48 
L 81.335331 -44.48 
L 80.60829 -44.48 
L 79.881248 -44.48 
L 79.154207 -44.48 
L 78.427165 -44.48 
L 77.700123 -44.48 
L 76.973082 -44.48 
L 76.24604 -44.48 
L 75.518998 -44.48 
L 74.791957 -44.48 
L 74.064915 -44.48 
L 73.337874 -44.48 
L 72.610832 -44.48 
L 71.88379 -44.48 
L 71.156749 -44.48 
L 70.429707 -44.48 
L 69.702666 -44.48 
L 68.975624 -44.48 
L 68.248582 -44.48 
L 67.521541 -44.48 
L 66.794499 -44.48 
L 66.067458 -44.48 
L 65.340416 -44.48 
L 64.613374 -44.48 
L 63.886333 -44.48 
L 63.159291 -44.48 
L 62.43225 -44.48 
L 61.705208 -44.48 
L 60.978166 -44.48 
L 60.251125 -44.48 
L 59.524083 -44.48 
L 58.797042 -44.48 
L 58.07 -44.48 
z
" style="stroke: #41607f; stroke-opacity: 0.18"/>
    </defs>
    <g clip-path="url(#pe044def5f5)">
     <use xlink:href="#m2ac5ae88f6" x="0" y="316.8" style="fill: #41607f; fill-opacity: 0.18; stroke: #41607f; stroke-opacity: 0.18"/>
    </g>
   </g>
   <g id="line2d_27">
    <path d="M 58.07 271.924821 
L 75.518998 271.517583 
L 89.332789 270.986794 
L 101.692496 270.301925 
L 113.325162 269.439242 
L 124.230786 268.417783 
L 135.863452 267.09694 
L 148.223159 265.454975 
L 163.491033 263.182994 
L 188.937489 259.362996 
L 199.116071 258.068768 
L 207.84057 257.166925 
L 215.838028 256.551204 
L 223.835486 256.166137 
L 231.105902 256.031405 
L 238.376318 256.107328 
L 245.646734 256.390948 
L 253.644191 256.928995 
L 262.368691 257.743877 
L 271.820232 258.610046 
L 274.728398 258.660701 
L 276.909523 258.500626 
L 278.363606 258.244965 
L 279.817689 257.823615 
L 281.271772 257.186223 
L 282.725856 256.272138 
L 284.179939 255.009929 
L 285.634022 253.3175 
L 287.088105 251.103005 
L 288.542188 248.266789 
L 289.996272 244.704511 
L 291.450355 240.31158 
L 292.904438 234.988919 
L 294.358521 228.649973 
L 295.812605 221.228703 
L 297.266688 212.688163 
L 298.720771 203.029107 
L 300.901896 186.558885 
L 303.083021 168.069437 
L 306.718229 134.705493 
L 309.626395 108.479449 
L 311.80752 91.013048 
L 313.261603 81.128357 
L 314.715686 73.054754 
L 315.442728 69.790336 
L 316.169769 67.082619 
L 316.896811 64.95713 
L 317.623853 63.434276 
L 318.350894 62.529028 
L 319.077936 62.250697 
L 319.804977 62.602783 
L 320.532019 63.582927 
L 321.259061 65.182943 
L 321.986102 67.388945 
L 322.713144 70.181562 
L 323.440185 73.536232 
L 324.894269 81.809837 
L 326.348352 91.925236 
L 327.802435 103.544932 
L 329.98356 122.97799 
L 337.253976 190.280906 
L 339.435101 207.468991 
L 340.889184 217.612949 
L 342.343267 226.637318 
L 343.79735 234.536886 
L 345.251434 241.344975 
L 346.705517 247.124874 
L 348.1596 251.961227 
L 348.1596 251.961227 
" clip-path="url(#pe044def5f5)" style="fill: none; stroke: #1f3a5f; stroke-width: 2.6; stroke-linecap: square"/>
   </g>
   <g id="line2d_28">
    <path d="M 319.15064 272.32 
L 319.15064 27.96 
" clip-path="url(#pe044def5f5)" style="fill: none; stroke-dasharray: 5.6,4.2; stroke-dashoffset: 0; stroke: #c8553d; stroke-width: 1.4"/>
   </g>
   <g id="line2d_29">
    <path d="M 232.12376 272.32 
L 232.12376 27.96 
" clip-path="url(#pe044def5f5)" style="fill: none; stroke-dasharray: 0.8,1.32; stroke-dashoffset: 0; stroke: #8a99a8; stroke-width: 0.8"/>
   </g>
   <g id="patch_3">
    <path d="M 58.07 272.32 
L 58.07 27.96 
" style="fill: none; stroke: #41607f; stroke-width: 0.8; stroke-linejoin: miter; stroke-linecap: square"/>
   </g>
   <g id="patch_4">
    <path d="M 348.1596 272.32 
L 348.1596 27.96 
" style="fill: none; stroke: #41607f; stroke-width: 0.8; stroke-linejoin: miter; stroke-linecap: square"/>
   </g>
   <g id="patch_5">
    <path d="M 58.07 272.32 
L 348.1596 272.32 
" style="fill: none; stroke: #41607f; stroke-width: 0.8; stroke-linejoin: miter; stroke-linecap: square"/>
   </g>
   <g id="patch_6">
    <path d="M 58.07 27.96 
L 348.1596 27.96 
" style="fill: none; stroke: #41607f; stroke-width: 0.8; stroke-linejoin: miter; stroke-linecap: square"/>
   </g>
   <g id="text_16">
    <text style="font-size: 8px; font-family: 'DejaVu Sans'; text-anchor: start; fill: #8a99a8" x="235.024656" y="256.029333" transform="rotate(-0 235.024656 256.029333)">Initial</text>
   </g>
   <g id="patch_7">
    <path d="M 355.771621 95.67664 
Q 341.357104 94.482115 328.056802 93.379924 
" style="fill: none; stroke: #c8553d; stroke-linecap: round"/>
    <path d="M 331.495848 95.471087 
L 328.056802 93.379924 
L 331.79316 91.883385 
" style="fill: none; stroke: #c8553d; stroke-linecap: round"/>
   </g>
   <g id="text_17">
    <text style="font-size: 9px; font-family: 'DejaVu Sans'; fill: #c8553d" transform="translate(359.763184 99.335302)">Barrier 130% — gamma spikes,</text>
    <text style="font-size: 9px; font-family: 'DejaVu Sans'; fill: #c8553d" transform="translate(359.763184 109.413333)">hedging expensive</text>
   </g>
   <g id="text_18">
    <g id="patch_8">
     <path d="M 70.335365 66.209747 
L 343.808256 66.209747 
Q 347.208256 66.209747 347.208256 62.809747 
L 347.208256 45.0652 
Q 347.208256 41.6652 343.808256 41.6652 
L 70.335365 41.6652 
Q 66.935365 41.6652 66.935365 45.0652 
L 66.935365 62.809747 
Q 66.935365 66.209747 70.335365 66.209747 
z
" style="fill: #ffffff; stroke: #41607f; stroke-width: 0.8; stroke-linejoin: miter"/>
    </g>
    <text style="font-size: 8.5px; font-family: 'DejaVu Sans'; fill: #41607f" transform="translate(70.335365 51.523872)">Desk is LONG the embedded put (mirror of investor's short put);</text>
    <text style="font-size: 8.5px; font-family: 'DejaVu Sans'; fill: #41607f" transform="translate(174.254506 61.042013)">delta-hedges by trading the underlying.</text>
   </g>
   <g id="text_19">
    <text style="font-weight: 700; font-size: 13px; font-family: 'DejaVu Sans'; text-anchor: start; fill: #1f3a5f" x="58.07" y="21.96" transform="rotate(-0 58.07 21.96)">Booster Note Desk Position &amp; Hedge — Bank Lens (Desk Economics)</text>
   </g>
  </g>
 </g>
 <defs>
  <clipPath id="pe044def5f5">
   <rect x="58.07" y="27.96" width="290.0896" height="244.36"/>
  </clipPath>
 </defs>
</svg>
