<?xml version="1.0" encoding="utf-8" standalone="no"?>
<!DOCTYPE svg PUBLIC "-//W3C//DTD SVG 1.1//EN"
  "http://www.w3.org/Graphics/SVG/1.1/DTD/svg11.dtd">
<svg xmlns:xlink="http://www.w3.org/1999/xlink" width="518.4pt" height="316.8pt" viewBox="0 0 518.4 316.8" xmlns="http://www.w3.org/2000/svg" version="1.1">
 <metadata>
  <rdf:RDF xmlns:dc="http://purl.org/dc/elements/1.1/" xmlns:cc="http://creativecommons.org/ns#" xmlns:rdf="http://www.w3.org/1999/02/22-rdf-syntax-ns#">
   <cc:Work>
    <dc:type rdf:resource="http://purl.org/dc/dcmitype/StillImage"/>
    <dc:date>2026-06-27T14:53:43.753040</dc:date>
    <dc:format>image/svg+xml</dc:format>
    <dc:creator>
     <cc:Agent>
      <dc:title>Matplotlib v3.10.9, https://matplotlib.org/</dc:title>
     </cc:Agent>
    </dc:creator>
   </cc:Work>
  </rdf:RDF>
 </metadata>
 <defs>
  <style type="text/css">*{stroke-linejoin: round; stroke-linecap: butt}</style>
 </defs>
 <g id="figure_1">
  <g id="patch_1">
   <path d="M 0 316.8 
L 518.4 316.8 
L 518.4 0 
L 0 0 
z
" style="fill: #ffffff"/>
  </g>
  <g id="axes_1">
   <g id="patch_2">
    <path d="M 58.07 272.32 
L 468.5976 272.32 
L 468.5976 27.96 
L 58.07 27.96 
z
" style="fill: #ffffff"/>
   </g>
   <g id="matplotlib.axis_1">
    <g id="xtick_1">
     <g id="line2d_1">
      <path d="M 58.07 272.32 
L 58.07 27.96 
" clip-path="url(#p138f0664c0)" style="fill: none; stroke: #eef2f6; stroke-linecap: square"/>
     </g>
     <g id="line2d_2">
      <defs>
       <path id="m0f72099b1f" d="M 0 0 
L 0 3.5 
" style="stroke: #41607f; stroke-width: 0.8"/>
      </defs>
      <g>
       <use xlink:href="#m0f72099b1f" x="58.07" y="272.32" style="fill: #41607f; stroke: #41607f; stroke-width: 0.8"/>
      </g>
     </g>
     <g id="text_1">
      <text style="font-size: 11px; font-family: 'DejaVu Sans'; text-anchor: middle; fill: #41607f" x="58.07" y="287.678281" transform="rotate(-0 58.07 287.678281)">40</text>
     </g>
    </g>
    <g id="xtick_2">
     <g id="line2d_3">
      <path d="M 140.17552 272.32 
L 140.17552 27.96 
" clip-path="url(#p138f0664c0)" style="fill: none; stroke: #eef2f6; stroke-linecap: square"/>
     </g>
     <g id="line2d_4">
      <g>
       <use xlink:href="#m0f72099b1f" x="140.17552" y="272.32" style="fill: #41607f; stroke: #41607f; stroke-width: 0.8"/>
      </g>
     </g>
     <g id="text_2">
      <text style="font-size: 11px; font-family: 'DejaVu Sans'; text-anchor: middle; fill: #41607f" x="140.17552" y="287.678281" transform="rotate(-0 140.17552 287.678281)">60</text>
     </g>
    </g>
    <g id="xtick_3">
     <g id="line2d_5">
      <path d="M 222.28104 272.32 
L 222.28104 27.96 
" clip-path="url(#p138f0664c0)" style="fill: none; stroke: #eef2f6; stroke-linecap: square"/>
     </g>
     <g id="line2d_6">
      <g>
       <use xlink:href="#m0f72099b1f" x="222.28104" y="272.32" style="fill: #41607f; stroke: #41607f; stroke-width: 0.8"/>
      </g>
     </g>
     <g id="text_3">
      <text style="font-size: 11px; font-family: 'DejaVu Sans'; text-anchor: middle; fill: #41607f" x="222.28104" y="287.678281" transform="rotate(-0 222.28104 287.678281)">80</text>
     </g>
    </g>
    <g id="xtick_4">
     <g id="line2d_7">
      <path d="M 304.38656 272.32 
L 304.38656 27.96 
" clip-path="url(#p138f0664c0)" style="fill: none; stroke: #eef2f6; stroke-linecap: square"/>
     </g>
     <g id="line2d_8">
      <g>
       <use xlink:href="#m0f72099b1f" x="304.38656" y="272.32" style="fill: #41607f; stroke: #41607f; stroke-width: 0.8"/>
      </g>
     </g>
     <g id="text_4">
      <text style="font-size: 11px; font-family: 'DejaVu Sans'; text-anchor: middle; fill: #41607f" x="304.38656" y="287.678281" transform="rotate(-0 304.38656 287.678281)">100</text>
     </g>
    </g>
    <g id="xtick_5">
     <g id="line2d_9">
      <path d="M 386.49208 272.32 
L 386.49208 27.96 
" clip-path="url(#p138f0664c0)" style="fill: none; stroke: #eef2f6; stroke-linecap: square"/>
     </g>
     <g id="line2d_10">
      <g>
       <use xlink:href="#m0f72099b1f" x="386.49208" y="272.32" style="fill: #41607f; stroke: #41607f; stroke-width: 0.8"/>
      </g>
     </g>
     <g id="text_5">
      <text style="font-size: 11px; font-family: 'DejaVu Sans'; text-anchor: middle; fill: #41607f" x="386.49208" y="287.678281" transform="rotate(-0 386.49208 287.678281)">120</text>
     </g>
    </g>
    <g id="xtick_6">
     <g id="line2d_11">
      <path d="M 468.5976 272.32 
L 468.5976 27.96 
" clip-path="url(#p138f0664c0)" style="fill: none; stroke: #eef2f6; stroke-linecap: square"/>
     </g>
     <g id="line2d_12">
      <g>
       <use xlink:href="#m0f72099b1f" x="468.5976" y="272.32" style="fill: #41607f; stroke: #41607f; stroke-width: 0.8"/>
      </g>
     </g>
     <g id="text_6">
      <text style="font-size: 11px; font-family: 'DejaVu Sans'; text-anchor: middle; fill: #41607f" x="468.5976" y="287.678281" transform="rotate(-0 468.5976 287.678281)">140</text>
     </g>
    </g>
    <g id="text_7">
     <text style="font-size: 11px; font-family: 'DejaVu Sans'; text-anchor: middle; fill: #1f3a5f" x="263.3338" y="302.324219" transform="rotate(-0 263.3338 302.324219)">Underlying spot (% of initial)</text>
    </g>
   </g>
   <g id="matplotlib.axis_2">
    <g id="ytick_1">
     <g id="line2d_13">
      <path d="M 58.07 272.32 
L 468.5976 272.32 
" clip-path="url(#p138f0664c0)" style="fill: none; stroke: #eef2f6; stroke-linecap: square"/>
     </g>
     <g id="line2d_14">
      <defs>
       <path id="m8d051baaff" d="M 0 0 
L -3.5 0 
" style="stroke: #41607f; stroke-width: 0.8"/>
      </defs>
      <g>
       <use xlink:href="#m8d051baaff" x="58.07" y="272.32" style="fill: #41607f; stroke: #41607f; stroke-width: 0.8"/>
      </g>
     </g>
     <g id="text_8">
      <text style="font-size: 11px; font-family: 'DejaVu Sans'; text-anchor: end; fill: #41607f" x="51.07" y="276.499141" transform="rotate(-0 51.07 276.499141)">0.00</text>
     </g>
    </g>
    <g id="ytick_2">
     <g id="line2d_15">
      <path d="M 58.07 231.593333 
L 468.5976 231.593333 
" clip-path="url(#p138f0664c0)" style="fill: none; stroke: #eef2f6; stroke-linecap: square"/>
     </g>
     <g id="line2d_16">
      <g>
       <use xlink:href="#m8d051baaff" x="58.07" y="231.593333" style="fill: #41607f; stroke: #41607f; stroke-width: 0.8"/>
      </g>
     </g>
     <g id="text_9">
      <text style="font-size: 11px; font-family: 'DejaVu Sans'; text-anchor: end; fill: #41607f" x="51.07" y="235.772474" transform="rotate(-0 51.07 235.772474)">0.05</text>
     </g>
    </g>
    <g id="ytick_3">
     <g id="line2d_17">
      <path d="M 58.07 190.866667 
L 468.5976 190.866667 
" clip-path="url(#p138f0664c0)" style="fill: none; stroke: #eef2f6; stroke-linecap: square"/>
     </g>
     <g id="line2d_18">
      <g>
       <use xlink:href="#m8d051baaff" x="58.07" y="190.866667" style="fill: #41607f; stroke: #41607f; stroke-width: 0.8"/>
      </g>
     </g>
     <g id="text_10">
      <text style="font-size: 11px; font-family: 'DejaVu Sans'; text-anchor: end; fill: #41607f" x="51.07" y="195.045807" transform="rotate(-0 51.07 195.045807)">0.10</text>
     </g>
    </g>
    <g id="ytick_4">
     <g id="line2d_19">
      <path d="M 58.07 150.14 
L 468.5976 150.14 
" clip-path="url(#p138f0664c0)" style="fill: none; stroke: #eef2f6; stroke-linecap: square"/>
     </g>
     <g id="line2d_20">
      <g>
       <use xlink:href="#m8d051baaff" x="58.07" y="150.14" style="fill: #41607f; stroke: #41607f; stroke-width: 0.8"/>
      </g>
     </g>
     <g id="text_11">
      <text style="font-size: 11px; font-family: 'DejaVu Sans'; text-anchor: end; fill: #41607f" x="51.07" y="154.319141" transform="rotate(-0 51.07 154.319141)">0.15</text>
     </g>
    </g>
    <g id="ytick_5">
     <g id="line2d_21">
      <path d="M 58.07 109.413333 
L 468.5976 109.413333 
" clip-path="url(#p138f0664c0)" style="fill: none; stroke: #eef2f6; stroke-linecap: square"/>
     </g>
     <g id="line2d_22">
      <g>
       <use xlink:href="#m8d051baaff" x="58.07" y="109.413333" style="fill: #41607f; stroke: #41607f; stroke-width: 0.8"/>
      </g>
     </g>
     <g id="text_12">
      <text style="font-size: 11px; font-family: 'DejaVu Sans'; text-anchor: end; fill: #41607f" x="51.07" y="113.592474" transform="rotate(-0 51.07 113.592474)">0.20</text>
     </g>
    </g>
    <g id="ytick_6">
     <g id="line2d_23">
      <path d="M 58.07 68.686667 
L 468.5976 68.686667 
" clip-path="url(#p138f0664c0)" style="fill: none; stroke: #eef2f6; stroke-linecap: square"/>
     </g>
     <g id="line2d_24">
      <g>
       <use xlink:href="#m8d051baaff" x="58.07" y="68.686667" style="fill: #41607f; stroke: #41607f; stroke-width: 0.8"/>
      </g>
     </g>
     <g id="text_13">
      <text style="font-size: 11px; font-family: 'DejaVu Sans'; text-anchor: end; fill: #41607f" x="51.07" y="72.865807" transform="rotate(-0 51.07 72.865807)">0.25</text>
     </g>
    </g>
    <g id="ytick_7">
     <g id="line2d_25">
      <path d="M 58.07 27.96 
L 468.5976 27.96 
" clip-path="url(#p138f0664c0)" style="fill: none; stroke: #eef2f6; stroke-linecap: square"/>
     </g>
     <g id="line2d_26">
      <g>
       <use xlink:href="#m8d051baaff" x="58.07" y="27.96" style="fill: #41607f; stroke: #41607f; stroke-width: 0.8"/>
      </g>
     </g>
     <g id="text_14">
      <text style="font-size: 11px; font-family: 'DejaVu Sans'; text-anchor: end; fill: #41607f" x="51.07" y="32.139141" transform="rotate(-0 51.07 32.139141)">0.30</text>
     </g>
    </g>
    <g id="text_15">
     <text style="font-size: 11px; font-family: 'DejaVu Sans'; text-anchor: middle; fill: #1f3a5f" x="20.290156" y="150.14" transform="rotate(-90 20.290156 150.14)">Desk gamma (long option)</text>
    </g>
   </g>
   <g id="FillBetweenPolyCollection_1">
    <defs>
     <path id="mea389a25c2" d="M 58.07 -44.48 
L 58.07 -44.875179 
L 59.098891 -44.887623 
L 60.127782 -44.900405 
L 61.156674 -44.913531 
L 62.185565 -44.927009 
L 63.214456 -44.940846 
L 64.243347 -44.95505 
L 65.272239 -44.969628 
L 66.30113 -44.984588 
L 67.330021 -44.999937 
L 68.358912 -45.015684 
L 69.387804 -45.031836 
L 70.416695 -45.048402 
L 71.445586 -45.065388 
L 72.474477 -45.082804 
L 73.503368 -45.100658 
L 74.53226 -45.118958 
L 75.561151 -45.137711 
L 76.590042 -45.156928 
L 77.618933 -45.176615 
L 78.647825 -45.196782 
L 79.676716 -45.217437 
L 80.705607 -45.238589 
L 81.734498 -45.260246 
L 82.763389 -45.282417 
L 83.792281 -45.305111 
L 84.821172 -45.328337 
L 85.850063 -45.352104 
L 86.878954 -45.37642 
L 87.907846 -45.401294 
L 88.936737 -45.426736 
L 89.965628 -45.452754 
L 90.994519 -45.479358 
L 92.023411 -45.506556 
L 93.052302 -45.534357 
L 94.081193 -45.56277 
L 95.110084 -45.591805 
L 96.138975 -45.621471 
L 97.167867 -45.651776 
L 98.196758 -45.682729 
L 99.225649 -45.71434 
L 100.25454 -45.746617 
L 101.283432 -45.779569 
L 102.312323 -45.813206 
L 103.341214 -45.847536 
L 104.370105 -45.882568 
L 105.398996 -45.918311 
L 106.427888 -45.954773 
L 107.456779 -45.991963 
L 108.48567 -46.02989 
L 109.514561 -46.068562 
L 110.543453 -46.107988 
L 111.572344 -46.148175 
L 112.601235 -46.189133 
L 113.630126 -46.230869 
L 114.659018 -46.273392 
L 115.687909 -46.316709 
L 116.7168 -46.360828 
L 117.745691 -46.405757 
L 118.774582 -46.451504 
L 119.803474 -46.498075 
L 120.832365 -46.545478 
L 121.861256 -46.593721 
L 122.890147 -46.642809 
L 123.919039 -46.69275 
L 124.94793 -46.743551 
L 125.976821 -46.795217 
L 127.005712 -46.847756 
L 128.034604 -46.901172 
L 129.063495 -46.955472 
L 130.092386 -47.010662 
L 131.121277 -47.066746 
L 132.150168 -47.12373 
L 133.17906 -47.181619 
L 134.207951 -47.240417 
L 135.236842 -47.300129 
L 136.265733 -47.360758 
L 137.294625 -47.422309 
L 138.323516 -47.484786 
L 139.352407 -47.54819 
L 140.381298 -47.612526 
L 141.410189 -47.677796 
L 142.439081 -47.744002 
L 143.467972 -47.811147 
L 144.496863 -47.879232 
L 145.525754 -47.948258 
L 146.554646 -48.018227 
L 147.583537 -48.089138 
L 148.612428 -48.160993 
L 149.641319 -48.233792 
L 150.670211 -48.307533 
L 151.699102 -48.382217 
L 152.727993 -48.457842 
L 153.756884 -48.534406 
L 154.785775 -48.611907 
L 155.814667 -48.690344 
L 156.843558 -48.769712 
L 157.872449 -48.85001 
L 158.90134 -48.931233 
L 159.930232 -49.013377 
L 160.959123 -49.096438 
L 161.988014 -49.180411 
L 163.016905 -49.26529 
L 164.045796 -49.351069 
L 165.074688 -49.437743 
L 166.103579 -49.525305 
L 167.13247 -49.613746 
L 168.161361 -49.70306 
L 169.190253 -49.793238 
L 170.219144 -49.884272 
L 171.248035 -49.976152 
L 172.276926 -50.068868 
L 173.305818 -50.162412 
L 174.334709 -50.256771 
L 175.3636 -50.351935 
L 176.392491 -50.447892 
L 177.421382 -50.54463 
L 178.450274 -50.642136 
L 179.479165 -50.740398 
L 180.508056 -50.839401 
L 181.536947 -50.939131 
L 182.565839 -51.039575 
L 183.59473 -51.140715 
L 184.623621 -51.242537 
L 185.652512 -51.345025 
L 186.681404 -51.448162 
L 187.710295 -51.55193 
L 188.739186 -51.656313 
L 189.768077 -51.761291 
L 190.796968 -51.866846 
L 191.82586 -51.972959 
L 192.854751 -52.07961 
L 193.883642 -52.186779 
L 194.912533 -52.294446 
L 195.941425 -52.402589 
L 196.970316 -52.511187 
L 197.999207 -52.620217 
L 199.028098 -52.729659 
L 200.056989 -52.839488 
L 201.085881 -52.949683 
L 202.114772 -53.060219 
L 203.143663 -53.171074 
L 204.172554 -53.282224 
L 205.201446 -53.393645 
L 206.230337 -53.505314 
L 207.259228 -53.617209 
L 208.288119 -53.729305 
L 209.317011 -53.841582 
L 210.345902 -53.95402 
L 211.374793 -54.066598 
L 212.403684 -54.179299 
L 213.432575 -54.29211 
L 214.461467 -54.40502 
L 215.490358 -54.518021 
L 216.519249 -54.631114 
L 217.54814 -54.744304 
L 218.577032 -54.857606 
L 219.605923 -54.971047 
L 220.634814 -55.084666 
L 221.663705 -55.198519 
L 222.692596 -55.312683 
L 223.721488 -55.427259 
L 224.750379 -55.542377 
L 225.77927 -55.658203 
L 226.808161 -55.774948 
L 227.837053 -55.892871 
L 228.865944 -56.012293 
L 229.894835 -56.133605 
L 230.923726 -56.257285 
L 231.952618 -56.383907 
L 232.981509 -56.514158 
L 234.0104 -56.648861 
L 235.039291 -56.788989 
L 236.068182 -56.935692 
L 237.097074 -57.090318 
L 238.125965 -57.254446 
L 239.154856 -57.429907 
L 240.183747 -57.618823 
L 241.212639 -57.823638 
L 242.24153 -58.047151 
L 243.270421 -58.292558 
L 244.299312 -58.563483 
L 245.328204 -58.864025 
L 246.357095 -59.198787 
L 247.385986 -59.57292 
L 248.414877 -59.992154 
L 249.443768 -60.462833 
L 250.47266 -60.991938 
L 251.501551 -61.587114 
L 252.530442 -62.25668 
L 253.559333 -63.009638 
L 254.588225 -63.855665 
L 255.617116 -64.805102 
L 256.646007 -65.868916 
L 257.674898 -67.05866 
L 258.703789 -68.386406 
L 259.732681 -69.864665 
L 260.761572 -71.506287 
L 261.790463 -73.324339 
L 262.819354 -75.33196 
L 263.848246 -77.542199 
L 264.877137 -79.967833 
L 265.906028 -82.621155 
L 266.934919 -85.513757 
L 267.963811 -88.656288 
L 268.992702 -92.058198 
L 270.021593 -95.727473 
L 271.050484 -99.670365 
L 272.079375 -103.891117 
L 273.108267 -108.391692 
L 274.137158 -113.171507 
L 275.166049 -118.227191 
L 276.19494 -123.552352 
L 277.223832 -129.137378 
L 278.252723 -134.969271 
L 279.281614 -141.031522 
L 280.310505 -147.304023 
L 281.339396 -153.763046 
L 282.368288 -160.381263 
L 283.397179 -167.127834 
L 284.42607 -173.968555 
L 285.454961 -180.866068 
L 286.483853 -187.780141 
L 287.512744 -194.668005 
L 288.541635 -201.484752 
L 289.570526 -208.183794 
L 290.599418 -214.717367 
L 291.628309 -221.037081 
L 292.6572 -227.094503 
L 293.686091 -232.841769 
L 294.714982 -238.232207 
L 295.743874 -243.220967 
L 296.772765 -247.765639 
L 297.801656 -251.826857 
L 298.830547 -255.368863 
L 299.859439 -258.360038 
L 300.88833 -260.773369 
L 301.917221 -262.586855 
L 302.946112 -263.783849 
L 303.975004 -264.353305 
L 305.003895 -264.289954 
L 306.032786 -263.594382 
L 307.061677 -262.273024 
L 308.090568 -260.338061 
L 309.11946 -257.807236 
L 310.148351 -254.70358 
L 311.177242 -251.055062 
L 312.206133 -246.89417 
L 313.235025 -242.257425 
L 314.263916 -237.18485 
L 315.292807 -231.719391 
L 316.321698 -225.906313 
L 317.350589 -219.792576 
L 318.379481 -213.426208 
L 319.408372 -206.855682 
L 320.437263 -200.129308 
L 321.466154 -193.294657 
L 322.495046 -186.398021 
L 323.523937 -179.483914 
L 324.552828 -172.594629 
L 325.581719 -165.769847 
L 326.610611 -159.046315 
L 327.639502 -152.45758 
L 328.668393 -146.033789 
L 329.697284 -139.801556 
L 330.726175 -133.783884 
L 331.755067 -128.000157 
L 332.783958 -122.466175 
L 333.812849 -117.194246 
L 334.84174 -112.193325 
L 335.870632 -107.46918 
L 336.899523 -103.024609 
L 337.928414 -98.859663 
L 338.957305 -94.971902 
L 339.986196 -91.356659 
L 341.015088 -88.007315 
L 342.043979 -84.915568 
L 343.07287 -82.071707 
L 344.101761 -79.464876 
L 345.130653 -77.083323 
L 346.159544 -74.914641 
L 347.188435 -72.945983 
L 348.217326 -71.164269 
L 349.246218 -69.556359 
L 350.275109 -68.109221 
L 351.304 -66.810064 
L 352.332891 -65.646457 
L 353.361782 -64.606424 
L 354.390674 -63.678527 
L 355.419565 -62.85192 
L 356.448456 -62.116393 
L 357.477347 -61.462404 
L 358.506239 -60.881086 
L 359.53513 -60.364256 
L 360.564021 -59.904404 
L 361.592912 -59.494677 
L 362.621804 -59.128858 
L 363.650695 -58.801334 
L 364.679586 -58.507067 
L 365.708477 -58.241558 
L 366.737368 -58.000806 
L 367.76626 -57.781274 
L 368.795151 -57.579851 
L 369.824042 -57.393811 
L 370.852933 -57.220776 
L 371.881825 -57.058687 
L 372.910716 -56.905763 
L 373.939607 -56.760477 
L 374.968498 -56.62152 
L 375.997389 -56.48778 
L 377.026281 -56.358316 
L 378.055172 -56.232334 
L 379.084063 -56.10917 
L 380.112954 -55.988271 
L 381.141846 -55.869178 
L 382.170737 -55.751514 
L 383.199628 -55.634972 
L 384.228519 -55.519302 
L 385.257411 -55.404305 
L 386.286302 -55.289821 
L 387.315193 -55.175727 
L 388.344084 -55.061926 
L 389.372975 -54.948346 
L 390.401867 -54.834936 
L 391.430758 -54.721658 
L 392.459649 -54.608488 
L 393.48854 -54.495414 
L 394.517432 -54.382431 
L 395.546323 -54.26954 
L 396.575214 -54.15675 
L 397.604105 -54.044072 
L 398.632996 -53.93152 
L 399.661888 -53.819114 
L 400.690779 -53.706871 
L 401.71967 -53.594813 
L 402.748561 -53.482962 
L 403.777453 -53.37134 
L 404.806344 -53.259971 
L 405.835235 -53.148879 
L 406.864126 -53.038086 
L 407.893018 -52.927616 
L 408.921909 -52.817492 
L 409.9508 -52.707739 
L 410.979691 -52.598378 
L 412.008582 -52.489432 
L 413.037474 -52.380923 
L 414.066365 -52.272874 
L 415.095256 -52.165305 
L 416.124147 -52.058238 
L 417.153039 -51.951693 
L 418.18193 -51.84569 
L 419.210821 -51.740249 
L 420.239712 -51.635388 
L 421.268604 -51.531127 
L 422.297495 -51.427484 
L 423.326386 -51.324475 
L 424.355277 -51.222119 
L 425.384168 -51.120432 
L 426.41306 -51.01943 
L 427.441951 -50.919128 
L 428.470842 -50.819542 
L 429.499733 -50.720686 
L 430.528625 -50.622574 
L 431.557516 -50.52522 
L 432.586407 -50.428638 
L 433.615298 -50.332838 
L 434.644189 -50.237834 
L 435.673081 -50.143637 
L 436.701972 -50.050258 
L 437.730863 -49.957708 
L 438.759754 -49.865997 
L 439.788646 -49.775134 
L 440.817537 -49.685128 
L 441.846428 -49.595988 
L 442.875319 -49.507722 
L 443.904211 -49.420337 
L 444.933102 -49.333842 
L 445.961993 -49.248242 
L 446.990884 -49.163543 
L 448.019775 -49.079753 
L 449.048667 -48.996875 
L 450.077558 -48.914914 
L 451.106449 -48.833876 
L 452.13534 -48.753764 
L 453.164232 -48.674582 
L 454.193123 -48.596332 
L 455.222014 -48.519018 
L 456.250905 -48.442642 
L 457.279796 -48.367205 
L 458.308688 -48.29271 
L 459.337579 -48.219157 
L 460.36647 -48.146547 
L 461.395361 -48.07488 
L 462.424253 -48.004157 
L 463.453144 -47.934377 
L 464.482035 -47.86554 
L 465.510926 -47.797643 
L 466.539818 -47.730686 
L 467.568709 -47.664667 
L 468.5976 -47.599584 
L 468.5976 -44.48 
L 468.5976 -44.48 
L 467.568709 -44.48 
L 466.539818 -44.48 
L 465.510926 -44.48 
L 464.482035 -44.48 
L 463.453144 -44.48 
L 462.424253 -44.48 
L 461.395361 -44.48 
L 460.36647 -44.48 
L 459.337579 -44.48 
L 458.308688 -44.48 
L 457.279796 -44.48 
L 456.250905 -44.48 
L 455.222014 -44.48 
L 454.193123 -44.48 
L 453.164232 -44.48 
L 452.13534 -44.48 
L 451.106449 -44.48 
L 450.077558 -44.48 
L 449.048667 -44.48 
L 448.019775 -44.48 
L 446.990884 -44.48 
L 445.961993 -44.48 
L 444.933102 -44.48 
L 443.904211 -44.48 
L 442.875319 -44.48 
L 441.846428 -44.48 
L 440.817537 -44.48 
L 439.788646 -44.48 
L 438.759754 -44.48 
L 437.730863 -44.48 
L 436.701972 -44.48 
L 435.673081 -44.48 
L 434.644189 -44.48 
L 433.615298 -44.48 
L 432.586407 -44.48 
L 431.557516 -44.48 
L 430.528625 -44.48 
L 429.499733 -44.48 
L 428.470842 -44.48 
L 427.441951 -44.48 
L 426.41306 -44.48 
L 425.384168 -44.48 
L 424.355277 -44.48 
L 423.326386 -44.48 
L 422.297495 -44.48 
L 421.268604 -44.48 
L 420.239712 -44.48 
L 419.210821 -44.48 
L 418.18193 -44.48 
L 417.153039 -44.48 
L 416.124147 -44.48 
L 415.095256 -44.48 
L 414.066365 -44.48 
L 413.037474 -44.48 
L 412.008582 -44.48 
L 410.979691 -44.48 
L 409.9508 -44.48 
L 408.921909 -44.48 
L 407.893018 -44.48 
L 406.864126 -44.48 
L 405.835235 -44.48 
L 404.806344 -44.48 
L 403.777453 -44.48 
L 402.748561 -44.48 
L 401.71967 -44.48 
L 400.690779 -44.48 
L 399.661888 -44.48 
L 398.632996 -44.48 
L 397.604105 -44.48 
L 396.575214 -44.48 
L 395.546323 -44.48 
L 394.517432 -44.48 
L 393.48854 -44.48 
L 392.459649 -44.48 
L 391.430758 -44.48 
L 390.401867 -44.48 
L 389.372975 -44.48 
L 388.344084 -44.48 
L 387.315193 -44.48 
L 386.286302 -44.48 
L 385.257411 -44.48 
L 384.228519 -44.48 
L 383.199628 -44.48 
L 382.170737 -44.48 
L 381.141846 -44.48 
L 380.112954 -44.48 
L 379.084063 -44.48 
L 378.055172 -44.48 
L 377.026281 -44.48 
L 375.997389 -44.48 
L 374.968498 -44.48 
L 373.939607 -44.48 
L 372.910716 -44.48 
L 371.881825 -44.48 
L 370.852933 -44.48 
L 369.824042 -44.48 
L 368.795151 -44.48 
L 367.76626 -44.48 
L 366.737368 -44.48 
L 365.708477 -44.48 
L 364.679586 -44.48 
L 363.650695 -44.48 
L 362.621804 -44.48 
L 361.592912 -44.48 
L 360.564021 -44.48 
L 359.53513 -44.48 
L 358.506239 -44.48 
L 357.477347 -44.48 
L 356.448456 -44.48 
L 355.419565 -44.48 
L 354.390674 -44.48 
L 353.361782 -44.48 
L 352.332891 -44.48 
L 351.304 -44.48 
L 350.275109 -44.48 
L 349.246218 -44.48 
L 348.217326 -44.48 
L 347.188435 -44.48 
L 346.159544 -44.48 
L 345.130653 -44.48 
L 344.101761 -44.48 
L 343.07287 -44.48 
L 342.043979 -44.48 
L 341.015088 -44.48 
L 339.986196 -44.48 
L 338.957305 -44.48 
L 337.928414 -44.48 
L 336.899523 -44.48 
L 335.870632 -44.48 
L 334.84174 -44.48 
L 333.812849 -44.48 
L 332.783958 -44.48 
L 331.755067 -44.48 
L 330.726175 -44.48 
L 329.697284 -44.48 
L 328.668393 -44.48 
L 327.639502 -44.48 
L 326.610611 -44.48 
L 325.581719 -44.48 
L 324.552828 -44.48 
L 323.523937 -44.48 
L 322.495046 -44.48 
L 321.466154 -44.48 
L 320.437263 -44.48 
L 319.408372 -44.48 
L 318.379481 -44.48 
L 317.350589 -44.48 
L 316.321698 -44.48 
L 315.292807 -44.48 
L 314.263916 -44.48 
L 313.235025 -44.48 
L 312.206133 -44.48 
L 311.177242 -44.48 
L 310.148351 -44.48 
L 309.11946 -44.48 
L 308.090568 -44.48 
L 307.061677 -44.48 
L 306.032786 -44.48 
L 305.003895 -44.48 
L 303.975004 -44.48 
L 302.946112 -44.48 
L 301.917221 -44.48 
L 300.88833 -44.48 
L 299.859439 -44.48 
L 298.830547 -44.48 
L 297.801656 -44.48 
L 296.772765 -44.48 
L 295.743874 -44.48 
L 294.714982 -44.48 
L 293.686091 -44.48 
L 292.6572 -44.48 
L 291.628309 -44.48 
L 290.599418 -44.48 
L 289.570526 -44.48 
L 288.541635 -44.48 
L 287.512744 -44.48 
L 286.483853 -44.48 
L 285.454961 -44.48 
L 284.42607 -44.48 
L 283.397179 -44.48 
L 282.368288 -44.48 
L 281.339396 -44.48 
L 280.310505 -44.48 
L 279.281614 -44.48 
L 278.252723 -44.48 
L 277.223832 -44.48 
L 276.19494 -44.48 
L 275.166049 -44.48 
L 274.137158 -44.48 
L 273.108267 -44.48 
L 272.079375 -44.48 
L 271.050484 -44.48 
L 270.021593 -44.48 
L 268.992702 -44.48 
L 267.963811 -44.48 
L 266.934919 -44.48 
L 265.906028 -44.48 
L 264.877137 -44.48 
L 263.848246 -44.48 
L 262.819354 -44.48 
L 261.790463 -44.48 
L 260.761572 -44.48 
L 259.732681 -44.48 
L 258.703789 -44.48 
L 257.674898 -44.48 
L 256.646007 -44.48 
L 255.617116 -44.48 
L 254.588225 -44.48 
L 253.559333 -44.48 
L 252.530442 -44.48 
L 251.501551 -44.48 
L 250.47266 -44.48 
L 249.443768 -44.48 
L 248.414877 -44.48 
L 247.385986 -44.48 
L 246.357095 -44.48 
L 245.328204 -44.48 
L 244.299312 -44.48 
L 243.270421 -44.48 
L 242.24153 -44.48 
L 241.212639 -44.48 
L 240.183747 -44.48 
L 239.154856 -44.48 
L 238.125965 -44.48 
L 237.097074 -44.48 
L 236.068182 -44.48 
L 235.039291 -44.48 
L 234.0104 -44.48 
L 232.981509 -44.48 
L 231.952618 -44.48 
L 230.923726 -44.48 
L 229.894835 -44.48 
L 228.865944 -44.48 
L 227.837053 -44.48 
L 226.808161 -44.48 
L 225.77927 -44.48 
L 224.750379 -44.48 
L 223.721488 -44.48 
L 222.692596 -44.48 
L 221.663705 -44.48 
L 220.634814 -44.48 
L 219.605923 -44.48 
L 218.577032 -44.48 
L 217.54814 -44.48 
L 216.519249 -44.48 
L 215.490358 -44.48 
L 214.461467 -44.48 
L 213.432575 -44.48 
L 212.403684 -44.48 
L 211.374793 -44.48 
L 210.345902 -44.48 
L 209.317011 -44.48 
L 208.288119 -44.48 
L 207.259228 -44.48 
L 206.230337 -44.48 
L 205.201446 -44.48 
L 204.172554 -44.48 
L 203.143663 -44.48 
L 202.114772 -44.48 
L 201.085881 -44.48 
L 200.056989 -44.48 
L 199.028098 -44.48 
L 197.999207 -44.48 
L 196.970316 -44.48 
L 195.941425 -44.48 
L 194.912533 -44.48 
L 193.883642 -44.48 
L 192.854751 -44.48 
L 191.82586 -44.48 
L 190.796968 -44.48 
L 189.768077 -44.48 
L 188.739186 -44.48 
L 187.710295 -44.48 
L 186.681404 -44.48 
L 185.652512 -44.48 
L 184.623621 -44.48 
L 183.59473 -44.48 
L 182.565839 -44.48 
L 181.536947 -44.48 
L 180.508056 -44.48 
L 179.479165 -44.48 
L 178.450274 -44.48 
L 177.421382 -44.48 
L 176.392491 -44.48 
L 175.3636 -44.48 
L 174.334709 -44.48 
L 173.305818 -44.48 
L 172.276926 -44.48 
L 171.248035 -44.48 
L 170.219144 -44.48 
L 169.190253 -44.48 
L 168.161361 -44.48 
L 167.13247 -44.48 
L 166.103579 -44.48 
L 165.074688 -44.48 
L 164.045796 -44.48 
L 163.016905 -44.48 
L 161.988014 -44.48 
L 160.959123 -44.48 
L 159.930232 -44.48 
L 158.90134 -44.48 
L 157.872449 -44.48 
L 156.843558 -44.48 
L 155.814667 -44.48 
L 154.785775 -44.48 
L 153.756884 -44.48 
L 152.727993 -44.48 
L 151.699102 -44.48 
L 150.670211 -44.48 
L 149.641319 -44.48 
L 148.612428 -44.48 
L 147.583537 -44.48 
L 146.554646 -44.48 
L 145.525754 -44.48 
L 144.496863 -44.48 
L 143.467972 -44.48 
L 142.439081 -44.48 
L 141.410189 -44.48 
L 140.381298 -44.48 
L 139.352407 -44.48 
L 138.323516 -44.48 
L 137.294625 -44.48 
L 136.265733 -44.48 
L 135.236842 -44.48 
L 134.207951 -44.48 
L 133.17906 -44.48 
L 132.150168 -44.48 
L 131.121277 -44.48 
L 130.092386 -44.48 
L 129.063495 -44.48 
L 128.034604 -44.48 
L 127.005712 -44.48 
L 125.976821 -44.48 
L 124.94793 -44.48 
L 123.919039 -44.48 
L 122.890147 -44.48 
L 121.861256 -44.48 
L 120.832365 -44.48 
L 119.803474 -44.48 
L 118.774582 -44.48 
L 117.745691 -44.48 
L 116.7168 -44.48 
L 115.687909 -44.48 
L 114.659018 -44.48 
L 113.630126 -44.48 
L 112.601235 -44.48 
L 111.572344 -44.48 
L 110.543453 -44.48 
L 109.514561 -44.48 
L 108.48567 -44.48 
L 107.456779 -44.48 
L 106.427888 -44.48 
L 105.398996 -44.48 
L 104.370105 -44.48 
L 103.341214 -44.48 
L 102.312323 -44.48 
L 101.283432 -44.48 
L 100.25454 -44.48 
L 99.225649 -44.48 
L 98.196758 -44.48 
L 97.167867 -44.48 
L 96.138975 -44.48 
L 95.110084 -44.48 
L 94.081193 -44.48 
L 93.052302 -44.48 
L 92.023411 -44.48 
L 90.994519 -44.48 
L 89.965628 -44.48 
L 88.936737 -44.48 
L 87.907846 -44.48 
L 86.878954 -44.48 
L 85.850063 -44.48 
L 84.821172 -44.48 
L 83.792281 -44.48 
L 82.763389 -44.48 
L 81.734498 -44.48 
L 80.705607 -44.48 
L 79.676716 -44.48 
L 78.647825 -44.48 
L 77.618933 -44.48 
L 76.590042 -44.48 
L 75.561151 -44.48 
L 74.53226 -44.48 
L 73.503368 -44.48 
L 72.474477 -44.48 
L 71.445586 -44.48 
L 70.416695 -44.48 
L 69.387804 -44.48 
L 68.358912 -44.48 
L 67.330021 -44.48 
L 66.30113 -44.48 
L 65.272239 -44.48 
L 64.243347 -44.48 
L 63.214456 -44.48 
L 62.185565 -44.48 
L 61.156674 -44.48 
L 60.127782 -44.48 
L 59.098891 -44.48 
L 58.07 -44.48 
z
" style="stroke: #41607f; stroke-opacity: 0.18"/>
    </defs>
    <g clip-path="url(#p138f0664c0)">
     <use xlink:href="#mea389a25c2" x="0" y="316.8" style="fill: #41607f; fill-opacity: 0.18; stroke: #41607f; stroke-opacity: 0.18"/>
    </g>
   </g>
   <g id="line2d_27">
    <path d="M 58.07 271.924821 
L 82.763389 271.517583 
L 102.312323 270.986794 
L 119.803474 270.301925 
L 136.265733 269.439242 
L 151.699102 268.417783 
L 168.161361 267.09694 
L 185.652512 265.454975 
L 207.259228 263.182791 
L 232.981509 260.285842 
L 239.154856 259.370093 
L 243.270421 258.507442 
L 246.357095 257.601213 
L 248.414877 256.807846 
L 250.47266 255.808062 
L 252.530442 254.54332 
L 254.588225 252.944335 
L 256.646007 250.931084 
L 258.703789 248.413594 
L 260.761572 245.293713 
L 262.819354 241.46804 
L 264.877137 236.832167 
L 266.934919 231.286243 
L 268.992702 224.741802 
L 271.050484 217.129635 
L 273.108267 208.408308 
L 275.166049 198.572809 
L 277.223832 187.662622 
L 279.281614 175.768478 
L 282.368288 156.418737 
L 291.628309 95.762919 
L 293.686091 83.958231 
L 295.743874 73.579033 
L 297.801656 64.973143 
L 298.830547 61.431137 
L 299.859439 58.439962 
L 300.88833 56.026631 
L 301.917221 54.213145 
L 302.946112 53.016151 
L 303.975004 52.446695 
L 305.003895 52.510046 
L 306.032786 53.205618 
L 307.061677 54.526976 
L 308.090568 56.461939 
L 309.11946 58.992764 
L 310.148351 62.09642 
L 311.177242 65.744938 
L 312.206133 69.90583 
L 314.263916 79.61515 
L 316.321698 90.893687 
L 318.379481 103.373792 
L 321.466154 123.505343 
L 327.639502 164.34242 
L 330.726175 183.016116 
L 332.783958 194.333825 
L 334.84174 204.606675 
L 336.899523 213.775391 
L 338.957305 221.828098 
L 341.015088 228.792685 
L 343.07287 234.728293 
L 345.130653 239.716677 
L 347.188435 243.854017 
L 349.246218 247.243641 
L 351.304 249.989936 
L 353.361782 252.193576 
L 355.419565 253.94808 
L 357.477347 255.337596 
L 359.53513 256.435744 
L 361.592912 257.305323 
L 364.679586 258.292933 
L 367.76626 259.018726 
L 371.881825 259.741313 
L 378.055172 260.567666 
L 393.48854 262.304586 
L 423.326386 265.475525 
L 440.817537 267.114872 
L 457.279796 268.432795 
L 468.5976 269.200416 
L 468.5976 269.200416 
" clip-path="url(#p138f0664c0)" style="fill: none; stroke: #1f3a5f; stroke-width: 2.6; stroke-linecap: square"/>
   </g>
   <g id="line2d_28">
    <path d="M 304.38656 272.32 
L 304.38656 27.96 
" clip-path="url(#p138f0664c0)" style="fill: none; stroke-dasharray: 5.6,4.2; stroke-dashoffset: 0; stroke: #c8553d; stroke-width: 1.4"/>
   </g>
   <g id="line2d_29">
    <path d="M 304.38656 272.32 
L 304.38656 27.96 
" clip-path="url(#p138f0664c0)" style="fill: none; stroke-dasharray: 0.8,1.32; stroke-dashoffset: 0; stroke: #8a99a8; stroke-width: 0.8"/>
   </g>
   <g id="patch_3">
    <path d="M 58.07 272.32 
L 58.07 27.96 
" style="fill: none; stroke: #41607f; stroke-width: 0.8; stroke-linejoin: miter; stroke-linecap: square"/>
   </g>
   <g id="patch_4">
    <path d="M 468.5976 272.32 
L 468.5976 27.96 
" style="fill: none; stroke: #41607f; stroke-width: 0.8; stroke-linejoin: miter; stroke-linecap: square"/>
   </g>
   <g id="patch_5">
    <path d="M 58.07 272.32 
L 468.5976 272.32 
" style="fill: none; stroke: #41607f; stroke-width: 0.8; stroke-linejoin: miter; stroke-linecap: square"/>
   </g>
   <g id="patch_6">
    <path d="M 58.07 27.96 
L 468.5976 27.96 
" style="fill: none; stroke: #41607f; stroke-width: 0.8; stroke-linejoin: miter; stroke-linecap: square"/>
   </g>
   <g id="text_16">
    <text style="font-size: 8px; font-family: 'DejaVu Sans'; text-anchor: start; fill: #8a99a8" x="308.491836" y="256.029333" transform="rotate(-0 308.491836 256.029333)">Initial</text>
   </g>
   <g id="patch_7">
    <path d="M 357.870112 96.423544 
Q 336.229762 94.845735 315.704485 93.349227 
" style="fill: none; stroke: #c8553d; stroke-linecap: round"/>
    <path d="M 319.164063 95.406244 
L 315.704485 93.349227 
L 319.425846 91.815775 
" style="fill: none; stroke: #c8553d; stroke-linecap: round"/>
   </g>
   <g id="text_17">
    <text style="font-size: 9px; font-family: 'DejaVu Sans'; fill: #c8553d" transform="translate(361.860424 99.335302)">Barrier 100% — gamma spikes,</text>
    <text style="font-size: 9px; font-family: 'DejaVu Sans'; fill: #c8553d" transform="translate(361.860424 109.413333)">hedging expensive</text>
   </g>
   <g id="text_18">
    <g id="patch_8">
     <path d="M 188.966795 66.209747 
L 462.439686 66.209747 
Q 465.839686 66.209747 465.839686 62.809747 
L 465.839686 45.0652 
Q 465.839686 41.6652 462.439686 41.6652 
L 188.966795 41.6652 
Q 185.566795 41.6652 185.566795 45.0652 
L 185.566795 62.809747 
Q 185.566795 66.209747 188.966795 66.209747 
z
" style="fill: #ffffff; stroke: #41607f; stroke-width: 0.8; stroke-linejoin: miter"/>
    </g>
    <text style="font-size: 8.5px; font-family: 'DejaVu Sans'; fill: #41607f" transform="translate(188.966795 51.523872)">Desk is LONG the embedded put (mirror of investor's short put);</text>
    <text style="font-size: 8.5px; font-family: 'DejaVu Sans'; fill: #41607f" transform="translate(292.885936 61.042013)">delta-hedges by trading the underlying.</text>
   </g>
   <g id="text_19">
    <text style="font-weight: 700; font-size: 13px; font-family: 'DejaVu Sans'; text-anchor: start; fill: #1f3a5f" x="58.07" y="21.96" transform="rotate(-0 58.07 21.96)">Warrant Desk Position &amp; Hedge — Bank Lens (Desk Economics)</text>
   </g>
  </g>
 </g>
 <defs>
  <clipPath id="p138f0664c0">
   <rect x="58.07" y="27.96" width="410.5276" height="244.36"/>
  </clipPath>
 </defs>
</svg>
