<?xml version="1.0" encoding="utf-8" standalone="no"?>
<!DOCTYPE svg PUBLIC "-//W3C//DTD SVG 1.1//EN"
  "http://www.w3.org/Graphics/SVG/1.1/DTD/svg11.dtd">
<svg xmlns:xlink="http://www.w3.org/1999/xlink" width="518.4pt" height="316.8pt" viewBox="0 0 518.4 316.8" xmlns="http://www.w3.org/2000/svg" version="1.1">
 <metadata>
  <rdf:RDF xmlns:dc="http://purl.org/dc/elements/1.1/" xmlns:cc="http://creativecommons.org/ns#" xmlns:rdf="http://www.w3.org/1999/02/22-rdf-syntax-ns#">
   <cc:Work>
    <dc:type rdf:resource="http://purl.org/dc/dcmitype/StillImage"/>
    <dc:date>2026-06-27T19:07:10.898105</dc:date>
    <dc:format>image/svg+xml</dc:format>
    <dc:creator>
     <cc:Agent>
      <dc:title>Matplotlib v3.10.9, https://matplotlib.org/</dc:title>
     </cc:Agent>
    </dc:creator>
   </cc:Work>
  </rdf:RDF>
 </metadata>
 <defs>
  <style type="text/css">*{stroke-linejoin: round; stroke-linecap: butt}</style>
 </defs>
 <g id="figure_1">
  <g id="patch_1">
   <path d="M 0 316.8 
L 518.4 316.8 
L 518.4 0 
L 0 0 
z
" style="fill: #ffffff"/>
  </g>
  <g id="axes_1">
   <g id="patch_2">
    <path d="M 57.98 272.32 
L 496.08 272.32 
L 496.08 27.96 
L 57.98 27.96 
z
" style="fill: #ffffff"/>
   </g>
   <g id="matplotlib.axis_1">
    <g id="xtick_1">
     <g id="line2d_1">
      <path d="M 57.98 272.32 
L 57.98 27.96 
" clip-path="url(#p2fdb24b120)" style="fill: none; stroke: #eef2f6; stroke-linecap: square"/>
     </g>
     <g id="line2d_2">
      <defs>
       <path id="mc6eb11fbee" d="M 0 0 
L 0 3.5 
" style="stroke: #41607f; stroke-width: 0.8"/>
      </defs>
      <g>
       <use xlink:href="#mc6eb11fbee" x="57.98" y="272.32" style="fill: #41607f; stroke: #41607f; stroke-width: 0.8"/>
      </g>
     </g>
     <g id="text_1">
      <text style="font-size: 11px; font-family: 'DejaVu Sans'; text-anchor: middle; fill: #41607f" x="57.98" y="287.678281" transform="rotate(-0 57.98 287.678281)">−50</text>
     </g>
    </g>
    <g id="xtick_2">
     <g id="line2d_3">
      <path d="M 120.565714 272.32 
L 120.565714 27.96 
" clip-path="url(#p2fdb24b120)" style="fill: none; stroke: #eef2f6; stroke-linecap: square"/>
     </g>
     <g id="line2d_4">
      <g>
       <use xlink:href="#mc6eb11fbee" x="120.565714" y="272.32" style="fill: #41607f; stroke: #41607f; stroke-width: 0.8"/>
      </g>
     </g>
     <g id="text_2">
      <text style="font-size: 11px; font-family: 'DejaVu Sans'; text-anchor: middle; fill: #41607f" x="120.565714" y="287.678281" transform="rotate(-0 120.565714 287.678281)">0</text>
     </g>
    </g>
    <g id="xtick_3">
     <g id="line2d_5">
      <path d="M 183.151429 272.32 
L 183.151429 27.96 
" clip-path="url(#p2fdb24b120)" style="fill: none; stroke: #eef2f6; stroke-linecap: square"/>
     </g>
     <g id="line2d_6">
      <g>
       <use xlink:href="#mc6eb11fbee" x="183.151429" y="272.32" style="fill: #41607f; stroke: #41607f; stroke-width: 0.8"/>
      </g>
     </g>
     <g id="text_3">
      <text style="font-size: 11px; font-family: 'DejaVu Sans'; text-anchor: middle; fill: #41607f" x="183.151429" y="287.678281" transform="rotate(-0 183.151429 287.678281)">50</text>
     </g>
    </g>
    <g id="xtick_4">
     <g id="line2d_7">
      <path d="M 245.737143 272.32 
L 245.737143 27.96 
" clip-path="url(#p2fdb24b120)" style="fill: none; stroke: #eef2f6; stroke-linecap: square"/>
     </g>
     <g id="line2d_8">
      <g>
       <use xlink:href="#mc6eb11fbee" x="245.737143" y="272.32" style="fill: #41607f; stroke: #41607f; stroke-width: 0.8"/>
      </g>
     </g>
     <g id="text_4">
      <text style="font-size: 11px; font-family: 'DejaVu Sans'; text-anchor: middle; fill: #41607f" x="245.737143" y="287.678281" transform="rotate(-0 245.737143 287.678281)">100</text>
     </g>
    </g>
    <g id="xtick_5">
     <g id="line2d_9">
      <path d="M 308.322857 272.32 
L 308.322857 27.96 
" clip-path="url(#p2fdb24b120)" style="fill: none; stroke: #eef2f6; stroke-linecap: square"/>
     </g>
     <g id="line2d_10">
      <g>
       <use xlink:href="#mc6eb11fbee" x="308.322857" y="272.32" style="fill: #41607f; stroke: #41607f; stroke-width: 0.8"/>
      </g>
     </g>
     <g id="text_5">
      <text style="font-size: 11px; font-family: 'DejaVu Sans'; text-anchor: middle; fill: #41607f" x="308.322857" y="287.678281" transform="rotate(-0 308.322857 287.678281)">150</text>
     </g>
    </g>
    <g id="xtick_6">
     <g id="line2d_11">
      <path d="M 370.908571 272.32 
L 370.908571 27.96 
" clip-path="url(#p2fdb24b120)" style="fill: none; stroke: #eef2f6; stroke-linecap: square"/>
     </g>
     <g id="line2d_12">
      <g>
       <use xlink:href="#mc6eb11fbee" x="370.908571" y="272.32" style="fill: #41607f; stroke: #41607f; stroke-width: 0.8"/>
      </g>
     </g>
     <g id="text_6">
      <text style="font-size: 11px; font-family: 'DejaVu Sans'; text-anchor: middle; fill: #41607f" x="370.908571" y="287.678281" transform="rotate(-0 370.908571 287.678281)">200</text>
     </g>
    </g>
    <g id="xtick_7">
     <g id="line2d_13">
      <path d="M 433.494286 272.32 
L 433.494286 27.96 
" clip-path="url(#p2fdb24b120)" style="fill: none; stroke: #eef2f6; stroke-linecap: square"/>
     </g>
     <g id="line2d_14">
      <g>
       <use xlink:href="#mc6eb11fbee" x="433.494286" y="272.32" style="fill: #41607f; stroke: #41607f; stroke-width: 0.8"/>
      </g>
     </g>
     <g id="text_7">
      <text style="font-size: 11px; font-family: 'DejaVu Sans'; text-anchor: middle; fill: #41607f" x="433.494286" y="287.678281" transform="rotate(-0 433.494286 287.678281)">250</text>
     </g>
    </g>
    <g id="xtick_8">
     <g id="line2d_15">
      <path d="M 496.08 272.32 
L 496.08 27.96 
" clip-path="url(#p2fdb24b120)" style="fill: none; stroke: #eef2f6; stroke-linecap: square"/>
     </g>
     <g id="line2d_16">
      <g>
       <use xlink:href="#mc6eb11fbee" x="496.08" y="272.32" style="fill: #41607f; stroke: #41607f; stroke-width: 0.8"/>
      </g>
     </g>
     <g id="text_8">
      <text style="font-size: 11px; font-family: 'DejaVu Sans'; text-anchor: middle; fill: #41607f" x="496.08" y="287.678281" transform="rotate(-0 496.08 287.678281)">300</text>
     </g>
    </g>
    <g id="text_9">
     <text style="font-size: 11px; font-family: 'DejaVu Sans'; text-anchor: middle; fill: #1f3a5f" x="277.03" y="302.324219" transform="rotate(-0 277.03 302.324219)">Curve slope: long-tenor − short-tenor CMS (bp)</text>
    </g>
   </g>
   <g id="matplotlib.axis_2">
    <g id="ytick_1">
     <g id="line2d_17">
      <path d="M 57.98 265.625205 
L 496.08 265.625205 
" clip-path="url(#p2fdb24b120)" style="fill: none; stroke: #eef2f6; stroke-linecap: square"/>
     </g>
     <g id="line2d_18">
      <defs>
       <path id="m58dfaab4ad" d="M 0 0 
L -3.5 0 
" style="stroke: #41607f; stroke-width: 0.8"/>
      </defs>
      <g>
       <use xlink:href="#m58dfaab4ad" x="57.98" y="265.625205" style="fill: #41607f; stroke: #41607f; stroke-width: 0.8"/>
      </g>
     </g>
     <g id="text_10">
      <text style="font-size: 11px; font-family: 'DejaVu Sans'; text-anchor: end; fill: #41607f" x="50.98" y="269.804346" transform="rotate(-0 50.98 269.804346)">0.0</text>
     </g>
    </g>
    <g id="ytick_2">
     <g id="line2d_19">
      <path d="M 57.98 232.151233 
L 496.08 232.151233 
" clip-path="url(#p2fdb24b120)" style="fill: none; stroke: #eef2f6; stroke-linecap: square"/>
     </g>
     <g id="line2d_20">
      <g>
       <use xlink:href="#m58dfaab4ad" x="57.98" y="232.151233" style="fill: #41607f; stroke: #41607f; stroke-width: 0.8"/>
      </g>
     </g>
     <g id="text_11">
      <text style="font-size: 11px; font-family: 'DejaVu Sans'; text-anchor: end; fill: #41607f" x="50.98" y="236.330374" transform="rotate(-0 50.98 236.330374)">2.5</text>
     </g>
    </g>
    <g id="ytick_3">
     <g id="line2d_21">
      <path d="M 57.98 198.67726 
L 496.08 198.67726 
" clip-path="url(#p2fdb24b120)" style="fill: none; stroke: #eef2f6; stroke-linecap: square"/>
     </g>
     <g id="line2d_22">
      <g>
       <use xlink:href="#m58dfaab4ad" x="57.98" y="198.67726" style="fill: #41607f; stroke: #41607f; stroke-width: 0.8"/>
      </g>
     </g>
     <g id="text_12">
      <text style="font-size: 11px; font-family: 'DejaVu Sans'; text-anchor: end; fill: #41607f" x="50.98" y="202.856401" transform="rotate(-0 50.98 202.856401)">5.0</text>
     </g>
    </g>
    <g id="ytick_4">
     <g id="line2d_23">
      <path d="M 57.98 165.203288 
L 496.08 165.203288 
" clip-path="url(#p2fdb24b120)" style="fill: none; stroke: #eef2f6; stroke-linecap: square"/>
     </g>
     <g id="line2d_24">
      <g>
       <use xlink:href="#m58dfaab4ad" x="57.98" y="165.203288" style="fill: #41607f; stroke: #41607f; stroke-width: 0.8"/>
      </g>
     </g>
     <g id="text_13">
      <text style="font-size: 11px; font-family: 'DejaVu Sans'; text-anchor: end; fill: #41607f" x="50.98" y="169.382428" transform="rotate(-0 50.98 169.382428)">7.5</text>
     </g>
    </g>
    <g id="ytick_5">
     <g id="line2d_25">
      <path d="M 57.98 131.729315 
L 496.08 131.729315 
" clip-path="url(#p2fdb24b120)" style="fill: none; stroke: #eef2f6; stroke-linecap: square"/>
     </g>
     <g id="line2d_26">
      <g>
       <use xlink:href="#m58dfaab4ad" x="57.98" y="131.729315" style="fill: #41607f; stroke: #41607f; stroke-width: 0.8"/>
      </g>
     </g>
     <g id="text_14">
      <text style="font-size: 11px; font-family: 'DejaVu Sans'; text-anchor: end; fill: #41607f" x="50.98" y="135.908456" transform="rotate(-0 50.98 135.908456)">10.0</text>
     </g>
    </g>
    <g id="ytick_6">
     <g id="line2d_27">
      <path d="M 57.98 98.255342 
L 496.08 98.255342 
" clip-path="url(#p2fdb24b120)" style="fill: none; stroke: #eef2f6; stroke-linecap: square"/>
     </g>
     <g id="line2d_28">
      <g>
       <use xlink:href="#m58dfaab4ad" x="57.98" y="98.255342" style="fill: #41607f; stroke: #41607f; stroke-width: 0.8"/>
      </g>
     </g>
     <g id="text_15">
      <text style="font-size: 11px; font-family: 'DejaVu Sans'; text-anchor: end; fill: #41607f" x="50.98" y="102.434483" transform="rotate(-0 50.98 102.434483)">12.5</text>
     </g>
    </g>
    <g id="ytick_7">
     <g id="line2d_29">
      <path d="M 57.98 64.78137 
L 496.08 64.78137 
" clip-path="url(#p2fdb24b120)" style="fill: none; stroke: #eef2f6; stroke-linecap: square"/>
     </g>
     <g id="line2d_30">
      <g>
       <use xlink:href="#m58dfaab4ad" x="57.98" y="64.78137" style="fill: #41607f; stroke: #41607f; stroke-width: 0.8"/>
      </g>
     </g>
     <g id="text_16">
      <text style="font-size: 11px; font-family: 'DejaVu Sans'; text-anchor: end; fill: #41607f" x="50.98" y="68.96051" transform="rotate(-0 50.98 68.96051)">15.0</text>
     </g>
    </g>
    <g id="ytick_8">
     <g id="line2d_31">
      <path d="M 57.98 31.307397 
L 496.08 31.307397 
" clip-path="url(#p2fdb24b120)" style="fill: none; stroke: #eef2f6; stroke-linecap: square"/>
     </g>
     <g id="line2d_32">
      <g>
       <use xlink:href="#m58dfaab4ad" x="57.98" y="31.307397" style="fill: #41607f; stroke: #41607f; stroke-width: 0.8"/>
      </g>
     </g>
     <g id="text_17">
      <text style="font-size: 11px; font-family: 'DejaVu Sans'; text-anchor: end; fill: #41607f" x="50.98" y="35.486538" transform="rotate(-0 50.98 35.486538)">17.5</text>
     </g>
    </g>
    <g id="text_18">
     <text style="font-size: 11px; font-family: 'DejaVu Sans'; text-anchor: middle; fill: #1f3a5f" x="20.200156" y="150.14" transform="rotate(-90 20.200156 150.14)">Coupon paid (%)</text>
    </g>
   </g>
   <g id="FillBetweenPolyCollection_1">
    <defs>
     <path id="mb8b5bed0a5" d="M 57.98 -51.174795 
L 57.98 -51.174795 
L 59.077995 -51.174795 
L 60.17599 -51.174795 
L 61.273985 -51.174795 
L 62.37198 -51.174795 
L 63.469975 -51.174795 
L 64.56797 -51.174795 
L 65.665965 -51.174795 
L 66.76396 -51.174795 
L 67.861955 -51.174795 
L 68.95995 -51.174795 
L 70.057945 -51.174795 
L 71.15594 -51.174795 
L 72.253935 -51.174795 
L 73.35193 -51.174795 
L 74.449925 -51.174795 
L 75.54792 -51.174795 
L 76.645915 -51.174795 
L 77.74391 -51.174795 
L 78.841905 -51.174795 
L 79.9399 -51.174795 
L 81.037895 -51.174795 
L 82.13589 -51.174795 
L 83.233885 -51.174795 
L 84.33188 -51.174795 
L 85.429875 -51.174795 
L 86.52787 -51.174795 
L 87.625865 -51.174795 
L 88.72386 -51.174795 
L 89.821855 -51.174795 
L 90.91985 -51.174795 
L 92.017845 -51.174795 
L 93.11584 -51.174795 
L 94.213835 -51.174795 
L 95.31183 -51.174795 
L 96.409825 -51.174795 
L 97.50782 -51.174795 
L 98.605815 -51.174795 
L 99.70381 -51.174795 
L 100.801805 -51.174795 
L 101.899799 -51.174795 
L 102.997794 -51.174795 
L 104.095789 -51.174795 
L 105.193784 -51.174795 
L 106.291779 -51.174795 
L 107.389774 -51.174795 
L 108.487769 -51.174795 
L 109.585764 -51.174795 
L 110.683759 -51.174795 
L 111.781754 -51.174795 
L 112.879749 -51.174795 
L 113.977744 -51.174795 
L 115.075739 -51.174795 
L 116.173734 -51.174795 
L 117.271729 -51.174795 
L 118.369724 -51.174795 
L 119.467719 -51.174795 
L 120.565714 -51.174795 
L 121.663709 -51.762057 
L 122.761704 -52.34932 
L 123.859699 -52.936583 
L 124.957694 -53.523845 
L 126.055689 -54.111108 
L 127.153684 -54.698371 
L 128.251679 -55.285633 
L 129.349674 -55.872896 
L 130.447669 -56.460159 
L 131.545664 -57.047421 
L 132.643659 -57.634684 
L 133.741654 -58.221947 
L 134.839649 -58.809209 
L 135.937644 -59.396472 
L 137.035639 -59.983735 
L 138.133634 -60.570997 
L 139.231629 -61.15826 
L 140.329624 -61.745523 
L 141.427619 -62.332785 
L 142.525614 -62.920048 
L 143.623609 -63.507311 
L 144.721604 -64.094573 
L 145.819599 -64.681836 
L 146.917594 -65.269099 
L 148.015589 -65.856361 
L 149.113584 -66.443624 
L 150.211579 -67.030887 
L 151.309574 -67.618149 
L 152.407569 -68.205412 
L 153.505564 -68.792675 
L 154.603559 -69.379938 
L 155.701554 -69.9672 
L 156.799549 -70.554463 
L 157.897544 -71.141726 
L 158.995539 -71.728988 
L 160.093534 -72.316251 
L 161.191529 -72.903514 
L 162.289524 -73.490776 
L 163.387519 -74.078039 
L 164.485514 -74.665302 
L 165.583509 -75.252564 
L 166.681504 -75.839827 
L 167.779499 -76.42709 
L 168.877494 -77.014352 
L 169.975489 -77.601615 
L 171.073484 -78.188878 
L 172.171479 -78.77614 
L 173.269474 -79.363403 
L 174.367469 -79.950666 
L 175.465464 -80.537928 
L 176.563459 -81.125191 
L 177.661454 -81.712454 
L 178.759449 -82.299716 
L 179.857444 -82.886979 
L 180.955439 -83.474242 
L 182.053434 -84.061504 
L 183.151429 -84.648767 
L 184.249424 -85.23603 
L 185.347419 -85.823292 
L 186.445414 -86.410555 
L 187.543409 -86.997818 
L 188.641404 -87.585081 
L 189.739398 -88.172343 
L 190.837393 -88.759606 
L 191.935388 -89.346869 
L 193.033383 -89.934131 
L 194.131378 -90.521394 
L 195.229373 -91.108657 
L 196.327368 -91.695919 
L 197.425363 -92.283182 
L 198.523358 -92.870445 
L 199.621353 -93.457707 
L 200.719348 -94.04497 
L 201.817343 -94.632233 
L 202.915338 -95.219495 
L 204.013333 -95.806758 
L 205.111328 -96.394021 
L 206.209323 -96.981283 
L 207.307318 -97.568546 
L 208.405313 -98.155809 
L 209.503308 -98.743071 
L 210.601303 -99.330334 
L 211.699298 -99.917597 
L 212.797293 -100.504859 
L 213.895288 -101.092122 
L 214.993283 -101.679385 
L 216.091278 -102.266647 
L 217.189273 -102.85391 
L 218.287268 -103.441173 
L 219.385263 -104.028435 
L 220.483258 -104.615698 
L 221.581253 -105.202961 
L 222.679248 -105.790224 
L 223.777243 -106.377486 
L 224.875238 -106.964749 
L 225.973233 -107.552012 
L 227.071228 -108.139274 
L 228.169223 -108.726537 
L 229.267218 -109.3138 
L 230.365213 -109.901062 
L 231.463208 -110.488325 
L 232.561203 -111.075588 
L 233.659198 -111.66285 
L 234.757193 -112.250113 
L 235.855188 -112.837376 
L 236.953183 -113.424638 
L 238.051178 -114.011901 
L 239.149173 -114.599164 
L 240.247168 -115.186426 
L 241.345163 -115.773689 
L 242.443158 -116.360952 
L 243.541153 -116.948214 
L 244.639148 -117.535477 
L 245.737143 -118.12274 
L 246.835138 -118.710002 
L 247.933133 -119.297265 
L 249.031128 -119.884528 
L 250.129123 -120.47179 
L 251.227118 -121.059053 
L 252.325113 -121.646316 
L 253.423108 -122.233578 
L 254.521103 -122.820841 
L 255.619098 -123.408104 
L 256.717093 -123.995366 
L 257.815088 -124.582629 
L 258.913083 -125.169892 
L 260.011078 -125.757155 
L 261.109073 -126.344417 
L 262.207068 -126.93168 
L 263.305063 -127.518943 
L 264.403058 -128.106205 
L 265.501053 -128.693468 
L 266.599048 -129.280731 
L 267.697043 -129.867993 
L 268.795038 -130.455256 
L 269.893033 -131.042519 
L 270.991028 -131.629781 
L 272.089023 -132.217044 
L 273.187018 -132.804307 
L 274.285013 -133.391569 
L 275.383008 -133.978832 
L 276.481003 -134.566095 
L 277.578997 -135.153357 
L 278.676992 -135.74062 
L 279.774987 -136.327883 
L 280.872982 -136.915145 
L 281.970977 -137.502408 
L 283.068972 -138.089671 
L 284.166967 -138.676933 
L 285.264962 -139.264196 
L 286.362957 -139.851459 
L 287.460952 -140.438721 
L 288.558947 -141.025984 
L 289.656942 -141.613247 
L 290.754937 -142.200509 
L 291.852932 -142.787772 
L 292.950927 -143.375035 
L 294.048922 -143.962298 
L 295.146917 -144.54956 
L 296.244912 -145.136823 
L 297.342907 -145.724086 
L 298.440902 -146.311348 
L 299.538897 -146.898611 
L 300.636892 -147.485874 
L 301.734887 -148.073136 
L 302.832882 -148.660399 
L 303.930877 -149.247662 
L 305.028872 -149.834924 
L 306.126867 -150.422187 
L 307.224862 -151.00945 
L 308.322857 -151.596712 
L 309.420852 -152.183975 
L 310.518847 -152.771238 
L 311.616842 -153.3585 
L 312.714837 -153.945763 
L 313.812832 -154.533026 
L 314.910827 -155.120288 
L 316.008822 -155.707551 
L 317.106817 -156.294814 
L 318.204812 -156.882076 
L 319.302807 -157.469339 
L 320.400802 -158.056602 
L 321.498797 -158.643864 
L 322.596792 -159.231127 
L 323.694787 -159.81839 
L 324.792782 -160.405652 
L 325.890777 -160.992915 
L 326.988772 -161.580178 
L 328.086767 -162.167441 
L 329.184762 -162.754703 
L 330.282757 -163.341966 
L 331.380752 -163.929229 
L 332.478747 -164.516491 
L 333.576742 -165.103754 
L 334.674737 -165.691017 
L 335.772732 -166.278279 
L 336.870727 -166.865542 
L 337.968722 -167.452805 
L 339.066717 -168.040067 
L 340.164712 -168.62733 
L 341.262707 -169.214593 
L 342.360702 -169.801855 
L 343.458697 -170.389118 
L 344.556692 -170.976381 
L 345.654687 -171.563643 
L 346.752682 -172.150906 
L 347.850677 -172.738169 
L 348.948672 -173.325431 
L 350.046667 -173.912694 
L 351.144662 -174.499957 
L 352.242657 -175.087219 
L 353.340652 -175.674482 
L 354.438647 -176.261745 
L 355.536642 -176.849007 
L 356.634637 -177.43627 
L 357.732632 -178.023533 
L 358.830627 -178.610795 
L 359.928622 -179.198058 
L 361.026617 -179.785321 
L 362.124612 -180.372584 
L 363.222607 -180.959846 
L 364.320602 -181.547109 
L 365.418596 -182.134372 
L 366.516591 -182.721634 
L 367.614586 -183.308897 
L 368.712581 -183.89616 
L 369.810576 -184.483422 
L 370.908571 -185.070685 
L 372.006566 -185.657948 
L 373.104561 -186.24521 
L 374.202556 -186.832473 
L 375.300551 -187.419736 
L 376.398546 -188.006998 
L 377.496541 -188.594261 
L 378.594536 -189.181524 
L 379.692531 -189.768786 
L 380.790526 -190.356049 
L 381.888521 -190.943312 
L 382.986516 -191.530574 
L 384.084511 -192.117837 
L 385.182506 -192.7051 
L 386.280501 -193.292362 
L 387.378496 -193.879625 
L 388.476491 -194.466888 
L 389.574486 -195.05415 
L 390.672481 -195.641413 
L 391.770476 -196.228676 
L 392.868471 -196.815938 
L 393.966466 -197.403201 
L 395.064461 -197.990464 
L 396.162456 -198.577727 
L 397.260451 -199.164989 
L 398.358446 -199.752252 
L 399.456441 -200.339515 
L 400.554436 -200.926777 
L 401.652431 -201.51404 
L 402.750426 -202.101303 
L 403.848421 -202.688565 
L 404.946416 -203.275828 
L 406.044411 -203.863091 
L 407.142406 -204.450353 
L 408.240401 -205.037616 
L 409.338396 -205.624879 
L 410.436391 -206.212141 
L 411.534386 -206.799404 
L 412.632381 -207.386667 
L 413.730376 -207.973929 
L 414.828371 -208.561192 
L 415.926366 -209.148455 
L 417.024361 -209.735717 
L 418.122356 -210.32298 
L 419.220351 -210.910243 
L 420.318346 -211.497505 
L 421.416341 -212.084768 
L 422.514336 -212.672031 
L 423.612331 -213.259293 
L 424.710326 -213.846556 
L 425.808321 -214.433819 
L 426.906316 -215.021081 
L 428.004311 -215.608344 
L 429.102306 -216.195607 
L 430.200301 -216.78287 
L 431.298296 -217.370132 
L 432.396291 -217.957395 
L 433.494286 -218.544658 
L 434.592281 -219.13192 
L 435.690276 -219.719183 
L 436.788271 -220.306446 
L 437.886266 -220.893708 
L 438.984261 -221.480971 
L 440.082256 -222.068234 
L 441.180251 -222.655496 
L 442.278246 -223.242759 
L 443.376241 -223.830022 
L 444.474236 -224.417284 
L 445.572231 -225.004547 
L 446.670226 -225.59181 
L 447.768221 -226.179072 
L 448.866216 -226.766335 
L 449.964211 -227.353598 
L 451.062206 -227.94086 
L 452.160201 -228.528123 
L 453.258195 -229.115386 
L 454.35619 -229.702648 
L 455.454185 -230.289911 
L 456.55218 -230.877174 
L 457.650175 -231.464436 
L 458.74817 -232.051699 
L 459.846165 -232.638962 
L 460.94416 -233.226224 
L 462.042155 -233.813487 
L 463.14015 -234.40075 
L 464.238145 -234.988012 
L 465.33614 -235.575275 
L 466.434135 -236.162538 
L 467.53213 -236.749801 
L 468.630125 -237.337063 
L 469.72812 -237.924326 
L 470.826115 -238.511589 
L 471.92411 -239.098851 
L 473.022105 -239.686114 
L 474.1201 -240.273377 
L 475.218095 -240.860639 
L 476.31609 -241.447902 
L 477.414085 -242.035165 
L 478.51208 -242.622427 
L 479.610075 -243.20969 
L 480.70807 -243.796953 
L 481.806065 -244.384215 
L 482.90406 -244.971478 
L 484.002055 -245.558741 
L 485.10005 -246.146003 
L 486.198045 -246.733266 
L 487.29604 -247.320529 
L 488.394035 -247.907791 
L 489.49203 -248.495054 
L 490.590025 -249.082317 
L 491.68802 -249.669579 
L 492.786015 -250.256842 
L 493.88401 -250.844105 
L 494.982005 -251.431367 
L 496.08 -252.01863 
L 496.08 -51.174795 
L 496.08 -51.174795 
L 494.982005 -51.174795 
L 493.88401 -51.174795 
L 492.786015 -51.174795 
L 491.68802 -51.174795 
L 490.590025 -51.174795 
L 489.49203 -51.174795 
L 488.394035 -51.174795 
L 487.29604 -51.174795 
L 486.198045 -51.174795 
L 485.10005 -51.174795 
L 484.002055 -51.174795 
L 482.90406 -51.174795 
L 481.806065 -51.174795 
L 480.70807 -51.174795 
L 479.610075 -51.174795 
L 478.51208 -51.174795 
L 477.414085 -51.174795 
L 476.31609 -51.174795 
L 475.218095 -51.174795 
L 474.1201 -51.174795 
L 473.022105 -51.174795 
L 471.92411 -51.174795 
L 470.826115 -51.174795 
L 469.72812 -51.174795 
L 468.630125 -51.174795 
L 467.53213 -51.174795 
L 466.434135 -51.174795 
L 465.33614 -51.174795 
L 464.238145 -51.174795 
L 463.14015 -51.174795 
L 462.042155 -51.174795 
L 460.94416 -51.174795 
L 459.846165 -51.174795 
L 458.74817 -51.174795 
L 457.650175 -51.174795 
L 456.55218 -51.174795 
L 455.454185 -51.174795 
L 454.35619 -51.174795 
L 453.258195 -51.174795 
L 452.160201 -51.174795 
L 451.062206 -51.174795 
L 449.964211 -51.174795 
L 448.866216 -51.174795 
L 447.768221 -51.174795 
L 446.670226 -51.174795 
L 445.572231 -51.174795 
L 444.474236 -51.174795 
L 443.376241 -51.174795 
L 442.278246 -51.174795 
L 441.180251 -51.174795 
L 440.082256 -51.174795 
L 438.984261 -51.174795 
L 437.886266 -51.174795 
L 436.788271 -51.174795 
L 435.690276 -51.174795 
L 434.592281 -51.174795 
L 433.494286 -51.174795 
L 432.396291 -51.174795 
L 431.298296 -51.174795 
L 430.200301 -51.174795 
L 429.102306 -51.174795 
L 428.004311 -51.174795 
L 426.906316 -51.174795 
L 425.808321 -51.174795 
L 424.710326 -51.174795 
L 423.612331 -51.174795 
L 422.514336 -51.174795 
L 421.416341 -51.174795 
L 420.318346 -51.174795 
L 419.220351 -51.174795 
L 418.122356 -51.174795 
L 417.024361 -51.174795 
L 415.926366 -51.174795 
L 414.828371 -51.174795 
L 413.730376 -51.174795 
L 412.632381 -51.174795 
L 411.534386 -51.174795 
L 410.436391 -51.174795 
L 409.338396 -51.174795 
L 408.240401 -51.174795 
L 407.142406 -51.174795 
L 406.044411 -51.174795 
L 404.946416 -51.174795 
L 403.848421 -51.174795 
L 402.750426 -51.174795 
L 401.652431 -51.174795 
L 400.554436 -51.174795 
L 399.456441 -51.174795 
L 398.358446 -51.174795 
L 397.260451 -51.174795 
L 396.162456 -51.174795 
L 395.064461 -51.174795 
L 393.966466 -51.174795 
L 392.868471 -51.174795 
L 391.770476 -51.174795 
L 390.672481 -51.174795 
L 389.574486 -51.174795 
L 388.476491 -51.174795 
L 387.378496 -51.174795 
L 386.280501 -51.174795 
L 385.182506 -51.174795 
L 384.084511 -51.174795 
L 382.986516 -51.174795 
L 381.888521 -51.174795 
L 380.790526 -51.174795 
L 379.692531 -51.174795 
L 378.594536 -51.174795 
L 377.496541 -51.174795 
L 376.398546 -51.174795 
L 375.300551 -51.174795 
L 374.202556 -51.174795 
L 373.104561 -51.174795 
L 372.006566 -51.174795 
L 370.908571 -51.174795 
L 369.810576 -51.174795 
L 368.712581 -51.174795 
L 367.614586 -51.174795 
L 366.516591 -51.174795 
L 365.418596 -51.174795 
L 364.320602 -51.174795 
L 363.222607 -51.174795 
L 362.124612 -51.174795 
L 361.026617 -51.174795 
L 359.928622 -51.174795 
L 358.830627 -51.174795 
L 357.732632 -51.174795 
L 356.634637 -51.174795 
L 355.536642 -51.174795 
L 354.438647 -51.174795 
L 353.340652 -51.174795 
L 352.242657 -51.174795 
L 351.144662 -51.174795 
L 350.046667 -51.174795 
L 348.948672 -51.174795 
L 347.850677 -51.174795 
L 346.752682 -51.174795 
L 345.654687 -51.174795 
L 344.556692 -51.174795 
L 343.458697 -51.174795 
L 342.360702 -51.174795 
L 341.262707 -51.174795 
L 340.164712 -51.174795 
L 339.066717 -51.174795 
L 337.968722 -51.174795 
L 336.870727 -51.174795 
L 335.772732 -51.174795 
L 334.674737 -51.174795 
L 333.576742 -51.174795 
L 332.478747 -51.174795 
L 331.380752 -51.174795 
L 330.282757 -51.174795 
L 329.184762 -51.174795 
L 328.086767 -51.174795 
L 326.988772 -51.174795 
L 325.890777 -51.174795 
L 324.792782 -51.174795 
L 323.694787 -51.174795 
L 322.596792 -51.174795 
L 321.498797 -51.174795 
L 320.400802 -51.174795 
L 319.302807 -51.174795 
L 318.204812 -51.174795 
L 317.106817 -51.174795 
L 316.008822 -51.174795 
L 314.910827 -51.174795 
L 313.812832 -51.174795 
L 312.714837 -51.174795 
L 311.616842 -51.174795 
L 310.518847 -51.174795 
L 309.420852 -51.174795 
L 308.322857 -51.174795 
L 307.224862 -51.174795 
L 306.126867 -51.174795 
L 305.028872 -51.174795 
L 303.930877 -51.174795 
L 302.832882 -51.174795 
L 301.734887 -51.174795 
L 300.636892 -51.174795 
L 299.538897 -51.174795 
L 298.440902 -51.174795 
L 297.342907 -51.174795 
L 296.244912 -51.174795 
L 295.146917 -51.174795 
L 294.048922 -51.174795 
L 292.950927 -51.174795 
L 291.852932 -51.174795 
L 290.754937 -51.174795 
L 289.656942 -51.174795 
L 288.558947 -51.174795 
L 287.460952 -51.174795 
L 286.362957 -51.174795 
L 285.264962 -51.174795 
L 284.166967 -51.174795 
L 283.068972 -51.174795 
L 281.970977 -51.174795 
L 280.872982 -51.174795 
L 279.774987 -51.174795 
L 278.676992 -51.174795 
L 277.578997 -51.174795 
L 276.481003 -51.174795 
L 275.383008 -51.174795 
L 274.285013 -51.174795 
L 273.187018 -51.174795 
L 272.089023 -51.174795 
L 270.991028 -51.174795 
L 269.893033 -51.174795 
L 268.795038 -51.174795 
L 267.697043 -51.174795 
L 266.599048 -51.174795 
L 265.501053 -51.174795 
L 264.403058 -51.174795 
L 263.305063 -51.174795 
L 262.207068 -51.174795 
L 261.109073 -51.174795 
L 260.011078 -51.174795 
L 258.913083 -51.174795 
L 257.815088 -51.174795 
L 256.717093 -51.174795 
L 255.619098 -51.174795 
L 254.521103 -51.174795 
L 253.423108 -51.174795 
L 252.325113 -51.174795 
L 251.227118 -51.174795 
L 250.129123 -51.174795 
L 249.031128 -51.174795 
L 247.933133 -51.174795 
L 246.835138 -51.174795 
L 245.737143 -51.174795 
L 244.639148 -51.174795 
L 243.541153 -51.174795 
L 242.443158 -51.174795 
L 241.345163 -51.174795 
L 240.247168 -51.174795 
L 239.149173 -51.174795 
L 238.051178 -51.174795 
L 236.953183 -51.174795 
L 235.855188 -51.174795 
L 234.757193 -51.174795 
L 233.659198 -51.174795 
L 232.561203 -51.174795 
L 231.463208 -51.174795 
L 230.365213 -51.174795 
L 229.267218 -51.174795 
L 228.169223 -51.174795 
L 227.071228 -51.174795 
L 225.973233 -51.174795 
L 224.875238 -51.174795 
L 223.777243 -51.174795 
L 222.679248 -51.174795 
L 221.581253 -51.174795 
L 220.483258 -51.174795 
L 219.385263 -51.174795 
L 218.287268 -51.174795 
L 217.189273 -51.174795 
L 216.091278 -51.174795 
L 214.993283 -51.174795 
L 213.895288 -51.174795 
L 212.797293 -51.174795 
L 211.699298 -51.174795 
L 210.601303 -51.174795 
L 209.503308 -51.174795 
L 208.405313 -51.174795 
L 207.307318 -51.174795 
L 206.209323 -51.174795 
L 205.111328 -51.174795 
L 204.013333 -51.174795 
L 202.915338 -51.174795 
L 201.817343 -51.174795 
L 200.719348 -51.174795 
L 199.621353 -51.174795 
L 198.523358 -51.174795 
L 197.425363 -51.174795 
L 196.327368 -51.174795 
L 195.229373 -51.174795 
L 194.131378 -51.174795 
L 193.033383 -51.174795 
L 191.935388 -51.174795 
L 190.837393 -51.174795 
L 189.739398 -51.174795 
L 188.641404 -51.174795 
L 187.543409 -51.174795 
L 186.445414 -51.174795 
L 185.347419 -51.174795 
L 184.249424 -51.174795 
L 183.151429 -51.174795 
L 182.053434 -51.174795 
L 180.955439 -51.174795 
L 179.857444 -51.174795 
L 178.759449 -51.174795 
L 177.661454 -51.174795 
L 176.563459 -51.174795 
L 175.465464 -51.174795 
L 174.367469 -51.174795 
L 173.269474 -51.174795 
L 172.171479 -51.174795 
L 171.073484 -51.174795 
L 169.975489 -51.174795 
L 168.877494 -51.174795 
L 167.779499 -51.174795 
L 166.681504 -51.174795 
L 165.583509 -51.174795 
L 164.485514 -51.174795 
L 163.387519 -51.174795 
L 162.289524 -51.174795 
L 161.191529 -51.174795 
L 160.093534 -51.174795 
L 158.995539 -51.174795 
L 157.897544 -51.174795 
L 156.799549 -51.174795 
L 155.701554 -51.174795 
L 154.603559 -51.174795 
L 153.505564 -51.174795 
L 152.407569 -51.174795 
L 151.309574 -51.174795 
L 150.211579 -51.174795 
L 149.113584 -51.174795 
L 148.015589 -51.174795 
L 146.917594 -51.174795 
L 145.819599 -51.174795 
L 144.721604 -51.174795 
L 143.623609 -51.174795 
L 142.525614 -51.174795 
L 141.427619 -51.174795 
L 140.329624 -51.174795 
L 139.231629 -51.174795 
L 138.133634 -51.174795 
L 137.035639 -51.174795 
L 135.937644 -51.174795 
L 134.839649 -51.174795 
L 133.741654 -51.174795 
L 132.643659 -51.174795 
L 131.545664 -51.174795 
L 130.447669 -51.174795 
L 129.349674 -51.174795 
L 128.251679 -51.174795 
L 127.153684 -51.174795 
L 126.055689 -51.174795 
L 124.957694 -51.174795 
L 123.859699 -51.174795 
L 122.761704 -51.174795 
L 121.663709 -51.174795 
L 120.565714 -51.174795 
L 119.467719 -51.174795 
L 118.369724 -51.174795 
L 117.271729 -51.174795 
L 116.173734 -51.174795 
L 115.075739 -51.174795 
L 113.977744 -51.174795 
L 112.879749 -51.174795 
L 111.781754 -51.174795 
L 110.683759 -51.174795 
L 109.585764 -51.174795 
L 108.487769 -51.174795 
L 107.389774 -51.174795 
L 106.291779 -51.174795 
L 105.193784 -51.174795 
L 104.095789 -51.174795 
L 102.997794 -51.174795 
L 101.899799 -51.174795 
L 100.801805 -51.174795 
L 99.70381 -51.174795 
L 98.605815 -51.174795 
L 97.50782 -51.174795 
L 96.409825 -51.174795 
L 95.31183 -51.174795 
L 94.213835 -51.174795 
L 93.11584 -51.174795 
L 92.017845 -51.174795 
L 90.91985 -51.174795 
L 89.821855 -51.174795 
L 88.72386 -51.174795 
L 87.625865 -51.174795 
L 86.52787 -51.174795 
L 85.429875 -51.174795 
L 84.33188 -51.174795 
L 83.233885 -51.174795 
L 82.13589 -51.174795 
L 81.037895 -51.174795 
L 79.9399 -51.174795 
L 78.841905 -51.174795 
L 77.74391 -51.174795 
L 76.645915 -51.174795 
L 75.54792 -51.174795 
L 74.449925 -51.174795 
L 73.35193 -51.174795 
L 72.253935 -51.174795 
L 71.15594 -51.174795 
L 70.057945 -51.174795 
L 68.95995 -51.174795 
L 67.861955 -51.174795 
L 66.76396 -51.174795 
L 65.665965 -51.174795 
L 64.56797 -51.174795 
L 63.469975 -51.174795 
L 62.37198 -51.174795 
L 61.273985 -51.174795 
L 60.17599 -51.174795 
L 59.077995 -51.174795 
L 57.98 -51.174795 
z
" style="stroke: #41607f; stroke-opacity: 0.12"/>
    </defs>
    <g clip-path="url(#p2fdb24b120)">
     <use xlink:href="#mb8b5bed0a5" x="0" y="316.8" style="fill: #41607f; fill-opacity: 0.12; stroke: #41607f; stroke-opacity: 0.12"/>
    </g>
   </g>
   <g id="line2d_33">
    <path d="M 57.98 265.625205 
L 120.565714 265.625205 
L 496.08 64.78137 
L 496.08 64.78137 
" clip-path="url(#p2fdb24b120)" style="fill: none; stroke: #1f3a5f; stroke-width: 2.6; stroke-linecap: square"/>
   </g>
   <g id="line2d_34">
    <path d="M 120.565714 272.32 
L 120.565714 27.96 
" clip-path="url(#p2fdb24b120)" style="fill: none; stroke-dasharray: 0.9,1.485; stroke-dashoffset: 0; stroke: #8a99a8; stroke-width: 0.9"/>
   </g>
   <g id="line2d_35">
    <path d="M 120.565714 272.32 
L 120.565714 27.96 
" clip-path="url(#p2fdb24b120)" style="fill: none; stroke: #41607f; stroke-width: 0.8; stroke-linecap: square"/>
   </g>
   <g id="line2d_36">
    <path d="M 57.98 265.625205 
L 496.08 265.625205 
" clip-path="url(#p2fdb24b120)" style="fill: none; stroke-dasharray: 1,1.65; stroke-dashoffset: 0; stroke: #c8902d"/>
   </g>
   <g id="patch_3">
    <path d="M 57.98 272.32 
L 57.98 27.96 
" style="fill: none; stroke: #41607f; stroke-width: 0.8; stroke-linejoin: miter; stroke-linecap: square"/>
   </g>
   <g id="patch_4">
    <path d="M 496.08 272.32 
L 496.08 27.96 
" style="fill: none; stroke: #41607f; stroke-width: 0.8; stroke-linejoin: miter; stroke-linecap: square"/>
   </g>
   <g id="patch_5">
    <path d="M 57.98 272.32 
L 496.08 272.32 
" style="fill: none; stroke: #41607f; stroke-width: 0.8; stroke-linejoin: miter; stroke-linecap: square"/>
   </g>
   <g id="patch_6">
    <path d="M 57.98 27.96 
L 496.08 27.96 
" style="fill: none; stroke: #41607f; stroke-width: 0.8; stroke-linejoin: miter; stroke-linecap: square"/>
   </g>
   <g id="text_19">
    <text style="font-size: 8px; font-family: 'DejaVu Sans'; text-anchor: start; fill: #8a99a8" x="125.572571" y="261.608329" transform="rotate(-0 125.572571 261.608329)">Kink @ 0bp</text>
   </g>
   <g id="text_20">
    <text style="font-size: 8px; font-family: 'DejaVu Sans'; text-anchor: start; fill: #c8902d" x="62.986857" y="262.947288" transform="rotate(-0 62.986857 262.947288)">Floor 0%</text>
   </g>
   <g id="text_21">
    <text style="font-size: 9px; font-family: 'DejaVu Sans'; text-anchor: start; fill: #8a99a8" x="70.497143" y="185.287671" transform="rotate(-0 70.497143 185.287671)">Flatter ←</text>
   </g>
   <g id="text_22">
    <text style="font-size: 9px; font-family: 'DejaVu Sans'; text-anchor: end; fill: #8a99a8" x="483.562857" y="185.287671" transform="rotate(-0 483.562857 185.287671)">→ Steeper</text>
   </g>
   <g id="text_23">
    <text style="font-weight: 700; font-size: 13px; font-family: 'DejaVu Sans'; text-anchor: start; fill: #1f3a5f" x="57.98" y="21.96" transform="rotate(-0 57.98 21.96)">TARN Steepener Coupon vs Curve Slope — Investor Lens</text>
   </g>
   <g id="legend_1">
    <g id="line2d_37">
     <path d="M 65.63 39.093672 
L 74.13 39.093672 
L 82.63 39.093672 
" style="fill: none; stroke: #1f3a5f; stroke-width: 2.6; stroke-linecap: square"/>
    </g>
    <g id="text_24">
     <text style="font-size: 8.5px; font-family: 'DejaVu Sans'; text-anchor: start; fill: #1f3a5f" x="89.43" y="42.068672" transform="rotate(-0 89.43 42.068672)">Coupon = 5 × max(0, slope − 0bp)</text>
    </g>
   </g>
  </g>
 </g>
 <defs>
  <clipPath id="p2fdb24b120">
   <rect x="57.98" y="27.96" width="438.1" height="244.36"/>
  </clipPath>
 </defs>
</svg>
