<?xml version="1.0" encoding="utf-8" standalone="no"?>
<!DOCTYPE svg PUBLIC "-//W3C//DTD SVG 1.1//EN"
  "http://www.w3.org/Graphics/SVG/1.1/DTD/svg11.dtd">
<svg xmlns:xlink="http://www.w3.org/1999/xlink" width="518.4pt" height="316.8pt" viewBox="0 0 518.4 316.8" xmlns="http://www.w3.org/2000/svg" version="1.1">
 <metadata>
  <rdf:RDF xmlns:dc="http://purl.org/dc/elements/1.1/" xmlns:cc="http://creativecommons.org/ns#" xmlns:rdf="http://www.w3.org/1999/02/22-rdf-syntax-ns#">
   <cc:Work>
    <dc:type rdf:resource="http://purl.org/dc/dcmitype/StillImage"/>
    <dc:date>2026-06-27T18:21:39.174675</dc:date>
    <dc:format>image/svg+xml</dc:format>
    <dc:creator>
     <cc:Agent>
      <dc:title>Matplotlib v3.10.9, https://matplotlib.org/</dc:title>
     </cc:Agent>
    </dc:creator>
   </cc:Work>
  </rdf:RDF>
 </metadata>
 <defs>
  <style type="text/css">*{stroke-linejoin: round; stroke-linecap: butt}</style>
 </defs>
 <g id="figure_1">
  <g id="patch_1">
   <path d="M 0 316.8 
L 518.4 316.8 
L 518.4 0 
L 0 0 
z
" style="fill: #ffffff"/>
  </g>
  <g id="axes_1">
   <g id="patch_2">
    <path d="M 58.07 272.32 
L 496.125 272.32 
L 496.125 27.96 
L 58.07 27.96 
z
" style="fill: #ffffff"/>
   </g>
   <g id="matplotlib.axis_1">
    <g id="xtick_1">
     <g id="line2d_1">
      <path d="M 58.07 272.32 
L 58.07 27.96 
" clip-path="url(#pde13e725eb)" style="fill: none; stroke: #eef2f6; stroke-linecap: square"/>
     </g>
     <g id="line2d_2">
      <defs>
       <path id="m6976689baf" d="M 0 0 
L 0 3.5 
" style="stroke: #41607f; stroke-width: 0.8"/>
      </defs>
      <g>
       <use xlink:href="#m6976689baf" x="58.07" y="272.32" style="fill: #41607f; stroke: #41607f; stroke-width: 0.8"/>
      </g>
     </g>
     <g id="text_1">
      <text style="font-size: 11px; font-family: 'DejaVu Sans'; text-anchor: middle; fill: #41607f" x="58.07" y="287.678281" transform="rotate(-0 58.07 287.678281)">40</text>
     </g>
    </g>
    <g id="xtick_2">
     <g id="line2d_3">
      <path d="M 145.681 272.32 
L 145.681 27.96 
" clip-path="url(#pde13e725eb)" style="fill: none; stroke: #eef2f6; stroke-linecap: square"/>
     </g>
     <g id="line2d_4">
      <g>
       <use xlink:href="#m6976689baf" x="145.681" y="272.32" style="fill: #41607f; stroke: #41607f; stroke-width: 0.8"/>
      </g>
     </g>
     <g id="text_2">
      <text style="font-size: 11px; font-family: 'DejaVu Sans'; text-anchor: middle; fill: #41607f" x="145.681" y="287.678281" transform="rotate(-0 145.681 287.678281)">60</text>
     </g>
    </g>
    <g id="xtick_3">
     <g id="line2d_5">
      <path d="M 233.292 272.32 
L 233.292 27.96 
" clip-path="url(#pde13e725eb)" style="fill: none; stroke: #eef2f6; stroke-linecap: square"/>
     </g>
     <g id="line2d_6">
      <g>
       <use xlink:href="#m6976689baf" x="233.292" y="272.32" style="fill: #41607f; stroke: #41607f; stroke-width: 0.8"/>
      </g>
     </g>
     <g id="text_3">
      <text style="font-size: 11px; font-family: 'DejaVu Sans'; text-anchor: middle; fill: #41607f" x="233.292" y="287.678281" transform="rotate(-0 233.292 287.678281)">80</text>
     </g>
    </g>
    <g id="xtick_4">
     <g id="line2d_7">
      <path d="M 320.903 272.32 
L 320.903 27.96 
" clip-path="url(#pde13e725eb)" style="fill: none; stroke: #eef2f6; stroke-linecap: square"/>
     </g>
     <g id="line2d_8">
      <g>
       <use xlink:href="#m6976689baf" x="320.903" y="272.32" style="fill: #41607f; stroke: #41607f; stroke-width: 0.8"/>
      </g>
     </g>
     <g id="text_4">
      <text style="font-size: 11px; font-family: 'DejaVu Sans'; text-anchor: middle; fill: #41607f" x="320.903" y="287.678281" transform="rotate(-0 320.903 287.678281)">100</text>
     </g>
    </g>
    <g id="xtick_5">
     <g id="line2d_9">
      <path d="M 408.514 272.32 
L 408.514 27.96 
" clip-path="url(#pde13e725eb)" style="fill: none; stroke: #eef2f6; stroke-linecap: square"/>
     </g>
     <g id="line2d_10">
      <g>
       <use xlink:href="#m6976689baf" x="408.514" y="272.32" style="fill: #41607f; stroke: #41607f; stroke-width: 0.8"/>
      </g>
     </g>
     <g id="text_5">
      <text style="font-size: 11px; font-family: 'DejaVu Sans'; text-anchor: middle; fill: #41607f" x="408.514" y="287.678281" transform="rotate(-0 408.514 287.678281)">120</text>
     </g>
    </g>
    <g id="xtick_6">
     <g id="line2d_11">
      <path d="M 496.125 272.32 
L 496.125 27.96 
" clip-path="url(#pde13e725eb)" style="fill: none; stroke: #eef2f6; stroke-linecap: square"/>
     </g>
     <g id="line2d_12">
      <g>
       <use xlink:href="#m6976689baf" x="496.125" y="272.32" style="fill: #41607f; stroke: #41607f; stroke-width: 0.8"/>
      </g>
     </g>
     <g id="text_6">
      <text style="font-size: 11px; font-family: 'DejaVu Sans'; text-anchor: middle; fill: #41607f" x="496.125" y="287.678281" transform="rotate(-0 496.125 287.678281)">140</text>
     </g>
    </g>
    <g id="text_7">
     <text style="font-size: 11px; font-family: 'DejaVu Sans'; text-anchor: middle; fill: #1f3a5f" x="277.0975" y="302.324219" transform="rotate(-0 277.0975 302.324219)">Underlying spot (% of initial)</text>
    </g>
   </g>
   <g id="matplotlib.axis_2">
    <g id="ytick_1">
     <g id="line2d_13">
      <path d="M 58.07 272.32 
L 496.125 272.32 
" clip-path="url(#pde13e725eb)" style="fill: none; stroke: #eef2f6; stroke-linecap: square"/>
     </g>
     <g id="line2d_14">
      <defs>
       <path id="m32315e83b4" d="M 0 0 
L -3.5 0 
" style="stroke: #41607f; stroke-width: 0.8"/>
      </defs>
      <g>
       <use xlink:href="#m32315e83b4" x="58.07" y="272.32" style="fill: #41607f; stroke: #41607f; stroke-width: 0.8"/>
      </g>
     </g>
     <g id="text_8">
      <text style="font-size: 11px; font-family: 'DejaVu Sans'; text-anchor: end; fill: #41607f" x="51.07" y="276.499141" transform="rotate(-0 51.07 276.499141)">0.00</text>
     </g>
    </g>
    <g id="ytick_2">
     <g id="line2d_15">
      <path d="M 58.07 231.593333 
L 496.125 231.593333 
" clip-path="url(#pde13e725eb)" style="fill: none; stroke: #eef2f6; stroke-linecap: square"/>
     </g>
     <g id="line2d_16">
      <g>
       <use xlink:href="#m32315e83b4" x="58.07" y="231.593333" style="fill: #41607f; stroke: #41607f; stroke-width: 0.8"/>
      </g>
     </g>
     <g id="text_9">
      <text style="font-size: 11px; font-family: 'DejaVu Sans'; text-anchor: end; fill: #41607f" x="51.07" y="235.772474" transform="rotate(-0 51.07 235.772474)">0.05</text>
     </g>
    </g>
    <g id="ytick_3">
     <g id="line2d_17">
      <path d="M 58.07 190.866667 
L 496.125 190.866667 
" clip-path="url(#pde13e725eb)" style="fill: none; stroke: #eef2f6; stroke-linecap: square"/>
     </g>
     <g id="line2d_18">
      <g>
       <use xlink:href="#m32315e83b4" x="58.07" y="190.866667" style="fill: #41607f; stroke: #41607f; stroke-width: 0.8"/>
      </g>
     </g>
     <g id="text_10">
      <text style="font-size: 11px; font-family: 'DejaVu Sans'; text-anchor: end; fill: #41607f" x="51.07" y="195.045807" transform="rotate(-0 51.07 195.045807)">0.10</text>
     </g>
    </g>
    <g id="ytick_4">
     <g id="line2d_19">
      <path d="M 58.07 150.14 
L 496.125 150.14 
" clip-path="url(#pde13e725eb)" style="fill: none; stroke: #eef2f6; stroke-linecap: square"/>
     </g>
     <g id="line2d_20">
      <g>
       <use xlink:href="#m32315e83b4" x="58.07" y="150.14" style="fill: #41607f; stroke: #41607f; stroke-width: 0.8"/>
      </g>
     </g>
     <g id="text_11">
      <text style="font-size: 11px; font-family: 'DejaVu Sans'; text-anchor: end; fill: #41607f" x="51.07" y="154.319141" transform="rotate(-0 51.07 154.319141)">0.15</text>
     </g>
    </g>
    <g id="ytick_5">
     <g id="line2d_21">
      <path d="M 58.07 109.413333 
L 496.125 109.413333 
" clip-path="url(#pde13e725eb)" style="fill: none; stroke: #eef2f6; stroke-linecap: square"/>
     </g>
     <g id="line2d_22">
      <g>
       <use xlink:href="#m32315e83b4" x="58.07" y="109.413333" style="fill: #41607f; stroke: #41607f; stroke-width: 0.8"/>
      </g>
     </g>
     <g id="text_12">
      <text style="font-size: 11px; font-family: 'DejaVu Sans'; text-anchor: end; fill: #41607f" x="51.07" y="113.592474" transform="rotate(-0 51.07 113.592474)">0.20</text>
     </g>
    </g>
    <g id="ytick_6">
     <g id="line2d_23">
      <path d="M 58.07 68.686667 
L 496.125 68.686667 
" clip-path="url(#pde13e725eb)" style="fill: none; stroke: #eef2f6; stroke-linecap: square"/>
     </g>
     <g id="line2d_24">
      <g>
       <use xlink:href="#m32315e83b4" x="58.07" y="68.686667" style="fill: #41607f; stroke: #41607f; stroke-width: 0.8"/>
      </g>
     </g>
     <g id="text_13">
      <text style="font-size: 11px; font-family: 'DejaVu Sans'; text-anchor: end; fill: #41607f" x="51.07" y="72.865807" transform="rotate(-0 51.07 72.865807)">0.25</text>
     </g>
    </g>
    <g id="ytick_7">
     <g id="line2d_25">
      <path d="M 58.07 27.96 
L 496.125 27.96 
" clip-path="url(#pde13e725eb)" style="fill: none; stroke: #eef2f6; stroke-linecap: square"/>
     </g>
     <g id="line2d_26">
      <g>
       <use xlink:href="#m32315e83b4" x="58.07" y="27.96" style="fill: #41607f; stroke: #41607f; stroke-width: 0.8"/>
      </g>
     </g>
     <g id="text_14">
      <text style="font-size: 11px; font-family: 'DejaVu Sans'; text-anchor: end; fill: #41607f" x="51.07" y="32.139141" transform="rotate(-0 51.07 32.139141)">0.30</text>
     </g>
    </g>
    <g id="text_15">
     <text style="font-size: 11px; font-family: 'DejaVu Sans'; text-anchor: middle; fill: #1f3a5f" x="20.290156" y="150.14" transform="rotate(-90 20.290156 150.14)">Desk gamma (long option)</text>
    </g>
   </g>
   <g id="FillBetweenPolyCollection_1">
    <defs>
     <path id="m21d276ddf7" d="M 58.07 -44.48 
L 58.07 -62.114368 
L 59.167882 -64.36786 
L 60.265764 -66.844844 
L 61.363647 -69.557328 
L 62.461529 -72.516494 
L 63.559411 -75.732459 
L 64.657293 -79.214007 
L 65.755175 -82.968324 
L 66.853058 -87.000723 
L 67.95094 -91.314372 
L 69.048822 -95.910026 
L 70.146704 -100.785766 
L 71.244586 -105.936769 
L 72.342469 -111.355084 
L 73.440351 -117.029456 
L 74.538233 -122.94517 
L 75.636115 -129.083955 
L 76.733997 -135.423918 
L 77.83188 -141.939553 
L 78.929762 -148.601785 
L 80.027644 -155.378096 
L 81.125526 -162.232699 
L 82.223409 -169.126784 
L 83.321291 -176.018829 
L 84.419173 -182.864963 
L 85.517055 -189.6194 
L 86.614937 -196.234919 
L 87.71282 -202.663393 
L 88.810702 -208.856355 
L 89.908584 -214.765597 
L 91.006466 -220.343792 
L 92.104348 -225.545118 
L 93.202231 -230.325884 
L 94.300113 -234.645145 
L 95.397995 -238.465287 
L 96.495877 -241.752571 
L 97.593759 -244.47764 
L 98.691642 -246.615954 
L 99.789524 -248.148162 
L 100.887406 -249.060404 
L 101.985288 -249.344515 
L 103.08317 -248.998159 
L 104.181053 -248.024862 
L 105.278935 -246.433957 
L 106.376817 -244.240442 
L 107.474699 -241.464749 
L 108.572581 -238.13243 
L 109.670464 -234.273776 
L 110.768346 -229.923358 
L 111.866228 -225.119521 
L 112.96411 -219.903823 
L 114.061992 -214.320449 
L 115.159875 -208.415589 
L 116.257757 -202.236815 
L 117.355639 -195.832451 
L 118.453521 -189.25096 
L 119.551404 -182.54035 
L 120.649286 -175.747613 
L 121.747168 -168.918205 
L 122.84505 -162.095574 
L 123.942932 -155.320745 
L 125.040815 -148.631962 
L 126.138697 -142.064391 
L 127.236579 -135.649889 
L 128.334461 -129.416839 
L 129.432343 -123.390044 
L 130.530226 -117.590684 
L 131.628108 -112.036327 
L 132.72599 -106.740999 
L 133.823872 -101.715298 
L 134.921754 -96.966546 
L 136.019637 -92.49898 
L 137.117519 -88.313977 
L 138.215401 -84.410292 
L 139.313283 -80.784318 
L 140.411165 -77.430359 
L 141.509048 -74.340897 
L 142.60693 -71.506872 
L 143.704812 -68.917946 
L 144.802694 -66.562761 
L 145.900576 -64.429184 
L 146.998459 -62.504537 
L 148.096341 -60.775808 
L 149.194223 -59.229838 
L 150.292105 -57.853497 
L 151.389987 -56.633829 
L 152.48787 -55.55818 
L 153.585752 -54.614308 
L 154.683634 -53.790468 
L 155.781516 -53.075479 
L 156.879398 -52.45878 
L 157.977281 -51.930458 
L 159.075163 -51.481276 
L 160.173045 -51.102677 
L 161.270927 -50.786781 
L 162.36881 -50.526375 
L 163.466692 -50.314892 
L 164.564574 -50.146385 
L 165.662456 -50.015497 
L 166.760338 -49.917427 
L 167.858221 -49.847893 
L 168.956103 -49.803092 
L 170.053985 -49.779668 
L 171.151867 -49.774665 
L 172.249749 -49.785498 
L 173.347632 -49.809913 
L 174.445514 -49.845953 
L 175.543396 -49.891926 
L 176.641278 -49.946378 
L 177.73916 -50.008058 
L 178.837043 -50.075902 
L 179.934925 -50.149 
L 181.032807 -50.226584 
L 182.130689 -50.308003 
L 183.228571 -50.39271 
L 184.326454 -50.480244 
L 185.424336 -50.570219 
L 186.522218 -50.662314 
L 187.6201 -50.756259 
L 188.717982 -50.85183 
L 189.815865 -50.948841 
L 190.913747 -51.047136 
L 192.011629 -51.146586 
L 193.109511 -51.247081 
L 194.207393 -51.348531 
L 195.305276 -51.450858 
L 196.403158 -51.553998 
L 197.50104 -51.657893 
L 198.598922 -51.762495 
L 199.696805 -51.86776 
L 200.794687 -51.97365 
L 201.892569 -52.080131 
L 202.990451 -52.18717 
L 204.088333 -52.294737 
L 205.186216 -52.402803 
L 206.284098 -52.511342 
L 207.38198 -52.620327 
L 208.479862 -52.729732 
L 209.577744 -52.839531 
L 210.675627 -52.949699 
L 211.773509 -53.06021 
L 212.871391 -53.171039 
L 213.969273 -53.28216 
L 215.067155 -53.393547 
L 216.165038 -53.505174 
L 217.26292 -53.617013 
L 218.360802 -53.72904 
L 219.458684 -53.841225 
L 220.556566 -53.953542 
L 221.654449 -54.065962 
L 222.752331 -54.178459 
L 223.850213 -54.291002 
L 224.948095 -54.403563 
L 226.045977 -54.516114 
L 227.14386 -54.628623 
L 228.241742 -54.741063 
L 229.339624 -54.853401 
L 230.437506 -54.965609 
L 231.535388 -55.077655 
L 232.633271 -55.189508 
L 233.731153 -55.301138 
L 234.829035 -55.412512 
L 235.926917 -55.523599 
L 237.024799 -55.634367 
L 238.122682 -55.744784 
L 239.220564 -55.854818 
L 240.318446 -55.964436 
L 241.416328 -56.073606 
L 242.514211 -56.182294 
L 243.612093 -56.290469 
L 244.709975 -56.398097 
L 245.807857 -56.505145 
L 246.905739 -56.611579 
L 248.003622 -56.717368 
L 249.101504 -56.822477 
L 250.199386 -56.926874 
L 251.297268 -57.030524 
L 252.39515 -57.133396 
L 253.493033 -57.235455 
L 254.590915 -57.336669 
L 255.688797 -57.437004 
L 256.786679 -57.536428 
L 257.884561 -57.634907 
L 258.982444 -57.732409 
L 260.080326 -57.828901 
L 261.178208 -57.924351 
L 262.27609 -58.018726 
L 263.373972 -58.111994 
L 264.471855 -58.204124 
L 265.569737 -58.295083 
L 266.667619 -58.38484 
L 267.765501 -58.473364 
L 268.863383 -58.560625 
L 269.961266 -58.646591 
L 271.059148 -58.731232 
L 272.15703 -58.814518 
L 273.254912 -58.89642 
L 274.352794 -58.976908 
L 275.450677 -59.055954 
L 276.548559 -59.133529 
L 277.646441 -59.209606 
L 278.744323 -59.284155 
L 279.842206 -59.357152 
L 280.940088 -59.428568 
L 282.03797 -59.498377 
L 283.135852 -59.566555 
L 284.233734 -59.633075 
L 285.331617 -59.697913 
L 286.429499 -59.761046 
L 287.527381 -59.822449 
L 288.625263 -59.8821 
L 289.723145 -59.939977 
L 290.821028 -59.996057 
L 291.91891 -60.050319 
L 293.016792 -60.102744 
L 294.114674 -60.153311 
L 295.212556 -60.202001 
L 296.310439 -60.248796 
L 297.408321 -60.293678 
L 298.506203 -60.336629 
L 299.604085 -60.377634 
L 300.701967 -60.416676 
L 301.79985 -60.453741 
L 302.897732 -60.488815 
L 303.995614 -60.521883 
L 305.093496 -60.552934 
L 306.191378 -60.581955 
L 307.289261 -60.608935 
L 308.387143 -60.633863 
L 309.485025 -60.656731 
L 310.582907 -60.677528 
L 311.680789 -60.696248 
L 312.778672 -60.712882 
L 313.876554 -60.727425 
L 314.974436 -60.739871 
L 316.072318 -60.750214 
L 317.170201 -60.758451 
L 318.268083 -60.764579 
L 319.365965 -60.768595 
L 320.463847 -60.770498 
L 321.561729 -60.770286 
L 322.659612 -60.767961 
L 323.757494 -60.763522 
L 324.855376 -60.756972 
L 325.953258 -60.748314 
L 327.05114 -60.73755 
L 328.149023 -60.724684 
L 329.246905 -60.709723 
L 330.344787 -60.692671 
L 331.442669 -60.673535 
L 332.540551 -60.652322 
L 333.638434 -60.629042 
L 334.736316 -60.603702 
L 335.834198 -60.576313 
L 336.93208 -60.546886 
L 338.029962 -60.51543 
L 339.127845 -60.48196 
L 340.225727 -60.446487 
L 341.323609 -60.409025 
L 342.421491 -60.369589 
L 343.519373 -60.328194 
L 344.617256 -60.284855 
L 345.715138 -60.23959 
L 346.81302 -60.192414 
L 347.910902 -60.143347 
L 349.008784 -60.092407 
L 350.106667 -60.039613 
L 351.204549 -59.984986 
L 352.302431 -59.928544 
L 353.400313 -59.870311 
L 354.498195 -59.810308 
L 355.596078 -59.748557 
L 356.69396 -59.685081 
L 357.791842 -59.619905 
L 358.889724 -59.553051 
L 359.987607 -59.484545 
L 361.085489 -59.414412 
L 362.183371 -59.342678 
L 363.281253 -59.269369 
L 364.379135 -59.194512 
L 365.477018 -59.118133 
L 366.5749 -59.040262 
L 367.672782 -58.960925 
L 368.770664 -58.880152 
L 369.868546 -58.797971 
L 370.966429 -58.714411 
L 372.064311 -58.629503 
L 373.162193 -58.543275 
L 374.260075 -58.45576 
L 375.357957 -58.366986 
L 376.45584 -58.276986 
L 377.553722 -58.18579 
L 378.651604 -58.093431 
L 379.749486 -57.999938 
L 380.847368 -57.905346 
L 381.945251 -57.809685 
L 383.043133 -57.712988 
L 384.141015 -57.615288 
L 385.238897 -57.516618 
L 386.336779 -57.417009 
L 387.434662 -57.316495 
L 388.532544 -57.21511 
L 389.630426 -57.112886 
L 390.728308 -57.009856 
L 391.82619 -56.906053 
L 392.924073 -56.801511 
L 394.021955 -56.696264 
L 395.119837 -56.590343 
L 396.217719 -56.483783 
L 397.315602 -56.376616 
L 398.413484 -56.268877 
L 399.511366 -56.160596 
L 400.609248 -56.051809 
L 401.70713 -55.942547 
L 402.805013 -55.832843 
L 403.902895 -55.72273 
L 405.000777 -55.61224 
L 406.098659 -55.501406 
L 407.196541 -55.390259 
L 408.294424 -55.278831 
L 409.392306 -55.167154 
L 410.490188 -55.05526 
L 411.58807 -54.943179 
L 412.685952 -54.830943 
L 413.783835 -54.718581 
L 414.881717 -54.606126 
L 415.979599 -54.493605 
L 417.077481 -54.38105 
L 418.175363 -54.26849 
L 419.273246 -54.155953 
L 420.371128 -54.043469 
L 421.46901 -53.931066 
L 422.566892 -53.818772 
L 423.664774 -53.706615 
L 424.762657 -53.594622 
L 425.860539 -53.482819 
L 426.958421 -53.371235 
L 428.056303 -53.259893 
L 429.154185 -53.148821 
L 430.252068 -53.038043 
L 431.34995 -52.927585 
L 432.447832 -52.81747 
L 433.545714 -52.707722 
L 434.643596 -52.598366 
L 435.741479 -52.489423 
L 436.839361 -52.380917 
L 437.937243 -52.272869 
L 439.035125 -52.165302 
L 440.133008 -52.058235 
L 441.23089 -51.951691 
L 442.328772 -51.845689 
L 443.426654 -51.740248 
L 444.524536 -51.635388 
L 445.622419 -51.531127 
L 446.720301 -51.427483 
L 447.818183 -51.324475 
L 448.916065 -51.222119 
L 450.013947 -51.120432 
L 451.11183 -51.01943 
L 452.209712 -50.919128 
L 453.307594 -50.819542 
L 454.405476 -50.720686 
L 455.503358 -50.622574 
L 456.601241 -50.52522 
L 457.699123 -50.428638 
L 458.797005 -50.332838 
L 459.894887 -50.237834 
L 460.992769 -50.143637 
L 462.090652 -50.050258 
L 463.188534 -49.957708 
L 464.286416 -49.865997 
L 465.384298 -49.775134 
L 466.48218 -49.685128 
L 467.580063 -49.595988 
L 468.677945 -49.507722 
L 469.775827 -49.420337 
L 470.873709 -49.333842 
L 471.971591 -49.248242 
L 473.069474 -49.163543 
L 474.167356 -49.079753 
L 475.265238 -48.996875 
L 476.36312 -48.914914 
L 477.461003 -48.833876 
L 478.558885 -48.753764 
L 479.656767 -48.674582 
L 480.754649 -48.596332 
L 481.852531 -48.519018 
L 482.950414 -48.442642 
L 484.048296 -48.367205 
L 485.146178 -48.29271 
L 486.24406 -48.219157 
L 487.341942 -48.146547 
L 488.439825 -48.07488 
L 489.537707 -48.004157 
L 490.635589 -47.934377 
L 491.733471 -47.86554 
L 492.831353 -47.797643 
L 493.929236 -47.730686 
L 495.027118 -47.664667 
L 496.125 -47.599584 
L 496.125 -44.48 
L 496.125 -44.48 
L 495.027118 -44.48 
L 493.929236 -44.48 
L 492.831353 -44.48 
L 491.733471 -44.48 
L 490.635589 -44.48 
L 489.537707 -44.48 
L 488.439825 -44.48 
L 487.341942 -44.48 
L 486.24406 -44.48 
L 485.146178 -44.48 
L 484.048296 -44.48 
L 482.950414 -44.48 
L 481.852531 -44.48 
L 480.754649 -44.48 
L 479.656767 -44.48 
L 478.558885 -44.48 
L 477.461003 -44.48 
L 476.36312 -44.48 
L 475.265238 -44.48 
L 474.167356 -44.48 
L 473.069474 -44.48 
L 471.971591 -44.48 
L 470.873709 -44.48 
L 469.775827 -44.48 
L 468.677945 -44.48 
L 467.580063 -44.48 
L 466.48218 -44.48 
L 465.384298 -44.48 
L 464.286416 -44.48 
L 463.188534 -44.48 
L 462.090652 -44.48 
L 460.992769 -44.48 
L 459.894887 -44.48 
L 458.797005 -44.48 
L 457.699123 -44.48 
L 456.601241 -44.48 
L 455.503358 -44.48 
L 454.405476 -44.48 
L 453.307594 -44.48 
L 452.209712 -44.48 
L 451.11183 -44.48 
L 450.013947 -44.48 
L 448.916065 -44.48 
L 447.818183 -44.48 
L 446.720301 -44.48 
L 445.622419 -44.48 
L 444.524536 -44.48 
L 443.426654 -44.48 
L 442.328772 -44.48 
L 441.23089 -44.48 
L 440.133008 -44.48 
L 439.035125 -44.48 
L 437.937243 -44.48 
L 436.839361 -44.48 
L 435.741479 -44.48 
L 434.643596 -44.48 
L 433.545714 -44.48 
L 432.447832 -44.48 
L 431.34995 -44.48 
L 430.252068 -44.48 
L 429.154185 -44.48 
L 428.056303 -44.48 
L 426.958421 -44.48 
L 425.860539 -44.48 
L 424.762657 -44.48 
L 423.664774 -44.48 
L 422.566892 -44.48 
L 421.46901 -44.48 
L 420.371128 -44.48 
L 419.273246 -44.48 
L 418.175363 -44.48 
L 417.077481 -44.48 
L 415.979599 -44.48 
L 414.881717 -44.48 
L 413.783835 -44.48 
L 412.685952 -44.48 
L 411.58807 -44.48 
L 410.490188 -44.48 
L 409.392306 -44.48 
L 408.294424 -44.48 
L 407.196541 -44.48 
L 406.098659 -44.48 
L 405.000777 -44.48 
L 403.902895 -44.48 
L 402.805013 -44.48 
L 401.70713 -44.48 
L 400.609248 -44.48 
L 399.511366 -44.48 
L 398.413484 -44.48 
L 397.315602 -44.48 
L 396.217719 -44.48 
L 395.119837 -44.48 
L 394.021955 -44.48 
L 392.924073 -44.48 
L 391.82619 -44.48 
L 390.728308 -44.48 
L 389.630426 -44.48 
L 388.532544 -44.48 
L 387.434662 -44.48 
L 386.336779 -44.48 
L 385.238897 -44.48 
L 384.141015 -44.48 
L 383.043133 -44.48 
L 381.945251 -44.48 
L 380.847368 -44.48 
L 379.749486 -44.48 
L 378.651604 -44.48 
L 377.553722 -44.48 
L 376.45584 -44.48 
L 375.357957 -44.48 
L 374.260075 -44.48 
L 373.162193 -44.48 
L 372.064311 -44.48 
L 370.966429 -44.48 
L 369.868546 -44.48 
L 368.770664 -44.48 
L 367.672782 -44.48 
L 366.5749 -44.48 
L 365.477018 -44.48 
L 364.379135 -44.48 
L 363.281253 -44.48 
L 362.183371 -44.48 
L 361.085489 -44.48 
L 359.987607 -44.48 
L 358.889724 -44.48 
L 357.791842 -44.48 
L 356.69396 -44.48 
L 355.596078 -44.48 
L 354.498195 -44.48 
L 353.400313 -44.48 
L 352.302431 -44.48 
L 351.204549 -44.48 
L 350.106667 -44.48 
L 349.008784 -44.48 
L 347.910902 -44.48 
L 346.81302 -44.48 
L 345.715138 -44.48 
L 344.617256 -44.48 
L 343.519373 -44.48 
L 342.421491 -44.48 
L 341.323609 -44.48 
L 340.225727 -44.48 
L 339.127845 -44.48 
L 338.029962 -44.48 
L 336.93208 -44.48 
L 335.834198 -44.48 
L 334.736316 -44.48 
L 333.638434 -44.48 
L 332.540551 -44.48 
L 331.442669 -44.48 
L 330.344787 -44.48 
L 329.246905 -44.48 
L 328.149023 -44.48 
L 327.05114 -44.48 
L 325.953258 -44.48 
L 324.855376 -44.48 
L 323.757494 -44.48 
L 322.659612 -44.48 
L 321.561729 -44.48 
L 320.463847 -44.48 
L 319.365965 -44.48 
L 318.268083 -44.48 
L 317.170201 -44.48 
L 316.072318 -44.48 
L 314.974436 -44.48 
L 313.876554 -44.48 
L 312.778672 -44.48 
L 311.680789 -44.48 
L 310.582907 -44.48 
L 309.485025 -44.48 
L 308.387143 -44.48 
L 307.289261 -44.48 
L 306.191378 -44.48 
L 305.093496 -44.48 
L 303.995614 -44.48 
L 302.897732 -44.48 
L 301.79985 -44.48 
L 300.701967 -44.48 
L 299.604085 -44.48 
L 298.506203 -44.48 
L 297.408321 -44.48 
L 296.310439 -44.48 
L 295.212556 -44.48 
L 294.114674 -44.48 
L 293.016792 -44.48 
L 291.91891 -44.48 
L 290.821028 -44.48 
L 289.723145 -44.48 
L 288.625263 -44.48 
L 287.527381 -44.48 
L 286.429499 -44.48 
L 285.331617 -44.48 
L 284.233734 -44.48 
L 283.135852 -44.48 
L 282.03797 -44.48 
L 280.940088 -44.48 
L 279.842206 -44.48 
L 278.744323 -44.48 
L 277.646441 -44.48 
L 276.548559 -44.48 
L 275.450677 -44.48 
L 274.352794 -44.48 
L 273.254912 -44.48 
L 272.15703 -44.48 
L 271.059148 -44.48 
L 269.961266 -44.48 
L 268.863383 -44.48 
L 267.765501 -44.48 
L 266.667619 -44.48 
L 265.569737 -44.48 
L 264.471855 -44.48 
L 263.373972 -44.48 
L 262.27609 -44.48 
L 261.178208 -44.48 
L 260.080326 -44.48 
L 258.982444 -44.48 
L 257.884561 -44.48 
L 256.786679 -44.48 
L 255.688797 -44.48 
L 254.590915 -44.48 
L 253.493033 -44.48 
L 252.39515 -44.48 
L 251.297268 -44.48 
L 250.199386 -44.48 
L 249.101504 -44.48 
L 248.003622 -44.48 
L 246.905739 -44.48 
L 245.807857 -44.48 
L 244.709975 -44.48 
L 243.612093 -44.48 
L 242.514211 -44.48 
L 241.416328 -44.48 
L 240.318446 -44.48 
L 239.220564 -44.48 
L 238.122682 -44.48 
L 237.024799 -44.48 
L 235.926917 -44.48 
L 234.829035 -44.48 
L 233.731153 -44.48 
L 232.633271 -44.48 
L 231.535388 -44.48 
L 230.437506 -44.48 
L 229.339624 -44.48 
L 228.241742 -44.48 
L 227.14386 -44.48 
L 226.045977 -44.48 
L 224.948095 -44.48 
L 223.850213 -44.48 
L 222.752331 -44.48 
L 221.654449 -44.48 
L 220.556566 -44.48 
L 219.458684 -44.48 
L 218.360802 -44.48 
L 217.26292 -44.48 
L 216.165038 -44.48 
L 215.067155 -44.48 
L 213.969273 -44.48 
L 212.871391 -44.48 
L 211.773509 -44.48 
L 210.675627 -44.48 
L 209.577744 -44.48 
L 208.479862 -44.48 
L 207.38198 -44.48 
L 206.284098 -44.48 
L 205.186216 -44.48 
L 204.088333 -44.48 
L 202.990451 -44.48 
L 201.892569 -44.48 
L 200.794687 -44.48 
L 199.696805 -44.48 
L 198.598922 -44.48 
L 197.50104 -44.48 
L 196.403158 -44.48 
L 195.305276 -44.48 
L 194.207393 -44.48 
L 193.109511 -44.48 
L 192.011629 -44.48 
L 190.913747 -44.48 
L 189.815865 -44.48 
L 188.717982 -44.48 
L 187.6201 -44.48 
L 186.522218 -44.48 
L 185.424336 -44.48 
L 184.326454 -44.48 
L 183.228571 -44.48 
L 182.130689 -44.48 
L 181.032807 -44.48 
L 179.934925 -44.48 
L 178.837043 -44.48 
L 177.73916 -44.48 
L 176.641278 -44.48 
L 175.543396 -44.48 
L 174.445514 -44.48 
L 173.347632 -44.48 
L 172.249749 -44.48 
L 171.151867 -44.48 
L 170.053985 -44.48 
L 168.956103 -44.48 
L 167.858221 -44.48 
L 166.760338 -44.48 
L 165.662456 -44.48 
L 164.564574 -44.48 
L 163.466692 -44.48 
L 162.36881 -44.48 
L 161.270927 -44.48 
L 160.173045 -44.48 
L 159.075163 -44.48 
L 157.977281 -44.48 
L 156.879398 -44.48 
L 155.781516 -44.48 
L 154.683634 -44.48 
L 153.585752 -44.48 
L 152.48787 -44.48 
L 151.389987 -44.48 
L 150.292105 -44.48 
L 149.194223 -44.48 
L 148.096341 -44.48 
L 146.998459 -44.48 
L 145.900576 -44.48 
L 144.802694 -44.48 
L 143.704812 -44.48 
L 142.60693 -44.48 
L 141.509048 -44.48 
L 140.411165 -44.48 
L 139.313283 -44.48 
L 138.215401 -44.48 
L 137.117519 -44.48 
L 136.019637 -44.48 
L 134.921754 -44.48 
L 133.823872 -44.48 
L 132.72599 -44.48 
L 131.628108 -44.48 
L 130.530226 -44.48 
L 129.432343 -44.48 
L 128.334461 -44.48 
L 127.236579 -44.48 
L 126.138697 -44.48 
L 125.040815 -44.48 
L 123.942932 -44.48 
L 122.84505 -44.48 
L 121.747168 -44.48 
L 120.649286 -44.48 
L 119.551404 -44.48 
L 118.453521 -44.48 
L 117.355639 -44.48 
L 116.257757 -44.48 
L 115.159875 -44.48 
L 114.061992 -44.48 
L 112.96411 -44.48 
L 111.866228 -44.48 
L 110.768346 -44.48 
L 109.670464 -44.48 
L 108.572581 -44.48 
L 107.474699 -44.48 
L 106.376817 -44.48 
L 105.278935 -44.48 
L 104.181053 -44.48 
L 103.08317 -44.48 
L 101.985288 -44.48 
L 100.887406 -44.48 
L 99.789524 -44.48 
L 98.691642 -44.48 
L 97.593759 -44.48 
L 96.495877 -44.48 
L 95.397995 -44.48 
L 94.300113 -44.48 
L 93.202231 -44.48 
L 92.104348 -44.48 
L 91.006466 -44.48 
L 89.908584 -44.48 
L 88.810702 -44.48 
L 87.71282 -44.48 
L 86.614937 -44.48 
L 85.517055 -44.48 
L 84.419173 -44.48 
L 83.321291 -44.48 
L 82.223409 -44.48 
L 81.125526 -44.48 
L 80.027644 -44.48 
L 78.929762 -44.48 
L 77.83188 -44.48 
L 76.733997 -44.48 
L 75.636115 -44.48 
L 74.538233 -44.48 
L 73.440351 -44.48 
L 72.342469 -44.48 
L 71.244586 -44.48 
L 70.146704 -44.48 
L 69.048822 -44.48 
L 67.95094 -44.48 
L 66.853058 -44.48 
L 65.755175 -44.48 
L 64.657293 -44.48 
L 63.559411 -44.48 
L 62.461529 -44.48 
L 61.363647 -44.48 
L 60.265764 -44.48 
L 59.167882 -44.48 
L 58.07 -44.48 
z
" style="stroke: #41607f; stroke-opacity: 0.18"/>
    </defs>
    <g clip-path="url(#pde13e725eb)">
     <use xlink:href="#m21d276ddf7" x="0" y="316.8" style="fill: #41607f; fill-opacity: 0.18; stroke: #41607f; stroke-opacity: 0.18"/>
    </g>
   </g>
   <g id="line2d_27">
    <path d="M 58.07 254.685632 
L 60.265764 249.955156 
L 62.461529 244.283506 
L 64.657293 237.585993 
L 66.853058 229.799277 
L 69.048822 220.889974 
L 71.244586 210.863231 
L 73.440351 199.770544 
L 75.636115 187.716045 
L 78.929762 168.198215 
L 87.71282 114.136607 
L 89.908584 102.034403 
L 92.104348 91.254882 
L 94.300113 82.154855 
L 95.397995 78.334713 
L 96.495877 75.047429 
L 97.593759 72.32236 
L 98.691642 70.184046 
L 99.789524 68.651838 
L 100.887406 67.739596 
L 101.985288 67.455485 
L 103.08317 67.801841 
L 104.181053 68.775138 
L 105.278935 70.366043 
L 106.376817 72.559558 
L 107.474699 75.335251 
L 108.572581 78.66757 
L 109.670464 82.526224 
L 111.866228 91.680479 
L 114.061992 102.479551 
L 116.257757 114.563185 
L 119.551404 134.25965 
L 127.236579 181.150111 
L 130.530226 199.209316 
L 132.72599 210.059001 
L 134.921754 219.833454 
L 137.117519 228.486023 
L 139.313283 236.015682 
L 141.509048 242.459103 
L 143.704812 247.882054 
L 145.900576 252.370816 
L 148.096341 256.024192 
L 150.292105 258.946503 
L 152.48787 261.24182 
L 154.683634 263.009532 
L 156.879398 264.34122 
L 159.075163 265.318724 
L 161.270927 266.013219 
L 163.466692 266.485108 
L 166.760338 266.882573 
L 170.053985 267.020332 
L 174.445514 266.954047 
L 181.032807 266.573416 
L 192.011629 265.653414 
L 211.773509 263.73979 
L 260.080326 258.971099 
L 275.450677 257.744046 
L 288.625263 256.9179 
L 300.701967 256.383324 
L 311.680789 256.103752 
L 322.659612 256.032039 
L 333.638434 256.170958 
L 345.715138 256.56041 
L 357.791842 257.180095 
L 370.966429 258.085589 
L 386.336779 259.382991 
L 406.098659 261.298594 
L 454.405476 266.079314 
L 473.069474 267.636457 
L 489.537707 268.795843 
L 496.125 269.200416 
L 496.125 269.200416 
" clip-path="url(#pde13e725eb)" style="fill: none; stroke: #1f3a5f; stroke-width: 2.6; stroke-linecap: square"/>
   </g>
   <g id="line2d_28">
    <path d="M 101.8755 272.32 
L 101.8755 27.96 
" clip-path="url(#pde13e725eb)" style="fill: none; stroke-dasharray: 5.6,4.2; stroke-dashoffset: 0; stroke: #c8553d; stroke-width: 1.4"/>
   </g>
   <g id="line2d_29">
    <path d="M 320.903 272.32 
L 320.903 27.96 
" clip-path="url(#pde13e725eb)" style="fill: none; stroke-dasharray: 0.8,1.32; stroke-dashoffset: 0; stroke: #8a99a8; stroke-width: 0.8"/>
   </g>
   <g id="patch_3">
    <path d="M 58.07 272.32 
L 58.07 27.96 
" style="fill: none; stroke: #41607f; stroke-width: 0.8; stroke-linejoin: miter; stroke-linecap: square"/>
   </g>
   <g id="patch_4">
    <path d="M 496.125 272.32 
L 496.125 27.96 
" style="fill: none; stroke: #41607f; stroke-width: 0.8; stroke-linejoin: miter; stroke-linecap: square"/>
   </g>
   <g id="patch_5">
    <path d="M 58.07 272.32 
L 496.125 272.32 
" style="fill: none; stroke: #41607f; stroke-width: 0.8; stroke-linejoin: miter; stroke-linecap: square"/>
   </g>
   <g id="patch_6">
    <path d="M 58.07 27.96 
L 496.125 27.96 
" style="fill: none; stroke: #41607f; stroke-width: 0.8; stroke-linejoin: miter; stroke-linecap: square"/>
   </g>
   <g id="text_16">
    <text style="font-size: 8px; font-family: 'DejaVu Sans'; text-anchor: start; fill: #8a99a8" x="325.28355" y="256.029333" transform="rotate(-0 325.28355 256.029333)">Initial</text>
   </g>
   <g id="patch_7">
    <path d="M 159.202942 96.65075 
Q 135.917242 94.959169 113.746639 93.348594 
" style="fill: none; stroke: #c8553d; stroke-linecap: round"/>
    <path d="M 117.20676 95.404697 
L 113.746639 93.348594 
L 117.467594 91.814158 
" style="fill: none; stroke: #c8553d; stroke-linecap: round"/>
   </g>
   <g id="text_17">
    <text style="font-size: 9px; font-family: 'DejaVu Sans'; fill: #c8553d" transform="translate(163.2032 99.335302)">Barrier 50% — gamma spikes,</text>
    <text style="font-size: 9px; font-family: 'DejaVu Sans'; fill: #c8553d" transform="translate(163.2032 109.413333)">hedging expensive</text>
   </g>
   <g id="text_18">
    <g id="patch_8">
     <path d="M 216.081284 66.209747 
L 489.554175 66.209747 
Q 492.954175 66.209747 492.954175 62.809747 
L 492.954175 45.0652 
Q 492.954175 41.6652 489.554175 41.6652 
L 216.081284 41.6652 
Q 212.681284 41.6652 212.681284 45.0652 
L 212.681284 62.809747 
Q 212.681284 66.209747 216.081284 66.209747 
z
" style="fill: #ffffff; stroke: #41607f; stroke-width: 0.8; stroke-linejoin: miter"/>
    </g>
    <text style="font-size: 8.5px; font-family: 'DejaVu Sans'; fill: #41607f" transform="translate(216.081284 51.523872)">Desk is LONG the embedded put (mirror of investor's short put);</text>
    <text style="font-size: 8.5px; font-family: 'DejaVu Sans'; fill: #41607f" transform="translate(320.000425 61.042013)">delta-hedges by trading the underlying.</text>
   </g>
   <g id="text_19">
    <text style="font-weight: 700; font-size: 13px; font-family: 'DejaVu Sans'; text-anchor: start; fill: #1f3a5f" x="58.07" y="21.96" transform="rotate(-0 58.07 21.96)">CRA SRT Desk Position &amp; Hedge — Bank Lens (Desk Economics)</text>
   </g>
  </g>
 </g>
 <defs>
  <clipPath id="pde13e725eb">
   <rect x="58.07" y="27.96" width="438.055" height="244.36"/>
  </clipPath>
 </defs>
</svg>
