<?xml version="1.0" encoding="utf-8" standalone="no"?>
<!DOCTYPE svg PUBLIC "-//W3C//DTD SVG 1.1//EN"
  "http://www.w3.org/Graphics/SVG/1.1/DTD/svg11.dtd">
<svg xmlns:xlink="http://www.w3.org/1999/xlink" width="518.4pt" height="316.8pt" viewBox="0 0 518.4 316.8" xmlns="http://www.w3.org/2000/svg" version="1.1">
 <metadata>
  <rdf:RDF xmlns:dc="http://purl.org/dc/elements/1.1/" xmlns:cc="http://creativecommons.org/ns#" xmlns:rdf="http://www.w3.org/1999/02/22-rdf-syntax-ns#">
   <cc:Work>
    <dc:type rdf:resource="http://purl.org/dc/dcmitype/StillImage"/>
    <dc:date>2026-06-27T18:21:39.079940</dc:date>
    <dc:format>image/svg+xml</dc:format>
    <dc:creator>
     <cc:Agent>
      <dc:title>Matplotlib v3.10.9, https://matplotlib.org/</dc:title>
     </cc:Agent>
    </dc:creator>
   </cc:Work>
  </rdf:RDF>
 </metadata>
 <defs>
  <style type="text/css">*{stroke-linejoin: round; stroke-linecap: butt}</style>
 </defs>
 <g id="figure_1">
  <g id="patch_1">
   <path d="M 0 316.8 
L 518.4 316.8 
L 518.4 0 
L 0 0 
z
" style="fill: #ffffff"/>
  </g>
  <g id="axes_1">
   <g id="patch_2">
    <path d="M 40.7 272.32 
L 496.125 272.32 
L 496.125 27.96 
L 40.7 27.96 
z
" style="fill: #ffffff"/>
   </g>
   <g id="matplotlib.axis_1">
    <g id="xtick_1">
     <g id="line2d_1">
      <path d="M 40.7 272.32 
L 40.7 27.96 
" clip-path="url(#p72150a9e02)" style="fill: none; stroke: #eef2f6; stroke-linecap: square"/>
     </g>
     <g id="line2d_2">
      <defs>
       <path id="md7e2235177" d="M 0 0 
L 0 3.5 
" style="stroke: #41607f; stroke-width: 0.8"/>
      </defs>
      <g>
       <use xlink:href="#md7e2235177" x="40.7" y="272.32" style="fill: #41607f; stroke: #41607f; stroke-width: 0.8"/>
      </g>
     </g>
     <g id="text_1">
      <text style="font-size: 11px; font-family: 'DejaVu Sans'; text-anchor: middle; fill: #41607f" x="40.7" y="287.678281" transform="rotate(-0 40.7 287.678281)">0</text>
     </g>
    </g>
    <g id="xtick_2">
     <g id="line2d_3">
      <path d="M 131.785 272.32 
L 131.785 27.96 
" clip-path="url(#p72150a9e02)" style="fill: none; stroke: #eef2f6; stroke-linecap: square"/>
     </g>
     <g id="line2d_4">
      <g>
       <use xlink:href="#md7e2235177" x="131.785" y="272.32" style="fill: #41607f; stroke: #41607f; stroke-width: 0.8"/>
      </g>
     </g>
     <g id="text_2">
      <text style="font-size: 11px; font-family: 'DejaVu Sans'; text-anchor: middle; fill: #41607f" x="131.785" y="287.678281" transform="rotate(-0 131.785 287.678281)">20</text>
     </g>
    </g>
    <g id="xtick_3">
     <g id="line2d_5">
      <path d="M 222.87 272.32 
L 222.87 27.96 
" clip-path="url(#p72150a9e02)" style="fill: none; stroke: #eef2f6; stroke-linecap: square"/>
     </g>
     <g id="line2d_6">
      <g>
       <use xlink:href="#md7e2235177" x="222.87" y="272.32" style="fill: #41607f; stroke: #41607f; stroke-width: 0.8"/>
      </g>
     </g>
     <g id="text_3">
      <text style="font-size: 11px; font-family: 'DejaVu Sans'; text-anchor: middle; fill: #41607f" x="222.87" y="287.678281" transform="rotate(-0 222.87 287.678281)">40</text>
     </g>
    </g>
    <g id="xtick_4">
     <g id="line2d_7">
      <path d="M 313.955 272.32 
L 313.955 27.96 
" clip-path="url(#p72150a9e02)" style="fill: none; stroke: #eef2f6; stroke-linecap: square"/>
     </g>
     <g id="line2d_8">
      <g>
       <use xlink:href="#md7e2235177" x="313.955" y="272.32" style="fill: #41607f; stroke: #41607f; stroke-width: 0.8"/>
      </g>
     </g>
     <g id="text_4">
      <text style="font-size: 11px; font-family: 'DejaVu Sans'; text-anchor: middle; fill: #41607f" x="313.955" y="287.678281" transform="rotate(-0 313.955 287.678281)">60</text>
     </g>
    </g>
    <g id="xtick_5">
     <g id="line2d_9">
      <path d="M 405.04 272.32 
L 405.04 27.96 
" clip-path="url(#p72150a9e02)" style="fill: none; stroke: #eef2f6; stroke-linecap: square"/>
     </g>
     <g id="line2d_10">
      <g>
       <use xlink:href="#md7e2235177" x="405.04" y="272.32" style="fill: #41607f; stroke: #41607f; stroke-width: 0.8"/>
      </g>
     </g>
     <g id="text_5">
      <text style="font-size: 11px; font-family: 'DejaVu Sans'; text-anchor: middle; fill: #41607f" x="405.04" y="287.678281" transform="rotate(-0 405.04 287.678281)">80</text>
     </g>
    </g>
    <g id="xtick_6">
     <g id="line2d_11">
      <path d="M 496.125 272.32 
L 496.125 27.96 
" clip-path="url(#p72150a9e02)" style="fill: none; stroke: #eef2f6; stroke-linecap: square"/>
     </g>
     <g id="line2d_12">
      <g>
       <use xlink:href="#md7e2235177" x="496.125" y="272.32" style="fill: #41607f; stroke: #41607f; stroke-width: 0.8"/>
      </g>
     </g>
     <g id="text_6">
      <text style="font-size: 11px; font-family: 'DejaVu Sans'; text-anchor: middle; fill: #41607f" x="496.125" y="287.678281" transform="rotate(-0 496.125 287.678281)">100</text>
     </g>
    </g>
    <g id="text_7">
     <text style="font-size: 11px; font-family: 'DejaVu Sans'; text-anchor: middle; fill: #1f3a5f" x="268.4125" y="302.324219" transform="rotate(-0 268.4125 302.324219)">Days the reference rate is inside the range (%)</text>
    </g>
   </g>
   <g id="matplotlib.axis_2">
    <g id="ytick_1">
     <g id="line2d_13">
      <path d="M 40.7 272.32 
L 496.125 272.32 
" clip-path="url(#p72150a9e02)" style="fill: none; stroke: #eef2f6; stroke-linecap: square"/>
     </g>
     <g id="line2d_14">
      <defs>
       <path id="m0c3b8ca040" d="M 0 0 
L -3.5 0 
" style="stroke: #41607f; stroke-width: 0.8"/>
      </defs>
      <g>
       <use xlink:href="#m0c3b8ca040" x="40.7" y="272.32" style="fill: #41607f; stroke: #41607f; stroke-width: 0.8"/>
      </g>
     </g>
     <g id="text_8">
      <text style="font-size: 11px; font-family: 'DejaVu Sans'; text-anchor: end; fill: #41607f" x="33.7" y="276.499141" transform="rotate(-0 33.7 276.499141)">0</text>
     </g>
    </g>
    <g id="ytick_2">
     <g id="line2d_15">
      <path d="M 40.7 232.970564 
L 496.125 232.970564 
" clip-path="url(#p72150a9e02)" style="fill: none; stroke: #eef2f6; stroke-linecap: square"/>
     </g>
     <g id="line2d_16">
      <g>
       <use xlink:href="#m0c3b8ca040" x="40.7" y="232.970564" style="fill: #41607f; stroke: #41607f; stroke-width: 0.8"/>
      </g>
     </g>
     <g id="text_9">
      <text style="font-size: 11px; font-family: 'DejaVu Sans'; text-anchor: end; fill: #41607f" x="33.7" y="237.149704" transform="rotate(-0 33.7 237.149704)">1</text>
     </g>
    </g>
    <g id="ytick_3">
     <g id="line2d_17">
      <path d="M 40.7 193.621127 
L 496.125 193.621127 
" clip-path="url(#p72150a9e02)" style="fill: none; stroke: #eef2f6; stroke-linecap: square"/>
     </g>
     <g id="line2d_18">
      <g>
       <use xlink:href="#m0c3b8ca040" x="40.7" y="193.621127" style="fill: #41607f; stroke: #41607f; stroke-width: 0.8"/>
      </g>
     </g>
     <g id="text_10">
      <text style="font-size: 11px; font-family: 'DejaVu Sans'; text-anchor: end; fill: #41607f" x="33.7" y="197.800268" transform="rotate(-0 33.7 197.800268)">2</text>
     </g>
    </g>
    <g id="ytick_4">
     <g id="line2d_19">
      <path d="M 40.7 154.271691 
L 496.125 154.271691 
" clip-path="url(#p72150a9e02)" style="fill: none; stroke: #eef2f6; stroke-linecap: square"/>
     </g>
     <g id="line2d_20">
      <g>
       <use xlink:href="#m0c3b8ca040" x="40.7" y="154.271691" style="fill: #41607f; stroke: #41607f; stroke-width: 0.8"/>
      </g>
     </g>
     <g id="text_11">
      <text style="font-size: 11px; font-family: 'DejaVu Sans'; text-anchor: end; fill: #41607f" x="33.7" y="158.450831" transform="rotate(-0 33.7 158.450831)">3</text>
     </g>
    </g>
    <g id="ytick_5">
     <g id="line2d_21">
      <path d="M 40.7 114.922254 
L 496.125 114.922254 
" clip-path="url(#p72150a9e02)" style="fill: none; stroke: #eef2f6; stroke-linecap: square"/>
     </g>
     <g id="line2d_22">
      <g>
       <use xlink:href="#m0c3b8ca040" x="40.7" y="114.922254" style="fill: #41607f; stroke: #41607f; stroke-width: 0.8"/>
      </g>
     </g>
     <g id="text_12">
      <text style="font-size: 11px; font-family: 'DejaVu Sans'; text-anchor: end; fill: #41607f" x="33.7" y="119.101395" transform="rotate(-0 33.7 119.101395)">4</text>
     </g>
    </g>
    <g id="ytick_6">
     <g id="line2d_23">
      <path d="M 40.7 75.572818 
L 496.125 75.572818 
" clip-path="url(#p72150a9e02)" style="fill: none; stroke: #eef2f6; stroke-linecap: square"/>
     </g>
     <g id="line2d_24">
      <g>
       <use xlink:href="#m0c3b8ca040" x="40.7" y="75.572818" style="fill: #41607f; stroke: #41607f; stroke-width: 0.8"/>
      </g>
     </g>
     <g id="text_13">
      <text style="font-size: 11px; font-family: 'DejaVu Sans'; text-anchor: end; fill: #41607f" x="33.7" y="79.751959" transform="rotate(-0 33.7 79.751959)">5</text>
     </g>
    </g>
    <g id="ytick_7">
     <g id="line2d_25">
      <path d="M 40.7 36.223382 
L 496.125 36.223382 
" clip-path="url(#p72150a9e02)" style="fill: none; stroke: #eef2f6; stroke-linecap: square"/>
     </g>
     <g id="line2d_26">
      <g>
       <use xlink:href="#m0c3b8ca040" x="40.7" y="36.223382" style="fill: #41607f; stroke: #41607f; stroke-width: 0.8"/>
      </g>
     </g>
     <g id="text_14">
      <text style="font-size: 11px; font-family: 'DejaVu Sans'; text-anchor: end; fill: #41607f" x="33.7" y="40.402522" transform="rotate(-0 33.7 40.402522)">6</text>
     </g>
    </g>
    <g id="text_15">
     <text style="font-size: 11px; font-family: 'DejaVu Sans'; text-anchor: middle; fill: #1f3a5f" x="20.413594" y="150.14" transform="rotate(-90 20.413594 150.14)">Coupon earned (%)</text>
    </g>
   </g>
   <g id="FillBetweenPolyCollection_1">
    <defs>
     <path id="mbc206a47fb" d="M 40.7 -44.48 
L 40.7 -44.48 
L 42.988568 -45.547774 
L 45.277136 -46.615547 
L 47.565704 -47.683321 
L 49.854271 -48.751095 
L 52.142839 -49.818868 
L 54.431407 -50.886642 
L 56.719975 -51.954416 
L 59.008543 -53.022189 
L 61.297111 -54.089963 
L 63.585678 -55.157737 
L 65.874246 -56.22551 
L 68.162814 -57.293284 
L 70.451382 -58.361057 
L 72.73995 -59.428831 
L 75.028518 -60.496605 
L 77.317085 -61.564378 
L 79.605653 -62.632152 
L 81.894221 -63.699926 
L 84.182789 -64.767699 
L 86.471357 -65.835473 
L 88.759925 -66.903247 
L 91.048492 -67.97102 
L 93.33706 -69.038794 
L 95.625628 -70.106568 
L 97.914196 -71.174341 
L 100.202764 -72.242115 
L 102.491332 -73.309889 
L 104.779899 -74.377662 
L 107.068467 -75.445436 
L 109.357035 -76.51321 
L 111.645603 -77.580983 
L 113.934171 -78.648757 
L 116.222739 -79.71653 
L 118.511307 -80.784304 
L 120.799874 -81.852078 
L 123.088442 -82.919851 
L 125.37701 -83.987625 
L 127.665578 -85.055399 
L 129.954146 -86.123172 
L 132.242714 -87.190946 
L 134.531281 -88.25872 
L 136.819849 -89.326493 
L 139.108417 -90.394267 
L 141.396985 -91.462041 
L 143.685553 -92.529814 
L 145.974121 -93.597588 
L 148.262688 -94.665362 
L 150.551256 -95.733135 
L 152.839824 -96.800909 
L 155.128392 -97.868683 
L 157.41696 -98.936456 
L 159.705528 -100.00423 
L 161.994095 -101.072003 
L 164.282663 -102.139777 
L 166.571231 -103.207551 
L 168.859799 -104.275324 
L 171.148367 -105.343098 
L 173.436935 -106.410872 
L 175.725503 -107.478645 
L 178.01407 -108.546419 
L 180.302638 -109.614193 
L 182.591206 -110.681966 
L 184.879774 -111.74974 
L 187.168342 -112.817514 
L 189.45691 -113.885287 
L 191.745477 -114.953061 
L 194.034045 -116.020835 
L 196.322613 -117.088608 
L 198.611181 -118.156382 
L 200.899749 -119.224156 
L 203.188317 -120.291929 
L 205.476884 -121.359703 
L 207.765452 -122.427477 
L 210.05402 -123.49525 
L 212.342588 -124.563024 
L 214.631156 -125.630797 
L 216.919724 -126.698571 
L 219.208291 -127.766345 
L 221.496859 -128.834118 
L 223.785427 -129.901892 
L 226.073995 -130.969666 
L 228.362563 -132.037439 
L 230.651131 -133.105213 
L 232.939698 -134.172987 
L 235.228266 -135.24076 
L 237.516834 -136.308534 
L 239.805402 -137.376308 
L 242.09397 -138.444081 
L 244.382538 -139.511855 
L 246.671106 -140.579629 
L 248.959673 -141.647402 
L 251.248241 -142.715176 
L 253.536809 -143.78295 
L 255.825377 -144.850723 
L 258.113945 -145.918497 
L 260.402513 -146.98627 
L 262.69108 -148.054044 
L 264.979648 -149.121818 
L 267.268216 -150.189591 
L 269.556784 -151.257365 
L 271.845352 -152.325139 
L 274.13392 -153.392912 
L 276.422487 -154.460686 
L 278.711055 -155.52846 
L 280.999623 -156.596233 
L 283.288191 -157.664007 
L 285.576759 -158.731781 
L 287.865327 -159.799554 
L 290.153894 -160.867328 
L 292.442462 -161.935102 
L 294.73103 -163.002875 
L 297.019598 -164.070649 
L 299.308166 -165.138423 
L 301.596734 -166.206196 
L 303.885302 -167.27397 
L 306.173869 -168.341744 
L 308.462437 -169.409517 
L 310.751005 -170.477291 
L 313.039573 -171.545064 
L 315.328141 -172.612838 
L 317.616709 -173.680612 
L 319.905276 -174.748385 
L 322.193844 -175.816159 
L 324.482412 -176.883933 
L 326.77098 -177.951706 
L 329.059548 -179.01948 
L 331.348116 -180.087254 
L 333.636683 -181.155027 
L 335.925251 -182.222801 
L 338.213819 -183.290575 
L 340.502387 -184.358348 
L 342.790955 -185.426122 
L 345.079523 -186.493896 
L 347.36809 -187.561669 
L 349.656658 -188.629443 
L 351.945226 -189.697217 
L 354.233794 -190.76499 
L 356.522362 -191.832764 
L 358.81093 -192.900537 
L 361.099497 -193.968311 
L 363.388065 -195.036085 
L 365.676633 -196.103858 
L 367.965201 -197.171632 
L 370.253769 -198.239406 
L 372.542337 -199.307179 
L 374.830905 -200.374953 
L 377.119472 -201.442727 
L 379.40804 -202.5105 
L 381.696608 -203.578274 
L 383.985176 -204.646048 
L 386.273744 -205.713821 
L 388.562312 -206.781595 
L 390.850879 -207.849369 
L 393.139447 -208.917142 
L 395.428015 -209.984916 
L 397.716583 -211.05269 
L 400.005151 -212.120463 
L 402.293719 -213.188237 
L 404.582286 -214.25601 
L 406.870854 -215.323784 
L 409.159422 -216.391558 
L 411.44799 -217.459331 
L 413.736558 -218.527105 
L 416.025126 -219.594879 
L 418.313693 -220.662652 
L 420.602261 -221.730426 
L 422.890829 -222.7982 
L 425.179397 -223.865973 
L 427.467965 -224.933747 
L 429.756533 -226.001521 
L 432.045101 -227.069294 
L 434.333668 -228.137068 
L 436.622236 -229.204842 
L 438.910804 -230.272615 
L 441.199372 -231.340389 
L 443.48794 -232.408163 
L 445.776508 -233.475936 
L 448.065075 -234.54371 
L 450.353643 -235.611484 
L 452.642211 -236.679257 
L 454.930779 -237.747031 
L 457.219347 -238.814804 
L 459.507915 -239.882578 
L 461.796482 -240.950352 
L 464.08505 -242.018125 
L 466.373618 -243.085899 
L 468.662186 -244.153673 
L 470.950754 -245.221446 
L 473.239322 -246.28922 
L 475.527889 -247.356994 
L 477.816457 -248.424767 
L 480.105025 -249.492541 
L 482.393593 -250.560315 
L 484.682161 -251.628088 
L 486.970729 -252.695862 
L 489.259296 -253.763636 
L 491.547864 -254.831409 
L 493.836432 -255.899183 
L 496.125 -256.966957 
L 496.125 -44.48 
L 496.125 -44.48 
L 493.836432 -44.48 
L 491.547864 -44.48 
L 489.259296 -44.48 
L 486.970729 -44.48 
L 484.682161 -44.48 
L 482.393593 -44.48 
L 480.105025 -44.48 
L 477.816457 -44.48 
L 475.527889 -44.48 
L 473.239322 -44.48 
L 470.950754 -44.48 
L 468.662186 -44.48 
L 466.373618 -44.48 
L 464.08505 -44.48 
L 461.796482 -44.48 
L 459.507915 -44.48 
L 457.219347 -44.48 
L 454.930779 -44.48 
L 452.642211 -44.48 
L 450.353643 -44.48 
L 448.065075 -44.48 
L 445.776508 -44.48 
L 443.48794 -44.48 
L 441.199372 -44.48 
L 438.910804 -44.48 
L 436.622236 -44.48 
L 434.333668 -44.48 
L 432.045101 -44.48 
L 429.756533 -44.48 
L 427.467965 -44.48 
L 425.179397 -44.48 
L 422.890829 -44.48 
L 420.602261 -44.48 
L 418.313693 -44.48 
L 416.025126 -44.48 
L 413.736558 -44.48 
L 411.44799 -44.48 
L 409.159422 -44.48 
L 406.870854 -44.48 
L 404.582286 -44.48 
L 402.293719 -44.48 
L 400.005151 -44.48 
L 397.716583 -44.48 
L 395.428015 -44.48 
L 393.139447 -44.48 
L 390.850879 -44.48 
L 388.562312 -44.48 
L 386.273744 -44.48 
L 383.985176 -44.48 
L 381.696608 -44.48 
L 379.40804 -44.48 
L 377.119472 -44.48 
L 374.830905 -44.48 
L 372.542337 -44.48 
L 370.253769 -44.48 
L 367.965201 -44.48 
L 365.676633 -44.48 
L 363.388065 -44.48 
L 361.099497 -44.48 
L 358.81093 -44.48 
L 356.522362 -44.48 
L 354.233794 -44.48 
L 351.945226 -44.48 
L 349.656658 -44.48 
L 347.36809 -44.48 
L 345.079523 -44.48 
L 342.790955 -44.48 
L 340.502387 -44.48 
L 338.213819 -44.48 
L 335.925251 -44.48 
L 333.636683 -44.48 
L 331.348116 -44.48 
L 329.059548 -44.48 
L 326.77098 -44.48 
L 324.482412 -44.48 
L 322.193844 -44.48 
L 319.905276 -44.48 
L 317.616709 -44.48 
L 315.328141 -44.48 
L 313.039573 -44.48 
L 310.751005 -44.48 
L 308.462437 -44.48 
L 306.173869 -44.48 
L 303.885302 -44.48 
L 301.596734 -44.48 
L 299.308166 -44.48 
L 297.019598 -44.48 
L 294.73103 -44.48 
L 292.442462 -44.48 
L 290.153894 -44.48 
L 287.865327 -44.48 
L 285.576759 -44.48 
L 283.288191 -44.48 
L 280.999623 -44.48 
L 278.711055 -44.48 
L 276.422487 -44.48 
L 274.13392 -44.48 
L 271.845352 -44.48 
L 269.556784 -44.48 
L 267.268216 -44.48 
L 264.979648 -44.48 
L 262.69108 -44.48 
L 260.402513 -44.48 
L 258.113945 -44.48 
L 255.825377 -44.48 
L 253.536809 -44.48 
L 251.248241 -44.48 
L 248.959673 -44.48 
L 246.671106 -44.48 
L 244.382538 -44.48 
L 242.09397 -44.48 
L 239.805402 -44.48 
L 237.516834 -44.48 
L 235.228266 -44.48 
L 232.939698 -44.48 
L 230.651131 -44.48 
L 228.362563 -44.48 
L 226.073995 -44.48 
L 223.785427 -44.48 
L 221.496859 -44.48 
L 219.208291 -44.48 
L 216.919724 -44.48 
L 214.631156 -44.48 
L 212.342588 -44.48 
L 210.05402 -44.48 
L 207.765452 -44.48 
L 205.476884 -44.48 
L 203.188317 -44.48 
L 200.899749 -44.48 
L 198.611181 -44.48 
L 196.322613 -44.48 
L 194.034045 -44.48 
L 191.745477 -44.48 
L 189.45691 -44.48 
L 187.168342 -44.48 
L 184.879774 -44.48 
L 182.591206 -44.48 
L 180.302638 -44.48 
L 178.01407 -44.48 
L 175.725503 -44.48 
L 173.436935 -44.48 
L 171.148367 -44.48 
L 168.859799 -44.48 
L 166.571231 -44.48 
L 164.282663 -44.48 
L 161.994095 -44.48 
L 159.705528 -44.48 
L 157.41696 -44.48 
L 155.128392 -44.48 
L 152.839824 -44.48 
L 150.551256 -44.48 
L 148.262688 -44.48 
L 145.974121 -44.48 
L 143.685553 -44.48 
L 141.396985 -44.48 
L 139.108417 -44.48 
L 136.819849 -44.48 
L 134.531281 -44.48 
L 132.242714 -44.48 
L 129.954146 -44.48 
L 127.665578 -44.48 
L 125.37701 -44.48 
L 123.088442 -44.48 
L 120.799874 -44.48 
L 118.511307 -44.48 
L 116.222739 -44.48 
L 113.934171 -44.48 
L 111.645603 -44.48 
L 109.357035 -44.48 
L 107.068467 -44.48 
L 104.779899 -44.48 
L 102.491332 -44.48 
L 100.202764 -44.48 
L 97.914196 -44.48 
L 95.625628 -44.48 
L 93.33706 -44.48 
L 91.048492 -44.48 
L 88.759925 -44.48 
L 86.471357 -44.48 
L 84.182789 -44.48 
L 81.894221 -44.48 
L 79.605653 -44.48 
L 77.317085 -44.48 
L 75.028518 -44.48 
L 72.73995 -44.48 
L 70.451382 -44.48 
L 68.162814 -44.48 
L 65.874246 -44.48 
L 63.585678 -44.48 
L 61.297111 -44.48 
L 59.008543 -44.48 
L 56.719975 -44.48 
L 54.431407 -44.48 
L 52.142839 -44.48 
L 49.854271 -44.48 
L 47.565704 -44.48 
L 45.277136 -44.48 
L 42.988568 -44.48 
L 40.7 -44.48 
z
" style="stroke: #41607f; stroke-opacity: 0.12"/>
    </defs>
    <g clip-path="url(#p72150a9e02)">
     <use xlink:href="#mbc206a47fb" x="0" y="316.8" style="fill: #41607f; fill-opacity: 0.12; stroke: #41607f; stroke-opacity: 0.12"/>
    </g>
   </g>
   <g id="line2d_27">
    <path d="M 40.7 272.32 
L 496.125 59.833043 
L 496.125 59.833043 
" clip-path="url(#p72150a9e02)" style="fill: none; stroke: #1f3a5f; stroke-width: 2.6; stroke-linecap: square"/>
   </g>
   <g id="line2d_28">
    <path d="M 40.7 272.32 
L 496.125 272.32 
" clip-path="url(#p72150a9e02)" style="fill: none; stroke: #41607f; stroke-width: 0.8; stroke-linecap: square"/>
   </g>
   <g id="patch_3">
    <path d="M 40.7 272.32 
L 40.7 27.96 
" style="fill: none; stroke: #41607f; stroke-width: 0.8; stroke-linejoin: miter; stroke-linecap: square"/>
   </g>
   <g id="patch_4">
    <path d="M 496.125 272.32 
L 496.125 27.96 
" style="fill: none; stroke: #41607f; stroke-width: 0.8; stroke-linejoin: miter; stroke-linecap: square"/>
   </g>
   <g id="patch_5">
    <path d="M 40.7 272.32 
L 496.125 272.32 
" style="fill: none; stroke: #41607f; stroke-width: 0.8; stroke-linejoin: miter; stroke-linecap: square"/>
   </g>
   <g id="patch_6">
    <path d="M 40.7 27.96 
L 496.125 27.96 
" style="fill: none; stroke: #41607f; stroke-width: 0.8; stroke-linejoin: miter; stroke-linecap: square"/>
   </g>
   <g id="text_16">
    <text style="font-size: 9px; font-family: 'DejaVu Sans'; fill: #2e7d5b" transform="translate(442.684469 66.753969)">Max 5.4%</text>
    <text style="font-size: 9px; font-family: 'DejaVu Sans'; fill: #2e7d5b" transform="translate(405.278219 76.832)">(all days in range)</text>
   </g>
   <g id="text_17">
    <text style="font-size: 9px; font-family: 'DejaVu Sans'; text-anchor: start; fill: #c8553d" x="54.36275" y="259.570783" transform="rotate(-0 54.36275 259.570783)">0% (all days out of range)</text>
   </g>
   <g id="text_18">
    <text style="font-weight: 700; font-size: 13px; font-family: 'DejaVu Sans'; text-anchor: start; fill: #1f3a5f" x="40.7" y="21.96" transform="rotate(-0 40.7 21.96)">CRA SRT Coupon vs Days-in-Range — Investor Lens</text>
   </g>
   <g id="PathCollection_1">
    <defs>
     <path id="m9763c4bce5" d="M 0 2.738613 
C 0.726289 2.738613 1.422928 2.450055 1.936492 1.936492 
C 2.450055 1.422928 2.738613 0.726289 2.738613 0 
C 2.738613 -0.726289 2.450055 -1.422928 1.936492 -1.936492 
C 1.422928 -2.450055 0.726289 -2.738613 0 -2.738613 
C -0.726289 -2.738613 -1.422928 -2.450055 -1.936492 -1.936492 
C -2.450055 -1.422928 -2.738613 -0.726289 -2.738613 0 
C -2.738613 0.726289 -2.450055 1.422928 -1.936492 1.936492 
C -1.422928 2.450055 -0.726289 2.738613 0 2.738613 
z
" style="stroke: #2e7d5b"/>
    </defs>
    <g clip-path="url(#p72150a9e02)">
     <use xlink:href="#m9763c4bce5" x="496.125" y="59.833043" style="fill: #2e7d5b; stroke: #2e7d5b"/>
    </g>
   </g>
  </g>
 </g>
 <defs>
  <clipPath id="p72150a9e02">
   <rect x="40.7" y="27.96" width="455.425" height="244.36"/>
  </clipPath>
 </defs>
</svg>
