<?xml version="1.0" encoding="utf-8" standalone="no"?>
<!DOCTYPE svg PUBLIC "-//W3C//DTD SVG 1.1//EN"
  "http://www.w3.org/Graphics/SVG/1.1/DTD/svg11.dtd">
<svg xmlns:xlink="http://www.w3.org/1999/xlink" width="518.4pt" height="316.8pt" viewBox="0 0 518.4 316.8" xmlns="http://www.w3.org/2000/svg" version="1.1">
 <metadata>
  <rdf:RDF xmlns:dc="http://purl.org/dc/elements/1.1/" xmlns:cc="http://creativecommons.org/ns#" xmlns:rdf="http://www.w3.org/1999/02/22-rdf-syntax-ns#">
   <cc:Work>
    <dc:type rdf:resource="http://purl.org/dc/dcmitype/StillImage"/>
    <dc:date>2026-06-27T19:07:09.638857</dc:date>
    <dc:format>image/svg+xml</dc:format>
    <dc:creator>
     <cc:Agent>
      <dc:title>Matplotlib v3.10.9, https://matplotlib.org/</dc:title>
     </cc:Agent>
    </dc:creator>
   </cc:Work>
  </rdf:RDF>
 </metadata>
 <defs>
  <style type="text/css">*{stroke-linejoin: round; stroke-linecap: butt}</style>
 </defs>
 <g id="figure_1">
  <g id="patch_1">
   <path d="M 0 316.8 
L 518.4 316.8 
L 518.4 0 
L 0 0 
z
" style="fill: #ffffff"/>
  </g>
  <g id="axes_1">
   <g id="patch_2">
    <path d="M 47.54 272.32 
L 496.08 272.32 
L 496.08 27.96 
L 47.54 27.96 
z
" style="fill: #ffffff"/>
   </g>
   <g id="matplotlib.axis_1">
    <g id="xtick_1">
     <g id="line2d_1">
      <path d="M 47.54 272.32 
L 47.54 27.96 
" clip-path="url(#pe3e562eb33)" style="fill: none; stroke: #eef2f6; stroke-linecap: square"/>
     </g>
     <g id="line2d_2">
      <defs>
       <path id="m6d70ddd5d0" d="M 0 0 
L 0 3.5 
" style="stroke: #41607f; stroke-width: 0.8"/>
      </defs>
      <g>
       <use xlink:href="#m6d70ddd5d0" x="47.54" y="272.32" style="fill: #41607f; stroke: #41607f; stroke-width: 0.8"/>
      </g>
     </g>
     <g id="text_1">
      <text style="font-size: 11px; font-family: 'DejaVu Sans'; text-anchor: middle; fill: #41607f" x="47.54" y="287.678281" transform="rotate(-0 47.54 287.678281)">−50</text>
     </g>
    </g>
    <g id="xtick_2">
     <g id="line2d_3">
      <path d="M 111.617143 272.32 
L 111.617143 27.96 
" clip-path="url(#pe3e562eb33)" style="fill: none; stroke: #eef2f6; stroke-linecap: square"/>
     </g>
     <g id="line2d_4">
      <g>
       <use xlink:href="#m6d70ddd5d0" x="111.617143" y="272.32" style="fill: #41607f; stroke: #41607f; stroke-width: 0.8"/>
      </g>
     </g>
     <g id="text_2">
      <text style="font-size: 11px; font-family: 'DejaVu Sans'; text-anchor: middle; fill: #41607f" x="111.617143" y="287.678281" transform="rotate(-0 111.617143 287.678281)">0</text>
     </g>
    </g>
    <g id="xtick_3">
     <g id="line2d_5">
      <path d="M 175.694286 272.32 
L 175.694286 27.96 
" clip-path="url(#pe3e562eb33)" style="fill: none; stroke: #eef2f6; stroke-linecap: square"/>
     </g>
     <g id="line2d_6">
      <g>
       <use xlink:href="#m6d70ddd5d0" x="175.694286" y="272.32" style="fill: #41607f; stroke: #41607f; stroke-width: 0.8"/>
      </g>
     </g>
     <g id="text_3">
      <text style="font-size: 11px; font-family: 'DejaVu Sans'; text-anchor: middle; fill: #41607f" x="175.694286" y="287.678281" transform="rotate(-0 175.694286 287.678281)">50</text>
     </g>
    </g>
    <g id="xtick_4">
     <g id="line2d_7">
      <path d="M 239.771429 272.32 
L 239.771429 27.96 
" clip-path="url(#pe3e562eb33)" style="fill: none; stroke: #eef2f6; stroke-linecap: square"/>
     </g>
     <g id="line2d_8">
      <g>
       <use xlink:href="#m6d70ddd5d0" x="239.771429" y="272.32" style="fill: #41607f; stroke: #41607f; stroke-width: 0.8"/>
      </g>
     </g>
     <g id="text_4">
      <text style="font-size: 11px; font-family: 'DejaVu Sans'; text-anchor: middle; fill: #41607f" x="239.771429" y="287.678281" transform="rotate(-0 239.771429 287.678281)">100</text>
     </g>
    </g>
    <g id="xtick_5">
     <g id="line2d_9">
      <path d="M 303.848571 272.32 
L 303.848571 27.96 
" clip-path="url(#pe3e562eb33)" style="fill: none; stroke: #eef2f6; stroke-linecap: square"/>
     </g>
     <g id="line2d_10">
      <g>
       <use xlink:href="#m6d70ddd5d0" x="303.848571" y="272.32" style="fill: #41607f; stroke: #41607f; stroke-width: 0.8"/>
      </g>
     </g>
     <g id="text_5">
      <text style="font-size: 11px; font-family: 'DejaVu Sans'; text-anchor: middle; fill: #41607f" x="303.848571" y="287.678281" transform="rotate(-0 303.848571 287.678281)">150</text>
     </g>
    </g>
    <g id="xtick_6">
     <g id="line2d_11">
      <path d="M 367.925714 272.32 
L 367.925714 27.96 
" clip-path="url(#pe3e562eb33)" style="fill: none; stroke: #eef2f6; stroke-linecap: square"/>
     </g>
     <g id="line2d_12">
      <g>
       <use xlink:href="#m6d70ddd5d0" x="367.925714" y="272.32" style="fill: #41607f; stroke: #41607f; stroke-width: 0.8"/>
      </g>
     </g>
     <g id="text_6">
      <text style="font-size: 11px; font-family: 'DejaVu Sans'; text-anchor: middle; fill: #41607f" x="367.925714" y="287.678281" transform="rotate(-0 367.925714 287.678281)">200</text>
     </g>
    </g>
    <g id="xtick_7">
     <g id="line2d_13">
      <path d="M 432.002857 272.32 
L 432.002857 27.96 
" clip-path="url(#pe3e562eb33)" style="fill: none; stroke: #eef2f6; stroke-linecap: square"/>
     </g>
     <g id="line2d_14">
      <g>
       <use xlink:href="#m6d70ddd5d0" x="432.002857" y="272.32" style="fill: #41607f; stroke: #41607f; stroke-width: 0.8"/>
      </g>
     </g>
     <g id="text_7">
      <text style="font-size: 11px; font-family: 'DejaVu Sans'; text-anchor: middle; fill: #41607f" x="432.002857" y="287.678281" transform="rotate(-0 432.002857 287.678281)">250</text>
     </g>
    </g>
    <g id="xtick_8">
     <g id="line2d_15">
      <path d="M 496.08 272.32 
L 496.08 27.96 
" clip-path="url(#pe3e562eb33)" style="fill: none; stroke: #eef2f6; stroke-linecap: square"/>
     </g>
     <g id="line2d_16">
      <g>
       <use xlink:href="#m6d70ddd5d0" x="496.08" y="272.32" style="fill: #41607f; stroke: #41607f; stroke-width: 0.8"/>
      </g>
     </g>
     <g id="text_8">
      <text style="font-size: 11px; font-family: 'DejaVu Sans'; text-anchor: middle; fill: #41607f" x="496.08" y="287.678281" transform="rotate(-0 496.08 287.678281)">300</text>
     </g>
    </g>
    <g id="text_9">
     <text style="font-size: 11px; font-family: 'DejaVu Sans'; text-anchor: middle; fill: #1f3a5f" x="271.81" y="302.324219" transform="rotate(-0 271.81 302.324219)">Curve slope: long-tenor − short-tenor CMS (bp)</text>
    </g>
   </g>
   <g id="matplotlib.axis_2">
    <g id="ytick_1">
     <g id="line2d_17">
      <path d="M 47.54 262.5456 
L 496.08 262.5456 
" clip-path="url(#pe3e562eb33)" style="fill: none; stroke: #eef2f6; stroke-linecap: square"/>
     </g>
     <g id="line2d_18">
      <defs>
       <path id="m31317d5093" d="M 0 0 
L -3.5 0 
" style="stroke: #41607f; stroke-width: 0.8"/>
      </defs>
      <g>
       <use xlink:href="#m31317d5093" x="47.54" y="262.5456" style="fill: #41607f; stroke: #41607f; stroke-width: 0.8"/>
      </g>
     </g>
     <g id="text_10">
      <text style="font-size: 11px; font-family: 'DejaVu Sans'; text-anchor: end; fill: #41607f" x="40.54" y="266.724741" transform="rotate(-0 40.54 266.724741)">0</text>
     </g>
    </g>
    <g id="ytick_2">
     <g id="line2d_19">
      <path d="M 47.54 223.448 
L 496.08 223.448 
" clip-path="url(#pe3e562eb33)" style="fill: none; stroke: #eef2f6; stroke-linecap: square"/>
     </g>
     <g id="line2d_20">
      <g>
       <use xlink:href="#m31317d5093" x="47.54" y="223.448" style="fill: #41607f; stroke: #41607f; stroke-width: 0.8"/>
      </g>
     </g>
     <g id="text_11">
      <text style="font-size: 11px; font-family: 'DejaVu Sans'; text-anchor: end; fill: #41607f" x="40.54" y="227.627141" transform="rotate(-0 40.54 227.627141)">2</text>
     </g>
    </g>
    <g id="ytick_3">
     <g id="line2d_21">
      <path d="M 47.54 184.3504 
L 496.08 184.3504 
" clip-path="url(#pe3e562eb33)" style="fill: none; stroke: #eef2f6; stroke-linecap: square"/>
     </g>
     <g id="line2d_22">
      <g>
       <use xlink:href="#m31317d5093" x="47.54" y="184.3504" style="fill: #41607f; stroke: #41607f; stroke-width: 0.8"/>
      </g>
     </g>
     <g id="text_12">
      <text style="font-size: 11px; font-family: 'DejaVu Sans'; text-anchor: end; fill: #41607f" x="40.54" y="188.529541" transform="rotate(-0 40.54 188.529541)">4</text>
     </g>
    </g>
    <g id="ytick_4">
     <g id="line2d_23">
      <path d="M 47.54 145.2528 
L 496.08 145.2528 
" clip-path="url(#pe3e562eb33)" style="fill: none; stroke: #eef2f6; stroke-linecap: square"/>
     </g>
     <g id="line2d_24">
      <g>
       <use xlink:href="#m31317d5093" x="47.54" y="145.2528" style="fill: #41607f; stroke: #41607f; stroke-width: 0.8"/>
      </g>
     </g>
     <g id="text_13">
      <text style="font-size: 11px; font-family: 'DejaVu Sans'; text-anchor: end; fill: #41607f" x="40.54" y="149.431941" transform="rotate(-0 40.54 149.431941)">6</text>
     </g>
    </g>
    <g id="ytick_5">
     <g id="line2d_25">
      <path d="M 47.54 106.1552 
L 496.08 106.1552 
" clip-path="url(#pe3e562eb33)" style="fill: none; stroke: #eef2f6; stroke-linecap: square"/>
     </g>
     <g id="line2d_26">
      <g>
       <use xlink:href="#m31317d5093" x="47.54" y="106.1552" style="fill: #41607f; stroke: #41607f; stroke-width: 0.8"/>
      </g>
     </g>
     <g id="text_14">
      <text style="font-size: 11px; font-family: 'DejaVu Sans'; text-anchor: end; fill: #41607f" x="40.54" y="110.334341" transform="rotate(-0 40.54 110.334341)">8</text>
     </g>
    </g>
    <g id="ytick_6">
     <g id="line2d_27">
      <path d="M 47.54 67.0576 
L 496.08 67.0576 
" clip-path="url(#pe3e562eb33)" style="fill: none; stroke: #eef2f6; stroke-linecap: square"/>
     </g>
     <g id="line2d_28">
      <g>
       <use xlink:href="#m31317d5093" x="47.54" y="67.0576" style="fill: #41607f; stroke: #41607f; stroke-width: 0.8"/>
      </g>
     </g>
     <g id="text_15">
      <text style="font-size: 11px; font-family: 'DejaVu Sans'; text-anchor: end; fill: #41607f" x="40.54" y="71.236741" transform="rotate(-0 40.54 71.236741)">10</text>
     </g>
    </g>
    <g id="ytick_7">
     <g id="line2d_29">
      <path d="M 47.54 27.96 
L 496.08 27.96 
" clip-path="url(#pe3e562eb33)" style="fill: none; stroke: #eef2f6; stroke-linecap: square"/>
     </g>
     <g id="line2d_30">
      <g>
       <use xlink:href="#m31317d5093" x="47.54" y="27.96" style="fill: #41607f; stroke: #41607f; stroke-width: 0.8"/>
      </g>
     </g>
     <g id="text_16">
      <text style="font-size: 11px; font-family: 'DejaVu Sans'; text-anchor: end; fill: #41607f" x="40.54" y="32.139141" transform="rotate(-0 40.54 32.139141)">12</text>
     </g>
    </g>
    <g id="text_17">
     <text style="font-size: 11px; font-family: 'DejaVu Sans'; text-anchor: middle; fill: #1f3a5f" x="20.254844" y="150.14" transform="rotate(-90 20.254844 150.14)">Coupon paid (%)</text>
    </g>
   </g>
   <g id="FillBetweenPolyCollection_1">
    <defs>
     <path id="maaf877068c" d="M 47.54 -54.2544 
L 47.54 -54.2544 
L 48.66416 -54.2544 
L 49.788321 -54.2544 
L 50.912481 -54.2544 
L 52.036642 -54.2544 
L 53.160802 -54.2544 
L 54.284962 -54.2544 
L 55.409123 -54.2544 
L 56.533283 -54.2544 
L 57.657444 -54.2544 
L 58.781604 -54.2544 
L 59.905764 -54.2544 
L 61.029925 -54.2544 
L 62.154085 -54.2544 
L 63.278246 -54.2544 
L 64.402406 -54.2544 
L 65.526566 -54.2544 
L 66.650727 -54.2544 
L 67.774887 -54.2544 
L 68.899048 -54.2544 
L 70.023208 -54.2544 
L 71.147368 -54.2544 
L 72.271529 -54.2544 
L 73.395689 -54.2544 
L 74.51985 -54.2544 
L 75.64401 -54.2544 
L 76.76817 -54.2544 
L 77.892331 -54.2544 
L 79.016491 -54.2544 
L 80.140652 -54.2544 
L 81.264812 -54.2544 
L 82.388972 -54.2544 
L 83.513133 -54.2544 
L 84.637293 -54.2544 
L 85.761454 -54.2544 
L 86.885614 -54.2544 
L 88.009774 -54.2544 
L 89.133935 -54.2544 
L 90.258095 -54.2544 
L 91.382256 -54.2544 
L 92.506416 -54.2544 
L 93.630576 -54.2544 
L 94.754737 -54.2544 
L 95.878897 -54.2544 
L 97.003058 -54.2544 
L 98.127218 -54.2544 
L 99.251378 -54.2544 
L 100.375539 -54.2544 
L 101.499699 -54.2544 
L 102.62386 -54.2544 
L 103.74802 -54.2544 
L 104.87218 -54.2544 
L 105.996341 -54.2544 
L 107.120501 -54.2544 
L 108.244662 -54.2544 
L 109.368822 -54.2544 
L 110.492982 -54.2544 
L 111.617143 -54.2544 
L 112.741303 -54.940323 
L 113.865464 -55.626246 
L 114.989624 -56.312168 
L 116.113784 -56.998091 
L 117.237945 -57.684014 
L 118.362105 -58.369937 
L 119.486266 -59.05586 
L 120.610426 -59.741782 
L 121.734586 -60.427705 
L 122.858747 -61.113628 
L 123.982907 -61.799551 
L 125.107068 -62.485474 
L 126.231228 -63.171396 
L 127.355388 -63.857319 
L 128.479549 -64.543242 
L 129.603709 -65.229165 
L 130.72787 -65.915088 
L 131.85203 -66.601011 
L 132.97619 -67.286933 
L 134.100351 -67.972856 
L 135.224511 -68.658779 
L 136.348672 -69.344702 
L 137.472832 -70.030625 
L 138.596992 -70.716547 
L 139.721153 -71.40247 
L 140.845313 -72.088393 
L 141.969474 -72.774316 
L 143.093634 -73.460239 
L 144.217794 -74.146161 
L 145.341955 -74.832084 
L 146.466115 -75.518007 
L 147.590276 -76.20393 
L 148.714436 -76.889853 
L 149.838596 -77.575775 
L 150.962757 -78.261698 
L 152.086917 -78.947621 
L 153.211078 -79.633544 
L 154.335238 -80.319467 
L 155.459398 -81.005389 
L 156.583559 -81.691312 
L 157.707719 -82.377235 
L 158.83188 -83.063158 
L 159.95604 -83.749081 
L 161.080201 -84.435004 
L 162.204361 -85.120926 
L 163.328521 -85.806849 
L 164.452682 -86.492772 
L 165.576842 -87.178695 
L 166.701003 -87.864618 
L 167.825163 -88.55054 
L 168.949323 -89.236463 
L 170.073484 -89.922386 
L 171.197644 -90.608309 
L 172.321805 -91.294232 
L 173.445965 -91.980154 
L 174.570125 -92.666077 
L 175.694286 -93.352 
L 176.818446 -94.037923 
L 177.942607 -94.723846 
L 179.066767 -95.409768 
L 180.190927 -96.095691 
L 181.315088 -96.781614 
L 182.439248 -97.467537 
L 183.563409 -98.15346 
L 184.687569 -98.839382 
L 185.811729 -99.525305 
L 186.93589 -100.211228 
L 188.06005 -100.897151 
L 189.184211 -101.583074 
L 190.308371 -102.268996 
L 191.432531 -102.954919 
L 192.556692 -103.640842 
L 193.680852 -104.326765 
L 194.805013 -105.012688 
L 195.929173 -105.698611 
L 197.053333 -106.384533 
L 198.177494 -107.070456 
L 199.301654 -107.756379 
L 200.425815 -108.442302 
L 201.549975 -109.128225 
L 202.674135 -109.814147 
L 203.798296 -110.50007 
L 204.922456 -111.185993 
L 206.046617 -111.871916 
L 207.170777 -112.557839 
L 208.294937 -113.243761 
L 209.419098 -113.929684 
L 210.543258 -114.615607 
L 211.667419 -115.30153 
L 212.791579 -115.987453 
L 213.915739 -116.673375 
L 215.0399 -117.359298 
L 216.16406 -118.045221 
L 217.288221 -118.731144 
L 218.412381 -119.417067 
L 219.536541 -120.102989 
L 220.660702 -120.788912 
L 221.784862 -121.474835 
L 222.909023 -122.160758 
L 224.033183 -122.846681 
L 225.157343 -123.532604 
L 226.281504 -124.218526 
L 227.405664 -124.904449 
L 228.529825 -125.590372 
L 229.653985 -126.276295 
L 230.778145 -126.962218 
L 231.902306 -127.64814 
L 233.026466 -128.334063 
L 234.150627 -129.019986 
L 235.274787 -129.705909 
L 236.398947 -130.391832 
L 237.523108 -131.077754 
L 238.647268 -131.763677 
L 239.771429 -132.4496 
L 240.895589 -133.135523 
L 242.019749 -133.821446 
L 243.14391 -134.507368 
L 244.26807 -135.193291 
L 245.392231 -135.879214 
L 246.516391 -136.565137 
L 247.640551 -137.25106 
L 248.764712 -137.936982 
L 249.888872 -138.622905 
L 251.013033 -139.308828 
L 252.137193 -139.994751 
L 253.261353 -140.680674 
L 254.385514 -141.366596 
L 255.509674 -142.052519 
L 256.633835 -142.738442 
L 257.757995 -143.424365 
L 258.882155 -144.110288 
L 260.006316 -144.796211 
L 261.130476 -145.482133 
L 262.254637 -146.168056 
L 263.378797 -146.853979 
L 264.502957 -147.539902 
L 265.627118 -148.225825 
L 266.751278 -148.911747 
L 267.875439 -149.59767 
L 268.999599 -150.283593 
L 270.123759 -150.969516 
L 271.24792 -151.655439 
L 272.37208 -152.341361 
L 273.496241 -153.027284 
L 274.620401 -153.713207 
L 275.744561 -154.39913 
L 276.868722 -155.085053 
L 277.992882 -155.770975 
L 279.117043 -156.456898 
L 280.241203 -157.142821 
L 281.365363 -157.828744 
L 282.489524 -158.514667 
L 283.613684 -159.200589 
L 284.737845 -159.886512 
L 285.862005 -160.572435 
L 286.986165 -161.258358 
L 288.110326 -161.944281 
L 289.234486 -162.630204 
L 290.358647 -163.316126 
L 291.482807 -164.002049 
L 292.606967 -164.687972 
L 293.731128 -165.373895 
L 294.855288 -166.059818 
L 295.979449 -166.74574 
L 297.103609 -167.431663 
L 298.227769 -168.117586 
L 299.35193 -168.803509 
L 300.47609 -169.489432 
L 301.600251 -170.175354 
L 302.724411 -170.861277 
L 303.848571 -171.5472 
L 304.972732 -172.233123 
L 306.096892 -172.919046 
L 307.221053 -173.604968 
L 308.345213 -174.290891 
L 309.469373 -174.976814 
L 310.593534 -175.662737 
L 311.717694 -176.34866 
L 312.841855 -177.034582 
L 313.966015 -177.720505 
L 315.090175 -178.406428 
L 316.214336 -179.092351 
L 317.338496 -179.778274 
L 318.462657 -180.464196 
L 319.586817 -181.150119 
L 320.710977 -181.836042 
L 321.835138 -182.521965 
L 322.959298 -183.207888 
L 324.083459 -183.893811 
L 325.207619 -184.579733 
L 326.331779 -185.265656 
L 327.45594 -185.951579 
L 328.5801 -186.637502 
L 329.704261 -187.323425 
L 330.828421 -188.009347 
L 331.952581 -188.69527 
L 333.076742 -189.381193 
L 334.200902 -190.067116 
L 335.325063 -190.753039 
L 336.449223 -191.438961 
L 337.573383 -192.124884 
L 338.697544 -192.810807 
L 339.821704 -193.49673 
L 340.945865 -194.182653 
L 342.070025 -194.868575 
L 343.194185 -195.554498 
L 344.318346 -196.240421 
L 345.442506 -196.926344 
L 346.566667 -197.612267 
L 347.690827 -198.298189 
L 348.814987 -198.984112 
L 349.939148 -199.670035 
L 351.063308 -200.355958 
L 352.187469 -201.041881 
L 353.311629 -201.727804 
L 354.435789 -202.413726 
L 355.55995 -203.099649 
L 356.68411 -203.785572 
L 357.808271 -204.471495 
L 358.932431 -205.157418 
L 360.056591 -205.84334 
L 361.180752 -206.529263 
L 362.304912 -207.215186 
L 363.429073 -207.901109 
L 364.553233 -208.587032 
L 365.677393 -209.272954 
L 366.801554 -209.958877 
L 367.925714 -210.6448 
L 369.049875 -211.330723 
L 370.174035 -212.016646 
L 371.298195 -212.702568 
L 372.422356 -213.388491 
L 373.546516 -214.074414 
L 374.670677 -214.760337 
L 375.794837 -215.44626 
L 376.918997 -216.132182 
L 378.043158 -216.818105 
L 379.167318 -217.504028 
L 380.291479 -218.189951 
L 381.415639 -218.875874 
L 382.539799 -219.561796 
L 383.66396 -220.247719 
L 384.78812 -220.933642 
L 385.912281 -221.619565 
L 387.036441 -222.305488 
L 388.160602 -222.991411 
L 389.284762 -223.677333 
L 390.408922 -224.363256 
L 391.533083 -225.049179 
L 392.657243 -225.735102 
L 393.781404 -226.421025 
L 394.905564 -227.106947 
L 396.029724 -227.79287 
L 397.153885 -228.478793 
L 398.278045 -229.164716 
L 399.402206 -229.850639 
L 400.526366 -230.536561 
L 401.650526 -231.222484 
L 402.774687 -231.908407 
L 403.898847 -232.59433 
L 405.023008 -233.280253 
L 406.147168 -233.966175 
L 407.271328 -234.652098 
L 408.395489 -235.338021 
L 409.519649 -236.023944 
L 410.64381 -236.709867 
L 411.76797 -237.395789 
L 412.89213 -238.081712 
L 414.016291 -238.767635 
L 415.140451 -239.453558 
L 416.264612 -240.139481 
L 417.388772 -240.825404 
L 418.512932 -241.511326 
L 419.637093 -242.197249 
L 420.761253 -242.883172 
L 421.885414 -243.569095 
L 423.009574 -244.255018 
L 424.133734 -244.94094 
L 425.257895 -245.626863 
L 426.382055 -246.312786 
L 427.506216 -246.998709 
L 428.630376 -247.684632 
L 429.754536 -248.370554 
L 430.878697 -249.056477 
L 432.002857 -249.7424 
L 433.127018 -249.7424 
L 434.251178 -249.7424 
L 435.375338 -249.7424 
L 436.499499 -249.7424 
L 437.623659 -249.7424 
L 438.74782 -249.7424 
L 439.87198 -249.7424 
L 440.99614 -249.7424 
L 442.120301 -249.7424 
L 443.244461 -249.7424 
L 444.368622 -249.7424 
L 445.492782 -249.7424 
L 446.616942 -249.7424 
L 447.741103 -249.7424 
L 448.865263 -249.7424 
L 449.989424 -249.7424 
L 451.113584 -249.7424 
L 452.237744 -249.7424 
L 453.361905 -249.7424 
L 454.486065 -249.7424 
L 455.610226 -249.7424 
L 456.734386 -249.7424 
L 457.858546 -249.7424 
L 458.982707 -249.7424 
L 460.106867 -249.7424 
L 461.231028 -249.7424 
L 462.355188 -249.7424 
L 463.479348 -249.7424 
L 464.603509 -249.7424 
L 465.727669 -249.7424 
L 466.85183 -249.7424 
L 467.97599 -249.7424 
L 469.10015 -249.7424 
L 470.224311 -249.7424 
L 471.348471 -249.7424 
L 472.472632 -249.7424 
L 473.596792 -249.7424 
L 474.720952 -249.7424 
L 475.845113 -249.7424 
L 476.969273 -249.7424 
L 478.093434 -249.7424 
L 479.217594 -249.7424 
L 480.341754 -249.7424 
L 481.465915 -249.7424 
L 482.590075 -249.7424 
L 483.714236 -249.7424 
L 484.838396 -249.7424 
L 485.962556 -249.7424 
L 487.086717 -249.7424 
L 488.210877 -249.7424 
L 489.335038 -249.7424 
L 490.459198 -249.7424 
L 491.583358 -249.7424 
L 492.707519 -249.7424 
L 493.831679 -249.7424 
L 494.95584 -249.7424 
L 496.08 -249.7424 
L 496.08 -54.2544 
L 496.08 -54.2544 
L 494.95584 -54.2544 
L 493.831679 -54.2544 
L 492.707519 -54.2544 
L 491.583358 -54.2544 
L 490.459198 -54.2544 
L 489.335038 -54.2544 
L 488.210877 -54.2544 
L 487.086717 -54.2544 
L 485.962556 -54.2544 
L 484.838396 -54.2544 
L 483.714236 -54.2544 
L 482.590075 -54.2544 
L 481.465915 -54.2544 
L 480.341754 -54.2544 
L 479.217594 -54.2544 
L 478.093434 -54.2544 
L 476.969273 -54.2544 
L 475.845113 -54.2544 
L 474.720952 -54.2544 
L 473.596792 -54.2544 
L 472.472632 -54.2544 
L 471.348471 -54.2544 
L 470.224311 -54.2544 
L 469.10015 -54.2544 
L 467.97599 -54.2544 
L 466.85183 -54.2544 
L 465.727669 -54.2544 
L 464.603509 -54.2544 
L 463.479348 -54.2544 
L 462.355188 -54.2544 
L 461.231028 -54.2544 
L 460.106867 -54.2544 
L 458.982707 -54.2544 
L 457.858546 -54.2544 
L 456.734386 -54.2544 
L 455.610226 -54.2544 
L 454.486065 -54.2544 
L 453.361905 -54.2544 
L 452.237744 -54.2544 
L 451.113584 -54.2544 
L 449.989424 -54.2544 
L 448.865263 -54.2544 
L 447.741103 -54.2544 
L 446.616942 -54.2544 
L 445.492782 -54.2544 
L 444.368622 -54.2544 
L 443.244461 -54.2544 
L 442.120301 -54.2544 
L 440.99614 -54.2544 
L 439.87198 -54.2544 
L 438.74782 -54.2544 
L 437.623659 -54.2544 
L 436.499499 -54.2544 
L 435.375338 -54.2544 
L 434.251178 -54.2544 
L 433.127018 -54.2544 
L 432.002857 -54.2544 
L 430.878697 -54.2544 
L 429.754536 -54.2544 
L 428.630376 -54.2544 
L 427.506216 -54.2544 
L 426.382055 -54.2544 
L 425.257895 -54.2544 
L 424.133734 -54.2544 
L 423.009574 -54.2544 
L 421.885414 -54.2544 
L 420.761253 -54.2544 
L 419.637093 -54.2544 
L 418.512932 -54.2544 
L 417.388772 -54.2544 
L 416.264612 -54.2544 
L 415.140451 -54.2544 
L 414.016291 -54.2544 
L 412.89213 -54.2544 
L 411.76797 -54.2544 
L 410.64381 -54.2544 
L 409.519649 -54.2544 
L 408.395489 -54.2544 
L 407.271328 -54.2544 
L 406.147168 -54.2544 
L 405.023008 -54.2544 
L 403.898847 -54.2544 
L 402.774687 -54.2544 
L 401.650526 -54.2544 
L 400.526366 -54.2544 
L 399.402206 -54.2544 
L 398.278045 -54.2544 
L 397.153885 -54.2544 
L 396.029724 -54.2544 
L 394.905564 -54.2544 
L 393.781404 -54.2544 
L 392.657243 -54.2544 
L 391.533083 -54.2544 
L 390.408922 -54.2544 
L 389.284762 -54.2544 
L 388.160602 -54.2544 
L 387.036441 -54.2544 
L 385.912281 -54.2544 
L 384.78812 -54.2544 
L 383.66396 -54.2544 
L 382.539799 -54.2544 
L 381.415639 -54.2544 
L 380.291479 -54.2544 
L 379.167318 -54.2544 
L 378.043158 -54.2544 
L 376.918997 -54.2544 
L 375.794837 -54.2544 
L 374.670677 -54.2544 
L 373.546516 -54.2544 
L 372.422356 -54.2544 
L 371.298195 -54.2544 
L 370.174035 -54.2544 
L 369.049875 -54.2544 
L 367.925714 -54.2544 
L 366.801554 -54.2544 
L 365.677393 -54.2544 
L 364.553233 -54.2544 
L 363.429073 -54.2544 
L 362.304912 -54.2544 
L 361.180752 -54.2544 
L 360.056591 -54.2544 
L 358.932431 -54.2544 
L 357.808271 -54.2544 
L 356.68411 -54.2544 
L 355.55995 -54.2544 
L 354.435789 -54.2544 
L 353.311629 -54.2544 
L 352.187469 -54.2544 
L 351.063308 -54.2544 
L 349.939148 -54.2544 
L 348.814987 -54.2544 
L 347.690827 -54.2544 
L 346.566667 -54.2544 
L 345.442506 -54.2544 
L 344.318346 -54.2544 
L 343.194185 -54.2544 
L 342.070025 -54.2544 
L 340.945865 -54.2544 
L 339.821704 -54.2544 
L 338.697544 -54.2544 
L 337.573383 -54.2544 
L 336.449223 -54.2544 
L 335.325063 -54.2544 
L 334.200902 -54.2544 
L 333.076742 -54.2544 
L 331.952581 -54.2544 
L 330.828421 -54.2544 
L 329.704261 -54.2544 
L 328.5801 -54.2544 
L 327.45594 -54.2544 
L 326.331779 -54.2544 
L 325.207619 -54.2544 
L 324.083459 -54.2544 
L 322.959298 -54.2544 
L 321.835138 -54.2544 
L 320.710977 -54.2544 
L 319.586817 -54.2544 
L 318.462657 -54.2544 
L 317.338496 -54.2544 
L 316.214336 -54.2544 
L 315.090175 -54.2544 
L 313.966015 -54.2544 
L 312.841855 -54.2544 
L 311.717694 -54.2544 
L 310.593534 -54.2544 
L 309.469373 -54.2544 
L 308.345213 -54.2544 
L 307.221053 -54.2544 
L 306.096892 -54.2544 
L 304.972732 -54.2544 
L 303.848571 -54.2544 
L 302.724411 -54.2544 
L 301.600251 -54.2544 
L 300.47609 -54.2544 
L 299.35193 -54.2544 
L 298.227769 -54.2544 
L 297.103609 -54.2544 
L 295.979449 -54.2544 
L 294.855288 -54.2544 
L 293.731128 -54.2544 
L 292.606967 -54.2544 
L 291.482807 -54.2544 
L 290.358647 -54.2544 
L 289.234486 -54.2544 
L 288.110326 -54.2544 
L 286.986165 -54.2544 
L 285.862005 -54.2544 
L 284.737845 -54.2544 
L 283.613684 -54.2544 
L 282.489524 -54.2544 
L 281.365363 -54.2544 
L 280.241203 -54.2544 
L 279.117043 -54.2544 
L 277.992882 -54.2544 
L 276.868722 -54.2544 
L 275.744561 -54.2544 
L 274.620401 -54.2544 
L 273.496241 -54.2544 
L 272.37208 -54.2544 
L 271.24792 -54.2544 
L 270.123759 -54.2544 
L 268.999599 -54.2544 
L 267.875439 -54.2544 
L 266.751278 -54.2544 
L 265.627118 -54.2544 
L 264.502957 -54.2544 
L 263.378797 -54.2544 
L 262.254637 -54.2544 
L 261.130476 -54.2544 
L 260.006316 -54.2544 
L 258.882155 -54.2544 
L 257.757995 -54.2544 
L 256.633835 -54.2544 
L 255.509674 -54.2544 
L 254.385514 -54.2544 
L 253.261353 -54.2544 
L 252.137193 -54.2544 
L 251.013033 -54.2544 
L 249.888872 -54.2544 
L 248.764712 -54.2544 
L 247.640551 -54.2544 
L 246.516391 -54.2544 
L 245.392231 -54.2544 
L 244.26807 -54.2544 
L 243.14391 -54.2544 
L 242.019749 -54.2544 
L 240.895589 -54.2544 
L 239.771429 -54.2544 
L 238.647268 -54.2544 
L 237.523108 -54.2544 
L 236.398947 -54.2544 
L 235.274787 -54.2544 
L 234.150627 -54.2544 
L 233.026466 -54.2544 
L 231.902306 -54.2544 
L 230.778145 -54.2544 
L 229.653985 -54.2544 
L 228.529825 -54.2544 
L 227.405664 -54.2544 
L 226.281504 -54.2544 
L 225.157343 -54.2544 
L 224.033183 -54.2544 
L 222.909023 -54.2544 
L 221.784862 -54.2544 
L 220.660702 -54.2544 
L 219.536541 -54.2544 
L 218.412381 -54.2544 
L 217.288221 -54.2544 
L 216.16406 -54.2544 
L 215.0399 -54.2544 
L 213.915739 -54.2544 
L 212.791579 -54.2544 
L 211.667419 -54.2544 
L 210.543258 -54.2544 
L 209.419098 -54.2544 
L 208.294937 -54.2544 
L 207.170777 -54.2544 
L 206.046617 -54.2544 
L 204.922456 -54.2544 
L 203.798296 -54.2544 
L 202.674135 -54.2544 
L 201.549975 -54.2544 
L 200.425815 -54.2544 
L 199.301654 -54.2544 
L 198.177494 -54.2544 
L 197.053333 -54.2544 
L 195.929173 -54.2544 
L 194.805013 -54.2544 
L 193.680852 -54.2544 
L 192.556692 -54.2544 
L 191.432531 -54.2544 
L 190.308371 -54.2544 
L 189.184211 -54.2544 
L 188.06005 -54.2544 
L 186.93589 -54.2544 
L 185.811729 -54.2544 
L 184.687569 -54.2544 
L 183.563409 -54.2544 
L 182.439248 -54.2544 
L 181.315088 -54.2544 
L 180.190927 -54.2544 
L 179.066767 -54.2544 
L 177.942607 -54.2544 
L 176.818446 -54.2544 
L 175.694286 -54.2544 
L 174.570125 -54.2544 
L 173.445965 -54.2544 
L 172.321805 -54.2544 
L 171.197644 -54.2544 
L 170.073484 -54.2544 
L 168.949323 -54.2544 
L 167.825163 -54.2544 
L 166.701003 -54.2544 
L 165.576842 -54.2544 
L 164.452682 -54.2544 
L 163.328521 -54.2544 
L 162.204361 -54.2544 
L 161.080201 -54.2544 
L 159.95604 -54.2544 
L 158.83188 -54.2544 
L 157.707719 -54.2544 
L 156.583559 -54.2544 
L 155.459398 -54.2544 
L 154.335238 -54.2544 
L 153.211078 -54.2544 
L 152.086917 -54.2544 
L 150.962757 -54.2544 
L 149.838596 -54.2544 
L 148.714436 -54.2544 
L 147.590276 -54.2544 
L 146.466115 -54.2544 
L 145.341955 -54.2544 
L 144.217794 -54.2544 
L 143.093634 -54.2544 
L 141.969474 -54.2544 
L 140.845313 -54.2544 
L 139.721153 -54.2544 
L 138.596992 -54.2544 
L 137.472832 -54.2544 
L 136.348672 -54.2544 
L 135.224511 -54.2544 
L 134.100351 -54.2544 
L 132.97619 -54.2544 
L 131.85203 -54.2544 
L 130.72787 -54.2544 
L 129.603709 -54.2544 
L 128.479549 -54.2544 
L 127.355388 -54.2544 
L 126.231228 -54.2544 
L 125.107068 -54.2544 
L 123.982907 -54.2544 
L 122.858747 -54.2544 
L 121.734586 -54.2544 
L 120.610426 -54.2544 
L 119.486266 -54.2544 
L 118.362105 -54.2544 
L 117.237945 -54.2544 
L 116.113784 -54.2544 
L 114.989624 -54.2544 
L 113.865464 -54.2544 
L 112.741303 -54.2544 
L 111.617143 -54.2544 
L 110.492982 -54.2544 
L 109.368822 -54.2544 
L 108.244662 -54.2544 
L 107.120501 -54.2544 
L 105.996341 -54.2544 
L 104.87218 -54.2544 
L 103.74802 -54.2544 
L 102.62386 -54.2544 
L 101.499699 -54.2544 
L 100.375539 -54.2544 
L 99.251378 -54.2544 
L 98.127218 -54.2544 
L 97.003058 -54.2544 
L 95.878897 -54.2544 
L 94.754737 -54.2544 
L 93.630576 -54.2544 
L 92.506416 -54.2544 
L 91.382256 -54.2544 
L 90.258095 -54.2544 
L 89.133935 -54.2544 
L 88.009774 -54.2544 
L 86.885614 -54.2544 
L 85.761454 -54.2544 
L 84.637293 -54.2544 
L 83.513133 -54.2544 
L 82.388972 -54.2544 
L 81.264812 -54.2544 
L 80.140652 -54.2544 
L 79.016491 -54.2544 
L 77.892331 -54.2544 
L 76.76817 -54.2544 
L 75.64401 -54.2544 
L 74.51985 -54.2544 
L 73.395689 -54.2544 
L 72.271529 -54.2544 
L 71.147368 -54.2544 
L 70.023208 -54.2544 
L 68.899048 -54.2544 
L 67.774887 -54.2544 
L 66.650727 -54.2544 
L 65.526566 -54.2544 
L 64.402406 -54.2544 
L 63.278246 -54.2544 
L 62.154085 -54.2544 
L 61.029925 -54.2544 
L 59.905764 -54.2544 
L 58.781604 -54.2544 
L 57.657444 -54.2544 
L 56.533283 -54.2544 
L 55.409123 -54.2544 
L 54.284962 -54.2544 
L 53.160802 -54.2544 
L 52.036642 -54.2544 
L 50.912481 -54.2544 
L 49.788321 -54.2544 
L 48.66416 -54.2544 
L 47.54 -54.2544 
z
" style="stroke: #41607f; stroke-opacity: 0.12"/>
    </defs>
    <g clip-path="url(#pe3e562eb33)">
     <use xlink:href="#maaf877068c" x="0" y="316.8" style="fill: #41607f; fill-opacity: 0.12; stroke: #41607f; stroke-opacity: 0.12"/>
    </g>
   </g>
   <g id="line2d_31">
    <path d="M 47.54 262.5456 
L 111.617143 262.5456 
L 432.002857 67.0576 
L 496.08 67.0576 
L 496.08 67.0576 
" clip-path="url(#pe3e562eb33)" style="fill: none; stroke: #1f3a5f; stroke-width: 2.6; stroke-linecap: square"/>
   </g>
   <g id="line2d_32">
    <path d="M 111.617143 272.32 
L 111.617143 27.96 
" clip-path="url(#pe3e562eb33)" style="fill: none; stroke-dasharray: 0.9,1.485; stroke-dashoffset: 0; stroke: #8a99a8; stroke-width: 0.9"/>
   </g>
   <g id="line2d_33">
    <path d="M 111.617143 272.32 
L 111.617143 27.96 
" clip-path="url(#pe3e562eb33)" style="fill: none; stroke: #41607f; stroke-width: 0.8; stroke-linecap: square"/>
   </g>
   <g id="line2d_34">
    <path d="M 47.54 67.0576 
L 496.08 67.0576 
" clip-path="url(#pe3e562eb33)" style="fill: none; stroke-dasharray: 4,3; stroke-dashoffset: 0; stroke: #c8553d"/>
   </g>
   <g id="line2d_35">
    <path d="M 47.54 262.5456 
L 496.08 262.5456 
" clip-path="url(#pe3e562eb33)" style="fill: none; stroke-dasharray: 1,1.65; stroke-dashoffset: 0; stroke: #c8902d"/>
   </g>
   <g id="patch_3">
    <path d="M 47.54 272.32 
L 47.54 27.96 
" style="fill: none; stroke: #41607f; stroke-width: 0.8; stroke-linejoin: miter; stroke-linecap: square"/>
   </g>
   <g id="patch_4">
    <path d="M 496.08 272.32 
L 496.08 27.96 
" style="fill: none; stroke: #41607f; stroke-width: 0.8; stroke-linejoin: miter; stroke-linecap: square"/>
   </g>
   <g id="patch_5">
    <path d="M 47.54 272.32 
L 496.08 272.32 
" style="fill: none; stroke: #41607f; stroke-width: 0.8; stroke-linejoin: miter; stroke-linecap: square"/>
   </g>
   <g id="patch_6">
    <path d="M 47.54 27.96 
L 496.08 27.96 
" style="fill: none; stroke: #41607f; stroke-width: 0.8; stroke-linejoin: miter; stroke-linecap: square"/>
   </g>
   <g id="text_18">
    <text style="font-size: 8px; font-family: 'DejaVu Sans'; text-anchor: start; fill: #8a99a8" x="116.743314" y="256.68096" transform="rotate(-0 116.743314 256.68096)">Kink @ 0bp</text>
   </g>
   <g id="text_19">
    <text style="font-size: 8px; font-family: 'DejaVu Sans'; text-anchor: end; fill: #c8553d" x="490.953829" y="63.14784" transform="rotate(-0 490.953829 63.14784)">Cap 10%</text>
   </g>
   <g id="text_20">
    <text style="font-size: 8px; font-family: 'DejaVu Sans'; text-anchor: start; fill: #c8902d" x="52.666171" y="258.63584" transform="rotate(-0 52.666171 258.63584)">Floor 0%</text>
   </g>
   <g id="text_21">
    <text style="font-size: 9px; font-family: 'DejaVu Sans'; text-anchor: start; fill: #8a99a8" x="60.355429" y="164.8016" transform="rotate(-0 60.355429 164.8016)">Flatter ←</text>
   </g>
   <g id="text_22">
    <text style="font-size: 9px; font-family: 'DejaVu Sans'; text-anchor: end; fill: #8a99a8" x="483.264571" y="164.8016" transform="rotate(-0 483.264571 164.8016)">→ Steeper</text>
   </g>
   <g id="text_23">
    <text style="font-weight: 700; font-size: 13px; font-family: 'DejaVu Sans'; text-anchor: start; fill: #1f3a5f" x="47.54" y="21.96" transform="rotate(-0 47.54 21.96)">Vanilla Steepener Coupon vs Curve Slope — Investor Lens</text>
   </g>
   <g id="legend_1">
    <g id="line2d_36">
     <path d="M 55.19 39.093672 
L 63.69 39.093672 
L 72.19 39.093672 
" style="fill: none; stroke: #1f3a5f; stroke-width: 2.6; stroke-linecap: square"/>
    </g>
    <g id="text_24">
     <text style="font-size: 8.5px; font-family: 'DejaVu Sans'; text-anchor: start; fill: #1f3a5f" x="78.99" y="42.068672" transform="rotate(-0 78.99 42.068672)">Coupon = 4 × max(0, slope − 0bp)</text>
    </g>
   </g>
  </g>
 </g>
 <defs>
  <clipPath id="pe3e562eb33">
   <rect x="47.54" y="27.96" width="448.54" height="244.36"/>
  </clipPath>
 </defs>
</svg>
