<?xml version="1.0" encoding="utf-8" standalone="no"?>
<!DOCTYPE svg PUBLIC "-//W3C//DTD SVG 1.1//EN"
  "http://www.w3.org/Graphics/SVG/1.1/DTD/svg11.dtd">
<svg xmlns:xlink="http://www.w3.org/1999/xlink" width="518.4pt" height="316.8pt" viewBox="0 0 518.4 316.8" xmlns="http://www.w3.org/2000/svg" version="1.1">
 <metadata>
  <rdf:RDF xmlns:dc="http://purl.org/dc/elements/1.1/" xmlns:cc="http://creativecommons.org/ns#" xmlns:rdf="http://www.w3.org/1999/02/22-rdf-syntax-ns#">
   <cc:Work>
    <dc:type rdf:resource="http://purl.org/dc/dcmitype/StillImage"/>
    <dc:date>2026-06-27T19:07:10.572612</dc:date>
    <dc:format>image/svg+xml</dc:format>
    <dc:creator>
     <cc:Agent>
      <dc:title>Matplotlib v3.10.9, https://matplotlib.org/</dc:title>
     </cc:Agent>
    </dc:creator>
   </cc:Work>
  </rdf:RDF>
 </metadata>
 <defs>
  <style type="text/css">*{stroke-linejoin: round; stroke-linecap: butt}</style>
 </defs>
 <g id="figure_1">
  <g id="patch_1">
   <path d="M 0 316.8 
L 518.4 316.8 
L 518.4 0 
L 0 0 
z
" style="fill: #ffffff"/>
  </g>
  <g id="axes_1">
   <g id="patch_2">
    <path d="M 47.54 272.32 
L 496.08 272.32 
L 496.08 27.96 
L 47.54 27.96 
z
" style="fill: #ffffff"/>
   </g>
   <g id="matplotlib.axis_1">
    <g id="xtick_1">
     <g id="line2d_1">
      <path d="M 47.54 272.32 
L 47.54 27.96 
" clip-path="url(#p36fa4fd1b2)" style="fill: none; stroke: #eef2f6; stroke-linecap: square"/>
     </g>
     <g id="line2d_2">
      <defs>
       <path id="m1357feb15c" d="M 0 0 
L 0 3.5 
" style="stroke: #41607f; stroke-width: 0.8"/>
      </defs>
      <g>
       <use xlink:href="#m1357feb15c" x="47.54" y="272.32" style="fill: #41607f; stroke: #41607f; stroke-width: 0.8"/>
      </g>
     </g>
     <g id="text_1">
      <text style="font-size: 11px; font-family: 'DejaVu Sans'; text-anchor: middle; fill: #41607f" x="47.54" y="287.678281" transform="rotate(-0 47.54 287.678281)">−50</text>
     </g>
    </g>
    <g id="xtick_2">
     <g id="line2d_3">
      <path d="M 111.617143 272.32 
L 111.617143 27.96 
" clip-path="url(#p36fa4fd1b2)" style="fill: none; stroke: #eef2f6; stroke-linecap: square"/>
     </g>
     <g id="line2d_4">
      <g>
       <use xlink:href="#m1357feb15c" x="111.617143" y="272.32" style="fill: #41607f; stroke: #41607f; stroke-width: 0.8"/>
      </g>
     </g>
     <g id="text_2">
      <text style="font-size: 11px; font-family: 'DejaVu Sans'; text-anchor: middle; fill: #41607f" x="111.617143" y="287.678281" transform="rotate(-0 111.617143 287.678281)">0</text>
     </g>
    </g>
    <g id="xtick_3">
     <g id="line2d_5">
      <path d="M 175.694286 272.32 
L 175.694286 27.96 
" clip-path="url(#p36fa4fd1b2)" style="fill: none; stroke: #eef2f6; stroke-linecap: square"/>
     </g>
     <g id="line2d_6">
      <g>
       <use xlink:href="#m1357feb15c" x="175.694286" y="272.32" style="fill: #41607f; stroke: #41607f; stroke-width: 0.8"/>
      </g>
     </g>
     <g id="text_3">
      <text style="font-size: 11px; font-family: 'DejaVu Sans'; text-anchor: middle; fill: #41607f" x="175.694286" y="287.678281" transform="rotate(-0 175.694286 287.678281)">50</text>
     </g>
    </g>
    <g id="xtick_4">
     <g id="line2d_7">
      <path d="M 239.771429 272.32 
L 239.771429 27.96 
" clip-path="url(#p36fa4fd1b2)" style="fill: none; stroke: #eef2f6; stroke-linecap: square"/>
     </g>
     <g id="line2d_8">
      <g>
       <use xlink:href="#m1357feb15c" x="239.771429" y="272.32" style="fill: #41607f; stroke: #41607f; stroke-width: 0.8"/>
      </g>
     </g>
     <g id="text_4">
      <text style="font-size: 11px; font-family: 'DejaVu Sans'; text-anchor: middle; fill: #41607f" x="239.771429" y="287.678281" transform="rotate(-0 239.771429 287.678281)">100</text>
     </g>
    </g>
    <g id="xtick_5">
     <g id="line2d_9">
      <path d="M 303.848571 272.32 
L 303.848571 27.96 
" clip-path="url(#p36fa4fd1b2)" style="fill: none; stroke: #eef2f6; stroke-linecap: square"/>
     </g>
     <g id="line2d_10">
      <g>
       <use xlink:href="#m1357feb15c" x="303.848571" y="272.32" style="fill: #41607f; stroke: #41607f; stroke-width: 0.8"/>
      </g>
     </g>
     <g id="text_5">
      <text style="font-size: 11px; font-family: 'DejaVu Sans'; text-anchor: middle; fill: #41607f" x="303.848571" y="287.678281" transform="rotate(-0 303.848571 287.678281)">150</text>
     </g>
    </g>
    <g id="xtick_6">
     <g id="line2d_11">
      <path d="M 367.925714 272.32 
L 367.925714 27.96 
" clip-path="url(#p36fa4fd1b2)" style="fill: none; stroke: #eef2f6; stroke-linecap: square"/>
     </g>
     <g id="line2d_12">
      <g>
       <use xlink:href="#m1357feb15c" x="367.925714" y="272.32" style="fill: #41607f; stroke: #41607f; stroke-width: 0.8"/>
      </g>
     </g>
     <g id="text_6">
      <text style="font-size: 11px; font-family: 'DejaVu Sans'; text-anchor: middle; fill: #41607f" x="367.925714" y="287.678281" transform="rotate(-0 367.925714 287.678281)">200</text>
     </g>
    </g>
    <g id="xtick_7">
     <g id="line2d_13">
      <path d="M 432.002857 272.32 
L 432.002857 27.96 
" clip-path="url(#p36fa4fd1b2)" style="fill: none; stroke: #eef2f6; stroke-linecap: square"/>
     </g>
     <g id="line2d_14">
      <g>
       <use xlink:href="#m1357feb15c" x="432.002857" y="272.32" style="fill: #41607f; stroke: #41607f; stroke-width: 0.8"/>
      </g>
     </g>
     <g id="text_7">
      <text style="font-size: 11px; font-family: 'DejaVu Sans'; text-anchor: middle; fill: #41607f" x="432.002857" y="287.678281" transform="rotate(-0 432.002857 287.678281)">250</text>
     </g>
    </g>
    <g id="xtick_8">
     <g id="line2d_15">
      <path d="M 496.08 272.32 
L 496.08 27.96 
" clip-path="url(#p36fa4fd1b2)" style="fill: none; stroke: #eef2f6; stroke-linecap: square"/>
     </g>
     <g id="line2d_16">
      <g>
       <use xlink:href="#m1357feb15c" x="496.08" y="272.32" style="fill: #41607f; stroke: #41607f; stroke-width: 0.8"/>
      </g>
     </g>
     <g id="text_8">
      <text style="font-size: 11px; font-family: 'DejaVu Sans'; text-anchor: middle; fill: #41607f" x="496.08" y="287.678281" transform="rotate(-0 496.08 287.678281)">300</text>
     </g>
    </g>
    <g id="text_9">
     <text style="font-size: 11px; font-family: 'DejaVu Sans'; text-anchor: middle; fill: #1f3a5f" x="271.81" y="302.324219" transform="rotate(-0 271.81 302.324219)">Curve slope: long-tenor − short-tenor CMS (bp)</text>
    </g>
   </g>
   <g id="matplotlib.axis_2">
    <g id="ytick_1">
     <g id="line2d_17">
      <path d="M 47.54 264.064595 
L 496.08 264.064595 
" clip-path="url(#p36fa4fd1b2)" style="fill: none; stroke: #eef2f6; stroke-linecap: square"/>
     </g>
     <g id="line2d_18">
      <defs>
       <path id="m985d13fc0b" d="M 0 0 
L -3.5 0 
" style="stroke: #41607f; stroke-width: 0.8"/>
      </defs>
      <g>
       <use xlink:href="#m985d13fc0b" x="47.54" y="264.064595" style="fill: #41607f; stroke: #41607f; stroke-width: 0.8"/>
      </g>
     </g>
     <g id="text_10">
      <text style="font-size: 11px; font-family: 'DejaVu Sans'; text-anchor: end; fill: #41607f" x="40.54" y="268.243735" transform="rotate(-0 40.54 268.243735)">0</text>
     </g>
    </g>
    <g id="ytick_2">
     <g id="line2d_19">
      <path d="M 47.54 231.042973 
L 496.08 231.042973 
" clip-path="url(#p36fa4fd1b2)" style="fill: none; stroke: #eef2f6; stroke-linecap: square"/>
     </g>
     <g id="line2d_20">
      <g>
       <use xlink:href="#m985d13fc0b" x="47.54" y="231.042973" style="fill: #41607f; stroke: #41607f; stroke-width: 0.8"/>
      </g>
     </g>
     <g id="text_11">
      <text style="font-size: 11px; font-family: 'DejaVu Sans'; text-anchor: end; fill: #41607f" x="40.54" y="235.222114" transform="rotate(-0 40.54 235.222114)">2</text>
     </g>
    </g>
    <g id="ytick_3">
     <g id="line2d_21">
      <path d="M 47.54 198.021351 
L 496.08 198.021351 
" clip-path="url(#p36fa4fd1b2)" style="fill: none; stroke: #eef2f6; stroke-linecap: square"/>
     </g>
     <g id="line2d_22">
      <g>
       <use xlink:href="#m985d13fc0b" x="47.54" y="198.021351" style="fill: #41607f; stroke: #41607f; stroke-width: 0.8"/>
      </g>
     </g>
     <g id="text_12">
      <text style="font-size: 11px; font-family: 'DejaVu Sans'; text-anchor: end; fill: #41607f" x="40.54" y="202.200492" transform="rotate(-0 40.54 202.200492)">4</text>
     </g>
    </g>
    <g id="ytick_4">
     <g id="line2d_23">
      <path d="M 47.54 164.99973 
L 496.08 164.99973 
" clip-path="url(#p36fa4fd1b2)" style="fill: none; stroke: #eef2f6; stroke-linecap: square"/>
     </g>
     <g id="line2d_24">
      <g>
       <use xlink:href="#m985d13fc0b" x="47.54" y="164.99973" style="fill: #41607f; stroke: #41607f; stroke-width: 0.8"/>
      </g>
     </g>
     <g id="text_13">
      <text style="font-size: 11px; font-family: 'DejaVu Sans'; text-anchor: end; fill: #41607f" x="40.54" y="169.17887" transform="rotate(-0 40.54 169.17887)">6</text>
     </g>
    </g>
    <g id="ytick_5">
     <g id="line2d_25">
      <path d="M 47.54 131.978108 
L 496.08 131.978108 
" clip-path="url(#p36fa4fd1b2)" style="fill: none; stroke: #eef2f6; stroke-linecap: square"/>
     </g>
     <g id="line2d_26">
      <g>
       <use xlink:href="#m985d13fc0b" x="47.54" y="131.978108" style="fill: #41607f; stroke: #41607f; stroke-width: 0.8"/>
      </g>
     </g>
     <g id="text_14">
      <text style="font-size: 11px; font-family: 'DejaVu Sans'; text-anchor: end; fill: #41607f" x="40.54" y="136.157249" transform="rotate(-0 40.54 136.157249)">8</text>
     </g>
    </g>
    <g id="ytick_6">
     <g id="line2d_27">
      <path d="M 47.54 98.956486 
L 496.08 98.956486 
" clip-path="url(#p36fa4fd1b2)" style="fill: none; stroke: #eef2f6; stroke-linecap: square"/>
     </g>
     <g id="line2d_28">
      <g>
       <use xlink:href="#m985d13fc0b" x="47.54" y="98.956486" style="fill: #41607f; stroke: #41607f; stroke-width: 0.8"/>
      </g>
     </g>
     <g id="text_15">
      <text style="font-size: 11px; font-family: 'DejaVu Sans'; text-anchor: end; fill: #41607f" x="40.54" y="103.135627" transform="rotate(-0 40.54 103.135627)">10</text>
     </g>
    </g>
    <g id="ytick_7">
     <g id="line2d_29">
      <path d="M 47.54 65.934865 
L 496.08 65.934865 
" clip-path="url(#p36fa4fd1b2)" style="fill: none; stroke: #eef2f6; stroke-linecap: square"/>
     </g>
     <g id="line2d_30">
      <g>
       <use xlink:href="#m985d13fc0b" x="47.54" y="65.934865" style="fill: #41607f; stroke: #41607f; stroke-width: 0.8"/>
      </g>
     </g>
     <g id="text_16">
      <text style="font-size: 11px; font-family: 'DejaVu Sans'; text-anchor: end; fill: #41607f" x="40.54" y="70.114005" transform="rotate(-0 40.54 70.114005)">12</text>
     </g>
    </g>
    <g id="ytick_8">
     <g id="line2d_31">
      <path d="M 47.54 32.913243 
L 496.08 32.913243 
" clip-path="url(#p36fa4fd1b2)" style="fill: none; stroke: #eef2f6; stroke-linecap: square"/>
     </g>
     <g id="line2d_32">
      <g>
       <use xlink:href="#m985d13fc0b" x="47.54" y="32.913243" style="fill: #41607f; stroke: #41607f; stroke-width: 0.8"/>
      </g>
     </g>
     <g id="text_17">
      <text style="font-size: 11px; font-family: 'DejaVu Sans'; text-anchor: end; fill: #41607f" x="40.54" y="37.092384" transform="rotate(-0 40.54 37.092384)">14</text>
     </g>
    </g>
    <g id="text_18">
     <text style="font-size: 11px; font-family: 'DejaVu Sans'; text-anchor: middle; fill: #1f3a5f" x="20.254844" y="150.14" transform="rotate(-90 20.254844 150.14)">Coupon paid (%)</text>
    </g>
   </g>
   <g id="FillBetweenPolyCollection_1">
    <defs>
     <path id="me53da98b3a" d="M 47.54 -52.735405 
L 47.54 -52.735405 
L 48.66416 -52.735405 
L 49.788321 -52.735405 
L 50.912481 -52.735405 
L 52.036642 -52.735405 
L 53.160802 -52.735405 
L 54.284962 -52.735405 
L 55.409123 -52.735405 
L 56.533283 -52.735405 
L 57.657444 -52.735405 
L 58.781604 -52.735405 
L 59.905764 -52.735405 
L 61.029925 -52.735405 
L 62.154085 -52.735405 
L 63.278246 -52.735405 
L 64.402406 -52.735405 
L 65.526566 -52.735405 
L 66.650727 -52.735405 
L 67.774887 -52.735405 
L 68.899048 -52.735405 
L 70.023208 -52.735405 
L 71.147368 -52.735405 
L 72.271529 -52.735405 
L 73.395689 -52.735405 
L 74.51985 -52.735405 
L 75.64401 -52.735405 
L 76.76817 -52.735405 
L 77.892331 -52.735405 
L 79.016491 -52.735405 
L 80.140652 -52.735405 
L 81.264812 -52.735405 
L 82.388972 -52.735405 
L 83.513133 -52.735405 
L 84.637293 -52.735405 
L 85.761454 -52.735405 
L 86.885614 -52.735405 
L 88.009774 -52.735405 
L 89.133935 -52.735405 
L 90.258095 -52.735405 
L 91.382256 -52.735405 
L 92.506416 -52.735405 
L 93.630576 -52.735405 
L 94.754737 -52.735405 
L 95.878897 -52.735405 
L 97.003058 -52.735405 
L 98.127218 -52.735405 
L 99.251378 -52.735405 
L 100.375539 -52.735405 
L 101.499699 -52.735405 
L 102.62386 -52.735405 
L 103.74802 -52.735405 
L 104.87218 -52.735405 
L 105.996341 -52.735405 
L 107.120501 -52.735405 
L 108.244662 -52.735405 
L 109.368822 -52.735405 
L 110.492982 -52.735405 
L 111.617143 -52.735405 
L 112.741303 -53.387148 
L 113.865464 -54.03889 
L 114.989624 -54.690633 
L 116.113784 -55.342376 
L 117.237945 -55.994118 
L 118.362105 -56.645861 
L 119.486266 -57.297603 
L 120.610426 -57.949346 
L 121.734586 -58.601088 
L 122.858747 -59.252831 
L 123.982907 -59.904573 
L 125.107068 -60.556316 
L 126.231228 -61.208058 
L 127.355388 -61.859801 
L 128.479549 -62.511543 
L 129.603709 -63.163286 
L 130.72787 -63.815028 
L 131.85203 -64.466771 
L 132.97619 -65.118514 
L 134.100351 -65.770256 
L 135.224511 -66.421999 
L 136.348672 -67.073741 
L 137.472832 -67.725484 
L 138.596992 -68.377226 
L 139.721153 -69.028969 
L 140.845313 -69.680711 
L 141.969474 -70.332454 
L 143.093634 -70.984196 
L 144.217794 -71.635939 
L 145.341955 -72.287681 
L 146.466115 -72.939424 
L 147.590276 -73.591166 
L 148.714436 -74.242909 
L 149.838596 -74.894651 
L 150.962757 -75.546394 
L 152.086917 -76.198137 
L 153.211078 -76.849879 
L 154.335238 -77.501622 
L 155.459398 -78.153364 
L 156.583559 -78.805107 
L 157.707719 -79.456849 
L 158.83188 -80.108592 
L 159.95604 -80.760334 
L 161.080201 -81.412077 
L 162.204361 -82.063819 
L 163.328521 -82.715562 
L 164.452682 -83.367304 
L 165.576842 -84.019047 
L 166.701003 -84.670789 
L 167.825163 -85.322532 
L 168.949323 -85.974275 
L 170.073484 -86.626017 
L 171.197644 -87.27776 
L 172.321805 -87.929502 
L 173.445965 -88.581245 
L 174.570125 -89.232987 
L 175.694286 -89.88473 
L 176.818446 -90.536472 
L 177.942607 -91.188215 
L 179.066767 -91.839957 
L 180.190927 -92.4917 
L 181.315088 -93.143442 
L 182.439248 -93.795185 
L 183.563409 -94.446927 
L 184.687569 -95.09867 
L 185.811729 -95.750413 
L 186.93589 -96.402155 
L 188.06005 -97.053898 
L 189.184211 -97.70564 
L 190.308371 -98.357383 
L 191.432531 -99.009125 
L 192.556692 -99.660868 
L 193.680852 -100.31261 
L 194.805013 -100.964353 
L 195.929173 -101.616095 
L 197.053333 -102.267838 
L 198.177494 -102.91958 
L 199.301654 -103.571323 
L 200.425815 -104.223065 
L 201.549975 -104.874808 
L 202.674135 -105.52655 
L 203.798296 -106.178293 
L 204.922456 -106.830036 
L 206.046617 -107.481778 
L 207.170777 -108.133521 
L 208.294937 -108.785263 
L 209.419098 -109.437006 
L 210.543258 -110.088748 
L 211.667419 -110.740491 
L 212.791579 -111.392233 
L 213.915739 -112.043976 
L 215.0399 -112.695718 
L 216.16406 -113.347461 
L 217.288221 -113.999203 
L 218.412381 -114.650946 
L 219.536541 -115.302688 
L 220.660702 -115.954431 
L 221.784862 -116.606174 
L 222.909023 -117.257916 
L 224.033183 -117.909659 
L 225.157343 -118.561401 
L 226.281504 -119.213144 
L 227.405664 -119.864886 
L 228.529825 -120.516629 
L 229.653985 -121.168371 
L 230.778145 -121.820114 
L 231.902306 -122.471856 
L 233.026466 -123.123599 
L 234.150627 -123.775341 
L 235.274787 -124.427084 
L 236.398947 -125.078826 
L 237.523108 -125.730569 
L 238.647268 -126.382312 
L 239.771429 -127.034054 
L 240.895589 -127.685797 
L 242.019749 -128.337539 
L 243.14391 -128.989282 
L 244.26807 -129.641024 
L 245.392231 -130.292767 
L 246.516391 -130.944509 
L 247.640551 -131.596252 
L 248.764712 -132.247994 
L 249.888872 -132.899737 
L 251.013033 -133.551479 
L 252.137193 -134.203222 
L 253.261353 -134.854964 
L 254.385514 -135.506707 
L 255.509674 -136.15845 
L 256.633835 -136.810192 
L 257.757995 -137.461935 
L 258.882155 -138.113677 
L 260.006316 -138.76542 
L 261.130476 -139.417162 
L 262.254637 -140.068905 
L 263.378797 -140.720647 
L 264.502957 -141.37239 
L 265.627118 -142.024132 
L 266.751278 -142.675875 
L 267.875439 -143.327617 
L 268.999599 -143.97936 
L 270.123759 -144.631102 
L 271.24792 -145.282845 
L 272.37208 -145.934587 
L 273.496241 -146.58633 
L 274.620401 -147.238073 
L 275.744561 -147.889815 
L 276.868722 -148.541558 
L 277.992882 -149.1933 
L 279.117043 -149.845043 
L 280.241203 -150.496785 
L 281.365363 -151.148528 
L 282.489524 -151.80027 
L 283.613684 -152.452013 
L 284.737845 -153.103755 
L 285.862005 -153.755498 
L 286.986165 -154.40724 
L 288.110326 -155.058983 
L 289.234486 -155.710725 
L 290.358647 -156.362468 
L 291.482807 -157.014211 
L 292.606967 -157.665953 
L 293.731128 -158.317696 
L 294.855288 -158.969438 
L 295.979449 -159.621181 
L 297.103609 -160.272923 
L 298.227769 -160.924666 
L 299.35193 -161.576408 
L 300.47609 -162.228151 
L 301.600251 -162.879893 
L 302.724411 -163.531636 
L 303.848571 -164.183378 
L 304.972732 -164.835121 
L 306.096892 -165.486863 
L 307.221053 -166.138606 
L 308.345213 -166.790349 
L 309.469373 -167.442091 
L 310.593534 -168.093834 
L 311.717694 -168.745576 
L 312.841855 -169.397319 
L 313.966015 -170.049061 
L 315.090175 -170.700804 
L 316.214336 -171.352546 
L 317.338496 -172.004289 
L 318.462657 -172.656031 
L 319.586817 -173.307774 
L 320.710977 -173.959516 
L 321.835138 -174.611259 
L 322.959298 -175.263001 
L 324.083459 -175.914744 
L 325.207619 -176.566486 
L 326.331779 -177.218229 
L 327.45594 -177.869972 
L 328.5801 -178.521714 
L 329.704261 -179.173457 
L 330.828421 -179.825199 
L 331.952581 -180.476942 
L 333.076742 -181.128684 
L 334.200902 -181.780427 
L 335.325063 -182.432169 
L 336.449223 -183.083912 
L 337.573383 -183.735654 
L 338.697544 -184.387397 
L 339.821704 -185.039139 
L 340.945865 -185.690882 
L 342.070025 -186.342624 
L 343.194185 -186.994367 
L 344.318346 -187.64611 
L 345.442506 -188.297852 
L 346.566667 -188.949595 
L 347.690827 -189.601337 
L 348.814987 -190.25308 
L 349.939148 -190.904822 
L 351.063308 -191.556565 
L 352.187469 -192.208307 
L 353.311629 -192.86005 
L 354.435789 -193.511792 
L 355.55995 -194.163535 
L 356.68411 -194.815277 
L 357.808271 -195.46702 
L 358.932431 -196.118762 
L 360.056591 -196.770505 
L 361.180752 -197.422248 
L 362.304912 -198.07399 
L 363.429073 -198.725733 
L 364.553233 -199.377475 
L 365.677393 -200.029218 
L 366.801554 -200.68096 
L 367.925714 -201.332703 
L 369.049875 -201.984445 
L 370.174035 -202.636188 
L 371.298195 -203.28793 
L 372.422356 -203.939673 
L 373.546516 -204.591415 
L 374.670677 -205.243158 
L 375.794837 -205.8949 
L 376.918997 -206.546643 
L 378.043158 -207.198385 
L 379.167318 -207.850128 
L 380.291479 -208.501871 
L 381.415639 -209.153613 
L 382.539799 -209.805356 
L 383.66396 -210.457098 
L 384.78812 -211.108841 
L 385.912281 -211.760583 
L 387.036441 -212.412326 
L 388.160602 -213.064068 
L 389.284762 -213.715811 
L 390.408922 -214.367553 
L 391.533083 -215.019296 
L 392.657243 -215.671038 
L 393.781404 -216.322781 
L 394.905564 -216.974523 
L 396.029724 -217.626266 
L 397.153885 -218.278009 
L 398.278045 -218.929751 
L 399.402206 -219.581494 
L 400.526366 -220.233236 
L 401.650526 -220.884979 
L 402.774687 -221.536721 
L 403.898847 -222.188464 
L 405.023008 -222.840206 
L 406.147168 -223.491949 
L 407.271328 -224.143691 
L 408.395489 -224.795434 
L 409.519649 -225.447176 
L 410.64381 -226.098919 
L 411.76797 -226.750661 
L 412.89213 -227.402404 
L 414.016291 -228.054147 
L 415.140451 -228.705889 
L 416.264612 -229.357632 
L 417.388772 -230.009374 
L 418.512932 -230.661117 
L 419.637093 -231.312859 
L 420.761253 -231.964602 
L 421.885414 -232.616344 
L 423.009574 -233.268087 
L 424.133734 -233.919829 
L 425.257895 -234.571572 
L 426.382055 -235.223314 
L 427.506216 -235.875057 
L 428.630376 -236.526799 
L 429.754536 -237.178542 
L 430.878697 -237.830284 
L 432.002857 -238.482027 
L 433.127018 -239.13377 
L 434.251178 -239.785512 
L 435.375338 -240.437255 
L 436.499499 -241.088997 
L 437.623659 -241.74074 
L 438.74782 -242.392482 
L 439.87198 -243.044225 
L 440.99614 -243.695967 
L 442.120301 -244.34771 
L 443.244461 -244.999452 
L 444.368622 -245.651195 
L 445.492782 -246.302937 
L 446.616942 -246.95468 
L 447.741103 -247.606422 
L 448.865263 -248.258165 
L 449.989424 -248.909908 
L 451.113584 -249.56165 
L 452.237744 -250.213393 
L 453.361905 -250.865135 
L 454.486065 -250.865135 
L 455.610226 -250.865135 
L 456.734386 -250.865135 
L 457.858546 -250.865135 
L 458.982707 -250.865135 
L 460.106867 -250.865135 
L 461.231028 -250.865135 
L 462.355188 -250.865135 
L 463.479348 -250.865135 
L 464.603509 -250.865135 
L 465.727669 -250.865135 
L 466.85183 -250.865135 
L 467.97599 -250.865135 
L 469.10015 -250.865135 
L 470.224311 -250.865135 
L 471.348471 -250.865135 
L 472.472632 -250.865135 
L 473.596792 -250.865135 
L 474.720952 -250.865135 
L 475.845113 -250.865135 
L 476.969273 -250.865135 
L 478.093434 -250.865135 
L 479.217594 -250.865135 
L 480.341754 -250.865135 
L 481.465915 -250.865135 
L 482.590075 -250.865135 
L 483.714236 -250.865135 
L 484.838396 -250.865135 
L 485.962556 -250.865135 
L 487.086717 -250.865135 
L 488.210877 -250.865135 
L 489.335038 -250.865135 
L 490.459198 -250.865135 
L 491.583358 -250.865135 
L 492.707519 -250.865135 
L 493.831679 -250.865135 
L 494.95584 -250.865135 
L 496.08 -250.865135 
L 496.08 -52.735405 
L 496.08 -52.735405 
L 494.95584 -52.735405 
L 493.831679 -52.735405 
L 492.707519 -52.735405 
L 491.583358 -52.735405 
L 490.459198 -52.735405 
L 489.335038 -52.735405 
L 488.210877 -52.735405 
L 487.086717 -52.735405 
L 485.962556 -52.735405 
L 484.838396 -52.735405 
L 483.714236 -52.735405 
L 482.590075 -52.735405 
L 481.465915 -52.735405 
L 480.341754 -52.735405 
L 479.217594 -52.735405 
L 478.093434 -52.735405 
L 476.969273 -52.735405 
L 475.845113 -52.735405 
L 474.720952 -52.735405 
L 473.596792 -52.735405 
L 472.472632 -52.735405 
L 471.348471 -52.735405 
L 470.224311 -52.735405 
L 469.10015 -52.735405 
L 467.97599 -52.735405 
L 466.85183 -52.735405 
L 465.727669 -52.735405 
L 464.603509 -52.735405 
L 463.479348 -52.735405 
L 462.355188 -52.735405 
L 461.231028 -52.735405 
L 460.106867 -52.735405 
L 458.982707 -52.735405 
L 457.858546 -52.735405 
L 456.734386 -52.735405 
L 455.610226 -52.735405 
L 454.486065 -52.735405 
L 453.361905 -52.735405 
L 452.237744 -52.735405 
L 451.113584 -52.735405 
L 449.989424 -52.735405 
L 448.865263 -52.735405 
L 447.741103 -52.735405 
L 446.616942 -52.735405 
L 445.492782 -52.735405 
L 444.368622 -52.735405 
L 443.244461 -52.735405 
L 442.120301 -52.735405 
L 440.99614 -52.735405 
L 439.87198 -52.735405 
L 438.74782 -52.735405 
L 437.623659 -52.735405 
L 436.499499 -52.735405 
L 435.375338 -52.735405 
L 434.251178 -52.735405 
L 433.127018 -52.735405 
L 432.002857 -52.735405 
L 430.878697 -52.735405 
L 429.754536 -52.735405 
L 428.630376 -52.735405 
L 427.506216 -52.735405 
L 426.382055 -52.735405 
L 425.257895 -52.735405 
L 424.133734 -52.735405 
L 423.009574 -52.735405 
L 421.885414 -52.735405 
L 420.761253 -52.735405 
L 419.637093 -52.735405 
L 418.512932 -52.735405 
L 417.388772 -52.735405 
L 416.264612 -52.735405 
L 415.140451 -52.735405 
L 414.016291 -52.735405 
L 412.89213 -52.735405 
L 411.76797 -52.735405 
L 410.64381 -52.735405 
L 409.519649 -52.735405 
L 408.395489 -52.735405 
L 407.271328 -52.735405 
L 406.147168 -52.735405 
L 405.023008 -52.735405 
L 403.898847 -52.735405 
L 402.774687 -52.735405 
L 401.650526 -52.735405 
L 400.526366 -52.735405 
L 399.402206 -52.735405 
L 398.278045 -52.735405 
L 397.153885 -52.735405 
L 396.029724 -52.735405 
L 394.905564 -52.735405 
L 393.781404 -52.735405 
L 392.657243 -52.735405 
L 391.533083 -52.735405 
L 390.408922 -52.735405 
L 389.284762 -52.735405 
L 388.160602 -52.735405 
L 387.036441 -52.735405 
L 385.912281 -52.735405 
L 384.78812 -52.735405 
L 383.66396 -52.735405 
L 382.539799 -52.735405 
L 381.415639 -52.735405 
L 380.291479 -52.735405 
L 379.167318 -52.735405 
L 378.043158 -52.735405 
L 376.918997 -52.735405 
L 375.794837 -52.735405 
L 374.670677 -52.735405 
L 373.546516 -52.735405 
L 372.422356 -52.735405 
L 371.298195 -52.735405 
L 370.174035 -52.735405 
L 369.049875 -52.735405 
L 367.925714 -52.735405 
L 366.801554 -52.735405 
L 365.677393 -52.735405 
L 364.553233 -52.735405 
L 363.429073 -52.735405 
L 362.304912 -52.735405 
L 361.180752 -52.735405 
L 360.056591 -52.735405 
L 358.932431 -52.735405 
L 357.808271 -52.735405 
L 356.68411 -52.735405 
L 355.55995 -52.735405 
L 354.435789 -52.735405 
L 353.311629 -52.735405 
L 352.187469 -52.735405 
L 351.063308 -52.735405 
L 349.939148 -52.735405 
L 348.814987 -52.735405 
L 347.690827 -52.735405 
L 346.566667 -52.735405 
L 345.442506 -52.735405 
L 344.318346 -52.735405 
L 343.194185 -52.735405 
L 342.070025 -52.735405 
L 340.945865 -52.735405 
L 339.821704 -52.735405 
L 338.697544 -52.735405 
L 337.573383 -52.735405 
L 336.449223 -52.735405 
L 335.325063 -52.735405 
L 334.200902 -52.735405 
L 333.076742 -52.735405 
L 331.952581 -52.735405 
L 330.828421 -52.735405 
L 329.704261 -52.735405 
L 328.5801 -52.735405 
L 327.45594 -52.735405 
L 326.331779 -52.735405 
L 325.207619 -52.735405 
L 324.083459 -52.735405 
L 322.959298 -52.735405 
L 321.835138 -52.735405 
L 320.710977 -52.735405 
L 319.586817 -52.735405 
L 318.462657 -52.735405 
L 317.338496 -52.735405 
L 316.214336 -52.735405 
L 315.090175 -52.735405 
L 313.966015 -52.735405 
L 312.841855 -52.735405 
L 311.717694 -52.735405 
L 310.593534 -52.735405 
L 309.469373 -52.735405 
L 308.345213 -52.735405 
L 307.221053 -52.735405 
L 306.096892 -52.735405 
L 304.972732 -52.735405 
L 303.848571 -52.735405 
L 302.724411 -52.735405 
L 301.600251 -52.735405 
L 300.47609 -52.735405 
L 299.35193 -52.735405 
L 298.227769 -52.735405 
L 297.103609 -52.735405 
L 295.979449 -52.735405 
L 294.855288 -52.735405 
L 293.731128 -52.735405 
L 292.606967 -52.735405 
L 291.482807 -52.735405 
L 290.358647 -52.735405 
L 289.234486 -52.735405 
L 288.110326 -52.735405 
L 286.986165 -52.735405 
L 285.862005 -52.735405 
L 284.737845 -52.735405 
L 283.613684 -52.735405 
L 282.489524 -52.735405 
L 281.365363 -52.735405 
L 280.241203 -52.735405 
L 279.117043 -52.735405 
L 277.992882 -52.735405 
L 276.868722 -52.735405 
L 275.744561 -52.735405 
L 274.620401 -52.735405 
L 273.496241 -52.735405 
L 272.37208 -52.735405 
L 271.24792 -52.735405 
L 270.123759 -52.735405 
L 268.999599 -52.735405 
L 267.875439 -52.735405 
L 266.751278 -52.735405 
L 265.627118 -52.735405 
L 264.502957 -52.735405 
L 263.378797 -52.735405 
L 262.254637 -52.735405 
L 261.130476 -52.735405 
L 260.006316 -52.735405 
L 258.882155 -52.735405 
L 257.757995 -52.735405 
L 256.633835 -52.735405 
L 255.509674 -52.735405 
L 254.385514 -52.735405 
L 253.261353 -52.735405 
L 252.137193 -52.735405 
L 251.013033 -52.735405 
L 249.888872 -52.735405 
L 248.764712 -52.735405 
L 247.640551 -52.735405 
L 246.516391 -52.735405 
L 245.392231 -52.735405 
L 244.26807 -52.735405 
L 243.14391 -52.735405 
L 242.019749 -52.735405 
L 240.895589 -52.735405 
L 239.771429 -52.735405 
L 238.647268 -52.735405 
L 237.523108 -52.735405 
L 236.398947 -52.735405 
L 235.274787 -52.735405 
L 234.150627 -52.735405 
L 233.026466 -52.735405 
L 231.902306 -52.735405 
L 230.778145 -52.735405 
L 229.653985 -52.735405 
L 228.529825 -52.735405 
L 227.405664 -52.735405 
L 226.281504 -52.735405 
L 225.157343 -52.735405 
L 224.033183 -52.735405 
L 222.909023 -52.735405 
L 221.784862 -52.735405 
L 220.660702 -52.735405 
L 219.536541 -52.735405 
L 218.412381 -52.735405 
L 217.288221 -52.735405 
L 216.16406 -52.735405 
L 215.0399 -52.735405 
L 213.915739 -52.735405 
L 212.791579 -52.735405 
L 211.667419 -52.735405 
L 210.543258 -52.735405 
L 209.419098 -52.735405 
L 208.294937 -52.735405 
L 207.170777 -52.735405 
L 206.046617 -52.735405 
L 204.922456 -52.735405 
L 203.798296 -52.735405 
L 202.674135 -52.735405 
L 201.549975 -52.735405 
L 200.425815 -52.735405 
L 199.301654 -52.735405 
L 198.177494 -52.735405 
L 197.053333 -52.735405 
L 195.929173 -52.735405 
L 194.805013 -52.735405 
L 193.680852 -52.735405 
L 192.556692 -52.735405 
L 191.432531 -52.735405 
L 190.308371 -52.735405 
L 189.184211 -52.735405 
L 188.06005 -52.735405 
L 186.93589 -52.735405 
L 185.811729 -52.735405 
L 184.687569 -52.735405 
L 183.563409 -52.735405 
L 182.439248 -52.735405 
L 181.315088 -52.735405 
L 180.190927 -52.735405 
L 179.066767 -52.735405 
L 177.942607 -52.735405 
L 176.818446 -52.735405 
L 175.694286 -52.735405 
L 174.570125 -52.735405 
L 173.445965 -52.735405 
L 172.321805 -52.735405 
L 171.197644 -52.735405 
L 170.073484 -52.735405 
L 168.949323 -52.735405 
L 167.825163 -52.735405 
L 166.701003 -52.735405 
L 165.576842 -52.735405 
L 164.452682 -52.735405 
L 163.328521 -52.735405 
L 162.204361 -52.735405 
L 161.080201 -52.735405 
L 159.95604 -52.735405 
L 158.83188 -52.735405 
L 157.707719 -52.735405 
L 156.583559 -52.735405 
L 155.459398 -52.735405 
L 154.335238 -52.735405 
L 153.211078 -52.735405 
L 152.086917 -52.735405 
L 150.962757 -52.735405 
L 149.838596 -52.735405 
L 148.714436 -52.735405 
L 147.590276 -52.735405 
L 146.466115 -52.735405 
L 145.341955 -52.735405 
L 144.217794 -52.735405 
L 143.093634 -52.735405 
L 141.969474 -52.735405 
L 140.845313 -52.735405 
L 139.721153 -52.735405 
L 138.596992 -52.735405 
L 137.472832 -52.735405 
L 136.348672 -52.735405 
L 135.224511 -52.735405 
L 134.100351 -52.735405 
L 132.97619 -52.735405 
L 131.85203 -52.735405 
L 130.72787 -52.735405 
L 129.603709 -52.735405 
L 128.479549 -52.735405 
L 127.355388 -52.735405 
L 126.231228 -52.735405 
L 125.107068 -52.735405 
L 123.982907 -52.735405 
L 122.858747 -52.735405 
L 121.734586 -52.735405 
L 120.610426 -52.735405 
L 119.486266 -52.735405 
L 118.362105 -52.735405 
L 117.237945 -52.735405 
L 116.113784 -52.735405 
L 114.989624 -52.735405 
L 113.865464 -52.735405 
L 112.741303 -52.735405 
L 111.617143 -52.735405 
L 110.492982 -52.735405 
L 109.368822 -52.735405 
L 108.244662 -52.735405 
L 107.120501 -52.735405 
L 105.996341 -52.735405 
L 104.87218 -52.735405 
L 103.74802 -52.735405 
L 102.62386 -52.735405 
L 101.499699 -52.735405 
L 100.375539 -52.735405 
L 99.251378 -52.735405 
L 98.127218 -52.735405 
L 97.003058 -52.735405 
L 95.878897 -52.735405 
L 94.754737 -52.735405 
L 93.630576 -52.735405 
L 92.506416 -52.735405 
L 91.382256 -52.735405 
L 90.258095 -52.735405 
L 89.133935 -52.735405 
L 88.009774 -52.735405 
L 86.885614 -52.735405 
L 85.761454 -52.735405 
L 84.637293 -52.735405 
L 83.513133 -52.735405 
L 82.388972 -52.735405 
L 81.264812 -52.735405 
L 80.140652 -52.735405 
L 79.016491 -52.735405 
L 77.892331 -52.735405 
L 76.76817 -52.735405 
L 75.64401 -52.735405 
L 74.51985 -52.735405 
L 73.395689 -52.735405 
L 72.271529 -52.735405 
L 71.147368 -52.735405 
L 70.023208 -52.735405 
L 68.899048 -52.735405 
L 67.774887 -52.735405 
L 66.650727 -52.735405 
L 65.526566 -52.735405 
L 64.402406 -52.735405 
L 63.278246 -52.735405 
L 62.154085 -52.735405 
L 61.029925 -52.735405 
L 59.905764 -52.735405 
L 58.781604 -52.735405 
L 57.657444 -52.735405 
L 56.533283 -52.735405 
L 55.409123 -52.735405 
L 54.284962 -52.735405 
L 53.160802 -52.735405 
L 52.036642 -52.735405 
L 50.912481 -52.735405 
L 49.788321 -52.735405 
L 48.66416 -52.735405 
L 47.54 -52.735405 
z
" style="stroke: #41607f; stroke-opacity: 0.12"/>
    </defs>
    <g clip-path="url(#p36fa4fd1b2)">
     <use xlink:href="#me53da98b3a" x="0" y="316.8" style="fill: #41607f; fill-opacity: 0.12; stroke: #41607f; stroke-opacity: 0.12"/>
    </g>
   </g>
   <g id="line2d_33">
    <path d="M 47.54 264.064595 
L 111.617143 264.064595 
L 453.361905 65.934865 
L 496.08 65.934865 
L 496.08 65.934865 
" clip-path="url(#p36fa4fd1b2)" style="fill: none; stroke: #1f3a5f; stroke-width: 2.6; stroke-linecap: square"/>
   </g>
   <g id="line2d_34">
    <path d="M 111.617143 272.32 
L 111.617143 27.96 
" clip-path="url(#p36fa4fd1b2)" style="fill: none; stroke-dasharray: 0.9,1.485; stroke-dashoffset: 0; stroke: #8a99a8; stroke-width: 0.9"/>
   </g>
   <g id="line2d_35">
    <path d="M 111.617143 272.32 
L 111.617143 27.96 
" clip-path="url(#p36fa4fd1b2)" style="fill: none; stroke: #41607f; stroke-width: 0.8; stroke-linecap: square"/>
   </g>
   <g id="line2d_36">
    <path d="M 47.54 65.934865 
L 496.08 65.934865 
" clip-path="url(#p36fa4fd1b2)" style="fill: none; stroke-dasharray: 4,3; stroke-dashoffset: 0; stroke: #c8553d"/>
   </g>
   <g id="line2d_37">
    <path d="M 47.54 264.064595 
L 496.08 264.064595 
" clip-path="url(#p36fa4fd1b2)" style="fill: none; stroke-dasharray: 1,1.65; stroke-dashoffset: 0; stroke: #c8902d"/>
   </g>
   <g id="patch_3">
    <path d="M 47.54 272.32 
L 47.54 27.96 
" style="fill: none; stroke: #41607f; stroke-width: 0.8; stroke-linejoin: miter; stroke-linecap: square"/>
   </g>
   <g id="patch_4">
    <path d="M 496.08 272.32 
L 496.08 27.96 
" style="fill: none; stroke: #41607f; stroke-width: 0.8; stroke-linejoin: miter; stroke-linecap: square"/>
   </g>
   <g id="patch_5">
    <path d="M 47.54 272.32 
L 496.08 272.32 
" style="fill: none; stroke: #41607f; stroke-width: 0.8; stroke-linejoin: miter; stroke-linecap: square"/>
   </g>
   <g id="patch_6">
    <path d="M 47.54 27.96 
L 496.08 27.96 
" style="fill: none; stroke: #41607f; stroke-width: 0.8; stroke-linejoin: miter; stroke-linecap: square"/>
   </g>
   <g id="text_19">
    <text style="font-size: 8px; font-family: 'DejaVu Sans'; text-anchor: start; fill: #8a99a8" x="116.743314" y="259.111351" transform="rotate(-0 116.743314 259.111351)">Kink @ 0bp</text>
   </g>
   <g id="text_20">
    <text style="font-size: 8px; font-family: 'DejaVu Sans'; text-anchor: end; fill: #c8553d" x="490.953829" y="62.632703" transform="rotate(-0 490.953829 62.632703)">Cap 12%</text>
   </g>
   <g id="text_21">
    <text style="font-size: 8px; font-family: 'DejaVu Sans'; text-anchor: start; fill: #c8902d" x="52.666171" y="260.762432" transform="rotate(-0 52.666171 260.762432)">Floor 0%</text>
   </g>
   <g id="text_22">
    <text style="font-size: 9px; font-family: 'DejaVu Sans'; text-anchor: start; fill: #8a99a8" x="60.355429" y="164.99973" transform="rotate(-0 60.355429 164.99973)">Flatter ←</text>
   </g>
   <g id="text_23">
    <text style="font-size: 9px; font-family: 'DejaVu Sans'; text-anchor: end; fill: #8a99a8" x="483.264571" y="164.99973" transform="rotate(-0 483.264571 164.99973)">→ Steeper</text>
   </g>
   <g id="text_24">
    <text style="font-weight: 700; font-size: 13px; font-family: 'DejaVu Sans'; text-anchor: start; fill: #1f3a5f" x="47.54" y="21.96" transform="rotate(-0 47.54 21.96)">Callable Steepener Coupon vs Curve Slope — Investor Lens</text>
   </g>
   <g id="legend_1">
    <g id="line2d_38">
     <path d="M 55.19 39.093672 
L 63.69 39.093672 
L 72.19 39.093672 
" style="fill: none; stroke: #1f3a5f; stroke-width: 2.6; stroke-linecap: square"/>
    </g>
    <g id="text_25">
     <text style="font-size: 8.5px; font-family: 'DejaVu Sans'; text-anchor: start; fill: #1f3a5f" x="78.99" y="42.068672" transform="rotate(-0 78.99 42.068672)">Coupon = 4.5 × max(0, slope − 0bp)</text>
    </g>
   </g>
  </g>
 </g>
 <defs>
  <clipPath id="p36fa4fd1b2">
   <rect x="47.54" y="27.96" width="448.54" height="244.36"/>
  </clipPath>
 </defs>
</svg>
