<svg xmlns="http://www.w3.org/2000/svg" viewBox="0 0 880 540" font-family="DejaVu Sans, Arial, sans-serif">
<rect x="0" y="0" width="880" height="540" fill="white"/>
<text x="24" y="34" font-size="17" font-weight="bold" fill="#1f3a5f">DIGITALKI Reconciliation Flow — Bank Lens (Controls &amp; 2LoD)</text>
<text x="24" y="54" font-size="11" fill="#41607f">Points that must agree across systems before settlement. Highlighted row = most common break.</text>
<rect x="60" y="74" width="190" height="34" rx="6" fill="#1f3a5f"/>
<text x="155" y="96" font-size="12" fill="white" text-anchor="middle" font-weight="bold">NEMO · Book of Record</text>
<rect x="630" y="74" width="190" height="34" rx="6" fill="#41607f"/>
<text x="725" y="96" font-size="12" fill="white" text-anchor="middle" font-weight="bold">Sophis · Risk</text>
<text x="440" y="96" font-size="12" fill="#1f3a5f" text-anchor="middle" font-weight="bold">must reconcile</text>
<line x1="155" y1="112" x2="155" y2="450" stroke="#8a99a8" stroke-width="1" stroke-dasharray="3,3"/>
<line x1="725" y1="112" x2="725" y2="450" stroke="#8a99a8" stroke-width="1" stroke-dasharray="3,3"/>
<line x1="155" y1="142" x2="725" y2="142" stroke="#41607f" stroke-width="1"/>
<circle cx="155" cy="142" r="4" fill="#1f3a5f"/>
<circle cx="725" cy="142" r="4" fill="#41607f"/>
<rect x="280" y="126" width="320" height="32" rx="6" fill="#f7f3ec" stroke="#41607f" stroke-width="1"/>
<text x="292" y="140" font-size="11.5" font-weight="bold" fill="#1f3a5f">1. Trade economics</text>
<text x="292" y="153" font-size="9" fill="#41607f">Notional, initial level, all three barriers and convention (% vs absolute), coupon rate &amp; frequency, maturity, underlying ID agree across NEMO and Sophis</text>
<line x1="155" y1="182" x2="725" y2="182" stroke="#c8553d" stroke-width="1.6"/>
<circle cx="155" cy="182" r="4" fill="#1f3a5f"/>
<circle cx="725" cy="182" r="4" fill="#41607f"/>
<rect x="280" y="166" width="320" height="32" rx="6" fill="#fbe7e2" stroke="#c8553d" stroke-width="1.5"/>
<text x="292" y="180" font-size="11.5" font-weight="bold" fill="#1f3a5f">2. Digital coupon strike</text>
<text x="292" y="193" font-size="9" fill="#41607f">The 70% digital strike (=$42) agrees across systems; convention error fires the binary coupon on the wrong side of the cliff</text>
<rect x="606" y="169" width="150" height="26" rx="13" fill="#c8553d"/>
<text x="681" y="186" font-size="9" fill="white" text-anchor="middle" font-weight="bold">digital strike convention flip</text>
<line x1="155" y1="222" x2="725" y2="222" stroke="#41607f" stroke-width="1"/>
<circle cx="155" cy="222" r="4" fill="#1f3a5f"/>
<circle cx="725" cy="222" r="4" fill="#41607f"/>
<rect x="280" y="206" width="320" height="32" rx="6" fill="#f7f3ec" stroke="#41607f" stroke-width="1"/>
<text x="292" y="220" font-size="11.5" font-weight="bold" fill="#1f3a5f">3. Capital (KI) barrier</text>
<text x="292" y="233" font-size="9" fill="#41607f">The 60% knock-in barrier (=$36), European observation; mis-stored value drives wrong maturity redemption</text>
<line x1="155" y1="262" x2="725" y2="262" stroke="#41607f" stroke-width="1"/>
<circle cx="155" cy="262" r="4" fill="#1f3a5f"/>
<circle cx="725" cy="262" r="4" fill="#41607f"/>
<rect x="280" y="246" width="320" height="32" rx="6" fill="#f7f3ec" stroke="#41607f" stroke-width="1"/>
<text x="292" y="260" font-size="11.5" font-weight="bold" fill="#1f3a5f">4. Autocall barrier &amp; no-call period</text>
<text x="292" y="273" font-size="9" fill="#41607f">100% autocall level and eligibility from Q5 consistent; wrong level or window triggers spurious early termination</text>
<line x1="155" y1="302" x2="725" y2="302" stroke="#41607f" stroke-width="1"/>
<circle cx="155" cy="302" r="4" fill="#1f3a5f"/>
<circle cx="725" cy="302" r="4" fill="#41607f"/>
<rect x="280" y="286" width="320" height="32" rx="6" fill="#f7f3ec" stroke="#41607f" stroke-width="1"/>
<text x="292" y="300" font-size="11.5" font-weight="bold" fill="#1f3a5f">5. Observation sequence</text>
<text x="292" y="313" font-size="9" fill="#41607f">Autocall checked before the digital coupon on each eligible date; reversed order pays a coupon on a terminated note</text>
<line x1="155" y1="342" x2="725" y2="342" stroke="#41607f" stroke-width="1"/>
<circle cx="155" cy="342" r="4" fill="#1f3a5f"/>
<circle cx="725" cy="342" r="4" fill="#41607f"/>
<rect x="280" y="326" width="320" height="32" rx="6" fill="#f7f3ec" stroke="#41607f" stroke-width="1"/>
<text x="292" y="340" font-size="11.5" font-weight="bold" fill="#1f3a5f">6. Fixings</text>
<text x="292" y="353" font-size="9" fill="#41607f">Initial and each observation/final fixing source matches the termsheet; vendor mismatch flips a binary outcome</text>
<line x1="155" y1="382" x2="725" y2="382" stroke="#41607f" stroke-width="1"/>
<circle cx="155" cy="382" r="4" fill="#1f3a5f"/>
<circle cx="725" cy="382" r="4" fill="#41607f"/>
<rect x="280" y="366" width="320" height="32" rx="6" fill="#f7f3ec" stroke="#41607f" stroke-width="1"/>
<text x="292" y="380" font-size="11.5" font-weight="bold" fill="#1f3a5f">7. Binary settle / coupon capture</text>
<text x="292" y="393" font-size="9" fill="#41607f">Each digital paid/zero result, the autocall flag, and the maturity capital-barrier result captured consistently; no-memory logic not applied as catch-up</text>
<line x1="155" y1="422" x2="725" y2="422" stroke="#41607f" stroke-width="1"/>
<circle cx="155" cy="422" r="4" fill="#1f3a5f"/>
<circle cx="725" cy="422" r="4" fill="#41607f"/>
<rect x="280" y="406" width="320" height="32" rx="6" fill="#f7f3ec" stroke="#41607f" stroke-width="1"/>
<text x="292" y="420" font-size="11.5" font-weight="bold" fill="#1f3a5f">8. P&amp;L attribution</text>
<text x="292" y="433" font-size="9" fill="#41607f">Note accrual + put MTM + digital portfolio MTM reconciles to total; unexplained P&amp;L flags stale vol, wrong fixing, or mis-captured binary settle</text>
<defs><marker id="a" markerWidth="8" markerHeight="8" refX="6" refY="3" orient="auto"><path d="M0,0 L6,3 L0,6 Z" fill="#8a99a8"/></marker></defs>
<line x1="440" y1="450" x2="440" y2="468" stroke="#8a99a8" stroke-width="1.4" marker-end="url(#a)"/>
<rect x="280" y="468" width="320" height="40" rx="6" fill="#1f3a5f"/>
<text x="440" y="485" font-size="11.5" fill="white" text-anchor="middle" font-weight="bold">Downstream · Settlement</text>
<text x="440" y="500" font-size="9" fill="#eef2f6" text-anchor="middle">a break here crystallises the wrong redemption / client payout</text>
</svg>