<?xml version="1.0" encoding="utf-8" standalone="no"?>
<!DOCTYPE svg PUBLIC "-//W3C//DTD SVG 1.1//EN"
  "http://www.w3.org/Graphics/SVG/1.1/DTD/svg11.dtd">
<svg xmlns:xlink="http://www.w3.org/1999/xlink" width="518.4pt" height="316.8pt" viewBox="0 0 518.4 316.8" xmlns="http://www.w3.org/2000/svg" version="1.1">
 <metadata>
  <rdf:RDF xmlns:dc="http://purl.org/dc/elements/1.1/" xmlns:cc="http://creativecommons.org/ns#" xmlns:rdf="http://www.w3.org/1999/02/22-rdf-syntax-ns#">
   <cc:Work>
    <dc:type rdf:resource="http://purl.org/dc/dcmitype/StillImage"/>
    <dc:date>2026-06-27T19:40:47.445037</dc:date>
    <dc:format>image/svg+xml</dc:format>
    <dc:creator>
     <cc:Agent>
      <dc:title>Matplotlib v3.10.9, https://matplotlib.org/</dc:title>
     </cc:Agent>
    </dc:creator>
   </cc:Work>
  </rdf:RDF>
 </metadata>
 <defs>
  <style type="text/css">*{stroke-linejoin: round; stroke-linecap: butt}</style>
 </defs>
 <g id="figure_1">
  <g id="patch_1">
   <path d="M 0 316.8 
L 518.4 316.8 
L 518.4 0 
L 0 0 
z
" style="fill: #ffffff"/>
  </g>
  <g id="axes_1">
   <g id="patch_2">
    <path d="M 51.14 272.32 
L 494.37 272.32 
L 494.37 27.96 
L 51.14 27.96 
z
" style="fill: #ffffff"/>
   </g>
   <g id="matplotlib.axis_1">
    <g id="xtick_1">
     <g id="line2d_1">
      <path d="M 51.14 272.32 
L 51.14 27.96 
" clip-path="url(#p9dedc956e7)" style="fill: none; stroke: #eef2f6; stroke-linecap: square"/>
     </g>
     <g id="line2d_2">
      <defs>
       <path id="m61bb91dea9" d="M 0 0 
L 0 3.5 
" style="stroke: #41607f; stroke-width: 0.8"/>
      </defs>
      <g>
       <use xlink:href="#m61bb91dea9" x="51.14" y="272.32" style="fill: #41607f; stroke: #41607f; stroke-width: 0.8"/>
      </g>
     </g>
     <g id="text_1">
      <text style="font-size: 11px; font-family: 'DejaVu Sans'; text-anchor: middle; fill: #41607f" x="51.14" y="287.678281" transform="rotate(-0 51.14 287.678281)">0.00</text>
     </g>
    </g>
    <g id="xtick_2">
     <g id="line2d_3">
      <path d="M 161.9475 272.32 
L 161.9475 27.96 
" clip-path="url(#p9dedc956e7)" style="fill: none; stroke: #eef2f6; stroke-linecap: square"/>
     </g>
     <g id="line2d_4">
      <g>
       <use xlink:href="#m61bb91dea9" x="161.9475" y="272.32" style="fill: #41607f; stroke: #41607f; stroke-width: 0.8"/>
      </g>
     </g>
     <g id="text_2">
      <text style="font-size: 11px; font-family: 'DejaVu Sans'; text-anchor: middle; fill: #41607f" x="161.9475" y="287.678281" transform="rotate(-0 161.9475 287.678281)">0.25</text>
     </g>
    </g>
    <g id="xtick_3">
     <g id="line2d_5">
      <path d="M 272.755 272.32 
L 272.755 27.96 
" clip-path="url(#p9dedc956e7)" style="fill: none; stroke: #eef2f6; stroke-linecap: square"/>
     </g>
     <g id="line2d_6">
      <g>
       <use xlink:href="#m61bb91dea9" x="272.755" y="272.32" style="fill: #41607f; stroke: #41607f; stroke-width: 0.8"/>
      </g>
     </g>
     <g id="text_3">
      <text style="font-size: 11px; font-family: 'DejaVu Sans'; text-anchor: middle; fill: #41607f" x="272.755" y="287.678281" transform="rotate(-0 272.755 287.678281)">0.50</text>
     </g>
    </g>
    <g id="xtick_4">
     <g id="line2d_7">
      <path d="M 383.5625 272.32 
L 383.5625 27.96 
" clip-path="url(#p9dedc956e7)" style="fill: none; stroke: #eef2f6; stroke-linecap: square"/>
     </g>
     <g id="line2d_8">
      <g>
       <use xlink:href="#m61bb91dea9" x="383.5625" y="272.32" style="fill: #41607f; stroke: #41607f; stroke-width: 0.8"/>
      </g>
     </g>
     <g id="text_4">
      <text style="font-size: 11px; font-family: 'DejaVu Sans'; text-anchor: middle; fill: #41607f" x="383.5625" y="287.678281" transform="rotate(-0 383.5625 287.678281)">0.75</text>
     </g>
    </g>
    <g id="xtick_5">
     <g id="line2d_9">
      <path d="M 494.37 272.32 
L 494.37 27.96 
" clip-path="url(#p9dedc956e7)" style="fill: none; stroke: #eef2f6; stroke-linecap: square"/>
     </g>
     <g id="line2d_10">
      <g>
       <use xlink:href="#m61bb91dea9" x="494.37" y="272.32" style="fill: #41607f; stroke: #41607f; stroke-width: 0.8"/>
      </g>
     </g>
     <g id="text_5">
      <text style="font-size: 11px; font-family: 'DejaVu Sans'; text-anchor: middle; fill: #41607f" x="494.37" y="287.678281" transform="rotate(-0 494.37 287.678281)">1.00</text>
     </g>
    </g>
    <g id="text_6">
     <text style="font-size: 11px; font-family: 'DejaVu Sans'; text-anchor: middle; fill: #1f3a5f" x="272.755" y="302.324219" transform="rotate(-0 272.755 302.324219)">Default correlation  ρ</text>
    </g>
   </g>
   <g id="matplotlib.axis_2">
    <g id="ytick_1">
     <g id="line2d_11">
      <path d="M 51.14 272.32 
L 494.37 272.32 
" clip-path="url(#p9dedc956e7)" style="fill: none; stroke: #eef2f6; stroke-linecap: square"/>
     </g>
     <g id="line2d_12">
      <defs>
       <path id="m1921741c4c" d="M 0 0 
L -3.5 0 
" style="stroke: #41607f; stroke-width: 0.8"/>
      </defs>
      <g>
       <use xlink:href="#m1921741c4c" x="51.14" y="272.32" style="fill: #41607f; stroke: #41607f; stroke-width: 0.8"/>
      </g>
     </g>
     <g id="text_7">
      <text style="font-size: 11px; font-family: 'DejaVu Sans'; text-anchor: end; fill: #41607f" x="44.14" y="276.499141" transform="rotate(-0 44.14 276.499141)">0.0</text>
     </g>
    </g>
    <g id="ytick_2">
     <g id="line2d_13">
      <path d="M 51.14 227.890909 
L 494.37 227.890909 
" clip-path="url(#p9dedc956e7)" style="fill: none; stroke: #eef2f6; stroke-linecap: square"/>
     </g>
     <g id="line2d_14">
      <g>
       <use xlink:href="#m1921741c4c" x="51.14" y="227.890909" style="fill: #41607f; stroke: #41607f; stroke-width: 0.8"/>
      </g>
     </g>
     <g id="text_8">
      <text style="font-size: 11px; font-family: 'DejaVu Sans'; text-anchor: end; fill: #41607f" x="44.14" y="232.07005" transform="rotate(-0 44.14 232.07005)">0.2</text>
     </g>
    </g>
    <g id="ytick_3">
     <g id="line2d_15">
      <path d="M 51.14 183.461818 
L 494.37 183.461818 
" clip-path="url(#p9dedc956e7)" style="fill: none; stroke: #eef2f6; stroke-linecap: square"/>
     </g>
     <g id="line2d_16">
      <g>
       <use xlink:href="#m1921741c4c" x="51.14" y="183.461818" style="fill: #41607f; stroke: #41607f; stroke-width: 0.8"/>
      </g>
     </g>
     <g id="text_9">
      <text style="font-size: 11px; font-family: 'DejaVu Sans'; text-anchor: end; fill: #41607f" x="44.14" y="187.640959" transform="rotate(-0 44.14 187.640959)">0.4</text>
     </g>
    </g>
    <g id="ytick_4">
     <g id="line2d_17">
      <path d="M 51.14 139.032727 
L 494.37 139.032727 
" clip-path="url(#p9dedc956e7)" style="fill: none; stroke: #eef2f6; stroke-linecap: square"/>
     </g>
     <g id="line2d_18">
      <g>
       <use xlink:href="#m1921741c4c" x="51.14" y="139.032727" style="fill: #41607f; stroke: #41607f; stroke-width: 0.8"/>
      </g>
     </g>
     <g id="text_10">
      <text style="font-size: 11px; font-family: 'DejaVu Sans'; text-anchor: end; fill: #41607f" x="44.14" y="143.211868" transform="rotate(-0 44.14 143.211868)">0.6</text>
     </g>
    </g>
    <g id="ytick_5">
     <g id="line2d_19">
      <path d="M 51.14 94.603636 
L 494.37 94.603636 
" clip-path="url(#p9dedc956e7)" style="fill: none; stroke: #eef2f6; stroke-linecap: square"/>
     </g>
     <g id="line2d_20">
      <g>
       <use xlink:href="#m1921741c4c" x="51.14" y="94.603636" style="fill: #41607f; stroke: #41607f; stroke-width: 0.8"/>
      </g>
     </g>
     <g id="text_11">
      <text style="font-size: 11px; font-family: 'DejaVu Sans'; text-anchor: end; fill: #41607f" x="44.14" y="98.782777" transform="rotate(-0 44.14 98.782777)">0.8</text>
     </g>
    </g>
    <g id="ytick_6">
     <g id="line2d_21">
      <path d="M 51.14 50.174545 
L 494.37 50.174545 
" clip-path="url(#p9dedc956e7)" style="fill: none; stroke: #eef2f6; stroke-linecap: square"/>
     </g>
     <g id="line2d_22">
      <g>
       <use xlink:href="#m1921741c4c" x="51.14" y="50.174545" style="fill: #41607f; stroke: #41607f; stroke-width: 0.8"/>
      </g>
     </g>
     <g id="text_12">
      <text style="font-size: 11px; font-family: 'DejaVu Sans'; text-anchor: end; fill: #41607f" x="44.14" y="54.353686" transform="rotate(-0 44.14 54.353686)">1.0</text>
     </g>
    </g>
    <g id="text_13">
     <text style="font-size: 11px; font-family: 'DejaVu Sans'; text-anchor: middle; fill: #1f3a5f" x="20.358906" y="150.14" transform="rotate(-90 20.358906 150.14)">Position risk / expected loss (relative)</text>
    </g>
   </g>
   <g id="FillBetweenPolyCollection_1">
    <defs>
     <path id="m4fc7806234" d="M 51.14 -44.48 
L 51.14 -255.518182 
L 53.367286 -254.625135 
L 55.594573 -253.732088 
L 57.821859 -252.839041 
L 60.049146 -251.945994 
L 62.276432 -251.052947 
L 64.503719 -250.159899 
L 66.731005 -249.266852 
L 68.958291 -248.373805 
L 71.185578 -247.480758 
L 73.412864 -246.587711 
L 75.640151 -245.694664 
L 77.867437 -244.801617 
L 80.094724 -243.90857 
L 82.32201 -243.015523 
L 84.549296 -242.122476 
L 86.776583 -241.229429 
L 89.003869 -240.336382 
L 91.231156 -239.443335 
L 93.458442 -238.550288 
L 95.685729 -237.657241 
L 97.913015 -236.764194 
L 100.140302 -235.871147 
L 102.367588 -234.9781 
L 104.594874 -234.085053 
L 106.822161 -233.192005 
L 109.049447 -232.298958 
L 111.276734 -231.405911 
L 113.50402 -230.512864 
L 115.731307 -229.619817 
L 117.958593 -228.72677 
L 120.185879 -227.833723 
L 122.413166 -226.940676 
L 124.640452 -226.047629 
L 126.867739 -225.154582 
L 129.095025 -224.261535 
L 131.322312 -223.368488 
L 133.549598 -222.475441 
L 135.776884 -221.582394 
L 138.004171 -220.689347 
L 140.231457 -219.7963 
L 142.458744 -218.903253 
L 144.68603 -218.010206 
L 146.913317 -217.117159 
L 149.140603 -216.224111 
L 151.367889 -215.331064 
L 153.595176 -214.438017 
L 155.822462 -213.54497 
L 158.049749 -212.651923 
L 160.277035 -211.758876 
L 162.504322 -210.865829 
L 164.731608 -209.972782 
L 166.958894 -209.079735 
L 169.186181 -208.186688 
L 171.413467 -207.293641 
L 173.640754 -206.400594 
L 175.86804 -205.507547 
L 178.095327 -204.6145 
L 180.322613 -203.721453 
L 182.549899 -202.828406 
L 184.777186 -201.935359 
L 187.004472 -201.042312 
L 189.231759 -200.149265 
L 191.459045 -199.256217 
L 193.686332 -198.36317 
L 195.913618 -197.470123 
L 198.140905 -196.577076 
L 200.368191 -195.684029 
L 202.595477 -194.790982 
L 204.822764 -193.897935 
L 207.05005 -193.004888 
L 209.277337 -192.111841 
L 211.504623 -191.218794 
L 213.73191 -190.325747 
L 215.959196 -189.4327 
L 218.186482 -188.539653 
L 220.413769 -187.646606 
L 222.641055 -186.753559 
L 224.868342 -185.860512 
L 227.095628 -184.967465 
L 229.322915 -184.074418 
L 231.550201 -183.18137 
L 233.777487 -182.288323 
L 236.004774 -181.395276 
L 238.23206 -180.502229 
L 240.459347 -179.609182 
L 242.686633 -178.716135 
L 244.91392 -177.823088 
L 247.141206 -176.930041 
L 249.368492 -176.036994 
L 251.595779 -175.143947 
L 253.823065 -174.2509 
L 256.050352 -173.357853 
L 258.277638 -172.464806 
L 260.504925 -171.571759 
L 262.732211 -170.678712 
L 264.959497 -169.785665 
L 267.186784 -168.892618 
L 269.41407 -167.999571 
L 271.641357 -167.106524 
L 273.868643 -166.213476 
L 276.09593 -165.320429 
L 278.323216 -164.427382 
L 280.550503 -163.534335 
L 282.777789 -162.641288 
L 285.005075 -161.748241 
L 287.232362 -160.855194 
L 289.459648 -159.962147 
L 291.686935 -159.0691 
L 293.914221 -158.176053 
L 296.141508 -157.283006 
L 298.368794 -156.389959 
L 300.59608 -155.496912 
L 302.823367 -154.603865 
L 305.050653 -153.710818 
L 307.27794 -152.817771 
L 309.505226 -151.924724 
L 311.732513 -151.031677 
L 313.959799 -150.13863 
L 316.187085 -149.245582 
L 318.414372 -148.352535 
L 320.641658 -147.459488 
L 322.868945 -146.566441 
L 325.096231 -145.673394 
L 327.323518 -144.780347 
L 329.550804 -143.8873 
L 331.77809 -142.994253 
L 334.005377 -142.101206 
L 336.232663 -141.208159 
L 338.45995 -140.315112 
L 340.687236 -139.422065 
L 342.914523 -138.529018 
L 345.141809 -137.635971 
L 347.369095 -136.742924 
L 349.596382 -135.849877 
L 351.823668 -134.95683 
L 354.050955 -134.063783 
L 356.278241 -133.170735 
L 358.505528 -132.277688 
L 360.732814 -131.384641 
L 362.960101 -130.491594 
L 365.187387 -129.598547 
L 367.414673 -128.7055 
L 369.64196 -127.812453 
L 371.869246 -126.919406 
L 374.096533 -126.026359 
L 376.323819 -125.133312 
L 378.551106 -124.240265 
L 380.778392 -123.347218 
L 383.005678 -122.454171 
L 385.232965 -121.561124 
L 387.460251 -120.668077 
L 389.687538 -119.77503 
L 391.914824 -118.881983 
L 394.142111 -117.988936 
L 396.369397 -117.095889 
L 398.596683 -116.202841 
L 400.82397 -115.309794 
L 403.051256 -114.416747 
L 405.278543 -113.5237 
L 407.505829 -112.630653 
L 409.733116 -111.737606 
L 411.960402 -110.844559 
L 414.187688 -109.951512 
L 416.414975 -109.058465 
L 418.642261 -108.165418 
L 420.869548 -107.272371 
L 423.096834 -106.379324 
L 425.324121 -105.486277 
L 427.551407 -104.59323 
L 429.778693 -103.700183 
L 432.00598 -102.807136 
L 434.233266 -101.914089 
L 436.460553 -101.021042 
L 438.687839 -100.127995 
L 440.915126 -99.234947 
L 443.142412 -98.3419 
L 445.369698 -97.448853 
L 447.596985 -96.555806 
L 449.824271 -95.662759 
L 452.051558 -94.769712 
L 454.278844 -93.876665 
L 456.506131 -92.983618 
L 458.733417 -92.090571 
L 460.960704 -91.197524 
L 463.18799 -90.304477 
L 465.415276 -89.41143 
L 467.642563 -88.518383 
L 469.869849 -87.625336 
L 472.097136 -86.732289 
L 474.324422 -85.839242 
L 476.551709 -84.946195 
L 478.778995 -84.053148 
L 481.006281 -83.160101 
L 483.233568 -82.267053 
L 485.460854 -81.374006 
L 487.688141 -80.480959 
L 489.915427 -79.587912 
L 492.142714 -78.694865 
L 494.37 -77.801818 
L 494.37 -44.48 
L 494.37 -44.48 
L 492.142714 -44.48 
L 489.915427 -44.48 
L 487.688141 -44.48 
L 485.460854 -44.48 
L 483.233568 -44.48 
L 481.006281 -44.48 
L 478.778995 -44.48 
L 476.551709 -44.48 
L 474.324422 -44.48 
L 472.097136 -44.48 
L 469.869849 -44.48 
L 467.642563 -44.48 
L 465.415276 -44.48 
L 463.18799 -44.48 
L 460.960704 -44.48 
L 458.733417 -44.48 
L 456.506131 -44.48 
L 454.278844 -44.48 
L 452.051558 -44.48 
L 449.824271 -44.48 
L 447.596985 -44.48 
L 445.369698 -44.48 
L 443.142412 -44.48 
L 440.915126 -44.48 
L 438.687839 -44.48 
L 436.460553 -44.48 
L 434.233266 -44.48 
L 432.00598 -44.48 
L 429.778693 -44.48 
L 427.551407 -44.48 
L 425.324121 -44.48 
L 423.096834 -44.48 
L 420.869548 -44.48 
L 418.642261 -44.48 
L 416.414975 -44.48 
L 414.187688 -44.48 
L 411.960402 -44.48 
L 409.733116 -44.48 
L 407.505829 -44.48 
L 405.278543 -44.48 
L 403.051256 -44.48 
L 400.82397 -44.48 
L 398.596683 -44.48 
L 396.369397 -44.48 
L 394.142111 -44.48 
L 391.914824 -44.48 
L 389.687538 -44.48 
L 387.460251 -44.48 
L 385.232965 -44.48 
L 383.005678 -44.48 
L 380.778392 -44.48 
L 378.551106 -44.48 
L 376.323819 -44.48 
L 374.096533 -44.48 
L 371.869246 -44.48 
L 369.64196 -44.48 
L 367.414673 -44.48 
L 365.187387 -44.48 
L 362.960101 -44.48 
L 360.732814 -44.48 
L 358.505528 -44.48 
L 356.278241 -44.48 
L 354.050955 -44.48 
L 351.823668 -44.48 
L 349.596382 -44.48 
L 347.369095 -44.48 
L 345.141809 -44.48 
L 342.914523 -44.48 
L 340.687236 -44.48 
L 338.45995 -44.48 
L 336.232663 -44.48 
L 334.005377 -44.48 
L 331.77809 -44.48 
L 329.550804 -44.48 
L 327.323518 -44.48 
L 325.096231 -44.48 
L 322.868945 -44.48 
L 320.641658 -44.48 
L 318.414372 -44.48 
L 316.187085 -44.48 
L 313.959799 -44.48 
L 311.732513 -44.48 
L 309.505226 -44.48 
L 307.27794 -44.48 
L 305.050653 -44.48 
L 302.823367 -44.48 
L 300.59608 -44.48 
L 298.368794 -44.48 
L 296.141508 -44.48 
L 293.914221 -44.48 
L 291.686935 -44.48 
L 289.459648 -44.48 
L 287.232362 -44.48 
L 285.005075 -44.48 
L 282.777789 -44.48 
L 280.550503 -44.48 
L 278.323216 -44.48 
L 276.09593 -44.48 
L 273.868643 -44.48 
L 271.641357 -44.48 
L 269.41407 -44.48 
L 267.186784 -44.48 
L 264.959497 -44.48 
L 262.732211 -44.48 
L 260.504925 -44.48 
L 258.277638 -44.48 
L 256.050352 -44.48 
L 253.823065 -44.48 
L 251.595779 -44.48 
L 249.368492 -44.48 
L 247.141206 -44.48 
L 244.91392 -44.48 
L 242.686633 -44.48 
L 240.459347 -44.48 
L 238.23206 -44.48 
L 236.004774 -44.48 
L 233.777487 -44.48 
L 231.550201 -44.48 
L 229.322915 -44.48 
L 227.095628 -44.48 
L 224.868342 -44.48 
L 222.641055 -44.48 
L 220.413769 -44.48 
L 218.186482 -44.48 
L 215.959196 -44.48 
L 213.73191 -44.48 
L 211.504623 -44.48 
L 209.277337 -44.48 
L 207.05005 -44.48 
L 204.822764 -44.48 
L 202.595477 -44.48 
L 200.368191 -44.48 
L 198.140905 -44.48 
L 195.913618 -44.48 
L 193.686332 -44.48 
L 191.459045 -44.48 
L 189.231759 -44.48 
L 187.004472 -44.48 
L 184.777186 -44.48 
L 182.549899 -44.48 
L 180.322613 -44.48 
L 178.095327 -44.48 
L 175.86804 -44.48 
L 173.640754 -44.48 
L 171.413467 -44.48 
L 169.186181 -44.48 
L 166.958894 -44.48 
L 164.731608 -44.48 
L 162.504322 -44.48 
L 160.277035 -44.48 
L 158.049749 -44.48 
L 155.822462 -44.48 
L 153.595176 -44.48 
L 151.367889 -44.48 
L 149.140603 -44.48 
L 146.913317 -44.48 
L 144.68603 -44.48 
L 142.458744 -44.48 
L 140.231457 -44.48 
L 138.004171 -44.48 
L 135.776884 -44.48 
L 133.549598 -44.48 
L 131.322312 -44.48 
L 129.095025 -44.48 
L 126.867739 -44.48 
L 124.640452 -44.48 
L 122.413166 -44.48 
L 120.185879 -44.48 
L 117.958593 -44.48 
L 115.731307 -44.48 
L 113.50402 -44.48 
L 111.276734 -44.48 
L 109.049447 -44.48 
L 106.822161 -44.48 
L 104.594874 -44.48 
L 102.367588 -44.48 
L 100.140302 -44.48 
L 97.913015 -44.48 
L 95.685729 -44.48 
L 93.458442 -44.48 
L 91.231156 -44.48 
L 89.003869 -44.48 
L 86.776583 -44.48 
L 84.549296 -44.48 
L 82.32201 -44.48 
L 80.094724 -44.48 
L 77.867437 -44.48 
L 75.640151 -44.48 
L 73.412864 -44.48 
L 71.185578 -44.48 
L 68.958291 -44.48 
L 66.731005 -44.48 
L 64.503719 -44.48 
L 62.276432 -44.48 
L 60.049146 -44.48 
L 57.821859 -44.48 
L 55.594573 -44.48 
L 53.367286 -44.48 
L 51.14 -44.48 
z
" style="stroke: #2e7d5b; stroke-opacity: 0.1"/>
    </defs>
    <g clip-path="url(#p9dedc956e7)">
     <use xlink:href="#m4fc7806234" x="0" y="316.8" style="fill: #2e7d5b; fill-opacity: 0.1; stroke: #2e7d5b; stroke-opacity: 0.1"/>
    </g>
   </g>
   <g id="line2d_23">
    <path d="M 51.14 61.281818 
L 494.37 238.998182 
L 494.37 238.998182 
" clip-path="url(#p9dedc956e7)" style="fill: none; stroke: #2e7d5b; stroke-width: 2.8; stroke-linecap: square"/>
   </g>
   <g id="patch_3">
    <path d="M 51.14 272.32 
L 51.14 27.96 
" style="fill: none; stroke: #41607f; stroke-width: 0.8; stroke-linejoin: miter; stroke-linecap: square"/>
   </g>
   <g id="patch_4">
    <path d="M 494.37 272.32 
L 494.37 27.96 
" style="fill: none; stroke: #41607f; stroke-width: 0.8; stroke-linejoin: miter; stroke-linecap: square"/>
   </g>
   <g id="patch_5">
    <path d="M 51.14 272.32 
L 494.37 272.32 
" style="fill: none; stroke: #41607f; stroke-width: 0.8; stroke-linejoin: miter; stroke-linecap: square"/>
   </g>
   <g id="patch_6">
    <path d="M 51.14 27.96 
L 494.37 27.96 
" style="fill: none; stroke: #41607f; stroke-width: 0.8; stroke-linejoin: miter; stroke-linecap: square"/>
   </g>
   <g id="patch_7">
    <path d="M 327.797057 171.8739 
Q 392.428028 197.918391 455.399795 223.294269 
" style="fill: none; stroke: #2e7d5b; stroke-width: 1.6; stroke-linecap: round"/>
    <path d="M 452.140979 219.609148 
L 455.399795 223.294269 
L 450.496409 223.690249 
" style="fill: none; stroke: #2e7d5b; stroke-width: 1.6; stroke-linecap: round"/>
   </g>
   <g id="text_14">
    <text style="font-weight: 700; font-size: 13px; font-family: 'DejaVu Sans'; text-anchor: start; fill: #1f3a5f" x="51.14" y="21.96" transform="rotate(-0 51.14 21.96)">FTD Risk vs Default Correlation — Investor Lens</text>
   </g>
   <g id="legend_1">
    <g id="line2d_24">
     <path d="M 173.007578 39.748594 
L 182.007578 39.748594 
L 191.007578 39.748594 
" style="fill: none; stroke: #2e7d5b; stroke-width: 2.8; stroke-linecap: square"/>
    </g>
    <g id="text_15">
     <text style="font-size: 9px; font-family: 'DejaVu Sans'; text-anchor: start; fill: #1f3a5f" x="198.207578" y="42.898594" transform="rotate(-0 198.207578 42.898594)">LONG correlation — risk falls as ρ rises</text>
    </g>
   </g>
  </g>
 </g>
 <defs>
  <clipPath id="p9dedc956e7">
   <rect x="51.14" y="27.96" width="443.23" height="244.36"/>
  </clipPath>
 </defs>
</svg>
