<?xml version="1.0" encoding="utf-8" standalone="no"?>
<!DOCTYPE svg PUBLIC "-//W3C//DTD SVG 1.1//EN"
  "http://www.w3.org/Graphics/SVG/1.1/DTD/svg11.dtd">
<svg xmlns:xlink="http://www.w3.org/1999/xlink" width="518.4pt" height="316.8pt" viewBox="0 0 518.4 316.8" xmlns="http://www.w3.org/2000/svg" version="1.1">
 <metadata>
  <rdf:RDF xmlns:dc="http://purl.org/dc/elements/1.1/" xmlns:cc="http://creativecommons.org/ns#" xmlns:rdf="http://www.w3.org/1999/02/22-rdf-syntax-ns#">
   <cc:Work>
    <dc:type rdf:resource="http://purl.org/dc/dcmitype/StillImage"/>
    <dc:date>2026-06-27T17:44:41.368016</dc:date>
    <dc:format>image/svg+xml</dc:format>
    <dc:creator>
     <cc:Agent>
      <dc:title>Matplotlib v3.10.9, https://matplotlib.org/</dc:title>
     </cc:Agent>
    </dc:creator>
   </cc:Work>
  </rdf:RDF>
 </metadata>
 <defs>
  <style type="text/css">*{stroke-linejoin: round; stroke-linecap: butt}</style>
 </defs>
 <g id="figure_1">
  <g id="patch_1">
   <path d="M 0 316.8 
L 518.4 316.8 
L 518.4 0 
L 0 0 
z
" style="fill: #ffffff"/>
  </g>
  <g id="axes_1">
   <g id="patch_2">
    <path d="M 60.23 272.32 
L 499.59 272.32 
L 499.59 27.96 
L 60.23 27.96 
z
" style="fill: #ffffff"/>
   </g>
   <g id="matplotlib.axis_1">
    <g id="xtick_1">
     <g id="line2d_1">
      <path d="M 60.23 272.32 
L 60.23 27.96 
" clip-path="url(#pcbe3e6d2d3)" style="fill: none; stroke: #eef2f6; stroke-linecap: square"/>
     </g>
     <g id="line2d_2">
      <defs>
       <path id="mf223d4c1d9" d="M 0 0 
L 0 3.5 
" style="stroke: #41607f; stroke-width: 0.8"/>
      </defs>
      <g>
       <use xlink:href="#mf223d4c1d9" x="60.23" y="272.32" style="fill: #41607f; stroke: #41607f; stroke-width: 0.8"/>
      </g>
     </g>
     <g id="text_1">
      <text style="font-size: 11px; font-family: 'DejaVu Sans'; text-anchor: middle; fill: #41607f" x="60.23" y="287.678281" transform="rotate(-0 60.23 287.678281)">0</text>
     </g>
    </g>
    <g id="xtick_2">
     <g id="line2d_3">
      <path d="M 109.047778 272.32 
L 109.047778 27.96 
" clip-path="url(#pcbe3e6d2d3)" style="fill: none; stroke: #eef2f6; stroke-linecap: square"/>
     </g>
     <g id="line2d_4">
      <g>
       <use xlink:href="#mf223d4c1d9" x="109.047778" y="272.32" style="fill: #41607f; stroke: #41607f; stroke-width: 0.8"/>
      </g>
     </g>
     <g id="text_2">
      <text style="font-size: 11px; font-family: 'DejaVu Sans'; text-anchor: middle; fill: #41607f" x="109.047778" y="287.678281" transform="rotate(-0 109.047778 287.678281)">5</text>
     </g>
    </g>
    <g id="xtick_3">
     <g id="line2d_5">
      <path d="M 157.865556 272.32 
L 157.865556 27.96 
" clip-path="url(#pcbe3e6d2d3)" style="fill: none; stroke: #eef2f6; stroke-linecap: square"/>
     </g>
     <g id="line2d_6">
      <g>
       <use xlink:href="#mf223d4c1d9" x="157.865556" y="272.32" style="fill: #41607f; stroke: #41607f; stroke-width: 0.8"/>
      </g>
     </g>
     <g id="text_3">
      <text style="font-size: 11px; font-family: 'DejaVu Sans'; text-anchor: middle; fill: #41607f" x="157.865556" y="287.678281" transform="rotate(-0 157.865556 287.678281)">10</text>
     </g>
    </g>
    <g id="xtick_4">
     <g id="line2d_7">
      <path d="M 206.683333 272.32 
L 206.683333 27.96 
" clip-path="url(#pcbe3e6d2d3)" style="fill: none; stroke: #eef2f6; stroke-linecap: square"/>
     </g>
     <g id="line2d_8">
      <g>
       <use xlink:href="#mf223d4c1d9" x="206.683333" y="272.32" style="fill: #41607f; stroke: #41607f; stroke-width: 0.8"/>
      </g>
     </g>
     <g id="text_4">
      <text style="font-size: 11px; font-family: 'DejaVu Sans'; text-anchor: middle; fill: #41607f" x="206.683333" y="287.678281" transform="rotate(-0 206.683333 287.678281)">15</text>
     </g>
    </g>
    <g id="xtick_5">
     <g id="line2d_9">
      <path d="M 255.501111 272.32 
L 255.501111 27.96 
" clip-path="url(#pcbe3e6d2d3)" style="fill: none; stroke: #eef2f6; stroke-linecap: square"/>
     </g>
     <g id="line2d_10">
      <g>
       <use xlink:href="#mf223d4c1d9" x="255.501111" y="272.32" style="fill: #41607f; stroke: #41607f; stroke-width: 0.8"/>
      </g>
     </g>
     <g id="text_5">
      <text style="font-size: 11px; font-family: 'DejaVu Sans'; text-anchor: middle; fill: #41607f" x="255.501111" y="287.678281" transform="rotate(-0 255.501111 287.678281)">20</text>
     </g>
    </g>
    <g id="xtick_6">
     <g id="line2d_11">
      <path d="M 304.318889 272.32 
L 304.318889 27.96 
" clip-path="url(#pcbe3e6d2d3)" style="fill: none; stroke: #eef2f6; stroke-linecap: square"/>
     </g>
     <g id="line2d_12">
      <g>
       <use xlink:href="#mf223d4c1d9" x="304.318889" y="272.32" style="fill: #41607f; stroke: #41607f; stroke-width: 0.8"/>
      </g>
     </g>
     <g id="text_6">
      <text style="font-size: 11px; font-family: 'DejaVu Sans'; text-anchor: middle; fill: #41607f" x="304.318889" y="287.678281" transform="rotate(-0 304.318889 287.678281)">25</text>
     </g>
    </g>
    <g id="xtick_7">
     <g id="line2d_13">
      <path d="M 353.136667 272.32 
L 353.136667 27.96 
" clip-path="url(#pcbe3e6d2d3)" style="fill: none; stroke: #eef2f6; stroke-linecap: square"/>
     </g>
     <g id="line2d_14">
      <g>
       <use xlink:href="#mf223d4c1d9" x="353.136667" y="272.32" style="fill: #41607f; stroke: #41607f; stroke-width: 0.8"/>
      </g>
     </g>
     <g id="text_7">
      <text style="font-size: 11px; font-family: 'DejaVu Sans'; text-anchor: middle; fill: #41607f" x="353.136667" y="287.678281" transform="rotate(-0 353.136667 287.678281)">30</text>
     </g>
    </g>
    <g id="xtick_8">
     <g id="line2d_15">
      <path d="M 401.954444 272.32 
L 401.954444 27.96 
" clip-path="url(#pcbe3e6d2d3)" style="fill: none; stroke: #eef2f6; stroke-linecap: square"/>
     </g>
     <g id="line2d_16">
      <g>
       <use xlink:href="#mf223d4c1d9" x="401.954444" y="272.32" style="fill: #41607f; stroke: #41607f; stroke-width: 0.8"/>
      </g>
     </g>
     <g id="text_8">
      <text style="font-size: 11px; font-family: 'DejaVu Sans'; text-anchor: middle; fill: #41607f" x="401.954444" y="287.678281" transform="rotate(-0 401.954444 287.678281)">35</text>
     </g>
    </g>
    <g id="xtick_9">
     <g id="line2d_17">
      <path d="M 450.772222 272.32 
L 450.772222 27.96 
" clip-path="url(#pcbe3e6d2d3)" style="fill: none; stroke: #eef2f6; stroke-linecap: square"/>
     </g>
     <g id="line2d_18">
      <g>
       <use xlink:href="#mf223d4c1d9" x="450.772222" y="272.32" style="fill: #41607f; stroke: #41607f; stroke-width: 0.8"/>
      </g>
     </g>
     <g id="text_9">
      <text style="font-size: 11px; font-family: 'DejaVu Sans'; text-anchor: middle; fill: #41607f" x="450.772222" y="287.678281" transform="rotate(-0 450.772222 287.678281)">40</text>
     </g>
    </g>
    <g id="xtick_10">
     <g id="line2d_19">
      <path d="M 499.59 272.32 
L 499.59 27.96 
" clip-path="url(#pcbe3e6d2d3)" style="fill: none; stroke: #eef2f6; stroke-linecap: square"/>
     </g>
     <g id="line2d_20">
      <g>
       <use xlink:href="#mf223d4c1d9" x="499.59" y="272.32" style="fill: #41607f; stroke: #41607f; stroke-width: 0.8"/>
      </g>
     </g>
     <g id="text_10">
      <text style="font-size: 11px; font-family: 'DejaVu Sans'; text-anchor: middle; fill: #41607f" x="499.59" y="287.678281" transform="rotate(-0 499.59 287.678281)">45</text>
     </g>
    </g>
    <g id="text_11">
     <text style="font-size: 11px; font-family: 'DejaVu Sans'; text-anchor: middle; fill: #1f3a5f" x="279.91" y="302.324219" transform="rotate(-0 279.91 302.324219)">Realized volatility (%)</text>
    </g>
   </g>
   <g id="matplotlib.axis_2">
    <g id="ytick_1">
     <g id="line2d_21">
      <path d="M 60.23 272.182873 
L 499.59 272.182873 
" clip-path="url(#pcbe3e6d2d3)" style="fill: none; stroke: #eef2f6; stroke-linecap: square"/>
     </g>
     <g id="line2d_22">
      <defs>
       <path id="md0082baec7" d="M 0 0 
L -3.5 0 
" style="stroke: #41607f; stroke-width: 0.8"/>
      </defs>
      <g>
       <use xlink:href="#md0082baec7" x="60.23" y="272.182873" style="fill: #41607f; stroke: #41607f; stroke-width: 0.8"/>
      </g>
     </g>
     <g id="text_12">
      <text style="font-size: 11px; font-family: 'DejaVu Sans'; text-anchor: end; fill: #41607f" x="53.23" y="276.362014" transform="rotate(-0 53.23 276.362014)">−5.0</text>
     </g>
    </g>
    <g id="ytick_2">
     <g id="line2d_23">
      <path d="M 60.23 244.757508 
L 499.59 244.757508 
" clip-path="url(#pcbe3e6d2d3)" style="fill: none; stroke: #eef2f6; stroke-linecap: square"/>
     </g>
     <g id="line2d_24">
      <g>
       <use xlink:href="#md0082baec7" x="60.23" y="244.757508" style="fill: #41607f; stroke: #41607f; stroke-width: 0.8"/>
      </g>
     </g>
     <g id="text_13">
      <text style="font-size: 11px; font-family: 'DejaVu Sans'; text-anchor: end; fill: #41607f" x="53.23" y="248.936649" transform="rotate(-0 53.23 248.936649)">−2.5</text>
     </g>
    </g>
    <g id="ytick_3">
     <g id="line2d_25">
      <path d="M 60.23 217.332144 
L 499.59 217.332144 
" clip-path="url(#pcbe3e6d2d3)" style="fill: none; stroke: #eef2f6; stroke-linecap: square"/>
     </g>
     <g id="line2d_26">
      <g>
       <use xlink:href="#md0082baec7" x="60.23" y="217.332144" style="fill: #41607f; stroke: #41607f; stroke-width: 0.8"/>
      </g>
     </g>
     <g id="text_14">
      <text style="font-size: 11px; font-family: 'DejaVu Sans'; text-anchor: end; fill: #41607f" x="53.23" y="221.511284" transform="rotate(-0 53.23 221.511284)">0.0</text>
     </g>
    </g>
    <g id="ytick_4">
     <g id="line2d_27">
      <path d="M 60.23 189.906779 
L 499.59 189.906779 
" clip-path="url(#pcbe3e6d2d3)" style="fill: none; stroke: #eef2f6; stroke-linecap: square"/>
     </g>
     <g id="line2d_28">
      <g>
       <use xlink:href="#md0082baec7" x="60.23" y="189.906779" style="fill: #41607f; stroke: #41607f; stroke-width: 0.8"/>
      </g>
     </g>
     <g id="text_15">
      <text style="font-size: 11px; font-family: 'DejaVu Sans'; text-anchor: end; fill: #41607f" x="53.23" y="194.08592" transform="rotate(-0 53.23 194.08592)">2.5</text>
     </g>
    </g>
    <g id="ytick_5">
     <g id="line2d_29">
      <path d="M 60.23 162.481414 
L 499.59 162.481414 
" clip-path="url(#pcbe3e6d2d3)" style="fill: none; stroke: #eef2f6; stroke-linecap: square"/>
     </g>
     <g id="line2d_30">
      <g>
       <use xlink:href="#md0082baec7" x="60.23" y="162.481414" style="fill: #41607f; stroke: #41607f; stroke-width: 0.8"/>
      </g>
     </g>
     <g id="text_16">
      <text style="font-size: 11px; font-family: 'DejaVu Sans'; text-anchor: end; fill: #41607f" x="53.23" y="166.660555" transform="rotate(-0 53.23 166.660555)">5.0</text>
     </g>
    </g>
    <g id="ytick_6">
     <g id="line2d_31">
      <path d="M 60.23 135.056049 
L 499.59 135.056049 
" clip-path="url(#pcbe3e6d2d3)" style="fill: none; stroke: #eef2f6; stroke-linecap: square"/>
     </g>
     <g id="line2d_32">
      <g>
       <use xlink:href="#md0082baec7" x="60.23" y="135.056049" style="fill: #41607f; stroke: #41607f; stroke-width: 0.8"/>
      </g>
     </g>
     <g id="text_17">
      <text style="font-size: 11px; font-family: 'DejaVu Sans'; text-anchor: end; fill: #41607f" x="53.23" y="139.23519" transform="rotate(-0 53.23 139.23519)">7.5</text>
     </g>
    </g>
    <g id="ytick_7">
     <g id="line2d_33">
      <path d="M 60.23 107.630685 
L 499.59 107.630685 
" clip-path="url(#pcbe3e6d2d3)" style="fill: none; stroke: #eef2f6; stroke-linecap: square"/>
     </g>
     <g id="line2d_34">
      <g>
       <use xlink:href="#md0082baec7" x="60.23" y="107.630685" style="fill: #41607f; stroke: #41607f; stroke-width: 0.8"/>
      </g>
     </g>
     <g id="text_18">
      <text style="font-size: 11px; font-family: 'DejaVu Sans'; text-anchor: end; fill: #41607f" x="53.23" y="111.809825" transform="rotate(-0 53.23 111.809825)">10.0</text>
     </g>
    </g>
    <g id="ytick_8">
     <g id="line2d_35">
      <path d="M 60.23 80.20532 
L 499.59 80.20532 
" clip-path="url(#pcbe3e6d2d3)" style="fill: none; stroke: #eef2f6; stroke-linecap: square"/>
     </g>
     <g id="line2d_36">
      <g>
       <use xlink:href="#md0082baec7" x="60.23" y="80.20532" style="fill: #41607f; stroke: #41607f; stroke-width: 0.8"/>
      </g>
     </g>
     <g id="text_19">
      <text style="font-size: 11px; font-family: 'DejaVu Sans'; text-anchor: end; fill: #41607f" x="53.23" y="84.38446" transform="rotate(-0 53.23 84.38446)">12.5</text>
     </g>
    </g>
    <g id="ytick_9">
     <g id="line2d_37">
      <path d="M 60.23 52.779955 
L 499.59 52.779955 
" clip-path="url(#pcbe3e6d2d3)" style="fill: none; stroke: #eef2f6; stroke-linecap: square"/>
     </g>
     <g id="line2d_38">
      <g>
       <use xlink:href="#md0082baec7" x="60.23" y="52.779955" style="fill: #41607f; stroke: #41607f; stroke-width: 0.8"/>
      </g>
     </g>
     <g id="text_20">
      <text style="font-size: 11px; font-family: 'DejaVu Sans'; text-anchor: end; fill: #41607f" x="53.23" y="56.959096" transform="rotate(-0 53.23 56.959096)">15.0</text>
     </g>
    </g>
    <g id="text_21">
     <text style="font-size: 11px; font-family: 'DejaVu Sans'; text-anchor: middle; fill: #1f3a5f" x="20.23125" y="150.14" transform="rotate(-90 20.23125 150.14)">P&amp;L (variance points, ×notional)</text>
    </g>
   </g>
   <g id="FillBetweenPolyCollection_1">
    <defs>
     <path id="m6b07361457" d="M 256.235213 -99.467856 
L 256.235213 -99.798406 
L 257.336366 -100.296555 
L 258.437519 -100.797496 
L 259.538672 -101.301227 
L 260.639825 -101.807749 
L 261.740977 -102.317062 
L 262.84213 -102.829165 
L 263.943283 -103.344059 
L 265.044436 -103.861744 
L 266.145589 -104.38222 
L 267.246742 -104.905486 
L 268.347895 -105.431544 
L 269.449048 -105.960392 
L 270.550201 -106.49203 
L 271.651353 -107.02646 
L 272.752506 -107.56368 
L 273.853659 -108.103691 
L 274.954812 -108.646493 
L 276.055965 -109.192085 
L 277.157118 -109.740469 
L 278.258271 -110.291643 
L 279.359424 -110.845607 
L 280.460576 -111.402363 
L 281.561729 -111.961909 
L 282.662882 -112.524246 
L 283.764035 -113.089374 
L 284.865188 -113.657293 
L 285.966341 -114.228002 
L 287.067494 -114.801502 
L 288.168647 -115.377793 
L 289.269799 -115.956874 
L 290.370952 -116.538747 
L 291.472105 -117.12341 
L 292.573258 -117.710864 
L 293.674411 -118.301108 
L 294.775564 -118.894143 
L 295.876717 -119.48997 
L 296.97787 -120.088586 
L 298.079023 -120.689994 
L 299.180175 -121.294192 
L 300.281328 -121.901181 
L 301.382481 -122.510961 
L 302.483634 -123.123532 
L 303.584787 -123.738893 
L 304.68594 -124.357045 
L 305.787093 -124.977988 
L 306.888246 -125.601722 
L 307.989398 -126.228246 
L 309.090551 -126.857561 
L 310.191704 -127.489667 
L 311.292857 -128.124564 
L 312.39401 -128.762251 
L 313.495163 -129.40273 
L 314.596316 -130.045998 
L 315.697469 -130.692058 
L 316.798622 -131.340909 
L 317.899774 -131.99255 
L 319.000927 -132.646982 
L 320.10208 -133.304204 
L 321.203233 -133.964218 
L 322.304386 -134.627022 
L 323.405539 -135.292617 
L 324.506692 -135.961003 
L 325.607845 -136.632179 
L 326.708997 -137.306146 
L 327.81015 -137.982904 
L 328.911303 -138.662453 
L 330.012456 -139.344793 
L 331.113609 -140.029923 
L 332.214762 -140.717844 
L 333.315915 -141.408555 
L 334.417068 -142.102058 
L 335.518221 -142.798351 
L 336.619373 -143.497435 
L 337.720526 -144.19931 
L 338.821679 -144.903976 
L 339.922832 -145.611432 
L 341.023985 -146.321679 
L 342.125138 -147.034717 
L 343.226291 -147.750545 
L 344.327444 -148.469164 
L 345.428596 -149.190574 
L 346.529749 -149.914775 
L 347.630902 -150.641767 
L 348.732055 -151.371549 
L 349.833208 -152.104122 
L 350.934361 -152.839486 
L 352.035514 -153.577641 
L 353.136667 -154.318586 
L 354.23782 -155.062322 
L 355.338972 -155.808849 
L 356.440125 -156.558166 
L 357.541278 -157.310275 
L 358.642431 -158.065174 
L 359.743584 -158.822864 
L 360.844737 -159.583344 
L 361.94589 -160.346616 
L 363.047043 -161.112678 
L 364.148195 -161.881531 
L 365.249348 -162.653174 
L 366.350501 -163.427609 
L 367.451654 -164.204834 
L 368.552807 -164.98485 
L 369.65396 -165.767656 
L 370.755113 -166.553254 
L 371.856266 -167.341642 
L 372.957419 -168.132821 
L 374.058571 -168.92679 
L 375.159724 -169.723551 
L 376.260877 -170.523102 
L 377.36203 -171.325444 
L 378.463183 -172.130577 
L 379.564336 -172.9385 
L 380.665489 -173.749214 
L 381.766642 -174.562719 
L 382.867794 -175.379015 
L 383.968947 -176.198101 
L 385.0701 -177.019978 
L 386.171253 -177.844646 
L 387.272406 -178.672105 
L 388.373559 -179.502355 
L 389.474712 -180.335395 
L 390.575865 -181.171226 
L 391.677018 -182.009848 
L 392.77817 -182.85126 
L 393.879323 -183.695463 
L 394.980476 -184.542457 
L 396.081629 -185.392242 
L 397.182782 -186.244817 
L 398.283935 -187.100184 
L 399.385088 -187.958341 
L 400.486241 -188.819289 
L 401.587393 -189.683027 
L 402.688546 -190.549556 
L 403.789699 -191.418876 
L 404.890852 -192.290987 
L 405.992005 -193.165889 
L 407.093158 -194.043581 
L 408.194311 -194.924064 
L 409.295464 -195.807338 
L 410.396617 -196.693402 
L 411.497769 -197.582258 
L 412.598922 -198.473904 
L 413.700075 -199.368341 
L 414.801228 -200.265568 
L 415.902381 -201.165586 
L 417.003534 -202.068396 
L 418.104687 -202.973995 
L 419.20584 -203.882386 
L 420.306992 -204.793567 
L 421.408145 -205.707539 
L 422.509298 -206.624302 
L 423.610451 -207.543856 
L 424.711604 -208.4662 
L 425.812757 -209.391335 
L 426.91391 -210.319261 
L 428.015063 -211.249978 
L 429.116216 -212.183485 
L 430.217368 -213.119783 
L 431.318521 -214.058872 
L 432.419674 -215.000752 
L 433.520827 -215.945422 
L 434.62198 -216.892884 
L 435.723133 -217.843135 
L 436.824286 -218.796178 
L 437.925439 -219.752012 
L 439.026591 -220.710636 
L 440.127744 -221.672051 
L 441.228897 -222.636256 
L 442.33005 -223.603253 
L 443.431203 -224.57304 
L 444.532356 -225.545618 
L 445.633509 -226.520987 
L 446.734662 -227.499146 
L 447.835815 -228.480096 
L 448.936967 -229.463837 
L 450.03812 -230.450369 
L 451.139273 -231.439691 
L 452.240426 -232.431805 
L 453.341579 -233.426709 
L 454.442732 -234.424403 
L 455.543885 -235.424889 
L 456.645038 -236.428165 
L 457.74619 -237.434232 
L 458.847343 -238.44309 
L 459.948496 -239.454738 
L 461.049649 -240.469178 
L 462.150802 -241.486408 
L 463.251955 -242.506428 
L 464.353108 -243.52924 
L 465.454261 -244.554842 
L 466.555414 -245.583235 
L 467.656566 -246.614419 
L 468.757719 -247.648394 
L 469.858872 -248.685159 
L 470.960025 -249.724715 
L 472.061178 -250.767062 
L 473.162331 -251.812199 
L 474.263484 -252.860128 
L 475.364637 -253.910847 
L 476.465789 -254.964357 
L 477.566942 -256.020657 
L 478.668095 -257.079749 
L 479.769248 -258.141631 
L 480.870401 -259.206303 
L 481.971554 -260.273767 
L 483.072707 -261.344021 
L 484.17386 -262.417067 
L 485.275013 -263.492902 
L 486.376165 -264.571529 
L 487.477318 -265.652946 
L 488.578471 -266.737154 
L 489.679624 -267.824153 
L 490.780777 -268.913943 
L 491.88193 -270.006523 
L 492.983083 -271.101895 
L 494.084236 -272.200056 
L 495.185388 -273.301009 
L 496.286541 -274.404753 
L 497.387694 -275.511287 
L 498.488847 -276.620612 
L 499.59 -277.732727 
L 499.59 -99.467856 
L 499.59 -99.467856 
L 498.488847 -99.467856 
L 497.387694 -99.467856 
L 496.286541 -99.467856 
L 495.185388 -99.467856 
L 494.084236 -99.467856 
L 492.983083 -99.467856 
L 491.88193 -99.467856 
L 490.780777 -99.467856 
L 489.679624 -99.467856 
L 488.578471 -99.467856 
L 487.477318 -99.467856 
L 486.376165 -99.467856 
L 485.275013 -99.467856 
L 484.17386 -99.467856 
L 483.072707 -99.467856 
L 481.971554 -99.467856 
L 480.870401 -99.467856 
L 479.769248 -99.467856 
L 478.668095 -99.467856 
L 477.566942 -99.467856 
L 476.465789 -99.467856 
L 475.364637 -99.467856 
L 474.263484 -99.467856 
L 473.162331 -99.467856 
L 472.061178 -99.467856 
L 470.960025 -99.467856 
L 469.858872 -99.467856 
L 468.757719 -99.467856 
L 467.656566 -99.467856 
L 466.555414 -99.467856 
L 465.454261 -99.467856 
L 464.353108 -99.467856 
L 463.251955 -99.467856 
L 462.150802 -99.467856 
L 461.049649 -99.467856 
L 459.948496 -99.467856 
L 458.847343 -99.467856 
L 457.74619 -99.467856 
L 456.645038 -99.467856 
L 455.543885 -99.467856 
L 454.442732 -99.467856 
L 453.341579 -99.467856 
L 452.240426 -99.467856 
L 451.139273 -99.467856 
L 450.03812 -99.467856 
L 448.936967 -99.467856 
L 447.835815 -99.467856 
L 446.734662 -99.467856 
L 445.633509 -99.467856 
L 444.532356 -99.467856 
L 443.431203 -99.467856 
L 442.33005 -99.467856 
L 441.228897 -99.467856 
L 440.127744 -99.467856 
L 439.026591 -99.467856 
L 437.925439 -99.467856 
L 436.824286 -99.467856 
L 435.723133 -99.467856 
L 434.62198 -99.467856 
L 433.520827 -99.467856 
L 432.419674 -99.467856 
L 431.318521 -99.467856 
L 430.217368 -99.467856 
L 429.116216 -99.467856 
L 428.015063 -99.467856 
L 426.91391 -99.467856 
L 425.812757 -99.467856 
L 424.711604 -99.467856 
L 423.610451 -99.467856 
L 422.509298 -99.467856 
L 421.408145 -99.467856 
L 420.306992 -99.467856 
L 419.20584 -99.467856 
L 418.104687 -99.467856 
L 417.003534 -99.467856 
L 415.902381 -99.467856 
L 414.801228 -99.467856 
L 413.700075 -99.467856 
L 412.598922 -99.467856 
L 411.497769 -99.467856 
L 410.396617 -99.467856 
L 409.295464 -99.467856 
L 408.194311 -99.467856 
L 407.093158 -99.467856 
L 405.992005 -99.467856 
L 404.890852 -99.467856 
L 403.789699 -99.467856 
L 402.688546 -99.467856 
L 401.587393 -99.467856 
L 400.486241 -99.467856 
L 399.385088 -99.467856 
L 398.283935 -99.467856 
L 397.182782 -99.467856 
L 396.081629 -99.467856 
L 394.980476 -99.467856 
L 393.879323 -99.467856 
L 392.77817 -99.467856 
L 391.677018 -99.467856 
L 390.575865 -99.467856 
L 389.474712 -99.467856 
L 388.373559 -99.467856 
L 387.272406 -99.467856 
L 386.171253 -99.467856 
L 385.0701 -99.467856 
L 383.968947 -99.467856 
L 382.867794 -99.467856 
L 381.766642 -99.467856 
L 380.665489 -99.467856 
L 379.564336 -99.467856 
L 378.463183 -99.467856 
L 377.36203 -99.467856 
L 376.260877 -99.467856 
L 375.159724 -99.467856 
L 374.058571 -99.467856 
L 372.957419 -99.467856 
L 371.856266 -99.467856 
L 370.755113 -99.467856 
L 369.65396 -99.467856 
L 368.552807 -99.467856 
L 367.451654 -99.467856 
L 366.350501 -99.467856 
L 365.249348 -99.467856 
L 364.148195 -99.467856 
L 363.047043 -99.467856 
L 361.94589 -99.467856 
L 360.844737 -99.467856 
L 359.743584 -99.467856 
L 358.642431 -99.467856 
L 357.541278 -99.467856 
L 356.440125 -99.467856 
L 355.338972 -99.467856 
L 354.23782 -99.467856 
L 353.136667 -99.467856 
L 352.035514 -99.467856 
L 350.934361 -99.467856 
L 349.833208 -99.467856 
L 348.732055 -99.467856 
L 347.630902 -99.467856 
L 346.529749 -99.467856 
L 345.428596 -99.467856 
L 344.327444 -99.467856 
L 343.226291 -99.467856 
L 342.125138 -99.467856 
L 341.023985 -99.467856 
L 339.922832 -99.467856 
L 338.821679 -99.467856 
L 337.720526 -99.467856 
L 336.619373 -99.467856 
L 335.518221 -99.467856 
L 334.417068 -99.467856 
L 333.315915 -99.467856 
L 332.214762 -99.467856 
L 331.113609 -99.467856 
L 330.012456 -99.467856 
L 328.911303 -99.467856 
L 327.81015 -99.467856 
L 326.708997 -99.467856 
L 325.607845 -99.467856 
L 324.506692 -99.467856 
L 323.405539 -99.467856 
L 322.304386 -99.467856 
L 321.203233 -99.467856 
L 320.10208 -99.467856 
L 319.000927 -99.467856 
L 317.899774 -99.467856 
L 316.798622 -99.467856 
L 315.697469 -99.467856 
L 314.596316 -99.467856 
L 313.495163 -99.467856 
L 312.39401 -99.467856 
L 311.292857 -99.467856 
L 310.191704 -99.467856 
L 309.090551 -99.467856 
L 307.989398 -99.467856 
L 306.888246 -99.467856 
L 305.787093 -99.467856 
L 304.68594 -99.467856 
L 303.584787 -99.467856 
L 302.483634 -99.467856 
L 301.382481 -99.467856 
L 300.281328 -99.467856 
L 299.180175 -99.467856 
L 298.079023 -99.467856 
L 296.97787 -99.467856 
L 295.876717 -99.467856 
L 294.775564 -99.467856 
L 293.674411 -99.467856 
L 292.573258 -99.467856 
L 291.472105 -99.467856 
L 290.370952 -99.467856 
L 289.269799 -99.467856 
L 288.168647 -99.467856 
L 287.067494 -99.467856 
L 285.966341 -99.467856 
L 284.865188 -99.467856 
L 283.764035 -99.467856 
L 282.662882 -99.467856 
L 281.561729 -99.467856 
L 280.460576 -99.467856 
L 279.359424 -99.467856 
L 278.258271 -99.467856 
L 277.157118 -99.467856 
L 276.055965 -99.467856 
L 274.954812 -99.467856 
L 273.853659 -99.467856 
L 272.752506 -99.467856 
L 271.651353 -99.467856 
L 270.550201 -99.467856 
L 269.449048 -99.467856 
L 268.347895 -99.467856 
L 267.246742 -99.467856 
L 266.145589 -99.467856 
L 265.044436 -99.467856 
L 263.943283 -99.467856 
L 262.84213 -99.467856 
L 261.740977 -99.467856 
L 260.639825 -99.467856 
L 259.538672 -99.467856 
L 258.437519 -99.467856 
L 257.336366 -99.467856 
L 256.235213 -99.467856 
z
" style="stroke: #2e7d5b; stroke-opacity: 0.12"/>
    </defs>
    <g clip-path="url(#pcbe3e6d2d3)">
     <use xlink:href="#m6b07361457" x="0" y="316.8" style="fill: #2e7d5b; fill-opacity: 0.12; stroke: #2e7d5b; stroke-opacity: 0.12"/>
    </g>
   </g>
   <g id="FillBetweenPolyCollection_2">
    <defs>
     <path id="m03b47afd1d" d="M 60.23 -99.467856 
L 60.23 -55.587273 
L 61.331153 -55.588668 
L 62.432306 -55.592854 
L 63.533459 -55.599831 
L 64.634612 -55.609599 
L 65.735764 -55.622157 
L 66.836917 -55.637506 
L 67.93807 -55.655646 
L 69.039223 -55.676577 
L 70.140376 -55.700298 
L 71.241529 -55.72681 
L 72.342682 -55.756113 
L 73.443835 -55.788207 
L 74.544987 -55.823091 
L 75.64614 -55.860767 
L 76.747293 -55.901233 
L 77.848446 -55.944489 
L 78.949599 -55.990537 
L 80.050752 -56.039375 
L 81.151905 -56.091004 
L 82.253058 -56.145424 
L 83.354211 -56.202634 
L 84.455363 -56.262635 
L 85.556516 -56.325427 
L 86.657669 -56.39101 
L 87.758822 -56.459384 
L 88.859975 -56.530548 
L 89.961128 -56.604503 
L 91.062281 -56.681248 
L 92.163434 -56.760785 
L 93.264586 -56.843112 
L 94.365739 -56.92823 
L 95.466892 -57.016139 
L 96.568045 -57.106839 
L 97.669198 -57.200329 
L 98.770351 -57.29661 
L 99.871504 -57.395682 
L 100.972657 -57.497544 
L 102.07381 -57.602197 
L 103.174962 -57.709642 
L 104.276115 -57.819876 
L 105.377268 -57.932902 
L 106.478421 -58.048718 
L 107.579574 -58.167325 
L 108.680727 -58.288723 
L 109.78188 -58.412912 
L 110.883033 -58.539891 
L 111.984185 -58.669661 
L 113.085338 -58.802222 
L 114.186491 -58.937574 
L 115.287644 -59.075716 
L 116.388797 -59.216649 
L 117.48995 -59.360373 
L 118.591103 -59.506887 
L 119.692256 -59.656193 
L 120.793409 -59.808289 
L 121.894561 -59.963176 
L 122.995714 -60.120853 
L 124.096867 -60.281322 
L 125.19802 -60.444581 
L 126.299173 -60.610631 
L 127.400326 -60.779471 
L 128.501479 -60.951103 
L 129.602632 -61.125525 
L 130.703784 -61.302738 
L 131.804937 -61.482742 
L 132.90609 -61.665536 
L 134.007243 -61.851121 
L 135.108396 -62.039497 
L 136.209549 -62.230664 
L 137.310702 -62.424621 
L 138.411855 -62.621369 
L 139.513008 -62.820908 
L 140.61416 -63.023238 
L 141.715313 -63.228359 
L 142.816466 -63.43627 
L 143.917619 -63.646972 
L 145.018772 -63.860464 
L 146.119925 -64.076748 
L 147.221078 -64.295822 
L 148.322231 -64.517687 
L 149.423383 -64.742343 
L 150.524536 -64.969789 
L 151.625689 -65.200027 
L 152.726842 -65.433055 
L 153.827995 -65.668873 
L 154.929148 -65.907483 
L 156.030301 -66.148883 
L 157.131454 -66.393074 
L 158.232607 -66.640056 
L 159.333759 -66.889829 
L 160.434912 -67.142392 
L 161.536065 -67.397746 
L 162.637218 -67.655891 
L 163.738371 -67.916826 
L 164.839524 -68.180552 
L 165.940677 -68.44707 
L 167.04183 -68.716377 
L 168.142982 -68.988476 
L 169.244135 -69.263365 
L 170.345288 -69.541045 
L 171.446441 -69.821516 
L 172.547594 -70.104778 
L 173.648747 -70.39083 
L 174.7499 -70.679673 
L 175.851053 -70.971307 
L 176.952206 -71.265732 
L 178.053358 -71.562947 
L 179.154511 -71.862953 
L 180.255664 -72.16575 
L 181.356817 -72.471338 
L 182.45797 -72.779716 
L 183.559123 -73.090885 
L 184.660276 -73.404845 
L 185.761429 -73.721596 
L 186.862581 -74.041137 
L 187.963734 -74.363469 
L 189.064887 -74.688592 
L 190.16604 -75.016506 
L 191.267193 -75.34721 
L 192.368346 -75.680705 
L 193.469499 -76.016991 
L 194.570652 -76.356068 
L 195.671805 -76.697935 
L 196.772957 -77.042593 
L 197.87411 -77.390042 
L 198.975263 -77.740282 
L 200.076416 -78.093312 
L 201.177569 -78.449134 
L 202.278722 -78.807746 
L 203.379875 -79.169148 
L 204.481028 -79.533342 
L 205.58218 -79.900326 
L 206.683333 -80.270101 
L 207.784486 -80.642667 
L 208.885639 -81.018023 
L 209.986792 -81.39617 
L 211.087945 -81.777108 
L 212.189098 -82.160837 
L 213.290251 -82.547357 
L 214.391404 -82.936667 
L 215.492556 -83.328768 
L 216.593709 -83.72366 
L 217.694862 -84.121342 
L 218.796015 -84.521816 
L 219.897168 -84.92508 
L 220.998321 -85.331134 
L 222.099474 -85.73998 
L 223.200627 -86.151616 
L 224.301779 -86.566043 
L 225.402932 -86.983261 
L 226.504085 -87.40327 
L 227.605238 -87.826069 
L 228.706391 -88.251659 
L 229.807544 -88.68004 
L 230.908697 -89.111211 
L 232.00985 -89.545174 
L 233.111003 -89.981927 
L 234.212155 -90.421471 
L 235.313308 -90.863805 
L 236.414461 -91.30893 
L 237.515614 -91.756847 
L 238.616767 -92.207553 
L 239.71792 -92.661051 
L 240.819073 -93.117339 
L 241.920226 -93.576419 
L 243.021378 -94.038288 
L 244.122531 -94.502949 
L 245.223684 -94.9704 
L 246.324837 -95.440643 
L 247.42599 -95.913675 
L 248.527143 -96.389499 
L 249.628296 -96.868113 
L 250.729449 -97.349519 
L 251.830602 -97.833715 
L 252.931754 -98.320701 
L 254.032907 -98.810479 
L 255.13406 -99.303047 
L 255.13406 -99.467856 
L 255.13406 -99.467856 
L 254.032907 -99.467856 
L 252.931754 -99.467856 
L 251.830602 -99.467856 
L 250.729449 -99.467856 
L 249.628296 -99.467856 
L 248.527143 -99.467856 
L 247.42599 -99.467856 
L 246.324837 -99.467856 
L 245.223684 -99.467856 
L 244.122531 -99.467856 
L 243.021378 -99.467856 
L 241.920226 -99.467856 
L 240.819073 -99.467856 
L 239.71792 -99.467856 
L 238.616767 -99.467856 
L 237.515614 -99.467856 
L 236.414461 -99.467856 
L 235.313308 -99.467856 
L 234.212155 -99.467856 
L 233.111003 -99.467856 
L 232.00985 -99.467856 
L 230.908697 -99.467856 
L 229.807544 -99.467856 
L 228.706391 -99.467856 
L 227.605238 -99.467856 
L 226.504085 -99.467856 
L 225.402932 -99.467856 
L 224.301779 -99.467856 
L 223.200627 -99.467856 
L 222.099474 -99.467856 
L 220.998321 -99.467856 
L 219.897168 -99.467856 
L 218.796015 -99.467856 
L 217.694862 -99.467856 
L 216.593709 -99.467856 
L 215.492556 -99.467856 
L 214.391404 -99.467856 
L 213.290251 -99.467856 
L 212.189098 -99.467856 
L 211.087945 -99.467856 
L 209.986792 -99.467856 
L 208.885639 -99.467856 
L 207.784486 -99.467856 
L 206.683333 -99.467856 
L 205.58218 -99.467856 
L 204.481028 -99.467856 
L 203.379875 -99.467856 
L 202.278722 -99.467856 
L 201.177569 -99.467856 
L 200.076416 -99.467856 
L 198.975263 -99.467856 
L 197.87411 -99.467856 
L 196.772957 -99.467856 
L 195.671805 -99.467856 
L 194.570652 -99.467856 
L 193.469499 -99.467856 
L 192.368346 -99.467856 
L 191.267193 -99.467856 
L 190.16604 -99.467856 
L 189.064887 -99.467856 
L 187.963734 -99.467856 
L 186.862581 -99.467856 
L 185.761429 -99.467856 
L 184.660276 -99.467856 
L 183.559123 -99.467856 
L 182.45797 -99.467856 
L 181.356817 -99.467856 
L 180.255664 -99.467856 
L 179.154511 -99.467856 
L 178.053358 -99.467856 
L 176.952206 -99.467856 
L 175.851053 -99.467856 
L 174.7499 -99.467856 
L 173.648747 -99.467856 
L 172.547594 -99.467856 
L 171.446441 -99.467856 
L 170.345288 -99.467856 
L 169.244135 -99.467856 
L 168.142982 -99.467856 
L 167.04183 -99.467856 
L 165.940677 -99.467856 
L 164.839524 -99.467856 
L 163.738371 -99.467856 
L 162.637218 -99.467856 
L 161.536065 -99.467856 
L 160.434912 -99.467856 
L 159.333759 -99.467856 
L 158.232607 -99.467856 
L 157.131454 -99.467856 
L 156.030301 -99.467856 
L 154.929148 -99.467856 
L 153.827995 -99.467856 
L 152.726842 -99.467856 
L 151.625689 -99.467856 
L 150.524536 -99.467856 
L 149.423383 -99.467856 
L 148.322231 -99.467856 
L 147.221078 -99.467856 
L 146.119925 -99.467856 
L 145.018772 -99.467856 
L 143.917619 -99.467856 
L 142.816466 -99.467856 
L 141.715313 -99.467856 
L 140.61416 -99.467856 
L 139.513008 -99.467856 
L 138.411855 -99.467856 
L 137.310702 -99.467856 
L 136.209549 -99.467856 
L 135.108396 -99.467856 
L 134.007243 -99.467856 
L 132.90609 -99.467856 
L 131.804937 -99.467856 
L 130.703784 -99.467856 
L 129.602632 -99.467856 
L 128.501479 -99.467856 
L 127.400326 -99.467856 
L 126.299173 -99.467856 
L 125.19802 -99.467856 
L 124.096867 -99.467856 
L 122.995714 -99.467856 
L 121.894561 -99.467856 
L 120.793409 -99.467856 
L 119.692256 -99.467856 
L 118.591103 -99.467856 
L 117.48995 -99.467856 
L 116.388797 -99.467856 
L 115.287644 -99.467856 
L 114.186491 -99.467856 
L 113.085338 -99.467856 
L 111.984185 -99.467856 
L 110.883033 -99.467856 
L 109.78188 -99.467856 
L 108.680727 -99.467856 
L 107.579574 -99.467856 
L 106.478421 -99.467856 
L 105.377268 -99.467856 
L 104.276115 -99.467856 
L 103.174962 -99.467856 
L 102.07381 -99.467856 
L 100.972657 -99.467856 
L 99.871504 -99.467856 
L 98.770351 -99.467856 
L 97.669198 -99.467856 
L 96.568045 -99.467856 
L 95.466892 -99.467856 
L 94.365739 -99.467856 
L 93.264586 -99.467856 
L 92.163434 -99.467856 
L 91.062281 -99.467856 
L 89.961128 -99.467856 
L 88.859975 -99.467856 
L 87.758822 -99.467856 
L 86.657669 -99.467856 
L 85.556516 -99.467856 
L 84.455363 -99.467856 
L 83.354211 -99.467856 
L 82.253058 -99.467856 
L 81.151905 -99.467856 
L 80.050752 -99.467856 
L 78.949599 -99.467856 
L 77.848446 -99.467856 
L 76.747293 -99.467856 
L 75.64614 -99.467856 
L 74.544987 -99.467856 
L 73.443835 -99.467856 
L 72.342682 -99.467856 
L 71.241529 -99.467856 
L 70.140376 -99.467856 
L 69.039223 -99.467856 
L 67.93807 -99.467856 
L 66.836917 -99.467856 
L 65.735764 -99.467856 
L 64.634612 -99.467856 
L 63.533459 -99.467856 
L 62.432306 -99.467856 
L 61.331153 -99.467856 
L 60.23 -99.467856 
z
" style="stroke: #c8553d; stroke-opacity: 0.1"/>
    </defs>
    <g clip-path="url(#pcbe3e6d2d3)">
     <use xlink:href="#m03b47afd1d" x="0" y="316.8" style="fill: #c8553d; fill-opacity: 0.1; stroke: #c8553d; stroke-opacity: 0.1"/>
    </g>
   </g>
   <g id="line2d_39">
    <path d="M 60.23 261.212727 
L 70.140376 261.099702 
L 80.050752 260.760625 
L 89.961128 260.195497 
L 99.871504 259.404318 
L 109.78188 258.387088 
L 119.692256 257.143807 
L 129.602632 255.674475 
L 139.513008 253.979092 
L 149.423383 252.057657 
L 159.333759 249.910171 
L 169.244135 247.536635 
L 179.154511 244.937047 
L 189.064887 242.111408 
L 198.975263 239.059718 
L 208.885639 235.781977 
L 218.796015 232.278184 
L 228.706391 228.548341 
L 238.616767 224.592447 
L 248.527143 220.410501 
L 258.437519 216.002504 
L 268.347895 211.368456 
L 278.258271 206.508357 
L 288.168647 201.422207 
L 298.079023 196.110006 
L 309.090551 189.942439 
L 320.10208 183.495796 
L 331.113609 176.770077 
L 342.125138 169.765283 
L 353.136667 162.481414 
L 364.148195 154.918469 
L 375.159724 147.076449 
L 386.171253 138.955354 
L 397.182782 130.555183 
L 408.194311 121.875936 
L 419.20584 112.917614 
L 430.217368 103.680217 
L 441.228897 94.163744 
L 452.240426 84.368195 
L 463.251955 74.293572 
L 474.263484 63.939872 
L 486.376165 52.228471 
L 498.488847 40.179388 
L 499.59 39.067273 
L 499.59 39.067273 
" clip-path="url(#pcbe3e6d2d3)" style="fill: none; stroke: #1f3a5f; stroke-width: 2.6; stroke-linecap: square"/>
   </g>
   <g id="line2d_40">
    <path d="M 60.23 217.332144 
L 499.59 217.332144 
" clip-path="url(#pcbe3e6d2d3)" style="fill: none; stroke: #41607f; stroke-width: 0.8; stroke-linecap: square"/>
   </g>
   <g id="line2d_41">
    <path d="M 255.501111 272.32 
L 255.501111 27.96 
" clip-path="url(#pcbe3e6d2d3)" style="fill: none; stroke-dasharray: 5.6,4.2; stroke-dashoffset: 0; stroke: #c8553d; stroke-width: 1.4"/>
   </g>
   <g id="patch_3">
    <path d="M 60.23 272.32 
L 60.23 27.96 
" style="fill: none; stroke: #41607f; stroke-width: 0.8; stroke-linejoin: miter; stroke-linecap: square"/>
   </g>
   <g id="patch_4">
    <path d="M 499.59 272.32 
L 499.59 27.96 
" style="fill: none; stroke: #41607f; stroke-width: 0.8; stroke-linejoin: miter; stroke-linecap: square"/>
   </g>
   <g id="patch_5">
    <path d="M 60.23 272.32 
L 499.59 272.32 
" style="fill: none; stroke: #41607f; stroke-width: 0.8; stroke-linejoin: miter; stroke-linecap: square"/>
   </g>
   <g id="patch_6">
    <path d="M 60.23 27.96 
L 499.59 27.96 
" style="fill: none; stroke: #41607f; stroke-width: 0.8; stroke-linejoin: miter; stroke-linecap: square"/>
   </g>
   <g id="text_22">
    <text style="font-size: 9px; font-family: 'DejaVu Sans'; text-anchor: start; fill: #c8553d" x="260.382889" y="214.0411" transform="rotate(-0 260.382889 214.0411)">Strike vol 20%</text>
   </g>
   <g id="text_23">
    <text style="font-weight: 700; font-size: 13px; font-family: 'DejaVu Sans'; text-anchor: start; fill: #1f3a5f" x="60.23" y="21.96" transform="rotate(-0 60.23 21.96)">Variance Swap Payoff vs Realized Vol — Investor Lens</text>
   </g>
   <g id="legend_1">
    <g id="line2d_42">
     <path d="M 68.33 39.748594 
L 77.33 39.748594 
L 86.33 39.748594 
" style="fill: none; stroke: #1f3a5f; stroke-width: 2.6; stroke-linecap: square"/>
    </g>
    <g id="text_24">
     <text style="font-size: 9px; font-family: 'DejaVu Sans'; text-anchor: start; fill: #1f3a5f" x="93.53" y="42.898594" transform="rotate(-0 93.53 42.898594)">Long variance: realized² − strike²</text>
    </g>
   </g>
  </g>
 </g>
 <defs>
  <clipPath id="pcbe3e6d2d3">
   <rect x="60.23" y="27.96" width="439.36" height="244.36"/>
  </clipPath>
 </defs>
</svg>
