<?xml version="1.0" encoding="utf-8" standalone="no"?>
<!DOCTYPE svg PUBLIC "-//W3C//DTD SVG 1.1//EN"
  "http://www.w3.org/Graphics/SVG/1.1/DTD/svg11.dtd">
<svg xmlns:xlink="http://www.w3.org/1999/xlink" width="784.8pt" height="336.96pt" viewBox="0 0 784.8 336.96" xmlns="http://www.w3.org/2000/svg" version="1.1">
 <metadata>
  <rdf:RDF xmlns:dc="http://purl.org/dc/elements/1.1/" xmlns:cc="http://creativecommons.org/ns#" xmlns:rdf="http://www.w3.org/1999/02/22-rdf-syntax-ns#">
   <cc:Work>
    <dc:type rdf:resource="http://purl.org/dc/dcmitype/StillImage"/>
    <dc:date>2026-06-27T22:59:15.193459</dc:date>
    <dc:format>image/svg+xml</dc:format>
    <dc:creator>
     <cc:Agent>
      <dc:title>Matplotlib v3.10.9, https://matplotlib.org/</dc:title>
     </cc:Agent>
    </dc:creator>
   </cc:Work>
  </rdf:RDF>
 </metadata>
 <defs>
  <style type="text/css">*{stroke-linejoin: round; stroke-linecap: butt}</style>
 </defs>
 <g id="figure_1">
  <g id="patch_1">
   <path d="M 0 336.96 
L 784.8 336.96 
L 784.8 0 
L 0 0 
z
" style="fill: #ffffff"/>
  </g>
  <g id="axes_1">
   <g id="patch_2">
    <path d="M 36.732 45.26208 
L 311.508 45.26208 
Q 316.644 45.26208 316.644 42.6816 
L 316.644 33.0048 
Q 316.644 30.42432 311.508 30.42432 
L 36.732 30.42432 
Q 31.596 30.42432 31.596 33.0048 
L 31.596 42.6816 
Q 31.596 45.26208 36.732 45.26208 
z
" clip-path="url(#p69f382ce0b)" style="fill: #1f3a5f; stroke: #1f3a5f; stroke-linejoin: miter"/>
   </g>
   <g id="patch_3">
    <path d="M 36.732 142.03008 
L 311.508 142.03008 
Q 316.644 142.03008 316.644 139.4496 
L 316.644 129.7728 
Q 316.644 127.19232 311.508 127.19232 
L 36.732 127.19232 
Q 31.596 127.19232 31.596 129.7728 
L 31.596 139.4496 
Q 31.596 142.03008 36.732 142.03008 
z
" clip-path="url(#p69f382ce0b)" style="fill: #1f3a5f; stroke: #1f3a5f; stroke-linejoin: miter"/>
   </g>
   <g id="patch_4">
    <path d="M 36.732 206.54208 
L 311.508 206.54208 
Q 316.644 206.54208 316.644 203.9616 
L 316.644 194.2848 
Q 316.644 191.70432 311.508 191.70432 
L 36.732 191.70432 
Q 31.596 191.70432 31.596 194.2848 
L 31.596 203.9616 
Q 31.596 206.54208 36.732 206.54208 
z
" clip-path="url(#p69f382ce0b)" style="fill: #1f3a5f; stroke: #1f3a5f; stroke-linejoin: miter"/>
   </g>
   <g id="patch_5">
    <path d="M 36.732 271.05408 
L 311.508 271.05408 
Q 316.644 271.05408 316.644 268.4736 
L 316.644 258.7968 
Q 316.644 256.21632 311.508 256.21632 
L 36.732 256.21632 
Q 31.596 256.21632 31.596 258.7968 
L 31.596 268.4736 
Q 31.596 271.05408 36.732 271.05408 
z
" clip-path="url(#p69f382ce0b)" style="fill: #1f3a5f; stroke: #1f3a5f; stroke-linejoin: miter"/>
   </g>
   <g id="line2d_1">
    <path d="M 64.98 70.0992 
L 81.03 70.0992 
" clip-path="url(#p69f382ce0b)" style="fill: none; stroke: #41607f; stroke-linecap: square"/>
   </g>
   <g id="line2d_2">
    <path d="M 64.98 102.3552 
L 81.03 102.3552 
" clip-path="url(#p69f382ce0b)" style="fill: none; stroke: #41607f; stroke-linecap: square"/>
   </g>
   <g id="line2d_3">
    <path d="M 64.98 166.8672 
L 81.03 166.8672 
" clip-path="url(#p69f382ce0b)" style="fill: none; stroke: #41607f; stroke-linecap: square"/>
   </g>
   <g id="line2d_4">
    <path d="M 64.98 231.3792 
L 81.03 231.3792 
" clip-path="url(#p69f382ce0b)" style="fill: none; stroke: #41607f; stroke-linecap: square"/>
   </g>
   <g id="line2d_5">
    <path d="M 64.98 295.8912 
L 81.03 295.8912 
" clip-path="url(#p69f382ce0b)" style="fill: none; stroke: #41607f; stroke-linecap: square"/>
   </g>
   <g id="text_1">
    <!-- Structured Rate Trades -->
    <g style="fill: #1f3a5f" transform="translate(20.04 23.328) scale(0.13 -0.13)">
     <defs>
      <path id="DejaVuSans-Bold-53" d="M 3834 4519 
L 3834 3531 
Q 3450 3703 3084 3790 
Q 2719 3878 2394 3878 
Q 1963 3878 1756 3759 
Q 1550 3641 1550 3391 
Q 1550 3203 1689 3098 
Q 1828 2994 2194 2919 
L 2706 2816 
Q 3484 2659 3812 2340 
Q 4141 2022 4141 1434 
Q 4141 663 3683 286 
Q 3225 -91 2284 -91 
Q 1841 -91 1394 -6 
Q 947 78 500 244 
L 500 1259 
Q 947 1022 1364 901 
Q 1781 781 2169 781 
Q 2563 781 2772 912 
Q 2981 1044 2981 1288 
Q 2981 1506 2839 1625 
Q 2697 1744 2272 1838 
L 1806 1941 
Q 1106 2091 782 2419 
Q 459 2747 459 3303 
Q 459 4000 909 4375 
Q 1359 4750 2203 4750 
Q 2588 4750 2994 4692 
Q 3400 4634 3834 4519 
z
" transform="scale(0.015625)"/>
      <path id="DejaVuSans-Bold-74" d="M 1759 4494 
L 1759 3500 
L 2913 3500 
L 2913 2700 
L 1759 2700 
L 1759 1216 
Q 1759 972 1856 886 
Q 1953 800 2241 800 
L 2816 800 
L 2816 0 
L 1856 0 
Q 1194 0 917 276 
Q 641 553 641 1216 
L 641 2700 
L 84 2700 
L 84 3500 
L 641 3500 
L 641 4494 
L 1759 4494 
z
" transform="scale(0.015625)"/>
      <path id="DejaVuSans-Bold-72" d="M 3138 2547 
Q 2991 2616 2845 2648 
Q 2700 2681 2553 2681 
Q 2122 2681 1889 2404 
Q 1656 2128 1656 1613 
L 1656 0 
L 538 0 
L 538 3500 
L 1656 3500 
L 1656 2925 
Q 1872 3269 2151 3426 
Q 2431 3584 2822 3584 
Q 2878 3584 2943 3579 
Q 3009 3575 3134 3559 
L 3138 2547 
z
" transform="scale(0.015625)"/>
      <path id="DejaVuSans-Bold-75" d="M 500 1363 
L 500 3500 
L 1625 3500 
L 1625 3150 
Q 1625 2866 1622 2436 
Q 1619 2006 1619 1863 
Q 1619 1441 1641 1255 
Q 1663 1069 1716 984 
Q 1784 875 1895 815 
Q 2006 756 2150 756 
Q 2500 756 2700 1025 
Q 2900 1294 2900 1772 
L 2900 3500 
L 4019 3500 
L 4019 0 
L 2900 0 
L 2900 506 
Q 2647 200 2364 54 
Q 2081 -91 1741 -91 
Q 1134 -91 817 281 
Q 500 653 500 1363 
z
" transform="scale(0.015625)"/>
      <path id="DejaVuSans-Bold-63" d="M 3366 3391 
L 3366 2478 
Q 3138 2634 2908 2709 
Q 2678 2784 2431 2784 
Q 1963 2784 1702 2511 
Q 1441 2238 1441 1747 
Q 1441 1256 1702 982 
Q 1963 709 2431 709 
Q 2694 709 2930 787 
Q 3166 866 3366 1019 
L 3366 103 
Q 3103 6 2833 -42 
Q 2563 -91 2291 -91 
Q 1344 -91 809 395 
Q 275 881 275 1747 
Q 275 2613 809 3098 
Q 1344 3584 2291 3584 
Q 2566 3584 2833 3536 
Q 3100 3488 3366 3391 
z
" transform="scale(0.015625)"/>
      <path id="DejaVuSans-Bold-65" d="M 4031 1759 
L 4031 1441 
L 1416 1441 
Q 1456 1047 1700 850 
Q 1944 653 2381 653 
Q 2734 653 3104 758 
Q 3475 863 3866 1075 
L 3866 213 
Q 3469 63 3072 -14 
Q 2675 -91 2278 -91 
Q 1328 -91 801 392 
Q 275 875 275 1747 
Q 275 2603 792 3093 
Q 1309 3584 2216 3584 
Q 3041 3584 3536 3087 
Q 4031 2591 4031 1759 
z
M 2881 2131 
Q 2881 2450 2695 2645 
Q 2509 2841 2209 2841 
Q 1884 2841 1681 2658 
Q 1478 2475 1428 2131 
L 2881 2131 
z
" transform="scale(0.015625)"/>
      <path id="DejaVuSans-Bold-64" d="M 2919 2988 
L 2919 4863 
L 4044 4863 
L 4044 0 
L 2919 0 
L 2919 506 
Q 2688 197 2409 53 
Q 2131 -91 1766 -91 
Q 1119 -91 703 423 
Q 288 938 288 1747 
Q 288 2556 703 3070 
Q 1119 3584 1766 3584 
Q 2128 3584 2408 3439 
Q 2688 3294 2919 2988 
z
M 2181 722 
Q 2541 722 2730 984 
Q 2919 1247 2919 1747 
Q 2919 2247 2730 2509 
Q 2541 2772 2181 2772 
Q 1825 2772 1636 2509 
Q 1447 2247 1447 1747 
Q 1447 1247 1636 984 
Q 1825 722 2181 722 
z
" transform="scale(0.015625)"/>
      <path id="DejaVuSans-Bold-20" transform="scale(0.015625)"/>
      <path id="DejaVuSans-Bold-52" d="M 2297 2597 
Q 2675 2597 2839 2737 
Q 3003 2878 3003 3200 
Q 3003 3519 2839 3656 
Q 2675 3794 2297 3794 
L 1791 3794 
L 1791 2597 
L 2297 2597 
z
M 1791 1766 
L 1791 0 
L 588 0 
L 588 4666 
L 2425 4666 
Q 3347 4666 3776 4356 
Q 4206 4047 4206 3378 
Q 4206 2916 3982 2619 
Q 3759 2322 3309 2181 
Q 3556 2125 3751 1926 
Q 3947 1728 4147 1325 
L 4800 0 
L 3519 0 
L 2950 1159 
Q 2778 1509 2601 1637 
Q 2425 1766 2131 1766 
L 1791 1766 
z
" transform="scale(0.015625)"/>
      <path id="DejaVuSans-Bold-61" d="M 2106 1575 
Q 1756 1575 1579 1456 
Q 1403 1338 1403 1106 
Q 1403 894 1545 773 
Q 1688 653 1941 653 
Q 2256 653 2472 879 
Q 2688 1106 2688 1447 
L 2688 1575 
L 2106 1575 
z
M 3816 1997 
L 3816 0 
L 2688 0 
L 2688 519 
Q 2463 200 2181 54 
Q 1900 -91 1497 -91 
Q 953 -91 614 226 
Q 275 544 275 1050 
Q 275 1666 698 1953 
Q 1122 2241 2028 2241 
L 2688 2241 
L 2688 2328 
Q 2688 2594 2478 2717 
Q 2269 2841 1825 2841 
Q 1466 2841 1156 2769 
Q 847 2697 581 2553 
L 581 3406 
Q 941 3494 1303 3539 
Q 1666 3584 2028 3584 
Q 2975 3584 3395 3211 
Q 3816 2838 3816 1997 
z
" transform="scale(0.015625)"/>
      <path id="DejaVuSans-Bold-54" d="M 31 4666 
L 4331 4666 
L 4331 3756 
L 2784 3756 
L 2784 0 
L 1581 0 
L 1581 3756 
L 31 3756 
L 31 4666 
z
" transform="scale(0.015625)"/>
      <path id="DejaVuSans-Bold-73" d="M 3272 3391 
L 3272 2541 
Q 2913 2691 2578 2766 
Q 2244 2841 1947 2841 
Q 1628 2841 1473 2761 
Q 1319 2681 1319 2516 
Q 1319 2381 1436 2309 
Q 1553 2238 1856 2203 
L 2053 2175 
Q 2913 2066 3209 1816 
Q 3506 1566 3506 1031 
Q 3506 472 3093 190 
Q 2681 -91 1863 -91 
Q 1516 -91 1145 -36 
Q 775 19 384 128 
L 384 978 
Q 719 816 1070 734 
Q 1422 653 1784 653 
Q 2113 653 2278 743 
Q 2444 834 2444 1013 
Q 2444 1163 2330 1236 
Q 2216 1309 1875 1350 
L 1678 1375 
Q 931 1469 631 1722 
Q 331 1975 331 2491 
Q 331 3047 712 3315 
Q 1094 3584 1881 3584 
Q 2191 3584 2531 3537 
Q 2872 3491 3272 3391 
z
" transform="scale(0.015625)"/>
     </defs>
     <use xlink:href="#DejaVuSans-Bold-53"/>
     <use xlink:href="#DejaVuSans-Bold-74" transform="translate(72.021484 0)"/>
     <use xlink:href="#DejaVuSans-Bold-72" transform="translate(119.824219 0)"/>
     <use xlink:href="#DejaVuSans-Bold-75" transform="translate(169.140625 0)"/>
     <use xlink:href="#DejaVuSans-Bold-63" transform="translate(240.332031 0)"/>
     <use xlink:href="#DejaVuSans-Bold-74" transform="translate(299.609375 0)"/>
     <use xlink:href="#DejaVuSans-Bold-75" transform="translate(347.412109 0)"/>
     <use xlink:href="#DejaVuSans-Bold-72" transform="translate(418.603516 0)"/>
     <use xlink:href="#DejaVuSans-Bold-65" transform="translate(467.919922 0)"/>
     <use xlink:href="#DejaVuSans-Bold-64" transform="translate(535.742188 0)"/>
     <use xlink:href="#DejaVuSans-Bold-20" transform="translate(607.324219 0)"/>
     <use xlink:href="#DejaVuSans-Bold-52" transform="translate(642.138672 0)"/>
     <use xlink:href="#DejaVuSans-Bold-61" transform="translate(719.140625 0)"/>
     <use xlink:href="#DejaVuSans-Bold-74" transform="translate(786.621094 0)"/>
     <use xlink:href="#DejaVuSans-Bold-65" transform="translate(834.423828 0)"/>
     <use xlink:href="#DejaVuSans-Bold-20" transform="translate(902.246094 0)"/>
     <use xlink:href="#DejaVuSans-Bold-54" transform="translate(937.060547 0)"/>
     <use xlink:href="#DejaVuSans-Bold-72" transform="translate(994.273438 0)"/>
     <use xlink:href="#DejaVuSans-Bold-61" transform="translate(1043.589844 0)"/>
     <use xlink:href="#DejaVuSans-Bold-64" transform="translate(1111.070312 0)"/>
     <use xlink:href="#DejaVuSans-Bold-65" transform="translate(1182.652344 0)"/>
     <use xlink:href="#DejaVuSans-Bold-73" transform="translate(1250.474609 0)"/>
    </g>
   </g>
   <g id="text_2">
    <!-- Callable -->
    <g style="fill: #ffffff" transform="translate(48.93 40.602575) scale(0.1 -0.1)">
     <defs>
      <path id="DejaVuSans-Bold-43" d="M 4288 256 
Q 3956 84 3597 -3 
Q 3238 -91 2847 -91 
Q 1681 -91 1000 561 
Q 319 1213 319 2328 
Q 319 3447 1000 4098 
Q 1681 4750 2847 4750 
Q 3238 4750 3597 4662 
Q 3956 4575 4288 4403 
L 4288 3438 
Q 3953 3666 3628 3772 
Q 3303 3878 2944 3878 
Q 2300 3878 1931 3465 
Q 1563 3053 1563 2328 
Q 1563 1606 1931 1193 
Q 2300 781 2944 781 
Q 3303 781 3628 887 
Q 3953 994 4288 1222 
L 4288 256 
z
" transform="scale(0.015625)"/>
      <path id="DejaVuSans-Bold-6c" d="M 538 4863 
L 1656 4863 
L 1656 0 
L 538 0 
L 538 4863 
z
" transform="scale(0.015625)"/>
      <path id="DejaVuSans-Bold-62" d="M 2400 722 
Q 2759 722 2948 984 
Q 3138 1247 3138 1747 
Q 3138 2247 2948 2509 
Q 2759 2772 2400 2772 
Q 2041 2772 1848 2508 
Q 1656 2244 1656 1747 
Q 1656 1250 1848 986 
Q 2041 722 2400 722 
z
M 1656 2988 
Q 1888 3294 2169 3439 
Q 2450 3584 2816 3584 
Q 3463 3584 3878 3070 
Q 4294 2556 4294 1747 
Q 4294 938 3878 423 
Q 3463 -91 2816 -91 
Q 2450 -91 2169 54 
Q 1888 200 1656 506 
L 1656 0 
L 538 0 
L 538 4863 
L 1656 4863 
L 1656 2988 
z
" transform="scale(0.015625)"/>
     </defs>
     <use xlink:href="#DejaVuSans-Bold-43"/>
     <use xlink:href="#DejaVuSans-Bold-61" transform="translate(73.388672 0)"/>
     <use xlink:href="#DejaVuSans-Bold-6c" transform="translate(140.869141 0)"/>
     <use xlink:href="#DejaVuSans-Bold-6c" transform="translate(175.146484 0)"/>
     <use xlink:href="#DejaVuSans-Bold-61" transform="translate(209.423828 0)"/>
     <use xlink:href="#DejaVuSans-Bold-62" transform="translate(276.904297 0)"/>
     <use xlink:href="#DejaVuSans-Bold-6c" transform="translate(348.486328 0)"/>
     <use xlink:href="#DejaVuSans-Bold-65" transform="translate(382.763672 0)"/>
    </g>
   </g>
   <g id="text_3">
    <!-- IR Callable Fixed Rate Swap -->
    <g style="fill: #1f3a5f" transform="translate(97.08 72.665419) scale(0.093 -0.093)">
     <defs>
      <path id="DejaVuSans-Bold-49" d="M 588 4666 
L 1791 4666 
L 1791 0 
L 588 0 
L 588 4666 
z
" transform="scale(0.015625)"/>
      <path id="DejaVuSans-Bold-46" d="M 588 4666 
L 3834 4666 
L 3834 3756 
L 1791 3756 
L 1791 2888 
L 3713 2888 
L 3713 1978 
L 1791 1978 
L 1791 0 
L 588 0 
L 588 4666 
z
" transform="scale(0.015625)"/>
      <path id="DejaVuSans-Bold-69" d="M 538 3500 
L 1656 3500 
L 1656 0 
L 538 0 
L 538 3500 
z
M 538 4863 
L 1656 4863 
L 1656 3950 
L 538 3950 
L 538 4863 
z
" transform="scale(0.015625)"/>
      <path id="DejaVuSans-Bold-78" d="M 1422 1791 
L 159 3500 
L 1344 3500 
L 2059 2463 
L 2784 3500 
L 3969 3500 
L 2706 1797 
L 4031 0 
L 2847 0 
L 2059 1106 
L 1281 0 
L 97 0 
L 1422 1791 
z
" transform="scale(0.015625)"/>
      <path id="DejaVuSans-Bold-77" d="M 225 3500 
L 1313 3500 
L 1900 1088 
L 2491 3500 
L 3425 3500 
L 4013 1113 
L 4603 3500 
L 5691 3500 
L 4769 0 
L 3547 0 
L 2956 2406 
L 2369 0 
L 1147 0 
L 225 3500 
z
" transform="scale(0.015625)"/>
      <path id="DejaVuSans-Bold-70" d="M 1656 506 
L 1656 -1331 
L 538 -1331 
L 538 3500 
L 1656 3500 
L 1656 2988 
Q 1888 3294 2169 3439 
Q 2450 3584 2816 3584 
Q 3463 3584 3878 3070 
Q 4294 2556 4294 1747 
Q 4294 938 3878 423 
Q 3463 -91 2816 -91 
Q 2450 -91 2169 54 
Q 1888 200 1656 506 
z
M 2400 2772 
Q 2041 2772 1848 2508 
Q 1656 2244 1656 1747 
Q 1656 1250 1848 986 
Q 2041 722 2400 722 
Q 2759 722 2948 984 
Q 3138 1247 3138 1747 
Q 3138 2247 2948 2509 
Q 2759 2772 2400 2772 
z
" transform="scale(0.015625)"/>
     </defs>
     <use xlink:href="#DejaVuSans-Bold-49"/>
     <use xlink:href="#DejaVuSans-Bold-52" transform="translate(37.207031 0)"/>
     <use xlink:href="#DejaVuSans-Bold-20" transform="translate(114.208984 0)"/>
     <use xlink:href="#DejaVuSans-Bold-43" transform="translate(149.023438 0)"/>
     <use xlink:href="#DejaVuSans-Bold-61" transform="translate(222.412109 0)"/>
     <use xlink:href="#DejaVuSans-Bold-6c" transform="translate(289.892578 0)"/>
     <use xlink:href="#DejaVuSans-Bold-6c" transform="translate(324.169922 0)"/>
     <use xlink:href="#DejaVuSans-Bold-61" transform="translate(358.447266 0)"/>
     <use xlink:href="#DejaVuSans-Bold-62" transform="translate(425.927734 0)"/>
     <use xlink:href="#DejaVuSans-Bold-6c" transform="translate(497.509766 0)"/>
     <use xlink:href="#DejaVuSans-Bold-65" transform="translate(531.787109 0)"/>
     <use xlink:href="#DejaVuSans-Bold-20" transform="translate(599.609375 0)"/>
     <use xlink:href="#DejaVuSans-Bold-46" transform="translate(634.423828 0)"/>
     <use xlink:href="#DejaVuSans-Bold-69" transform="translate(702.734375 0)"/>
     <use xlink:href="#DejaVuSans-Bold-78" transform="translate(737.011719 0)"/>
     <use xlink:href="#DejaVuSans-Bold-65" transform="translate(801.513672 0)"/>
     <use xlink:href="#DejaVuSans-Bold-64" transform="translate(869.335938 0)"/>
     <use xlink:href="#DejaVuSans-Bold-20" transform="translate(940.917969 0)"/>
     <use xlink:href="#DejaVuSans-Bold-52" transform="translate(975.732422 0)"/>
     <use xlink:href="#DejaVuSans-Bold-61" transform="translate(1052.734375 0)"/>
     <use xlink:href="#DejaVuSans-Bold-74" transform="translate(1120.214844 0)"/>
     <use xlink:href="#DejaVuSans-Bold-65" transform="translate(1168.017578 0)"/>
     <use xlink:href="#DejaVuSans-Bold-20" transform="translate(1235.839844 0)"/>
     <use xlink:href="#DejaVuSans-Bold-53" transform="translate(1270.654297 0)"/>
     <use xlink:href="#DejaVuSans-Bold-77" transform="translate(1342.675781 0)"/>
     <use xlink:href="#DejaVuSans-Bold-61" transform="translate(1435.058594 0)"/>
     <use xlink:href="#DejaVuSans-Bold-70" transform="translate(1502.539062 0)"/>
    </g>
   </g>
   <g id="text_4">
    <!-- Fixed coupon, but the issuer can redeem early if rates -->
    <g style="fill: #41607f" transform="translate(347.46 67.884366) scale(0.078 -0.078)">
     <defs>
      <path id="DejaVuSans-46" d="M 628 4666 
L 3309 4666 
L 3309 4134 
L 1259 4134 
L 1259 2759 
L 3109 2759 
L 3109 2228 
L 1259 2228 
L 1259 0 
L 628 0 
L 628 4666 
z
" transform="scale(0.015625)"/>
      <path id="DejaVuSans-69" d="M 603 3500 
L 1178 3500 
L 1178 0 
L 603 0 
L 603 3500 
z
M 603 4863 
L 1178 4863 
L 1178 4134 
L 603 4134 
L 603 4863 
z
" transform="scale(0.015625)"/>
      <path id="DejaVuSans-78" d="M 3513 3500 
L 2247 1797 
L 3578 0 
L 2900 0 
L 1881 1375 
L 863 0 
L 184 0 
L 1544 1831 
L 300 3500 
L 978 3500 
L 1906 2253 
L 2834 3500 
L 3513 3500 
z
" transform="scale(0.015625)"/>
      <path id="DejaVuSans-65" d="M 3597 1894 
L 3597 1613 
L 953 1613 
Q 991 1019 1311 708 
Q 1631 397 2203 397 
Q 2534 397 2845 478 
Q 3156 559 3463 722 
L 3463 178 
Q 3153 47 2828 -22 
Q 2503 -91 2169 -91 
Q 1331 -91 842 396 
Q 353 884 353 1716 
Q 353 2575 817 3079 
Q 1281 3584 2069 3584 
Q 2775 3584 3186 3129 
Q 3597 2675 3597 1894 
z
M 3022 2063 
Q 3016 2534 2758 2815 
Q 2500 3097 2075 3097 
Q 1594 3097 1305 2825 
Q 1016 2553 972 2059 
L 3022 2063 
z
" transform="scale(0.015625)"/>
      <path id="DejaVuSans-64" d="M 2906 2969 
L 2906 4863 
L 3481 4863 
L 3481 0 
L 2906 0 
L 2906 525 
Q 2725 213 2448 61 
Q 2172 -91 1784 -91 
Q 1150 -91 751 415 
Q 353 922 353 1747 
Q 353 2572 751 3078 
Q 1150 3584 1784 3584 
Q 2172 3584 2448 3432 
Q 2725 3281 2906 2969 
z
M 947 1747 
Q 947 1113 1208 752 
Q 1469 391 1925 391 
Q 2381 391 2643 752 
Q 2906 1113 2906 1747 
Q 2906 2381 2643 2742 
Q 2381 3103 1925 3103 
Q 1469 3103 1208 2742 
Q 947 2381 947 1747 
z
" transform="scale(0.015625)"/>
      <path id="DejaVuSans-20" transform="scale(0.015625)"/>
      <path id="DejaVuSans-63" d="M 3122 3366 
L 3122 2828 
Q 2878 2963 2633 3030 
Q 2388 3097 2138 3097 
Q 1578 3097 1268 2742 
Q 959 2388 959 1747 
Q 959 1106 1268 751 
Q 1578 397 2138 397 
Q 2388 397 2633 464 
Q 2878 531 3122 666 
L 3122 134 
Q 2881 22 2623 -34 
Q 2366 -91 2075 -91 
Q 1284 -91 818 406 
Q 353 903 353 1747 
Q 353 2603 823 3093 
Q 1294 3584 2113 3584 
Q 2378 3584 2631 3529 
Q 2884 3475 3122 3366 
z
" transform="scale(0.015625)"/>
      <path id="DejaVuSans-6f" d="M 1959 3097 
Q 1497 3097 1228 2736 
Q 959 2375 959 1747 
Q 959 1119 1226 758 
Q 1494 397 1959 397 
Q 2419 397 2687 759 
Q 2956 1122 2956 1747 
Q 2956 2369 2687 2733 
Q 2419 3097 1959 3097 
z
M 1959 3584 
Q 2709 3584 3137 3096 
Q 3566 2609 3566 1747 
Q 3566 888 3137 398 
Q 2709 -91 1959 -91 
Q 1206 -91 779 398 
Q 353 888 353 1747 
Q 353 2609 779 3096 
Q 1206 3584 1959 3584 
z
" transform="scale(0.015625)"/>
      <path id="DejaVuSans-75" d="M 544 1381 
L 544 3500 
L 1119 3500 
L 1119 1403 
Q 1119 906 1312 657 
Q 1506 409 1894 409 
Q 2359 409 2629 706 
Q 2900 1003 2900 1516 
L 2900 3500 
L 3475 3500 
L 3475 0 
L 2900 0 
L 2900 538 
Q 2691 219 2414 64 
Q 2138 -91 1772 -91 
Q 1169 -91 856 284 
Q 544 659 544 1381 
z
M 1991 3584 
L 1991 3584 
z
" transform="scale(0.015625)"/>
      <path id="DejaVuSans-70" d="M 1159 525 
L 1159 -1331 
L 581 -1331 
L 581 3500 
L 1159 3500 
L 1159 2969 
Q 1341 3281 1617 3432 
Q 1894 3584 2278 3584 
Q 2916 3584 3314 3078 
Q 3713 2572 3713 1747 
Q 3713 922 3314 415 
Q 2916 -91 2278 -91 
Q 1894 -91 1617 61 
Q 1341 213 1159 525 
z
M 3116 1747 
Q 3116 2381 2855 2742 
Q 2594 3103 2138 3103 
Q 1681 3103 1420 2742 
Q 1159 2381 1159 1747 
Q 1159 1113 1420 752 
Q 1681 391 2138 391 
Q 2594 391 2855 752 
Q 3116 1113 3116 1747 
z
" transform="scale(0.015625)"/>
      <path id="DejaVuSans-6e" d="M 3513 2113 
L 3513 0 
L 2938 0 
L 2938 2094 
Q 2938 2591 2744 2837 
Q 2550 3084 2163 3084 
Q 1697 3084 1428 2787 
Q 1159 2491 1159 1978 
L 1159 0 
L 581 0 
L 581 3500 
L 1159 3500 
L 1159 2956 
Q 1366 3272 1645 3428 
Q 1925 3584 2291 3584 
Q 2894 3584 3203 3211 
Q 3513 2838 3513 2113 
z
" transform="scale(0.015625)"/>
      <path id="DejaVuSans-2c" d="M 750 794 
L 1409 794 
L 1409 256 
L 897 -744 
L 494 -744 
L 750 256 
L 750 794 
z
" transform="scale(0.015625)"/>
      <path id="DejaVuSans-62" d="M 3116 1747 
Q 3116 2381 2855 2742 
Q 2594 3103 2138 3103 
Q 1681 3103 1420 2742 
Q 1159 2381 1159 1747 
Q 1159 1113 1420 752 
Q 1681 391 2138 391 
Q 2594 391 2855 752 
Q 3116 1113 3116 1747 
z
M 1159 2969 
Q 1341 3281 1617 3432 
Q 1894 3584 2278 3584 
Q 2916 3584 3314 3078 
Q 3713 2572 3713 1747 
Q 3713 922 3314 415 
Q 2916 -91 2278 -91 
Q 1894 -91 1617 61 
Q 1341 213 1159 525 
L 1159 0 
L 581 0 
L 581 4863 
L 1159 4863 
L 1159 2969 
z
" transform="scale(0.015625)"/>
      <path id="DejaVuSans-74" d="M 1172 4494 
L 1172 3500 
L 2356 3500 
L 2356 3053 
L 1172 3053 
L 1172 1153 
Q 1172 725 1289 603 
Q 1406 481 1766 481 
L 2356 481 
L 2356 0 
L 1766 0 
Q 1100 0 847 248 
Q 594 497 594 1153 
L 594 3053 
L 172 3053 
L 172 3500 
L 594 3500 
L 594 4494 
L 1172 4494 
z
" transform="scale(0.015625)"/>
      <path id="DejaVuSans-68" d="M 3513 2113 
L 3513 0 
L 2938 0 
L 2938 2094 
Q 2938 2591 2744 2837 
Q 2550 3084 2163 3084 
Q 1697 3084 1428 2787 
Q 1159 2491 1159 1978 
L 1159 0 
L 581 0 
L 581 4863 
L 1159 4863 
L 1159 2956 
Q 1366 3272 1645 3428 
Q 1925 3584 2291 3584 
Q 2894 3584 3203 3211 
Q 3513 2838 3513 2113 
z
" transform="scale(0.015625)"/>
      <path id="DejaVuSans-73" d="M 2834 3397 
L 2834 2853 
Q 2591 2978 2328 3040 
Q 2066 3103 1784 3103 
Q 1356 3103 1142 2972 
Q 928 2841 928 2578 
Q 928 2378 1081 2264 
Q 1234 2150 1697 2047 
L 1894 2003 
Q 2506 1872 2764 1633 
Q 3022 1394 3022 966 
Q 3022 478 2636 193 
Q 2250 -91 1575 -91 
Q 1294 -91 989 -36 
Q 684 19 347 128 
L 347 722 
Q 666 556 975 473 
Q 1284 391 1588 391 
Q 1994 391 2212 530 
Q 2431 669 2431 922 
Q 2431 1156 2273 1281 
Q 2116 1406 1581 1522 
L 1381 1569 
Q 847 1681 609 1914 
Q 372 2147 372 2553 
Q 372 3047 722 3315 
Q 1072 3584 1716 3584 
Q 2034 3584 2315 3537 
Q 2597 3491 2834 3397 
z
" transform="scale(0.015625)"/>
      <path id="DejaVuSans-72" d="M 2631 2963 
Q 2534 3019 2420 3045 
Q 2306 3072 2169 3072 
Q 1681 3072 1420 2755 
Q 1159 2438 1159 1844 
L 1159 0 
L 581 0 
L 581 3500 
L 1159 3500 
L 1159 2956 
Q 1341 3275 1631 3429 
Q 1922 3584 2338 3584 
Q 2397 3584 2469 3576 
Q 2541 3569 2628 3553 
L 2631 2963 
z
" transform="scale(0.015625)"/>
      <path id="DejaVuSans-61" d="M 2194 1759 
Q 1497 1759 1228 1600 
Q 959 1441 959 1056 
Q 959 750 1161 570 
Q 1363 391 1709 391 
Q 2188 391 2477 730 
Q 2766 1069 2766 1631 
L 2766 1759 
L 2194 1759 
z
M 3341 1997 
L 3341 0 
L 2766 0 
L 2766 531 
Q 2569 213 2275 61 
Q 1981 -91 1556 -91 
Q 1019 -91 701 211 
Q 384 513 384 1019 
Q 384 1609 779 1909 
Q 1175 2209 1959 2209 
L 2766 2209 
L 2766 2266 
Q 2766 2663 2505 2880 
Q 2244 3097 1772 3097 
Q 1472 3097 1187 3025 
Q 903 2953 641 2809 
L 641 3341 
Q 956 3463 1253 3523 
Q 1550 3584 1831 3584 
Q 2591 3584 2966 3190 
Q 3341 2797 3341 1997 
z
" transform="scale(0.015625)"/>
      <path id="DejaVuSans-6d" d="M 3328 2828 
Q 3544 3216 3844 3400 
Q 4144 3584 4550 3584 
Q 5097 3584 5394 3201 
Q 5691 2819 5691 2113 
L 5691 0 
L 5113 0 
L 5113 2094 
Q 5113 2597 4934 2840 
Q 4756 3084 4391 3084 
Q 3944 3084 3684 2787 
Q 3425 2491 3425 1978 
L 3425 0 
L 2847 0 
L 2847 2094 
Q 2847 2600 2669 2842 
Q 2491 3084 2119 3084 
Q 1678 3084 1418 2786 
Q 1159 2488 1159 1978 
L 1159 0 
L 581 0 
L 581 3500 
L 1159 3500 
L 1159 2956 
Q 1356 3278 1631 3431 
Q 1906 3584 2284 3584 
Q 2666 3584 2933 3390 
Q 3200 3197 3328 2828 
z
" transform="scale(0.015625)"/>
      <path id="DejaVuSans-6c" d="M 603 4863 
L 1178 4863 
L 1178 0 
L 603 0 
L 603 4863 
z
" transform="scale(0.015625)"/>
      <path id="DejaVuSans-79" d="M 2059 -325 
Q 1816 -950 1584 -1140 
Q 1353 -1331 966 -1331 
L 506 -1331 
L 506 -850 
L 844 -850 
Q 1081 -850 1212 -737 
Q 1344 -625 1503 -206 
L 1606 56 
L 191 3500 
L 800 3500 
L 1894 763 
L 2988 3500 
L 3597 3500 
L 2059 -325 
z
" transform="scale(0.015625)"/>
      <path id="DejaVuSans-66" d="M 2375 4863 
L 2375 4384 
L 1825 4384 
Q 1516 4384 1395 4259 
Q 1275 4134 1275 3809 
L 1275 3500 
L 2222 3500 
L 2222 3053 
L 1275 3053 
L 1275 0 
L 697 0 
L 697 3053 
L 147 3053 
L 147 3500 
L 697 3500 
L 697 3744 
Q 697 4328 969 4595 
Q 1241 4863 1831 4863 
L 2375 4863 
z
" transform="scale(0.015625)"/>
     </defs>
     <use xlink:href="#DejaVuSans-46"/>
     <use xlink:href="#DejaVuSans-69" transform="translate(50.269531 0)"/>
     <use xlink:href="#DejaVuSans-78" transform="translate(78.052734 0)"/>
     <use xlink:href="#DejaVuSans-65" transform="translate(134.107422 0)"/>
     <use xlink:href="#DejaVuSans-64" transform="translate(195.630859 0)"/>
     <use xlink:href="#DejaVuSans-20" transform="translate(259.107422 0)"/>
     <use xlink:href="#DejaVuSans-63" transform="translate(290.894531 0)"/>
     <use xlink:href="#DejaVuSans-6f" transform="translate(345.875 0)"/>
     <use xlink:href="#DejaVuSans-75" transform="translate(407.056641 0)"/>
     <use xlink:href="#DejaVuSans-70" transform="translate(470.435547 0)"/>
     <use xlink:href="#DejaVuSans-6f" transform="translate(533.912109 0)"/>
     <use xlink:href="#DejaVuSans-6e" transform="translate(595.09375 0)"/>
     <use xlink:href="#DejaVuSans-2c" transform="translate(658.472656 0)"/>
     <use xlink:href="#DejaVuSans-20" transform="translate(690.259766 0)"/>
     <use xlink:href="#DejaVuSans-62" transform="translate(722.046875 0)"/>
     <use xlink:href="#DejaVuSans-75" transform="translate(785.523438 0)"/>
     <use xlink:href="#DejaVuSans-74" transform="translate(848.902344 0)"/>
     <use xlink:href="#DejaVuSans-20" transform="translate(888.111328 0)"/>
     <use xlink:href="#DejaVuSans-74" transform="translate(919.898438 0)"/>
     <use xlink:href="#DejaVuSans-68" transform="translate(959.107422 0)"/>
     <use xlink:href="#DejaVuSans-65" transform="translate(1022.486328 0)"/>
     <use xlink:href="#DejaVuSans-20" transform="translate(1084.009766 0)"/>
     <use xlink:href="#DejaVuSans-69" transform="translate(1115.796875 0)"/>
     <use xlink:href="#DejaVuSans-73" transform="translate(1143.580078 0)"/>
     <use xlink:href="#DejaVuSans-73" transform="translate(1195.679688 0)"/>
     <use xlink:href="#DejaVuSans-75" transform="translate(1247.779297 0)"/>
     <use xlink:href="#DejaVuSans-65" transform="translate(1311.158203 0)"/>
     <use xlink:href="#DejaVuSans-72" transform="translate(1372.681641 0)"/>
     <use xlink:href="#DejaVuSans-20" transform="translate(1413.794922 0)"/>
     <use xlink:href="#DejaVuSans-63" transform="translate(1445.582031 0)"/>
     <use xlink:href="#DejaVuSans-61" transform="translate(1500.5625 0)"/>
     <use xlink:href="#DejaVuSans-6e" transform="translate(1561.841797 0)"/>
     <use xlink:href="#DejaVuSans-20" transform="translate(1625.220703 0)"/>
     <use xlink:href="#DejaVuSans-72" transform="translate(1657.007812 0)"/>
     <use xlink:href="#DejaVuSans-65" transform="translate(1695.871094 0)"/>
     <use xlink:href="#DejaVuSans-64" transform="translate(1757.394531 0)"/>
     <use xlink:href="#DejaVuSans-65" transform="translate(1820.871094 0)"/>
     <use xlink:href="#DejaVuSans-65" transform="translate(1882.394531 0)"/>
     <use xlink:href="#DejaVuSans-6d" transform="translate(1943.917969 0)"/>
     <use xlink:href="#DejaVuSans-20" transform="translate(2041.330078 0)"/>
     <use xlink:href="#DejaVuSans-65" transform="translate(2073.117188 0)"/>
     <use xlink:href="#DejaVuSans-61" transform="translate(2134.640625 0)"/>
     <use xlink:href="#DejaVuSans-72" transform="translate(2195.919922 0)"/>
     <use xlink:href="#DejaVuSans-6c" transform="translate(2237.033203 0)"/>
     <use xlink:href="#DejaVuSans-79" transform="translate(2264.816406 0)"/>
     <use xlink:href="#DejaVuSans-20" transform="translate(2323.996094 0)"/>
     <use xlink:href="#DejaVuSans-69" transform="translate(2355.783203 0)"/>
     <use xlink:href="#DejaVuSans-66" transform="translate(2383.566406 0)"/>
     <use xlink:href="#DejaVuSans-20" transform="translate(2418.771484 0)"/>
     <use xlink:href="#DejaVuSans-72" transform="translate(2450.558594 0)"/>
     <use xlink:href="#DejaVuSans-61" transform="translate(2491.671875 0)"/>
     <use xlink:href="#DejaVuSans-74" transform="translate(2552.951172 0)"/>
     <use xlink:href="#DejaVuSans-65" transform="translate(2592.160156 0)"/>
     <use xlink:href="#DejaVuSans-73" transform="translate(2653.683594 0)"/>
    </g>
    <!-- move in its favour -->
    <g style="fill: #41607f" transform="translate(347.46 76.618659) scale(0.078 -0.078)">
     <defs>
      <path id="DejaVuSans-76" d="M 191 3500 
L 800 3500 
L 1894 563 
L 2988 3500 
L 3597 3500 
L 2284 0 
L 1503 0 
L 191 3500 
z
" transform="scale(0.015625)"/>
     </defs>
     <use xlink:href="#DejaVuSans-6d"/>
     <use xlink:href="#DejaVuSans-6f" transform="translate(97.412109 0)"/>
     <use xlink:href="#DejaVuSans-76" transform="translate(158.59375 0)"/>
     <use xlink:href="#DejaVuSans-65" transform="translate(217.773438 0)"/>
     <use xlink:href="#DejaVuSans-20" transform="translate(279.296875 0)"/>
     <use xlink:href="#DejaVuSans-69" transform="translate(311.083984 0)"/>
     <use xlink:href="#DejaVuSans-6e" transform="translate(338.867188 0)"/>
     <use xlink:href="#DejaVuSans-20" transform="translate(402.246094 0)"/>
     <use xlink:href="#DejaVuSans-69" transform="translate(434.033203 0)"/>
     <use xlink:href="#DejaVuSans-74" transform="translate(461.816406 0)"/>
     <use xlink:href="#DejaVuSans-73" transform="translate(501.025391 0)"/>
     <use xlink:href="#DejaVuSans-20" transform="translate(553.125 0)"/>
     <use xlink:href="#DejaVuSans-66" transform="translate(584.912109 0)"/>
     <use xlink:href="#DejaVuSans-61" transform="translate(620.117188 0)"/>
     <use xlink:href="#DejaVuSans-76" transform="translate(681.396484 0)"/>
     <use xlink:href="#DejaVuSans-6f" transform="translate(740.576172 0)"/>
     <use xlink:href="#DejaVuSans-75" transform="translate(801.757812 0)"/>
     <use xlink:href="#DejaVuSans-72" transform="translate(865.136719 0)"/>
    </g>
   </g>
   <g id="text_5">
    <!-- IR Callable Range Accrual -->
    <g style="fill: #1f3a5f" transform="translate(97.08 104.885091) scale(0.093 -0.093)">
     <defs>
      <path id="DejaVuSans-Bold-6e" d="M 4056 2131 
L 4056 0 
L 2931 0 
L 2931 347 
L 2931 1631 
Q 2931 2084 2911 2256 
Q 2891 2428 2841 2509 
Q 2775 2619 2662 2680 
Q 2550 2741 2406 2741 
Q 2056 2741 1856 2470 
Q 1656 2200 1656 1722 
L 1656 0 
L 538 0 
L 538 3500 
L 1656 3500 
L 1656 2988 
Q 1909 3294 2193 3439 
Q 2478 3584 2822 3584 
Q 3428 3584 3742 3212 
Q 4056 2841 4056 2131 
z
" transform="scale(0.015625)"/>
      <path id="DejaVuSans-Bold-67" d="M 2919 594 
Q 2688 288 2409 144 
Q 2131 0 1766 0 
Q 1125 0 706 504 
Q 288 1009 288 1791 
Q 288 2575 706 3076 
Q 1125 3578 1766 3578 
Q 2131 3578 2409 3434 
Q 2688 3291 2919 2981 
L 2919 3500 
L 4044 3500 
L 4044 353 
Q 4044 -491 3511 -936 
Q 2978 -1381 1966 -1381 
Q 1638 -1381 1331 -1331 
Q 1025 -1281 716 -1178 
L 716 -306 
Q 1009 -475 1290 -558 
Q 1572 -641 1856 -641 
Q 2406 -641 2662 -400 
Q 2919 -159 2919 353 
L 2919 594 
z
M 2181 2772 
Q 1834 2772 1640 2515 
Q 1447 2259 1447 1791 
Q 1447 1309 1634 1061 
Q 1822 813 2181 813 
Q 2531 813 2725 1069 
Q 2919 1325 2919 1791 
Q 2919 2259 2725 2515 
Q 2531 2772 2181 2772 
z
" transform="scale(0.015625)"/>
      <path id="DejaVuSans-Bold-41" d="M 3419 850 
L 1538 850 
L 1241 0 
L 31 0 
L 1759 4666 
L 3194 4666 
L 4922 0 
L 3713 0 
L 3419 850 
z
M 1838 1716 
L 3116 1716 
L 2478 3572 
L 1838 1716 
z
" transform="scale(0.015625)"/>
     </defs>
     <use xlink:href="#DejaVuSans-Bold-49"/>
     <use xlink:href="#DejaVuSans-Bold-52" transform="translate(37.207031 0)"/>
     <use xlink:href="#DejaVuSans-Bold-20" transform="translate(114.208984 0)"/>
     <use xlink:href="#DejaVuSans-Bold-43" transform="translate(149.023438 0)"/>
     <use xlink:href="#DejaVuSans-Bold-61" transform="translate(222.412109 0)"/>
     <use xlink:href="#DejaVuSans-Bold-6c" transform="translate(289.892578 0)"/>
     <use xlink:href="#DejaVuSans-Bold-6c" transform="translate(324.169922 0)"/>
     <use xlink:href="#DejaVuSans-Bold-61" transform="translate(358.447266 0)"/>
     <use xlink:href="#DejaVuSans-Bold-62" transform="translate(425.927734 0)"/>
     <use xlink:href="#DejaVuSans-Bold-6c" transform="translate(497.509766 0)"/>
     <use xlink:href="#DejaVuSans-Bold-65" transform="translate(531.787109 0)"/>
     <use xlink:href="#DejaVuSans-Bold-20" transform="translate(599.609375 0)"/>
     <use xlink:href="#DejaVuSans-Bold-52" transform="translate(634.423828 0)"/>
     <use xlink:href="#DejaVuSans-Bold-61" transform="translate(711.425781 0)"/>
     <use xlink:href="#DejaVuSans-Bold-6e" transform="translate(778.90625 0)"/>
     <use xlink:href="#DejaVuSans-Bold-67" transform="translate(850.097656 0)"/>
     <use xlink:href="#DejaVuSans-Bold-65" transform="translate(921.679688 0)"/>
     <use xlink:href="#DejaVuSans-Bold-20" transform="translate(989.501953 0)"/>
     <use xlink:href="#DejaVuSans-Bold-41" transform="translate(1024.316406 0)"/>
     <use xlink:href="#DejaVuSans-Bold-63" transform="translate(1101.708984 0)"/>
     <use xlink:href="#DejaVuSans-Bold-63" transform="translate(1160.986328 0)"/>
     <use xlink:href="#DejaVuSans-Bold-72" transform="translate(1220.263672 0)"/>
     <use xlink:href="#DejaVuSans-Bold-75" transform="translate(1269.580078 0)"/>
     <use xlink:href="#DejaVuSans-Bold-61" transform="translate(1340.771484 0)"/>
     <use xlink:href="#DejaVuSans-Bold-6c" transform="translate(1408.251953 0)"/>
    </g>
   </g>
   <g id="text_6">
    <!-- Coupon accrues daily when a reference rate stays within a -->
    <g style="fill: #41607f" transform="translate(347.46 100.140366) scale(0.078 -0.078)">
     <defs>
      <path id="DejaVuSans-43" d="M 4122 4306 
L 4122 3641 
Q 3803 3938 3442 4084 
Q 3081 4231 2675 4231 
Q 1875 4231 1450 3742 
Q 1025 3253 1025 2328 
Q 1025 1406 1450 917 
Q 1875 428 2675 428 
Q 3081 428 3442 575 
Q 3803 722 4122 1019 
L 4122 359 
Q 3791 134 3420 21 
Q 3050 -91 2638 -91 
Q 1578 -91 968 557 
Q 359 1206 359 2328 
Q 359 3453 968 4101 
Q 1578 4750 2638 4750 
Q 3056 4750 3426 4639 
Q 3797 4528 4122 4306 
z
" transform="scale(0.015625)"/>
      <path id="DejaVuSans-77" d="M 269 3500 
L 844 3500 
L 1563 769 
L 2278 3500 
L 2956 3500 
L 3675 769 
L 4391 3500 
L 4966 3500 
L 4050 0 
L 3372 0 
L 2619 2869 
L 1863 0 
L 1184 0 
L 269 3500 
z
" transform="scale(0.015625)"/>
     </defs>
     <use xlink:href="#DejaVuSans-43"/>
     <use xlink:href="#DejaVuSans-6f" transform="translate(69.824219 0)"/>
     <use xlink:href="#DejaVuSans-75" transform="translate(131.005859 0)"/>
     <use xlink:href="#DejaVuSans-70" transform="translate(194.384766 0)"/>
     <use xlink:href="#DejaVuSans-6f" transform="translate(257.861328 0)"/>
     <use xlink:href="#DejaVuSans-6e" transform="translate(319.042969 0)"/>
     <use xlink:href="#DejaVuSans-20" transform="translate(382.421875 0)"/>
     <use xlink:href="#DejaVuSans-61" transform="translate(414.208984 0)"/>
     <use xlink:href="#DejaVuSans-63" transform="translate(475.488281 0)"/>
     <use xlink:href="#DejaVuSans-63" transform="translate(530.46875 0)"/>
     <use xlink:href="#DejaVuSans-72" transform="translate(585.449219 0)"/>
     <use xlink:href="#DejaVuSans-75" transform="translate(626.5625 0)"/>
     <use xlink:href="#DejaVuSans-65" transform="translate(689.941406 0)"/>
     <use xlink:href="#DejaVuSans-73" transform="translate(751.464844 0)"/>
     <use xlink:href="#DejaVuSans-20" transform="translate(803.564453 0)"/>
     <use xlink:href="#DejaVuSans-64" transform="translate(835.351562 0)"/>
     <use xlink:href="#DejaVuSans-61" transform="translate(898.828125 0)"/>
     <use xlink:href="#DejaVuSans-69" transform="translate(960.107422 0)"/>
     <use xlink:href="#DejaVuSans-6c" transform="translate(987.890625 0)"/>
     <use xlink:href="#DejaVuSans-79" transform="translate(1015.673828 0)"/>
     <use xlink:href="#DejaVuSans-20" transform="translate(1074.853516 0)"/>
     <use xlink:href="#DejaVuSans-77" transform="translate(1106.640625 0)"/>
     <use xlink:href="#DejaVuSans-68" transform="translate(1188.427734 0)"/>
     <use xlink:href="#DejaVuSans-65" transform="translate(1251.806641 0)"/>
     <use xlink:href="#DejaVuSans-6e" transform="translate(1313.330078 0)"/>
     <use xlink:href="#DejaVuSans-20" transform="translate(1376.708984 0)"/>
     <use xlink:href="#DejaVuSans-61" transform="translate(1408.496094 0)"/>
     <use xlink:href="#DejaVuSans-20" transform="translate(1469.775391 0)"/>
     <use xlink:href="#DejaVuSans-72" transform="translate(1501.5625 0)"/>
     <use xlink:href="#DejaVuSans-65" transform="translate(1540.425781 0)"/>
     <use xlink:href="#DejaVuSans-66" transform="translate(1601.949219 0)"/>
     <use xlink:href="#DejaVuSans-65" transform="translate(1637.154297 0)"/>
     <use xlink:href="#DejaVuSans-72" transform="translate(1698.677734 0)"/>
     <use xlink:href="#DejaVuSans-65" transform="translate(1737.541016 0)"/>
     <use xlink:href="#DejaVuSans-6e" transform="translate(1799.064453 0)"/>
     <use xlink:href="#DejaVuSans-63" transform="translate(1862.443359 0)"/>
     <use xlink:href="#DejaVuSans-65" transform="translate(1917.423828 0)"/>
     <use xlink:href="#DejaVuSans-20" transform="translate(1978.947266 0)"/>
     <use xlink:href="#DejaVuSans-72" transform="translate(2010.734375 0)"/>
     <use xlink:href="#DejaVuSans-61" transform="translate(2051.847656 0)"/>
     <use xlink:href="#DejaVuSans-74" transform="translate(2113.126953 0)"/>
     <use xlink:href="#DejaVuSans-65" transform="translate(2152.335938 0)"/>
     <use xlink:href="#DejaVuSans-20" transform="translate(2213.859375 0)"/>
     <use xlink:href="#DejaVuSans-73" transform="translate(2245.646484 0)"/>
     <use xlink:href="#DejaVuSans-74" transform="translate(2297.746094 0)"/>
     <use xlink:href="#DejaVuSans-61" transform="translate(2336.955078 0)"/>
     <use xlink:href="#DejaVuSans-79" transform="translate(2398.234375 0)"/>
     <use xlink:href="#DejaVuSans-73" transform="translate(2457.414062 0)"/>
     <use xlink:href="#DejaVuSans-20" transform="translate(2509.513672 0)"/>
     <use xlink:href="#DejaVuSans-77" transform="translate(2541.300781 0)"/>
     <use xlink:href="#DejaVuSans-69" transform="translate(2623.087891 0)"/>
     <use xlink:href="#DejaVuSans-74" transform="translate(2650.871094 0)"/>
     <use xlink:href="#DejaVuSans-68" transform="translate(2690.080078 0)"/>
     <use xlink:href="#DejaVuSans-69" transform="translate(2753.458984 0)"/>
     <use xlink:href="#DejaVuSans-6e" transform="translate(2781.242188 0)"/>
     <use xlink:href="#DejaVuSans-20" transform="translate(2844.621094 0)"/>
     <use xlink:href="#DejaVuSans-61" transform="translate(2876.408203 0)"/>
    </g>
    <!-- range; issuer can call -->
    <g style="fill: #41607f" transform="translate(347.46 108.874659) scale(0.078 -0.078)">
     <defs>
      <path id="DejaVuSans-67" d="M 2906 1791 
Q 2906 2416 2648 2759 
Q 2391 3103 1925 3103 
Q 1463 3103 1205 2759 
Q 947 2416 947 1791 
Q 947 1169 1205 825 
Q 1463 481 1925 481 
Q 2391 481 2648 825 
Q 2906 1169 2906 1791 
z
M 3481 434 
Q 3481 -459 3084 -895 
Q 2688 -1331 1869 -1331 
Q 1566 -1331 1297 -1286 
Q 1028 -1241 775 -1147 
L 775 -588 
Q 1028 -725 1275 -790 
Q 1522 -856 1778 -856 
Q 2344 -856 2625 -561 
Q 2906 -266 2906 331 
L 2906 616 
Q 2728 306 2450 153 
Q 2172 0 1784 0 
Q 1141 0 747 490 
Q 353 981 353 1791 
Q 353 2603 747 3093 
Q 1141 3584 1784 3584 
Q 2172 3584 2450 3431 
Q 2728 3278 2906 2969 
L 2906 3500 
L 3481 3500 
L 3481 434 
z
" transform="scale(0.015625)"/>
      <path id="DejaVuSans-3b" d="M 750 3309 
L 1409 3309 
L 1409 2516 
L 750 2516 
L 750 3309 
z
M 750 794 
L 1409 794 
L 1409 256 
L 897 -744 
L 494 -744 
L 750 256 
L 750 794 
z
" transform="scale(0.015625)"/>
     </defs>
     <use xlink:href="#DejaVuSans-72"/>
     <use xlink:href="#DejaVuSans-61" transform="translate(41.113281 0)"/>
     <use xlink:href="#DejaVuSans-6e" transform="translate(102.392578 0)"/>
     <use xlink:href="#DejaVuSans-67" transform="translate(165.771484 0)"/>
     <use xlink:href="#DejaVuSans-65" transform="translate(229.248047 0)"/>
     <use xlink:href="#DejaVuSans-3b" transform="translate(290.771484 0)"/>
     <use xlink:href="#DejaVuSans-20" transform="translate(324.462891 0)"/>
     <use xlink:href="#DejaVuSans-69" transform="translate(356.25 0)"/>
     <use xlink:href="#DejaVuSans-73" transform="translate(384.033203 0)"/>
     <use xlink:href="#DejaVuSans-73" transform="translate(436.132812 0)"/>
     <use xlink:href="#DejaVuSans-75" transform="translate(488.232422 0)"/>
     <use xlink:href="#DejaVuSans-65" transform="translate(551.611328 0)"/>
     <use xlink:href="#DejaVuSans-72" transform="translate(613.134766 0)"/>
     <use xlink:href="#DejaVuSans-20" transform="translate(654.248047 0)"/>
     <use xlink:href="#DejaVuSans-63" transform="translate(686.035156 0)"/>
     <use xlink:href="#DejaVuSans-61" transform="translate(741.015625 0)"/>
     <use xlink:href="#DejaVuSans-6e" transform="translate(802.294922 0)"/>
     <use xlink:href="#DejaVuSans-20" transform="translate(865.673828 0)"/>
     <use xlink:href="#DejaVuSans-63" transform="translate(897.460938 0)"/>
     <use xlink:href="#DejaVuSans-61" transform="translate(952.441406 0)"/>
     <use xlink:href="#DejaVuSans-6c" transform="translate(1013.720703 0)"/>
     <use xlink:href="#DejaVuSans-6c" transform="translate(1041.503906 0)"/>
    </g>
   </g>
   <g id="text_7">
    <!-- Non-Callable -->
    <g style="fill: #ffffff" transform="translate(48.93 137.370575) scale(0.1 -0.1)">
     <defs>
      <path id="DejaVuSans-Bold-4e" d="M 588 4666 
L 1931 4666 
L 3628 1466 
L 3628 4666 
L 4769 4666 
L 4769 0 
L 3425 0 
L 1728 3200 
L 1728 0 
L 588 0 
L 588 4666 
z
" transform="scale(0.015625)"/>
      <path id="DejaVuSans-Bold-6f" d="M 2203 2784 
Q 1831 2784 1636 2517 
Q 1441 2250 1441 1747 
Q 1441 1244 1636 976 
Q 1831 709 2203 709 
Q 2569 709 2762 976 
Q 2956 1244 2956 1747 
Q 2956 2250 2762 2517 
Q 2569 2784 2203 2784 
z
M 2203 3584 
Q 3106 3584 3614 3096 
Q 4122 2609 4122 1747 
Q 4122 884 3614 396 
Q 3106 -91 2203 -91 
Q 1297 -91 786 396 
Q 275 884 275 1747 
Q 275 2609 786 3096 
Q 1297 3584 2203 3584 
z
" transform="scale(0.015625)"/>
      <path id="DejaVuSans-Bold-2d" d="M 347 2297 
L 2309 2297 
L 2309 1388 
L 347 1388 
L 347 2297 
z
" transform="scale(0.015625)"/>
     </defs>
     <use xlink:href="#DejaVuSans-Bold-4e"/>
     <use xlink:href="#DejaVuSans-Bold-6f" transform="translate(83.691406 0)"/>
     <use xlink:href="#DejaVuSans-Bold-6e" transform="translate(152.392578 0)"/>
     <use xlink:href="#DejaVuSans-Bold-2d" transform="translate(223.583984 0)"/>
     <use xlink:href="#DejaVuSans-Bold-43" transform="translate(265.087891 0)"/>
     <use xlink:href="#DejaVuSans-Bold-61" transform="translate(338.476562 0)"/>
     <use xlink:href="#DejaVuSans-Bold-6c" transform="translate(405.957031 0)"/>
     <use xlink:href="#DejaVuSans-Bold-6c" transform="translate(440.234375 0)"/>
     <use xlink:href="#DejaVuSans-Bold-61" transform="translate(474.511719 0)"/>
     <use xlink:href="#DejaVuSans-Bold-62" transform="translate(541.992188 0)"/>
     <use xlink:href="#DejaVuSans-Bold-6c" transform="translate(613.574219 0)"/>
     <use xlink:href="#DejaVuSans-Bold-65" transform="translate(647.851562 0)"/>
    </g>
   </g>
   <g id="text_8">
    <!-- IR Non-Callable Range Accrual -->
    <g style="fill: #1f3a5f" transform="translate(97.08 169.397091) scale(0.093 -0.093)">
     <use xlink:href="#DejaVuSans-Bold-49"/>
     <use xlink:href="#DejaVuSans-Bold-52" transform="translate(37.207031 0)"/>
     <use xlink:href="#DejaVuSans-Bold-20" transform="translate(114.208984 0)"/>
     <use xlink:href="#DejaVuSans-Bold-4e" transform="translate(149.023438 0)"/>
     <use xlink:href="#DejaVuSans-Bold-6f" transform="translate(232.714844 0)"/>
     <use xlink:href="#DejaVuSans-Bold-6e" transform="translate(301.416016 0)"/>
     <use xlink:href="#DejaVuSans-Bold-2d" transform="translate(372.607422 0)"/>
     <use xlink:href="#DejaVuSans-Bold-43" transform="translate(414.111328 0)"/>
     <use xlink:href="#DejaVuSans-Bold-61" transform="translate(487.5 0)"/>
     <use xlink:href="#DejaVuSans-Bold-6c" transform="translate(554.980469 0)"/>
     <use xlink:href="#DejaVuSans-Bold-6c" transform="translate(589.257812 0)"/>
     <use xlink:href="#DejaVuSans-Bold-61" transform="translate(623.535156 0)"/>
     <use xlink:href="#DejaVuSans-Bold-62" transform="translate(691.015625 0)"/>
     <use xlink:href="#DejaVuSans-Bold-6c" transform="translate(762.597656 0)"/>
     <use xlink:href="#DejaVuSans-Bold-65" transform="translate(796.875 0)"/>
     <use xlink:href="#DejaVuSans-Bold-20" transform="translate(864.697266 0)"/>
     <use xlink:href="#DejaVuSans-Bold-52" transform="translate(899.511719 0)"/>
     <use xlink:href="#DejaVuSans-Bold-61" transform="translate(976.513672 0)"/>
     <use xlink:href="#DejaVuSans-Bold-6e" transform="translate(1043.994141 0)"/>
     <use xlink:href="#DejaVuSans-Bold-67" transform="translate(1115.185547 0)"/>
     <use xlink:href="#DejaVuSans-Bold-65" transform="translate(1186.767578 0)"/>
     <use xlink:href="#DejaVuSans-Bold-20" transform="translate(1254.589844 0)"/>
     <use xlink:href="#DejaVuSans-Bold-41" transform="translate(1289.404297 0)"/>
     <use xlink:href="#DejaVuSans-Bold-63" transform="translate(1366.796875 0)"/>
     <use xlink:href="#DejaVuSans-Bold-63" transform="translate(1426.074219 0)"/>
     <use xlink:href="#DejaVuSans-Bold-72" transform="translate(1485.351562 0)"/>
     <use xlink:href="#DejaVuSans-Bold-75" transform="translate(1534.667969 0)"/>
     <use xlink:href="#DejaVuSans-Bold-61" transform="translate(1605.859375 0)"/>
     <use xlink:href="#DejaVuSans-Bold-6c" transform="translate(1673.339844 0)"/>
    </g>
   </g>
   <g id="text_9">
    <!-- Same as callable range accrual, but runs to maturity — no -->
    <g style="fill: #41607f" transform="translate(347.46 164.652366) scale(0.078 -0.078)">
     <defs>
      <path id="DejaVuSans-53" d="M 3425 4513 
L 3425 3897 
Q 3066 4069 2747 4153 
Q 2428 4238 2131 4238 
Q 1616 4238 1336 4038 
Q 1056 3838 1056 3469 
Q 1056 3159 1242 3001 
Q 1428 2844 1947 2747 
L 2328 2669 
Q 3034 2534 3370 2195 
Q 3706 1856 3706 1288 
Q 3706 609 3251 259 
Q 2797 -91 1919 -91 
Q 1588 -91 1214 -16 
Q 841 59 441 206 
L 441 856 
Q 825 641 1194 531 
Q 1563 422 1919 422 
Q 2459 422 2753 634 
Q 3047 847 3047 1241 
Q 3047 1584 2836 1778 
Q 2625 1972 2144 2069 
L 1759 2144 
Q 1053 2284 737 2584 
Q 422 2884 422 3419 
Q 422 4038 858 4394 
Q 1294 4750 2059 4750 
Q 2388 4750 2728 4690 
Q 3069 4631 3425 4513 
z
" transform="scale(0.015625)"/>
      <path id="DejaVuSans-2014" d="M 313 1978 
L 6088 1978 
L 6088 1528 
L 313 1528 
L 313 1978 
z
" transform="scale(0.015625)"/>
     </defs>
     <use xlink:href="#DejaVuSans-53"/>
     <use xlink:href="#DejaVuSans-61" transform="translate(63.476562 0)"/>
     <use xlink:href="#DejaVuSans-6d" transform="translate(124.755859 0)"/>
     <use xlink:href="#DejaVuSans-65" transform="translate(222.167969 0)"/>
     <use xlink:href="#DejaVuSans-20" transform="translate(283.691406 0)"/>
     <use xlink:href="#DejaVuSans-61" transform="translate(315.478516 0)"/>
     <use xlink:href="#DejaVuSans-73" transform="translate(376.757812 0)"/>
     <use xlink:href="#DejaVuSans-20" transform="translate(428.857422 0)"/>
     <use xlink:href="#DejaVuSans-63" transform="translate(460.644531 0)"/>
     <use xlink:href="#DejaVuSans-61" transform="translate(515.625 0)"/>
     <use xlink:href="#DejaVuSans-6c" transform="translate(576.904297 0)"/>
     <use xlink:href="#DejaVuSans-6c" transform="translate(604.6875 0)"/>
     <use xlink:href="#DejaVuSans-61" transform="translate(632.470703 0)"/>
     <use xlink:href="#DejaVuSans-62" transform="translate(693.75 0)"/>
     <use xlink:href="#DejaVuSans-6c" transform="translate(757.226562 0)"/>
     <use xlink:href="#DejaVuSans-65" transform="translate(785.009766 0)"/>
     <use xlink:href="#DejaVuSans-20" transform="translate(846.533203 0)"/>
     <use xlink:href="#DejaVuSans-72" transform="translate(878.320312 0)"/>
     <use xlink:href="#DejaVuSans-61" transform="translate(919.433594 0)"/>
     <use xlink:href="#DejaVuSans-6e" transform="translate(980.712891 0)"/>
     <use xlink:href="#DejaVuSans-67" transform="translate(1044.091797 0)"/>
     <use xlink:href="#DejaVuSans-65" transform="translate(1107.568359 0)"/>
     <use xlink:href="#DejaVuSans-20" transform="translate(1169.091797 0)"/>
     <use xlink:href="#DejaVuSans-61" transform="translate(1200.878906 0)"/>
     <use xlink:href="#DejaVuSans-63" transform="translate(1262.158203 0)"/>
     <use xlink:href="#DejaVuSans-63" transform="translate(1317.138672 0)"/>
     <use xlink:href="#DejaVuSans-72" transform="translate(1372.119141 0)"/>
     <use xlink:href="#DejaVuSans-75" transform="translate(1413.232422 0)"/>
     <use xlink:href="#DejaVuSans-61" transform="translate(1476.611328 0)"/>
     <use xlink:href="#DejaVuSans-6c" transform="translate(1537.890625 0)"/>
     <use xlink:href="#DejaVuSans-2c" transform="translate(1565.673828 0)"/>
     <use xlink:href="#DejaVuSans-20" transform="translate(1597.460938 0)"/>
     <use xlink:href="#DejaVuSans-62" transform="translate(1629.248047 0)"/>
     <use xlink:href="#DejaVuSans-75" transform="translate(1692.724609 0)"/>
     <use xlink:href="#DejaVuSans-74" transform="translate(1756.103516 0)"/>
     <use xlink:href="#DejaVuSans-20" transform="translate(1795.3125 0)"/>
     <use xlink:href="#DejaVuSans-72" transform="translate(1827.099609 0)"/>
     <use xlink:href="#DejaVuSans-75" transform="translate(1868.212891 0)"/>
     <use xlink:href="#DejaVuSans-6e" transform="translate(1931.591797 0)"/>
     <use xlink:href="#DejaVuSans-73" transform="translate(1994.970703 0)"/>
     <use xlink:href="#DejaVuSans-20" transform="translate(2047.070312 0)"/>
     <use xlink:href="#DejaVuSans-74" transform="translate(2078.857422 0)"/>
     <use xlink:href="#DejaVuSans-6f" transform="translate(2118.066406 0)"/>
     <use xlink:href="#DejaVuSans-20" transform="translate(2179.248047 0)"/>
     <use xlink:href="#DejaVuSans-6d" transform="translate(2211.035156 0)"/>
     <use xlink:href="#DejaVuSans-61" transform="translate(2308.447266 0)"/>
     <use xlink:href="#DejaVuSans-74" transform="translate(2369.726562 0)"/>
     <use xlink:href="#DejaVuSans-75" transform="translate(2408.935547 0)"/>
     <use xlink:href="#DejaVuSans-72" transform="translate(2472.314453 0)"/>
     <use xlink:href="#DejaVuSans-69" transform="translate(2513.427734 0)"/>
     <use xlink:href="#DejaVuSans-74" transform="translate(2541.210938 0)"/>
     <use xlink:href="#DejaVuSans-79" transform="translate(2580.419922 0)"/>
     <use xlink:href="#DejaVuSans-20" transform="translate(2639.599609 0)"/>
     <use xlink:href="#DejaVuSans-2014" transform="translate(2671.386719 0)"/>
     <use xlink:href="#DejaVuSans-20" transform="translate(2771.386719 0)"/>
     <use xlink:href="#DejaVuSans-6e" transform="translate(2803.173828 0)"/>
     <use xlink:href="#DejaVuSans-6f" transform="translate(2866.552734 0)"/>
    </g>
    <!-- early redemption -->
    <g style="fill: #41607f" transform="translate(347.46 173.386659) scale(0.078 -0.078)">
     <use xlink:href="#DejaVuSans-65"/>
     <use xlink:href="#DejaVuSans-61" transform="translate(61.523438 0)"/>
     <use xlink:href="#DejaVuSans-72" transform="translate(122.802734 0)"/>
     <use xlink:href="#DejaVuSans-6c" transform="translate(163.916016 0)"/>
     <use xlink:href="#DejaVuSans-79" transform="translate(191.699219 0)"/>
     <use xlink:href="#DejaVuSans-20" transform="translate(250.878906 0)"/>
     <use xlink:href="#DejaVuSans-72" transform="translate(282.666016 0)"/>
     <use xlink:href="#DejaVuSans-65" transform="translate(321.529297 0)"/>
     <use xlink:href="#DejaVuSans-64" transform="translate(383.052734 0)"/>
     <use xlink:href="#DejaVuSans-65" transform="translate(446.529297 0)"/>
     <use xlink:href="#DejaVuSans-6d" transform="translate(508.052734 0)"/>
     <use xlink:href="#DejaVuSans-70" transform="translate(605.464844 0)"/>
     <use xlink:href="#DejaVuSans-74" transform="translate(668.941406 0)"/>
     <use xlink:href="#DejaVuSans-69" transform="translate(708.150391 0)"/>
     <use xlink:href="#DejaVuSans-6f" transform="translate(735.933594 0)"/>
     <use xlink:href="#DejaVuSans-6e" transform="translate(797.115234 0)"/>
    </g>
   </g>
   <g id="text_10">
    <!-- Accreting -->
    <g style="fill: #ffffff" transform="translate(48.93 201.843512) scale(0.1 -0.1)">
     <use xlink:href="#DejaVuSans-Bold-41"/>
     <use xlink:href="#DejaVuSans-Bold-63" transform="translate(77.392578 0)"/>
     <use xlink:href="#DejaVuSans-Bold-63" transform="translate(136.669922 0)"/>
     <use xlink:href="#DejaVuSans-Bold-72" transform="translate(195.947266 0)"/>
     <use xlink:href="#DejaVuSans-Bold-65" transform="translate(245.263672 0)"/>
     <use xlink:href="#DejaVuSans-Bold-74" transform="translate(313.085938 0)"/>
     <use xlink:href="#DejaVuSans-Bold-69" transform="translate(360.888672 0)"/>
     <use xlink:href="#DejaVuSans-Bold-6e" transform="translate(395.166016 0)"/>
     <use xlink:href="#DejaVuSans-Bold-67" transform="translate(466.357422 0)"/>
    </g>
   </g>
   <g id="text_11">
    <!-- IR Accreting Callable / ZCL -->
    <g style="fill: #1f3a5f" transform="translate(97.08 233.909091) scale(0.093 -0.093)">
     <defs>
      <path id="DejaVuSans-Bold-2f" d="M 1644 4666 
L 2338 4666 
L 691 -594 
L 0 -594 
L 1644 4666 
z
" transform="scale(0.015625)"/>
      <path id="DejaVuSans-Bold-5a" d="M 359 4666 
L 4281 4666 
L 4281 3938 
L 1778 909 
L 4353 909 
L 4353 0 
L 288 0 
L 288 728 
L 2791 3756 
L 359 3756 
L 359 4666 
z
" transform="scale(0.015625)"/>
      <path id="DejaVuSans-Bold-4c" d="M 588 4666 
L 1791 4666 
L 1791 909 
L 3903 909 
L 3903 0 
L 588 0 
L 588 4666 
z
" transform="scale(0.015625)"/>
     </defs>
     <use xlink:href="#DejaVuSans-Bold-49"/>
     <use xlink:href="#DejaVuSans-Bold-52" transform="translate(37.207031 0)"/>
     <use xlink:href="#DejaVuSans-Bold-20" transform="translate(114.208984 0)"/>
     <use xlink:href="#DejaVuSans-Bold-41" transform="translate(149.023438 0)"/>
     <use xlink:href="#DejaVuSans-Bold-63" transform="translate(226.416016 0)"/>
     <use xlink:href="#DejaVuSans-Bold-63" transform="translate(285.693359 0)"/>
     <use xlink:href="#DejaVuSans-Bold-72" transform="translate(344.970703 0)"/>
     <use xlink:href="#DejaVuSans-Bold-65" transform="translate(394.287109 0)"/>
     <use xlink:href="#DejaVuSans-Bold-74" transform="translate(462.109375 0)"/>
     <use xlink:href="#DejaVuSans-Bold-69" transform="translate(509.912109 0)"/>
     <use xlink:href="#DejaVuSans-Bold-6e" transform="translate(544.189453 0)"/>
     <use xlink:href="#DejaVuSans-Bold-67" transform="translate(615.380859 0)"/>
     <use xlink:href="#DejaVuSans-Bold-20" transform="translate(686.962891 0)"/>
     <use xlink:href="#DejaVuSans-Bold-43" transform="translate(721.777344 0)"/>
     <use xlink:href="#DejaVuSans-Bold-61" transform="translate(795.166016 0)"/>
     <use xlink:href="#DejaVuSans-Bold-6c" transform="translate(862.646484 0)"/>
     <use xlink:href="#DejaVuSans-Bold-6c" transform="translate(896.923828 0)"/>
     <use xlink:href="#DejaVuSans-Bold-61" transform="translate(931.201172 0)"/>
     <use xlink:href="#DejaVuSans-Bold-62" transform="translate(998.681641 0)"/>
     <use xlink:href="#DejaVuSans-Bold-6c" transform="translate(1070.263672 0)"/>
     <use xlink:href="#DejaVuSans-Bold-65" transform="translate(1104.541016 0)"/>
     <use xlink:href="#DejaVuSans-Bold-20" transform="translate(1172.363281 0)"/>
     <use xlink:href="#DejaVuSans-Bold-2f" transform="translate(1207.177734 0)"/>
     <use xlink:href="#DejaVuSans-Bold-20" transform="translate(1243.701172 0)"/>
     <use xlink:href="#DejaVuSans-Bold-5a" transform="translate(1278.515625 0)"/>
     <use xlink:href="#DejaVuSans-Bold-43" transform="translate(1351.025391 0)"/>
     <use xlink:href="#DejaVuSans-Bold-4c" transform="translate(1424.414062 0)"/>
    </g>
   </g>
   <g id="text_12">
    <!-- No periodic coupons — the notional grows over time, -->
    <g style="fill: #41607f" transform="translate(347.46 229.164366) scale(0.078 -0.078)">
     <defs>
      <path id="DejaVuSans-4e" d="M 628 4666 
L 1478 4666 
L 3547 763 
L 3547 4666 
L 4159 4666 
L 4159 0 
L 3309 0 
L 1241 3903 
L 1241 0 
L 628 0 
L 628 4666 
z
" transform="scale(0.015625)"/>
     </defs>
     <use xlink:href="#DejaVuSans-4e"/>
     <use xlink:href="#DejaVuSans-6f" transform="translate(74.804688 0)"/>
     <use xlink:href="#DejaVuSans-20" transform="translate(135.986328 0)"/>
     <use xlink:href="#DejaVuSans-70" transform="translate(167.773438 0)"/>
     <use xlink:href="#DejaVuSans-65" transform="translate(231.25 0)"/>
     <use xlink:href="#DejaVuSans-72" transform="translate(292.773438 0)"/>
     <use xlink:href="#DejaVuSans-69" transform="translate(333.886719 0)"/>
     <use xlink:href="#DejaVuSans-6f" transform="translate(361.669922 0)"/>
     <use xlink:href="#DejaVuSans-64" transform="translate(422.851562 0)"/>
     <use xlink:href="#DejaVuSans-69" transform="translate(486.328125 0)"/>
     <use xlink:href="#DejaVuSans-63" transform="translate(514.111328 0)"/>
     <use xlink:href="#DejaVuSans-20" transform="translate(569.091797 0)"/>
     <use xlink:href="#DejaVuSans-63" transform="translate(600.878906 0)"/>
     <use xlink:href="#DejaVuSans-6f" transform="translate(655.859375 0)"/>
     <use xlink:href="#DejaVuSans-75" transform="translate(717.041016 0)"/>
     <use xlink:href="#DejaVuSans-70" transform="translate(780.419922 0)"/>
     <use xlink:href="#DejaVuSans-6f" transform="translate(843.896484 0)"/>
     <use xlink:href="#DejaVuSans-6e" transform="translate(905.078125 0)"/>
     <use xlink:href="#DejaVuSans-73" transform="translate(968.457031 0)"/>
     <use xlink:href="#DejaVuSans-20" transform="translate(1020.556641 0)"/>
     <use xlink:href="#DejaVuSans-2014" transform="translate(1052.34375 0)"/>
     <use xlink:href="#DejaVuSans-20" transform="translate(1152.34375 0)"/>
     <use xlink:href="#DejaVuSans-74" transform="translate(1184.130859 0)"/>
     <use xlink:href="#DejaVuSans-68" transform="translate(1223.339844 0)"/>
     <use xlink:href="#DejaVuSans-65" transform="translate(1286.71875 0)"/>
     <use xlink:href="#DejaVuSans-20" transform="translate(1348.242188 0)"/>
     <use xlink:href="#DejaVuSans-6e" transform="translate(1380.029297 0)"/>
     <use xlink:href="#DejaVuSans-6f" transform="translate(1443.408203 0)"/>
     <use xlink:href="#DejaVuSans-74" transform="translate(1504.589844 0)"/>
     <use xlink:href="#DejaVuSans-69" transform="translate(1543.798828 0)"/>
     <use xlink:href="#DejaVuSans-6f" transform="translate(1571.582031 0)"/>
     <use xlink:href="#DejaVuSans-6e" transform="translate(1632.763672 0)"/>
     <use xlink:href="#DejaVuSans-61" transform="translate(1696.142578 0)"/>
     <use xlink:href="#DejaVuSans-6c" transform="translate(1757.421875 0)"/>
     <use xlink:href="#DejaVuSans-20" transform="translate(1785.205078 0)"/>
     <use xlink:href="#DejaVuSans-67" transform="translate(1816.992188 0)"/>
     <use xlink:href="#DejaVuSans-72" transform="translate(1880.46875 0)"/>
     <use xlink:href="#DejaVuSans-6f" transform="translate(1919.332031 0)"/>
     <use xlink:href="#DejaVuSans-77" transform="translate(1980.513672 0)"/>
     <use xlink:href="#DejaVuSans-73" transform="translate(2062.300781 0)"/>
     <use xlink:href="#DejaVuSans-20" transform="translate(2114.400391 0)"/>
     <use xlink:href="#DejaVuSans-6f" transform="translate(2146.1875 0)"/>
     <use xlink:href="#DejaVuSans-76" transform="translate(2207.369141 0)"/>
     <use xlink:href="#DejaVuSans-65" transform="translate(2266.548828 0)"/>
     <use xlink:href="#DejaVuSans-72" transform="translate(2328.072266 0)"/>
     <use xlink:href="#DejaVuSans-20" transform="translate(2369.185547 0)"/>
     <use xlink:href="#DejaVuSans-74" transform="translate(2400.972656 0)"/>
     <use xlink:href="#DejaVuSans-69" transform="translate(2440.181641 0)"/>
     <use xlink:href="#DejaVuSans-6d" transform="translate(2467.964844 0)"/>
     <use xlink:href="#DejaVuSans-65" transform="translate(2565.376953 0)"/>
     <use xlink:href="#DejaVuSans-2c" transform="translate(2626.900391 0)"/>
    </g>
    <!-- investor receives the total at maturity -->
    <g style="fill: #41607f" transform="translate(347.46 237.898659) scale(0.078 -0.078)">
     <use xlink:href="#DejaVuSans-69"/>
     <use xlink:href="#DejaVuSans-6e" transform="translate(27.783203 0)"/>
     <use xlink:href="#DejaVuSans-76" transform="translate(91.162109 0)"/>
     <use xlink:href="#DejaVuSans-65" transform="translate(150.341797 0)"/>
     <use xlink:href="#DejaVuSans-73" transform="translate(211.865234 0)"/>
     <use xlink:href="#DejaVuSans-74" transform="translate(263.964844 0)"/>
     <use xlink:href="#DejaVuSans-6f" transform="translate(303.173828 0)"/>
     <use xlink:href="#DejaVuSans-72" transform="translate(364.355469 0)"/>
     <use xlink:href="#DejaVuSans-20" transform="translate(405.46875 0)"/>
     <use xlink:href="#DejaVuSans-72" transform="translate(437.255859 0)"/>
     <use xlink:href="#DejaVuSans-65" transform="translate(476.119141 0)"/>
     <use xlink:href="#DejaVuSans-63" transform="translate(537.642578 0)"/>
     <use xlink:href="#DejaVuSans-65" transform="translate(592.623047 0)"/>
     <use xlink:href="#DejaVuSans-69" transform="translate(654.146484 0)"/>
     <use xlink:href="#DejaVuSans-76" transform="translate(681.929688 0)"/>
     <use xlink:href="#DejaVuSans-65" transform="translate(741.109375 0)"/>
     <use xlink:href="#DejaVuSans-73" transform="translate(802.632812 0)"/>
     <use xlink:href="#DejaVuSans-20" transform="translate(854.732422 0)"/>
     <use xlink:href="#DejaVuSans-74" transform="translate(886.519531 0)"/>
     <use xlink:href="#DejaVuSans-68" transform="translate(925.728516 0)"/>
     <use xlink:href="#DejaVuSans-65" transform="translate(989.107422 0)"/>
     <use xlink:href="#DejaVuSans-20" transform="translate(1050.630859 0)"/>
     <use xlink:href="#DejaVuSans-74" transform="translate(1082.417969 0)"/>
     <use xlink:href="#DejaVuSans-6f" transform="translate(1121.626953 0)"/>
     <use xlink:href="#DejaVuSans-74" transform="translate(1182.808594 0)"/>
     <use xlink:href="#DejaVuSans-61" transform="translate(1222.017578 0)"/>
     <use xlink:href="#DejaVuSans-6c" transform="translate(1283.296875 0)"/>
     <use xlink:href="#DejaVuSans-20" transform="translate(1311.080078 0)"/>
     <use xlink:href="#DejaVuSans-61" transform="translate(1342.867188 0)"/>
     <use xlink:href="#DejaVuSans-74" transform="translate(1404.146484 0)"/>
     <use xlink:href="#DejaVuSans-20" transform="translate(1443.355469 0)"/>
     <use xlink:href="#DejaVuSans-6d" transform="translate(1475.142578 0)"/>
     <use xlink:href="#DejaVuSans-61" transform="translate(1572.554688 0)"/>
     <use xlink:href="#DejaVuSans-74" transform="translate(1633.833984 0)"/>
     <use xlink:href="#DejaVuSans-75" transform="translate(1673.042969 0)"/>
     <use xlink:href="#DejaVuSans-72" transform="translate(1736.421875 0)"/>
     <use xlink:href="#DejaVuSans-69" transform="translate(1777.535156 0)"/>
     <use xlink:href="#DejaVuSans-74" transform="translate(1805.318359 0)"/>
     <use xlink:href="#DejaVuSans-79" transform="translate(1844.527344 0)"/>
    </g>
   </g>
   <g id="text_13">
    <!-- Digital -->
    <g style="fill: #ffffff" transform="translate(48.93 266.355512) scale(0.1 -0.1)">
     <defs>
      <path id="DejaVuSans-Bold-44" d="M 1791 3756 
L 1791 909 
L 2222 909 
Q 2959 909 3348 1275 
Q 3738 1641 3738 2338 
Q 3738 3031 3350 3393 
Q 2963 3756 2222 3756 
L 1791 3756 
z
M 588 4666 
L 1856 4666 
Q 2919 4666 3439 4514 
Q 3959 4363 4331 4000 
Q 4659 3684 4818 3271 
Q 4978 2859 4978 2338 
Q 4978 1809 4818 1395 
Q 4659 981 4331 666 
Q 3956 303 3431 151 
Q 2906 0 1856 0 
L 588 0 
L 588 4666 
z
" transform="scale(0.015625)"/>
     </defs>
     <use xlink:href="#DejaVuSans-Bold-44"/>
     <use xlink:href="#DejaVuSans-Bold-69" transform="translate(83.007812 0)"/>
     <use xlink:href="#DejaVuSans-Bold-67" transform="translate(117.285156 0)"/>
     <use xlink:href="#DejaVuSans-Bold-69" transform="translate(188.867188 0)"/>
     <use xlink:href="#DejaVuSans-Bold-74" transform="translate(223.144531 0)"/>
     <use xlink:href="#DejaVuSans-Bold-61" transform="translate(270.947266 0)"/>
     <use xlink:href="#DejaVuSans-Bold-6c" transform="translate(338.427734 0)"/>
    </g>
   </g>
   <g id="text_14">
    <!-- Digital Cap-Floor -->
    <g style="fill: #1f3a5f" transform="translate(97.08 298.421091) scale(0.093 -0.093)">
     <use xlink:href="#DejaVuSans-Bold-44"/>
     <use xlink:href="#DejaVuSans-Bold-69" transform="translate(83.007812 0)"/>
     <use xlink:href="#DejaVuSans-Bold-67" transform="translate(117.285156 0)"/>
     <use xlink:href="#DejaVuSans-Bold-69" transform="translate(188.867188 0)"/>
     <use xlink:href="#DejaVuSans-Bold-74" transform="translate(223.144531 0)"/>
     <use xlink:href="#DejaVuSans-Bold-61" transform="translate(270.947266 0)"/>
     <use xlink:href="#DejaVuSans-Bold-6c" transform="translate(338.427734 0)"/>
     <use xlink:href="#DejaVuSans-Bold-20" transform="translate(372.705078 0)"/>
     <use xlink:href="#DejaVuSans-Bold-43" transform="translate(407.519531 0)"/>
     <use xlink:href="#DejaVuSans-Bold-61" transform="translate(480.908203 0)"/>
     <use xlink:href="#DejaVuSans-Bold-70" transform="translate(548.388672 0)"/>
     <use xlink:href="#DejaVuSans-Bold-2d" transform="translate(619.970703 0)"/>
     <use xlink:href="#DejaVuSans-Bold-46" transform="translate(661.474609 0)"/>
     <use xlink:href="#DejaVuSans-Bold-6c" transform="translate(729.785156 0)"/>
     <use xlink:href="#DejaVuSans-Bold-6f" transform="translate(764.0625 0)"/>
     <use xlink:href="#DejaVuSans-Bold-6f" transform="translate(832.763672 0)"/>
     <use xlink:href="#DejaVuSans-Bold-72" transform="translate(901.464844 0)"/>
    </g>
   </g>
   <g id="text_15">
    <!-- Pays a fixed amount if a rate is above a cap or below a -->
    <g style="fill: #41607f" transform="translate(347.46 293.676366) scale(0.078 -0.078)">
     <defs>
      <path id="DejaVuSans-50" d="M 1259 4147 
L 1259 2394 
L 2053 2394 
Q 2494 2394 2734 2622 
Q 2975 2850 2975 3272 
Q 2975 3691 2734 3919 
Q 2494 4147 2053 4147 
L 1259 4147 
z
M 628 4666 
L 2053 4666 
Q 2838 4666 3239 4311 
Q 3641 3956 3641 3272 
Q 3641 2581 3239 2228 
Q 2838 1875 2053 1875 
L 1259 1875 
L 1259 0 
L 628 0 
L 628 4666 
z
" transform="scale(0.015625)"/>
     </defs>
     <use xlink:href="#DejaVuSans-50"/>
     <use xlink:href="#DejaVuSans-61" transform="translate(55.802734 0)"/>
     <use xlink:href="#DejaVuSans-79" transform="translate(117.082031 0)"/>
     <use xlink:href="#DejaVuSans-73" transform="translate(176.261719 0)"/>
     <use xlink:href="#DejaVuSans-20" transform="translate(228.361328 0)"/>
     <use xlink:href="#DejaVuSans-61" transform="translate(260.148438 0)"/>
     <use xlink:href="#DejaVuSans-20" transform="translate(321.427734 0)"/>
     <use xlink:href="#DejaVuSans-66" transform="translate(353.214844 0)"/>
     <use xlink:href="#DejaVuSans-69" transform="translate(388.419922 0)"/>
     <use xlink:href="#DejaVuSans-78" transform="translate(416.203125 0)"/>
     <use xlink:href="#DejaVuSans-65" transform="translate(472.257812 0)"/>
     <use xlink:href="#DejaVuSans-64" transform="translate(533.78125 0)"/>
     <use xlink:href="#DejaVuSans-20" transform="translate(597.257812 0)"/>
     <use xlink:href="#DejaVuSans-61" transform="translate(629.044922 0)"/>
     <use xlink:href="#DejaVuSans-6d" transform="translate(690.324219 0)"/>
     <use xlink:href="#DejaVuSans-6f" transform="translate(787.736328 0)"/>
     <use xlink:href="#DejaVuSans-75" transform="translate(848.917969 0)"/>
     <use xlink:href="#DejaVuSans-6e" transform="translate(912.296875 0)"/>
     <use xlink:href="#DejaVuSans-74" transform="translate(975.675781 0)"/>
     <use xlink:href="#DejaVuSans-20" transform="translate(1014.884766 0)"/>
     <use xlink:href="#DejaVuSans-69" transform="translate(1046.671875 0)"/>
     <use xlink:href="#DejaVuSans-66" transform="translate(1074.455078 0)"/>
     <use xlink:href="#DejaVuSans-20" transform="translate(1109.660156 0)"/>
     <use xlink:href="#DejaVuSans-61" transform="translate(1141.447266 0)"/>
     <use xlink:href="#DejaVuSans-20" transform="translate(1202.726562 0)"/>
     <use xlink:href="#DejaVuSans-72" transform="translate(1234.513672 0)"/>
     <use xlink:href="#DejaVuSans-61" transform="translate(1275.626953 0)"/>
     <use xlink:href="#DejaVuSans-74" transform="translate(1336.90625 0)"/>
     <use xlink:href="#DejaVuSans-65" transform="translate(1376.115234 0)"/>
     <use xlink:href="#DejaVuSans-20" transform="translate(1437.638672 0)"/>
     <use xlink:href="#DejaVuSans-69" transform="translate(1469.425781 0)"/>
     <use xlink:href="#DejaVuSans-73" transform="translate(1497.208984 0)"/>
     <use xlink:href="#DejaVuSans-20" transform="translate(1549.308594 0)"/>
     <use xlink:href="#DejaVuSans-61" transform="translate(1581.095703 0)"/>
     <use xlink:href="#DejaVuSans-62" transform="translate(1642.375 0)"/>
     <use xlink:href="#DejaVuSans-6f" transform="translate(1705.851562 0)"/>
     <use xlink:href="#DejaVuSans-76" transform="translate(1767.033203 0)"/>
     <use xlink:href="#DejaVuSans-65" transform="translate(1826.212891 0)"/>
     <use xlink:href="#DejaVuSans-20" transform="translate(1887.736328 0)"/>
     <use xlink:href="#DejaVuSans-61" transform="translate(1919.523438 0)"/>
     <use xlink:href="#DejaVuSans-20" transform="translate(1980.802734 0)"/>
     <use xlink:href="#DejaVuSans-63" transform="translate(2012.589844 0)"/>
     <use xlink:href="#DejaVuSans-61" transform="translate(2067.570312 0)"/>
     <use xlink:href="#DejaVuSans-70" transform="translate(2128.849609 0)"/>
     <use xlink:href="#DejaVuSans-20" transform="translate(2192.326172 0)"/>
     <use xlink:href="#DejaVuSans-6f" transform="translate(2224.113281 0)"/>
     <use xlink:href="#DejaVuSans-72" transform="translate(2285.294922 0)"/>
     <use xlink:href="#DejaVuSans-20" transform="translate(2326.408203 0)"/>
     <use xlink:href="#DejaVuSans-62" transform="translate(2358.195312 0)"/>
     <use xlink:href="#DejaVuSans-65" transform="translate(2421.671875 0)"/>
     <use xlink:href="#DejaVuSans-6c" transform="translate(2483.195312 0)"/>
     <use xlink:href="#DejaVuSans-6f" transform="translate(2510.978516 0)"/>
     <use xlink:href="#DejaVuSans-77" transform="translate(2572.160156 0)"/>
     <use xlink:href="#DejaVuSans-20" transform="translate(2653.947266 0)"/>
     <use xlink:href="#DejaVuSans-61" transform="translate(2685.734375 0)"/>
    </g>
    <!-- floor; nothing otherwise -->
    <g style="fill: #41607f" transform="translate(347.46 302.410659) scale(0.078 -0.078)">
     <use xlink:href="#DejaVuSans-66"/>
     <use xlink:href="#DejaVuSans-6c" transform="translate(35.205078 0)"/>
     <use xlink:href="#DejaVuSans-6f" transform="translate(62.988281 0)"/>
     <use xlink:href="#DejaVuSans-6f" transform="translate(124.169922 0)"/>
     <use xlink:href="#DejaVuSans-72" transform="translate(185.351562 0)"/>
     <use xlink:href="#DejaVuSans-3b" transform="translate(226.464844 0)"/>
     <use xlink:href="#DejaVuSans-20" transform="translate(260.15625 0)"/>
     <use xlink:href="#DejaVuSans-6e" transform="translate(291.943359 0)"/>
     <use xlink:href="#DejaVuSans-6f" transform="translate(355.322266 0)"/>
     <use xlink:href="#DejaVuSans-74" transform="translate(416.503906 0)"/>
     <use xlink:href="#DejaVuSans-68" transform="translate(455.712891 0)"/>
     <use xlink:href="#DejaVuSans-69" transform="translate(519.091797 0)"/>
     <use xlink:href="#DejaVuSans-6e" transform="translate(546.875 0)"/>
     <use xlink:href="#DejaVuSans-67" transform="translate(610.253906 0)"/>
     <use xlink:href="#DejaVuSans-20" transform="translate(673.730469 0)"/>
     <use xlink:href="#DejaVuSans-6f" transform="translate(705.517578 0)"/>
     <use xlink:href="#DejaVuSans-74" transform="translate(766.699219 0)"/>
     <use xlink:href="#DejaVuSans-68" transform="translate(805.908203 0)"/>
     <use xlink:href="#DejaVuSans-65" transform="translate(869.287109 0)"/>
     <use xlink:href="#DejaVuSans-72" transform="translate(930.810547 0)"/>
     <use xlink:href="#DejaVuSans-77" transform="translate(971.923828 0)"/>
     <use xlink:href="#DejaVuSans-69" transform="translate(1053.710938 0)"/>
     <use xlink:href="#DejaVuSans-73" transform="translate(1081.494141 0)"/>
     <use xlink:href="#DejaVuSans-65" transform="translate(1133.59375 0)"/>
    </g>
   </g>
   <g id="PathCollection_1">
    <defs>
     <path id="m6a83df79db" d="M 0 1.870829 
C 0.49615 1.870829 0.972045 1.673706 1.322876 1.322876 
C 1.673706 0.972045 1.870829 0.49615 1.870829 0 
C 1.870829 -0.49615 1.673706 -0.972045 1.322876 -1.322876 
C 0.972045 -1.673706 0.49615 -1.870829 0 -1.870829 
C -0.49615 -1.870829 -0.972045 -1.673706 -1.322876 -1.322876 
C -1.673706 -0.972045 -1.870829 -0.49615 -1.870829 0 
C -1.870829 0.49615 -1.673706 0.972045 -1.322876 1.322876 
C -0.972045 1.673706 -0.49615 1.870829 0 1.870829 
z
" style="stroke: #c8553d"/>
    </defs>
    <g clip-path="url(#p69f382ce0b)">
     <use xlink:href="#m6a83df79db" x="87.45" y="70.0992" style="fill: #c8553d; stroke: #c8553d"/>
    </g>
   </g>
   <g id="PathCollection_2">
    <g clip-path="url(#p69f382ce0b)">
     <use xlink:href="#m6a83df79db" x="87.45" y="102.3552" style="fill: #c8553d; stroke: #c8553d"/>
    </g>
   </g>
   <g id="PathCollection_3">
    <g clip-path="url(#p69f382ce0b)">
     <use xlink:href="#m6a83df79db" x="87.45" y="166.8672" style="fill: #c8553d; stroke: #c8553d"/>
    </g>
   </g>
   <g id="PathCollection_4">
    <g clip-path="url(#p69f382ce0b)">
     <use xlink:href="#m6a83df79db" x="87.45" y="231.3792" style="fill: #c8553d; stroke: #c8553d"/>
    </g>
   </g>
   <g id="PathCollection_5">
    <g clip-path="url(#p69f382ce0b)">
     <use xlink:href="#m6a83df79db" x="87.45" y="295.8912" style="fill: #c8553d; stroke: #c8553d"/>
    </g>
   </g>
  </g>
 </g>
 <defs>
  <clipPath id="p69f382ce0b">
   <rect x="7.2" y="7.2" width="770.4" height="322.56"/>
  </clipPath>
 </defs>
</svg>
