<?xml version="1.0" encoding="utf-8" standalone="no"?>
<!DOCTYPE svg PUBLIC "-//W3C//DTD SVG 1.1//EN"
  "http://www.w3.org/Graphics/SVG/1.1/DTD/svg11.dtd">
<svg xmlns:xlink="http://www.w3.org/1999/xlink" width="511.262813pt" height="295.354375pt" viewBox="0 0 511.262813 295.354375" xmlns="http://www.w3.org/2000/svg" version="1.1">
 <metadata>
  <rdf:RDF xmlns:dc="http://purl.org/dc/elements/1.1/" xmlns:cc="http://creativecommons.org/ns#" xmlns:rdf="http://www.w3.org/1999/02/22-rdf-syntax-ns#">
   <cc:Work>
    <dc:type rdf:resource="http://purl.org/dc/dcmitype/StillImage"/>
    <dc:date>2026-06-27T22:59:14.608076</dc:date>
    <dc:format>image/svg+xml</dc:format>
    <dc:creator>
     <cc:Agent>
      <dc:title>Matplotlib v3.10.9, https://matplotlib.org/</dc:title>
     </cc:Agent>
    </dc:creator>
   </cc:Work>
  </rdf:RDF>
 </metadata>
 <defs>
  <style type="text/css">*{stroke-linejoin: round; stroke-linecap: butt}</style>
 </defs>
 <g id="figure_1">
  <g id="patch_1">
   <path d="M 0 295.354375 
L 511.262813 295.354375 
L 511.262813 0 
L 0 0 
z
" style="fill: #ffffff"/>
  </g>
  <g id="axes_1">
   <g id="patch_2">
    <path d="M 48.982813 257.798125 
L 504.062812 257.798125 
L 504.062812 22.318125 
L 48.982813 22.318125 
z
" style="fill: #ffffff"/>
   </g>
   <g id="FillBetweenPolyCollection_1">
    <defs>
     <path id="mb89a06e325" d="M 69.668267 -104.201533 
L 69.668267 -215.277005 
L 70.705132 -214.497528 
L 71.741997 -213.718051 
L 72.778862 -212.938574 
L 73.815727 -212.159097 
L 74.852591 -211.37962 
L 75.889456 -210.600143 
L 76.926321 -209.820666 
L 77.963186 -209.041189 
L 79.000051 -208.261712 
L 80.036916 -207.482235 
L 81.073781 -206.702758 
L 82.110646 -205.923281 
L 83.147511 -205.143804 
L 84.184375 -204.364327 
L 85.22124 -203.58485 
L 86.258105 -202.805373 
L 87.29497 -202.025896 
L 88.331835 -201.246419 
L 89.3687 -200.466942 
L 90.405565 -199.687465 
L 91.44243 -198.907988 
L 92.479295 -198.128511 
L 93.51616 -197.349034 
L 94.553024 -196.569557 
L 95.589889 -195.79008 
L 96.626754 -195.010603 
L 97.663619 -194.231126 
L 98.700484 -193.451649 
L 99.737349 -192.672172 
L 100.774214 -191.892695 
L 101.811079 -191.113218 
L 102.847944 -190.333741 
L 103.884808 -189.554264 
L 104.921673 -188.774787 
L 105.958538 -187.99531 
L 106.995403 -187.215833 
L 108.032268 -186.436356 
L 109.069133 -185.656879 
L 110.105998 -184.877402 
L 111.142863 -184.097925 
L 112.179728 -183.318448 
L 113.216592 -182.538971 
L 114.253457 -181.759494 
L 115.290322 -180.980017 
L 116.327187 -180.20054 
L 117.364052 -179.421063 
L 118.400917 -178.641586 
L 119.437782 -177.862109 
L 120.474647 -177.082632 
L 121.511512 -176.303155 
L 122.548376 -175.523678 
L 123.585241 -174.744201 
L 124.622106 -173.964724 
L 125.658971 -173.185247 
L 126.695836 -172.40577 
L 127.732701 -171.626293 
L 128.769566 -170.846816 
L 129.806431 -170.067339 
L 130.843296 -169.287862 
L 131.88016 -168.508385 
L 132.917025 -167.728908 
L 133.95389 -166.949431 
L 134.990755 -166.169954 
L 136.02762 -165.390477 
L 137.064485 -164.611 
L 138.10135 -163.831523 
L 139.138215 -163.052046 
L 140.17508 -162.272569 
L 141.211944 -161.493092 
L 142.248809 -160.713615 
L 143.285674 -159.934138 
L 144.322539 -159.154661 
L 145.359404 -158.375184 
L 146.396269 -157.595707 
L 147.433134 -156.81623 
L 148.469999 -156.036753 
L 149.506864 -155.257276 
L 150.543728 -154.477799 
L 151.580593 -153.698322 
L 152.617458 -152.918845 
L 153.654323 -152.139368 
L 154.691188 -151.359891 
L 155.728053 -150.580414 
L 156.764918 -149.800937 
L 157.801783 -149.02146 
L 158.838648 -148.241983 
L 159.875512 -147.462506 
L 160.912377 -146.683029 
L 161.949242 -145.903552 
L 162.986107 -145.124075 
L 164.022972 -144.344598 
L 165.059837 -143.565121 
L 166.096702 -142.785644 
L 167.133567 -142.006167 
L 168.170432 -141.22669 
L 169.207296 -140.447213 
L 170.244161 -139.667736 
L 171.281026 -138.888259 
L 172.317891 -138.108782 
L 173.354756 -137.329305 
L 174.391621 -136.549828 
L 175.428486 -135.770351 
L 176.465351 -134.990874 
L 177.502216 -134.211397 
L 178.53908 -133.43192 
L 179.575945 -132.652443 
L 180.61281 -131.872966 
L 181.649675 -131.093489 
L 182.68654 -130.314012 
L 183.723405 -129.534535 
L 184.76027 -128.755058 
L 185.797135 -127.975581 
L 186.834 -127.196104 
L 187.870864 -126.416627 
L 188.907729 -125.63715 
L 189.944594 -124.857673 
L 190.981459 -124.078196 
L 192.018324 -123.298719 
L 193.055189 -122.519242 
L 194.092054 -121.739765 
L 195.128919 -120.960288 
L 196.165784 -120.180811 
L 197.202648 -119.401334 
L 198.239513 -118.621857 
L 199.276378 -117.84238 
L 200.313243 -117.062903 
L 201.350108 -116.283426 
L 202.386973 -115.503949 
L 203.423838 -114.724472 
L 204.460703 -113.944995 
L 205.497568 -113.165518 
L 206.534432 -112.386041 
L 207.571297 -111.606564 
L 208.608162 -110.827087 
L 209.645027 -110.04761 
L 210.681892 -109.268133 
L 211.718757 -108.488656 
L 212.755622 -107.709179 
L 213.792487 -106.929702 
L 214.829352 -106.150226 
L 215.866216 -105.370749 
L 216.903081 -104.591272 
L 216.903081 -104.201533 
L 216.903081 -104.201533 
L 215.866216 -104.201533 
L 214.829352 -104.201533 
L 213.792487 -104.201533 
L 212.755622 -104.201533 
L 211.718757 -104.201533 
L 210.681892 -104.201533 
L 209.645027 -104.201533 
L 208.608162 -104.201533 
L 207.571297 -104.201533 
L 206.534432 -104.201533 
L 205.497568 -104.201533 
L 204.460703 -104.201533 
L 203.423838 -104.201533 
L 202.386973 -104.201533 
L 201.350108 -104.201533 
L 200.313243 -104.201533 
L 199.276378 -104.201533 
L 198.239513 -104.201533 
L 197.202648 -104.201533 
L 196.165784 -104.201533 
L 195.128919 -104.201533 
L 194.092054 -104.201533 
L 193.055189 -104.201533 
L 192.018324 -104.201533 
L 190.981459 -104.201533 
L 189.944594 -104.201533 
L 188.907729 -104.201533 
L 187.870864 -104.201533 
L 186.834 -104.201533 
L 185.797135 -104.201533 
L 184.76027 -104.201533 
L 183.723405 -104.201533 
L 182.68654 -104.201533 
L 181.649675 -104.201533 
L 180.61281 -104.201533 
L 179.575945 -104.201533 
L 178.53908 -104.201533 
L 177.502216 -104.201533 
L 176.465351 -104.201533 
L 175.428486 -104.201533 
L 174.391621 -104.201533 
L 173.354756 -104.201533 
L 172.317891 -104.201533 
L 171.281026 -104.201533 
L 170.244161 -104.201533 
L 169.207296 -104.201533 
L 168.170432 -104.201533 
L 167.133567 -104.201533 
L 166.096702 -104.201533 
L 165.059837 -104.201533 
L 164.022972 -104.201533 
L 162.986107 -104.201533 
L 161.949242 -104.201533 
L 160.912377 -104.201533 
L 159.875512 -104.201533 
L 158.838648 -104.201533 
L 157.801783 -104.201533 
L 156.764918 -104.201533 
L 155.728053 -104.201533 
L 154.691188 -104.201533 
L 153.654323 -104.201533 
L 152.617458 -104.201533 
L 151.580593 -104.201533 
L 150.543728 -104.201533 
L 149.506864 -104.201533 
L 148.469999 -104.201533 
L 147.433134 -104.201533 
L 146.396269 -104.201533 
L 145.359404 -104.201533 
L 144.322539 -104.201533 
L 143.285674 -104.201533 
L 142.248809 -104.201533 
L 141.211944 -104.201533 
L 140.17508 -104.201533 
L 139.138215 -104.201533 
L 138.10135 -104.201533 
L 137.064485 -104.201533 
L 136.02762 -104.201533 
L 134.990755 -104.201533 
L 133.95389 -104.201533 
L 132.917025 -104.201533 
L 131.88016 -104.201533 
L 130.843296 -104.201533 
L 129.806431 -104.201533 
L 128.769566 -104.201533 
L 127.732701 -104.201533 
L 126.695836 -104.201533 
L 125.658971 -104.201533 
L 124.622106 -104.201533 
L 123.585241 -104.201533 
L 122.548376 -104.201533 
L 121.511512 -104.201533 
L 120.474647 -104.201533 
L 119.437782 -104.201533 
L 118.400917 -104.201533 
L 117.364052 -104.201533 
L 116.327187 -104.201533 
L 115.290322 -104.201533 
L 114.253457 -104.201533 
L 113.216592 -104.201533 
L 112.179728 -104.201533 
L 111.142863 -104.201533 
L 110.105998 -104.201533 
L 109.069133 -104.201533 
L 108.032268 -104.201533 
L 106.995403 -104.201533 
L 105.958538 -104.201533 
L 104.921673 -104.201533 
L 103.884808 -104.201533 
L 102.847944 -104.201533 
L 101.811079 -104.201533 
L 100.774214 -104.201533 
L 99.737349 -104.201533 
L 98.700484 -104.201533 
L 97.663619 -104.201533 
L 96.626754 -104.201533 
L 95.589889 -104.201533 
L 94.553024 -104.201533 
L 93.51616 -104.201533 
L 92.479295 -104.201533 
L 91.44243 -104.201533 
L 90.405565 -104.201533 
L 89.3687 -104.201533 
L 88.331835 -104.201533 
L 87.29497 -104.201533 
L 86.258105 -104.201533 
L 85.22124 -104.201533 
L 84.184375 -104.201533 
L 83.147511 -104.201533 
L 82.110646 -104.201533 
L 81.073781 -104.201533 
L 80.036916 -104.201533 
L 79.000051 -104.201533 
L 77.963186 -104.201533 
L 76.926321 -104.201533 
L 75.889456 -104.201533 
L 74.852591 -104.201533 
L 73.815727 -104.201533 
L 72.778862 -104.201533 
L 71.741997 -104.201533 
L 70.705132 -104.201533 
L 69.668267 -104.201533 
z
" style="stroke: #2e7d5b; stroke-opacity: 0.12"/>
    </defs>
    <g clip-path="url(#pcc16b078d8)">
     <use xlink:href="#mb89a06e325" x="0" y="295.354375" style="fill: #2e7d5b; fill-opacity: 0.12; stroke: #2e7d5b; stroke-opacity: 0.12"/>
    </g>
   </g>
   <g id="FillBetweenPolyCollection_2">
    <defs>
     <path id="m467b65b528" d="M 217.939946 -104.201533 
L 217.939946 -103.811795 
L 218.976811 -103.032318 
L 220.013676 -102.252841 
L 221.050541 -101.473364 
L 222.087406 -100.693887 
L 223.124271 -99.91441 
L 224.161136 -99.134933 
L 225.198 -98.355456 
L 226.234865 -97.575979 
L 227.27173 -96.796502 
L 228.308595 -96.017025 
L 229.34546 -95.237548 
L 230.382325 -94.458071 
L 231.41919 -93.678594 
L 232.456055 -92.899117 
L 233.49292 -92.11964 
L 234.529784 -91.340163 
L 235.566649 -90.560686 
L 236.603514 -89.781209 
L 237.640379 -89.001732 
L 238.677244 -88.222255 
L 239.714109 -87.442778 
L 240.750974 -86.663301 
L 241.787839 -85.883824 
L 242.824704 -85.104347 
L 243.861568 -84.32487 
L 244.898433 -83.545393 
L 245.935298 -82.765916 
L 246.972163 -81.986439 
L 248.009028 -81.986439 
L 249.045893 -81.986439 
L 250.082758 -81.986439 
L 251.119623 -81.986439 
L 252.156488 -81.986439 
L 253.193352 -81.986439 
L 254.230217 -81.986439 
L 255.267082 -81.986439 
L 256.303947 -81.986439 
L 257.340812 -81.986439 
L 258.377677 -81.986439 
L 259.414542 -81.986439 
L 260.451407 -81.986439 
L 261.488272 -81.986439 
L 262.525136 -81.986439 
L 263.562001 -81.986439 
L 264.598866 -81.986439 
L 265.635731 -81.986439 
L 266.672596 -81.986439 
L 267.709461 -81.986439 
L 268.746326 -81.986439 
L 269.783191 -81.986439 
L 270.820056 -81.986439 
L 271.85692 -81.986439 
L 272.893785 -81.986439 
L 273.93065 -81.986439 
L 274.967515 -81.986439 
L 276.00438 -81.986439 
L 277.041245 -81.986439 
L 278.07811 -81.986439 
L 279.114975 -81.986439 
L 280.15184 -81.986439 
L 281.188705 -81.986439 
L 282.225569 -81.986439 
L 283.262434 -81.986439 
L 284.299299 -81.986439 
L 285.336164 -81.986439 
L 286.373029 -81.986439 
L 287.409894 -81.986439 
L 288.446759 -81.986439 
L 289.483624 -81.986439 
L 290.520489 -81.986439 
L 291.557353 -81.986439 
L 292.594218 -81.986439 
L 293.631083 -81.986439 
L 294.667948 -81.986439 
L 295.704813 -81.986439 
L 296.741678 -81.986439 
L 297.778543 -81.986439 
L 298.815408 -81.986439 
L 299.852273 -81.986439 
L 300.889137 -81.986439 
L 301.926002 -81.986439 
L 302.962867 -81.986439 
L 303.999732 -81.986439 
L 305.036597 -81.986439 
L 306.073462 -81.986439 
L 307.110327 -81.986439 
L 308.147192 -81.986439 
L 309.184057 -81.986439 
L 310.220921 -81.986439 
L 311.257786 -81.986439 
L 312.294651 -81.986439 
L 313.331516 -81.986439 
L 314.368381 -81.986439 
L 315.405246 -81.986439 
L 316.442111 -81.986439 
L 317.478976 -81.986439 
L 318.515841 -81.986439 
L 319.552705 -81.986439 
L 320.58957 -81.986439 
L 321.626435 -81.986439 
L 322.6633 -81.986439 
L 323.700165 -81.986439 
L 324.73703 -81.986439 
L 325.773895 -81.986439 
L 326.81076 -81.986439 
L 327.847625 -81.986439 
L 328.884489 -81.986439 
L 329.921354 -81.986439 
L 330.958219 -81.986439 
L 331.995084 -81.986439 
L 333.031949 -81.986439 
L 334.068814 -81.986439 
L 335.105679 -81.986439 
L 336.142544 -81.986439 
L 337.179409 -81.986439 
L 338.216273 -81.986439 
L 339.253138 -81.986439 
L 340.290003 -81.986439 
L 341.326868 -81.986439 
L 342.363733 -81.986439 
L 343.400598 -81.986439 
L 344.437463 -81.986439 
L 345.474328 -81.986439 
L 346.511193 -81.986439 
L 347.548057 -81.986439 
L 348.584922 -81.986439 
L 349.621787 -81.986439 
L 350.658652 -81.986439 
L 351.695517 -81.986439 
L 352.732382 -81.986439 
L 353.769247 -81.986439 
L 354.806112 -81.986439 
L 355.842977 -81.986439 
L 356.879841 -81.986439 
L 357.916706 -81.986439 
L 358.953571 -81.986439 
L 359.990436 -81.986439 
L 361.027301 -81.986439 
L 362.064166 -81.986439 
L 363.101031 -81.986439 
L 364.137896 -81.986439 
L 365.174761 -81.986439 
L 366.211625 -81.986439 
L 367.24849 -81.986439 
L 368.285355 -81.986439 
L 369.32222 -81.986439 
L 370.359085 -81.986439 
L 371.39595 -81.986439 
L 372.432815 -81.986439 
L 373.46968 -81.986439 
L 374.506545 -81.986439 
L 375.543409 -81.986439 
L 376.580274 -81.986439 
L 377.617139 -81.986439 
L 378.654004 -81.986439 
L 379.690869 -81.986439 
L 380.727734 -81.986439 
L 381.764599 -81.986439 
L 382.801464 -81.986439 
L 383.838329 -81.986439 
L 384.875193 -81.986439 
L 385.912058 -81.986439 
L 386.948923 -81.986439 
L 387.985788 -81.986439 
L 389.022653 -81.986439 
L 390.059518 -81.986439 
L 391.096383 -81.986439 
L 392.133248 -81.986439 
L 393.170113 -81.986439 
L 394.206977 -81.986439 
L 395.243842 -81.986439 
L 396.280707 -81.986439 
L 397.317572 -81.986439 
L 398.354437 -81.986439 
L 399.391302 -81.986439 
L 400.428167 -81.986439 
L 401.465032 -81.986439 
L 402.501897 -81.986439 
L 403.538761 -81.986439 
L 404.575626 -81.986439 
L 405.612491 -81.986439 
L 406.649356 -81.986439 
L 407.686221 -81.986439 
L 408.723086 -81.986439 
L 409.759951 -81.986439 
L 410.796816 -81.986439 
L 411.833681 -81.986439 
L 412.870545 -81.986439 
L 413.90741 -81.986439 
L 414.944275 -81.986439 
L 415.98114 -81.986439 
L 417.018005 -81.986439 
L 418.05487 -81.986439 
L 419.091735 -81.986439 
L 420.1286 -81.986439 
L 421.165465 -81.986439 
L 422.202329 -81.986439 
L 423.239194 -81.986439 
L 424.276059 -81.986439 
L 425.312924 -81.986439 
L 426.349789 -81.986439 
L 427.386654 -81.986439 
L 428.423519 -81.986439 
L 429.460384 -81.986439 
L 430.497249 -81.986439 
L 431.534113 -81.986439 
L 432.570978 -81.986439 
L 433.607843 -81.986439 
L 434.644708 -81.986439 
L 435.681573 -81.986439 
L 436.718438 -81.986439 
L 437.755303 -81.986439 
L 438.792168 -81.986439 
L 439.829033 -81.986439 
L 440.865897 -81.986439 
L 441.902762 -81.986439 
L 442.939627 -81.986439 
L 443.976492 -81.986439 
L 445.013357 -81.986439 
L 446.050222 -81.986439 
L 447.087087 -81.986439 
L 448.123952 -81.986439 
L 449.160817 -81.986439 
L 450.197681 -81.986439 
L 451.234546 -81.986439 
L 452.271411 -81.986439 
L 453.308276 -81.986439 
L 454.345141 -81.986439 
L 455.382006 -81.986439 
L 456.418871 -81.986439 
L 457.455736 -81.986439 
L 458.492601 -81.986439 
L 459.529465 -81.986439 
L 460.56633 -81.986439 
L 461.603195 -81.986439 
L 462.64006 -81.986439 
L 463.676925 -81.986439 
L 464.71379 -81.986439 
L 465.750655 -81.986439 
L 466.78752 -81.986439 
L 467.824385 -81.986439 
L 468.86125 -81.986439 
L 469.898114 -81.986439 
L 470.934979 -81.986439 
L 471.971844 -81.986439 
L 473.008709 -81.986439 
L 474.045574 -81.986439 
L 475.082439 -81.986439 
L 476.119304 -81.986439 
L 477.156169 -81.986439 
L 478.193034 -81.986439 
L 479.229898 -81.986439 
L 480.266763 -81.986439 
L 481.303628 -81.986439 
L 482.340493 -81.986439 
L 483.377358 -81.986439 
L 483.377358 -104.201533 
L 483.377358 -104.201533 
L 482.340493 -104.201533 
L 481.303628 -104.201533 
L 480.266763 -104.201533 
L 479.229898 -104.201533 
L 478.193034 -104.201533 
L 477.156169 -104.201533 
L 476.119304 -104.201533 
L 475.082439 -104.201533 
L 474.045574 -104.201533 
L 473.008709 -104.201533 
L 471.971844 -104.201533 
L 470.934979 -104.201533 
L 469.898114 -104.201533 
L 468.86125 -104.201533 
L 467.824385 -104.201533 
L 466.78752 -104.201533 
L 465.750655 -104.201533 
L 464.71379 -104.201533 
L 463.676925 -104.201533 
L 462.64006 -104.201533 
L 461.603195 -104.201533 
L 460.56633 -104.201533 
L 459.529465 -104.201533 
L 458.492601 -104.201533 
L 457.455736 -104.201533 
L 456.418871 -104.201533 
L 455.382006 -104.201533 
L 454.345141 -104.201533 
L 453.308276 -104.201533 
L 452.271411 -104.201533 
L 451.234546 -104.201533 
L 450.197681 -104.201533 
L 449.160817 -104.201533 
L 448.123952 -104.201533 
L 447.087087 -104.201533 
L 446.050222 -104.201533 
L 445.013357 -104.201533 
L 443.976492 -104.201533 
L 442.939627 -104.201533 
L 441.902762 -104.201533 
L 440.865897 -104.201533 
L 439.829033 -104.201533 
L 438.792168 -104.201533 
L 437.755303 -104.201533 
L 436.718438 -104.201533 
L 435.681573 -104.201533 
L 434.644708 -104.201533 
L 433.607843 -104.201533 
L 432.570978 -104.201533 
L 431.534113 -104.201533 
L 430.497249 -104.201533 
L 429.460384 -104.201533 
L 428.423519 -104.201533 
L 427.386654 -104.201533 
L 426.349789 -104.201533 
L 425.312924 -104.201533 
L 424.276059 -104.201533 
L 423.239194 -104.201533 
L 422.202329 -104.201533 
L 421.165465 -104.201533 
L 420.1286 -104.201533 
L 419.091735 -104.201533 
L 418.05487 -104.201533 
L 417.018005 -104.201533 
L 415.98114 -104.201533 
L 414.944275 -104.201533 
L 413.90741 -104.201533 
L 412.870545 -104.201533 
L 411.833681 -104.201533 
L 410.796816 -104.201533 
L 409.759951 -104.201533 
L 408.723086 -104.201533 
L 407.686221 -104.201533 
L 406.649356 -104.201533 
L 405.612491 -104.201533 
L 404.575626 -104.201533 
L 403.538761 -104.201533 
L 402.501897 -104.201533 
L 401.465032 -104.201533 
L 400.428167 -104.201533 
L 399.391302 -104.201533 
L 398.354437 -104.201533 
L 397.317572 -104.201533 
L 396.280707 -104.201533 
L 395.243842 -104.201533 
L 394.206977 -104.201533 
L 393.170113 -104.201533 
L 392.133248 -104.201533 
L 391.096383 -104.201533 
L 390.059518 -104.201533 
L 389.022653 -104.201533 
L 387.985788 -104.201533 
L 386.948923 -104.201533 
L 385.912058 -104.201533 
L 384.875193 -104.201533 
L 383.838329 -104.201533 
L 382.801464 -104.201533 
L 381.764599 -104.201533 
L 380.727734 -104.201533 
L 379.690869 -104.201533 
L 378.654004 -104.201533 
L 377.617139 -104.201533 
L 376.580274 -104.201533 
L 375.543409 -104.201533 
L 374.506545 -104.201533 
L 373.46968 -104.201533 
L 372.432815 -104.201533 
L 371.39595 -104.201533 
L 370.359085 -104.201533 
L 369.32222 -104.201533 
L 368.285355 -104.201533 
L 367.24849 -104.201533 
L 366.211625 -104.201533 
L 365.174761 -104.201533 
L 364.137896 -104.201533 
L 363.101031 -104.201533 
L 362.064166 -104.201533 
L 361.027301 -104.201533 
L 359.990436 -104.201533 
L 358.953571 -104.201533 
L 357.916706 -104.201533 
L 356.879841 -104.201533 
L 355.842977 -104.201533 
L 354.806112 -104.201533 
L 353.769247 -104.201533 
L 352.732382 -104.201533 
L 351.695517 -104.201533 
L 350.658652 -104.201533 
L 349.621787 -104.201533 
L 348.584922 -104.201533 
L 347.548057 -104.201533 
L 346.511193 -104.201533 
L 345.474328 -104.201533 
L 344.437463 -104.201533 
L 343.400598 -104.201533 
L 342.363733 -104.201533 
L 341.326868 -104.201533 
L 340.290003 -104.201533 
L 339.253138 -104.201533 
L 338.216273 -104.201533 
L 337.179409 -104.201533 
L 336.142544 -104.201533 
L 335.105679 -104.201533 
L 334.068814 -104.201533 
L 333.031949 -104.201533 
L 331.995084 -104.201533 
L 330.958219 -104.201533 
L 329.921354 -104.201533 
L 328.884489 -104.201533 
L 327.847625 -104.201533 
L 326.81076 -104.201533 
L 325.773895 -104.201533 
L 324.73703 -104.201533 
L 323.700165 -104.201533 
L 322.6633 -104.201533 
L 321.626435 -104.201533 
L 320.58957 -104.201533 
L 319.552705 -104.201533 
L 318.515841 -104.201533 
L 317.478976 -104.201533 
L 316.442111 -104.201533 
L 315.405246 -104.201533 
L 314.368381 -104.201533 
L 313.331516 -104.201533 
L 312.294651 -104.201533 
L 311.257786 -104.201533 
L 310.220921 -104.201533 
L 309.184057 -104.201533 
L 308.147192 -104.201533 
L 307.110327 -104.201533 
L 306.073462 -104.201533 
L 305.036597 -104.201533 
L 303.999732 -104.201533 
L 302.962867 -104.201533 
L 301.926002 -104.201533 
L 300.889137 -104.201533 
L 299.852273 -104.201533 
L 298.815408 -104.201533 
L 297.778543 -104.201533 
L 296.741678 -104.201533 
L 295.704813 -104.201533 
L 294.667948 -104.201533 
L 293.631083 -104.201533 
L 292.594218 -104.201533 
L 291.557353 -104.201533 
L 290.520489 -104.201533 
L 289.483624 -104.201533 
L 288.446759 -104.201533 
L 287.409894 -104.201533 
L 286.373029 -104.201533 
L 285.336164 -104.201533 
L 284.299299 -104.201533 
L 283.262434 -104.201533 
L 282.225569 -104.201533 
L 281.188705 -104.201533 
L 280.15184 -104.201533 
L 279.114975 -104.201533 
L 278.07811 -104.201533 
L 277.041245 -104.201533 
L 276.00438 -104.201533 
L 274.967515 -104.201533 
L 273.93065 -104.201533 
L 272.893785 -104.201533 
L 271.85692 -104.201533 
L 270.820056 -104.201533 
L 269.783191 -104.201533 
L 268.746326 -104.201533 
L 267.709461 -104.201533 
L 266.672596 -104.201533 
L 265.635731 -104.201533 
L 264.598866 -104.201533 
L 263.562001 -104.201533 
L 262.525136 -104.201533 
L 261.488272 -104.201533 
L 260.451407 -104.201533 
L 259.414542 -104.201533 
L 258.377677 -104.201533 
L 257.340812 -104.201533 
L 256.303947 -104.201533 
L 255.267082 -104.201533 
L 254.230217 -104.201533 
L 253.193352 -104.201533 
L 252.156488 -104.201533 
L 251.119623 -104.201533 
L 250.082758 -104.201533 
L 249.045893 -104.201533 
L 248.009028 -104.201533 
L 246.972163 -104.201533 
L 245.935298 -104.201533 
L 244.898433 -104.201533 
L 243.861568 -104.201533 
L 242.824704 -104.201533 
L 241.787839 -104.201533 
L 240.750974 -104.201533 
L 239.714109 -104.201533 
L 238.677244 -104.201533 
L 237.640379 -104.201533 
L 236.603514 -104.201533 
L 235.566649 -104.201533 
L 234.529784 -104.201533 
L 233.49292 -104.201533 
L 232.456055 -104.201533 
L 231.41919 -104.201533 
L 230.382325 -104.201533 
L 229.34546 -104.201533 
L 228.308595 -104.201533 
L 227.27173 -104.201533 
L 226.234865 -104.201533 
L 225.198 -104.201533 
L 224.161136 -104.201533 
L 223.124271 -104.201533 
L 222.087406 -104.201533 
L 221.050541 -104.201533 
L 220.013676 -104.201533 
L 218.976811 -104.201533 
L 217.939946 -104.201533 
z
" style="stroke: #c8553d; stroke-opacity: 0.1"/>
    </defs>
    <g clip-path="url(#pcc16b078d8)">
     <use xlink:href="#m467b65b528" x="0" y="295.354375" style="fill: #c8553d; fill-opacity: 0.1; stroke: #c8553d; stroke-opacity: 0.1"/>
    </g>
   </g>
   <g id="matplotlib.axis_1">
    <g id="xtick_1">
     <g id="line2d_1">
      <defs>
       <path id="m34f67b2cb4" d="M 0 0 
L 0 3.5 
" style="stroke: #000000; stroke-width: 0.8"/>
      </defs>
      <g>
       <use xlink:href="#m34f67b2cb4" x="69.668267" y="257.798125" style="stroke: #000000; stroke-width: 0.8"/>
      </g>
     </g>
     <g id="text_1">
      <!-- 70 -->
      <g transform="translate(63.305767 272.396563) scale(0.1 -0.1)">
       <defs>
        <path id="DejaVuSans-37" d="M 525 4666 
L 3525 4666 
L 3525 4397 
L 1831 0 
L 1172 0 
L 2766 4134 
L 525 4134 
L 525 4666 
z
" transform="scale(0.015625)"/>
        <path id="DejaVuSans-30" d="M 2034 4250 
Q 1547 4250 1301 3770 
Q 1056 3291 1056 2328 
Q 1056 1369 1301 889 
Q 1547 409 2034 409 
Q 2525 409 2770 889 
Q 3016 1369 3016 2328 
Q 3016 3291 2770 3770 
Q 2525 4250 2034 4250 
z
M 2034 4750 
Q 2819 4750 3233 4129 
Q 3647 3509 3647 2328 
Q 3647 1150 3233 529 
Q 2819 -91 2034 -91 
Q 1250 -91 836 529 
Q 422 1150 422 2328 
Q 422 3509 836 4129 
Q 1250 4750 2034 4750 
z
" transform="scale(0.015625)"/>
       </defs>
       <use xlink:href="#DejaVuSans-37"/>
       <use xlink:href="#DejaVuSans-30" transform="translate(63.623047 0)"/>
      </g>
     </g>
    </g>
    <g id="xtick_2">
     <g id="line2d_2">
      <g>
       <use xlink:href="#m34f67b2cb4" x="128.769566" y="257.798125" style="stroke: #000000; stroke-width: 0.8"/>
      </g>
     </g>
     <g id="text_2">
      <!-- 80 -->
      <g transform="translate(122.407066 272.396563) scale(0.1 -0.1)">
       <defs>
        <path id="DejaVuSans-38" d="M 2034 2216 
Q 1584 2216 1326 1975 
Q 1069 1734 1069 1313 
Q 1069 891 1326 650 
Q 1584 409 2034 409 
Q 2484 409 2743 651 
Q 3003 894 3003 1313 
Q 3003 1734 2745 1975 
Q 2488 2216 2034 2216 
z
M 1403 2484 
Q 997 2584 770 2862 
Q 544 3141 544 3541 
Q 544 4100 942 4425 
Q 1341 4750 2034 4750 
Q 2731 4750 3128 4425 
Q 3525 4100 3525 3541 
Q 3525 3141 3298 2862 
Q 3072 2584 2669 2484 
Q 3125 2378 3379 2068 
Q 3634 1759 3634 1313 
Q 3634 634 3220 271 
Q 2806 -91 2034 -91 
Q 1263 -91 848 271 
Q 434 634 434 1313 
Q 434 1759 690 2068 
Q 947 2378 1403 2484 
z
M 1172 3481 
Q 1172 3119 1398 2916 
Q 1625 2713 2034 2713 
Q 2441 2713 2670 2916 
Q 2900 3119 2900 3481 
Q 2900 3844 2670 4047 
Q 2441 4250 2034 4250 
Q 1625 4250 1398 4047 
Q 1172 3844 1172 3481 
z
" transform="scale(0.015625)"/>
       </defs>
       <use xlink:href="#DejaVuSans-38"/>
       <use xlink:href="#DejaVuSans-30" transform="translate(63.623047 0)"/>
      </g>
     </g>
    </g>
    <g id="xtick_3">
     <g id="line2d_3">
      <g>
       <use xlink:href="#m34f67b2cb4" x="187.870864" y="257.798125" style="stroke: #000000; stroke-width: 0.8"/>
      </g>
     </g>
     <g id="text_3">
      <!-- 90 -->
      <g transform="translate(181.508364 272.396563) scale(0.1 -0.1)">
       <defs>
        <path id="DejaVuSans-39" d="M 703 97 
L 703 672 
Q 941 559 1184 500 
Q 1428 441 1663 441 
Q 2288 441 2617 861 
Q 2947 1281 2994 2138 
Q 2813 1869 2534 1725 
Q 2256 1581 1919 1581 
Q 1219 1581 811 2004 
Q 403 2428 403 3163 
Q 403 3881 828 4315 
Q 1253 4750 1959 4750 
Q 2769 4750 3195 4129 
Q 3622 3509 3622 2328 
Q 3622 1225 3098 567 
Q 2575 -91 1691 -91 
Q 1453 -91 1209 -44 
Q 966 3 703 97 
z
M 1959 2075 
Q 2384 2075 2632 2365 
Q 2881 2656 2881 3163 
Q 2881 3666 2632 3958 
Q 2384 4250 1959 4250 
Q 1534 4250 1286 3958 
Q 1038 3666 1038 3163 
Q 1038 2656 1286 2365 
Q 1534 2075 1959 2075 
z
" transform="scale(0.015625)"/>
       </defs>
       <use xlink:href="#DejaVuSans-39"/>
       <use xlink:href="#DejaVuSans-30" transform="translate(63.623047 0)"/>
      </g>
     </g>
    </g>
    <g id="xtick_4">
     <g id="line2d_4">
      <g>
       <use xlink:href="#m34f67b2cb4" x="246.972163" y="257.798125" style="stroke: #000000; stroke-width: 0.8"/>
      </g>
     </g>
     <g id="text_4">
      <!-- 100 -->
      <g transform="translate(237.428413 272.396563) scale(0.1 -0.1)">
       <defs>
        <path id="DejaVuSans-31" d="M 794 531 
L 1825 531 
L 1825 4091 
L 703 3866 
L 703 4441 
L 1819 4666 
L 2450 4666 
L 2450 531 
L 3481 531 
L 3481 0 
L 794 0 
L 794 531 
z
" transform="scale(0.015625)"/>
       </defs>
       <use xlink:href="#DejaVuSans-31"/>
       <use xlink:href="#DejaVuSans-30" transform="translate(63.623047 0)"/>
       <use xlink:href="#DejaVuSans-30" transform="translate(127.246094 0)"/>
      </g>
     </g>
    </g>
    <g id="xtick_5">
     <g id="line2d_5">
      <g>
       <use xlink:href="#m34f67b2cb4" x="306.073462" y="257.798125" style="stroke: #000000; stroke-width: 0.8"/>
      </g>
     </g>
     <g id="text_5">
      <!-- 110 -->
      <g transform="translate(296.529712 272.396563) scale(0.1 -0.1)">
       <use xlink:href="#DejaVuSans-31"/>
       <use xlink:href="#DejaVuSans-31" transform="translate(63.623047 0)"/>
       <use xlink:href="#DejaVuSans-30" transform="translate(127.246094 0)"/>
      </g>
     </g>
    </g>
    <g id="xtick_6">
     <g id="line2d_6">
      <g>
       <use xlink:href="#m34f67b2cb4" x="365.174761" y="257.798125" style="stroke: #000000; stroke-width: 0.8"/>
      </g>
     </g>
     <g id="text_6">
      <!-- 120 -->
      <g transform="translate(355.631011 272.396563) scale(0.1 -0.1)">
       <defs>
        <path id="DejaVuSans-32" d="M 1228 531 
L 3431 531 
L 3431 0 
L 469 0 
L 469 531 
Q 828 903 1448 1529 
Q 2069 2156 2228 2338 
Q 2531 2678 2651 2914 
Q 2772 3150 2772 3378 
Q 2772 3750 2511 3984 
Q 2250 4219 1831 4219 
Q 1534 4219 1204 4116 
Q 875 4013 500 3803 
L 500 4441 
Q 881 4594 1212 4672 
Q 1544 4750 1819 4750 
Q 2544 4750 2975 4387 
Q 3406 4025 3406 3419 
Q 3406 3131 3298 2873 
Q 3191 2616 2906 2266 
Q 2828 2175 2409 1742 
Q 1991 1309 1228 531 
z
" transform="scale(0.015625)"/>
       </defs>
       <use xlink:href="#DejaVuSans-31"/>
       <use xlink:href="#DejaVuSans-32" transform="translate(63.623047 0)"/>
       <use xlink:href="#DejaVuSans-30" transform="translate(127.246094 0)"/>
      </g>
     </g>
    </g>
    <g id="xtick_7">
     <g id="line2d_7">
      <g>
       <use xlink:href="#m34f67b2cb4" x="424.276059" y="257.798125" style="stroke: #000000; stroke-width: 0.8"/>
      </g>
     </g>
     <g id="text_7">
      <!-- 130 -->
      <g transform="translate(414.732309 272.396563) scale(0.1 -0.1)">
       <defs>
        <path id="DejaVuSans-33" d="M 2597 2516 
Q 3050 2419 3304 2112 
Q 3559 1806 3559 1356 
Q 3559 666 3084 287 
Q 2609 -91 1734 -91 
Q 1441 -91 1130 -33 
Q 819 25 488 141 
L 488 750 
Q 750 597 1062 519 
Q 1375 441 1716 441 
Q 2309 441 2620 675 
Q 2931 909 2931 1356 
Q 2931 1769 2642 2001 
Q 2353 2234 1838 2234 
L 1294 2234 
L 1294 2753 
L 1863 2753 
Q 2328 2753 2575 2939 
Q 2822 3125 2822 3475 
Q 2822 3834 2567 4026 
Q 2313 4219 1838 4219 
Q 1578 4219 1281 4162 
Q 984 4106 628 3988 
L 628 4550 
Q 988 4650 1302 4700 
Q 1616 4750 1894 4750 
Q 2613 4750 3031 4423 
Q 3450 4097 3450 3541 
Q 3450 3153 3228 2886 
Q 3006 2619 2597 2516 
z
" transform="scale(0.015625)"/>
       </defs>
       <use xlink:href="#DejaVuSans-31"/>
       <use xlink:href="#DejaVuSans-33" transform="translate(63.623047 0)"/>
       <use xlink:href="#DejaVuSans-30" transform="translate(127.246094 0)"/>
      </g>
     </g>
    </g>
    <g id="xtick_8">
     <g id="line2d_8">
      <g>
       <use xlink:href="#m34f67b2cb4" x="483.377358" y="257.798125" style="stroke: #000000; stroke-width: 0.8"/>
      </g>
     </g>
     <g id="text_8">
      <!-- 140 -->
      <g transform="translate(473.833608 272.396563) scale(0.1 -0.1)">
       <defs>
        <path id="DejaVuSans-34" d="M 2419 4116 
L 825 1625 
L 2419 1625 
L 2419 4116 
z
M 2253 4666 
L 3047 4666 
L 3047 1625 
L 3713 1625 
L 3713 1100 
L 3047 1100 
L 3047 0 
L 2419 0 
L 2419 1100 
L 313 1100 
L 313 1709 
L 2253 4666 
z
" transform="scale(0.015625)"/>
       </defs>
       <use xlink:href="#DejaVuSans-31"/>
       <use xlink:href="#DejaVuSans-34" transform="translate(63.623047 0)"/>
       <use xlink:href="#DejaVuSans-30" transform="translate(127.246094 0)"/>
      </g>
     </g>
    </g>
    <g id="text_9">
     <!-- Underlying Price -->
     <g style="fill: #1f3a5f" transform="translate(235.52125 286.074687) scale(0.1 -0.1)">
      <defs>
       <path id="DejaVuSans-55" d="M 556 4666 
L 1191 4666 
L 1191 1831 
Q 1191 1081 1462 751 
Q 1734 422 2344 422 
Q 2950 422 3222 751 
Q 3494 1081 3494 1831 
L 3494 4666 
L 4128 4666 
L 4128 1753 
Q 4128 841 3676 375 
Q 3225 -91 2344 -91 
Q 1459 -91 1007 375 
Q 556 841 556 1753 
L 556 4666 
z
" transform="scale(0.015625)"/>
       <path id="DejaVuSans-6e" d="M 3513 2113 
L 3513 0 
L 2938 0 
L 2938 2094 
Q 2938 2591 2744 2837 
Q 2550 3084 2163 3084 
Q 1697 3084 1428 2787 
Q 1159 2491 1159 1978 
L 1159 0 
L 581 0 
L 581 3500 
L 1159 3500 
L 1159 2956 
Q 1366 3272 1645 3428 
Q 1925 3584 2291 3584 
Q 2894 3584 3203 3211 
Q 3513 2838 3513 2113 
z
" transform="scale(0.015625)"/>
       <path id="DejaVuSans-64" d="M 2906 2969 
L 2906 4863 
L 3481 4863 
L 3481 0 
L 2906 0 
L 2906 525 
Q 2725 213 2448 61 
Q 2172 -91 1784 -91 
Q 1150 -91 751 415 
Q 353 922 353 1747 
Q 353 2572 751 3078 
Q 1150 3584 1784 3584 
Q 2172 3584 2448 3432 
Q 2725 3281 2906 2969 
z
M 947 1747 
Q 947 1113 1208 752 
Q 1469 391 1925 391 
Q 2381 391 2643 752 
Q 2906 1113 2906 1747 
Q 2906 2381 2643 2742 
Q 2381 3103 1925 3103 
Q 1469 3103 1208 2742 
Q 947 2381 947 1747 
z
" transform="scale(0.015625)"/>
       <path id="DejaVuSans-65" d="M 3597 1894 
L 3597 1613 
L 953 1613 
Q 991 1019 1311 708 
Q 1631 397 2203 397 
Q 2534 397 2845 478 
Q 3156 559 3463 722 
L 3463 178 
Q 3153 47 2828 -22 
Q 2503 -91 2169 -91 
Q 1331 -91 842 396 
Q 353 884 353 1716 
Q 353 2575 817 3079 
Q 1281 3584 2069 3584 
Q 2775 3584 3186 3129 
Q 3597 2675 3597 1894 
z
M 3022 2063 
Q 3016 2534 2758 2815 
Q 2500 3097 2075 3097 
Q 1594 3097 1305 2825 
Q 1016 2553 972 2059 
L 3022 2063 
z
" transform="scale(0.015625)"/>
       <path id="DejaVuSans-72" d="M 2631 2963 
Q 2534 3019 2420 3045 
Q 2306 3072 2169 3072 
Q 1681 3072 1420 2755 
Q 1159 2438 1159 1844 
L 1159 0 
L 581 0 
L 581 3500 
L 1159 3500 
L 1159 2956 
Q 1341 3275 1631 3429 
Q 1922 3584 2338 3584 
Q 2397 3584 2469 3576 
Q 2541 3569 2628 3553 
L 2631 2963 
z
" transform="scale(0.015625)"/>
       <path id="DejaVuSans-6c" d="M 603 4863 
L 1178 4863 
L 1178 0 
L 603 0 
L 603 4863 
z
" transform="scale(0.015625)"/>
       <path id="DejaVuSans-79" d="M 2059 -325 
Q 1816 -950 1584 -1140 
Q 1353 -1331 966 -1331 
L 506 -1331 
L 506 -850 
L 844 -850 
Q 1081 -850 1212 -737 
Q 1344 -625 1503 -206 
L 1606 56 
L 191 3500 
L 800 3500 
L 1894 763 
L 2988 3500 
L 3597 3500 
L 2059 -325 
z
" transform="scale(0.015625)"/>
       <path id="DejaVuSans-69" d="M 603 3500 
L 1178 3500 
L 1178 0 
L 603 0 
L 603 3500 
z
M 603 4863 
L 1178 4863 
L 1178 4134 
L 603 4134 
L 603 4863 
z
" transform="scale(0.015625)"/>
       <path id="DejaVuSans-67" d="M 2906 1791 
Q 2906 2416 2648 2759 
Q 2391 3103 1925 3103 
Q 1463 3103 1205 2759 
Q 947 2416 947 1791 
Q 947 1169 1205 825 
Q 1463 481 1925 481 
Q 2391 481 2648 825 
Q 2906 1169 2906 1791 
z
M 3481 434 
Q 3481 -459 3084 -895 
Q 2688 -1331 1869 -1331 
Q 1566 -1331 1297 -1286 
Q 1028 -1241 775 -1147 
L 775 -588 
Q 1028 -725 1275 -790 
Q 1522 -856 1778 -856 
Q 2344 -856 2625 -561 
Q 2906 -266 2906 331 
L 2906 616 
Q 2728 306 2450 153 
Q 2172 0 1784 0 
Q 1141 0 747 490 
Q 353 981 353 1791 
Q 353 2603 747 3093 
Q 1141 3584 1784 3584 
Q 2172 3584 2450 3431 
Q 2728 3278 2906 2969 
L 2906 3500 
L 3481 3500 
L 3481 434 
z
" transform="scale(0.015625)"/>
       <path id="DejaVuSans-20" transform="scale(0.015625)"/>
       <path id="DejaVuSans-50" d="M 1259 4147 
L 1259 2394 
L 2053 2394 
Q 2494 2394 2734 2622 
Q 2975 2850 2975 3272 
Q 2975 3691 2734 3919 
Q 2494 4147 2053 4147 
L 1259 4147 
z
M 628 4666 
L 2053 4666 
Q 2838 4666 3239 4311 
Q 3641 3956 3641 3272 
Q 3641 2581 3239 2228 
Q 2838 1875 2053 1875 
L 1259 1875 
L 1259 0 
L 628 0 
L 628 4666 
z
" transform="scale(0.015625)"/>
       <path id="DejaVuSans-63" d="M 3122 3366 
L 3122 2828 
Q 2878 2963 2633 3030 
Q 2388 3097 2138 3097 
Q 1578 3097 1268 2742 
Q 959 2388 959 1747 
Q 959 1106 1268 751 
Q 1578 397 2138 397 
Q 2388 397 2633 464 
Q 2878 531 3122 666 
L 3122 134 
Q 2881 22 2623 -34 
Q 2366 -91 2075 -91 
Q 1284 -91 818 406 
Q 353 903 353 1747 
Q 353 2603 823 3093 
Q 1294 3584 2113 3584 
Q 2378 3584 2631 3529 
Q 2884 3475 3122 3366 
z
" transform="scale(0.015625)"/>
      </defs>
      <use xlink:href="#DejaVuSans-55"/>
      <use xlink:href="#DejaVuSans-6e" transform="translate(73.193359 0)"/>
      <use xlink:href="#DejaVuSans-64" transform="translate(136.572266 0)"/>
      <use xlink:href="#DejaVuSans-65" transform="translate(200.048828 0)"/>
      <use xlink:href="#DejaVuSans-72" transform="translate(261.572266 0)"/>
      <use xlink:href="#DejaVuSans-6c" transform="translate(302.685547 0)"/>
      <use xlink:href="#DejaVuSans-79" transform="translate(330.46875 0)"/>
      <use xlink:href="#DejaVuSans-69" transform="translate(389.648438 0)"/>
      <use xlink:href="#DejaVuSans-6e" transform="translate(417.431641 0)"/>
      <use xlink:href="#DejaVuSans-67" transform="translate(480.810547 0)"/>
      <use xlink:href="#DejaVuSans-20" transform="translate(544.287109 0)"/>
      <use xlink:href="#DejaVuSans-50" transform="translate(576.074219 0)"/>
      <use xlink:href="#DejaVuSans-72" transform="translate(634.626953 0)"/>
      <use xlink:href="#DejaVuSans-69" transform="translate(675.740234 0)"/>
      <use xlink:href="#DejaVuSans-63" transform="translate(703.523438 0)"/>
      <use xlink:href="#DejaVuSans-65" transform="translate(758.503906 0)"/>
     </g>
    </g>
   </g>
   <g id="matplotlib.axis_2">
    <g id="ytick_1">
     <g id="line2d_9">
      <defs>
       <path id="me3f176c07d" d="M 0 0 
L -3.5 0 
" style="stroke: #000000; stroke-width: 0.8"/>
      </defs>
      <g>
       <use xlink:href="#me3f176c07d" x="48.982813" y="235.583031" style="stroke: #000000; stroke-width: 0.8"/>
      </g>
     </g>
     <g id="text_10">
      <!-- −10 -->
      <g transform="translate(20.878125 239.382249) scale(0.1 -0.1)">
       <defs>
        <path id="DejaVuSans-2212" d="M 678 2272 
L 4684 2272 
L 4684 1741 
L 678 1741 
L 678 2272 
z
" transform="scale(0.015625)"/>
       </defs>
       <use xlink:href="#DejaVuSans-2212"/>
       <use xlink:href="#DejaVuSans-31" transform="translate(83.789062 0)"/>
       <use xlink:href="#DejaVuSans-30" transform="translate(147.412109 0)"/>
      </g>
     </g>
    </g>
    <g id="ytick_2">
     <g id="line2d_10">
      <g>
       <use xlink:href="#me3f176c07d" x="48.982813" y="191.152842" style="stroke: #000000; stroke-width: 0.8"/>
      </g>
     </g>
     <g id="text_11">
      <!-- 0 -->
      <g transform="translate(35.620312 194.952061) scale(0.1 -0.1)">
       <use xlink:href="#DejaVuSans-30"/>
      </g>
     </g>
    </g>
    <g id="ytick_3">
     <g id="line2d_11">
      <g>
       <use xlink:href="#me3f176c07d" x="48.982813" y="146.722653" style="stroke: #000000; stroke-width: 0.8"/>
      </g>
     </g>
     <g id="text_12">
      <!-- 10 -->
      <g transform="translate(29.257812 150.521872) scale(0.1 -0.1)">
       <use xlink:href="#DejaVuSans-31"/>
       <use xlink:href="#DejaVuSans-30" transform="translate(63.623047 0)"/>
      </g>
     </g>
    </g>
    <g id="ytick_4">
     <g id="line2d_12">
      <g>
       <use xlink:href="#me3f176c07d" x="48.982813" y="102.292465" style="stroke: #000000; stroke-width: 0.8"/>
      </g>
     </g>
     <g id="text_13">
      <!-- 20 -->
      <g transform="translate(29.257812 106.091683) scale(0.1 -0.1)">
       <use xlink:href="#DejaVuSans-32"/>
       <use xlink:href="#DejaVuSans-30" transform="translate(63.623047 0)"/>
      </g>
     </g>
    </g>
    <g id="ytick_5">
     <g id="line2d_13">
      <g>
       <use xlink:href="#me3f176c07d" x="48.982813" y="57.862276" style="stroke: #000000; stroke-width: 0.8"/>
      </g>
     </g>
     <g id="text_14">
      <!-- 30 -->
      <g transform="translate(29.257812 61.661495) scale(0.1 -0.1)">
       <use xlink:href="#DejaVuSans-33"/>
       <use xlink:href="#DejaVuSans-30" transform="translate(63.623047 0)"/>
      </g>
     </g>
    </g>
    <g id="text_15">
     <!-- Profit -->
     <g style="fill: #1f3a5f" transform="translate(14.798438 153.097187) rotate(-90) scale(0.1 -0.1)">
      <defs>
       <path id="DejaVuSans-6f" d="M 1959 3097 
Q 1497 3097 1228 2736 
Q 959 2375 959 1747 
Q 959 1119 1226 758 
Q 1494 397 1959 397 
Q 2419 397 2687 759 
Q 2956 1122 2956 1747 
Q 2956 2369 2687 2733 
Q 2419 3097 1959 3097 
z
M 1959 3584 
Q 2709 3584 3137 3096 
Q 3566 2609 3566 1747 
Q 3566 888 3137 398 
Q 2709 -91 1959 -91 
Q 1206 -91 779 398 
Q 353 888 353 1747 
Q 353 2609 779 3096 
Q 1206 3584 1959 3584 
z
" transform="scale(0.015625)"/>
       <path id="DejaVuSans-66" d="M 2375 4863 
L 2375 4384 
L 1825 4384 
Q 1516 4384 1395 4259 
Q 1275 4134 1275 3809 
L 1275 3500 
L 2222 3500 
L 2222 3053 
L 1275 3053 
L 1275 0 
L 697 0 
L 697 3053 
L 147 3053 
L 147 3500 
L 697 3500 
L 697 3744 
Q 697 4328 969 4595 
Q 1241 4863 1831 4863 
L 2375 4863 
z
" transform="scale(0.015625)"/>
       <path id="DejaVuSans-74" d="M 1172 4494 
L 1172 3500 
L 2356 3500 
L 2356 3053 
L 1172 3053 
L 1172 1153 
Q 1172 725 1289 603 
Q 1406 481 1766 481 
L 2356 481 
L 2356 0 
L 1766 0 
Q 1100 0 847 248 
Q 594 497 594 1153 
L 594 3053 
L 172 3053 
L 172 3500 
L 594 3500 
L 594 4494 
L 1172 4494 
z
" transform="scale(0.015625)"/>
      </defs>
      <use xlink:href="#DejaVuSans-50"/>
      <use xlink:href="#DejaVuSans-72" transform="translate(58.552734 0)"/>
      <use xlink:href="#DejaVuSans-6f" transform="translate(97.416016 0)"/>
      <use xlink:href="#DejaVuSans-66" transform="translate(158.597656 0)"/>
      <use xlink:href="#DejaVuSans-69" transform="translate(193.802734 0)"/>
      <use xlink:href="#DejaVuSans-74" transform="translate(221.585938 0)"/>
     </g>
    </g>
   </g>
   <g id="line2d_14">
    <path d="M 69.668267 80.07737 
L 246.972163 213.367936 
L 483.377358 213.367936 
L 483.377358 213.367936 
" clip-path="url(#pcc16b078d8)" style="fill: none; stroke: #2e7d5b; stroke-width: 2.6; stroke-linecap: square"/>
   </g>
   <g id="line2d_15">
    <path d="M 48.982813 191.152842 
L 504.062812 191.152842 
" clip-path="url(#pcc16b078d8)" style="fill: none; stroke: #41607f; stroke-width: 0.9; stroke-linecap: square"/>
   </g>
   <g id="line2d_16">
    <path d="M 246.972163 257.798125 
L 246.972163 22.318125 
" clip-path="url(#pcc16b078d8)" style="fill: none; stroke-dasharray: 0.8,1.32; stroke-dashoffset: 0; stroke: #41607f; stroke-width: 0.8"/>
   </g>
   <g id="line2d_17">
    <path d="M 48.982813 213.367936 
L 504.062812 213.367936 
" clip-path="url(#pcc16b078d8)" style="fill: none; stroke-dasharray: 3.7,1.6; stroke-dashoffset: 0; stroke: #c8553d"/>
   </g>
   <g id="line2d_18">
    <path d="M 217.421514 257.798125 
L 217.421514 22.318125 
" clip-path="url(#pcc16b078d8)" style="fill: none; stroke-dasharray: 0.8,1.32; stroke-dashoffset: 0; stroke: #1f3a5f; stroke-width: 0.8"/>
   </g>
   <g id="patch_3">
    <path d="M 48.982813 257.798125 
L 48.982813 22.318125 
" style="fill: none; stroke: #41607f; stroke-width: 0.8; stroke-linejoin: miter; stroke-linecap: square"/>
   </g>
   <g id="patch_4">
    <path d="M 48.982813 257.798125 
L 504.062812 257.798125 
" style="fill: none; stroke: #41607f; stroke-width: 0.8; stroke-linejoin: miter; stroke-linecap: square"/>
   </g>
   <g id="text_16">
    <!-- Strike -->
    <g style="fill: #41607f" transform="translate(234.039585 231.140012) scale(0.09 -0.09)">
     <defs>
      <path id="DejaVuSans-53" d="M 3425 4513 
L 3425 3897 
Q 3066 4069 2747 4153 
Q 2428 4238 2131 4238 
Q 1616 4238 1336 4038 
Q 1056 3838 1056 3469 
Q 1056 3159 1242 3001 
Q 1428 2844 1947 2747 
L 2328 2669 
Q 3034 2534 3370 2195 
Q 3706 1856 3706 1288 
Q 3706 609 3251 259 
Q 2797 -91 1919 -91 
Q 1588 -91 1214 -16 
Q 841 59 441 206 
L 441 856 
Q 825 641 1194 531 
Q 1563 422 1919 422 
Q 2459 422 2753 634 
Q 3047 847 3047 1241 
Q 3047 1584 2836 1778 
Q 2625 1972 2144 2069 
L 1759 2144 
Q 1053 2284 737 2584 
Q 422 2884 422 3419 
Q 422 4038 858 4394 
Q 1294 4750 2059 4750 
Q 2388 4750 2728 4690 
Q 3069 4631 3425 4513 
z
" transform="scale(0.015625)"/>
      <path id="DejaVuSans-6b" d="M 581 4863 
L 1159 4863 
L 1159 1991 
L 2875 3500 
L 3609 3500 
L 1753 1863 
L 3688 0 
L 2938 0 
L 1159 1709 
L 1159 0 
L 581 0 
L 581 4863 
z
" transform="scale(0.015625)"/>
     </defs>
     <use xlink:href="#DejaVuSans-53"/>
     <use xlink:href="#DejaVuSans-74" transform="translate(63.476562 0)"/>
     <use xlink:href="#DejaVuSans-72" transform="translate(102.685547 0)"/>
     <use xlink:href="#DejaVuSans-69" transform="translate(143.798828 0)"/>
     <use xlink:href="#DejaVuSans-6b" transform="translate(171.582031 0)"/>
     <use xlink:href="#DejaVuSans-65" transform="translate(225.867188 0)"/>
    </g>
   </g>
   <g id="patch_5">
    <path d="M 167.61384 169.07322 
Q 191.604151 179.708067 214.776777 189.980436 
" style="fill: none; stroke: #1f3a5f; stroke-width: 0.8; stroke-linecap: round"/>
    <path d="M 212.357443 187.048403 
L 214.776777 189.980436 
L 210.979549 190.156683 
" style="fill: none; stroke: #1f3a5f; stroke-width: 0.8; stroke-linecap: round"/>
   </g>
   <g id="text_17">
    <!-- Breakeven -->
    <g style="fill: #1f3a5f" transform="translate(136.894797 154.976588) scale(0.085 -0.085)">
     <defs>
      <path id="DejaVuSans-42" d="M 1259 2228 
L 1259 519 
L 2272 519 
Q 2781 519 3026 730 
Q 3272 941 3272 1375 
Q 3272 1813 3026 2020 
Q 2781 2228 2272 2228 
L 1259 2228 
z
M 1259 4147 
L 1259 2741 
L 2194 2741 
Q 2656 2741 2882 2914 
Q 3109 3088 3109 3444 
Q 3109 3797 2882 3972 
Q 2656 4147 2194 4147 
L 1259 4147 
z
M 628 4666 
L 2241 4666 
Q 2963 4666 3353 4366 
Q 3744 4066 3744 3513 
Q 3744 3084 3544 2831 
Q 3344 2578 2956 2516 
Q 3422 2416 3680 2098 
Q 3938 1781 3938 1306 
Q 3938 681 3513 340 
Q 3088 0 2303 0 
L 628 0 
L 628 4666 
z
" transform="scale(0.015625)"/>
      <path id="DejaVuSans-61" d="M 2194 1759 
Q 1497 1759 1228 1600 
Q 959 1441 959 1056 
Q 959 750 1161 570 
Q 1363 391 1709 391 
Q 2188 391 2477 730 
Q 2766 1069 2766 1631 
L 2766 1759 
L 2194 1759 
z
M 3341 1997 
L 3341 0 
L 2766 0 
L 2766 531 
Q 2569 213 2275 61 
Q 1981 -91 1556 -91 
Q 1019 -91 701 211 
Q 384 513 384 1019 
Q 384 1609 779 1909 
Q 1175 2209 1959 2209 
L 2766 2209 
L 2766 2266 
Q 2766 2663 2505 2880 
Q 2244 3097 1772 3097 
Q 1472 3097 1187 3025 
Q 903 2953 641 2809 
L 641 3341 
Q 956 3463 1253 3523 
Q 1550 3584 1831 3584 
Q 2591 3584 2966 3190 
Q 3341 2797 3341 1997 
z
" transform="scale(0.015625)"/>
      <path id="DejaVuSans-76" d="M 191 3500 
L 800 3500 
L 1894 563 
L 2988 3500 
L 3597 3500 
L 2284 0 
L 1503 0 
L 191 3500 
z
" transform="scale(0.015625)"/>
     </defs>
     <use xlink:href="#DejaVuSans-42"/>
     <use xlink:href="#DejaVuSans-72" transform="translate(68.603516 0)"/>
     <use xlink:href="#DejaVuSans-65" transform="translate(107.466797 0)"/>
     <use xlink:href="#DejaVuSans-61" transform="translate(168.990234 0)"/>
     <use xlink:href="#DejaVuSans-6b" transform="translate(230.269531 0)"/>
     <use xlink:href="#DejaVuSans-65" transform="translate(284.554688 0)"/>
     <use xlink:href="#DejaVuSans-76" transform="translate(346.078125 0)"/>
     <use xlink:href="#DejaVuSans-65" transform="translate(405.257812 0)"/>
     <use xlink:href="#DejaVuSans-6e" transform="translate(466.78125 0)"/>
    </g>
    <!-- (Strike − Premium) -->
    <g style="fill: #1f3a5f" transform="translate(100.557297 164.494729) scale(0.085 -0.085)">
     <defs>
      <path id="DejaVuSans-28" d="M 1984 4856 
Q 1566 4138 1362 3434 
Q 1159 2731 1159 2009 
Q 1159 1288 1364 580 
Q 1569 -128 1984 -844 
L 1484 -844 
Q 1016 -109 783 600 
Q 550 1309 550 2009 
Q 550 2706 781 3412 
Q 1013 4119 1484 4856 
L 1984 4856 
z
" transform="scale(0.015625)"/>
      <path id="DejaVuSans-6d" d="M 3328 2828 
Q 3544 3216 3844 3400 
Q 4144 3584 4550 3584 
Q 5097 3584 5394 3201 
Q 5691 2819 5691 2113 
L 5691 0 
L 5113 0 
L 5113 2094 
Q 5113 2597 4934 2840 
Q 4756 3084 4391 3084 
Q 3944 3084 3684 2787 
Q 3425 2491 3425 1978 
L 3425 0 
L 2847 0 
L 2847 2094 
Q 2847 2600 2669 2842 
Q 2491 3084 2119 3084 
Q 1678 3084 1418 2786 
Q 1159 2488 1159 1978 
L 1159 0 
L 581 0 
L 581 3500 
L 1159 3500 
L 1159 2956 
Q 1356 3278 1631 3431 
Q 1906 3584 2284 3584 
Q 2666 3584 2933 3390 
Q 3200 3197 3328 2828 
z
" transform="scale(0.015625)"/>
      <path id="DejaVuSans-75" d="M 544 1381 
L 544 3500 
L 1119 3500 
L 1119 1403 
Q 1119 906 1312 657 
Q 1506 409 1894 409 
Q 2359 409 2629 706 
Q 2900 1003 2900 1516 
L 2900 3500 
L 3475 3500 
L 3475 0 
L 2900 0 
L 2900 538 
Q 2691 219 2414 64 
Q 2138 -91 1772 -91 
Q 1169 -91 856 284 
Q 544 659 544 1381 
z
M 1991 3584 
L 1991 3584 
z
" transform="scale(0.015625)"/>
      <path id="DejaVuSans-29" d="M 513 4856 
L 1013 4856 
Q 1481 4119 1714 3412 
Q 1947 2706 1947 2009 
Q 1947 1309 1714 600 
Q 1481 -109 1013 -844 
L 513 -844 
Q 928 -128 1133 580 
Q 1338 1288 1338 2009 
Q 1338 2731 1133 3434 
Q 928 4138 513 4856 
z
" transform="scale(0.015625)"/>
     </defs>
     <use xlink:href="#DejaVuSans-28"/>
     <use xlink:href="#DejaVuSans-53" transform="translate(39.013672 0)"/>
     <use xlink:href="#DejaVuSans-74" transform="translate(102.490234 0)"/>
     <use xlink:href="#DejaVuSans-72" transform="translate(141.699219 0)"/>
     <use xlink:href="#DejaVuSans-69" transform="translate(182.8125 0)"/>
     <use xlink:href="#DejaVuSans-6b" transform="translate(210.595703 0)"/>
     <use xlink:href="#DejaVuSans-65" transform="translate(264.880859 0)"/>
     <use xlink:href="#DejaVuSans-20" transform="translate(326.404297 0)"/>
     <use xlink:href="#DejaVuSans-2212" transform="translate(358.191406 0)"/>
     <use xlink:href="#DejaVuSans-20" transform="translate(441.980469 0)"/>
     <use xlink:href="#DejaVuSans-50" transform="translate(473.767578 0)"/>
     <use xlink:href="#DejaVuSans-72" transform="translate(532.320312 0)"/>
     <use xlink:href="#DejaVuSans-65" transform="translate(571.183594 0)"/>
     <use xlink:href="#DejaVuSans-6d" transform="translate(632.707031 0)"/>
     <use xlink:href="#DejaVuSans-69" transform="translate(730.119141 0)"/>
     <use xlink:href="#DejaVuSans-75" transform="translate(757.902344 0)"/>
     <use xlink:href="#DejaVuSans-6d" transform="translate(821.28125 0)"/>
     <use xlink:href="#DejaVuSans-29" transform="translate(918.693359 0)"/>
    </g>
   </g>
   <g id="text_18">
    <!-- Max loss = Premium paid -->
    <g style="fill: #c8553d" transform="translate(74.852591 240.02605) scale(0.085 -0.085)">
     <defs>
      <path id="DejaVuSans-4d" d="M 628 4666 
L 1569 4666 
L 2759 1491 
L 3956 4666 
L 4897 4666 
L 4897 0 
L 4281 0 
L 4281 4097 
L 3078 897 
L 2444 897 
L 1241 4097 
L 1241 0 
L 628 0 
L 628 4666 
z
" transform="scale(0.015625)"/>
      <path id="DejaVuSans-78" d="M 3513 3500 
L 2247 1797 
L 3578 0 
L 2900 0 
L 1881 1375 
L 863 0 
L 184 0 
L 1544 1831 
L 300 3500 
L 978 3500 
L 1906 2253 
L 2834 3500 
L 3513 3500 
z
" transform="scale(0.015625)"/>
      <path id="DejaVuSans-73" d="M 2834 3397 
L 2834 2853 
Q 2591 2978 2328 3040 
Q 2066 3103 1784 3103 
Q 1356 3103 1142 2972 
Q 928 2841 928 2578 
Q 928 2378 1081 2264 
Q 1234 2150 1697 2047 
L 1894 2003 
Q 2506 1872 2764 1633 
Q 3022 1394 3022 966 
Q 3022 478 2636 193 
Q 2250 -91 1575 -91 
Q 1294 -91 989 -36 
Q 684 19 347 128 
L 347 722 
Q 666 556 975 473 
Q 1284 391 1588 391 
Q 1994 391 2212 530 
Q 2431 669 2431 922 
Q 2431 1156 2273 1281 
Q 2116 1406 1581 1522 
L 1381 1569 
Q 847 1681 609 1914 
Q 372 2147 372 2553 
Q 372 3047 722 3315 
Q 1072 3584 1716 3584 
Q 2034 3584 2315 3537 
Q 2597 3491 2834 3397 
z
" transform="scale(0.015625)"/>
      <path id="DejaVuSans-3d" d="M 678 2906 
L 4684 2906 
L 4684 2381 
L 678 2381 
L 678 2906 
z
M 678 1631 
L 4684 1631 
L 4684 1100 
L 678 1100 
L 678 1631 
z
" transform="scale(0.015625)"/>
      <path id="DejaVuSans-70" d="M 1159 525 
L 1159 -1331 
L 581 -1331 
L 581 3500 
L 1159 3500 
L 1159 2969 
Q 1341 3281 1617 3432 
Q 1894 3584 2278 3584 
Q 2916 3584 3314 3078 
Q 3713 2572 3713 1747 
Q 3713 922 3314 415 
Q 2916 -91 2278 -91 
Q 1894 -91 1617 61 
Q 1341 213 1159 525 
z
M 3116 1747 
Q 3116 2381 2855 2742 
Q 2594 3103 2138 3103 
Q 1681 3103 1420 2742 
Q 1159 2381 1159 1747 
Q 1159 1113 1420 752 
Q 1681 391 2138 391 
Q 2594 391 2855 752 
Q 3116 1113 3116 1747 
z
" transform="scale(0.015625)"/>
     </defs>
     <use xlink:href="#DejaVuSans-4d"/>
     <use xlink:href="#DejaVuSans-61" transform="translate(86.279297 0)"/>
     <use xlink:href="#DejaVuSans-78" transform="translate(147.558594 0)"/>
     <use xlink:href="#DejaVuSans-20" transform="translate(206.738281 0)"/>
     <use xlink:href="#DejaVuSans-6c" transform="translate(238.525391 0)"/>
     <use xlink:href="#DejaVuSans-6f" transform="translate(266.308594 0)"/>
     <use xlink:href="#DejaVuSans-73" transform="translate(327.490234 0)"/>
     <use xlink:href="#DejaVuSans-73" transform="translate(379.589844 0)"/>
     <use xlink:href="#DejaVuSans-20" transform="translate(431.689453 0)"/>
     <use xlink:href="#DejaVuSans-3d" transform="translate(463.476562 0)"/>
     <use xlink:href="#DejaVuSans-20" transform="translate(547.265625 0)"/>
     <use xlink:href="#DejaVuSans-50" transform="translate(579.052734 0)"/>
     <use xlink:href="#DejaVuSans-72" transform="translate(637.605469 0)"/>
     <use xlink:href="#DejaVuSans-65" transform="translate(676.46875 0)"/>
     <use xlink:href="#DejaVuSans-6d" transform="translate(737.992188 0)"/>
     <use xlink:href="#DejaVuSans-69" transform="translate(835.404297 0)"/>
     <use xlink:href="#DejaVuSans-75" transform="translate(863.1875 0)"/>
     <use xlink:href="#DejaVuSans-6d" transform="translate(926.566406 0)"/>
     <use xlink:href="#DejaVuSans-20" transform="translate(1023.978516 0)"/>
     <use xlink:href="#DejaVuSans-70" transform="translate(1055.765625 0)"/>
     <use xlink:href="#DejaVuSans-61" transform="translate(1119.242188 0)"/>
     <use xlink:href="#DejaVuSans-69" transform="translate(1180.521484 0)"/>
     <use xlink:href="#DejaVuSans-64" transform="translate(1208.304688 0)"/>
    </g>
   </g>
   <g id="text_19">
    <!-- Long Put — Payoff at Expiry -->
    <g style="fill: #1f3a5f" transform="translate(48.982813 16.318125) scale(0.12 -0.12)">
     <defs>
      <path id="DejaVuSans-Bold-4c" d="M 588 4666 
L 1791 4666 
L 1791 909 
L 3903 909 
L 3903 0 
L 588 0 
L 588 4666 
z
" transform="scale(0.015625)"/>
      <path id="DejaVuSans-Bold-6f" d="M 2203 2784 
Q 1831 2784 1636 2517 
Q 1441 2250 1441 1747 
Q 1441 1244 1636 976 
Q 1831 709 2203 709 
Q 2569 709 2762 976 
Q 2956 1244 2956 1747 
Q 2956 2250 2762 2517 
Q 2569 2784 2203 2784 
z
M 2203 3584 
Q 3106 3584 3614 3096 
Q 4122 2609 4122 1747 
Q 4122 884 3614 396 
Q 3106 -91 2203 -91 
Q 1297 -91 786 396 
Q 275 884 275 1747 
Q 275 2609 786 3096 
Q 1297 3584 2203 3584 
z
" transform="scale(0.015625)"/>
      <path id="DejaVuSans-Bold-6e" d="M 4056 2131 
L 4056 0 
L 2931 0 
L 2931 347 
L 2931 1631 
Q 2931 2084 2911 2256 
Q 2891 2428 2841 2509 
Q 2775 2619 2662 2680 
Q 2550 2741 2406 2741 
Q 2056 2741 1856 2470 
Q 1656 2200 1656 1722 
L 1656 0 
L 538 0 
L 538 3500 
L 1656 3500 
L 1656 2988 
Q 1909 3294 2193 3439 
Q 2478 3584 2822 3584 
Q 3428 3584 3742 3212 
Q 4056 2841 4056 2131 
z
" transform="scale(0.015625)"/>
      <path id="DejaVuSans-Bold-67" d="M 2919 594 
Q 2688 288 2409 144 
Q 2131 0 1766 0 
Q 1125 0 706 504 
Q 288 1009 288 1791 
Q 288 2575 706 3076 
Q 1125 3578 1766 3578 
Q 2131 3578 2409 3434 
Q 2688 3291 2919 2981 
L 2919 3500 
L 4044 3500 
L 4044 353 
Q 4044 -491 3511 -936 
Q 2978 -1381 1966 -1381 
Q 1638 -1381 1331 -1331 
Q 1025 -1281 716 -1178 
L 716 -306 
Q 1009 -475 1290 -558 
Q 1572 -641 1856 -641 
Q 2406 -641 2662 -400 
Q 2919 -159 2919 353 
L 2919 594 
z
M 2181 2772 
Q 1834 2772 1640 2515 
Q 1447 2259 1447 1791 
Q 1447 1309 1634 1061 
Q 1822 813 2181 813 
Q 2531 813 2725 1069 
Q 2919 1325 2919 1791 
Q 2919 2259 2725 2515 
Q 2531 2772 2181 2772 
z
" transform="scale(0.015625)"/>
      <path id="DejaVuSans-Bold-20" transform="scale(0.015625)"/>
      <path id="DejaVuSans-Bold-50" d="M 588 4666 
L 2584 4666 
Q 3475 4666 3951 4270 
Q 4428 3875 4428 3144 
Q 4428 2409 3951 2014 
Q 3475 1619 2584 1619 
L 1791 1619 
L 1791 0 
L 588 0 
L 588 4666 
z
M 1791 3794 
L 1791 2491 
L 2456 2491 
Q 2806 2491 2997 2661 
Q 3188 2831 3188 3144 
Q 3188 3456 2997 3625 
Q 2806 3794 2456 3794 
L 1791 3794 
z
" transform="scale(0.015625)"/>
      <path id="DejaVuSans-Bold-75" d="M 500 1363 
L 500 3500 
L 1625 3500 
L 1625 3150 
Q 1625 2866 1622 2436 
Q 1619 2006 1619 1863 
Q 1619 1441 1641 1255 
Q 1663 1069 1716 984 
Q 1784 875 1895 815 
Q 2006 756 2150 756 
Q 2500 756 2700 1025 
Q 2900 1294 2900 1772 
L 2900 3500 
L 4019 3500 
L 4019 0 
L 2900 0 
L 2900 506 
Q 2647 200 2364 54 
Q 2081 -91 1741 -91 
Q 1134 -91 817 281 
Q 500 653 500 1363 
z
" transform="scale(0.015625)"/>
      <path id="DejaVuSans-Bold-74" d="M 1759 4494 
L 1759 3500 
L 2913 3500 
L 2913 2700 
L 1759 2700 
L 1759 1216 
Q 1759 972 1856 886 
Q 1953 800 2241 800 
L 2816 800 
L 2816 0 
L 1856 0 
Q 1194 0 917 276 
Q 641 553 641 1216 
L 641 2700 
L 84 2700 
L 84 3500 
L 641 3500 
L 641 4494 
L 1759 4494 
z
" transform="scale(0.015625)"/>
      <path id="DejaVuSans-Bold-2014" d="M 344 2156 
L 6056 2156 
L 6056 1350 
L 344 1350 
L 344 2156 
z
" transform="scale(0.015625)"/>
      <path id="DejaVuSans-Bold-61" d="M 2106 1575 
Q 1756 1575 1579 1456 
Q 1403 1338 1403 1106 
Q 1403 894 1545 773 
Q 1688 653 1941 653 
Q 2256 653 2472 879 
Q 2688 1106 2688 1447 
L 2688 1575 
L 2106 1575 
z
M 3816 1997 
L 3816 0 
L 2688 0 
L 2688 519 
Q 2463 200 2181 54 
Q 1900 -91 1497 -91 
Q 953 -91 614 226 
Q 275 544 275 1050 
Q 275 1666 698 1953 
Q 1122 2241 2028 2241 
L 2688 2241 
L 2688 2328 
Q 2688 2594 2478 2717 
Q 2269 2841 1825 2841 
Q 1466 2841 1156 2769 
Q 847 2697 581 2553 
L 581 3406 
Q 941 3494 1303 3539 
Q 1666 3584 2028 3584 
Q 2975 3584 3395 3211 
Q 3816 2838 3816 1997 
z
" transform="scale(0.015625)"/>
      <path id="DejaVuSans-Bold-79" d="M 78 3500 
L 1197 3500 
L 2138 1125 
L 2938 3500 
L 4056 3500 
L 2584 -331 
Q 2363 -916 2067 -1148 
Q 1772 -1381 1288 -1381 
L 641 -1381 
L 641 -647 
L 991 -647 
Q 1275 -647 1404 -556 
Q 1534 -466 1606 -231 
L 1638 -134 
L 78 3500 
z
" transform="scale(0.015625)"/>
      <path id="DejaVuSans-Bold-66" d="M 2841 4863 
L 2841 4128 
L 2222 4128 
Q 1984 4128 1890 4042 
Q 1797 3956 1797 3744 
L 1797 3500 
L 2753 3500 
L 2753 2700 
L 1797 2700 
L 1797 0 
L 678 0 
L 678 2700 
L 122 2700 
L 122 3500 
L 678 3500 
L 678 3744 
Q 678 4316 997 4589 
Q 1316 4863 1984 4863 
L 2841 4863 
z
" transform="scale(0.015625)"/>
      <path id="DejaVuSans-Bold-45" d="M 588 4666 
L 3834 4666 
L 3834 3756 
L 1791 3756 
L 1791 2888 
L 3713 2888 
L 3713 1978 
L 1791 1978 
L 1791 909 
L 3903 909 
L 3903 0 
L 588 0 
L 588 4666 
z
" transform="scale(0.015625)"/>
      <path id="DejaVuSans-Bold-78" d="M 1422 1791 
L 159 3500 
L 1344 3500 
L 2059 2463 
L 2784 3500 
L 3969 3500 
L 2706 1797 
L 4031 0 
L 2847 0 
L 2059 1106 
L 1281 0 
L 97 0 
L 1422 1791 
z
" transform="scale(0.015625)"/>
      <path id="DejaVuSans-Bold-70" d="M 1656 506 
L 1656 -1331 
L 538 -1331 
L 538 3500 
L 1656 3500 
L 1656 2988 
Q 1888 3294 2169 3439 
Q 2450 3584 2816 3584 
Q 3463 3584 3878 3070 
Q 4294 2556 4294 1747 
Q 4294 938 3878 423 
Q 3463 -91 2816 -91 
Q 2450 -91 2169 54 
Q 1888 200 1656 506 
z
M 2400 2772 
Q 2041 2772 1848 2508 
Q 1656 2244 1656 1747 
Q 1656 1250 1848 986 
Q 2041 722 2400 722 
Q 2759 722 2948 984 
Q 3138 1247 3138 1747 
Q 3138 2247 2948 2509 
Q 2759 2772 2400 2772 
z
" transform="scale(0.015625)"/>
      <path id="DejaVuSans-Bold-69" d="M 538 3500 
L 1656 3500 
L 1656 0 
L 538 0 
L 538 3500 
z
M 538 4863 
L 1656 4863 
L 1656 3950 
L 538 3950 
L 538 4863 
z
" transform="scale(0.015625)"/>
      <path id="DejaVuSans-Bold-72" d="M 3138 2547 
Q 2991 2616 2845 2648 
Q 2700 2681 2553 2681 
Q 2122 2681 1889 2404 
Q 1656 2128 1656 1613 
L 1656 0 
L 538 0 
L 538 3500 
L 1656 3500 
L 1656 2925 
Q 1872 3269 2151 3426 
Q 2431 3584 2822 3584 
Q 2878 3584 2943 3579 
Q 3009 3575 3134 3559 
L 3138 2547 
z
" transform="scale(0.015625)"/>
     </defs>
     <use xlink:href="#DejaVuSans-Bold-4c"/>
     <use xlink:href="#DejaVuSans-Bold-6f" transform="translate(63.720703 0)"/>
     <use xlink:href="#DejaVuSans-Bold-6e" transform="translate(132.421875 0)"/>
     <use xlink:href="#DejaVuSans-Bold-67" transform="translate(203.613281 0)"/>
     <use xlink:href="#DejaVuSans-Bold-20" transform="translate(275.195312 0)"/>
     <use xlink:href="#DejaVuSans-Bold-50" transform="translate(310.009766 0)"/>
     <use xlink:href="#DejaVuSans-Bold-75" transform="translate(383.300781 0)"/>
     <use xlink:href="#DejaVuSans-Bold-74" transform="translate(454.492188 0)"/>
     <use xlink:href="#DejaVuSans-Bold-20" transform="translate(502.294922 0)"/>
     <use xlink:href="#DejaVuSans-Bold-2014" transform="translate(537.109375 0)"/>
     <use xlink:href="#DejaVuSans-Bold-20" transform="translate(637.109375 0)"/>
     <use xlink:href="#DejaVuSans-Bold-50" transform="translate(671.923828 0)"/>
     <use xlink:href="#DejaVuSans-Bold-61" transform="translate(742.589844 0)"/>
     <use xlink:href="#DejaVuSans-Bold-79" transform="translate(806.945312 0)"/>
     <use xlink:href="#DejaVuSans-Bold-6f" transform="translate(872.130859 0)"/>
     <use xlink:href="#DejaVuSans-Bold-66" transform="translate(940.832031 0)"/>
     <use xlink:href="#DejaVuSans-Bold-66" transform="translate(984.337891 0)"/>
     <use xlink:href="#DejaVuSans-Bold-20" transform="translate(1027.84375 0)"/>
     <use xlink:href="#DejaVuSans-Bold-61" transform="translate(1062.658203 0)"/>
     <use xlink:href="#DejaVuSans-Bold-74" transform="translate(1130.138672 0)"/>
     <use xlink:href="#DejaVuSans-Bold-20" transform="translate(1177.941406 0)"/>
     <use xlink:href="#DejaVuSans-Bold-45" transform="translate(1212.755859 0)"/>
     <use xlink:href="#DejaVuSans-Bold-78" transform="translate(1281.066406 0)"/>
     <use xlink:href="#DejaVuSans-Bold-70" transform="translate(1345.568359 0)"/>
     <use xlink:href="#DejaVuSans-Bold-69" transform="translate(1417.150391 0)"/>
     <use xlink:href="#DejaVuSans-Bold-72" transform="translate(1451.427734 0)"/>
     <use xlink:href="#DejaVuSans-Bold-79" transform="translate(1500.744141 0)"/>
    </g>
   </g>
  </g>
 </g>
 <defs>
  <clipPath id="pcc16b078d8">
   <rect x="48.982813" y="22.318125" width="455.08" height="235.48"/>
  </clipPath>
 </defs>
</svg>
