<?xml version="1.0" encoding="utf-8" standalone="no"?>
<!DOCTYPE svg PUBLIC "-//W3C//DTD SVG 1.1//EN"
  "http://www.w3.org/Graphics/SVG/1.1/DTD/svg11.dtd">
<svg xmlns:xlink="http://www.w3.org/1999/xlink" width="518.4pt" height="316.8pt" viewBox="0 0 518.4 316.8" xmlns="http://www.w3.org/2000/svg" version="1.1">
 <metadata>
  <rdf:RDF xmlns:dc="http://purl.org/dc/elements/1.1/" xmlns:cc="http://creativecommons.org/ns#" xmlns:rdf="http://www.w3.org/1999/02/22-rdf-syntax-ns#">
   <cc:Work>
    <dc:type rdf:resource="http://purl.org/dc/dcmitype/StillImage"/>
    <dc:date>2026-06-27T19:40:48.046883</dc:date>
    <dc:format>image/svg+xml</dc:format>
    <dc:creator>
     <cc:Agent>
      <dc:title>Matplotlib v3.10.9, https://matplotlib.org/</dc:title>
     </cc:Agent>
    </dc:creator>
   </cc:Work>
  </rdf:RDF>
 </metadata>
 <defs>
  <style type="text/css">*{stroke-linejoin: round; stroke-linecap: butt}</style>
 </defs>
 <g id="figure_1">
  <g id="patch_1">
   <path d="M 0 316.8 
L 518.4 316.8 
L 518.4 0 
L 0 0 
z
" style="fill: #ffffff"/>
  </g>
  <g id="axes_1">
   <g id="patch_2">
    <path d="M 51.14 272.32 
L 494.37 272.32 
L 494.37 27.96 
L 51.14 27.96 
z
" style="fill: #ffffff"/>
   </g>
   <g id="matplotlib.axis_1">
    <g id="xtick_1">
     <g id="line2d_1">
      <path d="M 51.14 272.32 
L 51.14 27.96 
" clip-path="url(#p26d5183596)" style="fill: none; stroke: #eef2f6; stroke-linecap: square"/>
     </g>
     <g id="line2d_2">
      <defs>
       <path id="mb177935852" d="M 0 0 
L 0 3.5 
" style="stroke: #41607f; stroke-width: 0.8"/>
      </defs>
      <g>
       <use xlink:href="#mb177935852" x="51.14" y="272.32" style="fill: #41607f; stroke: #41607f; stroke-width: 0.8"/>
      </g>
     </g>
     <g id="text_1">
      <text style="font-size: 11px; font-family: 'DejaVu Sans'; text-anchor: middle; fill: #41607f" x="51.14" y="287.678281" transform="rotate(-0 51.14 287.678281)">0.00</text>
     </g>
    </g>
    <g id="xtick_2">
     <g id="line2d_3">
      <path d="M 161.9475 272.32 
L 161.9475 27.96 
" clip-path="url(#p26d5183596)" style="fill: none; stroke: #eef2f6; stroke-linecap: square"/>
     </g>
     <g id="line2d_4">
      <g>
       <use xlink:href="#mb177935852" x="161.9475" y="272.32" style="fill: #41607f; stroke: #41607f; stroke-width: 0.8"/>
      </g>
     </g>
     <g id="text_2">
      <text style="font-size: 11px; font-family: 'DejaVu Sans'; text-anchor: middle; fill: #41607f" x="161.9475" y="287.678281" transform="rotate(-0 161.9475 287.678281)">0.25</text>
     </g>
    </g>
    <g id="xtick_3">
     <g id="line2d_5">
      <path d="M 272.755 272.32 
L 272.755 27.96 
" clip-path="url(#p26d5183596)" style="fill: none; stroke: #eef2f6; stroke-linecap: square"/>
     </g>
     <g id="line2d_6">
      <g>
       <use xlink:href="#mb177935852" x="272.755" y="272.32" style="fill: #41607f; stroke: #41607f; stroke-width: 0.8"/>
      </g>
     </g>
     <g id="text_3">
      <text style="font-size: 11px; font-family: 'DejaVu Sans'; text-anchor: middle; fill: #41607f" x="272.755" y="287.678281" transform="rotate(-0 272.755 287.678281)">0.50</text>
     </g>
    </g>
    <g id="xtick_4">
     <g id="line2d_7">
      <path d="M 383.5625 272.32 
L 383.5625 27.96 
" clip-path="url(#p26d5183596)" style="fill: none; stroke: #eef2f6; stroke-linecap: square"/>
     </g>
     <g id="line2d_8">
      <g>
       <use xlink:href="#mb177935852" x="383.5625" y="272.32" style="fill: #41607f; stroke: #41607f; stroke-width: 0.8"/>
      </g>
     </g>
     <g id="text_4">
      <text style="font-size: 11px; font-family: 'DejaVu Sans'; text-anchor: middle; fill: #41607f" x="383.5625" y="287.678281" transform="rotate(-0 383.5625 287.678281)">0.75</text>
     </g>
    </g>
    <g id="xtick_5">
     <g id="line2d_9">
      <path d="M 494.37 272.32 
L 494.37 27.96 
" clip-path="url(#p26d5183596)" style="fill: none; stroke: #eef2f6; stroke-linecap: square"/>
     </g>
     <g id="line2d_10">
      <g>
       <use xlink:href="#mb177935852" x="494.37" y="272.32" style="fill: #41607f; stroke: #41607f; stroke-width: 0.8"/>
      </g>
     </g>
     <g id="text_5">
      <text style="font-size: 11px; font-family: 'DejaVu Sans'; text-anchor: middle; fill: #41607f" x="494.37" y="287.678281" transform="rotate(-0 494.37 287.678281)">1.00</text>
     </g>
    </g>
    <g id="text_6">
     <text style="font-size: 11px; font-family: 'DejaVu Sans'; text-anchor: middle; fill: #1f3a5f" x="272.755" y="302.324219" transform="rotate(-0 272.755 302.324219)">Default correlation  ρ</text>
    </g>
   </g>
   <g id="matplotlib.axis_2">
    <g id="ytick_1">
     <g id="line2d_11">
      <path d="M 51.14 272.32 
L 494.37 272.32 
" clip-path="url(#p26d5183596)" style="fill: none; stroke: #eef2f6; stroke-linecap: square"/>
     </g>
     <g id="line2d_12">
      <defs>
       <path id="m209d50f2fd" d="M 0 0 
L -3.5 0 
" style="stroke: #41607f; stroke-width: 0.8"/>
      </defs>
      <g>
       <use xlink:href="#m209d50f2fd" x="51.14" y="272.32" style="fill: #41607f; stroke: #41607f; stroke-width: 0.8"/>
      </g>
     </g>
     <g id="text_7">
      <text style="font-size: 11px; font-family: 'DejaVu Sans'; text-anchor: end; fill: #41607f" x="44.14" y="276.499141" transform="rotate(-0 44.14 276.499141)">0.0</text>
     </g>
    </g>
    <g id="ytick_2">
     <g id="line2d_13">
      <path d="M 51.14 227.890909 
L 494.37 227.890909 
" clip-path="url(#p26d5183596)" style="fill: none; stroke: #eef2f6; stroke-linecap: square"/>
     </g>
     <g id="line2d_14">
      <g>
       <use xlink:href="#m209d50f2fd" x="51.14" y="227.890909" style="fill: #41607f; stroke: #41607f; stroke-width: 0.8"/>
      </g>
     </g>
     <g id="text_8">
      <text style="font-size: 11px; font-family: 'DejaVu Sans'; text-anchor: end; fill: #41607f" x="44.14" y="232.07005" transform="rotate(-0 44.14 232.07005)">0.2</text>
     </g>
    </g>
    <g id="ytick_3">
     <g id="line2d_15">
      <path d="M 51.14 183.461818 
L 494.37 183.461818 
" clip-path="url(#p26d5183596)" style="fill: none; stroke: #eef2f6; stroke-linecap: square"/>
     </g>
     <g id="line2d_16">
      <g>
       <use xlink:href="#m209d50f2fd" x="51.14" y="183.461818" style="fill: #41607f; stroke: #41607f; stroke-width: 0.8"/>
      </g>
     </g>
     <g id="text_9">
      <text style="font-size: 11px; font-family: 'DejaVu Sans'; text-anchor: end; fill: #41607f" x="44.14" y="187.640959" transform="rotate(-0 44.14 187.640959)">0.4</text>
     </g>
    </g>
    <g id="ytick_4">
     <g id="line2d_17">
      <path d="M 51.14 139.032727 
L 494.37 139.032727 
" clip-path="url(#p26d5183596)" style="fill: none; stroke: #eef2f6; stroke-linecap: square"/>
     </g>
     <g id="line2d_18">
      <g>
       <use xlink:href="#m209d50f2fd" x="51.14" y="139.032727" style="fill: #41607f; stroke: #41607f; stroke-width: 0.8"/>
      </g>
     </g>
     <g id="text_10">
      <text style="font-size: 11px; font-family: 'DejaVu Sans'; text-anchor: end; fill: #41607f" x="44.14" y="143.211868" transform="rotate(-0 44.14 143.211868)">0.6</text>
     </g>
    </g>
    <g id="ytick_5">
     <g id="line2d_19">
      <path d="M 51.14 94.603636 
L 494.37 94.603636 
" clip-path="url(#p26d5183596)" style="fill: none; stroke: #eef2f6; stroke-linecap: square"/>
     </g>
     <g id="line2d_20">
      <g>
       <use xlink:href="#m209d50f2fd" x="51.14" y="94.603636" style="fill: #41607f; stroke: #41607f; stroke-width: 0.8"/>
      </g>
     </g>
     <g id="text_11">
      <text style="font-size: 11px; font-family: 'DejaVu Sans'; text-anchor: end; fill: #41607f" x="44.14" y="98.782777" transform="rotate(-0 44.14 98.782777)">0.8</text>
     </g>
    </g>
    <g id="ytick_6">
     <g id="line2d_21">
      <path d="M 51.14 50.174545 
L 494.37 50.174545 
" clip-path="url(#p26d5183596)" style="fill: none; stroke: #eef2f6; stroke-linecap: square"/>
     </g>
     <g id="line2d_22">
      <g>
       <use xlink:href="#m209d50f2fd" x="51.14" y="50.174545" style="fill: #41607f; stroke: #41607f; stroke-width: 0.8"/>
      </g>
     </g>
     <g id="text_12">
      <text style="font-size: 11px; font-family: 'DejaVu Sans'; text-anchor: end; fill: #41607f" x="44.14" y="54.353686" transform="rotate(-0 44.14 54.353686)">1.0</text>
     </g>
    </g>
    <g id="text_13">
     <text style="font-size: 11px; font-family: 'DejaVu Sans'; text-anchor: middle; fill: #1f3a5f" x="20.358906" y="150.14" transform="rotate(-90 20.358906 150.14)">Position risk / expected loss (relative)</text>
    </g>
   </g>
   <g id="FillBetweenPolyCollection_1">
    <defs>
     <path id="m1cffbe3a6b" d="M 51.14 -44.48 
L 51.14 -144.445455 
L 53.367286 -145.672849 
L 55.594573 -146.899938 
L 57.821859 -148.126415 
L 60.049146 -149.351975 
L 62.276432 -150.576312 
L 64.503719 -151.799121 
L 66.731005 -153.020097 
L 68.958291 -154.238936 
L 71.185578 -155.455335 
L 73.412864 -156.668989 
L 75.640151 -157.879598 
L 77.867437 -159.086858 
L 80.094724 -160.290469 
L 82.32201 -161.490131 
L 84.549296 -162.685546 
L 86.776583 -163.876415 
L 89.003869 -165.062441 
L 91.231156 -166.243328 
L 93.458442 -167.418784 
L 95.685729 -168.588514 
L 97.913015 -169.752227 
L 100.140302 -170.909633 
L 102.367588 -172.060443 
L 104.594874 -173.204372 
L 106.822161 -174.341133 
L 109.049447 -175.470443 
L 111.276734 -176.592021 
L 113.50402 -177.705588 
L 115.731307 -178.810866 
L 117.958593 -179.907579 
L 120.185879 -180.995454 
L 122.413166 -182.07422 
L 124.640452 -183.143608 
L 126.867739 -184.203352 
L 129.095025 -185.253187 
L 131.322312 -186.292853 
L 133.549598 -187.322088 
L 135.776884 -188.340639 
L 138.004171 -189.348249 
L 140.231457 -190.344669 
L 142.458744 -191.32965 
L 144.68603 -192.302946 
L 146.913317 -193.264315 
L 149.140603 -194.213518 
L 151.367889 -195.150317 
L 153.595176 -196.07448 
L 155.822462 -196.985775 
L 158.049749 -197.883976 
L 160.277035 -198.76886 
L 162.504322 -199.640205 
L 164.731608 -200.497794 
L 166.958894 -201.341414 
L 169.186181 -202.170854 
L 171.413467 -202.985907 
L 173.640754 -203.786371 
L 175.86804 -204.572047 
L 178.095327 -205.342737 
L 180.322613 -206.09825 
L 182.549899 -206.838399 
L 184.777186 -207.562997 
L 187.004472 -208.271866 
L 189.231759 -208.964827 
L 191.459045 -209.641709 
L 193.686332 -210.302343 
L 195.913618 -210.946564 
L 198.140905 -211.574211 
L 200.368191 -212.185129 
L 202.595477 -212.779164 
L 204.822764 -213.356169 
L 207.05005 -213.916 
L 209.277337 -214.458518 
L 211.504623 -214.983587 
L 213.73191 -215.491076 
L 215.959196 -215.980859 
L 218.186482 -216.452814 
L 220.413769 -216.906824 
L 222.641055 -217.342774 
L 224.868342 -217.760557 
L 227.095628 -218.160069 
L 229.322915 -218.541209 
L 231.550201 -218.903882 
L 233.777487 -219.248 
L 236.004774 -219.573475 
L 238.23206 -219.880226 
L 240.459347 -220.168177 
L 242.686633 -220.437257 
L 244.91392 -220.687398 
L 247.141206 -220.918538 
L 249.368492 -221.130619 
L 251.595779 -221.323589 
L 253.823065 -221.497399 
L 256.050352 -221.652006 
L 258.277638 -221.787372 
L 260.504925 -221.903462 
L 262.732211 -222.000248 
L 264.959497 -222.077706 
L 267.186784 -222.135817 
L 269.41407 -222.174565 
L 271.641357 -222.193941 
L 273.868643 -222.193941 
L 276.09593 -222.174565 
L 278.323216 -222.135817 
L 280.550503 -222.077706 
L 282.777789 -222.000248 
L 285.005075 -221.903462 
L 287.232362 -221.787372 
L 289.459648 -221.652006 
L 291.686935 -221.497399 
L 293.914221 -221.323589 
L 296.141508 -221.130619 
L 298.368794 -220.918538 
L 300.59608 -220.687398 
L 302.823367 -220.437257 
L 305.050653 -220.168177 
L 307.27794 -219.880226 
L 309.505226 -219.573475 
L 311.732513 -219.248 
L 313.959799 -218.903882 
L 316.187085 -218.541209 
L 318.414372 -218.160069 
L 320.641658 -217.760557 
L 322.868945 -217.342774 
L 325.096231 -216.906824 
L 327.323518 -216.452814 
L 329.550804 -215.980859 
L 331.77809 -215.491076 
L 334.005377 -214.983587 
L 336.232663 -214.458518 
L 338.45995 -213.916 
L 340.687236 -213.356169 
L 342.914523 -212.779164 
L 345.141809 -212.185129 
L 347.369095 -211.574211 
L 349.596382 -210.946564 
L 351.823668 -210.302343 
L 354.050955 -209.641709 
L 356.278241 -208.964827 
L 358.505528 -208.271866 
L 360.732814 -207.562997 
L 362.960101 -206.838399 
L 365.187387 -206.09825 
L 367.414673 -205.342737 
L 369.64196 -204.572047 
L 371.869246 -203.786371 
L 374.096533 -202.985907 
L 376.323819 -202.170854 
L 378.551106 -201.341414 
L 380.778392 -200.497794 
L 383.005678 -199.640205 
L 385.232965 -198.76886 
L 387.460251 -197.883976 
L 389.687538 -196.985775 
L 391.914824 -196.07448 
L 394.142111 -195.150317 
L 396.369397 -194.213518 
L 398.596683 -193.264315 
L 400.82397 -192.302946 
L 403.051256 -191.32965 
L 405.278543 -190.344669 
L 407.505829 -189.348249 
L 409.733116 -188.340639 
L 411.960402 -187.322088 
L 414.187688 -186.292853 
L 416.414975 -185.253187 
L 418.642261 -184.203352 
L 420.869548 -183.143608 
L 423.096834 -182.07422 
L 425.324121 -180.995454 
L 427.551407 -179.907579 
L 429.778693 -178.810866 
L 432.00598 -177.705588 
L 434.233266 -176.592021 
L 436.460553 -175.470443 
L 438.687839 -174.341133 
L 440.915126 -173.204372 
L 443.142412 -172.060443 
L 445.369698 -170.909633 
L 447.596985 -169.752227 
L 449.824271 -168.588514 
L 452.051558 -167.418784 
L 454.278844 -166.243328 
L 456.506131 -165.062441 
L 458.733417 -163.876415 
L 460.960704 -162.685546 
L 463.18799 -161.490131 
L 465.415276 -160.290469 
L 467.642563 -159.086858 
L 469.869849 -157.879598 
L 472.097136 -156.668989 
L 474.324422 -155.455335 
L 476.551709 -154.238936 
L 478.778995 -153.020097 
L 481.006281 -151.799121 
L 483.233568 -150.576312 
L 485.460854 -149.351975 
L 487.688141 -148.126415 
L 489.915427 -146.899938 
L 492.142714 -145.672849 
L 494.37 -144.445455 
L 494.37 -44.48 
L 494.37 -44.48 
L 492.142714 -44.48 
L 489.915427 -44.48 
L 487.688141 -44.48 
L 485.460854 -44.48 
L 483.233568 -44.48 
L 481.006281 -44.48 
L 478.778995 -44.48 
L 476.551709 -44.48 
L 474.324422 -44.48 
L 472.097136 -44.48 
L 469.869849 -44.48 
L 467.642563 -44.48 
L 465.415276 -44.48 
L 463.18799 -44.48 
L 460.960704 -44.48 
L 458.733417 -44.48 
L 456.506131 -44.48 
L 454.278844 -44.48 
L 452.051558 -44.48 
L 449.824271 -44.48 
L 447.596985 -44.48 
L 445.369698 -44.48 
L 443.142412 -44.48 
L 440.915126 -44.48 
L 438.687839 -44.48 
L 436.460553 -44.48 
L 434.233266 -44.48 
L 432.00598 -44.48 
L 429.778693 -44.48 
L 427.551407 -44.48 
L 425.324121 -44.48 
L 423.096834 -44.48 
L 420.869548 -44.48 
L 418.642261 -44.48 
L 416.414975 -44.48 
L 414.187688 -44.48 
L 411.960402 -44.48 
L 409.733116 -44.48 
L 407.505829 -44.48 
L 405.278543 -44.48 
L 403.051256 -44.48 
L 400.82397 -44.48 
L 398.596683 -44.48 
L 396.369397 -44.48 
L 394.142111 -44.48 
L 391.914824 -44.48 
L 389.687538 -44.48 
L 387.460251 -44.48 
L 385.232965 -44.48 
L 383.005678 -44.48 
L 380.778392 -44.48 
L 378.551106 -44.48 
L 376.323819 -44.48 
L 374.096533 -44.48 
L 371.869246 -44.48 
L 369.64196 -44.48 
L 367.414673 -44.48 
L 365.187387 -44.48 
L 362.960101 -44.48 
L 360.732814 -44.48 
L 358.505528 -44.48 
L 356.278241 -44.48 
L 354.050955 -44.48 
L 351.823668 -44.48 
L 349.596382 -44.48 
L 347.369095 -44.48 
L 345.141809 -44.48 
L 342.914523 -44.48 
L 340.687236 -44.48 
L 338.45995 -44.48 
L 336.232663 -44.48 
L 334.005377 -44.48 
L 331.77809 -44.48 
L 329.550804 -44.48 
L 327.323518 -44.48 
L 325.096231 -44.48 
L 322.868945 -44.48 
L 320.641658 -44.48 
L 318.414372 -44.48 
L 316.187085 -44.48 
L 313.959799 -44.48 
L 311.732513 -44.48 
L 309.505226 -44.48 
L 307.27794 -44.48 
L 305.050653 -44.48 
L 302.823367 -44.48 
L 300.59608 -44.48 
L 298.368794 -44.48 
L 296.141508 -44.48 
L 293.914221 -44.48 
L 291.686935 -44.48 
L 289.459648 -44.48 
L 287.232362 -44.48 
L 285.005075 -44.48 
L 282.777789 -44.48 
L 280.550503 -44.48 
L 278.323216 -44.48 
L 276.09593 -44.48 
L 273.868643 -44.48 
L 271.641357 -44.48 
L 269.41407 -44.48 
L 267.186784 -44.48 
L 264.959497 -44.48 
L 262.732211 -44.48 
L 260.504925 -44.48 
L 258.277638 -44.48 
L 256.050352 -44.48 
L 253.823065 -44.48 
L 251.595779 -44.48 
L 249.368492 -44.48 
L 247.141206 -44.48 
L 244.91392 -44.48 
L 242.686633 -44.48 
L 240.459347 -44.48 
L 238.23206 -44.48 
L 236.004774 -44.48 
L 233.777487 -44.48 
L 231.550201 -44.48 
L 229.322915 -44.48 
L 227.095628 -44.48 
L 224.868342 -44.48 
L 222.641055 -44.48 
L 220.413769 -44.48 
L 218.186482 -44.48 
L 215.959196 -44.48 
L 213.73191 -44.48 
L 211.504623 -44.48 
L 209.277337 -44.48 
L 207.05005 -44.48 
L 204.822764 -44.48 
L 202.595477 -44.48 
L 200.368191 -44.48 
L 198.140905 -44.48 
L 195.913618 -44.48 
L 193.686332 -44.48 
L 191.459045 -44.48 
L 189.231759 -44.48 
L 187.004472 -44.48 
L 184.777186 -44.48 
L 182.549899 -44.48 
L 180.322613 -44.48 
L 178.095327 -44.48 
L 175.86804 -44.48 
L 173.640754 -44.48 
L 171.413467 -44.48 
L 169.186181 -44.48 
L 166.958894 -44.48 
L 164.731608 -44.48 
L 162.504322 -44.48 
L 160.277035 -44.48 
L 158.049749 -44.48 
L 155.822462 -44.48 
L 153.595176 -44.48 
L 151.367889 -44.48 
L 149.140603 -44.48 
L 146.913317 -44.48 
L 144.68603 -44.48 
L 142.458744 -44.48 
L 140.231457 -44.48 
L 138.004171 -44.48 
L 135.776884 -44.48 
L 133.549598 -44.48 
L 131.322312 -44.48 
L 129.095025 -44.48 
L 126.867739 -44.48 
L 124.640452 -44.48 
L 122.413166 -44.48 
L 120.185879 -44.48 
L 117.958593 -44.48 
L 115.731307 -44.48 
L 113.50402 -44.48 
L 111.276734 -44.48 
L 109.049447 -44.48 
L 106.822161 -44.48 
L 104.594874 -44.48 
L 102.367588 -44.48 
L 100.140302 -44.48 
L 97.913015 -44.48 
L 95.685729 -44.48 
L 93.458442 -44.48 
L 91.231156 -44.48 
L 89.003869 -44.48 
L 86.776583 -44.48 
L 84.549296 -44.48 
L 82.32201 -44.48 
L 80.094724 -44.48 
L 77.867437 -44.48 
L 75.640151 -44.48 
L 73.412864 -44.48 
L 71.185578 -44.48 
L 68.958291 -44.48 
L 66.731005 -44.48 
L 64.503719 -44.48 
L 62.276432 -44.48 
L 60.049146 -44.48 
L 57.821859 -44.48 
L 55.594573 -44.48 
L 53.367286 -44.48 
L 51.14 -44.48 
z
" style="stroke: #c8902d; stroke-opacity: 0.1"/>
    </defs>
    <g clip-path="url(#p26d5183596)">
     <use xlink:href="#m1cffbe3a6b" x="0" y="316.8" style="fill: #c8902d; fill-opacity: 0.1; stroke: #c8902d; stroke-opacity: 0.1"/>
    </g>
   </g>
   <g id="line2d_23">
    <path d="M 51.14 172.354545 
L 80.094724 156.509531 
L 95.685729 148.211486 
L 109.049447 141.329557 
L 120.185879 135.804546 
L 131.322312 130.507147 
L 142.458744 125.47035 
L 151.367889 121.649683 
L 160.277035 118.03114 
L 169.186181 114.629146 
L 178.095327 111.457263 
L 187.004472 108.528134 
L 195.913618 105.853436 
L 204.822764 103.443831 
L 213.73191 101.308924 
L 222.641055 99.457226 
L 231.550201 97.896118 
L 240.459347 96.631823 
L 247.141206 95.881462 
L 253.823065 95.302601 
L 260.504925 94.896538 
L 267.186784 94.664183 
L 273.868643 94.606059 
L 280.550503 94.722294 
L 287.232362 95.012628 
L 293.914221 95.476411 
L 300.59608 96.112602 
L 307.27794 96.919774 
L 316.187085 98.258791 
L 325.096231 99.893176 
L 334.005377 101.816413 
L 342.914523 104.020836 
L 351.823668 106.497657 
L 360.732814 109.237003 
L 369.64196 112.227953 
L 378.551106 115.458586 
L 387.460251 118.916024 
L 396.369397 122.586482 
L 407.505829 127.451751 
L 418.642261 132.596648 
L 429.778693 137.989134 
L 443.142412 144.739557 
L 456.506131 151.737559 
L 474.324422 161.344665 
L 494.37 172.354545 
L 494.37 172.354545 
" clip-path="url(#p26d5183596)" style="fill: none; stroke: #c8902d; stroke-width: 2.8; stroke-linecap: square"/>
   </g>
   <g id="patch_3">
    <path d="M 51.14 272.32 
L 51.14 27.96 
" style="fill: none; stroke: #41607f; stroke-width: 0.8; stroke-linejoin: miter; stroke-linecap: square"/>
   </g>
   <g id="patch_4">
    <path d="M 494.37 272.32 
L 494.37 27.96 
" style="fill: none; stroke: #41607f; stroke-width: 0.8; stroke-linejoin: miter; stroke-linecap: square"/>
   </g>
   <g id="patch_5">
    <path d="M 51.14 272.32 
L 494.37 272.32 
" style="fill: none; stroke: #41607f; stroke-width: 0.8; stroke-linejoin: miter; stroke-linecap: square"/>
   </g>
   <g id="patch_6">
    <path d="M 51.14 27.96 
L 494.37 27.96 
" style="fill: none; stroke: #41607f; stroke-width: 0.8; stroke-linejoin: miter; stroke-linecap: square"/>
   </g>
   <g id="patch_7">
    <path d="M 327.797057 100.632767 
Q 392.424026 126.407155 455.38941 151.518873 
" style="fill: none; stroke: #c8902d; stroke-width: 1.6; stroke-linecap: round"/>
    <path d="M 452.117425 147.84544 
L 455.38941 151.518873 
L 450.487472 151.932401 
" style="fill: none; stroke: #c8902d; stroke-width: 1.6; stroke-linecap: round"/>
   </g>
   <g id="text_14">
    <text style="font-weight: 700; font-size: 13px; font-family: 'DejaVu Sans'; text-anchor: start; fill: #1f3a5f" x="51.14" y="21.96" transform="rotate(-0 51.14 21.96)">CDO Tranche Risk vs Correlation — Investor Lens</text>
   </g>
   <g id="legend_1">
    <g id="line2d_24">
     <path d="M 133.24375 39.748594 
L 142.24375 39.748594 
L 151.24375 39.748594 
" style="fill: none; stroke: #c8902d; stroke-width: 2.8; stroke-linecap: square"/>
    </g>
    <g id="text_15">
     <text style="font-size: 9px; font-family: 'DejaVu Sans'; text-anchor: start; fill: #1f3a5f" x="158.44375" y="42.898594" transform="rotate(-0 158.44375 42.898594)">Sign-ambiguous (mezzanine) — depends on attachment</text>
    </g>
   </g>
  </g>
 </g>
 <defs>
  <clipPath id="p26d5183596">
   <rect x="51.14" y="27.96" width="443.23" height="244.36"/>
  </clipPath>
 </defs>
</svg>
